<?xml version="1.0" encoding="utf-8"?>
<!-- Generator: Adobe Illustrator 16.0.0, SVG Export Plug-In . SVG Version: 6.00 Build 0)  -->
<!DOCTYPE svg PUBLIC "-//W3C//DTD SVG 1.1//EN" "http://www.w3.org/Graphics/SVG/1.1/DTD/svg11.dtd">
<svg version="1.1" id="Layer_1" xmlns="http://www.w3.org/2000/svg" xmlns:xlink="http://www.w3.org/1999/xlink" x="0px" y="0px"
	 width="42.318px" height="43.834px" viewBox="0 0 42.318 43.834" enable-background="new 0 0 42.318 43.834" xml:space="preserve">
<g>
		<ellipse transform="matrix(-0.4916 -0.8708 0.8708 -0.4916 21.6069 54.9044)" fill="#D5D5D5" cx="26.832" cy="21.145" rx="1.366" ry="1.871"/>
	<path fill="#D5D5D5" d="M21.171,0.64c-11.683,0-21.149,9.47-21.149,21.149c0,11.682,9.467,21.15,21.149,21.15
		c11.679,0,21.147-9.469,21.147-21.15C42.318,10.109,32.85,0.64,21.171,0.64z M35.104,23.764c-1.523,3.053-4.218,5.907-7.801,7.931
		c-7.663,4.323-16.488,3.196-19.712-2.517c-3.224-5.715,0.374-13.854,8.037-18.176c5.7-3.215,12.047-3.414,16.25-0.952
		c1.094,0.704,2.306,1.885,2.014,3.608c-0.295,1.737-1.294,1.135-3.529,1.86c-2.233,0.726-1.302,2.262-0.648,2.825
		c0.655,0.564,4.15,1.668,5.226,2.999C35.523,22.066,35.492,22.793,35.104,23.764z"/>
</g>
</svg>
