<?xml version="1.0" encoding="utf-8"?>
<!-- Generator: Adobe Illustrator 16.0.0, SVG Export Plug-In . SVG Version: 6.00 Build 0)  -->
<!DOCTYPE svg PUBLIC "-//W3C//DTD SVG 1.1//EN" "http://www.w3.org/Graphics/SVG/1.1/DTD/svg11.dtd">
<svg version="1.1" id="Layer_1" xmlns="http://www.w3.org/2000/svg" xmlns:xlink="http://www.w3.org/1999/xlink" x="0px" y="0px"
	 width="162px" height="29.667px" viewBox="0 0 162 29.667" enable-background="new 0 0 162 29.667" xml:space="preserve">
<g>
	<path d="M9.147,18.838l-1.772,5.055c-0.049,0.121-0.098,0.17-0.22,0.169l-1.801-0.007c-0.122,0-0.17-0.074-0.145-0.195l5.439-14.97
		c0.049-0.194,0.123-0.389,0.175-1.07c0-0.073,0.049-0.122,0.122-0.121l2.555,0.01c0.098,0,0.122,0.025,0.146,0.099l5.704,16.11
		c0.048,0.122,0.023,0.195-0.098,0.194l-2.02-0.008c-0.097,0-0.146-0.05-0.194-0.147l-1.805-5.094L9.147,18.838z M14.776,17.133
		c-0.529-1.608-2.069-5.996-2.549-7.652h-0.024c-0.396,1.483-1.651,5.007-2.562,7.632L14.776,17.133z"/>
	<path d="M20.466,18.348c0.014-3.602,2.556-6.196,6.571-6.18c0.852,0.003,1.338,0.103,1.825,0.226l0.023-5.841
		c0-0.097,0.05-0.146,0.147-0.145l1.923,0.007c0.097,0,0.121,0.049,0.121,0.146l-0.061,15.333c-0.001,0.414,0.021,0.925,0.044,1.242
		c0.024,0.097,0,0.146-0.123,0.194c-1.366,0.725-2.973,1.059-4.458,1.053C23.046,24.37,20.45,22.364,20.466,18.348z M28.855,14.146
		c-0.388-0.22-1.045-0.369-1.873-0.372c-2.702-0.011-4.267,1.833-4.277,4.485c-0.013,3.188,2.027,4.413,3.999,4.421
		c0.754,0.003,1.583-0.091,2.119-0.381L28.855,14.146z"/>
	<path d="M44.754,18.324c-0.015,3.748-2.361,6.124-5.72,6.11c-3.991-0.016-5.73-3.114-5.719-6.131
		c0.014-3.505,2.336-6.1,5.792-6.086C42.612,12.23,44.768,14.819,44.754,18.324z M35.531,18.262
		c-0.01,2.556,1.296,4.508,3.583,4.517c1.704,0.007,3.413-1.3,3.425-4.416c0.01-2.41-1.053-4.483-3.536-4.493
		C36.96,13.863,35.542,15.561,35.531,18.262z"/>
	<path d="M49.182,6.489c0.122,0,0.17,0.025,0.17,0.146l-0.025,6.255c0.829-0.362,1.755-0.626,2.898-0.621
		c3.334,0.013,5.467,2.431,5.453,5.838c-0.017,4.113-3.068,6.389-6.232,6.376c-1.631-0.007-2.968-0.28-4.231-0.869
		c-0.097-0.049-0.146-0.122-0.145-0.22l0.067-16.769c0-0.097,0.049-0.146,0.171-0.146L49.182,6.489z M51.781,13.971
		c-0.9-0.003-1.753,0.188-2.46,0.55l-0.032,7.886c0.704,0.368,1.532,0.468,2.311,0.472c2.093,0.008,3.827-1.591,3.839-4.585
		C55.449,15.64,54.044,13.98,51.781,13.971z"/>
	<path d="M61.545,18.609c-0.059,2.41,1.249,4.167,3.95,4.178c1.071,0.004,2.094-0.162,3.021-0.621
		c0.073-0.048,0.146-0.023,0.146,0.098l-0.005,1.339c0,0.146-0.049,0.194-0.123,0.218c-0.854,0.435-1.975,0.722-3.483,0.716
		c-4.284-0.017-5.756-3.041-5.744-6.034c0.014-3.407,2.02-6.198,5.476-6.185c3.529,0.014,4.759,2.721,4.751,4.838
		c-0.002,0.56-0.028,0.949-0.078,1.217c-0.025,0.098-0.074,0.17-0.196,0.194c-0.341,0.047-1.412,0.067-2.507,0.063L61.545,18.609z
		 M65.883,17.191c1.168,0.004,1.46-0.019,1.533-0.043c0.024-0.049,0.025-0.292,0.026-0.365c0.004-1.046-0.549-2.849-2.763-2.858
		c-1.947-0.008-2.927,1.546-3.128,3.249L65.883,17.191z"/>
	<path d="M84.358,16.267c1.019,0.807,2.52,2.882,3.366,4.248c1.137,1.83,1.962,2.32,2.838,2.324
		c0.243,0.001,0.462-0.022,0.658-0.071c0.097,0,0.146,0.025,0.146,0.147l-0.005,1.29c0,0.146-0.025,0.195-0.171,0.243
		c-0.244,0.121-0.609,0.192-1.145,0.19c-1.484-0.006-2.505-0.351-4.27-3.302c-1.692-2.928-3.801-4.957-4.239-4.958
		c-1.022-0.004-2.729,0.914-2.738,3.104c-0.006,1.655,1.13,3.291,3.37,3.299c1.046,0.004,1.777-0.188,2.363-0.478
		c0.098-0.024,0.122,0.025,0.121,0.122l-0.006,1.46c0,0.122-0.049,0.17-0.146,0.219c-0.488,0.217-1.414,0.505-2.777,0.5
		c-3.018-0.012-5.201-1.943-5.188-4.937c0.01-2.458,1.55-4.131,3.767-4.707c-0.703-0.733-1.672-1.808-1.666-3.365
		c0.01-2.41,1.816-3.862,4.348-3.853c1.217,0.005,2.238,0.252,2.82,0.644c0.097,0.049,0.121,0.146,0.121,0.244l-0.006,1.582
		c0,0.146-0.098,0.17-0.195,0.097c-0.51-0.343-1.311-0.784-2.504-0.789c-1.484-0.006-2.412,0.745-2.418,2.133
		c-0.004,1.144,0.917,2.072,2.058,2.879l7.715,0.031c0.122,0,0.146,0.049,0.121,0.171l-0.273,1.41
		c-0.049,0.122-0.098,0.146-0.195,0.146L84.358,16.267z"/>
	<path d="M109.415,24.472c-0.122,0-0.146-0.025-0.145-0.171l0.029-7.277l-8.104-0.032l-0.029,7.252c0,0.122-0.05,0.194-0.171,0.194
		l-1.85-0.007c-0.146,0-0.17-0.049-0.169-0.195l0.064-16.014c0-0.122,0.025-0.17,0.171-0.17l1.85,0.007
		c0.122,0,0.17,0.05,0.169,0.171l-0.028,7.034l8.104,0.032l0.028-7.034c0-0.122,0.025-0.17,0.147-0.17l1.923,0.008
		c0.097,0,0.121,0.049,0.121,0.171L111.46,24.31c0,0.146-0.025,0.17-0.147,0.17L109.415,24.472z"/>
	<path d="M118.915,9.858l-5.282-0.021c-0.122,0-0.146-0.049-0.121-0.171l0.249-1.386c0.025-0.122,0.074-0.17,0.195-0.169
		l12.193,0.049c0.146,0,0.17,0.049,0.193,0.171l0.189,1.364c0.024,0.122-0.025,0.195-0.146,0.194l-5.281-0.021l-0.058,14.457
		c0,0.146-0.05,0.195-0.171,0.194l-1.826-0.007c-0.122,0-0.194-0.05-0.193-0.196L118.915,9.858z"/>
	<path d="M128.851,8.17l2.92,0.012c0.122,0,0.171,0.049,0.194,0.146c0.817,2.583,3.703,11.356,4.205,13.452h0.024
		c0.544-1.993,3.67-10.864,4.507-13.417c0.05-0.097,0.074-0.146,0.196-0.146l2.799,0.011c0.121,0,0.146,0.025,0.17,0.123
		l0.764,16.115c0.023,0.098-0.05,0.146-0.147,0.146l-1.972-0.008c-0.121,0-0.17-0.025-0.169-0.146
		c-0.197-5.526-0.386-13.217-0.38-14.678h-0.023c-0.594,2.164-3.795,11.521-4.805,14.657c-0.05,0.122-0.099,0.146-0.196,0.145
		l-1.752-0.007c-0.146,0-0.194-0.049-0.242-0.147c-1.25-3.996-3.798-12.16-4.469-14.743h-0.024
		c-0.033,2.19-0.403,9.612-0.715,14.722c-0.001,0.122-0.05,0.146-0.172,0.145l-1.801-0.007c-0.122,0-0.146-0.025-0.146-0.146
		l1.086-16.083C128.729,8.169,128.777,8.169,128.851,8.17z"/>
	<path d="M148.302,24.627c-0.17-0.001-0.219-0.074-0.218-0.22l0.063-15.99c0.001-0.097,0.05-0.17,0.171-0.17l1.898,0.008
		c0.098,0,0.146,0.049,0.146,0.146l-0.058,14.505l7.472,0.03c0.146,0,0.17,0.074,0.145,0.171l-0.321,1.411
		c-0.025,0.121-0.099,0.146-0.195,0.145L148.302,24.627z"/>
</g>
</svg>
