<?xml version="1.0" encoding="utf-8"?>
<!-- Generator: Adobe Illustrator 16.0.0, SVG Export Plug-In . SVG Version: 6.00 Build 0)  -->
<!DOCTYPE svg PUBLIC "-//W3C//DTD SVG 1.1//EN" "http://www.w3.org/Graphics/SVG/1.1/DTD/svg11.dtd">
<svg version="1.1" id="Layer_1" xmlns="http://www.w3.org/2000/svg" xmlns:xlink="http://www.w3.org/1999/xlink" x="0px" y="0px"
	 width="162px" height="29.667px" viewBox="0 0 162 29.667" enable-background="new 0 0 162 29.667" xml:space="preserve">
<g>
	<path d="M8.268,18.225l-1.694,4.894c-0.047,0.118-0.094,0.165-0.211,0.165H4.621c-0.118,0-0.165-0.071-0.141-0.188l5.2-14.494
		c0.047-0.188,0.118-0.376,0.165-1.035c0-0.071,0.047-0.118,0.118-0.118h2.47c0.094,0,0.118,0.023,0.141,0.094l5.577,15.553
		c0.047,0.117,0.023,0.188-0.094,0.188h-1.953c-0.094,0-0.141-0.047-0.188-0.141l-1.765-4.917H8.268z M13.703,16.554
		c-0.518-1.553-2.023-5.788-2.494-7.388h-0.023c-0.376,1.436-1.576,4.847-2.447,7.388H13.703z"/>
	<path d="M19.678,17.708c0-3.482,2.447-6,6.329-6c0.824,0,1.294,0.094,1.765,0.211V6.272c0-0.094,0.047-0.141,0.141-0.141h1.859
		c0.094,0,0.118,0.047,0.118,0.141v14.824c0,0.4,0.023,0.894,0.047,1.2c0.024,0.094,0,0.141-0.118,0.188
		c-1.317,0.706-2.87,1.035-4.306,1.035C22.196,23.519,19.678,21.59,19.678,17.708z M27.772,13.613
		c-0.376-0.212-1.012-0.353-1.812-0.353c-2.612,0-4.118,1.788-4.118,4.353c0,3.082,1.977,4.259,3.882,4.259
		c0.729,0,1.529-0.094,2.047-0.376V13.613z"/>
	<path d="M43.63,17.59c0,3.623-2.259,5.929-5.506,5.929c-3.859,0-5.553-2.988-5.553-5.906c0-3.388,2.235-5.906,5.576-5.906
		C41.536,11.708,43.63,14.202,43.63,17.59z M34.712,17.566c0,2.471,1.271,4.353,3.482,4.353c1.647,0,3.294-1.271,3.294-4.282
		c0-2.33-1.036-4.329-3.436-4.329C36.077,13.308,34.712,14.955,34.712,17.566z"/>
	<path d="M48.334,6.131c0.118,0,0.165,0.023,0.165,0.141v6.047c0.8-0.353,1.694-0.612,2.8-0.612c3.224,0,5.294,2.329,5.294,5.624
		c0,3.976-2.941,6.188-6,6.188c-1.577,0-2.871-0.259-4.094-0.824c-0.094-0.047-0.141-0.118-0.141-0.211V6.272
		c0-0.094,0.047-0.141,0.165-0.141H48.334z M50.875,13.354c-0.871,0-1.694,0.188-2.376,0.541v7.624
		c0.683,0.353,1.482,0.447,2.235,0.447c2.023,0,3.694-1.553,3.694-4.447C54.428,14.955,53.064,13.354,50.875,13.354z"/>
	<path d="M60.804,17.801c-0.047,2.33,1.223,4.023,3.835,4.023c1.035,0,2.023-0.165,2.918-0.612c0.07-0.047,0.141-0.023,0.141,0.094
		v1.294c0,0.141-0.047,0.188-0.118,0.211c-0.824,0.424-1.906,0.706-3.365,0.706c-4.141,0-5.577-2.917-5.577-5.812
		c0-3.294,1.93-6,5.271-6c3.412,0,4.612,2.612,4.612,4.659c0,0.541-0.023,0.917-0.07,1.176c-0.024,0.094-0.071,0.165-0.188,0.188
		c-0.33,0.047-1.365,0.07-2.423,0.07H60.804z M64.992,16.413c1.129,0,1.412-0.023,1.482-0.047c0.023-0.047,0.023-0.282,0.023-0.353
		c0-1.012-0.541-2.753-2.682-2.753c-1.882,0-2.824,1.506-3.012,3.153H64.992z"/>
	<path d="M83.79,15.449c0.988,0.776,2.447,2.776,3.271,4.094c1.106,1.765,1.906,2.235,2.753,2.235c0.235,0,0.447-0.023,0.635-0.071
		c0.094,0,0.141,0.024,0.141,0.142v1.247c0,0.141-0.023,0.188-0.165,0.235c-0.235,0.118-0.588,0.188-1.106,0.188
		c-1.436,0-2.423-0.33-4.141-3.176c-1.647-2.824-3.694-4.776-4.118-4.776c-0.988,0-2.635,0.894-2.635,3.012
		c0,1.6,1.106,3.176,3.271,3.176c1.012,0,1.718-0.188,2.282-0.471c0.094-0.023,0.118,0.023,0.118,0.118v1.412
		c0,0.118-0.047,0.165-0.141,0.212c-0.471,0.212-1.365,0.494-2.682,0.494c-2.917,0-5.035-1.859-5.035-4.753
		c0-2.376,1.482-4,3.624-4.564c-0.683-0.706-1.624-1.741-1.624-3.247c0-2.33,1.741-3.741,4.188-3.741
		c1.176,0,2.165,0.235,2.729,0.612c0.094,0.047,0.118,0.141,0.118,0.235V9.59c0,0.141-0.094,0.165-0.188,0.094
		c-0.494-0.33-1.271-0.753-2.423-0.753c-1.436,0-2.33,0.729-2.33,2.07c0,1.106,0.894,2,2,2.776h7.459
		c0.118,0,0.141,0.047,0.118,0.165l-0.259,1.364c-0.047,0.118-0.094,0.142-0.188,0.142H83.79z"/>
	<path d="M108.987,23.284c-0.118,0-0.141-0.023-0.141-0.165v-7.035h-7.835v7.012c0,0.117-0.047,0.188-0.165,0.188h-1.788
		c-0.141,0-0.165-0.047-0.165-0.188V7.613c0-0.118,0.024-0.165,0.165-0.165h1.788c0.118,0,0.165,0.047,0.165,0.165v6.8h7.835v-6.8
		c0-0.118,0.023-0.165,0.141-0.165h1.859c0.094,0,0.118,0.047,0.118,0.165v15.506c0,0.141-0.024,0.165-0.142,0.165H108.987z"/>
	<path d="M118.585,9.119h-5.106c-0.118,0-0.141-0.047-0.118-0.165l0.235-1.341c0.023-0.118,0.071-0.165,0.188-0.165h11.788
		c0.142,0,0.165,0.047,0.188,0.165l0.188,1.318c0.024,0.118-0.023,0.188-0.141,0.188h-5.105v13.977c0,0.141-0.047,0.188-0.165,0.188
		h-1.765c-0.118,0-0.188-0.047-0.188-0.188V9.119z"/>
	<path d="M128.655,7.449h2.823c0.118,0,0.165,0.047,0.188,0.141c0.8,2.494,3.624,10.964,4.118,12.988h0.023
		c0.518-1.929,3.506-10.517,4.306-12.988c0.047-0.094,0.071-0.141,0.188-0.141h2.706c0.118,0,0.141,0.023,0.165,0.118l0.8,15.576
		c0.023,0.094-0.047,0.141-0.141,0.141h-1.906c-0.117,0-0.165-0.023-0.165-0.141c-0.212-5.341-0.423-12.776-0.423-14.188h-0.023
		c-0.565,2.094-3.624,11.153-4.588,14.188c-0.047,0.118-0.094,0.141-0.188,0.141h-1.694c-0.141,0-0.188-0.047-0.235-0.141
		c-1.224-3.859-3.718-11.741-4.376-14.235h-0.023c-0.023,2.118-0.353,9.294-0.635,14.235c0,0.118-0.047,0.141-0.165,0.141h-1.741
		c-0.118,0-0.141-0.023-0.141-0.141l0.988-15.553C128.537,7.449,128.584,7.449,128.655,7.449z"/>
	<path d="M147.994,23.284c-0.165,0-0.212-0.071-0.212-0.212V7.613c0-0.094,0.047-0.165,0.165-0.165h1.835
		c0.094,0,0.141,0.047,0.141,0.141v14.023h7.224c0.141,0,0.165,0.07,0.141,0.165l-0.306,1.365c-0.023,0.118-0.094,0.141-0.188,0.141
		H147.994z"/>
</g>
</svg>
