<?xml version="1.0" encoding="utf-8"?>
<!-- Generator: Adobe Illustrator 16.0.0, SVG Export Plug-In . SVG Version: 6.00 Build 0)  -->
<!DOCTYPE svg PUBLIC "-//W3C//DTD SVG 1.1//EN" "http://www.w3.org/Graphics/SVG/1.1/DTD/svg11.dtd">
<svg version="1.1" id="Layer_1" xmlns="http://www.w3.org/2000/svg" xmlns:xlink="http://www.w3.org/1999/xlink" x="0px" y="0px"
	 width="68.3px" height="114.439px" viewBox="0 0 68.3 114.439" enable-background="new 0 0 68.3 114.439" xml:space="preserve">
<rect x="0" fill="#FF0000" width="68.3" height="114.439"/>
<g>
	<polygon fill="#FFFFFF" points="38.802,49.353 51.96,49.353 51.96,80.742 	"/>
	<polygon fill="#FFFFFF" points="29.527,49.353 16.355,49.353 16.355,80.742 	"/>
	<polygon fill="#FFFFFF" points="34.164,60.918 42.55,80.74 37.053,80.74 34.544,74.427 28.404,74.427 	"/>
	<g>
		<path fill="#FFFFFF" d="M54.649,49.353c0.843,0,1.515,0.678,1.515,1.524c0,0.859-0.672,1.538-1.521,1.538
			s-1.538-0.679-1.538-1.538c0-0.847,0.688-1.524,1.538-1.524H54.649z M54.642,49.612c-0.675,0-1.217,0.567-1.217,1.27
			c0,0.707,0.542,1.271,1.224,1.271c0.672,0.007,1.212-0.566,1.212-1.271c0-0.702-0.54-1.27-1.212-1.27H54.642z M54.365,51.767
			h-0.31v-1.698c0.144-0.025,0.285-0.049,0.512-0.049c0.271,0,0.442,0.053,0.556,0.141c0.094,0.068,0.146,0.188,0.146,0.346
			c0,0.22-0.142,0.363-0.33,0.411v0.017c0.149,0.026,0.245,0.161,0.277,0.414c0.042,0.265,0.077,0.367,0.105,0.419H55.01
			c-0.039-0.052-0.075-0.207-0.112-0.435c-0.035-0.201-0.146-0.286-0.356-0.286h-0.179v0.721H54.365z M54.365,50.811h0.185
			c0.221,0,0.406-0.074,0.406-0.271c0-0.15-0.107-0.285-0.392-0.285c-0.093,0-0.152,0-0.197,0.005v0.552H54.365z"/>
	</g>
	<path fill="#FFFFFF" d="M21.137,93.864l-0.416-2.461c-0.123-0.715-0.271-1.823-0.382-2.59h-0.043
		c-0.124,0.771-0.294,1.914-0.42,2.596l-0.449,2.456L21.137,93.864L21.137,93.864z M19.202,95.473l-0.541,2.732h-2.01l2.501-11.373
		h2.457l2.271,11.373h-2.018l-0.53-2.732H19.202z"/>
	<path fill="#FFFFFF" d="M28.441,93.123c0-0.147,0-0.329-0.03-0.492c-0.078-0.561-0.381-1.067-0.863-1.067
		c-0.818,0-1.125,1.188-1.125,2.575c0,1.599,0.437,2.51,1.096,2.51c0.309,0,0.662-0.157,0.854-0.826
		c0.045-0.131,0.069-0.314,0.069-0.523V93.123z M30.503,86.527v9.318c0,0.743,0.037,1.647,0.067,2.359h-1.779l-0.119-0.947h-0.041
		c-0.298,0.583-0.948,1.086-1.721,1.086c-1.702,0-2.547-1.874-2.547-4.238c0-2.877,1.263-4.275,2.629-4.275
		c0.711,0,1.182,0.346,1.415,0.852h0.034v-4.152h2.062V86.527z"/>
	<path fill="#FFFFFF" d="M34.783,96.768c0.782,0,0.982-1.474,0.982-2.697c0-1.159-0.2-2.67-1.018-2.67
		c-0.869,0-1.054,1.511-1.054,2.67c0,1.402,0.232,2.697,1.071,2.697H34.783z M34.742,98.342c-1.889,0-3.081-1.522-3.081-4.238
		c0-2.963,1.529-4.275,3.127-4.275c1.877,0,3.05,1.592,3.05,4.232c0,3.393-1.838,4.281-3.076,4.281H34.742z"/>
	<path fill="#FFFFFF" d="M41.047,95.26c0,0.204,0.035,0.399,0.078,0.525c0.206,0.693,0.561,0.863,0.837,0.863
		c0.795,0,1.12-1.004,1.12-2.612c0-1.462-0.343-2.472-1.129-2.472c-0.392,0-0.72,0.423-0.832,0.877
		c-0.039,0.142-0.074,0.363-0.074,0.521V95.26z M38.989,86.527h2.058v4.293h0.032c0.406-0.634,0.945-0.994,1.731-0.994
		c1.55,0,2.331,1.758,2.331,4.049c0,2.91-1.168,4.467-2.67,4.467c-0.723,0-1.199-0.32-1.631-1.123h-0.042l-0.112,0.986h-1.765
		c0.03-0.688,0.069-1.616,0.069-2.359v-9.318H38.989z"/>
	<path fill="#FFFFFF" d="M50.067,93.298c0.007-1.161-0.328-1.976-0.982-1.976c-0.749,0-1.064,1.094-1.088,1.976H50.067z
		 M47.99,94.746c0.024,1.49,0.811,1.978,1.788,1.978c0.623,0,1.153-0.135,1.545-0.287l0.282,1.474
		c-0.548,0.238-1.393,0.383-2.201,0.383c-2.211,0-3.411-1.498-3.411-4.067c0-2.759,1.394-4.408,3.221-4.408
		c1.769,0,2.748,1.458,2.748,3.85c0,0.545-0.026,0.85-0.063,1.093L47.99,94.746z"/>
</g>
</svg>
