<?xml version="1.0" encoding="utf-8"?>
<!-- Generator: Adobe Illustrator 16.0.0, SVG Export Plug-In . SVG Version: 6.00 Build 0)  -->
<!DOCTYPE svg PUBLIC "-//W3C//DTD SVG 1.1//EN" "http://www.w3.org/Graphics/SVG/1.1/DTD/svg11.dtd">
<svg version="1.1" id="Layer_1" xmlns="http://www.w3.org/2000/svg" xmlns:xlink="http://www.w3.org/1999/xlink" x="0px" y="0px"
	 width="100.824px" height="108.794px" viewBox="0 0 100.824 108.794" enable-background="new 0 0 100.824 108.794"
	 xml:space="preserve">
<g>
	<g>
		<path d="M19.624,95.254l-1.092,5.52h-4.058l5.054-22.968h4.957l4.585,22.968h-4.071l-1.07-5.52H19.624z M23.533,92.01
			l-0.842-4.975c-0.245-1.438-0.548-3.675-0.769-5.225h-0.088c-0.25,1.562-0.595,3.863-0.848,5.234l-0.904,4.965H23.533z"/>
		<path d="M42.443,77.193v18.821c0,1.494,0.076,3.324,0.14,4.759h-3.596l-0.236-1.915h-0.088c-0.603,1.182-1.915,2.191-3.472,2.191
			c-3.439,0-5.145-3.779-5.145-8.559c0-5.811,2.548-8.635,5.31-8.635c1.439,0,2.389,0.706,2.854,1.721h0.07v-8.384H42.443z
			 M38.281,90.511c0-0.299,0-0.662-0.06-0.987c-0.161-1.133-0.769-2.162-1.743-2.162c-1.655,0-2.273,2.405-2.273,5.207
			c0,3.226,0.88,5.068,2.213,5.068c0.623,0,1.334-0.323,1.719-1.678c0.096-0.265,0.144-0.629,0.144-1.052V90.511z"/>
		<path d="M51.011,101.05c-3.816,0-6.227-3.069-6.227-8.555c0-5.983,3.089-8.639,6.32-8.639c3.788,0,6.159,3.213,6.159,8.544
			c0,6.851-3.716,8.65-6.216,8.65H51.011z M51.092,97.874c1.581,0,1.982-2.979,1.982-5.45c0-2.341-0.402-5.396-2.05-5.396
			c-1.759,0-2.129,3.056-2.129,5.396c0,2.83,0.469,5.45,2.162,5.45H51.092z"/>
		<path d="M59.582,77.193h4.154v8.67h0.067c0.817-1.276,1.909-2.007,3.491-2.007c3.136,0,4.713,3.546,4.713,8.178
			c0,5.872-2.355,9.016-5.391,9.016c-1.458,0-2.425-0.644-3.293-2.267h-0.085l-0.233,1.991h-3.561
			c0.059-1.384,0.137-3.265,0.137-4.759V77.193z M63.736,94.833c0,0.41,0.073,0.804,0.163,1.061
			c0.413,1.397,1.126,1.744,1.688,1.744c1.606,0,2.263-2.031,2.263-5.286c0-2.949-0.696-4.99-2.279-4.99
			c-0.79,0-1.453,0.858-1.686,1.772c-0.076,0.289-0.149,0.733-0.149,1.052V94.833z"/>
		<path d="M77.762,93.787c0.048,3.017,1.642,3.998,3.609,3.998c1.26,0,2.333-0.276,3.125-0.579l0.566,2.978
			c-1.105,0.476-2.807,0.77-4.444,0.77c-4.465,0-6.89-3.031-6.89-8.223c0-5.564,2.814-8.898,6.511-8.898
			c3.567,0,5.544,2.943,5.544,7.779c0,1.094-0.051,1.712-0.128,2.2L77.762,93.787z M81.96,90.867
			c0.013-2.342-0.665-3.987-1.984-3.987c-1.514,0-2.149,2.202-2.197,3.987H81.96z"/>
		<polygon fill="#ED1C24" points="59.209,2.113 85.783,2.113 85.783,65.509 		"/>
		<polygon fill="#ED1C24" points="40.479,2.113 13.876,2.113 13.876,65.509 		"/>
		<polygon fill="#ED1C24" points="49.837,25.475 66.777,65.509 55.676,65.509 50.603,52.756 38.21,52.756 		"/>
	</g>
	<path fill="#ED1C24" d="M90.146,2c1.36,0,2.452,1.1,2.452,2.46c0,1.385-1.092,2.488-2.464,2.488c-1.382,0-2.491-1.103-2.491-2.488
		c0-1.36,1.109-2.46,2.491-2.46H90.146z M90.134,2.418c-1.09,0-1.972,0.914-1.972,2.054c0,1.146,0.882,2.059,1.984,2.059
		c1.083,0.012,1.957-0.912,1.957-2.059c0-1.14-0.874-2.054-1.957-2.054H90.134z M89.678,5.902h-0.492V3.157
		c0.233-0.036,0.461-0.08,0.825-0.08c0.442,0,0.715,0.088,0.892,0.222c0.157,0.119,0.244,0.308,0.244,0.574
		c0,0.351-0.232,0.576-0.53,0.653v0.021c0.244,0.044,0.398,0.264,0.453,0.673c0.063,0.429,0.121,0.592,0.16,0.681h-0.503
		c-0.065-0.088-0.12-0.34-0.175-0.702c-0.056-0.333-0.241-0.464-0.583-0.464h-0.289V5.902z M89.678,4.351h0.301
		c0.36,0,0.659-0.116,0.659-0.434c0-0.244-0.178-0.464-0.639-0.464c-0.144,0-0.241,0-0.321,0.011V4.351z"/>
</g>
</svg>
