<?xml version="1.0" encoding="utf-8"?>
<!-- Generator: Adobe Illustrator 16.0.0, SVG Export Plug-In . SVG Version: 6.00 Build 0)  -->
<!DOCTYPE svg PUBLIC "-//W3C//DTD SVG 1.1//EN" "http://www.w3.org/Graphics/SVG/1.1/DTD/svg11.dtd">
<svg version="1.1" id="Layer_1" xmlns="http://www.w3.org/2000/svg" xmlns:xlink="http://www.w3.org/1999/xlink" x="0px" y="0px"
	 width="1024px" height="768px" viewBox="0 0 1024 768" enable-background="new 0 0 1024 768" xml:space="preserve">
<g>
	<circle fill="#4F4F4F" cx="33.156" cy="36.353" r="33"/>
	<g>
		<path fill="#FFFFFF" d="M33.156,64.853c-17.369,0-31.5-14.131-31.5-31.5s14.131-31.5,31.5-31.5s31.5,14.131,31.5,31.5
			S50.525,64.853,33.156,64.853z"/>
		<path fill="#EAEAEA" d="M33.156,3.353c16.542,0,30,13.458,30,30s-13.458,30-30,30s-30-13.458-30-30S16.614,3.353,33.156,3.353
			 M33.156,0.353c-18.226,0-33,14.774-33,33c0,18.225,14.774,33,33,33s33-14.775,33-33C66.156,15.127,51.382,0.353,33.156,0.353
			L33.156,0.353z"/>
	</g>
</g>
</svg>
