<?xml version="1.0" encoding="utf-8"?>
<!-- Generator: Adobe Illustrator 16.0.0, SVG Export Plug-In . SVG Version: 6.00 Build 0)  -->
<!DOCTYPE svg PUBLIC "-//W3C//DTD SVG 1.1//EN" "http://www.w3.org/Graphics/SVG/1.1/DTD/svg11.dtd">
<svg version="1.1" id="Layer_1" xmlns="http://www.w3.org/2000/svg" xmlns:xlink="http://www.w3.org/1999/xlink" x="0px" y="0px"
	 width="1144.5px" height="474px" viewBox="0 0 1144.5 474" enable-background="new 0 0 1144.5 474" xml:space="preserve">
<path fill="#FFFFFF" d="M630.479,221.061c-4.764-2.868-10.578-1.174-12.994,3.853c-1.236,2.57-5.485,11.951-9.062,6.944
	c-1.37-1.917-0.533-6.98-0.039-9.624c0.648-3.479,2.03-6.811,2.229-10.35c0.363-6.496-0.82-13.244-2.293-19.542
	c-2.792-11.944-10.093-32.207-25.939-29.302c-7.9,1.449-10.759,8.19-15.641,13.605c-0.426,0.471-0.885,0.896-1.343,1.328
	c-0.333-0.49-0.802-1.212-0.85-1.298c-2.247-3.988-2.282-8.228-2.549-12.649c-0.283-4.707-1.355-9.424-5.346-12.388
	c-3.836-2.848-9.264-3.924-13.698-1.868c-3.504,1.624-5.738,4.83-7.493,8.159c-1.505,2.854-2.673,6.429-5.156,8.607
	c-2.991,2.624-4.618,0.391-6.165-2.682c-2.295-4.561-2.342-9.724-4.347-14.356c-4.336-10.023-15.586-11.457-24.46-6.678
	c-5.113,2.752-9.527,6.785-11.339,12.379c-1.635,5.049-0.468,10.404-0.544,15.561c-0.01,0.638-0.025,1.308-0.062,1.985
	c-0.094-0.731-0.163-1.478-0.227-2.265c-0.226-2.824-1.633-5.666-3.593-7.708c-3.41-3.557-8.626-4.703-13.354-3.848
	c-4.623,0.835-8.362,4.78-10.153,8.964c-3.564,8.326-0.888,17.683-0.438,26.335c0.017,0.307,0.028,0.614,0.039,0.921
	c-1.105,0.038-2.211,0.075-3.317,0.104c-0.34-0.994-0.623-1.97-0.864-2.856c-1.274-4.678-1.786-9.542-1.858-14.379
	c-0.131-8.64-2.444-17.748-7.022-25.133c-2.361-3.81-5.548-7.302-9.818-8.928c-4.734-1.804-9.863-0.659-14.021,2.046
	c-8.781,5.71-11.098,17.66-12.376,27.314c-0.744,5.614-1.092,11.307-0.819,16.968c0.159,3.31,0.452,6.575,1.03,9.774
	c-0.176,1.141,0.057,2.349,0.702,3.277c0.53,2.096,1.214,4.159,2.099,6.182v2.211c0,1.833,0.968,3.048,2.246,3.645
	c0.676,8.71,0.911,17.471,1.768,26.15c1.05,10.642,1.03,22.524,7.114,31.746c2.619,3.969,6.638,6.574,11.427,5.312
	c4.09-1.077,7.416-4.359,9.691-7.932c2.192-3.44,3.7-7.288,4.343-11.311c0.535-3.354,0.582-6.77,1.033-10.137
	c0.381-2.85,0.98-6.534,3.106-8.577c1.603-1.54,3.56-1.582,4.32,0.274c1.292,3.155,1.117,6.983,1.11,10.338
	c-0.01,4.375-0.247,8.785-0.071,13.164c0.246,6.139,1.146,11.685,4.045,17.146c2.516,4.743,7.637,9.429,13.113,10.134
	c4.788,0.617,9.342-1.78,12.546-5.135c3.778-3.955,5.574-8.972,6.649-14.247c2.324-11.398-0.194-23.353,3.124-34.609
	c1.014-3.438,2.317-7.277,4.952-9.711c0.763-0.705,1.855-1.431,2.884-1.311c1.546,0.181,3.64,1.213,4.825,2.269
	c2.641,2.353,2.542,6.748,2.767,10.166c0.3,4.567,0.182,9.495,3.108,13.289c3.146,4.08,8.555,5.972,13.42,3.997
	c2.471-1.003,4.938-1.908,6.736-4.037c1.767-2.095,2.965-4.728,3.769-7.33c1.343-4.355,1.323-8.931,2.346-13.286
	c0.477-2.028,1.363-3.366,3.224-4.255c0.869-0.416,0.605-0.886,1.491,0.068c0.87,0.936,1.445,2.167,2.093,3.284
	c2.354,4.055,2.684,8.856,3.782,13.346c0.518,2.111,1.228,4.611,2.494,6.391c0.634,0.889,1.518,1.949,2.295,2.664
	c1.316,1.21,2.705,1.729,4.263,2.506c4.932,2.461,10.968,1.232,15.323-1.924c4.371-3.168,6.993-8.791,7.577-14.058
	c0.691-6.222,0.938-12.44,1.031-18.694c0.14,0.545,0.284,1.089,0.41,1.638c1.3,5.656,1.504,11.239,1.568,17.016
	c0.056,4.927,0.304,10.067,1.869,14.776c3.434,10.317,13.771,16.75,24.564,15.254c4.967-0.688,9.745-2.85,13.365-6.363
	c1.645-1.595,3.021-3.564,4.451-5.35c1.796-2.243,3.343-4.627,4.586-7.219C638.327,242.101,640.35,227.003,630.479,221.061z
	 M481.889,178.794c-0.004,0.046-0.009,0.088-0.009,0.141C481.881,178.993,479.896,178.677,481.889,178.794z"/>
<path fill="#FFFFFF" d="M258.418,145.786c-0.286-11.261-4.984-31.687-20.098-29.967c-3.669,0.417-6.25,2.64-7.721,5.842
	c-0.535,1.165-0.845,2.381-1.337,3.564c-0.213,0.513-0.443,1.065-0.689,1.562c-0.085,0.171-0.513,0.757-0.795,1.174
	c-0.143-0.2-0.283-0.386-0.33-0.493c-0.38-0.872-0.625-1.88-0.853-2.802c-1.839-7.41-1.716-15.213-1.183-22.751
	c0.522-7.384,0.338-15.099-1.867-22.229c-1.909-6.168-6.333-12.311-13.216-13.296c-1.715-0.246-3.32-0.199-4.821,0.089
	c-5.545-2.181-11.938,0.044-15.801,5.239c-4.101,5.513-4.517,12.563-6.249,19.01c-2.381,8.863-8.317,24.453-20.016,17.703
	c-3.669-2.118-5.725-6.115-7.084-10.308c-0.662-9.136-2.103-18.221-4.978-26.896c-0.659-3.002-1.553-5.944-2.896-8.769
	c-0.152-0.32-0.327-0.599-0.518-0.842c-2.933-8.115-6.872-16.974-15.517-18.938c-11.847-2.693-18.11,8.267-21.306,17.784
	c-1.247,3.713-2.037,7.705-3.548,11.314c-0.776,1.854-1.819,3.655-2.973,5.298c-0.878,1.25-2.283,3.313-3.839,3.755
	c-0.93,0.264-1.25-0.224-1.844-1.326c-1.697-3.147-2.206-7.163-2.98-10.609c-0.782-3.483-1.359-6.917-2.698-10.254
	c-1.404-3.5-3.198-6.856-5.138-10.086c-2.92-4.863-7.39-10.421-13.469-11.009c-6.276-0.608-11.585,4.313-13.978,9.642
	c-2.208,4.917-3.5,10.994-3.869,16.371c-0.525,7.656,1.46,15.181,2.025,22.762c0.411,5.513,0.615,11.411-1.917,16.502
	c-0.835,1.68-2.139,3.801-3.685,4.92c-0.881,0.637-1.096,0.571-1.556-0.086c4.054-8.362,1.782-18.528-2.379-26.691
	c-4.329-8.49-12.576-18.543-23.302-15.854C15.82,67.665,11.131,79.268,10.182,88.71c-0.653,6.5,0.563,13.326,1.859,19.684
	c0.71,3.486,0.699,6.875,0.774,10.406c0.088,4.164,0.785,8.292,1.128,12.442c0.679,8.203,0.537,16.492,0.526,24.715
	c-0.01,7.879-0.987,15.639,0.458,23.479c0.6,3.258,1.711,6.416,2.75,9.554c0.51,1.539,1.005,3.062,1.236,4.672
	c0.22,1.541,0.132,3.123,0.51,4.639c1.332,5.342,5.897,9.356,10.764,11.593c2.667,1.226,5.681,2.221,8.655,1.67
	c3.26-0.603,6.175-2.696,8.125-5.333c3.419-4.624,4.152-10.516,4.096-16.126c-0.053-5.394-0.556-10.722-0.315-16.118
	c0.12-2.695-0.373-5.423-0.128-8.117c0.102-1.122,0.278-2.617,0.745-3.657c0.296-0.662,1.551-2.647,2.333-2.544
	c2.022,0.265,2.936,5.914,3.127,7.303c0.502,3.656,0.278,7.441,0.147,11.114c-0.261,7.316-0.037,14.705,0.533,22.001
	c0.745,9.544,2.847,19.363,7.822,27.668c2.281,3.808,5.392,7.333,9.705,8.79c4.466,1.508,9.449-0.166,13.1-2.876
	c3.338-2.478,5.508-5.812,6.958-9.534c2.555-2.472,3.843-6.626,4.4-10.031c0.533-3.256,0.777-6.538,1.027-9.824
	c0.047-0.619,0.091-1.239,0.148-1.857c0.02-0.211,0.146-1.346,0.092-0.991c0.251-1.839,0.552-3.666,0.739-5.518
	c0.568-5.624,0.741-11.28,1.312-16.903c0.459-4.519,0.139-8.499-0.476-13.002c-0.537-3.935-1.221-8.197-0.525-12.149
	c0.301-1.708,0.906-3.188,2.012-4.53c0.063-0.077,0.131-0.159,0.2-0.241c0.858-0.135,1.74-0.148,2.577-0.039
	c0.181,0.18,0.347,0.351,0.437,0.46c0.443,0.54,0.876,1.212,1.281,1.919c0.66,3.577,1.678,7.178,3.187,10.487
	c0.202,0.647,0.436,1.295,0.719,1.951c0.253,0.587,0.61,1.035,1.031,1.365c1.884,3.099,4.313,5.786,7.429,7.722
	c4.559,2.833,10.234,2.76,14.551-0.546c1.299-0.996,2.542-1.986,3.624-3.215c0.608-0.691,1.509-1.814,2.39-2.166
	c2.169-0.864,3.824,1.925,4.729,3.664c1.333,2.563,1.739,5.603,2.321,8.407c0.627,3.023,1.112,6,1.464,9.064
	c0.742,6.454,1.221,13.119,3.56,19.241c2.277,5.959,6.707,12.433,13.263,14.056c5.706,1.413,11.345-1.742,14.917-6.043
	c4.068-4.897,6.44-11.043,7.172-17.338c0.861-7.402-0.771-14.744-1.781-22.042c-0.469-3.386-0.825-6.849-0.553-10.27
	c0.186-2.331,0.597-7.783,2.863-9.14c3.791-2.271,4.85,8.3,5.213,10.197c2.152,11.26,11.51,20.693,22.59,23.238
	c11.658,2.678,24.275-1.367,31.541-10.949C255.512,169.924,258.708,157.207,258.418,145.786z M102.137,116.6
	c-0.586,0.372-1.162,0.759-1.735,1.146c0.486-1.24,1.189-2.37,2.193-2.391C102.442,115.77,102.29,116.185,102.137,116.6z"/>
<path fill="#FFFFFF" d="M890.759,122.169c-0.61-4.255-2.245-10.682-6.69-12.344c-1.168-0.437-2.296-0.899-3.583-0.648
	c-1.505,0.293-3.025,0.779-4.175,1.859c-2.123,1.997-3.04,5-3.67,7.77c-0.59,2.589-0.722,5.34-1.689,7.821
	c-0.336,0.863-0.945,1.756-1.559,2.447c-0.851,0.958-2.004,2.217-3.191,2.754c-2,0.904-2.405-1.036-2.719-2.733
	c-0.547-2.964-0.878-5.98-1.365-8.958c-0.632-3.851-1.484-8.382-4.016-11.486c-2.221-2.725-5.28-5.311-8.888-5.893
	c-3.779-0.61-7.948,0.505-10.345,3.691c-2.172,2.889-1.442,6.552-2.333,9.812c-0.161,0.591-0.293,1.243-0.543,1.812
	c-1.128-1.722-1.859-3.729-2.468-5.682c-0.841-2.7-1.19-5.371-1.523-8.187c-0.533-4.521-1.162-9.068-2.226-13.499
	c-0.733-3.06-1.47-6.46-3.649-8.878c-2.033-2.258-4.443-3.573-7.325-4.468c-1.483-0.461-3.154-0.354-4.673-0.656
	c-1.65-0.328-3.135-0.103-4.755,0.229c-3.449,0.705-6.067,4.288-7.616,7.242c-2.044,3.899-3.204,7.865-3.902,12.221
	c-0.739,4.607-1.465,9.215-1.955,13.858c-0.316,2.998-0.484,5.862-1.663,8.66c-0.86,2.044-1.983,4.459-3.98,5.605
	c-1.688,0.968-3.576-0.272-4.495-1.749c-1.337-2.148-1.606-5.163-1.878-7.62c-0.593-5.37-0.396-10.983-1.771-16.241
	c-0.828-3.166-2.394-5.654-4.876-7.729c-2.226-1.862-5.668-2.355-8.47-2.337c-4.634,0.029-8.688,2.438-10.979,6.503
	c-0.693,1.231-1.265,2.511-1.738,3.827c-0.223,0.375-0.424,0.762-0.595,1.158c-1.933,4.473-1.907,9.497-1.808,14.409
	c-0.124,2.815-0.201,5.608-0.406,8.29c-0.19,2.5-0.313,5.005-0.541,7.503c-0.298,3.269-0.726,6.947,0.419,10.098
	c0.137,0.375,0.33,0.686,0.562,0.938c0.017,2.455,0.04,4.91,0.069,7.363c0.046,3.82-0.191,7.832,0.775,11.562
	c0.447,1.723,0.949,3.686,1.885,5.219c1.042,1.704,2.757,3.682,4.352,4.902c1.487,1.137,3.049,1.914,4.76,2.635
	c1.764,0.745,3.756,0.475,5.59,0.273c1.838-0.202,3.455-1.387,4.921-2.408c0.753-0.524,1.173-0.768,1.733-1.475
	c0.631-0.794,1.012-1.284,1.395-2.208c1.201-2.902,1.373-6.104,1.197-9.244c-0.079-1.398-0.06-2.774,0.204-4.147
	c0.019-0.097,0.052-0.195,0.089-0.294c0.022,0.129,0.038,0.23,0.042,0.275c0.062,0.784,0.101,1.559,0.12,2.347
	c0.047,1.919,0.009,3.837-0.021,5.757c-0.067,4.345-0.446,8.701-0.203,13.047c0.386,6.908,1.965,13.716,4.7,20.049
	c1.211,2.802,3.24,5.736,6.127,6.969c1.526,0.652,3.01,1.465,4.716,1.562c1.646,0.094,3.469,0.16,5.078-0.269
	c3.354-0.893,6.239-2.69,8.783-5.014c2.705-2.47,3.986-5.978,4.967-9.392c1.116-3.881,1.211-8.207,1.281-12.229
	c0.073-4.216,0.596-8.293,0.044-12.516c-0.558-4.27-0.828-8.533-0.729-12.832c0.043-1.853,0.371-3.571,0.891-5.334
	c0.484-1.638,0.867-3.178,2.188-4.337c0.604-0.53,0.652-0.674,1.39-0.846c0.749-0.175,1.219-0.457,1.98-0.421
	c1.485,0.07,2.898,0.254,3.67,1.654c1.402,2.544,0.997,6.268,0.621,9.05c-0.42,3.093-0.089,5.997,0.424,9.057
	c0.469,2.801,1.119,5.926,2.75,8.304c1.734,2.532,3.871,4.693,6.938,5.535c3.318,0.912,7.026,0.433,10.216-0.69
	c3.256-1.146,5.57-3.685,7.59-6.336c1.925-2.528,2.825-5.642,3.004-8.763c0.087-1.51,0.208-3.022,0.326-4.531
	c0.087-1.126,0.242-2.75,0.799-3.747c0.055-0.099,0.695-0.777,0.734-0.785c0.209-0.048,1.019,0.295,1.347,0.444
	c1.534,0.694,2.318,2.618,2.771,4.146c0.52,1.755,0.34,3.729,0.365,5.541c0.032,2.135-0.204,4.261-0.249,6.394
	c-0.087,4.063-0.271,8.347,1.298,12.197c1.308,3.208,3.544,5.49,6.414,7.318c1.243,0.791,2.722,1.107,4.124,1.446
	c1.71,0.414,3.138,0.338,4.855,0.142c7.803-0.894,11.551-8.955,12.234-16.035c0.42-4.344,0.143-8.762,0.02-13.115
	c-0.125-4.459,0.014-8.777,0.303-13.224C893.05,137.05,891.819,129.579,890.759,122.169z"/>
</svg>
