<?xml version="1.0" encoding="utf-8"?>
<!-- Generator: Adobe Illustrator 16.0.0, SVG Export Plug-In . SVG Version: 6.00 Build 0)  -->
<!DOCTYPE svg PUBLIC "-//W3C//DTD SVG 1.1//EN" "http://www.w3.org/Graphics/SVG/1.1/DTD/svg11.dtd">
<svg version="1.1" id="Layer_1" xmlns="http://www.w3.org/2000/svg" xmlns:xlink="http://www.w3.org/1999/xlink" x="0px" y="0px"
	 width="1024px" height="768px" viewBox="0 0 1024 768" enable-background="new 0 0 1024 768" xml:space="preserve">
<g>
	<path fill="#F82EFF" d="M131.294,88.06c0-4.496-6.541-4.496-6.541-8.992s6.541-4.496,6.541-8.994c0-4.496-6.541-4.496-6.541-8.992
		c0-0.013,0.003-0.022,0.003-0.034C107.143,58.888,98.42,46.604,85.67,25.927c-1.483-3.205-3.33-6.203-5.491-8.947
		c-0.017-0.03-0.035-0.057-0.053-0.086c-1.389-2.264-3.037-3.991-4.889-5.256C67.238,4.297,56.573-0.188,44.861-0.188
		c-24.824,0-44.945,20.122-44.945,44.944c0,70.253,54.615,89.729,102.996,89.729c7.512,0,14.831-0.644,21.881-1.894
		c0.417-4.058,6.5-4.219,6.5-8.563c0-4.498-6.541-4.498-6.541-8.994c0-4.495,6.541-4.495,6.541-8.99
		c0-4.496-6.541-4.496-6.541-8.991C124.753,92.557,131.294,92.557,131.294,88.06z"/>
	<circle fill="#FFFFFF" cx="63.567" cy="41.147" r="4.61"/>
	<circle fill="#FFFFFF" cx="14.513" cy="41.147" r="7.223"/>
	<path fill="#FFFFFF" d="M30.882,66c-0.003,0-0.018-0.181-0.018-0.064c0,5.157,4.182,9.132,9.337,9.132
		c5.157,0,9.336-3.873,9.336-9.031c0-0.117-0.013-0.037-0.018-0.037H30.882z"/>
</g>
</svg>
