<?xml version="1.0" encoding="utf-8"?>
<!-- Generator: Adobe Illustrator 16.0.0, SVG Export Plug-In . SVG Version: 6.00 Build 0)  -->
<!DOCTYPE svg PUBLIC "-//W3C//DTD SVG 1.1//EN" "http://www.w3.org/Graphics/SVG/1.1/DTD/svg11.dtd">
<svg version="1.1" id="Layer_1" xmlns="http://www.w3.org/2000/svg" xmlns:xlink="http://www.w3.org/1999/xlink" x="0px" y="0px"
	 width="57px" height="56.451px" viewBox="0 0 57 56.451" enable-background="new 0 0 57 56.451" xml:space="preserve">
<g>
	<g>
		<path fill="#CFCFCF" d="M18.658,21.474c0-1.246,0.4-2.509,1.2-3.789c0.801-1.279,1.969-2.339,3.504-3.179
			c1.535-0.839,3.326-1.26,5.374-1.26c1.902,0,3.582,0.352,5.038,1.054c1.457,0.702,2.582,1.656,3.376,2.863
			c0.794,1.208,1.191,2.52,1.191,3.937c0,1.116-0.227,2.094-0.68,2.934c-0.452,0.84-0.991,1.564-1.614,2.175
			s-1.741,1.637-3.355,3.08c-0.446,0.407-0.804,0.765-1.073,1.073c-0.269,0.308-0.469,0.59-0.6,0.846
			c-0.132,0.256-0.233,0.512-0.306,0.768s-0.181,0.706-0.324,1.349c-0.25,1.365-1.03,2.047-2.343,2.047
			c-0.683,0-1.257-0.223-1.722-0.669c-0.467-0.446-0.699-1.108-0.699-1.988c0-1.103,0.171-2.057,0.512-2.863
			c0.341-0.808,0.794-1.516,1.358-2.126c0.563-0.61,1.325-1.335,2.283-2.175c0.84-0.735,1.446-1.29,1.82-1.664
			s0.689-0.79,0.945-1.249c0.256-0.46,0.384-0.958,0.384-1.496c0-1.05-0.391-1.936-1.172-2.657c-0.78-0.722-1.788-1.083-3.021-1.083
			c-1.444,0-2.507,0.364-3.189,1.093c-0.682,0.729-1.26,1.801-1.731,3.218c-0.446,1.483-1.293,2.225-2.539,2.225
			c-0.735,0-1.355-0.259-1.86-0.777S18.658,22.078,18.658,21.474z M28.264,43.047c-0.801,0-1.499-0.26-2.097-0.777
			c-0.597-0.519-0.896-1.243-0.896-2.176c0-0.826,0.289-1.521,0.866-2.086s1.286-0.847,2.126-0.847c0.826,0,1.521,0.282,2.086,0.847
			s0.847,1.26,0.847,2.086c0,0.919-0.295,1.641-0.886,2.166C29.72,42.784,29.038,43.047,28.264,43.047z"/>
	</g>
</g>
</svg>
