<?xml version="1.0" encoding="utf-8"?>
<!-- Generator: Adobe Illustrator 16.0.0, SVG Export Plug-In . SVG Version: 6.00 Build 0)  -->
<!DOCTYPE svg PUBLIC "-//W3C//DTD SVG 1.1//EN" "http://www.w3.org/Graphics/SVG/1.1/DTD/svg11.dtd">
<svg version="1.1" id="Layer_1" xmlns="http://www.w3.org/2000/svg" xmlns:xlink="http://www.w3.org/1999/xlink" x="0px" y="0px"
	 width="21.2px" height="36.5px" viewBox="0 0 21.2 36.5" enable-background="new 0 0 21.2 36.5" xml:space="preserve">
<g>
	<path fill="#CFCFCF" d="M20.562,6.998C17.706-0.829,8.576-1.724,1.887,1.2c-3.348,1.463-0.454,6.353,2.866,4.902
		c3.491-1.526,7.919-1.402,10.135,2.103c2.537,4.014-2.815,6.03-5.891,6.396c-1.763,0.21-3.317,1.661-2.737,3.594
		c0.561,1.862,0.246,3.797,0.812,5.677c1.051,3.498,6.531,2.007,5.475-1.509c-0.269-0.894-0.335-1.802-0.396-2.715
		C17.912,18.018,23.036,13.786,20.562,6.998z"/>
	<path fill="#CFCFCF" d="M11,30.822c-4,0-4,5.678,0,5.678C14,36.5,14,30.822,11,30.822z"/>
</g>
</svg>
