<?xml version="1.0" encoding="utf-8"?>
<!-- Generator: Adobe Illustrator 16.0.0, SVG Export Plug-In . SVG Version: 6.00 Build 0)  -->
<!DOCTYPE svg PUBLIC "-//W3C//DTD SVG 1.1//EN" "http://www.w3.org/Graphics/SVG/1.1/DTD/svg11.dtd">
<svg version="1.1" id="Layer_1" xmlns="http://www.w3.org/2000/svg" xmlns:xlink="http://www.w3.org/1999/xlink" x="0px" y="0px"
	 width="461.5px" height="132.782px" viewBox="0 0 461.5 132.782" enable-background="new 0 0 461.5 132.782" xml:space="preserve">
<g>
	<path fill="#854400" d="M330.368,32.439c0,0-17.741-3.379-97.241-3.279c-79.5,0.102-96.271,3.279-96.271,3.279v58.465
		l-34.952,13.663v1.165l52.01-6.237l-0.559-11.769c0,0,37.055-6.037,83.591-6.672c38.431-0.525,77.278,3.141,77.278,3.141
		l2.817,14.418l51.133,1.824v-1.824l-36.8-14.381L330.368,32.439z"/>
	
		<linearGradient id="SVGID_1_" gradientUnits="userSpaceOnUse" x1="-121.8892" y1="1664.1938" x2="-55.4775" y2="1664.1938" gradientTransform="matrix(1 0 0 -1 206 1737.7822)">
		<stop  offset="0" style="stop-color:#BA6000"/>
		<stop  offset="0.4995" style="stop-color:#9C5000"/>
		<stop  offset="1" style="stop-color:#BA6000"/>
	</linearGradient>
	<polygon fill="url(#SVGID_1_)" points="144.22,42.607 115.135,43.878 114.166,49.598 111.742,44.514 84.111,48.962 114.408,73.112 
		101.562,104.568 150.522,98.531 136.464,88.999 	"/>
	
		<linearGradient id="SVGID_2_" gradientUnits="userSpaceOnUse" x1="539.4766" y1="1704.645" x2="604.7686" y2="1704.645" gradientTransform="matrix(-0.9908 0.1351 -0.1351 -0.9908 1144.6421 1680.7148)">
		<stop  offset="0" style="stop-color:#BA6000"/>
		<stop  offset="0.4995" style="stop-color:#9C5000"/>
		<stop  offset="1" style="stop-color:#BA6000"/>
	</linearGradient>
	<polygon fill="url(#SVGID_2_)" points="316.994,40.823 338.058,41.583 339,46.473 340.479,41.624 347.013,42.368 346.863,45.826 
		349.913,42.983 377.39,46.738 349.457,70.551 368.102,98.614 318.346,96.967 331.336,79.452 	"/>
	
		<linearGradient id="SVGID_3_" gradientUnits="userSpaceOnUse" x1="-69.7793" y1="1681.563" x2="125.3164" y2="1681.563" gradientTransform="matrix(1 0 0 -1 206 1737.7822)">
		<stop  offset="0" style="stop-color:#BA6000"/>
		<stop  offset="0.4995" style="stop-color:#9C5000"/>
		<stop  offset="1" style="stop-color:#BA6000"/>
	</linearGradient>
	<path fill="url(#SVGID_3_)" d="M331.316,30.533c0,0-17.562-7.192-97.062-7.092c-79.501,0.101-98.033,7.092-98.033,7.092v58.465
		c0,0,9.234-8.896,102.307-10.168c93.074-1.271,92.789,5.402,92.789,5.402V30.533z"/>
</g>
<g>
	<g>
		<path fill="#EEC9B7" d="M160.276,51.203c0.09,0.808-0.102,1.473-0.571,1.994c-0.47,0.519-1.16,0.832-2.076,0.939
			s-1.684,0.037-2.305-0.212c-0.066-0.562-0.1-0.842-0.167-1.404c0.393,0.151,0.804,0.257,1.233,0.319
			c0.429,0.063,0.823,0.073,1.182,0.031c0.525-0.062,0.899-0.219,1.124-0.471c0.225-0.253,0.316-0.568,0.274-0.945
			c-0.039-0.34-0.186-0.615-0.443-0.825c-0.257-0.209-0.765-0.435-1.521-0.673c-0.78-0.248-1.35-0.57-1.706-0.965
			c-0.356-0.395-0.57-0.894-0.641-1.499c-0.089-0.759,0.083-1.385,0.516-1.877c0.434-0.492,1.061-0.788,1.88-0.883
			c0.786-0.091,1.589,0.01,2.409,0.303c-0.116,0.505-0.173,0.757-0.29,1.261c-0.766-0.257-1.435-0.353-2.005-0.287
			c-0.433,0.051-0.75,0.195-0.95,0.431c-0.199,0.235-0.278,0.525-0.238,0.869c0.027,0.236,0.095,0.433,0.205,0.59
			c0.109,0.158,0.275,0.299,0.497,0.424s0.614,0.277,1.172,0.461c0.63,0.207,1.098,0.417,1.404,0.626
			c0.305,0.209,0.541,0.458,0.704,0.746C160.126,50.443,160.23,50.792,160.276,51.203z"/>
		<path fill="#EEC9B7" d="M167.066,49.472c0.114,1.126-0.055,2.029-0.504,2.715c-0.45,0.684-1.131,1.074-2.048,1.173
			c-0.572,0.062-1.095-0.028-1.565-0.27c-0.471-0.241-0.855-0.622-1.152-1.139c-0.296-0.517-0.485-1.136-0.563-1.853
			c-0.123-1.116,0.038-2.016,0.483-2.699c0.446-0.683,1.138-1.077,2.074-1.177c0.896-0.097,1.638,0.149,2.227,0.736
			S166.955,48.384,167.066,49.472z M162.582,49.951c0.172,1.589,0.781,2.326,1.828,2.213c1.037-0.112,1.473-0.961,1.308-2.55
			c-0.163-1.574-0.77-2.306-1.821-2.192c-0.551,0.059-0.928,0.306-1.132,0.74C162.562,48.595,162.5,49.192,162.582,49.951z"/>
		<path fill="#EEC9B7" d="M174.086,52.266c-0.524,0.05-0.787,0.075-1.311,0.125c-0.16-1.7-0.24-2.549-0.401-4.25
			c-0.05-0.528-0.176-0.913-0.379-1.155c-0.203-0.242-0.494-0.345-0.875-0.308c-0.507,0.049-0.862,0.27-1.062,0.661
			c-0.201,0.391-0.258,1.015-0.174,1.871c0.134,1.373,0.2,2.059,0.334,3.431c-0.521,0.052-0.781,0.08-1.303,0.132
			c-0.274-2.755-0.412-4.133-0.687-6.889c0.412-0.042,0.619-0.064,1.031-0.105c0.109,0.354,0.164,0.532,0.272,0.886
			c0.027-0.002,0.041-0.004,0.067-0.008c0.14-0.345,0.364-0.623,0.673-0.833c0.309-0.211,0.66-0.335,1.052-0.374
			c0.953-0.093,1.617,0.208,1.994,0.902c0.036-0.003,0.054-0.004,0.09-0.008c0.151-0.358,0.383-0.649,0.698-0.872
			c0.314-0.222,0.688-0.353,1.117-0.394c0.74-0.067,1.297,0.092,1.672,0.477c0.374,0.386,0.599,1.005,0.673,1.856
			c0.158,1.799,0.235,2.698,0.392,4.496c-0.522,0.046-0.782,0.07-1.304,0.118c-0.151-1.701-0.226-2.55-0.378-4.251
			c-0.047-0.528-0.174-0.914-0.377-1.158c-0.203-0.244-0.497-0.348-0.877-0.312c-0.511,0.047-0.868,0.26-1.071,0.638
			c-0.205,0.377-0.272,0.934-0.204,1.67C173.883,50.076,173.951,50.805,174.086,52.266z"/>
		<path fill="#EEC9B7" d="M182.475,51.646c-0.955,0.08-1.728-0.169-2.32-0.749c-0.591-0.579-0.937-1.417-1.03-2.515
			c-0.096-1.127,0.08-2.036,0.529-2.724c0.449-0.688,1.116-1.069,1.999-1.143c0.818-0.068,1.488,0.156,2.006,0.671
			c0.518,0.515,0.815,1.257,0.89,2.226c0.025,0.317,0.036,0.475,0.061,0.792c-1.645,0.131-2.466,0.2-4.111,0.34
			c0.075,0.668,0.278,1.169,0.613,1.503c0.334,0.334,0.778,0.478,1.331,0.432c0.364-0.03,0.7-0.097,1.006-0.199
			c0.307-0.103,0.633-0.258,0.979-0.465c0.038,0.477,0.057,0.715,0.093,1.191c-0.305,0.197-0.618,0.343-0.938,0.44
			S182.894,51.611,182.475,51.646z M181.744,45.626c-0.418,0.035-0.741,0.211-0.967,0.527c-0.228,0.317-0.342,0.761-0.343,1.331
			c1.121-0.096,1.682-0.143,2.804-0.234c-0.053-0.569-0.21-0.99-0.473-1.265C182.502,45.711,182.162,45.592,181.744,45.626z"/>
		<path fill="#EEC9B7" d="M191.987,44.967c-0.605,0.042-0.908,0.063-1.513,0.107c0.162,2.318,0.243,3.478,0.404,5.795
			c-0.524,0.038-0.787,0.056-1.312,0.095c-0.166-2.317-0.249-3.476-0.415-5.793c-0.408,0.03-0.612,0.044-1.019,0.075
			c-0.02-0.274-0.03-0.412-0.051-0.687c0.395-0.21,0.593-0.315,0.989-0.525c-0.013-0.18-0.019-0.27-0.031-0.45
			c-0.059-0.816,0.071-1.434,0.387-1.853c0.316-0.418,0.831-0.653,1.541-0.703c0.465-0.033,0.928,0.02,1.391,0.16
			c-0.11,0.454-0.166,0.682-0.275,1.136c-0.333-0.094-0.649-0.131-0.944-0.11c-0.3,0.021-0.511,0.14-0.633,0.356
			c-0.123,0.216-0.169,0.53-0.141,0.942c0.013,0.18,0.019,0.27,0.031,0.449c0.606-0.043,0.91-0.065,1.516-0.107
			C191.941,44.3,191.958,44.522,191.987,44.967z"/>
		<path fill="#EEC9B7" d="M196.119,50.637c-0.957,0.062-1.724-0.201-2.305-0.792c-0.582-0.589-0.91-1.434-0.983-2.533
			c-0.076-1.129,0.117-2.034,0.58-2.714c0.461-0.679,1.135-1.048,2.018-1.105c0.82-0.053,1.486,0.183,1.994,0.707
			s0.789,1.273,0.847,2.244c0.019,0.317,0.029,0.476,0.048,0.793c-1.646,0.101-2.47,0.154-4.117,0.265
			c0.062,0.669,0.258,1.174,0.586,1.514c0.328,0.34,0.767,0.491,1.32,0.456c0.364-0.023,0.702-0.084,1.011-0.181
			c0.309-0.096,0.638-0.246,0.988-0.447c0.029,0.477,0.043,0.715,0.071,1.193c-0.309,0.191-0.624,0.332-0.946,0.424
			C196.909,50.552,196.538,50.609,196.119,50.637z M195.498,44.605c-0.418,0.026-0.744,0.197-0.977,0.51
			c-0.233,0.312-0.355,0.753-0.367,1.322c1.123-0.076,1.683-0.111,2.807-0.182c-0.042-0.57-0.192-0.995-0.449-1.273
			C196.255,44.704,195.917,44.578,195.498,44.605z"/>
		<path fill="#EEC9B7" d="M203.839,50.052c-0.125-0.379-0.188-0.569-0.312-0.949c-0.018,0-0.026,0.001-0.044,0.003
			c-0.275,0.437-0.56,0.741-0.852,0.91c-0.292,0.168-0.674,0.266-1.144,0.292c-0.605,0.035-1.086-0.12-1.448-0.466
			c-0.36-0.346-0.56-0.855-0.599-1.526c-0.041-0.712,0.163-1.264,0.616-1.655c0.452-0.39,1.163-0.63,2.131-0.718
			c0.427-0.04,0.64-0.058,1.067-0.096c-0.008-0.147-0.012-0.222-0.02-0.37c-0.024-0.442-0.134-0.767-0.331-0.976
			c-0.197-0.208-0.489-0.302-0.878-0.28c-0.318,0.018-0.621,0.087-0.907,0.208c-0.286,0.121-0.559,0.259-0.819,0.417
			c-0.194-0.41-0.291-0.614-0.486-1.024c0.326-0.215,0.687-0.387,1.082-0.512s0.77-0.198,1.125-0.218
			c0.79-0.044,1.397,0.116,1.819,0.477c0.422,0.362,0.654,0.953,0.695,1.774c0.095,1.863,0.143,2.793,0.238,4.657
			C204.399,50.021,204.213,50.032,203.839,50.052z M201.836,49.161c0.476-0.027,0.849-0.199,1.121-0.513
			c0.272-0.314,0.395-0.74,0.366-1.277c-0.013-0.24-0.02-0.359-0.032-0.6c-0.317,0.033-0.475,0.048-0.792,0.08
			c-0.617,0.06-1.062,0.202-1.332,0.424c-0.271,0.223-0.393,0.547-0.368,0.972c0.017,0.308,0.113,0.542,0.286,0.7
			C201.259,49.108,201.509,49.18,201.836,49.161z"/>
		<path fill="#EEC9B7" d="M208.844,48.732c0.32-0.015,0.637-0.086,0.951-0.214c0.02,0.443,0.029,0.664,0.049,1.107
			c-0.142,0.078-0.326,0.146-0.552,0.205c-0.226,0.059-0.462,0.093-0.707,0.105c-1.239,0.059-1.894-0.641-1.964-2.109
			c-0.073-1.49-0.108-2.236-0.181-3.727c-0.339,0.018-0.508,0.025-0.847,0.043c-0.013-0.26-0.019-0.39-0.032-0.649
			c0.353-0.234,0.529-0.351,0.883-0.584c0.151-0.594,0.227-0.892,0.379-1.486c0.327-0.016,0.49-0.024,0.817-0.039
			c0.028,0.615,0.042,0.923,0.07,1.538c0.708-0.035,1.061-0.052,1.769-0.084c0.02,0.445,0.031,0.667,0.051,1.112
			c-0.707,0.032-1.061,0.05-1.768,0.084c0.069,1.48,0.104,2.221,0.173,3.702c0.016,0.354,0.107,0.612,0.273,0.773
			C208.377,48.67,208.588,48.745,208.844,48.732z"/>
		<path fill="#EEC9B7" d="M215.423,49.514c-0.086-0.36-0.13-0.541-0.217-0.9c-0.027,0-0.04,0.001-0.067,0.003
			c-0.17,0.329-0.42,0.59-0.75,0.788c-0.329,0.197-0.708,0.304-1.139,0.322c-0.745,0.031-1.311-0.154-1.695-0.554
			c-0.385-0.4-0.597-1.024-0.633-1.87c-0.077-1.809-0.115-2.713-0.192-4.522c0.533-0.023,0.799-0.035,1.333-0.058
			c0.07,1.707,0.104,2.559,0.174,4.265c0.021,0.529,0.134,0.922,0.338,1.179c0.205,0.257,0.513,0.376,0.925,0.36
			c0.551-0.023,0.947-0.224,1.191-0.603c0.244-0.379,0.352-1.003,0.319-1.87c-0.052-1.378-0.077-2.068-0.128-3.447
			c0.53-0.021,0.795-0.031,1.326-0.051c0.098,2.768,0.146,4.151,0.244,6.918C216.04,49.49,215.834,49.498,215.423,49.514z"/>
		<path fill="#EEC9B7" d="M221.241,42.26c0.266-0.008,0.486,0.007,0.66,0.044c-0.037,0.549-0.056,0.825-0.091,1.375
			c-0.189-0.044-0.383-0.064-0.585-0.058c-0.527,0.016-0.949,0.223-1.265,0.617c-0.316,0.395-0.463,0.898-0.444,1.511
			c0.045,1.446,0.066,2.169,0.111,3.616c-0.524,0.018-0.785,0.027-1.308,0.044c-0.09-2.768-0.136-4.152-0.227-6.92
			c0.414-0.014,0.621-0.021,1.035-0.036c0.085,0.486,0.127,0.729,0.211,1.215c0.027-0.001,0.042-0.001,0.068-0.002
			c0.193-0.42,0.451-0.756,0.776-1.009C220.505,42.404,220.859,42.271,221.241,42.26z"/>
		<path fill="#EEC9B7" d="M225.929,49.307c-0.958,0.024-1.714-0.269-2.272-0.882c-0.557-0.613-0.85-1.47-0.88-2.571
			c-0.03-1.13,0.198-2.027,0.687-2.688c0.489-0.661,1.176-1.003,2.061-1.024c0.821-0.02,1.477,0.242,1.963,0.787
			c0.487,0.545,0.738,1.303,0.757,2.275c0.005,0.318,0.01,0.478,0.016,0.795c-1.649,0.035-2.473,0.055-4.122,0.099
			c0.035,0.67,0.21,1.182,0.524,1.536c0.314,0.353,0.748,0.522,1.302,0.509c0.365-0.008,0.703-0.054,1.016-0.139
			c0.312-0.085,0.647-0.221,1.004-0.409c0.01,0.479,0.014,0.717,0.023,1.194c-0.316,0.179-0.636,0.307-0.962,0.385
			C226.721,49.253,226.349,49.297,225.929,49.307z M225.551,43.256c-0.419,0.01-0.752,0.167-0.997,0.47
			c-0.245,0.304-0.385,0.739-0.419,1.307c1.125-0.03,1.687-0.043,2.812-0.069c-0.02-0.571-0.151-1.002-0.397-1.291
			C226.302,43.384,225.971,43.245,225.551,43.256z"/>
		<path fill="#EEC9B7" d="M233.926,47.058c0.008,0.676-0.205,1.197-0.639,1.564c-0.435,0.368-1.06,0.557-1.877,0.571
			c-0.821,0.014-1.482-0.113-1.985-0.383c-0.009-0.508-0.014-0.763-0.024-1.271c0.732,0.362,1.411,0.537,2.036,0.526
			c0.807-0.013,1.205-0.292,1.199-0.838c-0.002-0.175-0.05-0.321-0.141-0.437c-0.09-0.116-0.24-0.235-0.446-0.357
			c-0.206-0.121-0.494-0.258-0.861-0.411c-0.717-0.296-1.206-0.595-1.462-0.899c-0.258-0.304-0.392-0.702-0.4-1.195
			c-0.01-0.593,0.196-1.058,0.62-1.393c0.423-0.335,1.005-0.51,1.744-0.521c0.731-0.012,1.426,0.142,2.081,0.462
			c-0.165,0.446-0.247,0.668-0.411,1.114c-0.674-0.299-1.242-0.445-1.698-0.437c-0.696,0.012-1.041,0.239-1.034,0.682
			c0.004,0.217,0.097,0.398,0.28,0.546s0.583,0.346,1.196,0.6c0.515,0.213,0.887,0.41,1.121,0.59c0.234,0.18,0.41,0.39,0.523,0.628
			C233.863,46.438,233.922,46.725,233.926,47.058z"/>
		<path fill="#EEC9B7" d="M243.752,48.96c-0.526,0-0.789,0-1.314,0.002c-0.002-1.703-0.002-2.554-0.003-4.257
			c0-0.534-0.095-0.933-0.289-1.195c-0.192-0.262-0.5-0.393-0.92-0.391c-0.558,0.002-0.966,0.189-1.222,0.557
			c-0.256,0.369-0.383,0.985-0.379,1.849c0.006,1.379,0.008,2.069,0.014,3.449c-0.523,0.003-0.786,0.006-1.311,0.01
			c-0.016-2.77-0.025-4.155-0.04-6.924c0.415-0.003,0.621,0.137,1.036,0.135c0.074,0.363,0.112,0.413,0.188,1.048
			c0.027,0,0.041,0,0.068,0c0.186-0.635,0.451-0.729,0.795-0.911c0.346-0.181,0.727-0.344,1.146-0.345
			c1.492-0.005,2.238,0.806,2.236,2.497C243.756,46.288,243.754,47.155,243.752,48.96z"/>
		<path fill="#EEC9B7" d="M251.08,45.519c-0.013,1.131-0.281,2.011-0.805,2.642c-0.523,0.629-1.245,0.94-2.167,0.936
			c-0.576-0.002-1.084-0.15-1.524-0.444c-0.439-0.292-0.779-0.714-1.016-1.261c-0.235-0.547-0.354-1.182-0.352-1.903
			c0.004-1.123,0.266-1.999,0.785-2.628c0.52-0.628,1.251-0.942,2.193-0.938c0.9,0.005,1.609,0.334,2.128,0.982
			C250.841,43.554,251.092,44.426,251.08,45.519z M246.572,45.49c-0.008,1.598,0.515,2.398,1.566,2.404
			c1.043,0.006,1.571-0.789,1.587-2.387c0.015-1.582-0.507-2.377-1.562-2.383c-0.555-0.002-0.957,0.201-1.209,0.608
			C246.705,44.141,246.576,44.726,246.572,45.49z"/>
		<path fill="#EEC9B7" d="M254.859,47.974c0.32,0.004,0.643-0.046,0.965-0.155c-0.008,0.443-0.012,0.664-0.021,1.108
			c-0.146,0.068-0.335,0.125-0.564,0.169c-0.229,0.045-0.466,0.065-0.711,0.062c-1.241-0.017-1.853-0.758-1.832-2.227
			c0.019-1.493,0.03-2.238,0.049-3.73c-0.339-0.004-0.507-0.006-0.848-0.009c0.004-0.261,0.006-0.391,0.009-0.65
			c0.367-0.211,0.551-0.317,0.918-0.528c0.188-0.583,0.282-0.875,0.471-1.458c0.326,0.003,0.49,0.006,0.816,0.01
			c-0.01,0.616-0.014,0.923-0.021,1.539c0.707,0.009,1.062,0.015,1.771,0.026c-0.009,0.446-0.012,0.668-0.02,1.114
			c-0.708-0.012-1.062-0.017-1.771-0.026c-0.021,1.483-0.033,2.224-0.055,3.706c-0.006,0.354,0.069,0.618,0.227,0.79
			C254.398,47.883,254.604,47.97,254.859,47.974z"/>
		<path fill="#EEC9B7" d="M264.196,47.259c-0.02,0.675-0.253,1.188-0.702,1.537c-0.449,0.35-1.081,0.514-1.898,0.495
			c-0.82-0.02-1.477-0.174-1.969-0.464c0.012-0.508,0.018-0.763,0.027-1.271c0.719,0.391,1.389,0.594,2.014,0.608
			c0.807,0.019,1.218-0.243,1.232-0.79c0.006-0.175-0.035-0.322-0.123-0.441c-0.085-0.118-0.229-0.245-0.43-0.375
			c-0.203-0.13-0.484-0.278-0.846-0.445c-0.705-0.325-1.182-0.644-1.426-0.958c-0.245-0.314-0.362-0.717-0.351-1.209
			c0.013-0.592,0.237-1.048,0.675-1.366c0.438-0.318,1.025-0.47,1.766-0.452c0.73,0.017,1.418,0.2,2.062,0.547
			c-0.184,0.438-0.276,0.658-0.459,1.097c-0.661-0.326-1.221-0.495-1.679-0.505c-0.695-0.017-1.049,0.196-1.06,0.638
			c-0.005,0.217,0.079,0.403,0.257,0.557c0.178,0.155,0.569,0.371,1.17,0.648c0.506,0.234,0.873,0.446,1.099,0.636
			c0.226,0.189,0.393,0.407,0.498,0.648C264.16,46.637,264.207,46.925,264.196,47.259z"/>
		<path fill="#EEC9B7" d="M269.903,49.408c-0.061-0.365-0.091-0.548-0.15-0.914c-0.026,0-0.039,0-0.066-0.002
			c-0.194,0.315-0.464,0.558-0.806,0.73c-0.343,0.172-0.73,0.251-1.161,0.238c-0.747-0.024-1.297-0.249-1.651-0.677
			c-0.356-0.428-0.521-1.066-0.495-1.912c0.056-1.81,0.085-2.714,0.14-4.524c0.534,0.016,0.8,0.024,1.334,0.041
			c-0.057,1.707-0.084,2.56-0.14,4.267c-0.017,0.53,0.067,0.929,0.253,1.2c0.185,0.271,0.483,0.414,0.896,0.427
			c0.551,0.018,0.963-0.153,1.234-0.513c0.271-0.36,0.424-0.976,0.455-1.843c0.049-1.379,0.074-2.067,0.124-3.446
			c0.531,0.019,0.797,0.026,1.328,0.046c-0.105,2.767-0.157,4.152-0.263,6.918C270.523,49.43,270.316,49.422,269.903,49.408z"/>
		<path fill="#EEC9B7" d="M275.926,49.766c-0.781-0.033-1.373-0.373-1.777-1.019c-0.031-0.001-0.048-0.002-0.078-0.003
			c0.026,0.585,0.039,0.94,0.032,1.066c-0.048,1.133-0.071,1.7-0.118,2.833c-0.522-0.021-0.784-0.031-1.306-0.052
			c0.161-3.998,0.243-5.997,0.405-9.996c0.428,0.017,0.641,0.025,1.068,0.042c0.024,0.13,0.074,0.44,0.147,0.932
			c0.026,0.001,0.04,0.002,0.066,0.003c0.441-0.684,1.077-1.009,1.902-0.973c0.776,0.033,1.366,0.372,1.771,1.017
			c0.402,0.645,0.576,1.534,0.521,2.664c-0.055,1.129-0.315,2-0.783,2.614C277.311,49.509,276.694,49.799,275.926,49.766z
			 M275.871,43.786c-0.523-0.022-0.914,0.133-1.17,0.464c-0.256,0.332-0.4,0.875-0.432,1.625c-0.004,0.088-0.007,0.132-0.011,0.22
			c-0.035,0.842,0.059,1.457,0.28,1.843c0.222,0.387,0.603,0.592,1.143,0.615c0.454,0.02,0.814-0.175,1.078-0.581
			c0.265-0.406,0.416-0.996,0.452-1.767c0.036-0.775-0.062-1.368-0.288-1.776C276.699,44.022,276.348,43.806,275.871,43.786z"/>
		<path fill="#EEC9B7" d="M283.035,50.105c-0.781-0.041-1.367-0.387-1.767-1.037c-0.031-0.001-0.048-0.001-0.079-0.003
			c0.021,0.585,0.029,0.942,0.022,1.067c-0.058,1.133-0.088,1.699-0.147,2.832c-0.521-0.026-0.78-0.04-1.303-0.065
			c0.201-3.996,0.3-5.994,0.5-9.99c0.428,0.021,0.641,0.031,1.068,0.052c0.023,0.131,0.07,0.442,0.139,0.934
			c0.027,0.001,0.041,0.003,0.068,0.004c0.447-0.68,1.085-0.999,1.91-0.955c0.775,0.041,1.363,0.386,1.761,1.035
			c0.397,0.648,0.562,1.538,0.497,2.667c-0.066,1.129-0.336,1.998-0.809,2.607C284.424,49.861,283.805,50.146,283.035,50.105z
			 M283.039,44.125c-0.523-0.027-0.916,0.125-1.176,0.454c-0.259,0.33-0.407,0.871-0.446,1.621
			c-0.005,0.087-0.008,0.131-0.012,0.219c-0.044,0.842,0.043,1.457,0.263,1.846c0.219,0.39,0.597,0.597,1.137,0.625
			c0.454,0.024,0.816-0.166,1.086-0.569c0.267-0.402,0.424-0.992,0.465-1.762c0.044-0.775-0.044-1.368-0.268-1.779
			C283.865,44.368,283.516,44.149,283.039,44.125z"/>
		<path fill="#EEC9B7" d="M292.725,47.07c-0.076,1.128-0.394,1.992-0.951,2.591c-0.561,0.6-1.299,0.871-2.22,0.814
			c-0.575-0.035-1.075-0.211-1.499-0.529s-0.74-0.754-0.945-1.314c-0.205-0.56-0.287-1.2-0.246-1.92
			c0.066-1.121,0.376-1.982,0.931-2.581c0.556-0.598,1.305-0.87,2.245-0.812c0.9,0.055,1.592,0.422,2.073,1.099
			S292.798,45.979,292.725,47.07z M288.219,46.79c-0.098,1.595,0.381,2.423,1.434,2.488c1.041,0.064,1.615-0.7,1.719-2.295
			c0.104-1.579-0.374-2.402-1.43-2.467c-0.554-0.034-0.969,0.147-1.242,0.54C288.424,45.449,288.266,46.027,288.219,46.79z"/>
		<path fill="#EEC9B7" d="M297.637,43.822c0.266,0.019,0.483,0.056,0.652,0.11c-0.092,0.543-0.137,0.815-0.229,1.358
			c-0.184-0.063-0.377-0.103-0.579-0.117c-0.527-0.038-0.97,0.125-1.324,0.484c-0.354,0.361-0.552,0.846-0.596,1.458
			c-0.103,1.443-0.153,2.167-0.257,3.61c-0.523-0.036-0.785-0.055-1.31-0.09c0.192-2.762,0.288-4.144,0.479-6.907
			c0.413,0.027,0.62,0.042,1.033,0.071c0.035,0.492,0.053,0.738,0.088,1.23c0.026,0.001,0.04,0.002,0.066,0.004
			c0.236-0.397,0.527-0.705,0.876-0.923C296.887,43.892,297.255,43.794,297.637,43.822z"/>
		<path fill="#EEC9B7" d="M301.291,50.094c0.32,0.025,0.645-0.006,0.974-0.094c-0.036,0.442-0.053,0.662-0.089,1.104
			c-0.15,0.06-0.343,0.104-0.574,0.134c-0.232,0.03-0.47,0.037-0.715,0.018c-1.24-0.095-1.805-0.872-1.693-2.336
			c0.113-1.489,0.17-2.233,0.283-3.721c-0.338-0.025-0.508-0.038-0.847-0.063c0.019-0.26,0.028-0.389,0.048-0.648
			c0.381-0.188,0.57-0.282,0.951-0.47c0.225-0.57,0.336-0.856,0.561-1.427c0.326,0.024,0.49,0.037,0.816,0.062
			c-0.048,0.614-0.07,0.921-0.119,1.535c0.708,0.054,1.062,0.081,1.771,0.137c-0.036,0.444-0.054,0.666-0.089,1.111
			c-0.708-0.055-1.061-0.083-1.768-0.137c-0.115,1.478-0.172,2.217-0.287,3.695c-0.027,0.354,0.031,0.621,0.176,0.801
			C300.834,49.975,301.035,50.074,301.291,50.094z"/>
		<path fill="#EEC9B7" d="M306.074,51.67c-0.957-0.08-1.68-0.452-2.168-1.122c-0.489-0.669-0.689-1.553-0.601-2.65
			c0.093-1.127,0.415-1.995,0.974-2.599s1.281-0.869,2.166-0.796c0.82,0.068,1.443,0.4,1.87,0.994
			c0.427,0.594,0.597,1.375,0.511,2.344c-0.027,0.317-0.043,0.476-0.07,0.792c-1.648-0.144-2.472-0.212-4.12-0.346
			c-0.037,0.671,0.082,1.199,0.356,1.583c0.275,0.385,0.689,0.6,1.242,0.647c0.365,0.031,0.707,0.021,1.029-0.029
			c0.32-0.05,0.668-0.15,1.045-0.297c-0.043,0.477-0.063,0.715-0.105,1.192c-0.336,0.144-0.668,0.235-1,0.278
			C306.871,51.703,306.492,51.706,306.074,51.67z M306.349,45.613c-0.419-0.035-0.767,0.086-1.044,0.361
			c-0.277,0.275-0.463,0.692-0.559,1.254c1.124,0.091,1.686,0.138,2.81,0.233c0.042-0.569-0.043-1.012-0.257-1.325
			C307.086,45.823,306.768,45.648,306.349,45.613z"/>
		<path fill="#EEC9B7" d="M312.028,52.194c-0.768-0.071-1.338-0.437-1.712-1.098c-0.375-0.663-0.512-1.555-0.41-2.682
			c0.102-1.13,0.401-1.992,0.897-2.582c0.497-0.591,1.136-0.85,1.915-0.78c0.814,0.075,1.405,0.468,1.767,1.178
			c0.026,0.002,0.041,0.004,0.068,0.006c-0.017-0.5-0.011-0.895,0.017-1.181c0.096-1.004,0.145-1.506,0.241-2.51
			c0.532,0.05,0.798,0.075,1.329,0.126c-0.379,3.878-0.568,5.816-0.948,9.693c-0.409-0.04-0.614-0.059-1.023-0.097
			c-0.057-0.37-0.085-0.556-0.142-0.925c-0.024-0.002-0.037-0.004-0.062-0.006C313.48,51.981,312.836,52.268,312.028,52.194z
			 M312.489,51.041c0.539,0.049,0.946-0.083,1.224-0.398c0.277-0.315,0.457-0.853,0.537-1.612c0.008-0.082,0.014-0.124,0.021-0.206
			c0.084-0.868,0.016-1.498-0.202-1.887c-0.221-0.389-0.6-0.608-1.142-0.659c-0.464-0.043-0.84,0.133-1.128,0.529
			c-0.29,0.395-0.47,0.979-0.541,1.752c-0.07,0.765-0.004,1.358,0.201,1.781C311.662,50.763,312.007,50.997,312.489,51.041z"/>
		<path fill="#EEC9B7" d="M316.945,51.748c0.03-0.307,0.126-0.532,0.287-0.677c0.16-0.146,0.375-0.206,0.643-0.179
			c0.264,0.027,0.458,0.128,0.582,0.308c0.125,0.181,0.172,0.419,0.142,0.714s-0.125,0.521-0.286,0.679
			c-0.16,0.158-0.369,0.224-0.63,0.198c-0.263-0.027-0.46-0.129-0.591-0.31C316.963,52.301,316.915,52.055,316.945,51.748z
			 M318.474,49.895c-0.389-0.039-0.584-0.059-0.973-0.097c0.14-2.548,0.21-3.823,0.347-6.37c0.623,0.062,0.935,0.093,1.559,0.156
			C319.031,46.107,318.846,47.371,318.474,49.895z"/>
	</g>
</g>
<g>
	<g>
		<path fill="#E08954" d="M199.921,59.225c-0.818,0.055-1.445,0.354-1.879,0.897c-0.434,0.543-0.618,1.259-0.555,2.146
			c0.064,0.908,0.333,1.595,0.808,2.066c0.475,0.471,1.121,0.68,1.938,0.626c0.542-0.036,1.037-0.137,1.482-0.303
			c0.01,0.157,0.014,0.234,0.024,0.391c-0.418,0.175-0.946,0.284-1.585,0.327c-0.908,0.061-1.641-0.178-2.203-0.717
			c-0.562-0.541-0.883-1.329-0.958-2.364c-0.046-0.646,0.038-1.225,0.253-1.735c0.216-0.51,0.55-0.917,1.003-1.217
			c0.453-0.3,0.993-0.473,1.618-0.515c0.637-0.042,1.215,0.037,1.733,0.237c-0.063,0.165-0.095,0.248-0.158,0.412
			C200.952,59.274,200.445,59.19,199.921,59.225z"/>
		<path fill="#E08954" d="M203.517,65.073c-0.174,0.011-0.263,0.016-0.438,0.026c-0.168-2.708-0.252-4.061-0.421-6.769
			c0.177-0.011,0.264-0.017,0.441-0.028C203.266,61.01,203.35,62.364,203.517,65.073z"/>
		<path fill="#E08954" d="M204.708,58.935c-0.016-0.278,0.068-0.423,0.255-0.434c0.092-0.005,0.168,0.026,0.225,0.095
			c0.057,0.069,0.088,0.172,0.095,0.305c0.008,0.13-0.011,0.235-0.059,0.313c-0.048,0.079-0.118,0.121-0.21,0.125
			C204.826,59.351,204.724,59.216,204.708,58.935z M205.564,64.951c-0.175,0.01-0.263,0.014-0.438,0.025
			c-0.111-1.893-0.167-2.837-0.279-4.729c0.176-0.01,0.265-0.016,0.441-0.027C205.399,62.112,205.454,63.058,205.564,64.951z"/>
		<path fill="#E08954" d="M209.099,64.844c-0.687,0.036-1.237-0.148-1.65-0.554c-0.413-0.405-0.642-0.989-0.685-1.752
			c-0.044-0.784,0.125-1.405,0.508-1.864c0.383-0.459,0.929-0.708,1.636-0.745c0.419-0.022,0.823,0.029,1.214,0.153
			c-0.04,0.156-0.06,0.234-0.101,0.389c-0.426-0.116-0.793-0.165-1.102-0.148c-0.594,0.03-1.034,0.234-1.32,0.609
			s-0.411,0.899-0.374,1.573c0.036,0.638,0.216,1.13,0.54,1.476c0.323,0.345,0.757,0.502,1.303,0.473
			c0.437-0.023,0.839-0.12,1.206-0.293c0.008,0.16,0.013,0.241,0.021,0.401C209.995,64.723,209.597,64.818,209.099,64.844z"/>
		<path fill="#E08954" d="M211.807,62.538c0.935-1.109,1.404-1.663,2.348-2.769c0.214-0.009,0.321-0.014,0.535-0.023
			c-0.729,0.842-1.091,1.262-1.815,2.106c0.876,1.047,1.313,1.571,2.183,2.622c-0.211,0.008-0.317,0.013-0.527,0.023
			c-0.773-0.925-1.161-1.388-1.94-2.31c-0.303,0.297-0.453,0.445-0.755,0.742c0.032,0.674,0.048,1.012,0.08,1.686
			c-0.175,0.008-0.262,0.013-0.438,0.021c-0.131-2.71-0.198-4.066-0.331-6.777c0.178-0.008,0.265-0.013,0.443-0.021
			c0.065,1.359,0.098,2.039,0.163,3.397c0.013,0.521,0.018,0.782,0.031,1.304C211.793,62.539,211.798,62.539,211.807,62.538z"/>
		<path fill="#E08954" d="M219.477,64.005c0.277-0.009,0.52-0.041,0.725-0.095c0.005,0.14,0.008,0.208,0.013,0.348
			c-0.211,0.077-0.455,0.121-0.732,0.131c-0.425,0.014-0.742-0.085-0.953-0.302c-0.211-0.216-0.325-0.565-0.343-1.044
			c-0.046-1.224-0.07-1.833-0.116-3.057c-0.287,0.011-0.43,0.015-0.718,0.026c-0.003-0.101-0.004-0.151-0.009-0.252
			c0.284-0.09,0.425-0.133,0.709-0.223c0.073-0.432,0.11-0.649,0.183-1.081c0.091-0.003,0.136-0.004,0.227-0.008
			c0.017,0.458,0.026,0.688,0.042,1.146c0.57-0.021,0.854-0.031,1.423-0.05c0.005,0.149,0.009,0.225,0.014,0.374
			c-0.568,0.02-0.854,0.03-1.422,0.051c0.045,1.199,0.066,1.799,0.111,2.998c0.014,0.364,0.087,0.629,0.225,0.798
			C218.992,63.936,219.2,64.016,219.477,64.005z"/>
		<path fill="#E08954" d="M225.172,61.75c0.02,0.773-0.156,1.382-0.525,1.827c-0.369,0.444-0.888,0.676-1.558,0.696
			c-0.423,0.013-0.797-0.076-1.125-0.266c-0.329-0.19-0.583-0.472-0.767-0.841s-0.285-0.799-0.3-1.29
			c-0.025-0.772,0.145-1.38,0.514-1.824c0.369-0.444,0.889-0.677,1.558-0.697c0.667-0.02,1.195,0.186,1.586,0.613
			S225.151,60.989,225.172,61.75z M221.358,61.861c0.021,0.651,0.184,1.154,0.486,1.509c0.303,0.355,0.72,0.525,1.251,0.509
			c0.531-0.016,0.938-0.209,1.218-0.581c0.281-0.373,0.414-0.885,0.396-1.536c-0.019-0.654-0.18-1.156-0.485-1.509
			c-0.306-0.352-0.726-0.521-1.261-0.506c-0.535,0.016-0.942,0.209-1.221,0.578C221.465,60.693,221.336,61.205,221.358,61.861z"/>
		<path fill="#E08954" d="M229.03,64.039c-0.051-2.55-0.076-3.823-0.128-6.373c0.183-0.004,0.273-0.006,0.456-0.009
			c0.046,2.382,0.07,3.572,0.117,5.954c1.235-0.024,1.854-0.033,3.088-0.051c0.002,0.168,0.004,0.251,0.006,0.418
			C231.153,63.998,230.446,64.01,229.03,64.039z"/>
		<path fill="#E08954" d="M235.52,64.031c-0.699,0.006-1.248-0.2-1.645-0.62c-0.396-0.42-0.6-1.011-0.61-1.775
			c-0.01-0.755,0.171-1.364,0.546-1.824c0.376-0.459,0.887-0.693,1.532-0.699c0.571-0.005,1.022,0.186,1.356,0.572
			c0.332,0.387,0.502,0.915,0.506,1.583c0.001,0.14,0.002,0.209,0.003,0.349c-1.392,0.009-2.089,0.016-3.48,0.033
			c0.015,0.651,0.176,1.147,0.483,1.486c0.307,0.339,0.74,0.506,1.305,0.501c0.275-0.002,0.518-0.024,0.725-0.063
			c0.208-0.04,0.471-0.124,0.789-0.25c0.002,0.157,0.002,0.235,0.002,0.392c-0.271,0.119-0.521,0.199-0.751,0.244
			C236.05,64.003,235.797,64.028,235.52,64.031z M235.346,59.497c-0.468,0.004-0.84,0.159-1.119,0.463
			c-0.278,0.304-0.438,0.74-0.477,1.308c1.195-0.015,1.793-0.02,2.988-0.029c-0.005-0.549-0.13-0.979-0.376-1.286
			C236.115,59.646,235.775,59.493,235.346,59.497z"/>
		<path fill="#E08954" d="M241.475,64.214c-0.044-0.635-0.064-0.635-0.11-1.271c-0.015,0-0.022,0-0.036,0
			c-0.242,0.636-0.49,0.633-0.746,0.76s-0.557,0.247-0.904,0.247c-0.473,0.001-0.842-0.088-1.105-0.325
			c-0.265-0.237-0.397-0.554-0.4-0.975c-0.002-0.462,0.191-0.815,0.584-1.073c0.391-0.256,0.807-0.391,1.551-0.406
			c0.369-0.011,0.77-0.013,0.77-0.023c0-0.125,0-0.188,0-0.313c0-0.451,0.059-0.791-0.13-1.02c-0.187-0.23-0.411-0.345-0.828-0.343
			c-0.449,0-0.877,0.125-1.357,0.371c-0.066-0.15-0.081-0.226-0.147-0.375c0.531-0.247,1.067-0.371,1.588-0.371
			c0.533,0,0.937,0.135,1.199,0.405c0.264,0.27,0.396,0.84,0.396,1.413c-0.001,1.261,0.002,2.029,0.002,3.3
			C241.669,64.214,241.605,64.214,241.475,64.214z M239.701,63.613c0.514-0.001,0.777-0.146,1.074-0.436
			c0.297-0.29,0.301-0.691,0.301-1.206c0-0.186,0-0.279,0-0.465c0,0.014-0.363,0.021-0.701,0.035
			c-0.678,0.033-1.09,0.139-1.379,0.315c-0.287,0.177-0.396,0.451-0.395,0.823c0.003,0.296,0.115,0.527,0.301,0.69
			C239.086,63.533,239.365,63.613,239.701,63.613z"/>
		<path fill="#E08954" d="M245.282,59.099c0.204,0.001,0.425,0.022,0.661,0.064c-0.035,0.165-0.054,0.25-0.09,0.415
			c-0.201-0.051-0.41-0.078-0.629-0.08c-0.412-0.002-0.752,0.168-1.018,0.51c-0.267,0.342-0.4,0.773-0.402,1.296
			c-0.004,1.046-0.006,1.57-0.011,2.617c-0.175,0-0.263,0-0.438-0.001c0.005-1.896,0.009-2.844,0.015-4.74
			c0.15,0.001,0.225-0.134,0.375-0.133c0.016,0.342,0.023,0.719,0.04,0.719c0.013,0,0.02,0,0.032,0c0.2,0,0.413-0.457,0.64-0.597
			C244.686,59.029,244.961,59.097,245.282,59.099z"/>
		<path fill="#E08954" d="M250.245,63.979c0.017-1.229,0.025-1.844,0.042-3.073c0.007-0.477-0.09-0.824-0.291-1.043
			c-0.203-0.219-0.52-0.332-0.951-0.337c-0.58-0.007-1.006,0.131-1.277,0.415c-0.272,0.283-0.411,0.746-0.416,1.388
			c-0.01,1.046-0.016,1.57-0.025,2.617c-0.176-0.002-0.264-0.002-0.438-0.003c0.016-1.896,0.023-2.845,0.039-4.74
			c0.15,0.001,0.227-0.042,0.376-0.041c0.031,0.26,0.048,0.604,0.079,0.604c0.01,0,0.016,0,0.025,0
			c0.32-0.636,0.885-0.688,1.691-0.677c1.102,0.013,1.643,0.622,1.627,1.775c-0.02,1.24-0.027,1.872-0.047,3.111
			C250.506,63.972,250.418,63.981,250.245,63.979z"/>
		<path fill="#E08954" d="M257.557,64.128c-0.905-2.379-1.363-3.567-2.286-5.943c-0.015,0-0.022-0.001-0.035-0.001
			c0.017,0.361,0.02,0.731,0.012,1.108c-0.042,1.911-0.063,2.867-0.105,4.778c-0.173-0.003-0.261-0.006-0.435-0.01
			c0.055-2.549,0.082-3.824,0.137-6.373c0.282,0.006,0.424,0.01,0.707,0.016c0.877,2.264,1.311,3.395,2.172,5.661
			c0.01,0,0.015,0.001,0.025,0.001c0.978-2.217,1.471-3.326,2.467-5.54c0.275,0.008,0.412,0.012,0.688,0.021
			c-0.078,2.548-0.117,3.822-0.195,6.371c-0.184-0.005-0.275-0.009-0.458-0.015c0.06-1.931,0.087-2.815,0.146-4.747
			c0.011-0.336,0.039-0.963,0.086-0.963c-0.014,0-0.021,0-0.036,0c-1.05,1.906-1.571,3.399-2.602,5.723
			C257.729,64.215,257.672,64.131,257.557,64.128z"/>
		<path fill="#E08954" d="M266.502,62.05c-0.03,0.772-0.246,1.368-0.645,1.788c-0.398,0.419-0.932,0.616-1.603,0.591
			c-0.422-0.016-0.79-0.128-1.104-0.34c-0.315-0.211-0.553-0.509-0.712-0.889c-0.159-0.381-0.23-0.816-0.214-1.308
			c0.025-0.772,0.235-1.368,0.634-1.787c0.398-0.418,0.935-0.615,1.604-0.59c0.667,0.025,1.182,0.264,1.543,0.715
			C266.366,60.683,266.533,61.289,266.502,62.05z M262.688,61.907c-0.022,0.65,0.105,1.164,0.383,1.538
			c0.279,0.374,0.685,0.571,1.216,0.59c0.532,0.02,0.952-0.145,1.258-0.499c0.305-0.354,0.47-0.854,0.495-1.505
			c0.025-0.653-0.102-1.167-0.383-1.539c-0.281-0.372-0.691-0.568-1.227-0.588c-0.535-0.02-0.955,0.146-1.258,0.494
			C262.87,60.748,262.709,61.251,262.688,61.907z"/>
		<path fill="#E08954" d="M269.855,59.739c0.205,0.009,0.424,0.04,0.658,0.091c-0.043,0.164-0.064,0.246-0.106,0.41
			c-0.199-0.059-0.407-0.093-0.624-0.103c-0.414-0.019-0.761,0.137-1.04,0.469c-0.279,0.331-0.43,0.757-0.452,1.28
			c-0.046,1.045-0.068,1.568-0.113,2.614c-0.176-0.008-0.263-0.012-0.438-0.019c0.08-1.894,0.12-2.841,0.199-4.736
			c0.15,0.006,0.225,0.01,0.375,0.016c0.004,0.343,0.005,0.513,0.008,0.856c0.012,0,0.019,0,0.031,0.001
			c0.215-0.339,0.438-0.574,0.67-0.705S269.533,59.724,269.855,59.739z"/>
		<path fill="#E08954" d="M273.21,64.825c-0.7-0.036-1.235-0.274-1.606-0.717c-0.37-0.443-0.538-1.047-0.502-1.812
			c0.035-0.755,0.256-1.35,0.658-1.786c0.401-0.436,0.928-0.637,1.573-0.604c0.571,0.03,1.012,0.249,1.321,0.656
			c0.309,0.407,0.445,0.943,0.408,1.611c-0.007,0.139-0.011,0.208-0.018,0.347c-1.392-0.076-2.089-0.111-3.48-0.18
			c-0.026,0.65,0.105,1.157,0.391,1.513c0.285,0.357,0.711,0.55,1.275,0.58c0.273,0.014,0.516,0.009,0.728-0.018
			c0.209-0.026,0.478-0.094,0.804-0.202c-0.008,0.157-0.014,0.234-0.021,0.392c-0.278,0.102-0.532,0.168-0.766,0.198
			C273.742,64.832,273.487,64.839,273.21,64.825z M273.312,60.291c-0.467-0.024-0.848,0.106-1.146,0.393
			c-0.297,0.286-0.482,0.712-0.558,1.276c1.195,0.059,1.794,0.087,2.989,0.152c0.029-0.548-0.069-0.982-0.297-1.304
			S273.745,60.313,273.312,60.291z"/>
	</g>
</g>
</svg>
