<?xml version="1.0" encoding="utf-8"?>
<!-- Generator: Adobe Illustrator 16.0.0, SVG Export Plug-In . SVG Version: 6.00 Build 0)  -->
<!DOCTYPE svg PUBLIC "-//W3C//DTD SVG 1.1//EN" "http://www.w3.org/Graphics/SVG/1.1/DTD/svg11.dtd">
<svg version="1.1" id="Layer_1" xmlns="http://www.w3.org/2000/svg" xmlns:xlink="http://www.w3.org/1999/xlink" x="0px" y="0px"
	 width="461.5px" height="132.782px" viewBox="0 0 461.5 132.782" enable-background="new 0 0 461.5 132.782" xml:space="preserve">
<g>
	<path fill="#854400" d="M387.508,14c0,0-27.917-5.317-153.017-5.159C109.39,9,83,14,83,14v92l-55,21.5v1.834l81.842-9.815
		L108.963,101c0,0,58.309-9.5,131.537-10.5c60.475-0.826,121.603,4.943,121.603,4.943l4.435,22.688L447,121v-2.869L389.092,95.5
		L387.508,14z"/>
	<linearGradient id="SVGID_1_" gradientUnits="userSpaceOnUse" x1="0" y1="78.75" x2="104.5049" y2="78.75">
		<stop  offset="0" style="stop-color:#BA6000"/>
		<stop  offset="0.4995" style="stop-color:#9C5000"/>
		<stop  offset="1" style="stop-color:#BA6000"/>
	</linearGradient>
	<polygon fill="url(#SVGID_1_)" points="94.588,30 48.82,32 47.294,41 43.48,33 0,40 47.676,78 27.461,127.5 104.505,118 
		82.383,103 	"/>
	
		<linearGradient id="SVGID_2_" gradientUnits="userSpaceOnUse" x1="765.1035" y1="37.6245" x2="867.8447" y2="37.6245" gradientTransform="matrix(-0.9908 0.1351 0.1351 0.9908 1218.3218 -75.9814)">
		<stop  offset="0" style="stop-color:#BA6000"/>
		<stop  offset="0.4995" style="stop-color:#9C5000"/>
		<stop  offset="1" style="stop-color:#BA6000"/>
	</linearGradient>
	<polygon fill="url(#SVGID_2_)" points="366.462,27.192 399.607,28.389 401.092,36.083 403.419,28.452 413.699,29.624 
		413.464,35.065 418.264,30.592 461.5,36.5 417.546,73.971 446.885,118.131 368.589,115.539 389.03,87.977 	"/>
	<linearGradient id="SVGID_3_" gradientUnits="userSpaceOnUse" x1="82" y1="51.4199" x2="389" y2="51.4199">
		<stop  offset="0" style="stop-color:#BA6000"/>
		<stop  offset="0.4995" style="stop-color:#9C5000"/>
		<stop  offset="1" style="stop-color:#BA6000"/>
	</linearGradient>
	<path fill="url(#SVGID_3_)" d="M389,11c0,0-27.637-11.317-152.736-11.159C111.162,0,82,11,82,11v92c0,0,14.53-14,160.989-16
		C389.449,85,389,95.5,389,95.5V11z"/>
</g>
<g>
	<g>
		<path fill="#EEC9B7" d="M119.853,43.526c0.142,1.272-0.16,2.318-0.899,3.137c-0.739,0.817-1.825,1.309-3.266,1.478
			c-1.441,0.169-2.65,0.058-3.627-0.334c-0.104-0.884-0.158-1.325-0.262-2.209c0.618,0.237,1.265,0.404,1.94,0.502
			c0.675,0.099,1.295,0.115,1.86,0.049c0.826-0.097,1.415-0.344,1.768-0.742s0.498-0.894,0.431-1.487
			c-0.061-0.535-0.293-0.968-0.697-1.298c-0.404-0.33-1.203-0.684-2.393-1.06c-1.228-0.389-2.125-0.897-2.684-1.519
			c-0.56-0.621-0.897-1.406-1.009-2.358c-0.141-1.194,0.13-2.179,0.812-2.954c0.683-0.775,1.67-1.24,2.959-1.39
			c1.236-0.144,2.5,0.015,3.791,0.477c-0.183,0.794-0.273,1.191-0.456,1.985c-1.205-0.405-2.258-0.556-3.156-0.451
			c-0.682,0.08-1.181,0.306-1.495,0.677c-0.314,0.371-0.438,0.827-0.375,1.368c0.043,0.372,0.15,0.681,0.322,0.929
			c0.171,0.248,0.432,0.47,0.781,0.667c0.349,0.197,0.966,0.437,1.845,0.726c0.991,0.326,1.728,0.657,2.209,0.985
			c0.48,0.329,0.851,0.721,1.108,1.174S119.781,42.88,119.853,43.526z"/>
		<path fill="#EEC9B7" d="M130.537,40.803c0.18,1.771-0.086,3.193-0.793,4.271c-0.708,1.077-1.78,1.691-3.222,1.847
			c-0.901,0.097-1.723-0.044-2.463-0.425c-0.74-0.38-1.345-0.978-1.812-1.792c-0.466-0.813-0.763-1.787-0.887-2.916
			c-0.193-1.756,0.06-3.172,0.761-4.247s1.791-1.694,3.264-1.853c1.409-0.152,2.578,0.235,3.503,1.159
			C129.814,37.771,130.363,39.091,130.537,40.803z M123.481,41.556c0.27,2.5,1.228,3.66,2.876,3.482
			c1.631-0.176,2.317-1.512,2.058-4.013c-0.256-2.476-1.212-3.628-2.865-3.45c-0.868,0.093-1.46,0.482-1.781,1.164
			C123.45,39.422,123.353,40.361,123.481,41.556z"/>
		<path fill="#EEC9B7" d="M141.584,45.199c-0.825,0.078-1.238,0.118-2.062,0.197c-0.252-2.675-0.378-4.012-0.631-6.688
			c-0.079-0.831-0.277-1.437-0.597-1.818c-0.32-0.381-0.778-0.543-1.377-0.484c-0.798,0.078-1.356,0.425-1.672,1.04
			s-0.406,1.598-0.274,2.944c0.211,2.161,0.315,3.239,0.527,5.399c-0.82,0.082-1.23,0.125-2.051,0.208
			c-0.432-4.336-0.648-6.504-1.081-10.84c0.648-0.066,0.974-0.1,1.622-0.165c0.172,0.557,0.257,0.837,0.429,1.394
			c0.042-0.004,0.064-0.007,0.106-0.012c0.219-0.543,0.572-0.981,1.059-1.312c0.487-0.332,1.039-0.527,1.656-0.588
			c1.499-0.146,2.544,0.328,3.138,1.419c0.056-0.005,0.085-0.006,0.141-0.012c0.238-0.564,0.603-1.021,1.099-1.372
			c0.495-0.35,1.082-0.556,1.757-0.619c1.165-0.107,2.042,0.144,2.631,0.75c0.589,0.606,0.943,1.581,1.06,2.921
			c0.248,2.83,0.369,4.245,0.616,7.075c-0.821,0.073-1.231,0.11-2.052,0.185c-0.238-2.676-0.356-4.013-0.595-6.689
			c-0.074-0.831-0.273-1.438-0.594-1.822c-0.32-0.383-0.782-0.547-1.38-0.492c-0.804,0.074-1.365,0.41-1.686,1.004
			s-0.428,1.47-0.32,2.628C141.265,41.752,141.372,42.9,141.584,45.199z"/>
		<path fill="#EEC9B7" d="M154.785,44.224c-1.503,0.125-2.719-0.267-3.65-1.178s-1.474-2.23-1.621-3.958
			c-0.151-1.773,0.125-3.203,0.833-4.286c0.707-1.083,1.756-1.683,3.145-1.798c1.288-0.107,2.342,0.245,3.157,1.056
			c0.815,0.811,1.282,1.978,1.401,3.503c0.039,0.499,0.057,0.748,0.096,1.247c-2.588,0.207-3.881,0.315-6.469,0.536
			c0.118,1.051,0.438,1.839,0.964,2.365c0.526,0.525,1.224,0.751,2.094,0.679c0.572-0.047,1.101-0.153,1.584-0.314
			c0.483-0.161,0.996-0.405,1.54-0.732c0.059,0.75,0.089,1.125,0.147,1.875c-0.48,0.309-0.972,0.54-1.476,0.693
			S155.444,44.169,154.785,44.224z M153.634,34.751c-0.658,0.055-1.165,0.332-1.522,0.83c-0.358,0.499-0.538,1.197-0.54,2.094
			c1.765-0.151,2.647-0.225,4.413-0.369c-0.083-0.896-0.331-1.559-0.744-1.99C154.828,34.885,154.292,34.696,153.634,34.751z"/>
		<path fill="#EEC9B7" d="M169.753,33.713c-0.952,0.066-1.429,0.1-2.381,0.168c0.255,3.647,0.382,5.473,0.636,9.12
			c-0.826,0.059-1.239,0.088-2.065,0.149c-0.261-3.647-0.391-5.47-0.652-9.117c-0.642,0.047-0.963,0.07-1.604,0.118
			c-0.031-0.432-0.048-0.648-0.08-1.081c0.622-0.331,0.933-0.496,1.556-0.826c-0.021-0.283-0.029-0.424-0.049-0.707
			c-0.092-1.284,0.111-2.257,0.609-2.915s1.308-1.027,2.425-1.106c0.732-0.052,1.461,0.032,2.189,0.251
			c-0.173,0.715-0.26,1.073-0.432,1.788c-0.525-0.148-1.021-0.206-1.486-0.173c-0.473,0.033-0.805,0.22-0.997,0.56
			c-0.193,0.339-0.267,0.834-0.221,1.483c0.02,0.283,0.029,0.424,0.048,0.707c0.954-0.068,1.432-0.103,2.386-0.169
			C169.681,32.664,169.706,33.013,169.753,33.713z"/>
		<path fill="#EEC9B7" d="M176.255,42.635c-1.505,0.098-2.713-0.317-3.627-1.246c-0.915-0.928-1.432-2.256-1.548-3.986
			c-0.119-1.776,0.184-3.2,0.912-4.27c0.727-1.069,1.786-1.65,3.176-1.74c1.29-0.084,2.338,0.288,3.138,1.113
			c0.8,0.825,1.242,2.003,1.333,3.53c0.03,0.5,0.046,0.749,0.076,1.249c-2.591,0.159-3.887,0.242-6.478,0.416
			c0.098,1.053,0.406,1.848,0.922,2.383c0.516,0.535,1.206,0.773,2.077,0.717c0.573-0.037,1.104-0.132,1.59-0.285
			c0.486-0.152,1.004-0.387,1.555-0.704c0.045,0.751,0.067,1.126,0.112,1.877c-0.486,0.3-0.981,0.522-1.488,0.667
			S176.914,42.592,176.255,42.635z M175.278,33.144c-0.659,0.042-1.171,0.31-1.538,0.802c-0.367,0.492-0.559,1.185-0.577,2.081
			c1.767-0.119,2.649-0.175,4.417-0.287c-0.067-0.897-0.302-1.565-0.707-2.003C176.469,33.299,175.937,33.101,175.278,33.144z"/>
		<path fill="#EEC9B7" d="M188.403,41.715c-0.196-0.597-0.295-0.896-0.492-1.493c-0.028,0.001-0.041,0.002-0.069,0.004
			c-0.433,0.688-0.881,1.166-1.341,1.432c-0.459,0.266-1.06,0.418-1.8,0.46c-0.952,0.055-1.71-0.188-2.278-0.733
			c-0.567-0.544-0.882-1.346-0.943-2.401c-0.065-1.121,0.257-1.99,0.969-2.604c0.712-0.614,1.831-0.992,3.354-1.13
			c0.671-0.062,1.007-0.091,1.679-0.151c-0.012-0.232-0.019-0.35-0.031-0.582c-0.037-0.695-0.21-1.207-0.52-1.535
			s-0.769-0.475-1.381-0.44c-0.5,0.028-0.977,0.138-1.427,0.328c-0.449,0.19-0.879,0.408-1.289,0.656
			c-0.306-0.645-0.458-0.966-0.765-1.611c0.513-0.339,1.08-0.609,1.701-0.806c0.622-0.197,1.211-0.312,1.771-0.343
			c1.243-0.07,2.198,0.182,2.862,0.751s1.029,1.5,1.094,2.792c0.15,2.932,0.224,4.396,0.374,7.328
			C189.285,41.667,188.992,41.683,188.403,41.715z M185.252,40.313c0.748-0.042,1.336-0.313,1.764-0.807
			c0.428-0.494,0.621-1.164,0.576-2.01c-0.02-0.377-0.031-0.565-0.05-0.943c-0.499,0.051-0.747,0.075-1.245,0.126
			c-0.971,0.094-1.671,0.317-2.096,0.668c-0.425,0.35-0.617,0.86-0.579,1.529c0.027,0.485,0.178,0.852,0.45,1.102
			C184.344,40.23,184.737,40.343,185.252,40.313z"/>
		<path fill="#EEC9B7" d="M196.279,39.638c0.503-0.024,1.002-0.136,1.497-0.337c0.031,0.697,0.046,1.045,0.077,1.742
			c-0.223,0.123-0.513,0.229-0.868,0.322c-0.356,0.092-0.727,0.147-1.112,0.165c-1.95,0.093-2.98-1.009-3.092-3.318
			c-0.114-2.346-0.17-3.519-0.284-5.864c-0.533,0.027-0.8,0.04-1.333,0.067c-0.02-0.409-0.029-0.613-0.05-1.022
			c0.556-0.368,0.833-0.552,1.39-0.919c0.238-0.935,0.357-1.403,0.597-2.338c0.514-0.026,0.772-0.038,1.286-0.062
			c0.045,0.968,0.066,1.452,0.111,2.42c1.114-0.054,1.67-0.081,2.784-0.132c0.031,0.701,0.049,1.049,0.08,1.75
			c-1.112,0.051-1.67,0.079-2.782,0.133c0.109,2.33,0.164,3.495,0.272,5.825c0.026,0.558,0.169,0.963,0.43,1.217
			C195.544,39.54,195.876,39.657,196.279,39.638z"/>
		<path fill="#EEC9B7" d="M206.631,40.868c-0.136-0.566-0.205-0.85-0.342-1.416c-0.042,0.001-0.063,0.003-0.105,0.005
			c-0.268,0.517-0.661,0.929-1.179,1.239c-0.517,0.31-1.115,0.479-1.792,0.507c-1.173,0.049-2.062-0.242-2.668-0.872
			s-0.939-1.611-0.996-2.943c-0.121-2.846-0.182-4.27-0.303-7.116c0.838-0.037,1.258-0.055,2.097-0.091
			c0.11,2.685,0.164,4.026,0.273,6.711c0.034,0.833,0.211,1.452,0.533,1.855c0.321,0.404,0.807,0.593,1.455,0.566
			c0.866-0.036,1.49-0.352,1.875-0.949c0.384-0.597,0.553-1.578,0.502-2.942c-0.081-2.169-0.121-3.255-0.201-5.424
			c0.834-0.033,1.251-0.049,2.086-0.08c0.154,4.355,0.23,6.532,0.384,10.887C207.602,40.83,207.279,40.843,206.631,40.868z"/>
		<path fill="#EEC9B7" d="M215.786,29.453c0.419-0.012,0.765,0.011,1.038,0.069c-0.058,0.865-0.087,1.298-0.144,2.163
			c-0.297-0.07-0.603-0.101-0.92-0.091c-0.83,0.025-1.494,0.35-1.99,0.97c-0.497,0.621-0.729,1.414-0.699,2.378
			c0.07,2.276,0.104,3.414,0.175,5.69c-0.824,0.027-1.235,0.042-2.058,0.07c-0.142-4.355-0.214-6.534-0.357-10.889
			c0.651-0.022,0.977-0.034,1.628-0.056c0.134,0.764,0.2,1.146,0.333,1.911c0.042-0.001,0.065-0.002,0.107-0.003
			c0.303-0.661,0.71-1.19,1.221-1.588C214.629,29.68,215.185,29.471,215.786,29.453z"/>
		<path fill="#EEC9B7" d="M223.164,40.543c-1.507,0.037-2.698-0.424-3.575-1.389c-0.876-0.964-1.338-2.313-1.385-4.046
			c-0.047-1.779,0.312-3.189,1.081-4.229c0.77-1.039,1.851-1.578,3.243-1.612c1.292-0.032,2.323,0.381,3.089,1.238
			c0.767,0.857,1.162,2.05,1.191,3.58c0.009,0.5,0.016,0.751,0.025,1.251c-2.595,0.055-3.892,0.086-6.487,0.155
			c0.055,1.056,0.331,1.861,0.825,2.417s1.176,0.822,2.049,0.801c0.574-0.014,1.106-0.086,1.598-0.219s1.019-0.348,1.581-0.642
			c0.015,0.752,0.021,1.127,0.036,1.879c-0.498,0.281-1.001,0.483-1.514,0.606C224.409,40.458,223.824,40.527,223.164,40.543z
			 M222.569,31.021c-0.66,0.016-1.183,0.263-1.569,0.74c-0.386,0.477-0.606,1.162-0.66,2.056c1.77-0.047,2.654-0.069,4.424-0.109
			c-0.03-0.899-0.238-1.576-0.625-2.03C223.751,31.223,223.229,31.004,222.569,31.021z"/>
		<path fill="#EEC9B7" d="M235.747,37.004c0.013,1.063-0.323,1.884-1.006,2.462c-0.683,0.578-1.666,0.876-2.952,0.898
			c-1.292,0.022-2.333-0.177-3.124-0.602c-0.014-0.8-0.022-1.2-0.037-2c1.152,0.569,2.22,0.845,3.203,0.828
			c1.27-0.021,1.898-0.46,1.887-1.32c-0.003-0.276-0.077-0.505-0.22-0.687s-0.378-0.37-0.703-0.562
			c-0.325-0.191-0.777-0.407-1.355-0.646c-1.128-0.467-1.897-0.937-2.302-1.415c-0.405-0.478-0.616-1.105-0.629-1.88
			c-0.017-0.933,0.308-1.664,0.975-2.191c0.666-0.528,1.582-0.802,2.744-0.821c1.151-0.019,2.243,0.223,3.275,0.728
			c-0.261,0.701-0.389,1.052-0.648,1.753c-1.06-0.471-1.953-0.7-2.671-0.688c-1.096,0.019-1.638,0.377-1.627,1.073
			c0.006,0.341,0.152,0.627,0.441,0.859c0.289,0.232,0.917,0.545,1.881,0.943c0.81,0.335,1.397,0.646,1.766,0.929
			c0.367,0.283,0.643,0.613,0.823,0.988C235.648,36.028,235.741,36.479,235.747,37.004z"/>
		<path fill="#EEC9B7" d="M251.209,39.997c-0.828,0-1.242,0.001-2.069,0.003c-0.001-2.679-0.002-4.019-0.003-6.698
			c0-0.84-0.151-1.468-0.455-1.881c-0.304-0.412-0.787-0.618-1.447-0.615c-0.878,0.003-1.52,0.297-1.923,0.876
			c-0.404,0.58-0.603,1.55-0.597,2.909c0.009,2.171,0.013,3.256,0.021,5.427c-0.824,0.005-1.236,0.009-2.061,0.015
			c-0.025-4.358-0.039-6.538-0.064-10.895c0.652-0.005,0.978,0.216,1.63,0.212c0.119,0.571,0.178,0.65,0.296,1.65
			c0.042,0,0.065,0,0.108,0c0.292-1,0.709-1.148,1.252-1.434c0.542-0.285,1.142-0.541,1.803-0.543
			c2.349-0.008,3.521,1.268,3.518,3.928C251.215,35.792,251.213,37.156,251.209,39.997z"/>
		<path fill="#EEC9B7" d="M262.741,34.582c-0.02,1.779-0.443,3.164-1.267,4.156c-0.824,0.991-1.959,1.48-3.409,1.473
			c-0.907-0.004-1.706-0.236-2.399-0.698c-0.692-0.461-1.226-1.124-1.597-1.985c-0.372-0.861-0.557-1.859-0.553-2.995
			c0.006-1.767,0.416-3.145,1.234-4.135c0.818-0.989,1.969-1.482,3.451-1.475c1.417,0.008,2.534,0.525,3.349,1.546
			C262.364,31.489,262.76,32.861,262.741,34.582z M255.648,34.536c-0.012,2.514,0.809,3.774,2.466,3.783
			c1.64,0.009,2.471-1.241,2.495-3.756c0.023-2.489-0.796-3.742-2.457-3.751c-0.873-0.004-1.506,0.316-1.902,0.958
			C255.856,32.413,255.654,33.334,255.648,34.536z"/>
		<path fill="#EEC9B7" d="M268.688,38.444c0.503,0.007,1.01-0.073,1.518-0.243c-0.013,0.697-0.019,1.045-0.032,1.743
			c-0.23,0.108-0.527,0.197-0.888,0.267c-0.361,0.07-0.733,0.102-1.119,0.097c-1.953-0.027-2.914-1.193-2.883-3.504
			c0.031-2.349,0.047-3.522,0.078-5.87c-0.534-0.006-0.8-0.009-1.334-0.015c0.005-0.41,0.008-0.614,0.013-1.023
			c0.577-0.333,0.866-0.5,1.444-0.832c0.296-0.918,0.444-1.376,0.741-2.295c0.514,0.006,0.771,0.009,1.285,0.016
			c-0.015,0.969-0.021,1.453-0.035,2.422c1.115,0.015,1.672,0.023,2.787,0.041c-0.012,0.701-0.017,1.052-0.029,1.753
			c-1.114-0.018-1.672-0.026-2.786-0.041c-0.036,2.333-0.053,3.499-0.088,5.831c-0.009,0.558,0.11,0.973,0.356,1.242
			C267.962,38.302,268.286,38.438,268.688,38.444z"/>
		<path fill="#EEC9B7" d="M283.381,37.32c-0.031,1.063-0.399,1.869-1.105,2.418c-0.708,0.55-1.702,0.809-2.987,0.779
			c-1.292-0.031-2.325-0.273-3.099-0.73c0.018-0.799,0.027-1.2,0.045-2c1.128,0.615,2.183,0.935,3.167,0.958
			c1.27,0.03,1.917-0.383,1.94-1.243c0.008-0.276-0.057-0.507-0.193-0.694c-0.135-0.186-0.362-0.385-0.679-0.59
			c-0.317-0.205-0.76-0.438-1.329-0.7c-1.109-0.512-1.859-1.014-2.245-1.508c-0.385-0.495-0.569-1.129-0.551-1.903
			c0.021-0.932,0.374-1.65,1.062-2.15c0.688-0.501,1.615-0.739,2.778-0.711c1.15,0.027,2.233,0.315,3.244,0.861
			c-0.289,0.69-0.434,1.036-0.722,1.726c-1.041-0.514-1.921-0.778-2.64-0.796c-1.096-0.026-1.651,0.309-1.668,1.005
			c-0.009,0.341,0.125,0.634,0.404,0.876c0.279,0.243,0.895,0.583,1.841,1.02c0.796,0.368,1.373,0.702,1.728,1
			c0.356,0.298,0.618,0.64,0.784,1.021C283.323,36.341,283.397,36.795,283.381,37.32z"/>
		<path fill="#EEC9B7" d="M292.361,40.701c-0.095-0.575-0.143-0.863-0.237-1.438c-0.042-0.001-0.062-0.001-0.105-0.003
			c-0.305,0.496-0.728,0.878-1.267,1.149c-0.539,0.271-1.148,0.396-1.827,0.375c-1.176-0.038-2.041-0.392-2.6-1.065
			s-0.819-1.677-0.778-3.009c0.088-2.848,0.134-4.271,0.221-7.119c0.839,0.024,1.257,0.038,2.097,0.064
			c-0.087,2.686-0.131,4.028-0.218,6.714c-0.027,0.834,0.106,1.462,0.397,1.888c0.291,0.426,0.761,0.651,1.412,0.672
			c0.866,0.028,1.514-0.242,1.941-0.808c0.427-0.567,0.667-1.535,0.716-2.9c0.079-2.17,0.118-3.253,0.196-5.423
			c0.836,0.029,1.253,0.042,2.089,0.073c-0.166,4.354-0.247,6.533-0.413,10.887C293.336,40.735,293.011,40.724,292.361,40.701z"/>
		<path fill="#EEC9B7" d="M301.837,41.265c-1.228-0.052-2.16-0.586-2.797-1.604c-0.049-0.002-0.074-0.003-0.123-0.005
			c0.043,0.921,0.061,1.48,0.052,1.677c-0.075,1.783-0.111,2.676-0.187,4.459c-0.821-0.033-1.233-0.049-2.054-0.081
			c0.255-6.291,0.383-9.437,0.638-15.729c0.673,0.026,1.009,0.039,1.682,0.066c0.038,0.205,0.115,0.693,0.231,1.467
			c0.042,0.002,0.063,0.003,0.105,0.005c0.694-1.077,1.695-1.588,2.993-1.532c1.222,0.052,2.151,0.586,2.786,1.601
			c0.634,1.015,0.907,2.414,0.821,4.191s-0.497,3.147-1.232,4.114C304.018,40.86,303.047,41.317,301.837,41.265z M301.753,31.855
			c-0.825-0.035-1.44,0.209-1.843,0.731c-0.402,0.522-0.629,1.376-0.679,2.557c-0.006,0.138-0.01,0.207-0.016,0.345
			c-0.056,1.325,0.092,2.292,0.441,2.901s0.948,0.932,1.798,0.968c0.714,0.031,1.281-0.275,1.697-0.914
			c0.416-0.638,0.654-1.566,0.71-2.779c0.057-1.22-0.095-2.152-0.452-2.796C303.054,32.226,302.501,31.887,301.753,31.855z"/>
		<path fill="#EEC9B7" d="M313.025,41.798c-1.228-0.064-2.152-0.608-2.78-1.632c-0.049-0.002-0.075-0.002-0.125-0.005
			c0.035,0.921,0.047,1.482,0.036,1.679c-0.092,1.783-0.138,2.674-0.231,4.456c-0.821-0.041-1.229-0.063-2.051-0.103
			c0.316-6.288,0.472-9.432,0.787-15.72c0.673,0.032,1.009,0.049,1.682,0.082c0.036,0.206,0.109,0.695,0.218,1.47
			c0.042,0.002,0.064,0.004,0.106,0.006c0.705-1.07,1.708-1.571,3.006-1.503c1.221,0.064,2.145,0.607,2.771,1.628
			c0.625,1.021,0.885,2.42,0.782,4.197s-0.528,3.144-1.272,4.103C315.21,41.414,314.235,41.862,313.025,41.798z M313.032,32.388
			c-0.825-0.043-1.442,0.196-1.851,0.714c-0.408,0.519-0.641,1.37-0.702,2.55c-0.007,0.138-0.012,0.206-0.019,0.344
			c-0.069,1.325,0.068,2.292,0.413,2.905s0.94,0.939,1.79,0.983c0.714,0.038,1.284-0.261,1.707-0.896
			c0.421-0.633,0.667-1.56,0.734-2.772c0.068-1.22-0.071-2.152-0.422-2.8C314.331,32.77,313.78,32.427,313.032,32.388z"/>
		<path fill="#EEC9B7" d="M328.272,37.022c-0.119,1.775-0.619,3.134-1.498,4.078c-0.879,0.943-2.042,1.37-3.492,1.281
			c-0.905-0.056-1.692-0.333-2.359-0.833c-0.667-0.5-1.163-1.188-1.487-2.069c-0.323-0.88-0.453-1.887-0.386-3.021
			c0.104-1.764,0.591-3.119,1.464-4.061c0.874-0.942,2.052-1.369,3.533-1.278c1.416,0.087,2.504,0.664,3.262,1.729
			C328.067,33.912,328.388,35.305,328.272,37.022z M321.182,36.581c-0.154,2.51,0.6,3.813,2.256,3.915
			c1.638,0.101,2.541-1.102,2.705-3.611c0.162-2.484-0.589-3.78-2.25-3.882c-0.872-0.054-1.525,0.231-1.956,0.85
			C321.505,34.472,321.255,35.381,321.182,36.581z"/>
		<path fill="#EEC9B7" d="M336.002,31.911c0.419,0.03,0.761,0.088,1.027,0.173c-0.145,0.855-0.217,1.282-0.361,2.137
			c-0.289-0.1-0.592-0.162-0.91-0.184c-0.83-0.059-1.526,0.196-2.084,0.762c-0.558,0.567-0.869,1.331-0.938,2.294
			c-0.161,2.271-0.242,3.409-0.403,5.681c-0.824-0.057-1.236-0.086-2.061-0.142c0.301-4.347,0.453-6.521,0.753-10.869
			c0.651,0.043,0.977,0.066,1.627,0.111c0.056,0.774,0.083,1.162,0.138,1.936c0.042,0.003,0.063,0.004,0.105,0.007
			c0.371-0.626,0.83-1.11,1.378-1.453S335.401,31.868,336.002,31.911z"/>
		<path fill="#EEC9B7" d="M341.753,41.781c0.503,0.039,1.013-0.01,1.531-0.147c-0.056,0.695-0.083,1.042-0.14,1.737
			c-0.237,0.094-0.539,0.164-0.903,0.211c-0.366,0.047-0.739,0.058-1.124,0.028c-1.952-0.149-2.841-1.372-2.665-3.677
			c0.178-2.342,0.267-3.513,0.445-5.855c-0.533-0.04-0.799-0.06-1.333-0.099c0.03-0.409,0.045-0.613,0.076-1.021
			c0.598-0.296,0.898-0.443,1.497-0.739c0.353-0.898,0.528-1.348,0.882-2.246c0.514,0.038,0.771,0.058,1.285,0.096
			c-0.075,0.966-0.112,1.45-0.188,2.416c1.114,0.084,1.672,0.127,2.786,0.215c-0.056,0.699-0.084,1.048-0.14,1.748
			c-1.113-0.087-1.668-0.13-2.781-0.215c-0.181,2.326-0.271,3.489-0.452,5.815c-0.043,0.557,0.048,0.977,0.276,1.261
			C341.033,41.593,341.35,41.75,341.753,41.781z"/>
		<path fill="#EEC9B7" d="M349.278,44.262c-1.505-0.126-2.641-0.712-3.411-1.766c-0.769-1.053-1.085-2.443-0.944-4.171
			c0.145-1.774,0.653-3.139,1.531-4.09c0.879-0.95,2.017-1.367,3.408-1.252c1.292,0.108,2.273,0.63,2.944,1.564
			c0.671,0.934,0.938,2.164,0.803,3.688c-0.044,0.499-0.067,0.749-0.111,1.247c-2.593-0.226-3.889-0.334-6.482-0.545
			c-0.059,1.056,0.128,1.886,0.561,2.491c0.432,0.605,1.084,0.944,1.955,1.018c0.573,0.048,1.113,0.034,1.619-0.046
			c0.504-0.079,1.05-0.236,1.643-0.468c-0.066,0.75-0.099,1.125-0.165,1.875c-0.527,0.226-1.051,0.371-1.574,0.438
			S349.938,44.317,349.278,44.262z M349.711,34.729c-0.659-0.055-1.207,0.136-1.643,0.568c-0.436,0.433-0.728,1.09-0.879,1.974
			c1.769,0.144,2.652,0.217,4.421,0.368c0.066-0.897-0.067-1.593-0.403-2.086C350.87,35.06,350.37,34.785,349.711,34.729z"/>
		<path fill="#EEC9B7" d="M358.648,45.085c-1.208-0.111-2.105-0.687-2.694-1.728c-0.589-1.042-0.805-2.446-0.645-4.219
			c0.161-1.779,0.631-3.135,1.413-4.064c0.782-0.929,1.786-1.338,3.012-1.226c1.284,0.118,2.212,0.736,2.781,1.852
			c0.042,0.004,0.064,0.007,0.107,0.011c-0.025-0.787-0.017-1.408,0.026-1.858c0.152-1.581,0.229-2.371,0.38-3.951
			c0.837,0.079,1.255,0.119,2.092,0.199c-0.597,6.102-0.895,9.152-1.493,15.253c-0.644-0.062-0.966-0.092-1.61-0.153
			c-0.089-0.582-0.133-0.874-0.222-1.456c-0.039-0.003-0.059-0.006-0.098-0.01C360.934,44.751,359.92,45.201,358.648,45.085z
			 M359.374,43.271c0.848,0.078,1.489-0.131,1.925-0.626c0.437-0.496,0.719-1.342,0.846-2.537c0.012-0.129,0.02-0.195,0.032-0.324
			c0.132-1.366,0.024-2.356-0.32-2.969c-0.345-0.612-0.942-0.958-1.795-1.037c-0.729-0.067-1.322,0.21-1.776,0.832
			c-0.455,0.621-0.738,1.541-0.85,2.757c-0.111,1.204-0.005,2.138,0.316,2.803C358.073,42.834,358.614,43.202,359.374,43.271z"/>
		<path fill="#EEC9B7" d="M366.386,44.384c0.048-0.483,0.198-0.838,0.451-1.066c0.253-0.229,0.592-0.324,1.012-0.281
			c0.416,0.042,0.72,0.202,0.916,0.485c0.196,0.284,0.27,0.659,0.222,1.123c-0.047,0.464-0.196,0.819-0.449,1.068
			s-0.583,0.353-0.992,0.312c-0.414-0.042-0.725-0.203-0.929-0.487S366.338,44.867,366.386,44.384z M368.791,41.467
			c-0.612-0.061-0.919-0.092-1.531-0.152c0.22-4.009,0.33-6.015,0.546-10.024c0.981,0.097,1.47,0.147,2.452,0.246
			C369.668,35.508,369.377,37.495,368.791,41.467z"/>
	</g>
</g>
<g>
	<g>
		<path fill="#E08954" d="M182.238,56.15c-1.288,0.085-2.275,0.557-2.958,1.411c-0.682,0.854-0.972,1.981-0.873,3.377
			c0.102,1.428,0.525,2.51,1.272,3.251c0.748,0.741,1.764,1.07,3.049,0.985c0.853-0.057,1.631-0.216,2.332-0.477
			c0.016,0.247,0.022,0.369,0.038,0.616c-0.658,0.276-1.489,0.447-2.495,0.514c-1.428,0.096-2.582-0.28-3.467-1.129
			c-0.885-0.85-1.39-2.091-1.507-3.719c-0.073-1.017,0.06-1.928,0.399-2.731s0.865-1.442,1.578-1.915
			c0.712-0.473,1.562-0.744,2.546-0.81c1.002-0.066,1.912,0.058,2.727,0.373c-0.099,0.259-0.149,0.389-0.248,0.648
			C183.86,56.227,183.062,56.095,182.238,56.15z"/>
		<path fill="#E08954" d="M187.896,65.351c-0.275,0.017-0.414,0.025-0.689,0.042c-0.265-4.262-0.396-6.39-0.662-10.652
			c0.278-0.017,0.416-0.027,0.694-0.044C187.501,58.958,187.634,61.089,187.896,65.351z"/>
		<path fill="#E08954" d="M189.77,55.693c-0.026-0.438,0.107-0.666,0.402-0.683c0.145-0.008,0.264,0.041,0.353,0.149
			c0.089,0.109,0.138,0.271,0.15,0.481c0.012,0.205-0.018,0.369-0.093,0.493c-0.075,0.124-0.186,0.189-0.331,0.197
			C189.956,56.347,189.796,56.135,189.77,55.693z M191.117,65.159c-0.275,0.016-0.413,0.023-0.688,0.04
			c-0.175-2.978-0.264-4.464-0.44-7.442c0.278-0.016,0.417-0.025,0.695-0.042C190.858,60.692,190.944,62.181,191.117,65.159z"/>
		<path fill="#E08954" d="M196.679,64.991c-1.081,0.057-1.946-0.233-2.596-0.872c-0.65-0.638-1.01-1.557-1.077-2.758
			c-0.069-1.233,0.196-2.21,0.799-2.933s1.461-1.114,2.574-1.172c0.66-0.035,1.295,0.046,1.91,0.24
			c-0.063,0.245-0.094,0.368-0.158,0.613c-0.67-0.182-1.248-0.259-1.734-0.234c-0.935,0.048-1.628,0.369-2.078,0.958
			c-0.45,0.59-0.646,1.416-0.588,2.475c0.056,1.004,0.34,1.779,0.849,2.322c0.509,0.543,1.192,0.79,2.051,0.745
			c0.687-0.036,1.32-0.189,1.897-0.461c0.013,0.252,0.021,0.379,0.033,0.631C198.09,64.801,197.463,64.95,196.679,64.991z"/>
		<path fill="#E08954" d="M200.941,61.362c1.471-1.746,2.21-2.616,3.694-4.356c0.337-0.015,0.505-0.022,0.842-0.037
			c-1.146,1.324-1.717,1.986-2.856,3.313c1.379,1.648,2.066,2.473,3.435,4.126c-0.332,0.014-0.498,0.022-0.829,0.037
			c-1.216-1.456-1.827-2.183-3.052-3.635c-0.477,0.467-0.713,0.701-1.189,1.168c0.051,1.061,0.075,1.592,0.126,2.653
			c-0.276,0.013-0.412,0.02-0.688,0.033c-0.207-4.265-0.312-6.398-0.52-10.664c0.279-0.014,0.417-0.02,0.696-0.033
			c0.103,2.138,0.154,3.208,0.257,5.345c0.02,0.82,0.029,1.23,0.049,2.051C200.92,61.364,200.927,61.363,200.941,61.362z"/>
		<path fill="#E08954" d="M213.011,63.672c0.436-0.015,0.817-0.065,1.14-0.149c0.008,0.219,0.012,0.328,0.02,0.547
			c-0.332,0.121-0.716,0.191-1.152,0.207c-0.668,0.023-1.168-0.134-1.499-0.475c-0.332-0.341-0.511-0.89-0.54-1.644
			c-0.073-1.925-0.11-2.885-0.183-4.81c-0.452,0.017-0.677,0.023-1.129,0.041c-0.006-0.159-0.007-0.238-0.014-0.397
			c0.447-0.141,0.668-0.209,1.116-0.35c0.115-0.68,0.173-1.021,0.288-1.701c0.144-0.005,0.214-0.007,0.358-0.012
			c0.027,0.721,0.041,1.083,0.067,1.804c0.896-0.033,1.344-0.049,2.239-0.08c0.008,0.236,0.014,0.354,0.022,0.589
			c-0.895,0.031-1.343,0.047-2.238,0.08c0.07,1.887,0.104,2.831,0.174,4.718c0.021,0.572,0.138,0.99,0.353,1.256
			C212.248,63.562,212.574,63.688,213.011,63.672z"/>
		<path fill="#E08954" d="M221.972,60.123c0.031,1.217-0.245,2.174-0.826,2.874c-0.581,0.699-1.397,1.064-2.451,1.095
			c-0.665,0.02-1.254-0.119-1.771-0.418c-0.517-0.3-0.918-0.742-1.207-1.323s-0.448-1.258-0.473-2.03
			c-0.04-1.215,0.228-2.172,0.809-2.87c0.581-0.698,1.398-1.065,2.452-1.097c1.049-0.031,1.88,0.292,2.495,0.964
			C221.615,57.99,221.94,58.925,221.972,60.123z M215.971,60.297c0.033,1.024,0.29,1.816,0.765,2.375
			c0.477,0.559,1.132,0.826,1.968,0.801c0.836-0.025,1.475-0.329,1.917-0.915c0.442-0.586,0.651-1.393,0.624-2.417
			c-0.029-1.029-0.282-1.819-0.763-2.374c-0.481-0.554-1.142-0.821-1.984-0.796s-1.483,0.33-1.921,0.909
			S215.937,59.265,215.971,60.297z"/>
		<path fill="#E08954" d="M228.044,63.724c-0.081-4.012-0.12-6.016-0.202-10.028c0.287-0.006,0.43-0.009,0.717-0.014
			c0.073,3.748,0.11,5.62,0.184,9.368c1.944-0.037,2.916-0.052,4.859-0.08c0.004,0.264,0.006,0.394,0.01,0.657
			C231.385,63.66,230.271,63.68,228.044,63.724z"/>
		<path fill="#E08954" d="M238.255,63.712c-1.101,0.01-1.963-0.315-2.587-0.976s-0.946-1.591-0.961-2.793
			c-0.016-1.188,0.27-2.146,0.86-2.869c0.59-0.723,1.395-1.09,2.41-1.1c0.899-0.008,1.61,0.292,2.134,0.901
			c0.524,0.609,0.789,1.439,0.797,2.491c0.001,0.22,0.003,0.329,0.004,0.549c-2.19,0.015-3.287,0.026-5.477,0.053
			c0.023,1.024,0.277,1.804,0.76,2.338c0.483,0.534,1.167,0.796,2.055,0.788c0.432-0.004,0.812-0.038,1.139-0.1
			c0.328-0.062,0.742-0.194,1.242-0.394c0.002,0.247,0.002,0.37,0.004,0.617c-0.427,0.186-0.82,0.313-1.183,0.383
			C239.09,63.669,238.691,63.708,238.255,63.712z M237.98,56.577c-0.735,0.007-1.32,0.251-1.759,0.729s-0.689,1.164-0.751,2.057
			c1.881-0.023,2.821-0.031,4.702-0.045c-0.007-0.864-0.203-1.54-0.591-2.023C239.193,56.811,238.658,56.571,237.98,56.577z"/>
		<path fill="#E08954" d="M247.627,64c-0.07-1-0.104-1-0.175-2c-0.022,0-0.034,0-0.057,0c-0.381,1-0.772,0.996-1.174,1.195
			s-0.875,0.388-1.423,0.389c-0.744,0.002-1.323-0.139-1.739-0.512c-0.416-0.373-0.626-0.871-0.629-1.534
			c-0.003-0.727,0.301-1.283,0.917-1.688c0.616-0.404,1.271-0.615,2.442-0.639c0.58-0.018,1.21-0.02,1.21-0.037
			c0-0.198,0-0.295,0-0.493c0-0.709,0.092-1.245-0.204-1.606c-0.295-0.361-0.649-0.542-1.304-0.54
			c-0.707,0.001-1.38,0.196-2.135,0.583c-0.105-0.236-0.127-0.354-0.233-0.589c0.837-0.388,1.68-0.583,2.499-0.584
			c0.839-0.001,1.473,0.212,1.888,0.638c0.414,0.425,0.624,1.322,0.623,2.224C248.132,60.79,248.137,62,248.136,64
			C247.932,64,247.831,64,247.627,64z M244.836,63.054c0.809-0.002,1.222-0.23,1.689-0.686S247,61.28,247,60.471
			c0-0.293,0-0.44,0-0.733c0,0.022-0.572,0.033-1.103,0.056c-1.069,0.052-1.716,0.218-2.17,0.496
			c-0.453,0.278-0.624,0.71-0.621,1.295c0.003,0.466,0.179,0.829,0.471,1.086C243.868,62.928,244.306,63.055,244.836,63.054z"/>
		<path fill="#E08954" d="M253.617,55.95c0.323,0.002,0.67,0.035,1.04,0.102c-0.056,0.26-0.084,0.392-0.14,0.652
			c-0.318-0.08-0.647-0.123-0.989-0.125c-0.65-0.004-1.185,0.265-1.603,0.802c-0.419,0.538-0.63,1.217-0.632,2.04
			c-0.006,1.646-0.011,2.471-0.017,4.118c-0.276-0.001-0.413-0.001-0.689-0.002c0.009-2.983,0.014-4.475,0.022-7.458
			c0.236,0.001,0.354-0.211,0.59-0.21c0.026,0.538,0.039,1.131,0.065,1.131c0.02,0,0.03,0,0.05,0c0.315,0,0.65-0.719,1.007-0.939
			C252.678,55.841,253.111,55.947,253.617,55.95z"/>
		<path fill="#E08954" d="M261.427,63.63c0.027-1.935,0.04-2.901,0.067-4.836c0.01-0.75-0.143-1.296-0.46-1.641
			c-0.318-0.345-0.817-0.522-1.496-0.531c-0.913-0.011-1.583,0.207-2.01,0.653c-0.428,0.446-0.646,1.173-0.655,2.184
			c-0.016,1.646-0.024,2.47-0.04,4.117c-0.276-0.003-0.413-0.003-0.688-0.005c0.025-2.983,0.037-4.476,0.063-7.459
			c0.236,0.002,0.355-0.066,0.591-0.063c0.049,0.409,0.074,0.951,0.123,0.951c0.017,0,0.025,0,0.042,0
			c0.503-1,1.391-1.082,2.661-1.066c1.732,0.021,2.585,0.979,2.558,2.794c-0.029,1.951-0.042,2.945-0.071,4.895
			C261.838,63.619,261.7,63.634,261.427,63.63z"/>
		<path fill="#E08954" d="M272.932,63.865c-1.424-3.744-2.145-5.613-3.597-9.351c-0.022,0-0.034-0.002-0.056-0.002
			c0.026,0.567,0.032,1.15,0.019,1.744c-0.066,3.007-0.1,4.511-0.166,7.519c-0.273-0.006-0.409-0.01-0.683-0.016
			c0.085-4.012,0.128-6.018,0.214-10.029c0.445,0.009,0.667,0.016,1.112,0.025c1.38,3.562,2.063,5.342,3.418,8.908
			c0.017,0,0.024,0.002,0.041,0.002c1.538-3.489,2.315-5.233,3.88-8.717c0.434,0.013,0.65,0.02,1.084,0.033
			c-0.125,4.01-0.185,6.015-0.309,10.026c-0.287-0.009-0.433-0.015-0.72-0.023c0.092-3.039,0.138-4.43,0.23-7.469
			c0.016-0.53,0.06-1.516,0.134-1.516c-0.022,0-0.033,0-0.056,0c-1.652,3-2.472,5.349-4.094,9.006
			C273.203,64.001,273.113,63.87,272.932,63.865z"/>
		<path fill="#E08954" d="M287.01,60.595c-0.049,1.215-0.389,2.152-1.016,2.812c-0.627,0.66-1.467,0.969-2.521,0.93
			c-0.664-0.025-1.243-0.202-1.739-0.535c-0.496-0.333-0.87-0.801-1.12-1.399c-0.25-0.599-0.362-1.285-0.336-2.057
			c0.041-1.215,0.371-2.153,0.998-2.812c0.627-0.658,1.469-0.968,2.523-0.929c1.049,0.039,1.859,0.416,2.427,1.126
			C286.795,58.443,287.058,59.397,287.01,60.595z M281.006,60.37c-0.035,1.023,0.167,1.831,0.604,2.42
			c0.439,0.589,1.075,0.899,1.912,0.93c0.837,0.031,1.498-0.229,1.979-0.785c0.48-0.556,0.74-1.344,0.78-2.368
			c0.04-1.028-0.161-1.836-0.604-2.421c-0.443-0.585-1.086-0.894-1.929-0.926c-0.843-0.031-1.503,0.23-1.978,0.777
			C281.294,58.545,281.041,59.338,281.006,60.37z"/>
		<path fill="#E08954" d="M292.285,56.958c0.323,0.015,0.667,0.062,1.035,0.143c-0.065,0.258-0.099,0.387-0.165,0.645
			c-0.314-0.093-0.641-0.146-0.983-0.162c-0.651-0.03-1.198,0.216-1.637,0.737s-0.676,1.192-0.712,2.015
			c-0.071,1.645-0.106,2.468-0.177,4.113c-0.276-0.012-0.414-0.018-0.689-0.029c0.126-2.98,0.189-4.471,0.314-7.452
			c0.236,0.01,0.354,0.015,0.59,0.025c0.005,0.539,0.007,0.808,0.012,1.347c0.02,0.001,0.03,0.001,0.05,0.002
			c0.338-0.534,0.688-0.903,1.054-1.109S291.779,56.935,292.285,56.958z"/>
		<path fill="#E08954" d="M297.564,64.961c-1.101-0.057-1.943-0.432-2.527-1.129c-0.583-0.697-0.848-1.648-0.791-2.85
			c0.057-1.188,0.402-2.125,1.036-2.81c0.632-0.686,1.459-1.003,2.476-0.95c0.899,0.046,1.592,0.391,2.078,1.031
			c0.487,0.64,0.701,1.484,0.645,2.535c-0.012,0.219-0.018,0.327-0.03,0.546c-2.19-0.119-3.286-0.176-5.477-0.283
			c-0.04,1.023,0.166,1.82,0.615,2.381c0.45,0.562,1.12,0.866,2.007,0.912c0.432,0.022,0.812,0.014,1.145-0.028
			c0.33-0.042,0.752-0.149,1.265-0.318c-0.013,0.247-0.021,0.369-0.034,0.616c-0.438,0.16-0.837,0.265-1.204,0.312
			C298.403,64.972,298.001,64.983,297.564,64.961z M297.727,57.827c-0.735-0.038-1.337,0.167-1.805,0.618
			c-0.467,0.451-0.76,1.121-0.878,2.008c1.881,0.092,2.824,0.138,4.705,0.239c0.045-0.863-0.11-1.545-0.468-2.052
			S298.406,57.861,297.727,57.827z"/>
	</g>
</g>
</svg>
