<?xml version="1.0" encoding="utf-8"?>
<!-- Generator: Adobe Illustrator 16.0.0, SVG Export Plug-In . SVG Version: 6.00 Build 0)  -->
<!DOCTYPE svg PUBLIC "-//W3C//DTD SVG 1.1//EN" "http://www.w3.org/Graphics/SVG/1.1/DTD/svg11.dtd">
<svg version="1.1" id="Layer_1" xmlns="http://www.w3.org/2000/svg" xmlns:xlink="http://www.w3.org/1999/xlink" x="0px" y="0px"
	 width="1242px" height="170.687px" viewBox="0 0 1242 170.687" enable-background="new 0 0 1242 170.687" xml:space="preserve">
<path fill="#FFFFFF" d="M1199.256,16.65c-31.67,20.308-38.664-6.575-80.184-6.575c-41.514,0-41.505,0.25-83.021,0.25
	c-41.518,0-41.512,12.366-83.025,12.366c-41.518,0-41.517-19.378-83.034-19.378c-41.52,0-41.518,33.054-83.035,33.054
	c-41.52,0-41.519-2.243-83.038-2.243s-41.52-27.336-83.035-27.336c-41.521,0-41.521,3.195-83.043,3.195
	c-41.518,0-41.518,18.043-83.035,18.043c-41.52,0-41.52-19.859-83.039-19.859c-41.518,0-41.518,28.435-83.037,28.435
	c-41.521,0-41.521-15.846-83.043-15.846c-41.523,0-41.523,7.885-83.047,7.885c-41.525,0-54.103,13.366-85.779-6.94
	C24.861,14.006,22,0,0,0v170.687c29,0,33.224-17.388,45.507-25.263c31.02-19.893,50.923,15.468,91.589,15.468
	s40.643,0.534,81.309,0.534s40.653,3.532,81.319,3.532s40.661-24.845,81.327-24.845c40.668,0,40.665,17.399,81.333,17.399
	s40.667-8.134,81.337-8.134c40.668,0,40.666-8.936,81.334-8.936c40.67,0,40.67,2.827,81.338,2.827s40.668,9.034,81.34,9.034
	c40.666,0,40.666,4.341,81.334,4.341s40.668-3.347,81.338-3.347s40.67-13.322,81.342-13.322s40.672,25.783,81.346,25.783
	c40.672,0,43.942-25.385,74.97-5.492c6.373,4.085,16.938,10.419,53.938,10.419V0C1214,0,1209.453,10.113,1199.256,16.65z
	 M207.249,72.161c-24.312,0-44.021-4.95-44.021-11.056c0-6.106,19.709-11.057,44.021-11.057s44.021,4.95,44.021,11.057
	C251.271,67.211,231.562,72.161,207.249,72.161z M490.563,122.687c-27.281,0-49.396-5.791-49.396-12.935
	s22.115-12.935,49.396-12.935s49.396,5.791,49.396,12.935S517.845,122.687,490.563,122.687z M886.192,45.569
	c-18.225,0-32.999-3.807-32.999-8.503c0-4.695,14.774-8.502,32.999-8.502s32.998,3.807,32.998,8.502
	C919.19,41.763,904.417,45.569,886.192,45.569z M1122.158,140.337c-18.789,0-34.021-5.903-34.021-13.185
	s15.231-13.185,34.021-13.185s34.021,5.903,34.021,13.185S1140.947,140.337,1122.158,140.337z"/>
</svg>
