<?xml version="1.0" encoding="utf-8"?>
<!-- Generator: Adobe Illustrator 16.0.0, SVG Export Plug-In . SVG Version: 6.00 Build 0)  -->
<!DOCTYPE svg PUBLIC "-//W3C//DTD SVG 1.1//EN" "http://www.w3.org/Graphics/SVG/1.1/DTD/svg11.dtd">
<svg version="1.1" id="Layer_1" xmlns="http://www.w3.org/2000/svg" xmlns:xlink="http://www.w3.org/1999/xlink" x="0px" y="0px"
	 width="1222px" height="170.687px" viewBox="0 0 1222 170.687" enable-background="new 0 0 1222 170.687" xml:space="preserve">
<path fill="#FFFFFF" d="M1189.256,10.243c-31.67,12.493-38.664-4.045-80.184-4.045c-41.514,0-41.505,0.154-83.021,0.154
	c-41.518,0-41.512,7.607-83.025,7.607c-41.518,0-41.517-11.921-83.034-11.921c-41.52,0-41.518,20.333-83.035,20.333
	c-41.52,0-41.519-1.38-83.038-1.38s-41.52-16.816-83.035-16.816c-41.521,0-41.521,1.966-83.043,1.966
	c-41.518,0-41.518,11.099-83.035,11.099c-41.52,0-41.52-12.217-83.039-12.217c-41.518,0-41.518,17.492-83.037,17.492
	c-41.521,0-41.521-9.748-83.043-9.748c-41.523,0-41.523,4.851-83.047,4.851c-41.525,0-54.103,8.222-85.779-4.27
	C14.861,8.616,12,0-10,0v105c29,0,33.224-10.696,45.507-15.541c31.02-12.237,50.923,9.515,91.589,9.515s40.643,0.329,81.309,0.329
	s40.653,2.173,81.319,2.173s40.661-15.284,81.327-15.284c40.668,0,40.665,10.704,81.333,10.704s40.667-5.003,81.337-5.003
	c40.668,0,40.666-5.497,81.334-5.497c40.67,0,40.67,1.739,81.338,1.739s40.668,5.558,81.34,5.558c40.666,0,40.666,2.67,81.334,2.67
	s40.668-2.059,81.338-2.059s40.67-8.195,81.342-8.195s40.672,15.861,81.346,15.861c40.672,0,43.942-15.616,74.97-3.378
	C1184.436,101.104,1195,105,1232,105V0C1204,0,1199.453,6.221,1189.256,10.243z M197.249,44.391
	c-24.312,0-44.021-3.045-44.021-6.801c0-3.756,19.709-6.802,44.021-6.802s44.021,3.045,44.021,6.802
	C241.271,41.346,221.562,44.391,197.249,44.391z M480.563,75.472c-27.281,0-49.396-3.562-49.396-7.957
	c0-4.394,22.115-7.957,49.396-7.957s49.396,3.562,49.396,7.957C529.96,71.91,507.845,75.472,480.563,75.472z M876.192,28.033
	c-18.225,0-32.999-2.342-32.999-5.231c0-2.888,14.774-5.23,32.999-5.23s32.998,2.342,32.998,5.23
	C909.19,25.691,894.417,28.033,876.192,28.033z M1112.158,86.33c-18.789,0-34.021-3.631-34.021-8.111
	c0-4.479,15.231-8.11,34.021-8.11s34.021,3.631,34.021,8.11C1146.179,82.699,1130.947,86.33,1112.158,86.33z"/>
</svg>
