<?xml version="1.0" encoding="utf-8"?>
<!-- Generator: Adobe Illustrator 16.0.0, SVG Export Plug-In . SVG Version: 6.00 Build 0)  -->
<!DOCTYPE svg PUBLIC "-//W3C//DTD SVG 1.1//EN" "http://www.w3.org/Graphics/SVG/1.1/DTD/svg11.dtd">
<svg version="1.1" id="Layer_1" xmlns="http://www.w3.org/2000/svg" xmlns:xlink="http://www.w3.org/1999/xlink" x="0px" y="0px"
	 width="49.872px" height="49.333px" viewBox="0 0 49.872 49.333" enable-background="new 0 0 49.872 49.333" xml:space="preserve">
<g>
	<path fill="#4F375B" d="M25.001,6.016c10.669,0,19.317,8.649,19.317,19.319c0,10.668-8.647,19.317-19.317,19.317
		S5.683,36.002,5.683,25.334C5.683,14.665,14.332,6.016,25.001,6.016 M25.001,3.016c-12.306,0-22.318,10.012-22.318,22.319
		c0,12.306,10.012,22.317,22.318,22.317c12.305,0,22.317-10.012,22.317-22.317C47.318,13.028,37.306,3.016,25.001,3.016
		L25.001,3.016z"/>
</g>
<g>
	<path fill="#835C98" d="M25.436,3.016c0,0-4.073,0.249-5.929,0.738l0.657,2.9c0.071-0.019,0.087-0.037,0.158-0.055l-0.026-0.213
		c0.009-0.002-0.01-0.22,0-0.22c0,0,0.001,0,0.001,0c0.009,0,0.018,0,0.026,0c0,0,0.001,0,0.002,0c0.005,0,0.11,0.207,0.11,0.205
		c0,0,0-0.101,0-0.102s-0.087-0.104-0.084-0.104c0.001,0,0.002,0,0.003,0c0.005,0,0.009,0,0.014,0c0.001,0,0.002,0,0.003,0
		c0.002,0,0.005,0,0.008,0c0.001,0,0.002,0,0.003,0c0.004,0,0.01,0,0.014,0c0.001,0,0.002,0,0.003,0c0.003,0,0.005,0,0.008,0
		c0.001,0,0.001,0,0.002,0c0.005,0,0.009,0,0.014,0c0.002,0,0.003,0,0.005,0c0.004,0,0.007,0.195,0.011,0.194
		c0.002,0,0.004,0.097,0.006,0.097c0.002-0.001,0.005,0.047,0.007,0.047c0.001,0,0.003,0.024,0.005,0.023
		c0.004-0.001,0.007,0.011,0.01,0.01c0.002,0,0.004-0.184,0.006-0.185c0.002,0,0.004-0.187,0.006-0.187c0.002,0,0.004,0,0.006,0
		c0.003,0,0.006,0,0.009,0c0.002,0,0.005,0,0.007,0c0.001,0,0.004,0,0.006,0c0.003,0,0.005,0.186,0.008,0.185
		c0.002-0.001,0.005,0.092,0.007,0.091c0.002,0,0.005,0.046,0.007,0.045c0.001,0,0.003,0.022,0.005,0.022
		c0.003-0.001,0.007,0.01,0.011,0.009c0.001,0,0.003,0.005,0.005,0.004c0.002,0,0.005,0.002,0.007,0.001c0.002,0,0.003,0,0.005,0
		c0.003-0.001,0.007,0,0.011-0.001c0.002-0.001,0.003-0.178,0.005-0.179c0.002,0,0.005-0.179,0.008-0.179c0.001,0,0.003,0,0.005,0
		c0.003,0,0.007,0,0.01,0c0.001,0,0.004,0,0.005,0c0.003,0,0.007,0,0.01,0c0.002,0,0.003,0,0.005,0c0.003,0,0.006,0.172,0.009,0.171
		c0.001,0,0.004-0.084,0.005-0.085c0.004-0.001,0.008-0.086,0.012-0.086c0.001,0,0.002,0,0.003,0c0.003,0,0.006,0,0.009,0
		c0.001,0,0.003,0,0.004,0c0.004,0,0.008,0,0.012,0c0.001,0,0.002,0,0.004,0c0.003,0,0.006,0,0.009,0c0.001,0,0.002,0,0.004,0
		c0.004,0,0.008,0,0.012,0c0.001,0,0.003,0,0.004,0c0.004,0,0.007,0,0.011,0c0,0,0.001,0,0.001,0c0.004,0,0.008,0,0.012,0
		c0.001,0,0.003,0,0.004,0c0.004,0,0.008,0,0.012,0c0,0,0.002,0,0.002,0c0.004,0,0.007,0,0.011,0c0.001,0,0.001,0,0.003,0
		c0.004,0,0.008,0,0.013,0c0,0,0.001,0,0.002,0c0.004,0,0.008,0,0.012,0c0,0,0.001,0,0.002,0c0.004,0,0.008,0,0.013,0
		c0.001,0,0.001,0,0.003,0c0.004,0,0.008,0,0.012,0c0.001,0,0.001,0,0.001,0c0.004,0,0.009,0,0.013,0c0.001,0,0.001,0,0.002,0
		c0.009,0,0.018,0,0.027,0c0.001,0,0.001,0,0.002,0c0.004,0-0.438,0.144-0.438,0.143v-0.07c0-0.001,0.46-0.073,0.464-0.073
		c0.001,0,0.001,0,0.002,0c0.004,0-0.466,0.141-0.466,0.14v0.071c0-0.001,0,0.034,0,0.033v0.018c0-0.001,1,0.007,1,0.006v0.004
		c0-0.002-0.226-0.001-0.217-0.003l-0.121,0c0.01-0.002-0.042-0.003-0.033-0.005h-0.03c0.015-0.003,0.013-0.006,0.028-0.009h-0.007
		c0.01-0.002,0.016-0.004,0.025-0.006h-0.001c0.009-0.002,0.018-0.004,0.028-0.006l0,0c0.85-0.174,1.719-0.292,2.606-0.35l0,0
		c0.01-0.001,0.021-0.001,0.031-0.002l0,0c0.025-0.001,0.051-0.003,0.077-0.004h0c0.01-0.001,0.02-0.001,0.03-0.002h0
		c0.01-0.001,0.02-0.001,0.03-0.002h-0.238c0.01,0-0.209,0.06-0.209,0.059v0.061l0,0V6.106c1-0.001,1-0.032,1-0.032v0.047
		c0,0-0.455,0.046-0.445,0.046h0.001c0.005,0,0.01,0,0.015,0h0c0.004,0,0.009,0,0.014,0h0.001c0.005,0,0.01,0,0.015,0h0
		c0.005,0,0.01,0,0.015,0l0,0c0.005,0,0.01,0,0.015,0h0.001c0.01,0,0.02,0,0.029,0H24.1c0.01,0,0.02,0,0.029,0h0.002
		c0.01,0,0.02,0,0.029,0h0.001c0.005,0,0.01,0,0.015,0h0.001c0.004,0,0.009,0,0.014,0h0c0.005,0,0.01,0,0.015,0h0.001
		c0.01,0,0.02,0,0.029,0c0,0,0.001,0,0.002,0c0.005,0,0.009,0,0.014,0h0c0.005,0,0.009,0,0.014,0c0,0,0.001,0,0.002,0
		c0.005,0,0.01,0,0.015,0h0c0.005,0,0.01,0,0.015,0h0c0.005,0,0.01,0,0.015,0c0,0,0.001,0,0.002,0c0.009,0,0.019,0,0.029,0h0.002
		c0.01,0,0.019,0,0.029,0c0,0,0.001,0,0.002,0c0.005,0,0.01,0,0.015,0h0.001c0.004,0,0.009,0,0.013,0c0.001,0,0.001,0,0.002,0
		c0.004,0,0.009,0,0.014,0c0,0,0.001,0,0.001,0c0.004,0,0.009,0,0.014,0h0.001c0.005,0,0.009,0,0.014,0c0.001,0,0.001,0,0.003,0
		c0.004,0,0.009,0,0.014,0l0,0c0.005,0,0.01,0,0.014,0c0.001,0,0.001,0,0.003,0c0.004,0,0.009,0,0.014,0h0c0.004,0,0.009,0,0.014,0
		c0,0,0.001,0,0.002,0c0.004,0,0.009,0,0.014,0c0,0,0,0,0.001,0c0.004,0,0.008,0,0.013,0c0.001,0,0.002,0,0.002,0
		c0.004,0,0.009,0,0.014,0c0.001,0,0.002,0,0.002,0c0.004,0,0.009,0,0.013,0h0.001c0.004,0,0.009,0,0.014,0c0.001,0,0.001,0,0.003,0
		c0.009,0,0.019,0,0.028,0c0.001,0,0.002,0,0.003,0c0.005,0,0.009,0,0.014,0h0.001c0.004,0,0.009,0,0.013,0c0.001,0,0.002,0,0.002,0
		c0.005,0,0.009,0,0.014,0c0,0,0.001,0,0.002,0c0.004,0,0.009,0,0.013,0c0.001,0,0.001,0,0.002,0c0.005,0,0.009,0,0.014,0
		c0.001,0,0.001,0,0.002,0c0.004,0,0.009,0,0.013,0h0.001c0.005,0,0.009,0,0.014,0c0.001,0,0.001,0,0.003,0c0.004,0,0.009,0,0.014,0
		h0.001c0.004,0,0.009,0,0.013,0c0.001,0,0.001,0,0.003,0c0.005,0,0.009,0,0.014,0c0.001,0,0.001,0,0.002,0c0.004,0,0.008,0,0.013,0
		c0,0,0.002,0,0.002,0c0.004,0,0.009,0,0.014,0c0.001,0,0.002,0,0.003,0c0.004,0,0.008,0,0.012,0c0,0,0.001,0,0.002,0
		c0.004,0,0.009,0,0.014,0c0.001,0,0.001,0,0.003,0c0.004,0,0.008,0,0.013,0h0.001c0.004,0,0.009,0,0.013,0c0.001,0,0.002,0,0.004,0
		c0.004,0,0.009,0,0.013,0c0.001,0,0.001,0,0.001,0c0.004,0,0.009,0,0.013,0c0.001,0,0.002,0,0.003,0c0.004,0,0.009,0,0.014,0
		c0,0,0.001,0,0.002,0c0.004,0,0.008,0,0.012,0c0,0,0.002,0,0.003,0c0.004,0,0.009,0,0.014,0c0.001,0,0.001,0,0.003,0
		c0.004,0,0.008,0,0.012,0c0,0,0.001,0,0.002,0c0.004,0,0.009,0,0.014,0c0.001,0,0.002,0,0.003,0c0.005,0,0.449,0,0.449,0V3.016
		L25.436,3.016z M13.955,5.937c-1.671,0.954-3.216,2.123-4.592,3.474l2.103,2.141c0.208-0.205,0.421-0.405,0.639-0.6v0
		c0.007-0.006,0.015-0.013,0.021-0.019c0,0,0-0.001,0-0.001c0.007-0.006,0.014-0.012,0.021-0.018c0,0,0.142-0.001,0.142-0.001
		c0.002-0.002,0.147-0.004,0.147-0.006v0.136c0-0.004-0.272,0.125-0.268,0.125c0,0,0.001,0,0.001,0c0.002,0,0.004,0,0.006,0
		c0,0,0.001,0,0.001,0c0.004,0,0.008-0.148,0.013-0.152c0,0,0.001,0.079,0.001,0.078c0.001-0.001,0.004,0.074,0.006,0.074
		c0,0,0.001,0,0.001,0c0.004,0,0.236-0.157,0.236-0.162c0,0,0-0.076,0-0.076c0-0.001-0.106-0.042-0.105-0.043
		c0.001,0-0.054-0.02-0.053-0.021c0.003-0.003-0.021-0.016-0.017-0.02c0,0-0.013-0.006-0.012-0.007
		c0.002-0.001-0.003-0.005-0.001-0.007c0.001-0.001-0.002-0.002,0-0.003c0.003-0.004,0.005-0.007,0.009-0.01
		c0.001,0,0.001-0.001,0.002-0.002c0.001-0.002,0.003-0.004,0.005-0.005c0.001-0.001,0.002-0.002,0.003-0.003
		c0.003-0.003,0.007-0.006,0.01-0.009c0.001,0,0.002-0.001,0.003-0.002c0.001-0.002,0.003-0.003,0.005-0.005
		c0.001-0.001,0.002-0.002,0.003-0.003c0.003-0.003,0.006-0.005,0.009-0.008c0.001-0.001,0.002-0.002,0.004-0.003
		s0.003-0.003,0.005-0.004c0.001-0.001,0.002-0.002,0.003-0.003c0.003-0.002,0.005-0.004,0.008-0.007
		c0.001-0.001,0.003-0.003,0.005-0.004s0.003-0.003,0.005-0.004s0.003-0.002,0.004-0.004c0.002-0.001,0.004-0.003,0.005-0.005
		c0.002-0.002,0.005-0.004,0.007-0.006c0.001-0.001,0.003-0.003,0.005-0.004c0.001-0.001,0.003-0.003,0.004-0.004
		s0.004-0.003,0.005-0.004c0.002-0.002,0.005-0.004,0.007-0.007c0.001-0.001,0.003-0.002,0.004-0.003
		c0.002-0.001,0.004-0.003,0.005-0.005c0.001-0.001,0.003-0.002,0.004-0.003c0.003-0.002,0.006-0.005,0.009-0.007
		c0.001-0.001,0.002-0.002,0.004-0.003c0.002-0.001,0.004-0.003,0.005-0.005c0.001-0.001,0.003-0.002,0.004-0.003
		c0.003-0.002,0.005-0.005,0.008-0.007c0.001-0.001,0.002-0.002,0.004-0.003c0.002-0.002,0.004-0.003,0.006-0.005
		c0.001-0.001,0.002-0.002,0.004-0.003c0.003-0.002,0.005-0.005,0.008-0.007c0.001-0.001,0.002-0.002,0.004-0.003
		c0.002-0.001,0.004-0.003,0.006-0.005c0.001-0.001,0.002-0.002,0.004-0.003c0.003-0.003,0.006-0.005,0.008-0.007
		c0.001-0.001,0.002-0.002,0.004-0.003c0.002-0.001,0.004-0.003,0.006-0.005c0.001-0.001,0.002-0.002,0.004-0.003
		c0.003-0.002,0.006-0.005,0.009-0.007c0.001-0.001,0.002-0.001,0.003-0.003c0.002-0.002,0.004-0.003,0.006-0.005
		c0.001-0.001,0.002-0.002,0.003-0.003c0.003-0.002,0.006-0.005,0.009-0.007c0,0,0.002-0.001,0.002-0.002
		c0.002-0.002,0.005-0.004,0.007-0.006c0-0.001,0.002-0.002,0.003-0.003c0.003-0.002,0.006-0.005,0.009-0.008
		c0,0,0.002-0.001,0.003-0.002c0.002-0.002,0.004-0.004,0.007-0.006c0.001-0.001,0.002-0.002,0.003-0.003
		c0.003-0.003,0.006-0.005,0.009-0.008c0,0,0.001-0.001,0.002-0.002c0.002-0.002,0.005-0.004,0.008-0.006
		c0.001-0.001,0.002-0.002,0.003-0.002c0.003-0.003,0.006-0.005,0.009-0.008c0-0.001,0.001-0.001,0.002-0.001
		c0.002-0.002,0.005-0.005,0.008-0.007c0.001,0,0.002-0.001,0.003-0.002c0.003-0.002,0.006-0.005,0.009-0.008c0,0,0,0,0.001-0.001
		c0.003-0.002,0.006-0.005,0.009-0.007c0.001,0,0.002-0.001,0.003-0.002c0.003-0.002,0.006-0.005,0.009-0.008l0.001,0
		c0.003-0.003,0.006-0.005,0.009-0.008c0.001-0.001,0.002-0.002,0.003-0.002c0.003-0.002,0.006-0.005,0.009-0.008l0,0
		c0.003-0.002,0.006-0.005,0.01-0.008c0-0.001,0.002-0.156,0.002-0.156c0.003-0.002,0.006-0.161,0.009-0.161c0,0,0.001,0,0.001,0
		c0.003,0,0.006,0.148,0.009,0.146c0.001-0.001-0.119,0.075-0.118,0.074c0.003-0.002-0.112,0.033-0.112,0.03v0.019
		c0-0.002,0.128,0.004,0.132,0.001c0-0.001,0.062-0.132,0.063-0.133c0.002-0.002,0.066-0.138,0.069-0.138c0,0,0.001,0,0.001,0
		c0.003,0,0.007,0.129,0.01,0.127c0.001-0.001,0.002,0.065,0.003,0.065c0.003-0.002,0.005,0.029,0.008,0.027
		c0,0,0.001,0.016,0.001,0.016c0.003-0.003,0.007,0.003,0.01,0c0.001-0.001,0.001,0.003,0.002,0.002
		c0.003-0.003,0.006-0.003,0.009-0.006l0.001,0c0.003-0.003,0.007-0.005,0.01-0.008c0.001-0.001,0.001,0,0.002-0.001
		c0.003-0.003,0.006-0.005,0.009-0.008l0.001,0c0.003-0.003,0.007-0.005,0.01-0.008c0,0-0.176-0.001-0.176-0.001
		c0.003-0.002-0.167-0.005-0.167-0.008c0,0,0-0.094,0-0.095c0-0.002,0.362-0.102,0.366-0.102c0,0,0.001,0,0.001,0
		c0.003,0-0.367,0.088-0.367,0.085c0,0,0,0.045,0,0.045c0-0.003,0,0.018,0,0.015v0.011c0-0.003,0,0,0-0.002v0.002
		c0-0.003,0.207-0.004,0.211-0.007l0.101,0c0.003-0.003,0.058-0.005,0.061-0.008l0.026,0c0.003-0.003,0.02-0.005,0.023-0.008h0.007
		c0.003-0.003,0.01-0.006,0.014-0.009l0.002,0c0.004-0.003,0.008-0.006,0.012-0.009l0,0c0.003-0.002,0.007-0.005,0.011-0.008
		l0.001-0.001c0.007-0.006,0.014-0.012,0.021-0.018l0.001,0c0.007-0.006,0.015-0.012,0.022-0.018l0,0
		c0.007-0.006,0.015-0.012,0.022-0.018l0.001,0c0.007-0.006,0.015-0.012,0.022-0.018l0,0c0.007-0.006,0.015-0.012,0.022-0.018l0,0
		c0.008-0.006,0.015-0.012,0.022-0.018l0,0c0.007-0.006,0.015-0.012,0.022-0.017l0.001-0.001c0.007-0.005,0.015-0.011,0.022-0.017
		l0,0c0.015-0.012,0.03-0.024,0.045-0.036h0c0.103-0.08,0.207-0.159,0.311-0.237v0c0.637-0.477,1.305-0.915,1.999-1.311
		L13.955,5.937L13.955,5.937z M5.807,13.939c-0.987,1.66-1.754,3.441-2.28,5.294l2.886,0.818c0.085-0.301,0.178-0.599,0.277-0.894
		c0,0,0,0,0,0C6.694,19.148,6.697,19.14,6.7,19.13c0,0,0,0.031,0,0.031c0.003-0.009,0.006,0.005,0.009,0.005H6.568
		c0.003,0-0.132-0.083-0.132-0.091c0,0,0-0.001,0-0.002c0-0.009,0-0.017,0-0.025c0-0.001,0-0.002,0-0.002
		c0-0.003,0.148,0.121,0.149,0.121H6.508c0.002,0-0.072-0.141-0.072-0.146c0-0.001,0-0.002,0-0.003c0-0.003,0.153,0.149,0.154,0.149
		h0.076c0.002,0,0.042-0.09,0.043-0.095c0-0.001-0.138-0.042-0.137-0.043c0.001-0.003-0.136-0.044-0.136-0.047c0,0,0-0.001,0-0.001
		c0-0.005,0.162-0.011,0.163-0.015c0.001-0.001-0.083-0.002-0.082-0.004c0.001-0.003-0.081-0.004-0.081-0.007c0,0,0-0.001,0-0.001
		c0-0.005,0.166-0.01,0.168-0.015c0.001-0.001,0.083-0.003,0.083-0.004c0-0.002,0.042-0.005,0.043-0.007
		c0-0.001,0.021-0.003,0.021-0.004c0.001-0.004,0.013-0.008,0.015-0.012c0-0.002,0.006-0.003,0.007-0.005
		c0-0.001,0.004-0.005,0.005-0.007c0.001-0.003,0.003-0.006,0.004-0.009c0.001-0.002,0.003-0.005,0.003-0.007
		c0.001-0.002,0.001-0.004,0.002-0.006c0.001-0.001,0.002-0.004,0.003-0.006c0.001-0.003,0.002-0.007,0.003-0.01
		c0-0.002,0.001-0.004,0.002-0.006c0.001-0.002,0.001-0.004,0.002-0.007c0-0.001,0.001-0.003,0.002-0.005
		c0.001-0.003,0.002-0.006,0.003-0.01c0.001-0.001,0.001-0.004,0.002-0.006c0-0.002,0.001-0.004,0.002-0.006
		c0-0.001,0.001-0.004,0.002-0.006c0.001-0.003,0.002-0.006,0.004-0.01c0-0.002,0.001-0.005,0.002-0.006
		c0.001-0.002,0.001-0.003,0.002-0.005c0.001-0.002,0.002-0.004,0.002-0.006c0.001-0.003,0.002-0.006,0.003-0.01
		c0.001-0.001,0.001-0.003,0.002-0.005c0.001-0.002,0.002-0.004,0.002-0.006S6.83,18.761,6.83,18.76
		c0.001-0.003,0.002-0.007,0.004-0.01c0-0.002,0.001-0.004,0.002-0.006c0.001-0.002,0.001-0.004,0.002-0.006
		c0-0.001,0.001-0.003,0.002-0.005c0.001-0.003,0.002-0.007,0.004-0.01c0-0.001,0.001-0.004,0.002-0.005
		c0-0.002,0.001-0.005,0.002-0.007c0-0.002,0.001-0.003,0.001-0.005c0.001-0.004,0.003-0.007,0.004-0.011
		c0-0.001,0.001-0.004,0.002-0.005c0.001-0.002,0.002-0.004,0.002-0.007c0.001-0.001,0.001-0.003,0.002-0.005
		c0.001-0.003,0.003-0.007,0.004-0.011c0-0.001,0.001-0.003,0.002-0.005c0.001-0.002,0.002-0.005,0.002-0.007
		c0.001-0.002,0.001-0.003,0.002-0.005c0.001-0.003,0.002-0.007,0.004-0.011c0-0.001,0.001-0.003,0.002-0.004
		c0.001-0.003,0.002-0.005,0.003-0.008c0-0.002,0.001-0.002,0.001-0.004c0.001-0.003,0.002-0.007,0.004-0.011
		c0-0.002,0.001-0.003,0.002-0.005c0.001-0.002,0.002-0.005,0.003-0.008c0-0.001,0-0.002,0.001-0.003
		c0.001-0.004,0.002-0.008,0.004-0.011c0.001-0.001,0.001-0.003,0.002-0.004c0.001-0.003,0.002-0.006,0.003-0.009
		c0-0.001-0.234-0.002-0.233-0.003c0.001-0.004-0.23-0.008-0.23-0.011c0-0.001,0-0.002,0-0.004c0-0.003,0-0.006,0-0.01
		c0,0,0-0.002,0-0.002c0-0.004,0.241-0.008,0.242-0.011c0-0.001-0.123-0.003-0.122-0.004c0.001-0.003-0.12-0.007-0.12-0.01
		c0,0,0-0.002,0-0.003c0-0.004,0.246-0.007,0.247-0.011c0.001-0.001,0.123-0.003,0.123-0.004c0.001-0.003,0.063-0.006,0.064-0.009
		c0,0,0.031-0.002,0.032-0.003c0.001-0.004,0.018-0.008,0.019-0.011c0-0.001,0.256-0.003,0.256-0.004
		c0.001-0.003,0.258-0.006,0.258-0.009c0,0,0-0.002,0-0.002c0-0.004-0.244-0.008-0.242-0.012c0-0.001,0.119-0.002,0.12-0.003
		c0.001-0.003,0.122-0.007,0.122-0.01c0-0.001,0-0.001,0-0.002c0-0.004,0-0.008,0-0.012c0-0.001,0-0.002,0-0.003
		c0-0.004,0-0.007,0-0.011c0,0,0-0.001,0-0.001c0-0.004,0-0.008,0-0.012c0-0.001,0-0.001,0-0.003c0-0.003-0.23-0.22-0.229-0.22
		H7.091c0.001,0-0.056,0.096-0.054,0.092c0-0.001,0.198,0.05,0.198,0.049c0.001-0.004,0.201,0.044,0.201,0.041c0,0,0-0.001,0-0.001
		c0-0.004,0-0.008,0-0.012c0-0.001,0-0.002,0-0.003c0-0.004-0.219-0.165-0.218-0.165h0.106c0.002,0,0.111,0.145,0.111,0.141
		c0-0.001,0-0.002,0-0.003c0-0.004-0.001-0.008,0-0.012l0,0c0.001-0.004,0-0.008,0-0.013c0-0.001,0-0.001,0-0.002
		c0-0.008,0-0.017,0-0.025c0-0.001,0-0.001,0-0.002c0-0.008,0-0.017,0-0.025c0-0.001,0-0.001,0-0.002c0-0.008,0-0.017,0-0.025
		c0-0.001,0-0.001,0-0.002c0-0.008,0-0.017,0-0.025c0-0.001,0-0.001,0-0.002c0-0.008,0-0.017,0-0.025c0-0.001,0-0.001,0-0.002
		c0-0.008,0-0.017,0-0.025v-0.001c0-0.009,0-0.017,0-0.026v-0.001c0-0.008,0-0.017,0-0.026c0-0.001,0,0,0-0.001
		c0-0.009,0-0.017,0-0.025c0,0,0-0.001,0-0.002c0-0.008-0.156,0.135-0.152,0.135H7.203c0.004,0-0.033,0-0.03,0h0.126
		c0.003,0,0.137-0.207,0.137-0.215V17.95c0-0.008,0-0.017,0-0.025c0-0.001,0-0.001,0-0.002c0-0.008,0-0.017,0-0.025v-0.001
		c0-0.008-0.127,0.271-0.124,0.271H7.246c0.003,0-0.026,0-0.023,0h0.102c0.003,0,0.112-0.342,0.112-0.351v-0.001
		c0-0.008-0.11,0.353-0.106,0.353H7.271c0.003,0-0.022,0-0.018,0H7.238c0.004,0,0,0,0.004,0H7.239c0.004,0,0.006-0.234,0.01-0.243
		l0,0c0.332-0.771,0.712-1.626,1.138-2.342L5.807,13.939L5.807,13.939z M2.686,24.932c-0.002,0.134-0.003,0.268-0.003,0.402
		c0,1.798,0.215,3.588,0.639,5.32l2.914-0.714c-0.196-0.803-0.343-1.625-0.435-2.464l0,0c-0.002-0.016-0.003-0.03-0.005-0.046l0,0
		c-0.001-0.016-0.003-0.03-0.005-0.046l0,0c0-0.005-0.001-0.01-0.001-0.015V27.37c-0.001-0.01-0.002-0.02-0.003-0.029v-0.001
		c-0.001-0.005-0.001-0.01-0.002-0.015l0,0c-0.001-0.01-0.002-0.021-0.003-0.03v-0.001c0-0.005-0.001-0.01-0.001-0.014v-0.001
		c-0.001-0.01-0.002-0.021-0.003-0.03l0,0c0-0.005-0.001-0.01-0.001-0.015v-0.001c-0.001-0.01-0.002-0.02-0.003-0.029v-0.001
		c0-0.005-0.001-0.01-0.001-0.015v-0.001c-0.001-0.01-0.002-0.02-0.003-0.029v-0.001c0-0.005-0.001-0.01-0.001-0.015v-0.001
		c0-0.005-0.001-0.01-0.001-0.015l0,0c0-0.005-0.001-0.01-0.001-0.015v0.034c0-0.005-0.001,0.021-0.001,0.021H5.6
		c0,0-0.164-0.045-0.164-0.051v-0.035c0-0.005,0-0.01,0-0.015v-0.001c0-0.004,0-0.01,0-0.014v-0.002c0-0.005,0.16,0.117,0.159,0.117
		H5.517c-0.001,0-0.081-0.151-0.081-0.161c0-0.001,0-0.001,0-0.002c0-0.005,0.158,0.163,0.157,0.163H5.516
		c-0.001,0-0.08-0.197-0.08-0.207v-0.002c0-0.004,0-0.009,0-0.014c0-0.001,0-0.001,0-0.002c0-0.01,0-0.019,0-0.028
		c0-0.001,0-0.001,0-0.002c0-0.005,0-0.009,0-0.014c0-0.001,0-0.001,0-0.002c0-0.009,0-0.019,0-0.028c0-0.001,0-0.001,0-0.002
		c0-0.004,0-0.009,0-0.014c0,0,0-0.001,0-0.002c0-0.01,0-0.019,0-0.028c0-0.001,0-0.001,0-0.002c0-0.005,0-0.009,0-0.014
		c0-0.001,0-0.001,0-0.002c0-0.005,0-0.01,0-0.015l0,0c0-0.004,0-0.009,0-0.014v-0.002c0-0.004,0-0.009,0-0.014
		c0-0.001,0-0.001,0-0.002c0-0.005,0-0.01,0-0.014v-0.001c0-0.005,0-0.01,0-0.014v-0.002c0-0.005,0-0.009,0-0.014
		c0-0.001,0-0.001,0-0.002c0-0.005,0-0.01,0-0.014c0-0.001,0-0.001,0-0.002c0-0.005,0-0.009,0-0.014v-0.001c0-0.005,0-0.01,0-0.014
		c0-0.001,0-0.002,0-0.002c0-0.005,0-0.01,0-0.014c0-0.001,0-0.001,0-0.002c0-0.005,0-0.01,0-0.014v-0.001c0-0.005,0-0.01,0-0.015
		v-0.001c0-0.005,0-0.01,0-0.015v-0.001c0-0.005,0-0.01,0-0.015l0,0c0-0.005,0-0.01,0-0.014c0-0.002,0-0.002,0-0.003
		c0-0.005,0-0.009,0-0.014c0-0.001,0-0.001,0-0.001c0-0.01,0-0.02,0-0.029c0,0,0-0.001,0-0.002c0-0.004,0-0.009,0-0.014
		c0-0.001,0-0.001,0-0.002c0-0.01,0-0.019,0-0.028c0-0.001,0-0.001,0-0.002c0-0.005,0-0.009,0-0.014c0-0.001,0-0.002,0-0.002
		c0-0.005,0-0.01,0-0.015l0,0c0-0.005,0-0.01,0-0.014c0-0.001,0-0.002,0-0.002c0-0.005,0-0.01,0-0.014c0-0.002,0-0.002,0-0.003
		c0-0.005,0-0.009,0-0.014v-0.001c0-0.004,0-0.009,0-0.014c0,0,0-0.001,0-0.002c0-0.004,0-0.009,0-0.014c0-0.001,0-0.001,0-0.002
		c0-0.005,0-0.009,0-0.014c0-0.001,0-0.001,0-0.002c0-0.004,0-0.008,0-0.013c0-0.001,0-0.001,0-0.002c0-0.005,0-0.009,0-0.013
		c0-0.002,0-0.002,0-0.004c0-0.004,0-0.009,0-0.013c0-0.001,0-0.002,0-0.002c0-0.005,0-0.009,0-0.014v-0.001c0-0.005,0-0.01,0-0.014
		c0-0.002,0-0.001,0-0.003c0-0.004,0-0.009,0-0.014c0,0,0-0.001,0-0.002c0-0.004,0-0.009,0-0.013V26.25c0-0.004,0-0.009,0-0.014
		c0-0.001,0-0.001,0-0.002c0-0.005,0-0.01,0-0.014c0-0.001,0-0.001,0-0.002c0-0.004,0-0.009,0-0.014v-0.001c0-0.005,0-0.009,0-0.014
		c0-0.001,0-0.002,0-0.002c0-0.005,0-0.01,0-0.015c0,0,0-0.001,0-0.002c0-0.004,0-0.009,0-0.014l0,0c0-0.005,0-0.01,0-0.014
		c0-0.002,0-0.002,0-0.003c0-0.005,0-0.009,0-0.014c0-0.001,0-0.002,0-0.002c0-0.005,0-0.01,0-0.015l0,0c0-0.004,0-0.009,0-0.014
		c0-0.001,0-0.002,0-0.002c0-0.005,0-0.01,0-0.014c0-0.002,0-0.002,0-0.003c0-0.005,0-0.009,0-0.014l0,0c0-0.005,0-0.01,0-0.015
		c0,0,0-0.001,0-0.002c0-0.004,0-0.009,0-0.014c0-0.001,0-0.001,0-0.002c0-0.005,0-0.01,0-0.015v-0.001c0-0.004,0-0.009,0-0.014
		v-0.001c0-0.005,0-0.01,0-0.014c0-0.002,0-0.002,0-0.003c0-0.005,0-0.01,0-0.014v-0.001c0-0.005,0-0.009,0-0.014
		c0-0.001,0-0.001,0-0.002c0-0.005,0-0.009,0-0.014c0-0.001,0-0.001,0-0.002c0-0.005,0-0.01,0-0.015v-0.001c0-0.005,0-0.009,0-0.014
		v-0.001c0-0.005,0-0.01,0-0.014c0-0.002,0-0.002,0-0.003c0-0.005,0-0.009,0-0.014c0-0.001,0-0.002,0-0.002c0-0.005,0-0.009,0-0.013
		c0-0.001,0-0.002,0-0.002c0-0.005,0-0.01,0-0.014c0-0.002,0-0.002,0-0.003c0-0.005,0-0.009,0-0.013c0-0.001,0-0.003,0-0.003
		c0-0.005,0-0.009,0-0.013v-0.002c0-0.004,0-0.009,0-0.014c0-0.001,0-0.001,0-0.003c0-0.004,0-0.009,0-0.013
		c0-0.001,0-0.002,0-0.002c0-0.005,0-0.01,0-0.014v-0.001c0-0.005,0-0.01,0-0.014c0-0.002,0-0.002,0-0.003c0-0.005,0-0.009,0-0.014
		c0-0.001,0-0.001,0-0.003c0-0.004,0-0.009,0-0.013v-0.001c0-0.005,0-0.01,0-0.014c0-0.001,0-0.001,0-0.003c0-0.004,0-0.009,0-0.014
		c0-0.001,0-0.001,0-0.002c0-0.005,0-0.01,0-0.014v-0.001c0-0.005,0-0.009,0-0.014c0-0.001,0-0.002,0-0.003c0-0.004,0-0.009,0-0.013
		c0-0.002,0-0.002,0-0.003c0-0.005,0-0.01,0-0.014V25.63c0-0.005,0-0.009,0-0.014c0-0.001,0-0.001,0-0.002c0-0.005,0-0.01,0-0.014
		c0-0.002,0-0.001,0-0.003c0-0.004,0-0.009,0-0.014c0,0,0-0.001,0-0.002c0-0.004,0-0.008,0-0.013c0-0.001,0-0.001,0-0.002
		c0-0.005,0-0.009,0-0.014c0-0.001,0-0.001,0-0.003c0-0.004,0-0.009,0-0.014v-0.001c0-0.005,0-0.009,0-0.014
		c0-0.001,0-0.001,0-0.002c0-0.004,0-0.009,0-0.014c0-0.001,0-0.001,0-0.003c0-0.004,0-0.009,0-0.014c0,0,0,0,0-0.001
		c0-0.005,0-0.01,0-0.014v-0.001c0-0.005,0-0.01,0-0.014c0-0.002,0-0.002,0-0.004c0-0.004,0-0.009,0-0.013c0-0.001,0-0.002,0-0.002
		c0-0.005,0-0.01,0-0.014v-0.001c0-0.005,0-0.01,0-0.015c0-0.001,0-0.001,0-0.002c0-0.005,0-0.009,0-0.014c0-0.001,0-0.002,0-0.003
		c0-0.004,0-0.009,0-0.014l0,0c0-0.005,0-0.01,0-0.014c0-0.002,0-0.002,0-0.003c0-0.005,0-0.009,0-0.014c0-0.001,0-0.002,0-0.002
		c0-0.005,0-0.01,0-0.015l0,0l0,0l0,0c0-0.005,0-0.01,0-0.014c0-0.002,0-0.003,0-0.004c0-0.004,0-0.008,0-0.012c0,0,0-0.002,0-0.003
		c0-0.004,0-0.009,0-0.014c0-0.001,0-0.002,0-0.004c0-0.003,0-0.007,0-0.01c0-0.001,0-0.003,0-0.005c0-0.004,0-0.008,0-0.013
		c0-0.002,0-0.002,0-0.004c0-0.003,0-0.007,0-0.01c0-0.002,0-0.004,0-0.006c0-0.003,0-0.006,0-0.009s0-0.006,0-0.009
		s0-0.005,0-0.007c0-0.003,0-0.006,0-0.008s0-0.004,0-0.006c0-0.006,0-0.012,0-0.018c0,0,0,0,0-0.001c0-0.003,0-0.006,0-0.009
		c0-0.001,0-0.002,0-0.003c0-0.062,0.125-0.124,0.126-0.185L2.686,24.932L2.686,24.932z M8.04,34.589l-2.632,1.439
		c0.923,1.688,2.064,3.254,3.391,4.654l2.177-2.063C9.833,37.413,8.844,36.059,8.04,34.589L8.04,34.589z M14.842,41.768l-1.58,2.551
		c1.642,1.017,3.409,1.815,5.251,2.375l0.871-2.871c-0.379-0.115-0.754-0.241-1.124-0.379h0.1c-0.009-0.004,0.074-0.007,0.074-0.01
		v-0.129c0-0.004-0.22-0.139-0.229-0.139h-0.001c-0.008,0-0.018,0-0.026,0c-0.001,0-0.001,0-0.002,0c-0.004,0-0.008,0.001-0.013,0
		l0,0c-0.004-0.002-0.008,0-0.013,0c-0.001,0-0.002,0-0.003,0c-0.003,0,0.287,0.115,0.287,0.113v-0.055
		c0-0.002-0.307-0.059-0.311-0.059c-0.001,0-0.002,0-0.004,0c-0.003,0-0.007,0-0.01,0c0,0-0.002,0-0.002,0
		c-0.004,0-0.007,0.107-0.011,0.105c-0.001,0-0.002-0.051-0.004-0.052c-0.003-0.001-0.006-0.054-0.01-0.054
		c-0.001,0-0.002,0-0.003,0c-0.003,0-0.006,0.102-0.01,0.101c-0.001,0-0.003,0.052-0.005,0.05c-0.003,0-0.006,0.024-0.009,0.023
		c-0.001-0.001-0.003,0.012-0.004,0.012c-0.003-0.001-0.006,0.003-0.01,0.002c-0.001,0-0.003,0.003-0.004,0.002
		c-0.003-0.001-0.005-0.001-0.008-0.002s-0.005-0.001-0.008-0.002c-0.002-0.001-0.004-0.002-0.007-0.002
		c-0.002,0-0.003-0.001-0.005-0.002c-0.002-0.001-0.004-0.002-0.007-0.002c-0.003-0.002-0.006-0.003-0.009-0.004
		c-0.002-0.001-0.004-0.002-0.006-0.002c-0.002-0.001-0.004-0.002-0.006-0.003s-0.004-0.001-0.006-0.002
		c-0.003-0.001-0.007-0.003-0.01-0.004c-0.001-0.001-0.003-0.002-0.005-0.002c-0.002-0.001-0.004-0.002-0.007-0.003
		c-0.001,0-0.003-0.078-0.004-0.078c-0.004-0.002-0.008-0.082-0.012-0.082c-0.001,0-0.002,0-0.004,0c-0.002,0-0.005,0-0.007,0
		c-0.001,0-0.002,0-0.002,0c-0.005,0-0.01,0-0.015,0c0,0-0.001,0-0.002,0c-0.002,0-0.005,0-0.008,0c-0.001,0-0.002,0-0.003,0
		c-0.004,0-0.009,0-0.014,0c-0.001,0-0.002,0-0.003,0c-0.002,0-0.006,0-0.008,0c0,0-0.001,0-0.002,0c-0.005,0-0.011,0-0.016,0
		c0,0-0.001,0-0.001,0c-0.003,0-0.417,0.059-0.417,0.057v-0.025c0-0.002,0.396-0.031,0.392-0.031c0,0-0.001,0-0.001,0
		c-0.634,0-1.008-0.485-1.606-0.802l0,0c-0.009-0.005,0.216,0.019,0.216,0.014v-0.1c0-0.005-0.5-0.112-0.509-0.112
		c0,0-0.001,0-0.001,0c-0.003,0-0.005,0-0.008,0c0,0-0.001,0-0.001,0c-0.005,0-0.01,0-0.015,0c0,0-0.001,0-0.002,0
		c-0.008,0-0.016,0.098-0.023,0.094c-0.001-0.002-0.001-0.045-0.002-0.046c-0.002-0.001-0.005-0.048-0.007-0.048
		c0,0-0.001,0-0.002,0c-0.004,0-0.009,0.091-0.013,0.089c-0.001-0.001-0.002-0.042-0.003-0.044c-0.002,0-0.005-0.045-0.007-0.045
		c0,0-0.001,0-0.002,0c-0.004,0-0.008,0.084-0.012,0.082c-0.001,0-0.003,0.043-0.004,0.043c-0.002-0.002-0.004,0.02-0.006,0.019
		s-0.004-0.067-0.005-0.067c-0.003-0.002-0.006-0.076-0.009-0.076c-0.002,0-0.003,0-0.005,0c-0.002,0-0.004,0.076-0.006,0.074
		c-0.002-0.002-0.005,0.036-0.008,0.035c-0.002-0.001-0.004,0.018-0.006,0.016c-0.002,0-0.004,0.008-0.006,0.007
		c-0.001-0.001-0.003,0.003-0.005,0.002c-0.003-0.002-0.006-0.001-0.009-0.003c-0.001,0-0.003,0-0.005-0.001
		c-0.002-0.001-0.004-0.002-0.007-0.004c-0.001-0.001-0.003,0-0.005-0.001c-0.003-0.002-0.006-0.004-0.01-0.006
		c-0.001-0.001-0.002-0.001-0.003-0.002c-0.002-0.001-0.005-0.003-0.008-0.004c-0.001-0.001-0.002-0.002-0.003-0.002
		c-0.003-0.002-0.007-0.004-0.011-0.006c-0.001-0.001-0.002-0.001-0.003-0.002c-0.003-0.002-0.005-0.003-0.008-0.005
		c-0.001,0-0.002-0.046-0.003-0.048c-0.004-0.002-0.007-0.051-0.011-0.051c0,0-0.001,0-0.001,0c-0.003,0-0.007,0-0.01,0
		c-0.001,0-0.001,0-0.002,0c-0.004,0-0.228,0.037-0.228,0.035v-0.015c0-0.002,0.208-0.021,0.204-0.021c0,0-0.001,0-0.001,0
		c-0.004,0-0.203,0.029-0.203,0.027v0.018c0-0.003,0,0.004,0,0.002v0.004c0-0.002,0.08-0.002,0.076-0.005l0,0
		c-0.004-0.002,0.036-0.004,0.032-0.006l0.022,0.001C15.314,42.067,15.087,41.92,14.842,41.768L14.842,41.768z M29.269,44.178
		c-1.119,0.253-2.275,0.173-3.459,0.222l0,0c-0.021,0.001-0.041-0.233-0.062-0.233l0,0c-0.005,0-0.01,0-0.015,0h-0.001
		c-0.005,0-0.01,0-0.015,0h-0.001c-0.021,0-0.041,0-0.062,0l0,0c-0.005,0-0.01,0-0.016,0l0,0c-0.005,0-0.01,0-0.016,0l0,0
		c-0.016,0-0.03,0-0.046,0h-0.001c-0.005,0-0.01,0-0.015,0h-0.001c-0.005,0-0.01,0-0.015,0h-0.001c-0.005,0-0.01,0-0.015,0l0,0
		c-0.011,0-0.021,0-0.03,0H25.5c-0.005,0-0.01,0-0.015,0h-0.001c-0.005,0-0.01,0-0.015,0h-0.002c-0.004,0-0.009,0-0.014,0h-0.002
		c-0.004,0-0.009,0-0.014,0h-0.001c-0.005,0-0.01,0-0.015,0l0,0c-0.005,0-0.01,0-0.015,0h-0.001c-0.005,0-0.009,0-0.014,0H25.39
		c-0.005,0-0.009,0-0.014,0c0,0-0.001,0-0.002,0c-0.004,0-0.009,0-0.014,0h-0.001c-0.01,0-0.02,0-0.029,0h-0.001
		c-0.005,0-0.009,0-0.014,0c0,0-0.001,0-0.002,0c-0.004,0-0.009,0-0.014,0c0,0-0.001,0-0.002,0c-0.004,0-0.009,0-0.014,0h-0.001
		c-0.005,0-0.01,0-0.015,0l0,0c-0.005,0-0.01,0-0.015,0H25.25c-0.005,0-0.01,0-0.014,0c-0.001,0-0.001,0-0.002,0
		c-0.004,0-0.009,0-0.014,0c-0.001,0-0.001,0-0.002,0c-0.004,0-0.009,0-0.014,0h-0.001c-0.005,0-0.01,0-0.014,0
		c-0.001,0-0.001,0-0.002,0c-0.009,0-0.019,0-0.029,0c0,0-0.001,0-0.001,0c-0.005,0-0.009,0-0.014,0c0,0-0.001,0-0.002,0
		c-0.004,0-0.009,0-0.014,0c-0.001,0-0.001,0-0.002,0c-0.004,0-0.009,0-0.014,0c0,0-0.001,0-0.002,0c-0.004,0-0.009,0-0.014,0
		h-0.001c-0.004,0-0.009,0-0.014,0h-0.001c-0.004,0-0.009,0-0.014,0c-0.001,0-0.001,0-0.002,0c-0.004,0-0.009,0-0.014,0
		c-0.001,0,0,0-0.002,0c-0.005,0-0.009,0-0.014,0c-0.001,0-0.001,0-0.002,0c-0.004,0-0.009,0-0.014,0c0,0-0.001,0-0.001,0
		c-0.005,0-0.01,0-0.015,0l0,0l0,0c-0.004,0-0.009,0-0.014,0c-0.001,0-0.002,0-0.003,0c-0.004,0-0.008,0-0.012,0
		c0,0-0.002,0-0.002,0c-0.005,0-0.009,0-0.014,0c-0.001,0-0.001,0-0.003,0c-0.004,0-0.008,0-0.012,0c-0.001,0-0.002,0-0.003,0
		c-0.005,0-0.009,0-0.014,0c0,0-0.001,0-0.002,0c-0.004,0-0.008,0-0.012,0c-0.001,0-0.002,0-0.003,0c-0.009,0-0.019,0-0.028,0
		c-0.001,0-0.002,0-0.003,0c-0.004,0-0.008,0-0.013,0c0,0,0,0-0.001,0c-0.004,0-0.009,0-0.014,0c0,0-0.002,0-0.002,0
		c-0.004,0-0.008,0-0.013,0c0,0-0.001,0-0.002,0c-0.005,0-0.01,0-0.015,0h-0.001c-0.004,0-0.009,0-0.014,0c-0.001,0-0.001,0-0.002,0
		c-0.009,0-0.019,0-0.029,0c-0.001,0-0.001,0-0.002,0c-0.004,0-0.009,0-0.014,0h-0.001c-0.005,0-0.01,0-0.015,0c0,0-0.001,0-0.001,0
		c-0.005,0-0.009,0-0.013,0c-0.001,0-0.001,0-0.002,0c-0.005,0-0.01,0-0.015,0h0c-0.005,0-0.009,0-0.014,0c-0.001,0-0.001,0-0.002,0
		c-0.01,0-0.02,0-0.029,0c-0.001,0,0,0-0.002,0c-0.005,0-0.009,0-0.014,0h-0.001c-0.005,0-0.01,0-0.015,0c0,0-0.001,0-0.002,0
		c-0.004,0-0.008,0-0.012,0c-0.001,0-0.002,0-0.002,0c-0.005,0-0.01,0-0.014,0c-0.001,0-0.001,0-0.002,0c-0.004,0-0.008,0-0.012,0
		c-0.001,0-0.002,0-0.003,0c-0.009,0-0.019,0-0.028,0c-0.001,0-0.002,0-0.004,0c-0.004,0-0.007,0-0.011,0c0,0-0.002,0-0.003,0
		c-0.004,0-0.009,0-0.013,0c-0.002,0-0.003,0-0.005,0c-0.003,0-0.006,0-0.009,0c-0.002,0-0.003,0-0.005,0c-0.004,0-0.008,0-0.012,0
		c-0.002,0-0.003,0-0.005,0c-0.003,0-0.005,0-0.008,0c-0.002,0-0.004,0-0.006,0s-0.005,0-0.007,0c-0.004,0-0.008,0-0.011,0
		c-0.002,0-0.004,0-0.006,0c-0.002,0-0.005,0-0.008,0c-0.002,0-0.003,0-0.005,0c-0.009,0-0.02,0-0.028,0c-0.001,0-0.002,0-0.002,0
		c-0.032,0-0.065,0.236-0.097,0.234l-0.106,3.117c0.267,0.01,0.535,0.074,0.804,0.074c1.662,0,3.32-0.154,4.928-0.518L29.269,44.178
		L29.269,44.178z M38.031,39.595c-1.226,1.121-2.597,2.086-4.082,2.863l1.392,2.658c1.705-0.893,3.291-2.005,4.715-3.308
		L38.031,39.595L38.031,39.595z M43.624,31.282c-0.13,0.4-0.188,0.796-0.188,1.184c0,0.001,0,0.001,0,0.002
		c0,0.008-0.246,0.018-0.25,0.026l0,0c-0.004,0.009-0.126-0.172-0.13-0.163l0,0c-0.004,0.009-0.067-0.164-0.07-0.164h-0.27
		c-0.004,0-0.28,0.399-0.28,0.408c0,0,0,0.001,0,0.002c0,0.008,0,0.017,0,0.025c0,0,0,0.001,0,0.002
		c0,0.008,0.227-0.438,0.223-0.438c0,0,0.117,0,0.116,0c-0.003,0,0.052,0,0.049,0c-0.001,0,0.028,0,0.028,0
		c-0.004,1,0.008,0.262,0.005,0.271c-0.001,0-0.206,0.124-0.206,0.125c-0.004,0.008-0.215,0.139-0.215,0.146
		c0,0.002,0,0.002,0,0.003c0,0.009,0.205,0.017,0.201,0.024c0,0.001-0.096,0.002-0.097,0.003c-0.003,0.009-0.104,0.017-0.104,0.024
		c0,0.001,0,0.002,0,0.003c0,0.003,0.198,0.399,0.196,0.399h0.101c-0.002,0,0.046-0.186,0.044-0.18
		c-0.001,0.001,0.023-0.096,0.022-0.095c-0.003,0.008,0.006-0.033,0.003-0.025c-0.001,0.001-0.182-0.021-0.183-0.021
		c-0.001,0.003-0.184-0.02-0.184-0.018c0,0.001,0,0.002,0,0.002c0,0.005,0,0.01,0,0.015c0,0.001,0,0.002,0,0.003
		c0,0.009,0,0.017,0,0.024c0,0.001,0,0.002,0,0.003c0,0.003,0.176,0.291,0.174,0.291h0.088c-0.002,0,0.041-0.131,0.039-0.127
		c-0.001,0.002,0.021-0.067,0.02-0.066c-0.001,0.003,0.01-0.03,0.009-0.028c-0.001,0.003-0.162-0.013-0.163-0.011
		c-0.001,0.003-0.166-0.012-0.166-0.009c0,0.002,0,0.004,0,0.005c0,0.002,0.163,0.005,0.162,0.007s0.082,0.005,0.08,0.007
		c0,0.003,0.04,0.005,0.038,0.009c0,0.001,0.02,0.003,0.019,0.005s0.008,0.005,0.007,0.007c-0.001,0.003,0.004,0.006,0.002,0.009
		c0,0.002,0,0.004,0,0.006c-0.001,0.002,0,0.004-0.001,0.006s-0.002,0.004-0.002,0.006c-0.002,0.003-0.002,0.007-0.004,0.01
		c0,0.002-0.001,0.004-0.002,0.005c-0.001,0.003-0.002,0.005-0.003,0.007s-0.002,0.004-0.002,0.006
		c-0.002,0.003-0.003,0.006-0.005,0.01c0,0.001-0.001,0.003-0.002,0.005s-0.002,0.004-0.003,0.007
		c-0.001,0.001-0.001,0.003-0.002,0.005c-0.002,0.003-0.003,0.007-0.005,0.01c0,0.002-0.001,0.003-0.002,0.005
		s-0.002,0.005-0.003,0.007s-0.002,0.004-0.002,0.005c-0.002,0.004-0.003,0.007-0.005,0.011c-0.001,0.002-0.001,0.003-0.002,0.005
		s-0.002,0.004-0.003,0.007c-0.001,0.001-0.002,0.003-0.002,0.005c-0.002,0.003-0.003,0.007-0.005,0.01
		c-0.001,0.002-0.001,0.003-0.002,0.005s-0.002,0.005-0.003,0.007s-0.002,0.004-0.002,0.005c-0.002,0.004-0.004,0.007-0.005,0.011
		c-0.001,0.002-0.119,0.002-0.12,0.004c-0.001,0.003-0.122,0.006-0.122,0.008s0,0.003,0,0.004c0,0.004,0.113,0.008,0.113,0.012
		c-0.002,0.001,0.058,0.002,0.057,0.004s0.027,0.005,0.025,0.008c-0.001,0.002-0.096,0.002-0.097,0.004
		c-0.001,0.004-0.099,0.008-0.099,0.011c0,0.001,0,0.002,0,0.003c0,0.004,0.105,0.007,0.104,0.01
		c-0.001,0.001-0.05,0.002-0.051,0.003c-0.002,0.004-0.054,0.008-0.054,0.012c0,0.001,0,0.002,0,0.003
		c0,0.003,0.1,0.006,0.099,0.009c-0.001,0.001,0.05,0.003,0.05,0.004c-0.002,0.004,0.021,0.007,0.021,0.011
		c-0.001,0.001-0.083,0.002-0.084,0.003c-0.001,0.003-0.085,0.007-0.085,0.01c0,0.001,0,0.002,0,0.003c0,0.004,0,0.008,0,0.012
		v0.002c0,0.004,0.088,0.007,0.086,0.01c0,0.001-0.04,0.002-0.041,0.004c-0.001,0.003-0.045,0.007-0.045,0.011
		c0,0.001,0,0.002,0,0.003c0,0.003,0,0.007,0,0.01c0,0.001,0,0.001,0,0.002c0,0.004,0,0.009,0,0.013c0,0,0,0.001,0,0.002
		c0,0.003,0,0.007,0,0.011c0,0,0,0.001,0,0.002c0,0.004,0,0.008,0,0.012c0,0.001,0,0.001,0,0.002c0,0.004,0,0.007,0,0.011
		c0,0.001,0,0.001,0,0.002c0,0.004,0,0.008,0,0.012c0,0.001,0,0.002,0,0.002c0,0.004,0,0.008,0,0.011c0,0.001,0,0.002,0,0.002
		c0,0.004,0.06-0.225,0.058-0.225h-0.026c-0.002,0-0.031,0.246-0.031,0.25c0,0,0,0.001,0,0.002c0,0.004,0,0.008,0,0.012
		c0,0.001,0,0.001,0,0.002c0,0.003,0,0.007,0,0.011c0,0.001,0,0.001,0,0.002c0,0.004,0.047-0.278,0.045-0.278h0.025
		c-0.002,0,0.009,0,0.007,0h0.006c-0.002,0,0,0.16-0.002,0.165l0.001,0.077c-0.002,0.004-0.003,0.046-0.005,0.05v0.021
		c-0.002,0.004-0.004,0.018-0.006,0.021l0,0c-0.002,0.005-0.004,0.014-0.006,0.019l0,0c-0.326,0.694-0.691,1.368-1.095,2.015l0,0
		c-0.005,0.01-0.01,0.019-0.015,0.026l-0.001-0.208c-0.005,0.008-0.01-0.186-0.015-0.186h0.036c-0.004,0,0.023,0.436,0.023,0.443
		c0,0.001,0,0.001,0,0.002c0,0.008-0.048,0.016-0.052,0.022c-0.001,0.001-0.021,0.001-0.021,0.002
		c-0.004,0.008-0.019,0.016-0.023,0.022c-0.001,0.002-0.006,0.001-0.007,0.002c-0.002,0.004-0.007,0.008-0.01,0.012l0,0
		c-0.002,0.004-0.006,0.008-0.008,0.011c-0.001,0.001-0.001,0.002-0.002,0.003c-0.002,0.004-0.005,0.007-0.008,0.011
		c0,0.001,0,0.001-0.001,0.001c-0.002,0.004-0.004,0.007-0.006,0.01c0,0.001,0.072,0.002,0.07,0.003
		c-0.002,0.004,0.066,0.007,0.066,0.011c0,0.001,0,0.001,0,0.002c0,0.003-0.077,0.006-0.079,0.009c0,0.001-0.038,0.003-0.038,0.004
		c-0.002,0.003-0.022,0.006-0.024,0.009c-0.001,0.001-0.012,0.003-0.012,0.004c-0.002,0.002-0.008,0.005-0.01,0.008
		c0,0.001-0.005,0.003-0.005,0.004c-0.002,0.003-0.005,0.006-0.007,0.01c-0.001,0-0.002,0.001-0.002,0.002
		c-0.002,0.003-0.005,0.006-0.007,0.009c-0.001,0.001-0.002,0.003-0.002,0.004c-0.001,0.001-0.001,0.001-0.002,0.002l2.521,1.625
		c1.047-1.623,1.997-3.375,2.589-5.208L43.624,31.282L43.624,31.282z M46.856,20.798l-2.938,0.607
		c0.075,0.365,0.141,0.734,0.194,1.107l0.001,0c0,0.005,0.001,0.01,0.002,0.015v0c0,0.005,0.001,0.01,0.002,0.015l0,0
		c0.001,0.005,0.001,0.01,0.002,0.015l0,0c0.001,0.005,0.002,0.01,0.002,0.015v0c0.001,0.005,0.002,0.01,0.003,0.015v0
		c0,0.005,0.001,0.01,0.002,0.014v0.001c0.001,0.005,0.001,0.01,0.002,0.014v0.001c0.001,0.004,0.001,0.009,0.002,0.014v0.001
		c0.001,0.005,0.002,0.01,0.002,0.014V22.4c0.001,0.004,0.152-0.234,0.152-0.234h0.151c0,1,0,0.506,0,0.511v0.001
		c0,0.004,0,0.009,0,0.014v0.001c0,0.005-0.147,0.473-0.146,0.473h-0.074c0,0-0.036,0-0.035,0h0.127
		c0.001,0,0.129-0.434,0.129-0.429c0,0,0,0.001,0,0.001c0,0.004,0,0.009,0,0.013c0,0.001,0,0.001,0,0.002c0,0.004,0,0.009,0,0.014
		c0,0,0,0.001,0,0.001c0,0.004,0,0.009,0,0.013c0,0.001,0,0.001,0,0.002c0,0.004-0.142,0.382-0.141,0.382h0.069
		c0.001,0,0.071-0.358,0.071-0.354v0.001c0,0.004,0,0.009,0,0.014v0.001c0,0.005,0,0.009,0,0.014c0,0.001,0,0.001,0,0.001
		c0,0.004,0,0.009,0,0.014c0,0,0,0.001,0,0.001c0,0.004,0,0.009,0,0.013c0,0.001,0,0.001,0,0.003c0,0.004,0,0.008,0,0.012
		c0,0.001,0,0.001,0,0.002c0,0.004,0,0.009,0,0.013c0,0.001,0,0.001,0,0.002c0,0.004,0,0.008,0,0.013c0,0.001,0,0.001,0,0.002
		c0,0.004,0,0.008,0,0.012c0,0.001,0,0.001,0,0.003c0,0.004,0,0.008,0,0.012c0,0.001,0,0.002,0,0.003c0,0.004,0,0.008,0,0.012
		c0,0,0,0.002,0,0.002c0,0.004,0,0.009,0,0.013c0,0.001,0,0.001,0,0.003c0,0.004,0,0.008,0,0.012c0,0.001,0,0.002,0,0.003
		c0,0.004,0,0.008,0,0.012c0,0.001,0,0.002,0,0.003c0,0.004,0,0.008,0,0.012c0,0.001,0,0.001,0,0.003c0,0.004,0,0.008,0,0.012
		c0,0.001,0,0.001,0,0.003c0,0.004,0,0.008,0,0.012c0,0.001,0,0.002,0,0.003c0,0.004,0,0.008,0,0.012c0,0.001,0,0.002,0,0.003
		c0,0.004,0,0.008,0,0.012c0,0.001,0,0.002,0,0.004c0,0.004,0,0.008,0,0.011c0,0.001,0,0.002,0,0.004c0,0.003,0,0.007,0,0.011
		c0,0.001,0,0.003,0,0.004c0,0.004,0,0.007,0,0.011c0,0.001,0,0.003,0,0.005c0,0.003,0,0.007,0,0.011c0,0.001,0,0.003,0,0.004
		c0,0.003,0,0.007,0,0.011c0,0.001,0,0.003,0,0.004c0,0.003,0,0.007,0,0.011c0,0.001,0,0.003,0,0.004c0,0.003,0,0.007,0,0.011
		c0,0.001,0,0.003,0,0.004c0,0.004,0,0.007,0,0.011c0,0.001,0,0.003,0,0.005c0,0.003,0,0.007,0,0.011c0,0.001,0,0.003,0,0.004
		c0,0.003,0,0.007,0,0.01c0,0.001,0,0.004,0,0.005c0,0.004,0,0.007,0,0.011c0,0.001,0,0.003,0,0.005c0,0.003,0,0.007,0,0.01
		c0,0.001,0,0.003,0,0.004c0,0.004,0,0.007,0,0.011c0,0.001,0,0.003,0,0.005c0,0.003,0,0.007,0,0.011c0,0.001,0,0.003,0,0.004
		c0,0.003,0,0.007,0,0.011c0,0.001,0,0.003,0,0.004c0,0.003,0,0.007,0,0.011c0,0.001,0,0.003,0,0.005c0,0.003,0,0.007,0,0.011
		c0,0.001,0,0.003,0,0.004c0,0.003,0,0.007,0,0.01c0,0.002,0,0.003,0,0.005c0,0.003,0,0.006,0,0.01c0,0.001,0,0.003,0,0.005
		c0,0.003,0,0.007,0,0.01c0,0.002,0,0.004,0,0.006c0,0.003,0,0.006,0,0.01c0,0.002,0,0.003,0,0.005c0,0.003,0,0.007,0,0.01
		c0,0.002,0,0.003,0,0.005c0,0.003,0,0.007,0,0.01c0,0.001,0,0.003,0,0.004c0,0.004,0,0.007,0,0.011c0,0.002,0,0.003,0,0.005
		c0,0.003,0,0.007,0,0.011c0,0.002,0,0.002,0,0.004c0,0.003,0,0.007,0,0.01c0,0.002,0,0.003,0,0.005c0,0.003,0,0.007,0,0.01
		c0,0.002,0,0.003,0,0.005c0,0.003,0,0.007,0,0.01c0,0.002,0,0.004,0,0.006c0,0.003,0,0.007,0,0.01c0,0.002,0,0.003,0,0.005
		c0,0.003,0,0.007,0,0.01c0,0.002,0,0.004,0,0.006c0,0.003,0,0.007,0,0.01c0,0.002,0,0.003,0,0.004c0,0.003,0,0.007,0,0.01
		c0,0.002,0,0.004,0,0.006c0,0.003,0,0.007,0,0.01c0,0.002,0,0.004,0,0.006c0,0.003,0,0.006,0,0.009c0,0.002,0,0.004,0,0.007
		s0,0.006,0,0.009c0,0.002,0,0.003,0,0.006c0,0.003,0,0.006,0,0.009c0,0.002,0,0.004,0,0.007c0,0.003,0,0.006,0,0.009
		c0,0.002,0,0.004,0,0.006c0,0.003,0,0.006,0,0.009c0,0.002,0,0.004,0,0.006c0,0.003,0,0.006,0,0.009s0,0.004,0,0.006
		c0,0.003,0,0.006,0,0.009c0,0.002,0,0.004,0,0.006c0,0.003,0,0.006,0,0.009c0,0.001,0,0.004,0,0.005c0,0.003,0,0.006,0,0.009
		s0,0.004,0,0.007s0,0.006,0,0.009c0,0.002,0,0.004,0,0.006c0,0.003,0,0.006,0,0.01c0,0.001,0,0.003,0,0.005c0,0.003,0,0.006,0,0.01
		c0,0.002,0,0.003,0,0.005c0,0.003,0,0.006,0,0.01c0,0.002,0,0.003,0,0.005c0,0.003,0,0.007,0,0.01c0,0.001,0,0.003,0,0.005
		c0,0.003,0,0.007,0,0.01c0,0.002,0,0.003,0,0.005c0,0.003,0,0.007,0,0.01c0,0.002,0,0.003,0,0.005c0,0.003,0,0.007,0,0.011
		c0,0.002,0,0.003,0,0.005c0,0.003,0,0.007,0,0.01c0,0.002,0,0.002,0,0.004c0,0.004,0,0.007,0,0.011c0,0.002,0,0.002,0,0.004
		c0,0.004,0,0.007,0,0.011c0,0.001,0,0.003,0,0.005c0,0.003,0,0.007,0,0.011c0,0.001,0,0.003,0,0.004c0,0.003,0,0.007,0,0.011
		c0,0.002,0,0.003,0,0.004c0,0.004,0,0.007,0,0.011c0,0.001,0,0.003,0,0.004c0,0.003,0,0.007,0,0.011c0,0.001,0,0.003,0,0.005
		c0,0.003,0,0.007,0,0.011c0,0.001,0,0.003,0,0.004c0,0.003,0,0.007,0,0.011c0,0.001,0,0.003,0,0.005c0,0.003,0,0.007,0,0.011
		c0,0.001,0,0.003,0,0.004c0,0.004,0,0.007,0,0.011c0,0.001,0,0.003,0,0.004c0,0.003,0,0.007,0,0.011c0,0.001,0,0.003,0,0.004
		c0,0.004,0,0.007,0,0.011c0,0.001,0,0.003,0,0.004c0,0.003,0,0.007,0,0.011c0,0.001,0,0.003,0,0.004c0,0.004,0,0.008,0,0.011
		c0,0.001,0,0.003,0,0.004c0,0.003,0,0.007,0,0.011c0,0.001,0,0.003,0,0.005c0,0.003,0,0.007,0,0.011c0,0.001,0,0.003,0,0.004
		c0,0.003,0,0.007,0,0.011c0,0.001,0,0.003,0,0.004c0,0.003,0,0.007,0,0.011c0,0.001,0,0.003,0,0.004c0,0.004,0,0.007,0,0.011
		c0,0.001,0,0.003,0,0.004c0,0.004,0,0.007,0,0.011c0,0.001,0,0.002,0,0.004c0,0.004,0,0.008,0,0.011c0,0.001,0,0.003,0,0.004
		c0,0.003,0,0.007,0,0.011c0,0.001,0,0.003,0,0.004c0,0.004,0,0.008,0,0.012c0,0.001,0,0.003,0,0.004c0,0.004,0,0.008,0,0.011
		c0,0.001,0,0.003,0,0.004c0,0.004,0,0.007,0,0.011c0,0.001,0,0.002,0,0.004c0,0.004,0,0.008,0,0.012c0,0.001,0,0.002,0,0.003
		c0,0.004,0,0.008,0,0.012c0,0.001,0,0.003,0,0.004c0,0.004,0,0.008,0,0.012c0,0.001,0,0.002,0,0.004c0,0.004,0,0.008,0,0.012
		c0,0.001,0,0.002,0,0.004c0,0.004,0,0.008,0,0.012c0,0.001,0,0.002,0,0.003c0,0.004,0,0.008,0,0.012c0,0.001,0,0.002,0,0.004
		c0,0.004,0,0.008,0,0.012c0,0.001,0,0.002,0,0.003c0,0.004,0,0.008,0,0.012c0,0.001,0,0.003,0,0.004c0,0.004,0,0.008,0,0.012
		c0,0.001,0,0.001,0,0.003c0,0.004,0,0.008,0,0.012c0,0.001,0,0.002,0,0.003c0,0.004,0,0.008,0,0.012c0,0.001,0,0.002,0,0.003
		c0,0.004,0,0.008,0,0.013c0,0.001,0,0.001,0,0.003c0,0.004,0,0.008,0,0.013c0,0,0,0.002,0,0.002c0,0.004,0,0.008,0,0.012
		c0,0.001,0,0.002,0,0.003c0,0.004,0,0.008,0,0.013c0,0,0,0.001,0,0.002c0,0.004,0,0.009,0,0.013c0,0.001,0,0.001,0,0.002
		c0,0.004,0,0.009,0,0.013c0,0,0,0.001,0,0.002c0,0.004,0,0.009,0,0.013c0,0.001,0,0.001,0,0.002c0,0.004,0,0.009,0,0.013
		c0,0,0,0.001,0,0.002c0,0.004,0,0.009,0,0.013c0,0.001,0,0.002,0,0.002c0,0.004,0,0.009,0,0.013c0,0.001,0,0.001,0,0.002
		c0,0.004,0,0.009,0,0.013c0,0,0,0.002,0,0.002c0,0.004,0,0.009,0,0.013c0,0,0,0.001,0,0.002c0,0.004,0,0.009,0,0.013
		c0,0,0,0.001,0,0.002c0,0.004,0,0.009,0,0.013c0,0,0,0.001,0,0.002c0,0.004,0,0.009,0,0.013c0,0.001,0,0.002,0,0.002
		c0,0.004,0,0.009,0,0.013c0,0,0,0.002,0,0.002c0,0.004,0,0.009,0,0.013c0,0,0,0.002,0,0.002c0,0.004,0,0.009,0,0.013
		c0,0,0,0.001,0,0.002c0,0.005,0,0.009,0,0.013c0,0,0,0.002,0,0.002c0,0.004,0,0.009,0,0.013c0,0,0,0.002,0,0.002
		c0,0.004,0,0.009,0,0.014c0,0,0,0.001,0,0.002c0,0.004,0,0.009,0,0.013c0,0,0,0.001,0,0.002c0,0.004,0,0.009,0,0.013
		c0,0.001,0,0.001,0,0.003c0,0.004,0,0.009,0,0.013c0,0.001,0,0.001,0,0.003c0,0.004,0,0.008,0,0.013c0,0.001,0,0.001,0,0.003
		c0,0.004,0,0.008,0,0.013c0,0.001,0,0.001,0,0.002c0,0.004,0,0.009,0,0.013c0,0.001,0,0.001,0,0.002c0,0.004,0,0.009,0,0.013
		c0,0.001,0,0.001,0,0.002c0,0.004,0,0.009,0,0.013c0,0.001,0,0.001,0,0.002c0,0.004,0,0.009,0,0.013c0,0.001,0,0.001,0,0.002
		c0,0.004,0,0.008,0,0.013c0,0.001,0,0.001,0,0.002c0,0.005,0,0.009,0,0.014c0,0.001,0,0.001,0,0.002c0,0.005,0,0.009,0,0.013
		c0,0.001,0,0.001,0,0.002c0,0.004,0,0.009,0,0.013c0,0.001,0,0.001,0,0.002c0,0.004,0,0.009,0,0.013c0,0.001,0,0.001,0,0.002
		c0,0.004,0,0.009,0,0.013c0,0.001,0,0.001,0,0.002c0,0.004,0,0.009,0,0.013c0,0.001,0,0.001,0,0.002c0,0.004,0,0.009,0,0.013
		c0,0,0,0.001,0,0.002c0,0.004,0,0.009,0,0.013c0,0.001,0,0.001,0,0.002c0,0.004,0,0.009,0,0.013c0,0.001,0,0.001,0,0.002
		c0,0.004,0,0.009,0,0.013c0,0,0,0.001,0,0.002c0,0.004,0,0.009,0,0.013c0,0,0,0.001,0,0.002c0,0.004,0,0.009,0,0.014
		c0,0,0,0.001,0,0.002c0,0.004,0,0.009,0,0.014c0,0,0,0.001,0,0.002c0,0.004,0,0.009,0,0.014c0,0,0,0.001,0,0.002
		c0,0.004,0,0.009,0,0.014c0,0,0,0.001,0,0.002c0,0.004,0,0.009,0,0.014c0,0,0,0.001,0,0.002c0,0.004,0,0.009,0,0.014
		c0,0,0,0.001,0,0.001c0,0.005,0,0.01,0,0.015c0,0,0,0,0,0.001c0,0.005,0,0.01,0,0.015v0.001c0,0.005,0,0.01,0,0.015v0.001
		c0,0.005,0,0.01,0,0.015v0.001c0,0.005,0,0.01,0,0.015l0,0c0,0.006,0,0.011,0,0.016l0,0c0,0.006,0,0.011,0,0.016l0,0
		c0,0.006,0,0.011,0,0.016l0,0c0,0.005,0,0.011,0,0.016l0,0c0,0.006,0,0.011,0,0.016l0,0c0,0.005,0,0.011,0,0.016l0,0l0,0l0,0
		c0,0.005,0,0.01,0,0.015v0.001c0,0.005,0,0.01,0,0.015c0,0.001,0,0.001,0,0.002c0,0.004,0,0.009,0,0.014c0,0.001,0,0.001,0,0.002
		c0,0.004,0,0.009,0,0.014c0,0.001,0,0.001,0,0.002c0,0.005,0,0.009,0,0.014c0,0.001,0,0.001,0,0.002c0,0.005,0,0.009,0,0.014v0.002
		c0,0.005,0,0.009,0,0.014v0.002c0,0.005,0,0.01,0,0.014v0.002c0,0.005,0,0.01,0,0.015l0,0c0,0.016,0,0.031,0,0.047l0,0
		c0,0.005,0,0.01,0,0.016l0,0c0,0.005,0,0.01,0,0.015v0.001c0,0.005,0,0.01,0,0.015v0.001c0,0.005,0,0.01,0,0.015v0.001
		c0,0.005,0,0.01,0,0.016l0,0c0,0.005,0,0.01,0,0.016l0,0c0,0.14,0,0.279,0,0.419l0,0c0,0.005,0,0.01,0,0.015v0.001
		c0,0.005,0,0.01,0,0.015v0.001c0,0.005,0,0.01,0,0.015v0.002c0,0.004,0,0.009,0,0.014v0.001c0,0.005,0,0.01,0,0.015v0.001
		c0,0.005,0,0.01,0,0.015v0.001c0,0.005,0,0.009,0,0.014c0,0.001,0,0.002,0,0.002c0,0.005,0,0.009,0,0.013c0,0.002,0,0.002,0,0.003
		c0,0.004,0,0.008,0,0.012c0,0.001,0,0.003,0,0.004c0,0.004,0,0.008,0,0.012c0,0.001,0,0.003,0,0.004c0,0.004,0,0.007,0,0.011
		c0,0.002,0,0.004,0,0.006c0,0.003,0,0.007,0,0.01s0,0.004,0,0.006c0,0.004,0,0.007,0,0.01c0,0.002,0,0.004,0,0.007s0,0.005,0,0.008
		c0,0.002,0,0.006,0,0.008c0,0.001,0,0.003,0,0.004c0,0.005,0-0.093,0-0.093h-0.07c-0.002,0-0.038,0.123-0.04,0.158l2.978,0.187
		c0.021-0.398,0.023-0.787,0.023-1.19C47.327,23.795,47.163,22.282,46.856,20.798L46.856,20.798z M41.745,10.578l-2.25,1.984
		c0.479,0.545,0.93,1.117,1.348,1.713c0,0,0,0,0,0.001c0.006,0.008,0.011,0.015,0.017,0.023c0,0,0,0,0,0
		c0.006,0.008,0.011,0.016,0.017,0.023c0,0,0,0,0,0c0.006,0.008,0.012,0.016,0.017,0.023c0,0,0,0,0,0
		c0.006,0.007,0.012,0.016,0.017,0.023c0,0,0-0.114,0.001-0.113c0.005,0.007,0.011-0.092,0.016-0.092c0,0,0.247,0,0.248,0
		c0.005,0-0.737,0.245,0.263,0.253c0,0,0,0.001,0,0.001c0,0.008-0.236-0.254-0.23-0.254c0,0-0.124,0-0.123,0
		c0.005,0-0.052,0.154-0.047,0.162c0.001,0.001-0.029-0.084-0.028-0.083c0.001,0.002-0.013-0.078-0.011-0.078h-0.008
		c0.004,0,0.003,0,0.007,0h0.218c0.002,0,0.223,0.332,0.223,0.334c0,0,0,0.001,0,0.001c0,0.005,0,0.009,0,0.014c0,0,0,0.001,0,0.001
		c0,0.002-0.21-0.351-0.209-0.351s-0.105,0-0.105,0c0.004,0-0.047,0-0.044,0h0.177c0.001,0,0.182,0.38,0.182,0.382
		c0,0,0,0.001,0,0.002c0,0.004-0.197,0.009-0.193,0.013c0,0.001,0.094,0.001,0.095,0.002c0.001,0.002,0.099,0.005,0.099,0.007
		c0,0.001,0,0.002,0,0.002c0,0.004,0,0.009,0,0.013c0,0,0,0.001,0,0.002c0,0.002-0.186,0.005-0.185,0.007
		c0.001,0.001,0.088,0.002,0.089,0.003c0.003,0.004,0.096,0.008,0.096,0.013c0,0,0,0.001,0,0.002c0,0.002,0,0.004,0,0.007
		c0,0.001,0,0.001,0,0.002c0,0.004,0,0.009,0,0.013c0,0,0,0.001,0,0.001c0,0.002-0.17,0.005-0.169,0.007
		c0.001,0.001-0.085,0.002-0.085,0.003c0.004,0.003-0.037,0.008-0.035,0.011c0.001,0.001-0.02,0.002-0.02,0.003
		c0.002,0.002-0.008,0.004-0.006,0.006c0,0.001,0.152,0.002,0.152,0.003c0.004,0.004,0.162,0.008,0.162,0.012c0,0,0,0.001,0,0.002
		c0,0.002-0.153,0.004-0.152,0.006c0.001,0.001,0.072,0.002,0.073,0.004c0.002,0.004,0.079,0.009,0.079,0.013c0,0,0,0.001,0,0.001
		c0,0.002-0.146,0.004-0.145,0.007c0,0.001,0.068,0.002,0.069,0.003c0.003,0.004,0.075,0.009,0.075,0.013c0,0.001,0,0.001,0,0.001
		c0,0.002-0.139,0.004-0.137,0.006c0.001,0.001,0.064,0.002,0.064,0.004c0.004,0.004,0.072,0.008,0.072,0.012c0,0,0,0.001,0,0.002
		c0,0.002-0.13,0.004-0.129,0.006c0.001,0.001-0.064,0.002-0.063,0.004c0.003,0.004-0.028,0.007-0.025,0.012
		c0,0.001-0.016,0.002-0.015,0.003c0.001,0.002-0.006,0.004-0.004,0.006c0,0.001,0.113,0.003,0.115,0.004
		c0.002,0.004,0.121,0.007,0.121,0.012c0,0.001,0,0.002,0,0.003c0,0.002-0.114,0.004-0.112,0.006c0,0.001-0.058,0.003-0.056,0.004
		c0.004,0.007-0.021,0.014-0.017,0.021c0.001,0.001-0.013,0.003-0.012,0.004c0.001,0.002-0.005,0.004-0.004,0.006
		c0.002,0.003,0.001,0.005,0.003,0.008c0.001,0.002,0,0.004,0.001,0.006c0.001,0.001,0.001,0.003,0.002,0.004
		c0.002,0.002,0.003,0.003,0.003,0.006c0.002,0.001,0.002,0.002,0.002,0.003c0.003,0.003,0.005,0.007,0.008,0.011
		c0.001,0.001,0.002,0.003,0.002,0.004c0.002,0.002,0.003,0.004,0.004,0.006c0.001,0.001,0.002,0.002,0.003,0.003
		c0.002,0.003,0.005,0.007,0.007,0.011c0.001,0.001,0.002,0.002,0.002,0.003c0.002,0.002,0.003,0.004,0.005,0.006
		c0.001,0.001,0.001,0.003,0.002,0.004c0.003,0.004,0.005,0.007,0.007,0.011c0.001,0.001,0.002,0.002,0.003,0.004
		c0.001,0.002,0.002,0.004,0.004,0.006c0.001,0.001,0.002,0.003,0.003,0.004c0.002,0.003,0.004,0.006,0.006,0.01
		c0.001,0.001,0.002,0.002,0.003,0.004c0.001,0.002,0.002,0.004,0.004,0.006c0.001,0.002,0.002,0.003,0.003,0.005
		c0.002,0.003,0.004,0.005,0.006,0.009c0.001,0.001,0.002,0.003,0.003,0.005c0.001,0.002,0.002,0.004,0.004,0.006
		c0.001,0.001,0.002,0.003,0.003,0.005c0.002,0.003,0.004,0.006,0.006,0.009c0.001,0.001,0.002,0.003,0.003,0.005
		s0.002,0.003,0.004,0.005c0.001,0.002,0.002,0.004,0.003,0.006c0.002,0.002,0.004,0.005,0.005,0.008
		c0.002,0.002,0.003,0.004,0.004,0.006s0.002,0.003,0.003,0.005c0.002,0.002,0.004,0.005,0.005,0.007
		c0.001,0.002,0.003,0.004,0.004,0.006c0.001,0.002,0.003,0.004,0.004,0.006c0.001,0.002,0.002,0.003,0.003,0.005
		c0.002,0.002,0.003,0.004,0.004,0.006c0.002,0.002,0.004,0.005,0.005,0.008c0.001,0.002,0.003,0.004,0.004,0.006
		s0.002,0.003,0.003,0.005c0.002,0.002,0.003,0.003,0.004,0.005c0.002,0.003,0.003,0.005,0.005,0.009
		c0.001,0.001,0.003,0.003,0.004,0.005c0.001,0.002,0.002,0.004,0.003,0.006c0.002,0.002,0.002,0.003,0.004,0.005
		c0.002,0.003,0.003,0.006,0.005,0.009c0.001,0.002,0.002,0.004,0.004,0.005c0.001,0.002,0.002,0.003,0.003,0.005
		s0.002,0.004,0.004,0.006c0.001,0.002,0.003,0.005,0.004,0.007c0.002,0.002,0.003,0.004,0.004,0.006
		c0.002,0.002,0.003,0.003,0.004,0.005s0.002,0.004,0.003,0.005c0.002,0.003,0.003,0.005,0.005,0.007
		c0.001,0.002,0.003,0.004,0.004,0.007c0.001,0.001,0.003,0.003,0.004,0.005c0.001,0.002,0.002,0.004,0.003,0.005
		c0.002,0.002,0.003,0.005,0.005,0.008c0.001,0.002,0.002,0.004,0.004,0.006c0.001,0.002,0.002,0.003,0.003,0.005
		s0.003,0.003,0.004,0.005c0.001,0.002,0.002,0.004,0.004,0.006c0.001,0.002,0.003,0.005,0.005,0.008
		c0.001,0.001,0.002,0.003,0.003,0.005s0.002,0.004,0.003,0.006c0.002,0.001,0.002,0.003,0.004,0.005
		c0.001,0.003,0.003,0.006,0.005,0.009c0.001,0.001,0.003,0.004,0.003,0.005c0.002,0.001,0.003,0.004,0.004,0.005
		c0.001,0.002,0.002,0.003,0.003,0.005c0.002,0.003,0.004,0.006,0.006,0.009c0.001,0.001,0.002,0.003,0.003,0.005
		s0.002,0.004,0.004,0.006c0.001,0.001,0.002,0.003,0.003,0.005c0.001,0.003,0.003,0.006,0.005,0.009
		c0.001,0.001,0.003,0.004,0.004,0.005c0.001,0.002,0.002,0.004,0.003,0.006c0.001,0.001,0.002,0.003,0.003,0.005
		c0.002,0.003,0.004,0.006,0.006,0.009c0.001,0.001,0.002,0.003,0.003,0.005s0.003,0.004,0.004,0.006s0.002,0.003,0.003,0.005
		c0.002,0.003,0.003,0.006,0.005,0.009c0.001,0.001,0.002,0.003,0.003,0.005c0.002,0.002,0.003,0.004,0.004,0.006
		c0.001,0.001,0.002,0.003,0.003,0.004c0.002,0.003,0.004,0.006,0.006,0.009c0.001,0.002,0.002,0.003,0.003,0.005
		s0.002,0.004,0.004,0.006c0.001,0.001,0.002,0.003,0.002,0.004c0.002,0.003,0.004,0.006,0.006,0.01
		c0.001,0.001,0.002,0.003,0.003,0.004c0.001,0.002,0.003,0.004,0.004,0.006s0.002,0.003,0.003,0.005
		c0.002,0.003,0.004,0.006,0.006,0.009c0.001,0.001,0.001,0.002,0.002,0.004c0.002,0.002,0.003,0.005,0.005,0.007
		c0.001,0.002,0.001,0.002,0.002,0.004c0.002,0.003,0.004,0.007,0.006,0.01c0.001,0.001,0.001,0.002,0.003,0.004
		c0.001,0.002,0.002,0.004,0.004,0.007c0.001,0.001,0.001,0.002,0.002,0.004c0.002,0.003,0.004,0.007,0.006,0.01
		c0.001,0.002,0.002,0.002,0.003,0.004c0.001,0.002,0.003,0.005,0.004,0.007c0.001,0.001,0.002,0.002,0.003,0.004
		c0.002,0.003,0.004,0.007,0.006,0.01c0.001,0.001,0.001,0.002,0.002,0.003c0.001,0.002,0.003,0.005,0.004,0.008
		c0.001,0.001,0.002,0.003,0.003,0.004c0.002,0.003,0.004,0.006,0.006,0.01c0.001,0.001,0.001,0.002,0.002,0.003
		c0.001,0.003,0.003,0.005,0.005,0.008c0,0.001,0.001,0.003,0.002,0.004c0.002,0.003,0.004,0.007,0.006,0.01
		c0,0,0.002,0.002,0.002,0.003c0.002,0.003,0.003,0.005,0.005,0.008c0.001,0.001,0.001,0.003,0.002,0.004
		c0.002,0.003,0.004,0.007,0.006,0.011c0.001,0,0.001,0.001,0.001,0.001c0.002,0.003,0.004,0.007,0.006,0.01
		c0.001,0.001,0.001,0.002,0.002,0.003c0.002,0.003,0.004,0.007,0.006,0.01c0.001,0,0.001,0.002,0.002,0.002
		c0.002,0.003,0.003,0.006,0.005,0.009c0.001,0.001,0.002,0.002,0.002,0.003c0.002,0.003,0.004,0.007,0.007,0.011c0,0,0,0,0,0.001
		c0.002,0.003,0.004,0.007,0.006,0.01c0.001,0.001,0.002,0.002,0.002,0.003c0.002,0.003,0.004,0.007,0.006,0.01
		c0.001,0.001,0.001,0.002,0.002,0.003c0.001,0.003,0.003,0.006,0.005,0.009c0.001,0.001,0.002,0.002,0.002,0.003
		c0.002,0.003,0.004,0.007,0.006,0.01c0,0,0.001,0,0.001,0.001c0.002,0.003,0.004,0.007,0.006,0.011
		c0.001,0.001,0.002,0.002,0.002,0.003c0.002,0.003,0.004,0.006,0.005,0.009c0.001,0.001,0.001,0.002,0.002,0.003
		c0.002,0.003,0.004,0.007,0.006,0.01c0.001,0.001-0.167,0.002-0.167,0.003c0.002,0.003-0.162,0.006-0.162,0.009
		c0,0,0,0.001,0,0.002c0,0.003,0.173,0.007,0.175,0.011c0.001,0.001-0.09,0.002-0.089,0.003c0.002,0.003-0.086,0.006-0.086,0.009
		c0,0.001,0,0.002,0,0.002c0,0.003,0.181,0.007,0.183,0.011c0,0.001,0.089,0.189,0.09,0.19c0.002,0.003,0.047,0.196,0.049,0.196
		c0.001,0-0.163,0-0.163,0c0.002,0-0.158-0.364-0.158-0.36c0,0.001,0,0.001,0,0.002c0,0.003,0,0.006,0,0.01c0,0,0,0.001,0,0.002
		c0,0.003,0,0.007,0,0.011c0,0.001,0,0.001,0,0.002c0,0.003,0,0.006,0,0.01c0,0,0,0.001,0,0.002c0,0.003,0.201,0.007,0.203,0.011
		c0.002,0.001,0.101,0.001,0.102,0.002c0.001,0.004,0.052,0.007,0.054,0.01c0.001,0-0.182,0.001-0.181,0.002
		c0.002,0.004-0.178,0.007-0.178,0.011c0,0.001,0,0.001,0,0.002c0,0.003,0,0.007,0,0.01c0,0,0,0.001,0,0.001
		c0,0.003,0,0.007,0,0.011c0,0.001,0,0.001,0,0.002c0,0.003,0,0.006,0,0.01c0,0,0,0.001,0,0.002c0,0.003,0,0.007,0,0.011
		c0,0,0,0.001,0,0.002c0,0.003,0,0.007,0,0.01c0,0,0,0.001,0,0.002c0,0.003,0,0.007,0,0.011c0,0,0,0.001,0,0.002
		c0,0.003,0,0.007,0,0.01c0,0,0,0.001,0,0.002c0,0.004,0.237,0.193,0.239,0.193c0.001,0-0.122,0-0.122,0
		c0.002,0-0.117-0.173-0.117-0.169c0,0,0,0.001,0,0.001c0,0.004,0.245,0.168,0.247,0.168h-0.126c0.002,0-0.121-0.148-0.121-0.144
		c0,0,0,0.001,0,0.002c0,0.004,0.252,0.142,0.254,0.142h0.37c0.002,0,0.376-0.122,0.376-0.118c0,0,0,0.001,0,0.001
		c0,0.004-0.002,0.008,0,0.012l0,0c0.002,0.004,0,0.008,0,0.012c0,0,0,0.001,0,0.002c0,0.004-0.234,0.091-0.232,0.091h0.113
		c0.002,0,0.119-0.071,0.119-0.067c0,0.001,0,0.001,0,0.002c0,0.004-0.002,0.008,0,0.012l0,0c0.002,0.004,0,0.008,0,0.012
		c0,0,0,0.001,0,0.001c0,0.008-0.216,0.04-0.211,0.04h-0.112c0.005,0-0.048,0-0.042,0h-0.027c0.004,0-0.006,0-0.002,0h0.191
		c0.004,0,0.203,0.054,0.203,0.062v0.001c0,0.008-0.188-0.063-0.184-0.063h-0.098c0.005,0-0.041,0-0.036,0h-0.024
		c0.005,0-0.003-0.009,0.002,0l0,0c0.004,0.009,0.002,0,0.007,0H42.1c0.063,0,0.124,0.324,0.186,0.445l2.682-1.302
		C44.105,13.59,43.021,12.025,41.745,10.578L41.745,10.578z M32.252,4.275l-0.975,2.891c0.001,0,0.002,0,0.002,0
		c0.001,0,0.002,0,0.003,0c0.003,0,0.007,0,0.011,0h0.002c0.004,0,0.009,0,0.013,0c0.001,0,0.002,0,0.003,0c0.003,0,0.007,0,0.01,0
		c0.001,0,0.002,0,0.003,0c0.004,0,0.008,0,0.012,0c0.002,0,0.002,0,0.003,0c0.004,0,0.098-0.041,0.098-0.04s0,0.018,0,0.018
		c0,0.001-0.076,0.022-0.072,0.022c0.001,0,0.001,0,0.003,0c0.003,0,0.007,0,0.011,0c0.001,0,0.001,0,0.002,0
		c0.004,0,0.009,0,0.013,0c0.001,0,0.001,0,0.002,0c0.004,0,0.042-0.031,0.042-0.03s0-0.016,0-0.016c0,0.002,0-0.005,0-0.003
		c0,0,0-0.004,0-0.004c0,0.001,0,0.001,0,0.002v0.023c0,0.002,0.008,0.028,0.012,0.028h0.002c0.004,0-0.012-0.021-0.008-0.02l0,0
		c0.006,0.002-0.006-0.009-0.006-0.007v0.027c0,0,0.05,0,0.055,0V7.15c0.004,0.001,0.009-0.005,0.014-0.004l0,0
		c0.009,0.004,0.019,0.002,0.027,0.006l0.001-0.002c0.987,0.354,1.938,0.786,2.843,1.29l0,0c0.008,0.004,0.017,0.009,0.025,0.013v0
		c0.004,0.002,0.009,0.004,0.013,0.007l0,0c0.005,0.002,0.009,0.004,0.013,0.007l0,0c0.004,0.002,0.009,0.005,0.013,0.007l-0.007,0
		c0.004,0.002,0.004,0.004,0.004,0.006v-0.16c0,0.002,0.024-0.154,0.027-0.154c0.001,0,0.002,0,0.002,0c0.004,0,0.007,0,0.011,0
		c0.001,0,0.001,0,0.002,0c0.004,0-0.042,0.169-0.042,0.171c0,0.001,0,0.083,0,0.083c0,0.002,0.034,0.045,0.037,0.047
		c0.002,0,0.016,0.021,0.017,0.022c0.004,0.002,0.014,0.014,0.018,0.016c0.001,0,0.005,0.007,0.007,0.007
		c0.002,0.002,0.007,0.006,0.01,0.008c0.001,0,0.003,0.002,0.004,0.003c0.004,0.002,0.008,0.005,0.012,0.007
		c0.001,0,0.002,0.001,0.003,0.002c0.003,0.002,0.006,0.003,0.009,0.005c0.001,0.001,0.002,0.001,0.003,0.002
		c0.004,0.002,0.007,0.004,0.011,0.006c0.001,0.001,0.002,0.001,0.004,0.002c0.002,0.002,0.005,0.003,0.007,0.005
		c0.002,0,0.003,0.001,0.004,0.002c0.004,0.002,0.007,0.004,0.011,0.006c0.001,0.001,0.002,0.001,0.004,0.002
		c0.002,0.001,0.005,0.003,0.007,0.004c0.002,0,0.003,0.001,0.004,0.002c0.004,0.002,0.007,0.003,0.01,0.005
		c0.002,0.001,0.003,0.002,0.005,0.003s0.004,0.002,0.007,0.003c0.001,0.001,0.003,0.002,0.005,0.003
		c0.003,0.002,0.006,0.003,0.009,0.005c0.002,0.001,0.004,0.002,0.005,0.003c0.002,0.001,0.004,0.002,0.006,0.003
		s0.004,0.002,0.005,0.003c0.003,0.001,0.007,0.003,0.01,0.005c0.001,0.001,0.004,0.002,0.005,0.003
		c0.002,0.001,0.004,0.002,0.006,0.003c0.002,0,0.004,0.002,0.005,0.003c0.004,0.002,0.007,0.003,0.01,0.005
		c0.001,0,0.004,0.002,0.005,0.003c0.002,0.001,0.004,0.002,0.005,0.003c0.002,0.001,0.005,0.002,0.006,0.003
		c0.002,0.001,0.004,0.002,0.005,0.003c0.004,0.002,0.007,0.004,0.011,0.006c0.001,0.001,0.003,0.001,0.004,0.002
		c0.007,0.004,0.014,0.008,0.021,0.012c0.001,0.001,0.002,0.251,0.003,0.252c0.008,0.004,0.016-0.736,0.022,0.264
		c0.001,0,0.002,0,0.002,0c0.008,0-0.339-0.24-0.339-0.236c0,0,0-0.125,0-0.124c0,0.004,0-0.053,0-0.048V8.728
		c1,0.185,0.812,0.362,1.113,0.563l1.768-2.473C35.713,5.744,34.074,4.9,32.252,4.275L32.252,4.275z M25.436,3.016v3.151
		c0,0-0.426,0-0.421,0c0.001,0,0.002,0,0.003,0c0.004,0,0.008,0,0.011,0c0.001,0,0.002,0,0.003,0c0.004,0,0.009,0,0.014,0
		c0.001,0,0.002,0,0.003,0c0.004,0,0.008,0,0.011,0c0.001,0,0.002,0,0.004,0c0.004,0,0.009,0,0.014,0c0,0,0.001,0,0.002,0
		c0.004,0,0.008,0,0.012,0c0.001,0,0.002,0,0.004,0c0.004,0,0.009,0,0.014,0l0,0c0.004,0,0.009,0,0.014,0c0.001,0,0.003,0,0.004,0
		c0.003,0,0.007,0,0.011,0c0,0,0.002,0,0.002,0c0.005,0,0.009,0,0.014,0c0.001,0,0.002,0,0.003,0c0.004,0,0.008,0,0.012,0
		c0.001,0,0.001,0,0.003,0c0.005,0,0.009,0,0.014,0c0,0,0.001,0,0.002,0c0.004,0,0.008,0,0.012,0c0.001,0,0.002,0,0.003,0
		c0.004,0,0.009,0,0.013,0h0.001c0.004,0,0.009,0,0.014,0c0.001,0,0.002,0,0.004,0c0.003,0,0.007,0,0.011,0c0,0,0.002,0,0.003,0
		c0.005,0,0.009,0,0.014,0c0,0,0.002,0,0.002,0c0.004,0,0.008,0,0.012,0c0.001,0,0.002,0,0.003,0c0.004,0,0.009,0,0.014,0
		c0,0,0,0,0.001,0c0.004,0,0.009,0,0.013,0c0.001,0,0.002,0,0.004,0c0.004,0,0.009,0,0.013,0h0.001c0.005,0,0.01,0,0.014,0
		c0.001,0,0.002,0,0.003,0c0.004,0,0.008,0,0.012,0c0.001,0,0.002,0,0.002,0c0.005,0,0.009,0,0.014,0c0,0,0.002,0,0.002,0
		c0.004,0,0.008,0,0.012,0c0.001,0,0.001,0,0.003,0c0.005,0,0.009,0,0.014,0h0c0.004,0,0.009,0,0.014,0c0.001,0,0.002,0,0.003,0
		c0.005,0,0.009,0,0.014,0h0.001c0.004,0,0.009,0,0.014,0c0.002,0,0.002,0,0.003,0c0.004,0,0.008,0,0.013,0c0,0,0.001,0,0.002,0
		c0.005,0,0.01,0,0.015,0c0,0,0.001,0,0.002,0c0.004,0,0.008,0,0.012,0c0.001,0,0.002,0,0.004,0c0.009,0,0.019,0,0.027,0
		c0.002,0,0.002,0,0.004,0c0.004,0,0.009,0,0.013,0h0.001c0.005,0,0.01,0,0.015,0c0.001,0,0.001,0,0.002,0c0.005,0,0.009,0,0.013,0
		c0.001,0,0.002,0,0.002,0c0.005,0,0.01,0,0.015,0c0.001,0,0.001,0,0.002,0c0.004,0,0.009,0,0.013,0c0.001,0,0.001,0,0.002,0
		c0.01,0,0.02,0,0.029,0c0.001,0,0.001,0,0.002,0c0.01,0,0.02,0,0.029,0h0.002c0.005,0,0.009,0,0.014,0h0.001c0.01,0,0.02,0,0.029,0
		h0.002c0.01,0,0.02,0,0.029,0c0.001,0,0.002,0,0.002,0c0.01,0,0.02,0,0.03,0l0,0c0.005,0,0.011,0,0.015,0h0.001
		c0.01,0-0.358,0-0.358,0V6.1c0,0,0.215-0.033,0.225-0.032l0,0c0.016,0-0.119-0.016-0.104-0.015l0,0c0.01,0-0.121-0.007-0.121-0.007
		V6.042c1,0.008,0.555,0.015,0.707,0.025l0.555-2.993c-0.529-0.038-1.324-0.058-1.324-0.058H25.436z"/>
</g>
<g>
	<path fill="#EEDEFC" d="M25.001,43.652c-10.101,0-18.318-8.217-18.318-18.317c0-10.101,8.218-18.319,18.318-18.319
		c10.1,0,18.317,8.218,18.317,18.319C43.318,35.435,35.101,43.652,25.001,43.652z"/>
	<path fill="#2A1E2F" d="M25.001,8.016c9.548,0,17.317,7.769,17.317,17.319c0,9.549-7.769,17.317-17.317,17.317
		c-9.549,0-17.318-7.769-17.318-17.317C7.683,15.785,15.452,8.016,25.001,8.016 M25.001,6.016c-10.669,0-19.318,8.649-19.318,19.319
		c0,10.668,8.649,19.317,19.318,19.317s19.317-8.649,19.317-19.317C44.318,14.665,35.67,6.016,25.001,6.016L25.001,6.016z"/>
</g>
</svg>
