<?xml version="1.0" encoding="utf-8"?>
<!-- Generator: Adobe Illustrator 16.0.0, SVG Export Plug-In . SVG Version: 6.00 Build 0)  -->
<!DOCTYPE svg PUBLIC "-//W3C//DTD SVG 1.1//EN" "http://www.w3.org/Graphics/SVG/1.1/DTD/svg11.dtd">
<svg version="1.1" id="Layer_1" xmlns="http://www.w3.org/2000/svg" xmlns:xlink="http://www.w3.org/1999/xlink" x="0px" y="0px"
	 width="49.872px" height="49.333px" viewBox="0 0 49.872 49.333" enable-background="new 0 0 49.872 49.333" xml:space="preserve">
<g>
	<circle opacity="0.5" fill="#4F4F4F" cx="25" cy="24.462" r="24.872"/>
	<circle fill="#FFFFFF" cx="25" cy="23.246" r="20.6"/>
	<path fill="#CFCFCF" d="M34.187,20.211c-1.455-0.022-2.905-0.106-4.351-0.229c0.089-2.238,0.225-4.476,0.572-6.704
		c0.72-4.6-6.309-6.576-7.034-1.939c-0.405,2.587-0.53,5.205-0.622,7.824c-2.063-0.275-4.127-0.555-6.195-0.775
		c-4.676-0.499-4.626,6.801,0,7.294c1.952,0.209,3.899,0.47,5.848,0.73c-0.163,1.88-0.411,3.751-0.854,5.597
		c-1.098,4.57,5.936,6.511,7.034,1.938c0.534-2.222,0.788-4.456,0.939-6.698c1.55,0.137,3.104,0.234,4.663,0.256
		C38.892,27.578,38.886,20.282,34.187,20.211z"/>
</g>
</svg>
