<?xml version="1.0" encoding="utf-8"?>
<!-- Generator: Adobe Illustrator 16.0.0, SVG Export Plug-In . SVG Version: 6.00 Build 0)  -->
<!DOCTYPE svg PUBLIC "-//W3C//DTD SVG 1.1//EN" "http://www.w3.org/Graphics/SVG/1.1/DTD/svg11.dtd">
<svg version="1.1" id="Layer_1" xmlns="http://www.w3.org/2000/svg" xmlns:xlink="http://www.w3.org/1999/xlink" x="0px" y="0px"
	 width="234.431px" height="143.79px" viewBox="0 0 234.431 143.79" enable-background="new 0 0 234.431 143.79"
	 xml:space="preserve">
<g>
	<g enable-background="new    ">
		<g>
			<polygon fill="#BF9D8E" points="218.504,17.48 0.219,17.54 0.362,17.367 218.646,17.307 			"/>
		</g>
		<g enable-background="new    ">
			<defs>
				<path id="SVGID_1_" enable-background="new    " d="M2.322,1.232l218.283-0.061c-0.113,0-0.229,0.068-0.345,0.209
					c-1.082,1.314-1.806,8.463-1.614,15.926L0.362,17.367C0.17,9.903,0.895,2.755,1.977,1.44C2.092,1.3,2.207,1.232,2.322,1.232z"/>
			</defs>
			<clipPath id="SVGID_2_">
				<use xlink:href="#SVGID_1_"  overflow="visible"/>
			</clipPath>
			<g clip-path="url(#SVGID_2_)" enable-background="new    ">
				<path fill="#B18776" d="M218.646,17.307L0.362,17.367c-0.003-0.104-0.005-0.207-0.007-0.309l218.283-0.061
					C218.642,17.101,218.644,17.203,218.646,17.307"/>
				<path fill="#B48B7A" d="M218.639,16.998L0.355,17.059c-0.006-0.236-0.01-0.472-0.014-0.707l218.285-0.06
					C218.629,16.527,218.633,16.762,218.639,16.998"/>
				<path fill="#B68F7F" d="M218.627,16.292L0.342,16.352c-0.003-0.197-0.006-0.395-0.008-0.592l218.285-0.061
					C218.621,15.896,218.623,16.094,218.627,16.292"/>
				<path fill="#B99383" d="M218.619,15.699L0.334,15.76c0-0.191-0.002-0.383-0.002-0.572l218.284-0.061
					C218.616,15.317,218.617,15.508,218.619,15.699"/>
				<path fill="#BC9787" d="M218.564,15.127L0,15.188c0-0.148,0-0.297,0-0.445l219-0.061c0,0.148,0,0.318,0,0.318"/>
				<path fill="#BE9B8C" d="M218.616,14.682L0.332,14.742c0-0.145,0-0.289,0.002-0.434l218.284-0.06
					C218.617,14.393,218.616,14.537,218.616,14.682"/>
				<path fill="#C19F90" d="M218.618,14.249L0.334,14.309c0-0.131,0.002-0.262,0.002-0.393l218.286-0.06
					C218.621,13.986,218.619,14.117,218.618,14.249"/>
				<path fill="#C3A395" d="M218.622,13.856L0.336,13.916c0.002-0.111,0.004-0.223,0.005-0.333l218.286-0.06
					C218.625,13.634,218.623,13.745,218.622,13.856"/>
				<path fill="#C6A899" d="M218.627,13.523L0.341,13.583c0.002-0.11,0.004-0.222,0.006-0.331l218.284-0.061
					C218.629,13.302,218.627,13.412,218.627,13.523"/>
				<path fill="#C9AC9D" d="M218.631,13.191L0.347,13.252c0.003-0.108,0.005-0.217,0.007-0.324l218.284-0.061
					C218.636,12.976,218.633,13.084,218.631,13.191"/>
				<path fill="#CBB0A2" d="M218.638,12.867L0.354,12.928c0.002-0.097,0.004-0.193,0.006-0.289l218.285-0.061
					C218.643,12.675,218.641,12.771,218.638,12.867"/>
				<path fill="#CEB4A6" d="M218.645,12.578L0.359,12.639c0.004-0.096,0.006-0.192,0.008-0.287l218.285-0.061
					C218.649,12.387,218.647,12.482,218.645,12.578"/>
				<path fill="#D0B8AB" d="M218.652,12.291L0.367,12.351c0.003-0.095,0.006-0.19,0.01-0.286l218.284-0.06
					C218.658,12.1,218.655,12.195,218.652,12.291"/>
				<path fill="#D3BCAF" d="M218.661,12.005L0.377,12.064c0.002-0.099,0.006-0.197,0.01-0.295l218.283-0.061
					C218.667,11.807,218.664,11.906,218.661,12.005"/>
				<path fill="#D6C0B3" d="M218.67,11.709L0.387,11.77c0.003-0.104,0.006-0.206,0.011-0.308l218.284-0.06
					C218.678,11.504,218.674,11.606,218.67,11.709"/>
				<path fill="#D8C4B8" d="M218.682,11.402L0.397,11.462c0.004-0.103,0.008-0.204,0.013-0.306l218.284-0.06
					C218.689,11.198,218.686,11.3,218.682,11.402"/>
				<path fill="#DBC8BC" d="M218.694,11.097L0.41,11.156c0.004-0.106,0.008-0.213,0.014-0.319l218.284-0.06
					C218.703,10.883,218.699,10.99,218.694,11.097"/>
				<path fill="#DDCCC1" d="M218.708,10.777L0.424,10.837c0.007-0.162,0.016-0.323,0.023-0.481l218.285-0.061
					C218.723,10.454,218.715,10.615,218.708,10.777"/>
				<path fill="#E0D0C5" d="M218.732,10.295L0.447,10.355c0.008-0.163,0.017-0.324,0.026-0.484l218.284-0.061
					C218.75,9.971,218.74,10.133,218.732,10.295"/>
				<path fill="#E4D6CC" d="M218.758,9.811L0.474,9.871C0.499,9.44,0.527,9.02,0.559,8.609l218.283-0.06
					C218.812,8.959,218.783,9.381,218.758,9.811"/>
				<path fill="#E0D0C5" d="M218.842,8.55L0.559,8.609c0.018-0.244,0.037-0.484,0.058-0.72l218.285-0.06
					C218.881,8.065,218.861,8.306,218.842,8.55"/>
				<path fill="#DDCCC1" d="M218.901,7.83L0.616,7.89c0.015-0.155,0.028-0.31,0.043-0.462l218.284-0.061
					C218.93,7.52,218.915,7.674,218.901,7.83"/>
				<path fill="#DBC8BC" d="M218.943,7.367L0.659,7.428c0.015-0.152,0.03-0.304,0.045-0.452l218.284-0.061
					C218.973,7.064,218.958,7.215,218.943,7.367"/>
				<path fill="#D8C4B8" d="M218.988,6.915L0.704,6.975c0.015-0.149,0.031-0.298,0.048-0.443l218.285-0.061
					C219.02,6.617,219.004,6.766,218.988,6.915"/>
				<path fill="#D6C0B3" d="M219.037,6.471L0.752,6.531c0.019-0.164,0.037-0.324,0.057-0.482l218.284-0.06
					C219.074,6.146,219.055,6.308,219.037,6.471"/>
				<path fill="#D3BCAF" d="M219.093,5.989L0.809,6.049C0.832,5.862,0.855,5.68,0.88,5.501l218.284-0.06
					C219.14,5.619,219.116,5.803,219.093,5.989"/>
				<path fill="#D0B8AB" d="M219.164,5.441L0.88,5.501c0.036-0.263,0.074-0.515,0.113-0.757l218.284-0.06
					C219.238,4.927,219.201,5.179,219.164,5.441"/>
				<path fill="#CEB4A6" d="M219.277,4.685L0.993,4.744c0.054-0.34,0.112-0.66,0.173-0.959L219.45,3.725
					C219.391,4.023,219.332,4.344,219.277,4.685"/>
				<path fill="#CBB0A2" d="M219.45,3.725L1.166,3.785c0.057-0.279,0.115-0.54,0.176-0.779l218.285-0.06
					C219.566,3.186,219.507,3.445,219.45,3.725"/>
				<path fill="#C9AC9D" d="M219.627,2.946L1.342,3.006c0.05-0.192,0.101-0.371,0.152-0.535L219.779,2.41
					C219.727,2.574,219.676,2.754,219.627,2.946"/>
				<path fill="#C6A899" d="M219.779,2.41L1.494,2.471c0.045-0.139,0.09-0.267,0.135-0.384l218.285-0.06
					C219.868,2.145,219.823,2.271,219.779,2.41"/>
				<path fill="#C3A395" d="M219.914,2.027L1.629,2.087C1.67,1.982,1.713,1.886,1.756,1.799L220.04,1.738
					C219.997,1.826,219.955,1.922,219.914,2.027"/>
				<path fill="#C19F90" d="M220.04,1.738L1.756,1.799C1.795,1.718,1.835,1.645,1.875,1.58l218.286-0.06
					C220.119,1.585,220.08,1.658,220.04,1.738"/>
				<path fill="#BE9B8C" d="M220.161,1.521L1.875,1.58c0.033-0.052,0.067-0.099,0.102-0.14c0.006-0.007,0.012-0.015,0.018-0.021
					l218.285-0.06c-0.007,0.007-0.013,0.014-0.019,0.021C220.227,1.422,220.193,1.469,220.161,1.521"/>
				<path fill="#BC9787" d="M220.279,1.359L1.994,1.419c0.039-0.044,0.077-0.08,0.115-0.108l218.284-0.06
					C220.355,1.279,220.317,1.314,220.279,1.359"/>
				<path fill="#B99383" d="M220.394,1.251L2.109,1.311c0.037-0.027,0.075-0.049,0.113-0.062l218.284-0.06
					C220.469,1.202,220.432,1.223,220.394,1.251"/>
				<path fill="#B68F7F" d="M220.507,1.189L2.223,1.249c0.033-0.012,0.066-0.017,0.1-0.017l218.283-0.061
					C220.573,1.172,220.54,1.178,220.507,1.189"/>
			</g>
		</g>
		<g enable-background="new    ">
			<defs>
				<path id="SVGID_3_" enable-background="new    " d="M2.322,0.232c72.761-0.02,145.521-0.041,218.283-0.061
					c1.018,0,1.924,5.05,2.107,12.244L4.429,12.476C4.244,5.281,3.339,0.232,2.322,0.232z"/>
			</defs>
			<clipPath id="SVGID_4_">
				<use xlink:href="#SVGID_3_"  overflow="visible"/>
			</clipPath>
			<g clip-path="url(#SVGID_4_)" enable-background="new    ">
				<path fill="#B18776" d="M222.713,12.416L4.429,12.476c-0.005-0.169-0.009-0.337-0.015-0.503l218.285-0.061
					C222.704,12.078,222.709,12.246,222.713,12.416"/>
				<path fill="#AF8371" d="M222.699,11.912L4.414,11.973c-0.008-0.293-0.019-0.581-0.029-0.865l218.284-0.06
					C222.68,11.332,222.69,11.62,222.699,11.912"/>
				<path fill="#AC7F6D" d="M222.669,11.048L4.385,11.107c-0.014-0.309-0.027-0.612-0.041-0.911l218.284-0.06
					C222.643,10.436,222.656,10.739,222.669,11.048"/>
				<path fill="#A97B69" d="M222.628,10.137L4.344,10.196C4.326,9.861,4.308,9.533,4.289,9.211l218.283-0.06
					C222.592,9.473,222.611,9.801,222.628,10.137"/>
				<path fill="#A77764" d="M222.572,9.151L4.289,9.211C4.266,8.842,4.24,8.48,4.213,8.128l218.285-0.06
					C222.525,8.42,222.55,8.781,222.572,9.151"/>
				<path fill="#A47360" d="M222.498,8.068L4.213,8.128C4.18,7.675,4.141,7.237,4.1,6.816l218.285-0.061
					C222.426,7.178,222.464,7.615,222.498,8.068"/>
				<path fill="#A16F5B" d="M222.385,6.756L4.1,6.816C3.709,2.772,3.043,0.232,2.322,0.232l218.283-0.06
					C221.327,0.172,221.993,2.713,222.385,6.756"/>
			</g>
		</g>
		<g>
			<polygon fill="#B68E7E" points="4.429,12.476 222.713,12.416 223.564,36.004 209.875,41.333 222.713,40.666 223.941,48.33 
				218.646,52.334 224.129,54.001 226.882,107.877 8.597,107.938 7.887,82.485 14.44,75.388 7.594,70.979 			"/>
		</g>
		<g enable-background="new    ">
			<defs>
				<path id="SVGID_5_" enable-background="new    " d="M230.559,129.168l-218.284,0.061c-1.776,0-3.356-8.807-3.678-21.291
					l218.285-0.061C227.202,120.361,228.783,129.169,230.559,129.168z"/>
			</defs>
			<clipPath id="SVGID_6_">
				<use xlink:href="#SVGID_5_"  overflow="visible"/>
			</clipPath>
			<g clip-path="url(#SVGID_6_)" enable-background="new    ">
				<path fill="#A16F5B" d="M230.559,129.168l-218.284,0.061c-1.263,0-2.426-4.446-3.108-11.5l218.284-0.061
					C228.134,124.722,229.297,129.169,230.559,129.168"/>
				<path fill="#A47360" d="M227.45,117.668L9.166,117.729c-0.071-0.731-0.137-1.491-0.196-2.276l218.284-0.06
					C227.314,116.178,227.38,116.937,227.45,117.668"/>
				<path fill="#A77764" d="M227.254,115.393L8.97,115.452c-0.048-0.612-0.091-1.24-0.13-1.883l218.283-0.061
					C227.164,114.152,227.207,114.78,227.254,115.393"/>
				<path fill="#A97B69" d="M227.123,113.509L8.84,113.569c-0.035-0.56-0.066-1.129-0.096-1.71l218.285-0.06
					C227.059,112.38,227.09,112.95,227.123,113.509"/>
				<path fill="#AC7F6D" d="M227.029,111.8l-218.285,0.06c-0.025-0.52-0.05-1.047-0.07-1.583l218.284-0.06
					C226.979,110.753,227.002,111.28,227.029,111.8"/>
				<path fill="#AF8371" d="M226.958,110.217l-218.284,0.06c-0.021-0.491-0.038-0.99-0.053-1.495l218.284-0.061
					C226.921,109.227,226.938,109.725,226.958,110.217"/>
				<path fill="#B18776" d="M226.905,108.721L8.621,108.781c-0.01-0.279-0.018-0.561-0.024-0.844l218.285-0.061
					C226.889,108.16,226.896,108.441,226.905,108.721"/>
			</g>
		</g>
		<g enable-background="new    ">
			<defs>
				<path id="SVGID_7_" enable-background="new    " d="M230.559,130.168c-72.762,0.02-145.522,0.04-218.284,0.06
					c0.222,0,0.447-0.133,0.673-0.407c2.105-2.555,3.513-16.447,3.14-30.976l218.284-0.06c0.373,14.528-1.035,28.421-3.139,30.976
					C231.006,130.035,230.781,130.168,230.559,130.168z"/>
			</defs>
			<clipPath id="SVGID_8_">
				<use xlink:href="#SVGID_7_"  overflow="visible"/>
			</clipPath>
			<g clip-path="url(#SVGID_8_)" enable-background="new    ">
				<path fill="#B68F7F" d="M230.559,130.168l-218.284,0.06c0.064,0,0.128-0.011,0.194-0.033l218.283-0.061
					C230.688,130.156,230.623,130.168,230.559,130.168"/>
				<path fill="#B99383" d="M230.752,130.134l-218.283,0.061c0.072-0.025,0.146-0.065,0.219-0.12l218.285-0.061
					C230.899,130.068,230.826,130.108,230.752,130.134"/>
				<path fill="#BC9787" d="M230.973,130.014l-218.285,0.061c0.075-0.056,0.15-0.126,0.225-0.212l218.285-0.06
					C231.121,129.889,231.047,129.959,230.973,130.014"/>
				<path fill="#BE9B8C" d="M231.197,129.803l-218.285,0.06c0.012-0.014,0.023-0.027,0.035-0.042
					c0.065-0.079,0.131-0.17,0.195-0.271l218.284-0.061c-0.064,0.102-0.13,0.192-0.194,0.272
					C231.221,129.775,231.208,129.789,231.197,129.803"/>
				<path fill="#C19F90" d="M231.427,129.488l-218.284,0.061c0.08-0.126,0.158-0.268,0.234-0.425l218.285-0.061
					C231.585,129.222,231.506,129.363,231.427,129.488"/>
				<path fill="#C3A395" d="M231.662,129.063l-218.285,0.061c0.084-0.169,0.164-0.356,0.245-0.561l218.284-0.06
					C231.826,128.708,231.745,128.895,231.662,129.063"/>
				<path fill="#C6A899" d="M231.906,128.504l-218.284,0.06c0.089-0.228,0.176-0.477,0.263-0.747l218.284-0.06
					C232.083,128.026,231.996,128.275,231.906,128.504"/>
				<path fill="#C9AC9D" d="M232.169,127.757l-218.284,0.06c0.101-0.319,0.199-0.667,0.295-1.042l218.285-0.06
					C232.369,127.09,232.27,127.438,232.169,127.757"/>
				<path fill="#CBB0A2" d="M232.465,126.715l-218.285,0.06c0.119-0.465,0.234-0.971,0.345-1.515l218.284-0.061
					C232.698,125.744,232.584,126.25,232.465,126.715"/>
				<path fill="#CEB4A6" d="M232.809,125.199L14.524,125.26c0.117-0.579,0.229-1.201,0.335-1.863l218.285-0.06
					C233.039,123.998,232.926,124.62,232.809,125.199"/>
				<path fill="#D0B8AB" d="M233.145,123.337l-218.285,0.06c0.077-0.472,0.15-0.964,0.221-1.474l218.283-0.061
					C233.294,122.373,233.221,122.865,233.145,123.337"/>
				<path fill="#D3BCAF" d="M233.363,121.862L15.08,121.923c0.047-0.349,0.094-0.705,0.139-1.07l218.285-0.061
					C233.459,121.157,233.412,121.515,233.363,121.862"/>
				<path fill="#D6C0B3" d="M233.504,120.792l-218.285,0.061c0.038-0.307,0.075-0.619,0.111-0.938l218.284-0.06
					C233.578,120.173,233.541,120.485,233.504,120.792"/>
				<path fill="#D8C4B8" d="M233.614,119.855l-218.285,0.06c0.032-0.284,0.063-0.573,0.095-0.866l218.284-0.061
					C233.678,119.281,233.646,119.57,233.614,119.855"/>
				<path fill="#DBC8BC" d="M233.708,118.988l-218.284,0.061c0.029-0.288,0.059-0.579,0.086-0.875l218.285-0.06
					C233.767,118.409,233.737,118.701,233.708,118.988"/>
				<path fill="#DDCCC1" d="M233.795,118.114l-218.285,0.06c0.027-0.293,0.055-0.59,0.082-0.892l218.284-0.06
					C233.85,117.523,233.822,117.82,233.795,118.114"/>
				<path fill="#E0D0C5" d="M233.876,117.223l-218.284,0.06c0.039-0.457,0.077-0.923,0.113-1.396l218.284-0.06
					C233.953,116.3,233.916,116.766,233.876,117.223"/>
				<path fill="#E4D6CC" d="M233.989,115.826l-218.284,0.06c0.061-0.802,0.116-1.626,0.165-2.47l218.284-0.061
					C234.105,114.199,234.051,115.023,233.989,115.826"/>
				<path fill="#E0D0C5" d="M234.154,113.355L15.87,113.416c0.018-0.308,0.034-0.618,0.051-0.931l218.284-0.06
					C234.189,112.738,234.172,113.048,234.154,113.355"/>
				<path fill="#DDCCC1" d="M234.205,112.426l-218.284,0.06c0.017-0.31,0.031-0.622,0.046-0.937l218.285-0.061
					C234.237,111.803,234.221,112.115,234.205,112.426"/>
				<path fill="#DBC8BC" d="M234.252,111.488l-218.285,0.061c0.01-0.207,0.02-0.414,0.027-0.622l218.285-0.06
					C234.271,111.075,234.261,111.282,234.252,111.488"/>
				<path fill="#D8C4B8" d="M234.279,110.867l-218.285,0.06c0.009-0.197,0.016-0.395,0.023-0.593l218.285-0.061
					C234.295,110.473,234.287,110.67,234.279,110.867"/>
				<path fill="#D6C0B3" d="M234.303,110.273l-218.285,0.061c0.008-0.198,0.016-0.397,0.021-0.598l218.285-0.06
					C234.317,109.876,234.311,110.075,234.303,110.273"/>
				<path fill="#D3BCAF" d="M234.324,109.677l-218.285,0.06c0.008-0.191,0.014-0.383,0.021-0.575l218.284-0.061
					C234.338,109.293,234.332,109.485,234.324,109.677"/>
				<path fill="#D0B8AB" d="M234.344,109.101L16.06,109.161c0.006-0.186,0.011-0.37,0.017-0.557l218.285-0.06
					C234.354,108.73,234.35,108.916,234.344,109.101"/>
				<path fill="#CEB4A6" d="M234.361,108.545l-218.285,0.06c0.005-0.186,0.01-0.372,0.015-0.56l218.284-0.06
					C234.371,108.172,234.365,108.358,234.361,108.545"/>
				<path fill="#CBB0A2" d="M234.375,107.985l-218.284,0.06c0.005-0.187,0.009-0.374,0.013-0.562l218.285-0.06
					C234.385,107.61,234.38,107.798,234.375,107.985"/>
				<path fill="#C9AC9D" d="M234.389,107.423l-218.285,0.06c0.005-0.209,0.01-0.419,0.014-0.63l218.283-0.061
					C234.398,107.003,234.393,107.213,234.389,107.423"/>
				<path fill="#C6A899" d="M234.4,106.792l-218.283,0.061c0.003-0.214,0.007-0.43,0.01-0.645l218.284-0.061
					C234.408,106.363,234.404,106.578,234.4,106.792"/>
				<path fill="#C3A395" d="M234.411,106.147l-218.284,0.061c0.004-0.216,0.006-0.432,0.008-0.648l218.285-0.06
					C234.418,105.716,234.415,105.933,234.411,106.147"/>
				<path fill="#C19F90" d="M234.42,105.5l-218.285,0.06c0.004-0.254,0.006-0.509,0.007-0.765l218.286-0.06
					C234.426,104.991,234.423,105.246,234.42,105.5"/>
				<path fill="#BE9B8C" d="M234.428,104.735l-218.285,0.06c0.002-0.279,0.003-0.561,0.004-0.842l218.284-0.06
					C234.43,104.175,234.429,104.455,234.428,104.735"/>
				<path fill="#BC9787" d="M234.064,103.894L16,103.953c0-0.288,0-0.577,0-0.867l218-0.06c0,0.29,0,0.974,0,0.974"/>
				<path fill="#B99383" d="M234.431,103.026l-218.284,0.06c-0.001-0.369-0.003-0.74-0.006-1.112l218.283-0.06
					C234.428,102.286,234.43,102.656,234.431,103.026"/>
				<path fill="#B68F7F" d="M234.424,101.914l-218.283,0.06c-0.004-0.384-0.008-0.769-0.014-1.153l218.284-0.061
					C234.417,101.146,234.422,101.53,234.424,101.914"/>
				<path fill="#B48B7A" d="M234.411,100.76L16.127,100.82c-0.007-0.457-0.016-0.915-0.025-1.374l218.284-0.061
					C234.396,99.845,234.404,100.303,234.411,100.76"/>
				<path fill="#B18776" d="M234.386,99.386L16.102,99.446c-0.004-0.2-0.01-0.401-0.015-0.602l218.284-0.06
					C234.377,98.985,234.382,99.186,234.386,99.386"/>
			</g>
			<g clip-path="url(#SVGID_8_)">
				<g>
					<path fill="#8C3AA6" d="M226.764,98.787c0.072,2.789,0.078,5.556,0.025,8.222l-15.741,0.005
						c0.052-2.667,0.046-5.433-0.026-8.223L226.764,98.787"/>
					<path fill="#8C3AA6" d="M195.281,98.796c0.071,2.789,0.078,5.555,0.025,8.222l-15.74,0.005
						c0.051-2.667,0.045-5.434-0.026-8.223L195.281,98.796"/>
					<path fill="#8C3AA6" d="M163.8,98.805c0.071,2.789,0.077,5.555,0.025,8.222l-15.741,0.005c0.053-2.667,0.047-5.434-0.025-8.223
						L163.8,98.805"/>
					<path fill="#8C3AA6" d="M132.317,98.812c0.072,2.79,0.077,5.556,0.025,8.223l-15.741,0.004
						c0.053-2.666,0.047-5.433-0.025-8.222L132.317,98.812"/>
					<path fill="#8C3AA6" d="M100.836,98.821c0.071,2.79,0.077,5.556,0.025,8.223l-15.756,0.004
						c0.053-2.667,0.045-5.433-0.025-8.222L100.836,98.821"/>
					<path fill="#8C3AA6" d="M69.339,98.83c0.071,2.789,0.077,5.556,0.025,8.223l-15.741,0.004c0.052-2.667,0.047-5.433-0.025-8.223
						L69.339,98.83"/>
					<path fill="#8C3AA6" d="M37.856,98.839c0.072,2.789,0.077,5.556,0.025,8.223l-14.169,0.004
						c0.053-2.667,0.047-5.434-0.025-8.223L37.856,98.839"/>
				</g>
				<path fill="#52226A" d="M234.371,98.785c0.072,2.789,0.078,5.555,0.025,8.222l-7.607,0.002c0.053-2.666,0.047-5.433-0.025-8.222
					L234.371,98.785"/>
				<path fill="#52226A" d="M211.021,98.791l-15.74,0.005c0.071,2.789,0.078,5.555,0.025,8.222l15.741-0.004
					C211.1,104.347,211.094,101.581,211.021,98.791 M179.54,98.8l-15.74,0.005c0.071,2.789,0.077,5.555,0.025,8.222l15.741-0.004
					C179.617,104.355,179.611,101.589,179.54,98.8 M148.059,98.809l-15.741,0.004c0.072,2.79,0.077,5.556,0.025,8.223l15.741-0.004
					C148.137,104.364,148.131,101.598,148.059,98.809 M116.577,98.817l-15.741,0.004c0.071,2.79,0.077,5.556,0.025,8.223
					l15.74-0.005C116.654,104.373,116.648,101.606,116.577,98.817 M85.08,98.826L69.339,98.83c0.071,2.789,0.077,5.556,0.025,8.223
					l15.741-0.005C85.158,104.381,85.15,101.615,85.08,98.826 M53.598,98.834l-15.741,0.005c0.072,2.789,0.077,5.556,0.025,8.223
					l15.741-0.005C53.675,104.39,53.67,101.624,53.598,98.834"/>
				<path fill="#52226A" d="M23.688,98.843c0.072,2.789,0.078,5.556,0.025,8.223l-7.601,0.002c0.052-2.667,0.046-5.434-0.025-8.223
					L23.688,98.843"/>
			</g>
		</g>
	</g>
</g>
</svg>
