<?xml version="1.0" encoding="utf-8"?>
<!-- Generator: Adobe Illustrator 16.0.0, SVG Export Plug-In . SVG Version: 6.00 Build 0)  -->
<!DOCTYPE svg PUBLIC "-//W3C//DTD SVG 1.1//EN" "http://www.w3.org/Graphics/SVG/1.1/DTD/svg11.dtd">
<svg version="1.1" id="Layer_1" xmlns="http://www.w3.org/2000/svg" xmlns:xlink="http://www.w3.org/1999/xlink" x="0px" y="0px"
	 width="249.529px" height="249.529px" viewBox="0 0 249.529 249.529" enable-background="new 0 0 249.529 249.529"
	 xml:space="preserve">
<circle fill="#FBFAA9" cx="124.764" cy="124.765" r="124.764"/>
<ellipse fill="#FAFB79" cx="124.765" cy="115.764" rx="108.903" ry="99.746"/>
<ellipse fill="#F6CC47" cx="124.764" cy="115.764" rx="84.588" ry="63.071"/>
<ellipse fill="#E5C82C" cx="124.764" cy="115.764" rx="64.828" ry="48.339"/>
<ellipse fill="#CCA92E" cx="124.764" cy="115.764" rx="46.007" ry="36.402"/>
<path fill="#FFF8A6" d="M24.075,184.322c-2.706,1.108-4.104,3.487-6.313,5.246c-2.191,1.745-4.687,3.174-6.105,5.685
	c-0.947,1.677,1.634,3.185,2.581,1.508c1.17-2.072,3.358-3.316,5.192-4.736c1.832-1.417,3.283-3.937,5.441-4.821
	C26.624,186.484,25.856,183.592,24.075,184.322z"/>
<path fill="#FFF8A6" d="M34.603,195.998c-5.907,4.233-9.264,11.991-12.062,18.464c-0.756,1.748,1.817,3.271,2.579,1.508
	c1.38-3.189,2.89-6.322,4.633-9.329c1.673-2.882,3.596-6.082,6.357-8.062C37.66,197.467,36.17,194.874,34.603,195.998z"/>
<path fill="#FFF8A6" d="M220.177,219.923c-3.406-2.762-6.506-5.866-9.604-8.965c-1.361-1.36-3.475,0.752-2.112,2.113
	c3.099,3.097,6.197,6.202,9.604,8.964C219.546,223.237,221.673,221.134,220.177,219.923z"/>
<path fill="#FFF8A6" d="M227.892,63.086c2.714-1.084,4.133-3.451,6.358-5.19c2.207-1.727,4.715-3.133,6.156-5.631
	c0.961-1.668-1.606-3.198-2.568-1.53c-1.189,2.062-3.388,3.287-5.233,4.691c-1.844,1.4-3.317,3.907-5.483,4.773
	C225.362,60.902,226.104,63.801,227.892,63.086z"/>
<path fill="#FFF8A6" d="M217.467,51.319c5.945-4.182,9.368-11.91,12.224-18.358c0.772-1.742-1.789-3.287-2.565-1.53
	c-1.408,3.177-2.945,6.297-4.716,9.289c-1.698,2.866-3.649,6.05-6.427,8.005C214.423,49.823,215.889,52.428,217.467,51.319z"/>
<path fill="#FFF8A6" d="M32.11,25.759c3.382,2.791,6.454,5.923,9.525,9.049c1.349,1.373,3.48-0.721,2.131-2.095
	c-3.071-3.124-6.143-6.255-9.525-9.048C32.771,22.45,30.626,24.535,32.11,25.759z"/>
</svg>
