<?xml version="1.0" encoding="utf-8"?>
<!-- Generator: Adobe Illustrator 16.0.0, SVG Export Plug-In . SVG Version: 6.00 Build 0)  -->
<!DOCTYPE svg PUBLIC "-//W3C//DTD SVG 1.1//EN" "http://www.w3.org/Graphics/SVG/1.1/DTD/svg11.dtd">
<svg version="1.1" id="Layer_1" xmlns="http://www.w3.org/2000/svg" xmlns:xlink="http://www.w3.org/1999/xlink" x="0px" y="0px"
	 width="700px" height="500px" viewBox="-225.236 -125.235 700 500" enable-background="new -225.236 -125.235 700 500"
	 xml:space="preserve">
<ellipse fill="#FBFAA9" cx="124.766" cy="124.765" rx="349.999" ry="250"/>
<ellipse fill="#FAFB79" cx="124.769" cy="106.728" rx="305.502" ry="199.869"/>
<ellipse fill="#F6CC47" cx="124.766" cy="106.729" rx="237.293" ry="126.38"/>
<ellipse fill="#E5C82C" cx="124.766" cy="106.728" rx="181.859" ry="96.861"/>
<ellipse fill="#CCA92E" cx="124.766" cy="106.729" rx="129.063" ry="72.941"/>
<path fill="#FFF8A6" d="M-157.698,244.104c-7.592,2.219-11.512,6.987-17.709,10.512c-6.147,3.497-13.149,6.359-17.127,11.391
	c-2.657,3.359,4.583,6.383,7.24,3.021c3.282-4.152,9.422-6.645,14.566-9.49c5.14-2.838,9.208-7.889,15.262-9.659
	C-150.547,248.435-152.7,242.64-157.698,244.104z"/>
<path fill="#FFF8A6" d="M-128.162,267.499c-16.572,8.483-25.99,24.028-33.839,36.999c-2.121,3.502,5.098,6.555,7.235,3.021
	c3.87-6.389,8.105-12.668,12.996-18.691c4.692-5.776,10.09-12.187,17.834-16.155C-119.588,270.442-123.769,265.248-128.162,267.499z
	"/>
<path fill="#FFF8A6" d="M392.425,315.439c-9.552-5.533-18.25-11.752-26.939-17.963c-3.82-2.726-9.748,1.507-5.927,4.234
	c8.695,6.206,17.385,12.426,26.944,17.962C390.655,322.082,396.622,317.866,392.425,315.439z"/>
<path fill="#FFF8A6" d="M414.07,1.174c7.612-2.172,11.594-6.916,17.834-10.4c6.191-3.46,13.227-6.278,17.27-11.284
	c2.697-3.342-4.505-6.407-7.203-3.064c-3.335,4.132-9.505,6.586-14.68,9.399c-5.172,2.807-9.306,7.829-15.382,9.564
	C406.971-3.202,409.053,2.605,414.07,1.174z"/>
<path fill="#FFF8A6" d="M384.822-22.404c16.68-8.381,26.28-23.865,34.295-36.786c2.164-3.491-5.02-6.587-7.198-3.066
	c-3.949,6.366-8.259,12.618-13.228,18.613c-4.765,5.743-10.239,12.123-18.03,16.041C376.284-25.402,380.399-20.184,384.822-22.404z"
	/>
<path fill="#FFF8A6" d="M-135.156-73.622c9.487,5.592,18.105,11.868,26.719,18.132c3.786,2.75,9.764-1.445,5.98-4.198
	c-8.616-6.261-17.234-12.534-26.722-18.13C-133.302-80.252-139.321-76.074-135.156-73.622z"/>
</svg>
