<?xml version="1.0" encoding="utf-8"?>
<!-- Generator: Adobe Illustrator 16.0.0, SVG Export Plug-In . SVG Version: 6.00 Build 0)  -->
<!DOCTYPE svg PUBLIC "-//W3C//DTD SVG 1.1//EN" "http://www.w3.org/Graphics/SVG/1.1/DTD/svg11.dtd">
<svg version="1.1" id="Layer_1" xmlns="http://www.w3.org/2000/svg" xmlns:xlink="http://www.w3.org/1999/xlink" x="0px" y="0px"
	 width="249.529px" height="249.529px" viewBox="0 0 249.529 249.529" enable-background="new 0 0 249.529 249.529"
	 xml:space="preserve">
<circle fill="#D0A61D" cx="124.764" cy="124.765" r="124.764"/>
<g>
	<path fill="#EBC414" d="M27.848,115.532c-0.154-0.14-0.321,0.219-0.48,0.09c-0.9-1.095-2.218-1.358-3.776-1.358h-2.147
		c-3.906,0-6.098,3.768-4.327,7.083c0.96,1.791,2.602,2.995,4.572,3.543c2.727,0.757,5.591-0.756,6.944-3.172
		C29.679,119.852,29.5,117.038,27.848,115.532z"/>
	<path fill="#EBC414" d="M20.011,131.958c-0.049-1.131-0.942-2.191-2.146-2.147c-0.152,0.005-0.304,0.022-0.456,0.042
		c-0.642-0.079-1.299,0.11-1.777,0.587c-0.098,0.098-0.196,0.196-0.294,0.294c-0.047,0.042-0.088,0.09-0.134,0.131
		c-0.096,0.098-0.191,0.195-0.287,0.291c-0.479,0.479-0.644,1.146-0.566,1.786c0.005,0.19,0.051,0.364,0.1,0.536
		c0.003,0.001,0.002,0.004,0.003,0.008c0.394,1.326,2.004,2.016,3.411,2.049c1.082,0.027,2.252-1.006,2.146-2.145
		c-0.023-0.254-0.057-0.497-0.115-0.735C19.976,132.438,20.024,132.204,20.011,131.958z"/>
	<path fill="#EBC414" d="M26.264,143.407c-2,0-2,4.294,0,4.294C30.264,147.701,30.264,143.407,26.264,143.407z"/>
</g>
<g>
	<path fill="#EBC414" d="M201.97,162.637c-1.94-0.35-3.992,0.129-5.763,0.92c-0.084,0.042-0.16,0.093-0.242,0.137
		c-0.207,0.102-0.414,0.209-0.609,0.344c-0.068,0.049-0.126,0.111-0.195,0.16c-0.19,0.143-0.381,0.289-0.554,0.459
		c-0.095,0.093-0.174,0.197-0.261,0.301c-1.231,1.375-1.847,3.33-0.99,5.09c1.273,2.607,3.279,4.984,6.375,5.283
		c2.996,0.284,5.534-1.321,7.365-3.566c1.709-2.094,1.289-5.372-0.814-7.037C204.995,163.707,203.603,162.932,201.97,162.637z"/>
	<path fill="#EBC414" d="M224.794,149.448c-4.35,5.484,3.5,11.709,7.85,6.225S229.143,143.963,224.794,149.448z"/>
	<path fill="#EBC414" d="M207.696,186.698c-2.035,0.195-3.649,1.24-4.762,2.703c-0.672,0.309-1.294,0.756-1.795,1.389l-1.779,2.242
		c-1.636,2.062-1.376,5.434,0.813,7.041c2.877,2.109,6.489,2.48,9.821,1.276c3.08-1.116,5.822-3.825,5.868-7.254
		C215.919,189.876,211.919,186.29,207.696,186.698z"/>
	<path fill="#EBC414" d="M196.833,184.706c-1.242,1.568,2.12,4.234,3.363,2.668C202.059,185.022,198.697,182.356,196.833,184.706z"
		/>
	<path fill="#EBC414" d="M173.812,190.7c-1.243,1.567,2.122,4.236,3.365,2.669S175.055,189.134,173.812,190.7z"/>
</g>
</svg>
