<?xml version="1.0" encoding="utf-8"?>
<!-- Generator: Adobe Illustrator 16.0.0, SVG Export Plug-In . SVG Version: 6.00 Build 0)  -->
<!DOCTYPE svg PUBLIC "-//W3C//DTD SVG 1.1//EN" "http://www.w3.org/Graphics/SVG/1.1/DTD/svg11.dtd">
<svg version="1.1" id="Layer_1" xmlns="http://www.w3.org/2000/svg" xmlns:xlink="http://www.w3.org/1999/xlink" x="0px" y="0px"
	 width="53px" height="27.281px" viewBox="0 0 53 27.281" enable-background="new 0 0 53 27.281" xml:space="preserve">
<g>
	<path fill="#FFFFFF" d="M15.021,9.307c-2.283-2.283-4.934-3.647-7.09-3.647c-1.134,0-2.109,0.376-2.819,1.088
		c-0.868,0.868-2.547,3.294-3.558,5.966c-1.835,4.852-0.478,7.613,0.986,9.075c1.22,1.22,2.872,1.864,4.779,1.864
		c4.391,0,9.124-3.299,10.261-4.436C19.71,17.088,18.634,12.919,15.021,9.307z M16.221,17.856c-1.279,1.278-4.498,0.133-7.191-2.56
		c-2.691-2.692-3.838-5.911-2.559-7.189c1.279-1.279,4.498-0.133,7.189,2.56C16.352,13.358,17.499,16.578,16.221,17.856z"/>
	<g>
		<path fill="#FFFFFF" d="M14.52,5.816c-0.342,0-0.683-0.136-0.935-0.405c-0.486-0.516-0.46-1.327,0.056-1.812l2.946-2.768
			c0.515-0.485,1.329-0.462,1.812,0.056c0.485,0.516,0.46,1.327-0.057,1.812l-2.945,2.768C15.15,5.7,14.835,5.816,14.52,5.816z"/>
	</g>
	<g>
		<path fill="#FFFFFF" d="M17.178,9.438c-0.342,0-0.682-0.136-0.934-0.404c-0.486-0.517-0.46-1.328,0.057-1.812l3.74-3.514
			c0.517-0.484,1.328-0.461,1.812,0.057c0.485,0.516,0.459,1.327-0.058,1.812L18.057,9.09C17.808,9.323,17.494,9.438,17.178,9.438z"
			/>
	</g>
	<g>
		<path fill="#FFFFFF" d="M20.63,12.313c-0.342,0-0.682-0.135-0.935-0.404c-0.485-0.516-0.459-1.327,0.058-1.812l2.943-2.767
			c0.516-0.484,1.329-0.461,1.812,0.057c0.486,0.517,0.46,1.327-0.056,1.812l-2.945,2.767C21.262,12.199,20.946,12.313,20.63,12.313
			z"/>
	</g>
</g>
<g>
	<g>
		<path fill="#FFFFFF" d="M36.708,13.865c-1.763-2.316-2.384-4.7-1.326-5.758c1.06-1.06,3.442-0.438,5.758,1.325l1.377-1.376
			c-1.915-1.516-3.951-2.397-5.674-2.397c-1.135,0-2.11,0.376-2.82,1.088c-0.868,0.868-2.547,3.294-3.558,5.966
			c-1.325,3.504-0.982,5.913-0.14,7.535L36.708,13.865z"/>
		<path fill="#FFFFFF" d="M43.853,12.161c1.727,2.297,2.328,4.647,1.279,5.695s-3.398,0.446-5.695-1.278l-6.348,6.347
			c0.932,0.461,1.981,0.728,3.142,0.728c4.391,0,9.124-3.299,10.262-4.436c1.845-1.845,1.279-5.223-1.255-8.441L43.853,12.161z"/>
	</g>
	<g>
		
			<rect x="37.484" y="-1.775" transform="matrix(0.7074 0.7069 -0.7069 0.7074 21.746 -22.8309)" fill="#FFFFFF" width="1.925" height="33.244"/>
	</g>
</g>
</svg>
