<?xml version="1.0" encoding="utf-8"?>
<!-- Generator: Adobe Illustrator 16.0.0, SVG Export Plug-In . SVG Version: 6.00 Build 0)  -->
<!DOCTYPE svg PUBLIC "-//W3C//DTD SVG 1.1//EN" "http://www.w3.org/Graphics/SVG/1.1/DTD/svg11.dtd">
<svg version="1.1" id="Layer_1" xmlns="http://www.w3.org/2000/svg" xmlns:xlink="http://www.w3.org/1999/xlink" x="0px" y="0px"
	 width="4435px" height="1200px" viewBox="0 0 4435 1200" enable-background="new 0 0 4435 1200" xml:space="preserve" class="scene-svg">
    <path class="parallax-item hills1" data-offset="3" fill="#7FA4A5" d="M4885.727,615.122c-0.33-3.735-0.601-7.478-0.85-11.22c0.398-15.438,0.887-30.871,0.625-46.318
    c-0.375-22.009-1.721-43.979-3.287-65.93c0.125-5.585,0.361-11.182,0.676-16.796c0.542-9.602-0.688-20.382-4.455-29.273
    c-1.738-4.106-4.286-8.29-8.587-10.041c-4.324-1.763-9.002-0.562-12.351,2.593c-8.785,8.271-8.282,23.644-9.43,34.711
    c-0.479,4.619,0.103,9.383,0.424,14c0.377,5.428,0.401,10.851,0.681,16.277c0.521,10.152,2.707,20.119,3.568,30.23
    c0.77,9.043,0.061,18.061-6.845,24.686c-0.771,0.742-1.648,1.473-2.6,2.146c-1.878,0.666-3.92,1.045-6.095,1.091
    c-2.622,0.054-5.931,0.318-8.167-0.454c-0.626-0.217-1.338-0.678-2.07-1.252c-1.09-1.349-1.906-2.928-2.372-4.54
    c-1.12-3.879-1.089-8.354-1.394-12.366c-0.421-5.572-0.655-11.161-1.257-16.718c-0.615-5.667-1.322-11.352-3.021-16.814
    c-0.706-2.271-1.596-4.487-2.67-6.547c-3.082-8.365-9.518-15.927-18.802-15.669c-6.917,0.191-11.509,4.791-14.666,10.558
    c0.012,12.165,0.225,24.328,0.81,36.481c1.043,21.667,1.948,43.188,1.546,64.895c-0.094,5.06-0.205,10.115-0.326,15.17
    c-8.568,4.827-21.779,7.293-22.282-22.942c-0.729-43.681-5.319-87.169-8.029-130.745c-0.811-13.014-6.688-44.138-9.917-45.46
    c-12.916-5.29-27.932-3.383-39.957,3.226c-12.67,6.963-15.957,22.593-15.479,35.988c0.572,16.094,1.095,32.24,2.144,48.313
    c1.5,22.964,3.831,46.015,4.189,69.066c-1.549,7.188-2.667,14.427-4.558,21.548c-1.349,5.081-3.583,12.785-10.054,12.243
    c-6.887-0.58-9.73-9.787-10.517-15.521c-1.251-9.135-0.459-18.637-0.816-27.844c-0.392-10.037-1.156-20.022-2.292-30.004
    c-1.089-9.574-0.306-19.225-0.26-28.834c0.044-9.443-0.558-18.888-0.709-28.33c-0.166-10.332-1.235-20.855-2.434-31.113
    c-0.49-4.201-1.008-8.164-1.188-12.392c-0.194-4.559-0.789-9.217-3.19-13.18c-0.312-0.514-0.654-0.967-1.02-1.369
    c-0.412-1.194-0.851-2.389-1.353-3.574c-4.67-11.057-15.813-23.924-29.375-19.979c-9.209,2.677-13.826,12.534-16.019,21.216
    c-4.776,18.917-3.463,39.422-1.673,58.702c0.833,8.972,1.232,17.973,1.932,26.956c0.703,9.051,2.481,17.932,3.386,26.94
    c1.691,16.795,3.128,33.56,2.421,50.455c-0.477,11.319-1.474,26.946-11.974,33.617c-14.981,9.521-12.596-17.479-12.811-25.065
    c-1.087-38.438-0.099-76.897-2.123-115.309c-1.01-19.137-1.679-38.278-1.809-57.438c-0.081-11.885-0.53-23.672-3.052-35.319
    c-2.16-9.978-8.796-23.629-20.505-24.53c-11.459-0.88-16.863,11.211-19.612,20.374c-3.632,12.102-4.461,24.737-4.961,37.312
    c-0.678,17.054-0.508,34.146-0.215,51.214c-0.042,0.688-0.024,1.372,0.036,2.056c0.026,1.479,0.052,2.955,0.079,4.432
    c0.064,3.497,0.084,6.995,0.085,10.495c-0.374,1.495-0.843,2.926-1.39,4.16c-1.408,3.186-3.444,5.481-6.467,5.45
    c-3.02-0.03-6.646-1.456-8.476-3.957c-7.448-10.171-2.812-25.58-5.802-37.159c-2.168-8.398-8.202-14.103-16.938-14.271
    c-7.785-0.154-13.316,6.002-15.196,13.125c-2.257,8.56-1.06,17.941-0.833,26.708c0.27,10.342,0.204,20.686,0.448,31.026
    c0.25,10.565,1.307,20.993,1.313,31.568c0.004,4.833,0.121,9.651,0.258,14.471c-1.157,3.109-1.809,6.551-2.185,10.252
    c-0.605,5.957-0.083,12.474,0.077,18.468c0.188,7.03,0.38,14.077,0.71,21.103c0.645,13.71,0.843,27.519,0.7,41.235
    c-0.046,4.348-0.49,8.406-1.264,12.66c-0.684,3.764-2.401,9.263-5.69,11.65c-1.074,0.78-4.01,2.062-5.308,2.351
    c-1.324,0.293-2.794-0.19-4.17,0.065c-1.166,0.22-1.72,0.677-2.902,0.531c-4.701-0.579-8.348-2.473-10.275-6.774
    c-2.489-5.551-2.062-12.218-2.66-18.299c-0.729-7.425-1.086-15.017-1.245-22.48c-0.298-14.112-0.274-28.229-0.518-42.342
    c-0.25-14.609-0.746-29.168-1.342-43.763c-0.58-14.217-2.522-28.473-3.786-42.646c-1.207-13.576-0.63-27.009-3.253-40.432
    c-1.654-8.468-6.935-17.432-13.056-23.509c-5.894-5.848-13.482-10.04-21.733-9.309c-9.748,0.862-16.604,8.623-20.128,17.539
    c-4.187,10.588-4.621,23.326-3.865,34.553c0.853,12.645,2.057,25.25,2.618,37.923c1.188,26.838-2.135,53.515-0.651,80.347
    c1.453,26.254,6.488,52.915,5.074,79.215c-0.277,5.172-0.123,10.159-3.639,14.196c-2.517,2.892-6.273,4.296-10.057,2.263
    c-3.895-2.096-5.792-7.116-6.319-11.236c-0.738-5.754-0.209-11.774-0.472-17.569c-1.263-28.054-2.508-56.161-2.775-84.267
    c-0.138-14.385,0.091-28.709,0.314-43.088c0.104-6.543,0.153-13.053,0.029-19.596c-0.138-7.224-1.281-14.338-1.667-21.54
    c-0.621-11.584-0.289-23.001-2.229-34.454c-1.533-9.037-3.849-17.604-11.938-22.859c-17.432-11.328-39.891,1.475-46.562,19.119
    c-1.887,4.986-2.704,11.274-3.348,16.563c-0.748,6.15-1.431,12.404-1.511,18.604c-0.165,12.804-1.308,25.536-1.755,38.331
    c-0.471,13.41-0.13,26.96,0.008,40.379c0.141,13.727,1.576,27.463,1.47,41.167c-0.036,4.851-0.597,9.012-5.07,11.489
    c-1.36,0.752-0.584,1.245-2.192,1.305c-0.626,0.021-3.343-1.135-3.952-1.428c-2.242-1.069-3.979-4.293-5.156-6.562
    c-5.523-10.659-6.602-25.047-7.445-36.787c-0.997-13.872-1.134-27.783-0.872-41.693c0.195-10.347,1.39-21.646-2.408-31.52
    c-5.366-13.947-18.528-32.525-35.513-24.205c-3.622,1.775-7.48,5.787-9.616,9.164c-3.238,5.122-4.76,9.587-5.908,15.52
    c-2.356,12.181-2.92,24.416-3.12,36.842c-0.105,6.568-0.37,13.615-1.993,20.012c-0.979,3.861-2.606,7.807-6.062,9.652
    c-2.554,1.362-3.663,1.718-6.388,1.388c-3.498-0.424-3.393,0.621-5.704-2.138c-1.689-2.019-1.989-2.844-2.821-5.533
    c-0.782-2.525-1.345-5.029-1.906-7.649c-1.33-6.222-1.994-12.153-1.612-18.538c0.334-5.609,0.204-11.393-0.404-16.979
    c-1-9.182-2.994-19.501-8.113-27.25c-5.239-7.93-15.426-8.545-23.732-4.872c-8.537,3.777-16.03,10.625-22.339,17.364
    c-16.383,17.501-19.254,42.912-21.188,65.902c-0.064,0.78-0.119,1.562-0.179,2.342c-0.114,0.175-0.232,0.346-0.343,0.522
    c-5.796,9.371-4.934,20.517-4.082,31.198c0.896,11.255,2.434,25.497-5.18,34.924c-2.275,2.816-5.906,5.181-9.357,5.748
    c-4.432,0.734-7.369,0.004-11.348-1.98c-9.163-4.569-11.479-15.229-13.214-24.707c-2.31-12.612-3.75-25.347-6.263-37.93
    c-0.061-3.181-0.132-6.361-0.21-9.542c-0.576-23.099,3.005-48.334-3.544-70.928c-0.077-0.761-0.301-1.456-0.637-2.075
    c-0.271-0.849-0.554-1.693-0.856-2.534c-4.822-13.376-17.581-34.938-34.864-27.438c-9.652,4.188-12.691,12.442-12.729,22.375
    c-0.052,13.405-1.852,26.637-1.392,40.071c0.506,14.744,1.998,29.431,2.687,44.164c0.478,10.223,0.69,20.17,1.903,30.331
    c1.067,8.939,2.47,18.614,0.19,27.462c-1.382,5.371-5.702,11.396-11.752,11.838c-8.427,0.614-11.474-13.5-12.954-19.567
    c-3.188-13.06-4.136-26.642-4.583-40.042c-0.415-12.445-0.528-24.801-1.146-37.243c-0.709-14.235-1-28.488-1.674-42.724
    c-0.668-14.128-3-28.094-4.571-42.143c-1.543-13.786-2.586-27.645-2.507-41.522c0.076-13.55-1.963-26.771-2.459-40.252
    c-0.62-16.856-4.037-50.701-28.984-46.445c-24.429,4.167-23.604,37.888-23.065,56.358c0.396,13.585,2.205,27.076,2.694,40.655
    c0.501,13.916-0.131,27.851,0.545,41.766c0.593,12.179,5.227,26.166,0.229,37.992c-1.143,2.705-4.068,8.145-7.026,9.132
    c-0.229,0.075-0.396,0.146-0.521,0.209c0.068-0.156,0.103-0.392,0.019-0.726c-0.732-2.947-1.252-6.05-1.891-9.051
    c-2.799-13.171-2.675-26.816-3.056-40.226c-0.259-9.12-0.978-18.249-1.954-27.319c-1.549-14.39-4.381-34.257-19.991-40.077
    c-15.686-5.847-24.979,7.382-27.653,21.183c-2.819,14.546-1.943,29.327-1.905,44.049c0.034,13.59,0.638,27.213,1.75,40.758
    c0.242,2.943,0.571,5.906,0.931,8.878c-0.885,1.132-1.32,2.644-0.909,4.437c3.066,13.288,0.97,26.702,1.528,40.158
    c0.368,8.871,3.162,21.342-3.647,28.454c-5.092,5.318-13.221,7.916-20.277,8.382c-2.258,0.15-3.666,0.264-5.904,0.092
    c-0.978-0.074-2.062,0.469-2.954,0.357c-0.913-0.115-1.576-0.781-2.489-0.924c-0.85-0.136-1.618,0.29-2.44,0.073
    c-0.98-0.263-2.003-1.084-2.977-1.462c-0.679-0.267-1.169,0.107-1.845-0.181c-0.55-0.235-2.965-1.583-3.368-1.915
    c-3.07-2.531-5.128-7.826-6.181-11.69c-1.438-5.28-2.381-10.869-3.009-16.297c-0.769-6.646-1.264-12.872-1.161-19.589
    c0.079-5.127,0.701-10.293,1.25-15.346c1.331-12.275,1.117-26.125-3.58-37.638c-0.625-1.53-1.373-3.053-2.255-4.489
    c-0.148-2.338-0.301-4.676-0.446-7.015c-1.737-27.922-2.018-55.774-5.36-83.569c-1.126-9.362-1.868-19.634-7.31-27.658
    c-5.145-7.588-16.237-14.268-23.88-5.944c-2.958,3.222-4.271,7.83-5.262,11.988c-1.49,6.248-2.98,12.526-4.52,18.775
    c-3.49,14.161-5.114,28.551-5.323,43.119c-0.385,26.721,1.275,53.274,2.896,79.911c0.097,7.097-0.271,14.201-1.933,20.888
    c-0.775,3.125-2.031,6.346-4.22,8.672c-3.09,0.23-6.079,1.287-8.235,3.29c-4.506-0.188-9.089-2.814-11.467-6.436
    c-3.618-5.511-3.021-11.151-2.662-17.412c0.38-6.655-0.688-13.293-1.19-19.946c0.218-6.624,0.358-13.247,0.386-19.866
    c0.05-12.729-0.414-25.623-1.937-38.271c-1.386-11.521-2.931-22.947-6.812-33.935c-1.959-5.543-4.192-10.59-7.687-15.327
    c-3.247-4.402-7.694-7.327-12.601-9.603c-8.717-4.043-19.606-2.416-25.544,5.443c-4.966,6.568-8.007,15.792-9,23.92
    c-1.554,12.696-0.797,25.211,0.516,37.896c0.721,6.956,1.875,13.86,2.589,20.817c0.708,6.896,0.7,13.759,0.892,20.678
    c0.37,13.485,1.845,26.906,3.038,40.335c0.518,5.812,0.949,11.625,1.341,17.442c-0.12,9.5,0.118,19.045,0.2,28.498
    c0.113,13.163-0.189,26.331,0.941,39.463c0.1,1.166,0.186,2.332,0.263,3.496c-0.653,2.438-1.509,4.797-2.658,7.008
    c-0.965,1.85-2.701,4.517-4.83,6.563c-1.021,0.123-2.042,0.244-3.062,0.363c-1.818,0.216-4.537,0.603-7.109,0.68
    c-2.399-2.438-3.747-6.607-4.612-9.407c-1.513-4.896-2.506-9.97-3.045-15.064c-1.019-9.612-1.092-19.375-1.434-29.028
    c-0.355-10.147-1.26-20.13-2.167-30.229c-0.83-9.226-1.768-18.808-3.69-27.877c-1.433-6.747-6.711-14.394-14.257-14.941
    c-3.107-0.225-5.467,0.643-7.286,2.198c-0.955,0.197-1.873,0.534-2.625,1.132c-2.84,2.269-3.361,5.029-3.716,8.33
    c-0.562,5.205-1.64,10.371-1.951,15.561c-0.203,3.37-0.291,6.741-0.312,10.118c-1.081,8.341-0.739,17.045-1.161,25.217
    c-0.005,0.086-0.007,0.171-0.012,0.259c-1.491,1.676-2.177,4.157-1.021,6.764c0.215,0.484,0.42,0.974,0.615,1.464
    c0.02,0.062,0.035,0.128,0.055,0.19c-0.326,9.444-0.412,18.908-0.354,28.36c-1.014,7.221-1.08,15.615-5.614,21.547
    c-3.401,4.453-8.898,3.9-13.217,1.271c-1.841-2.238-2.666-5.065-3.962-7.752c-3.854-7.99-2.369-17.868-2.767-26.461
    c-0.453-9.833-2.061-19.615-2.286-29.446c-0.238-10.234-0.124-20.471-0.044-30.705c0.156-20.221,0.036-40.479-3.244-60.481
    c-1.815-11.07-4.902-25.435-14.806-32.23c-4.498-3.086-10.134-3.612-15.152-1.379c-3.307,1.472-5.312,4.444-6.637,7.744
    c-5.609,7.215-6.24,17.571-6.19,26.759c0.072,13.236-0.294,26.498-0.637,39.755c-0.205,2.747-0.439,5.493-0.729,8.237
    c-1.032,9.814-2.161,20.809-6.7,29.734c-0.272,0.535-0.582,1.11-0.93,1.688c-1.382,0.443-2.777,0.842-4.163,1.225
    c-2.157,0.594-4.368,1.136-6.603,1.363c-2.384-1.998-4.121-5.197-4.946-7.69c-3.875-11.72-1.21-25.167-2.079-37.271
    c-0.868-12.091-6.742-26.73-21.483-25.611c-1.221,0.093-2.283,0.384-3.218,0.82c-1.412-0.271-2.891-0.379-4.438-0.282
    c-16.352,1.024-17.021,24.243-16.83,36.188c0.072,4.476,0.45,8.856,0.195,13.35c-0.26,4.602-0.752,9.185-1.047,13.78
    c-0.618,9.664-0.338,19.429-0.303,29.112c0.038,10.965,0.023,21.929,0.002,32.894c-2.082,6.266-5.289,12.022-10.6,15.383
    c-2.713,1.719-5.75,2.577-8.814,2.717c-0.177-0.018-0.353-0.032-0.528-0.049c-1.64-0.141-3.306-0.279-4.962-0.469
    c-3.816-0.902-7.4-2.893-10.149-5.763c-4.606-4.806-7.108-11.368-8.748-17.886c-0.041-1.052-0.079-2.103-0.124-3.153
    c-0.337-7.756-0.74-15.508-1.156-23.258c-0.012-18.598,0.233-37.204,0.545-55.781c0.459-27.462,1.963-54.95-0.073-82.385
    c-1.267-17.048-0.482-42.935-19.136-51.126c-7.903-3.472-17.609-1.715-24.316,3.247c-5.73,4.238-8.652,11.506-9.764,18.375
    c-0.578,3.564-0.901,7.146-1.08,10.738c-0.502,2.056-0.883,3.915-1.142,5.438c-1.174,6.883-1.18,13.825-1.138,20.785
    c0.044,7.162-0.583,14.098-1.161,21.218c-1.119,13.792-0.012,27.288,0.791,41.045c0.47,8.042,0.853,16.085,1.013,24.132
    c-4.854,21.217,1.793,44.221-3.259,65.438c-0.427,1.795-0.952,3.646-1.618,5.454c-1.894,1.297-4.082,1.719-6.826,1.004
    c-4.436-1.155-6.479-5.374-7.713-9.94c-0.369-14.793-1.338-29.563-1.89-44.349c-0.492-13.174,0.836-26.912-2.674-39.738
    c-0.271-2.318-0.603-4.635-1.032-6.948c-1.43-7.708-4.143-14.448-10.322-19.585c-5.082-4.224-11.795-6.33-18.119-3.615
    c-15.35,6.592-14.523,26.404-15.096,40.181c-0.177,4.285-0.938,8.513-0.947,12.812c-0.015,4.963,0.562,9.911,1.254,14.813
    c0.188,3.153,0.576,6.337,1.356,9.362c0.976,6.764,1.871,13.521,2.277,20.373c0.778,13.101,2.145,36.836-13.78,41.886
    c-5.37,1.7-11.572-0.062-14.075-5.391c-1.661-3.536-1.561-7.566-1.899-11.399c-0.329-3.735-0.601-7.478-0.85-11.221
    c0.399-15.438,0.889-30.87,0.625-46.317c-0.375-22.009-1.721-43.979-3.285-65.931c0.125-5.584,0.359-11.181,0.676-16.795
    c0.541-9.602-0.689-20.382-4.455-29.273c-1.739-4.106-4.287-8.29-8.588-10.041c-4.324-1.763-9.002-0.562-12.351,2.593
    c-8.784,8.271-8.282,23.644-9.429,34.711c-0.479,4.619,0.102,9.382,0.424,14c0.378,5.427,0.403,10.851,0.682,16.277
    c0.519,10.151,2.707,20.119,3.567,30.229c0.771,9.045,0.062,18.062-6.843,24.687c-0.771,0.742-1.65,1.473-2.6,2.146
    c-1.879,0.667-3.92,1.047-6.096,1.092c-1.772,0.036-3.852,0.162-5.708,0.005c-1.69-33.681-4.9-67.287-6.993-100.944
    c-0.811-13.014-6.688-44.138-9.918-45.46c-12.915-5.29-27.931-3.383-39.956,3.227c-12.671,6.961-15.957,22.592-15.479,35.987
    c0.572,16.095,1.095,32.24,2.145,48.313c1.501,22.964,3.831,46.015,4.188,69.066c-1.548,7.188-2.667,14.428-4.558,21.549
    c-1.349,5.08-3.582,12.784-10.054,12.242c-6.888-0.58-9.73-9.787-10.518-15.521c-1.251-9.134-0.458-18.636-0.816-27.845
    c-0.392-10.036-1.155-20.021-2.291-30.002c-1.09-9.575-0.306-19.226-0.26-28.834c0.045-9.444-0.558-18.889-0.708-28.33
    c-0.167-10.332-1.236-20.856-2.436-31.114c-0.489-4.201-1.008-8.164-1.188-12.392c-0.193-4.559-0.788-9.217-3.188-13.18
    c-0.312-0.514-0.655-0.967-1.02-1.369c-0.413-1.195-0.854-2.389-1.354-3.574c-4.67-11.057-15.814-23.924-29.375-19.979
    c-9.211,2.677-13.826,12.534-16.02,21.216c-4.775,18.917-3.462,39.422-1.674,58.702c0.833,8.972,1.232,17.973,1.933,26.956
    c0.703,9.051,2.481,17.932,3.386,26.941c1.691,16.793,3.129,33.559,2.422,50.455c-0.477,11.318-1.474,26.945-11.975,33.616
    c-14.98,9.521-12.596-17.479-12.811-25.065c-1.086-38.438-0.1-76.897-2.123-115.309c-1.009-19.137-1.678-38.278-1.809-57.438
    c-0.082-11.884-0.53-23.672-3.052-35.319c-2.161-9.978-8.798-23.629-20.505-24.53c-11.46-0.88-16.863,11.211-19.612,20.374
    c-3.632,12.101-4.461,24.737-4.961,37.312c-0.679,17.054-0.508,34.146-0.216,51.214c-0.042,0.687-0.023,1.372,0.037,2.056
    c0.025,1.479,0.051,2.955,0.078,4.432c0.064,3.498,0.084,6.996,0.086,10.494c-0.375,1.496-0.846,2.927-1.391,4.162
    c-1.408,3.185-3.445,5.48-6.467,5.449c-3.02-0.029-6.646-1.456-8.479-3.957c-7.446-10.171-2.811-25.58-5.799-37.158
    c-2.168-8.399-8.204-14.104-16.938-14.272c-7.784-0.154-13.315,6.002-15.195,13.125c-2.258,8.56-1.061,17.942-0.833,26.708
    c0.271,10.342,0.204,20.686,0.449,31.027c0.25,10.564,1.307,20.992,1.312,31.567c0.003,4.833,0.121,9.651,0.257,14.472
    c-1.155,3.108-1.808,6.55-2.185,10.25c-0.606,5.957-0.083,12.475,0.078,18.469c0.188,7.031,0.38,14.077,0.711,21.103
    c0.644,13.71,0.842,27.519,0.698,41.235c-0.045,4.348-0.489,8.406-1.264,12.66c-0.683,3.764-2.4,9.263-5.688,11.65
    c-1.073,0.78-4.011,2.062-5.31,2.351c-1.322,0.293-2.794-0.19-4.17,0.065c-1.166,0.221-1.72,0.676-2.9,0.531
    c-4.701-0.579-8.35-2.473-10.277-6.773c-2.488-5.552-2.062-12.219-2.658-18.3c-0.729-7.425-1.088-15.017-1.245-22.48
    c-0.3-14.112-0.273-28.229-0.516-42.341c-0.25-14.61-0.746-29.17-1.343-43.764c-0.58-14.217-2.523-28.473-3.785-42.646
    c-1.208-13.576-0.631-27.008-3.254-40.432c-1.653-8.468-6.935-17.432-13.055-23.509c-5.895-5.848-13.482-10.04-21.733-9.309
    c-9.748,0.862-16.604,8.623-20.128,17.539c-4.186,10.588-4.621,23.327-3.865,34.553c0.854,12.646,2.059,25.25,2.618,37.923
    c1.188,26.838-2.134,53.516-0.649,80.348c1.452,26.252,6.486,52.914,5.073,79.215c-0.278,5.171-0.124,10.158-3.641,14.195
    c-2.517,2.892-6.272,4.297-10.056,2.263c-3.896-2.096-5.793-7.116-6.32-11.236c-0.738-5.754-0.21-11.774-0.473-17.569
    c-1.262-28.054-2.507-56.161-2.774-84.267c-0.138-14.384,0.091-28.709,0.315-43.088c0.102-6.543,0.151-13.052,0.026-19.595
    c-0.137-7.225-1.28-14.339-1.668-21.541c-0.618-11.584-0.288-23-2.229-34.455c-1.532-9.036-3.849-17.603-11.937-22.858
    c-17.433-11.328-39.892,1.475-46.562,19.119c-1.887,4.987-2.705,11.274-3.35,16.563c-0.747,6.15-1.431,12.404-1.511,18.604
    c-0.165,12.804-1.308,25.536-1.755,38.331c-0.472,13.409-0.13,26.96,0.007,40.379c0.142,13.727,1.577,27.463,1.47,41.167
    c-0.037,4.851-0.597,9.012-5.069,11.49c-1.36,0.752-0.585,1.244-2.191,1.304c-0.627,0.022-3.345-1.135-3.952-1.427
    c-2.241-1.07-3.979-4.293-5.156-6.563c-5.524-10.659-6.603-25.047-7.446-36.787c-0.997-13.872-1.133-27.782-0.871-41.693
    c0.194-10.347,1.389-21.646-2.408-31.52c-5.364-13.946-18.525-32.524-35.514-24.205c-3.621,1.775-7.481,5.787-9.615,9.164
    c-3.237,5.122-4.761,9.587-5.907,15.52c-2.357,12.181-2.922,24.417-3.121,36.842c-0.105,6.569-0.371,13.616-1.992,20.012
    c-0.979,3.861-2.606,7.808-6.062,9.652c-2.553,1.362-3.662,1.718-6.388,1.388c-3.499-0.424-3.394,0.621-5.703-2.138
    c-1.689-2.019-1.989-2.845-2.821-5.533c-0.781-2.525-1.347-5.029-1.905-7.649c-1.331-6.222-1.994-12.153-1.614-18.537
    c0.336-5.61,0.205-11.394-0.402-16.979c-1-9.181-2.994-19.501-8.113-27.25c-5.239-7.93-15.427-8.545-23.731-4.872
    c-8.537,3.777-16.029,10.625-22.339,17.364c-16.385,17.501-19.254,42.912-21.188,65.903c-0.064,0.779-0.118,1.561-0.179,2.342
    c-0.114,0.174-0.232,0.345-0.343,0.521c-5.798,9.371-4.935,20.518-4.083,31.198c0.896,11.255,2.434,25.497-5.18,34.924
    c-2.274,2.816-5.906,5.181-9.357,5.748c-4.43,0.734-7.368,0.004-11.346-1.979c-9.163-4.57-11.479-15.229-13.215-24.707
    c-2.31-12.613-3.75-25.348-6.265-37.931c-0.06-3.181-0.131-6.361-0.209-9.542c-0.575-23.099,3.005-48.334-3.545-70.928
    c-0.075-0.761-0.3-1.456-0.635-2.075c-0.272-0.849-0.555-1.694-0.856-2.534c-4.822-13.376-17.582-34.938-34.863-27.438
    c-9.653,4.188-12.693,12.443-12.731,22.375c-0.052,13.406-1.851,26.637-1.391,40.072c0.506,14.744,1.999,29.43,2.687,44.164
    c0.479,10.222,0.69,20.169,1.903,30.33c1.067,8.939,2.47,18.614,0.19,27.463c-1.384,5.371-5.701,11.395-11.752,11.837
    c-8.429,0.614-11.475-13.5-12.953-19.567c-3.188-13.061-4.139-26.643-4.584-40.042c-0.415-12.445-0.527-24.801-1.146-37.243
    c-0.709-14.234-1.001-28.488-1.674-42.724c-0.668-14.128-3-28.095-4.572-42.143c-1.543-13.786-2.587-27.645-2.508-41.522
    c0.077-13.549-1.962-26.771-2.458-40.252c-0.621-16.856-4.038-50.701-28.986-46.445c-24.428,4.167-23.603,37.888-23.063,56.358
    c0.394,13.585,2.205,27.075,2.693,40.655c0.502,13.916-0.132,27.85,0.545,41.765c0.593,12.179,5.228,26.166,0.229,37.993
    c-1.143,2.703-4.069,8.144-7.027,9.131c-0.229,0.076-0.395,0.146-0.52,0.209c0.068-0.156,0.103-0.391,0.018-0.725
    c-0.73-2.948-1.252-6.051-1.889-9.052c-2.801-13.171-2.676-26.816-3.059-40.226c-0.259-9.12-0.978-18.249-1.953-27.319
    c-1.551-14.39-4.382-34.257-19.992-40.077c-15.687-5.847-24.979,7.383-27.652,21.183c-2.819,14.546-1.943,29.327-1.906,44.049
    c0.034,13.59,0.639,27.213,1.752,40.758c0.242,2.943,0.57,5.906,0.932,8.878c-0.888,1.132-1.322,2.645-0.909,4.436
    c3.065,13.289,0.971,26.703,1.528,40.159c0.367,8.871,3.162,21.341-3.648,28.454c-5.091,5.318-13.218,7.916-20.275,8.383
    c-2.258,0.149-3.666,0.263-5.904,0.092c-0.979-0.075-2.062,0.468-2.954,0.356c-0.913-0.114-1.577-0.78-2.489-0.924
    c-0.85-0.136-1.619,0.29-2.441,0.073c-0.979-0.262-2.002-1.084-2.978-1.462c-0.679-0.267-1.169,0.107-1.843-0.181
    c-0.551-0.235-2.967-1.583-3.369-1.914c-3.07-2.532-5.127-7.826-6.179-11.691c-1.439-5.28-2.382-10.869-3.009-16.297
    c-0.77-6.646-1.265-12.872-1.161-19.588c0.077-5.127,0.7-10.293,1.25-15.347c1.329-12.274,1.116-26.125-3.58-37.638
    c-0.625-1.53-1.374-3.053-2.255-4.489c-0.15-2.338-0.301-4.676-0.446-7.015c-1.737-27.922-2.019-55.774-5.361-83.569
    c-1.126-9.362-1.868-19.634-7.309-27.658c-5.146-7.588-16.238-14.268-23.879-5.944c-2.958,3.222-4.271,7.83-5.263,11.988
    c-1.49,6.248-2.98,12.526-4.521,18.775c-3.49,14.161-5.114,28.551-5.324,43.119c-0.383,26.721,1.276,53.275,2.897,79.911
    c0.095,7.097-0.272,14.201-1.934,20.888c-0.774,3.125-2.031,6.346-4.219,8.672c-3.089,0.23-6.08,1.287-8.236,3.29
    c-4.506-0.187-9.089-2.814-11.467-6.436c-3.619-5.511-3.02-11.151-2.662-17.412c0.38-6.655-0.688-13.293-1.189-19.946
    c0.218-6.624,0.359-13.247,0.386-19.866c0.05-12.729-0.415-25.622-1.937-38.271c-1.386-11.521-2.93-22.947-6.812-33.935
    c-1.959-5.543-4.192-10.59-7.688-15.327c-3.246-4.402-7.694-7.326-12.6-9.603c-8.718-4.043-19.606-2.416-25.545,5.443
    c-4.964,6.567-8.007,15.792-9,23.92c-1.554,12.696-0.798,25.211,0.516,37.896c0.722,6.956,1.875,13.86,2.589,20.817
    c0.709,6.896,0.7,13.759,0.891,20.678c0.372,13.485,1.846,26.906,3.039,40.335c0.517,5.812,0.949,11.625,1.341,17.442
    c-0.121,9.5,0.118,19.045,0.2,28.498c0.113,13.163-0.189,26.331,0.94,39.463c0.102,1.166,0.187,2.332,0.265,3.496
    c-0.655,2.439-1.51,4.797-2.66,7.008c-0.963,1.85-2.7,4.518-4.829,6.564c-1.022,0.121-2.043,0.244-3.062,0.362
    c-1.819,0.216-4.537,0.603-7.11,0.681c-2.398-2.438-3.746-6.608-4.61-9.408c-1.513-4.896-2.507-9.969-3.046-15.064
    c-1.018-9.611-1.092-19.375-1.432-29.029c-0.357-10.146-1.261-20.129-2.168-30.229c-0.83-9.226-1.768-18.808-3.691-27.877
    c-1.432-6.747-6.71-14.393-14.256-14.941c-3.107-0.225-5.469,0.643-7.287,2.198c-0.956,0.197-1.873,0.534-2.625,1.132
    c-2.84,2.269-3.36,5.029-3.717,8.33c-0.56,5.205-1.639,10.371-1.95,15.561c-0.203,3.37-0.291,6.742-0.312,10.117
    c-1.081,8.342-0.74,17.046-1.16,25.218c-0.004,0.086-0.008,0.171-0.013,0.259c-1.491,1.676-2.177,4.157-1.021,6.764
    c0.215,0.484,0.42,0.974,0.615,1.464c0.02,0.062,0.035,0.128,0.055,0.19c-0.326,9.445-0.413,18.908-0.354,28.359
    c-1.014,7.222-1.08,15.616-5.612,21.549c-3.402,4.451-8.899,3.899-13.218,1.27c-1.841-2.238-2.665-5.065-3.961-7.752
    c-3.854-7.99-2.369-17.868-2.767-26.461c-0.454-9.833-2.062-19.615-2.287-29.446c-0.237-10.234-0.123-20.471-0.043-30.704
    c0.156-20.222,0.037-40.48-3.244-60.482c-1.816-11.07-4.902-25.434-14.807-32.23c-4.498-3.086-10.133-3.612-15.151-1.379
    c-3.308,1.473-5.312,4.444-6.638,7.744c-5.61,7.215-6.239,17.571-6.19,26.759c0.072,13.236-0.294,26.498-0.636,39.755
    c-0.206,2.747-0.439,5.493-0.729,8.237c-1.033,9.814-2.162,20.81-6.7,29.734c-0.273,0.534-0.582,1.11-0.929,1.688
    c-1.383,0.443-2.778,0.843-4.164,1.226c-2.158,0.593-4.369,1.135-6.604,1.362c-2.384-1.998-4.12-5.198-4.945-7.69
    c-3.875-11.719-1.211-25.167-2.08-37.271c-0.867-12.091-6.741-26.73-21.483-25.612c-1.22,0.094-2.282,0.385-3.218,0.821
    c-1.412-0.271-2.891-0.379-4.438-0.282c-16.351,1.024-17.021,24.243-16.831,36.188c0.072,4.477,0.45,8.855,0.195,13.35
    c-0.261,4.602-0.751,9.185-1.046,13.78c-0.62,9.664-0.34,19.429-0.306,29.112c0.04,10.965,0.024,21.929,0.003,32.894
    c-2.082,6.267-5.289,12.022-10.6,15.384c-2.714,1.718-5.749,2.576-8.814,2.716c-0.177-0.018-0.353-0.032-0.529-0.048
    c-1.639-0.142-3.305-0.28-4.963-0.47c-3.815-0.901-7.399-2.893-10.148-5.763c-4.605-4.805-7.109-11.368-8.748-17.886
    c-0.041-1.052-0.079-2.103-0.124-3.153c-0.337-7.756-0.741-15.508-1.156-23.258c-0.012-18.598,0.234-37.204,0.546-55.781
    c0.459-27.462,1.963-54.95-0.074-82.385c-1.267-17.048-0.481-42.935-19.135-51.126c-7.903-3.472-17.609-1.715-24.316,3.247
    c-5.731,4.238-8.651,11.506-9.765,18.375c-0.577,3.564-0.901,7.146-1.079,10.738c-0.502,2.056-0.883,3.916-1.142,5.438
    c-1.174,6.883-1.18,13.825-1.139,20.785c0.044,7.162-0.583,14.098-1.161,21.218c-1.119,13.792-0.012,27.288,0.792,41.045
    c0.471,8.042,0.854,16.085,1.011,24.132c-4.854,21.218,1.793,44.222-3.258,65.438c-0.427,1.795-0.952,3.646-1.618,5.454
    c-1.894,1.297-4.083,1.719-6.826,1.004c-4.435-1.155-6.479-5.374-7.713-9.94c-0.369-14.793-1.337-29.563-1.89-44.349
    c-0.492-13.174,0.835-26.912-2.674-39.738c-0.271-2.319-0.603-4.635-1.032-6.948c-1.431-7.707-4.142-14.447-10.322-19.585
    c-5.083-4.224-11.795-6.329-18.12-3.614c-15.35,6.591-14.522,26.403-15.095,40.18c-0.178,4.285-0.938,8.513-0.949,12.812
    c-0.014,4.961,0.563,9.91,1.256,14.812c0.188,3.154,0.575,6.337,1.356,9.363c0.975,6.763,1.871,13.521,2.277,20.372
    c0.778,13.101,2.145,36.837-13.78,41.886c-5.37,1.7-11.573-0.062-14.075-5.391c-1.66-3.536-1.562-7.566-1.898-11.399
    c-0.33-3.735-0.601-7.478-0.85-11.22c0.398-15.438,0.887-30.871,0.625-46.318c-0.375-22.009-1.721-43.979-3.287-65.93
    c0.125-5.585,0.361-11.182,0.676-16.796c0.542-9.602-0.688-20.382-4.455-29.273c-1.738-4.106-4.286-8.29-8.587-10.041
    c-4.324-1.763-9.002-0.562-12.351,2.593c-8.785,8.271-8.282,23.644-9.43,34.711c-0.479,4.619,0.103,9.383,0.424,14
    c0.377,5.428,0.401,10.851,0.681,16.277c0.521,10.152,2.707,20.119,3.568,30.23c0.77,9.043,0.061,18.061-6.845,24.686
    c-0.771,0.742-1.648,1.473-2.6,2.146c-1.878,0.666-3.92,1.045-6.095,1.091c-2.622,0.054-5.931,0.318-8.167-0.454
    c-0.626-0.217-1.338-0.678-2.07-1.252c-1.09-1.349-1.906-2.928-2.372-4.54c-1.12-3.879-1.089-8.354-1.394-12.366
    c-0.421-5.572-0.655-11.161-1.257-16.718c-0.615-5.667-1.322-11.352-3.021-16.814c-0.706-2.271-1.596-4.487-2.67-6.547
    c-3.082-8.365-9.518-15.927-18.802-15.669c-6.917,0.191-11.509,4.791-14.666,10.558c0.012,12.165,0.225,24.328,0.81,36.481
    c1.043,21.667,1.948,43.188,1.546,64.895c-0.094,5.06-0.205,10.115-0.326,15.17c-8.568,4.827-21.779,7.293-22.282-22.942
    c-0.729-43.681-5.319-87.169-8.029-130.745c-0.811-13.014-6.688-44.138-9.917-45.46c-12.916-5.29-27.932-3.383-39.957,3.226
    c-12.67,6.963-15.957,22.593-15.479,35.988c0.572,16.094,1.095,32.24,2.144,48.313c1.5,22.964,3.831,46.015,4.189,69.066
    c-1.549,7.188-2.667,14.427-4.558,21.548c-1.349,5.081-3.583,12.785-10.054,12.243c-6.887-0.58-9.73-9.787-10.517-15.521
    c-1.251-9.135-0.459-18.637-0.816-27.844c-0.392-10.037-1.156-20.022-2.292-30.004c-1.089-9.574-0.306-19.225-0.26-28.834
    c0.044-9.443-0.558-18.888-0.709-28.33c-0.166-10.332-1.235-20.855-2.434-31.113c-0.49-4.201-1.008-8.164-1.188-12.392
    c-0.194-4.559-0.789-9.217-3.19-13.18c-0.312-0.514-0.654-0.967-1.02-1.369c-0.412-1.194-0.851-2.389-1.353-3.574
    c-4.67-11.057-15.813-23.924-29.375-19.979c-9.209,2.677-13.826,12.534-16.019,21.216c-4.776,18.917-3.463,39.422-1.673,58.702
    c0.833,8.972,1.232,17.973,1.932,26.956c0.703,9.051,2.481,17.932,3.386,26.94c1.691,16.795,3.128,33.56,2.421,50.455
    c-0.477,11.319-1.474,26.946-11.974,33.617c-14.981,9.521-12.596-17.479-12.811-25.065c-1.087-38.438-0.099-76.897-2.123-115.309
    c-1.01-19.137-1.679-38.278-1.809-57.438c-0.081-11.885-0.53-23.672-3.052-35.319c-2.16-9.978-8.796-23.629-20.505-24.53
    c-11.459-0.88-16.863,11.211-19.612,20.374c-3.632,12.102-4.461,24.737-4.961,37.312c-0.678,17.054-0.508,34.146-0.215,51.214
    c-0.042,0.688-0.024,1.372,0.036,2.056c0.026,1.479,0.052,2.955,0.079,4.432c0.064,3.497,0.084,6.995,0.085,10.495
    c-0.374,1.495-0.843,2.926-1.39,4.16c-1.408,3.186-3.444,5.481-6.467,5.45c-3.02-0.03-6.646-1.456-8.476-3.957
    c-7.448-10.171-2.812-25.58-5.802-37.159c-2.168-8.398-8.202-14.103-16.938-14.271c-7.785-0.154-13.316,6.002-15.196,13.125
    c-2.257,8.56-1.06,17.941-0.833,26.708c0.27,10.342,0.204,20.686,0.448,31.026c0.25,10.565,1.307,20.993,1.313,31.568
    c0.004,4.833,0.121,9.651,0.258,14.471c-1.157,3.109-1.809,6.551-2.185,10.252c-0.605,5.957-0.083,12.474,0.077,18.468
    c0.188,7.03,0.38,14.077,0.71,21.103c0.645,13.71,0.843,27.519,0.7,41.235c-0.046,4.348-0.49,8.406-1.264,12.66
    c-0.684,3.764-2.401,9.263-5.69,11.65c-1.074,0.78-4.01,2.062-5.308,2.351c-1.324,0.293-2.794-0.19-4.17,0.065
    c-1.166,0.22-1.72,0.677-2.902,0.531c-4.701-0.579-8.348-2.473-10.275-6.774c-2.489-5.551-2.062-12.218-2.66-18.299
    c-0.729-7.425-1.086-15.017-1.245-22.48c-0.298-14.112-0.274-28.229-0.518-42.342c-0.25-14.609-0.746-29.168-1.342-43.763
    c-0.58-14.217-2.522-28.473-3.786-42.646c-1.207-13.576-0.63-27.009-3.253-40.432c-1.654-8.468-6.935-17.432-13.056-23.509
    c-5.894-5.848-13.482-10.04-21.733-9.309c-9.748,0.862-16.604,8.623-20.128,17.539c-4.187,10.588-4.621,23.326-3.865,34.553
    c0.853,12.645,2.057,25.25,2.618,37.923c1.188,26.838-2.135,53.515-0.651,80.347c1.453,26.254,6.488,52.915,5.074,79.215
    c-0.277,5.172-0.123,10.159-3.639,14.196c-2.517,2.892-6.273,4.296-10.057,2.263c-3.895-2.096-5.792-7.116-6.319-11.236
    c-0.738-5.754-0.209-11.774-0.472-17.569c-1.263-28.054-2.508-56.161-2.775-84.267c-0.138-14.385,0.091-28.709,0.314-43.088
    c0.104-6.543,0.153-13.053,0.029-19.596c-0.138-7.224-1.281-14.338-1.667-21.54c-0.621-11.584-0.289-23.001-2.229-34.454
    c-1.533-9.037-3.849-17.604-11.938-22.859c-17.432-11.328-39.891,1.475-46.562,19.119c-1.887,4.986-2.704,11.274-3.348,16.563
    c-0.748,6.15-1.431,12.404-1.511,18.604c-0.165,12.804-1.308,25.536-1.755,38.331c-0.471,13.41-0.13,26.96,0.008,40.379
    c0.141,13.727,1.576,27.463,1.47,41.167c-0.036,4.851-0.597,9.012-5.07,11.489c-1.36,0.752-0.584,1.245-2.192,1.305
    c-0.626,0.021-3.343-1.135-3.952-1.428c-2.242-1.069-3.979-4.293-5.156-6.562c-5.523-10.659-6.602-25.047-7.445-36.787
    c-0.997-13.872-1.134-27.783-0.872-41.693c0.195-10.347,1.39-21.646-2.408-31.52c-5.366-13.947-18.528-32.525-35.513-24.205
    c-3.622,1.775-7.48,5.787-9.616,9.164c-3.238,5.122-4.76,9.587-5.908,15.52c-2.356,12.181-2.92,24.416-3.12,36.842
    c-0.105,6.568-0.37,13.615-1.993,20.012c-0.979,3.861-2.606,7.807-6.062,9.652c-2.554,1.362-3.663,1.718-6.388,1.388
    c-3.498-0.424-3.393,0.621-5.704-2.138c-1.689-2.019-1.989-2.844-2.821-5.533c-0.782-2.525-1.345-5.029-1.906-7.649
    c-1.33-6.222-1.994-12.153-1.612-18.538c0.334-5.609,0.204-11.393-0.404-16.979c-1-9.182-2.994-19.501-8.113-27.25
    c-5.239-7.93-15.426-8.545-23.732-4.872c-8.537,3.777-16.03,10.625-22.339,17.364c-16.383,17.501-19.254,42.912-21.188,65.902
    c-0.064,0.78-0.119,1.562-0.179,2.342c-0.114,0.175-0.232,0.346-0.343,0.522c-5.796,9.371-4.934,20.517-4.082,31.198
    c0.896,11.255,2.434,25.497-5.18,34.924c-2.275,2.816-5.906,5.181-9.357,5.748c-4.432,0.734-7.369,0.004-11.348-1.98
    c-9.163-4.569-11.479-15.229-13.214-24.707c-2.31-12.612-3.75-25.347-6.263-37.93c-0.061-3.181-0.132-6.361-0.21-9.542
    c-0.576-23.099,3.005-48.334-3.544-70.928c-0.077-0.761-0.301-1.456-0.637-2.075c-0.271-0.849-0.554-1.693-0.856-2.534
    c-4.822-13.376-17.581-34.938-34.864-27.438c-9.652,4.188-12.691,12.442-12.729,22.375c-0.052,13.405-1.852,26.637-1.392,40.071
    c0.506,14.744,1.998,29.431,2.687,44.164c0.478,10.223,0.69,20.17,1.903,30.331c1.067,8.939,2.47,18.614,0.19,27.462
    c-1.382,5.371-5.702,11.396-11.752,11.838c-8.427,0.614-11.474-13.5-12.954-19.567c-3.188-13.06-4.136-26.642-4.583-40.042
    c-0.415-12.445-0.528-24.801-1.146-37.243c-0.709-14.235-1-28.488-1.674-42.724c-0.668-14.128-3-28.094-4.571-42.143
    c-1.543-13.786-2.586-27.645-2.507-41.522c0.076-13.55-1.963-26.771-2.459-40.252c-0.62-16.856-4.037-50.701-28.984-46.445
    c-24.429,4.167-23.604,37.888-23.065,56.358c0.396,13.585,2.205,27.076,2.694,40.655c0.501,13.916-0.131,27.851,0.545,41.766
    c0.593,12.179,5.227,26.166,0.229,37.992c-1.143,2.705-4.068,8.145-7.026,9.132c-0.229,0.075-0.396,0.146-0.521,0.209
    c0.068-0.156,0.103-0.392,0.019-0.726c-0.732-2.947-1.252-6.05-1.891-9.051c-2.799-13.171-2.675-26.816-3.056-40.226
    c-0.259-9.12-0.978-18.249-1.954-27.319c-1.549-14.39-4.381-34.257-19.991-40.077c-15.686-5.847-24.979,7.382-27.653,21.183
    c-2.819,14.546-1.943,29.327-1.905,44.049c0.034,13.59,0.638,27.213,1.75,40.758c0.242,2.943,0.571,5.906,0.931,8.878
    c-0.885,1.132-1.32,2.644-0.909,4.437c3.066,13.288,0.97,26.702,1.528,40.158c0.368,8.871,3.162,21.342-3.647,28.454
    c-5.092,5.318-13.221,7.916-20.277,8.382c-2.258,0.15-3.666,0.264-5.904,0.092c-0.978-0.074-2.062,0.469-2.954,0.357
    c-0.913-0.115-1.576-0.781-2.489-0.924c-0.85-0.136-1.618,0.29-2.44,0.073c-0.98-0.263-2.003-1.084-2.977-1.462
    c-0.679-0.267-1.169,0.107-1.845-0.181c-0.55-0.235-2.965-1.583-3.368-1.915c-3.07-2.531-5.128-7.826-6.181-11.69
    c-1.438-5.28-2.381-10.869-3.009-16.297c-0.769-6.646-1.264-12.872-1.161-19.589c0.079-5.127,0.701-10.293,1.25-15.346
    c1.331-12.275,1.117-26.125-3.58-37.638c-0.625-1.53-1.373-3.053-2.255-4.489c-0.148-2.338-0.301-4.676-0.446-7.015
    c-1.737-27.922-2.018-55.774-5.36-83.569c-1.126-9.362-1.868-19.634-7.31-27.658c-5.145-7.588-16.237-14.268-23.88-5.944
    c-2.958,3.222-4.271,7.83-5.262,11.988c-1.49,6.248-2.98,12.526-4.52,18.775c-3.49,14.161-5.114,28.551-5.323,43.119
    c-0.385,26.721,1.275,53.274,2.896,79.911c0.097,7.097-0.271,14.201-1.933,20.888c-0.775,3.125-2.031,6.346-4.22,8.672
    c-3.09,0.23-6.079,1.287-8.235,3.29c-4.506-0.188-9.089-2.814-11.467-6.436c-3.618-5.511-3.021-11.151-2.662-17.412
    c0.38-6.655-0.688-13.293-1.19-19.946c0.218-6.624,0.358-13.247,0.386-19.866c0.05-12.729-0.414-25.623-1.937-38.271
    c-1.386-11.521-2.931-22.947-6.812-33.935c-1.959-5.543-4.192-10.59-7.687-15.327c-3.247-4.402-7.694-7.327-12.601-9.603
    c-8.717-4.043-19.606-2.416-25.544,5.443c-4.966,6.568-8.007,15.792-9,23.92c-1.554,12.696-0.797,25.211,0.516,37.896
    c0.721,6.956,1.875,13.86,2.589,20.817c0.708,6.896,0.7,13.759,0.892,20.678c0.37,13.485,1.845,26.906,3.038,40.335
    c0.518,5.812,0.949,11.625,1.341,17.442c-0.12,9.5,0.118,19.045,0.2,28.498c0.113,13.163-0.189,26.331,0.941,39.463
    c0.1,1.166,0.186,2.332,0.263,3.496c-0.653,2.438-1.509,4.797-2.658,7.008c-0.965,1.85-2.701,4.517-4.83,6.563
    c-1.021,0.123-2.042,0.244-3.062,0.363c-1.818,0.216-4.537,0.603-7.109,0.68c-2.399-2.438-3.747-6.607-4.612-9.407
    c-1.513-4.896-2.506-9.97-3.045-15.064c-1.019-9.612-1.092-19.375-1.434-29.028c-0.355-10.147-1.26-20.13-2.167-30.229
    c-0.83-9.226-1.768-18.808-3.69-27.877c-1.433-6.747-6.711-14.394-14.257-14.941c-3.107-0.225-5.467,0.643-7.286,2.198
    c-0.955,0.197-1.873,0.534-2.625,1.132c-2.84,2.269-3.361,5.029-3.716,8.33c-0.562,5.205-1.64,10.371-1.951,15.561
    c-0.203,3.37-0.291,6.741-0.312,10.118c-1.081,8.341-0.739,17.045-1.161,25.217c-0.005,0.086-0.007,0.171-0.012,0.259
    c-1.491,1.676-2.177,4.157-1.021,6.764c0.215,0.484,0.42,0.974,0.615,1.464c0.02,0.062,0.035,0.128,0.055,0.19
    c-0.326,9.444-0.412,18.908-0.354,28.36c-1.014,7.221-1.08,15.615-5.614,21.547c-3.401,4.453-8.898,3.9-13.217,1.271
    c-1.841-2.238-2.666-5.065-3.962-7.752c-3.854-7.99-2.369-17.868-2.767-26.461c-0.453-9.833-2.061-19.615-2.286-29.446
    c-0.238-10.234-0.124-20.471-0.044-30.705c0.156-20.221,0.036-40.479-3.244-60.481c-1.815-11.07-4.902-25.435-14.806-32.23
    c-4.498-3.086-10.134-3.612-15.152-1.379c-3.307,1.472-5.312,4.444-6.637,7.744c-5.609,7.215-6.24,17.571-6.19,26.759
    c0.072,13.236-0.294,26.498-0.637,39.755c-0.205,2.747-0.439,5.493-0.729,8.237c-1.032,9.814-2.161,20.809-6.7,29.734
    c-0.272,0.535-0.582,1.11-0.93,1.688c-1.382,0.443-2.777,0.842-4.163,1.225c-2.157,0.594-4.368,1.136-6.603,1.363
    c-2.384-1.998-4.121-5.197-4.946-7.69c-3.875-11.72-1.21-25.167-2.079-37.271c-0.868-12.091-6.742-26.73-21.483-25.611
    c-1.221,0.093-2.283,0.384-3.218,0.82c-1.412-0.271-2.891-0.379-4.438-0.282c-16.351,1.024-17.022,24.243-16.83,36.188
    c0.072,4.476,0.45,8.856,0.196,13.35c-0.26,4.602-0.752,9.185-1.047,13.78c-0.619,9.664-0.339,19.429-0.304,29.112
    c0.039,10.965,0.024,21.929,0.002,32.894c-2.082,6.266-5.289,12.022-10.599,15.383c-2.713,1.719-5.75,2.577-8.815,2.717
    c-0.176-0.018-0.352-0.032-0.528-0.049c-1.64-0.141-3.305-0.279-4.962-0.469c-3.816-0.902-7.4-2.893-10.149-5.763
    c-4.606-4.806-7.109-11.368-8.748-17.886c-0.041-1.052-0.079-2.103-0.124-3.153c-0.337-7.756-0.741-15.508-1.157-23.258
    c-0.011-18.598,0.234-37.204,0.546-55.781c0.459-27.462,1.962-54.95-0.074-82.385c-1.266-17.048-0.482-42.935-19.135-51.126
    c-7.904-3.472-17.61-1.715-24.317,3.247c-5.731,4.238-8.652,11.506-9.764,18.375c-0.577,3.564-0.901,7.146-1.08,10.738
    c-0.501,2.056-0.882,3.915-1.141,5.438c-1.174,6.883-1.18,13.825-1.138,20.785c0.044,7.162-0.583,14.098-1.161,21.218
    c-1.119,13.792-0.012,27.288,0.791,41.045c0.47,8.042,0.853,16.085,1.012,24.132c-4.854,21.217,1.793,44.221-3.258,65.438
    c-0.427,1.795-0.952,3.646-1.618,5.454c-1.894,1.297-4.083,1.719-6.826,1.004c-4.436-1.155-6.479-5.374-7.713-9.94
    c-0.369-14.793-1.338-29.563-1.89-44.349c-0.492-13.174,0.836-26.912-2.674-39.738c-0.27-2.318-0.602-4.635-1.032-6.948
    c-1.43-7.708-4.142-14.448-10.322-19.585c-5.083-4.224-11.795-6.33-18.12-3.615c-15.349,6.592-14.523,26.404-15.095,40.181
    c-0.177,4.285-0.937,8.513-0.948,12.812c-0.014,4.963,0.562,9.911,1.254,14.813c0.189,3.153,0.576,6.337,1.357,9.362
    c0.975,6.764,1.871,13.521,2.277,20.373c0.779,13.101,2.145,36.836-13.78,41.886c-5.37,1.7-11.573-0.062-14.075-5.391
    c-1.661-3.536-1.561-7.566-1.899-11.399c-0.33-3.735-0.601-7.478-0.85-11.221c0.399-15.438,0.888-30.87,0.625-46.317
    c-0.375-22.009-1.721-43.979-3.286-65.931c0.125-5.584,0.36-11.181,0.676-16.795c0.542-9.602-0.689-20.382-4.455-29.273
    c-1.739-4.106-4.287-8.29-8.587-10.041c-4.325-1.763-9.003-0.562-12.351,2.593c-8.785,8.271-8.282,23.644-9.429,34.711
    c-0.478,4.619,0.102,9.382,0.424,14c0.378,5.427,0.403,10.851,0.681,16.277c0.519,10.151,2.707,20.119,3.568,30.229
    c0.77,9.045,0.061,18.062-6.843,24.687c-0.772,0.742-1.65,1.473-2.6,2.146c-1.878,0.667-3.92,1.047-6.095,1.092
    c-2.623,0.054-5.93,0.318-8.167-0.454c-0.627-0.218-1.338-0.678-2.07-1.253c-1.088-1.348-1.905-2.928-2.371-4.539
    c-1.12-3.879-1.089-8.354-1.394-12.366c-0.421-5.572-0.655-11.161-1.257-16.718c-0.615-5.668-1.322-11.352-3.021-16.814
    c-0.707-2.271-1.596-4.487-2.67-6.547c-3.082-8.365-9.519-15.927-18.802-15.669c-6.918,0.19-11.51,4.791-14.667,10.558
    c0.012,12.165,0.225,24.328,0.811,36.481c1.043,21.667,1.947,43.188,1.545,64.895c-0.799,43.083-2.825,86.026-2.358,129.138
    c0.222,20.437,0.621,40.869,1.116,61.302c0.339,2.778,0.697,5.549,1.086,8.308c1.241,8.785,16.931,53.719,16.931,53.719
    l3164.479-1.921c0.425,1.228,0.667,1.921,0.667,1.921l1704.206-1.053C4888.549,850.262,4886.063,618.955,4885.727,615.122z
     M594.771,548.336c-0.366-0.143-0.733-0.281-1.117-0.395c0.477-0.771,0.919-1.562,1.311-2.381
    C594.885,546.486,594.833,547.41,594.771,548.336z M3759.918,548.336c-0.366-0.143-0.733-0.281-1.117-0.395
    c0.477-0.771,0.919-1.562,1.311-2.381C3760.031,546.486,3759.979,547.41,3759.918,548.336z"/>

	<path class="hills2 parallax-item" data-offset="2" opacity="0.73" fill="#82A53C" d="M5075.549,883.18c-3.531,3.341-7.843,5.488-13.113,5.902
    c-2.344-0.933-4.982-2.211-6.229-3.117c-5.912-4.296-9.002-14.188-10.231-20.958c-1.391-7.649-2.192-14.948-2.274-22.771
    c-0.254-24.672,0.1-49.505,1.26-74.167c0.595-12.642,0.94-25.312,1.279-37.956c0.287-10.783,1.228-22.506,0.137-33.219
    c-0.675-6.656-1.846-12.846-3.927-18.439c0.243-8.667,0.456-17.334,0.461-26.028c0.011-19.019,1.914-37.777,2.363-56.779
    c0.438-18.602,0.324-37.206,0.806-55.809c0.409-15.767,2.564-32.641-1.498-48.037c-3.381-12.813-13.33-23.886-27.331-23.609
    c-15.711,0.307-26.564,10.563-30.465,25.672c-5.375,20.827,2.959,48.541-10.431,66.837c-3.293,4.498-9.816,7.062-15.252,7.116
    c-5.434,0.057-9.096-4.072-11.628-9.8c-0.981-2.225-1.827-4.795-2.499-7.486c0.002-6.295,0.035-12.584,0.151-18.875
    c0.05-2.655,0.094-5.313,0.144-7.973c0.106-1.228,0.14-2.461,0.064-3.695c0.526-30.701,0.833-61.44-0.388-92.115
    c-0.901-22.616-2.391-45.345-8.923-67.109c-4.944-16.484-14.666-38.23-35.276-36.646c-21.062,1.619-32.998,26.174-36.883,44.12
    c-4.535,20.949-5.343,42.152-5.487,63.527c-0.235,34.462-1.438,68.893-3.254,103.312c-3.644,69.087-1.866,138.264-3.82,207.399
    c-0.384,13.646,3.909,62.209-23.039,45.087c-18.887-12-20.681-40.105-21.535-60.468c-1.274-30.389,1.311-60.544,4.353-90.75
    c1.629-16.205,4.827-32.182,6.093-48.462c1.256-16.156,1.977-32.344,3.475-48.48c3.217-34.677,5.581-71.561-3.012-105.584
    c-3.943-15.617-12.243-33.345-28.811-38.16c-24.395-7.093-44.438,16.051-52.837,35.938c-0.899,2.13-1.69,4.275-2.433,6.427
    c-0.656,0.725-1.273,1.538-1.832,2.464c-4.32,7.125-5.39,15.504-5.737,23.704c-0.325,7.602-1.253,14.729-2.138,22.288
    c-2.155,18.447-4.078,37.379-4.379,55.961c-0.271,16.983-1.353,33.968-1.272,50.955c0.082,17.283,1.489,34.643-0.47,51.861
    c-2.041,17.953-3.416,35.912-4.117,53.967c-0.646,16.562,0.779,33.653-1.47,50.084c-1.413,10.314-6.527,26.873-18.916,27.912
    c-11.642,0.979-15.661-12.879-18.084-22.016c-3.398-12.808-5.411-25.832-8.193-38.758c0.64-41.469,4.833-82.925,7.53-124.23
    c1.89-28.912,2.827-57.955,3.857-86.898c0.859-24.098-5.055-52.207-27.844-64.731c-21.631-11.888-48.639-15.316-71.87-5.802
    c-11.782,4.825-19.505,17.016-24.713,27.926c-5.405,11.326-6.54,23.938-7.929,36.245c-3.148,27.895-2.569,56.153-2.241,84.2
    c0.394,33.622-1.338,67.117-3.337,100.667c-1.7,28.497-1.612,56.452,0.545,84.681c-0.984,16.688-1.438,33.396-1.613,50.112
    c-18.634,0.727-37.314,1.194-55.938,0.817c-8.579-0.172-92.691,0.307-181.602,1.496c-0.388-12.842-0.914-25.68-1.316-38.52
    c-0.632-20.198-0.583-40.344-1.895-60.52c-1.221-18.793-1.86-37.496-4.138-56.22c-2.016-16.575-5.165-33.315-15.538-46.831
    c-16.654-21.691-45.498-29.953-71.771-25.597c-30.132,4.996-51.509,31.077-59.358,59.339c-7.925,28.534-2.861,58.709-1.728,87.743
    c0.958,24.492,1.583,58.38-24.953,69.946c-9.958,4.34-21.708,4.484-31.271-0.99c-12.011-6.877-21.021-21.345-26.332-33.729
    c-6.106-14.237-8.516-29.964-10.598-45.211c-2.603-19.055-5.359-38.094-7.793-57.171c-0.804-6.296-1.562-12.6-2.299-18.905
    c1.061-10.337,1.179-20.862,1.142-31.416c-0.043-12.271-1.248-24.457-1.915-36.722c-0.717-13.165-1.153-26.379-2.274-39.515
    c-3.513-41.094-1.735-87.812-33.368-118.396c-3.384-3.271-6.89-6.343-10.521-9.174c-7.514-7.056-16.317-11.999-25.744-14.578
    c-3.235-1.183-6.562-2.174-9.988-2.943c-8.955-2.011-17.976-0.438-26.128,3.244c-2.189,0.99-4.239,2.314-6.159,3.868
    c-8.82,4.205-16.624,10.359-22.056,18.629c-3.466,5.28-6.731,11.538-8.28,17.653c-1.803,7.126-1.759,14.579-2.401,21.857
    c-0.65,7.361-3.039,14.498-4.848,21.633c-2.146,8.469-3.062,16.837-3.575,25.529c-1.054,17.819,0.285,35.647,0.781,53.459
    c0.81,29.072-0.396,61.316-12.947,88.149c-5.494,11.745-13.649,23.838-25.318,30.159c-11.858,6.425-26.319,4.869-38.164-0.777
    c-54.667-26.052-42.652-99.622-42.551-148.745c0.004-2.062-0.57-3.754-1.506-5.088c0.214-6.603,0.442-13.207,0.688-19.81
    c0.735-19.708,1.765-39.716-0.125-59.382c-1.824-19.007-5.592-37.706-11.485-55.877c-10.177-31.378-25.498-70.681-62.106-77.034
    c-16.618-2.885-33.853-9.667-50.77-4.837c-12.934,3.691-23.112,12.519-30.489,23.572c-15.873,23.789-17.442,53.216-17.925,80.84
    c-0.37,21.099-1.822,42.184-2.631,63.269c-0.793,20.749,0.716,41.155,2.22,61.819c0.701,9.633,1.088,19.29,1.849,28.921
    c0.662,8.388,2.016,16.718,2.545,25.111c0.443,6.989,0.666,14.364-1.213,21.177c-1.962,7.127-6.201,11.188-11.74,15.773
    c-5.477,4.527-10.803,5.914-17.851,5.408c-3.762-0.27-7.401-1.248-11.056-2.18c-3.604-0.918-7.398-1.44-10.871-2.867
    c-15.131-6.219-13.828-23.476-13.758-37.365c0.19-36.498,7.75-72.575,0.699-108.907c-6.216-32.021-24.363-59.307-52.791-75.723
    c-13.088-7.559-27.935-12.472-43.136-12.009c-16.165,0.491-30.183,7.649-41.268,19.266c-24.396,25.562-23.417,60.366-21.185,93.262
    c2.631,38.722,3.758,79.275-3.508,117.577c-1.455,7.672-3.091,15.557-6.966,22.426c-3.19,5.658-8.147,11.933-14.524,14.123
    c-6.922,2.38-15.085,2.786-23.002,1.729c0.51-8.953,1.049-17.906,1.262-26.915c0.438-18.603,0.322-37.206,0.806-55.81
    c0.408-15.766,2.563-32.641-1.498-48.035c-3.381-12.814-13.33-23.887-27.332-23.61c-15.711,0.308-26.563,10.565-30.463,25.672
    c-5.376,20.826,2.959,48.541-10.432,66.836c-3.294,4.499-9.816,7.063-15.252,7.116c-5.435,0.057-9.097-4.071-11.629-9.8
    c-0.981-2.224-1.827-4.794-2.498-7.486c0.002-6.295,0.034-12.584,0.149-18.875c0.049-2.655,0.096-5.312,0.145-7.972
    c0.106-1.229,0.142-2.461,0.064-3.696c0.526-30.702,0.833-61.44-0.388-92.114c-0.899-22.616-2.392-45.346-8.923-67.11
    c-4.944-16.484-14.665-38.23-35.275-36.646c-21.062,1.619-32.999,26.175-36.884,44.12c-4.535,20.949-5.343,42.153-5.486,63.528
    c-0.235,34.462-1.438,68.892-3.255,103.312c-3.643,69.086-1.865,138.265-3.818,207.399c-0.385,13.646,3.907,62.209-23.041,45.087
    c-18.887-11.999-20.681-40.105-21.534-60.467c-1.274-30.389,1.311-60.544,4.354-90.751c1.629-16.205,4.826-32.181,6.093-48.461
    c1.256-16.156,1.976-32.345,3.475-48.481c3.216-34.677,5.58-71.559-3.011-105.584c-3.945-15.617-12.245-33.344-28.812-38.16
    c-24.394-7.093-44.438,16.051-52.838,35.938c-0.898,2.129-1.688,4.276-2.432,6.426c-0.656,0.726-1.272,1.538-1.831,2.465
    c-4.32,7.125-5.39,15.504-5.737,23.703c-0.325,7.603-1.253,14.73-2.138,22.289c-2.155,18.448-4.079,37.378-4.378,55.961
    c-0.271,16.984-1.354,33.968-1.274,50.955c0.082,17.284,1.489,34.644-0.471,51.863c-2.041,17.952-3.415,35.911-4.115,53.967
    c-0.646,16.561,0.778,33.651-1.471,50.082c-1.413,10.313-6.527,26.874-18.916,27.913c-11.642,0.978-15.66-12.879-18.084-22.018
    c-3.397-12.808-5.412-25.832-8.193-38.758c0.64-41.468,4.832-82.924,7.529-124.229c1.891-28.912,2.827-57.955,3.857-86.899
    c0.858-24.097-5.055-52.206-27.844-64.729c-21.632-11.889-48.639-15.317-71.869-5.804c-11.782,4.825-19.506,17.016-24.715,27.927
    c-5.404,11.326-6.539,23.938-7.928,36.244c-3.146,27.895-2.57,56.153-2.241,84.2c0.395,33.621-1.339,67.117-3.337,100.667
    c-1.699,28.497-1.613,56.452,0.544,84.68c-0.983,16.688-1.437,33.396-1.612,50.113c-18.635,0.728-37.313,1.193-55.938,0.817
    c-15.991-0.322-32.472-2.241-48.189,1.354c-0.388-12.794-0.909-25.586-1.312-38.378c-0.633-20.198-0.583-40.344-1.896-60.519
    c-1.22-18.793-1.86-37.497-4.139-56.219c-2.016-16.576-5.163-33.317-15.538-46.832c-16.651-21.692-45.498-29.953-71.771-25.599
    c-30.13,4.997-51.508,31.077-59.358,59.341c-7.924,28.533-2.862,58.709-1.727,87.742c0.957,24.492,1.583,58.38-24.954,69.946
    c-9.957,4.34-21.706,4.486-31.271-0.99c-12.011-6.876-21.021-21.345-26.332-33.727c-6.105-14.238-8.516-29.966-10.599-45.212
    c-2.604-19.056-5.358-38.094-7.792-57.172c-0.805-6.295-1.563-12.6-2.299-18.904c1.06-10.337,1.18-20.863,1.143-31.416
    c-0.043-12.272-1.25-24.456-1.915-36.723c-0.717-13.164-1.154-26.379-2.274-39.514c-3.513-41.093-1.735-87.811-33.367-118.396
    c-3.385-3.272-6.889-6.343-10.521-9.175c-7.515-7.056-16.316-12-25.742-14.578c-3.237-1.184-6.563-2.174-9.989-2.943
    c-8.955-2.011-17.976-0.438-26.128,3.244c-2.189,0.99-4.24,2.313-6.159,3.868c-8.819,4.205-16.624,10.358-22.055,18.63
    c-3.466,5.279-6.732,11.537-8.281,17.652c-1.803,7.127-1.758,14.578-2.399,21.856c-0.651,7.363-3.039,14.499-4.849,21.634
    c-2.146,8.469-3.062,16.837-3.575,25.53c-1.055,17.819,0.284,35.647,0.78,53.46c0.811,29.071-0.396,61.316-12.946,88.148
    c-5.494,11.746-13.649,23.838-25.319,30.16c-11.858,6.424-26.319,4.867-38.164-0.778c-54.667-26.052-42.654-99.621-42.552-148.745
    c0.004-2.063-0.57-3.754-1.506-5.088c0.213-6.604,0.442-13.207,0.689-19.811c0.733-19.707,1.765-39.716-0.125-59.382
    c-1.824-19.007-5.592-37.706-11.485-55.877c-10.179-31.378-25.499-70.681-62.106-77.034c-16.618-2.885-33.854-9.667-50.771-4.837
    c-12.932,3.692-23.112,12.52-30.488,23.572c-15.874,23.789-17.442,53.216-17.925,80.84c-0.37,21.099-1.822,42.185-2.63,63.269
    c-0.795,20.748,0.715,41.154,2.219,61.818c0.7,9.634,1.087,19.289,1.849,28.922c0.664,8.389,2.016,16.719,2.547,25.111
    c0.44,6.989,0.664,14.365-1.215,21.176c-1.963,7.127-6.201,11.189-11.741,15.773c-5.476,4.527-10.802,5.916-17.851,5.408
    c-3.761-0.271-7.4-1.247-11.055-2.18c-3.604-0.917-7.398-1.439-10.872-2.867c-15.131-6.219-13.828-23.476-13.757-37.364
    c0.189-36.497,7.75-72.574,0.698-108.908c-6.214-32.021-24.363-59.306-52.79-75.722c-13.09-7.56-27.937-12.473-43.137-12.01
    c-16.166,0.491-30.184,7.65-41.269,19.268c-24.395,25.562-23.417,60.363-21.183,93.26c2.63,38.722-26.868,197.044-26.346,245.264
    c0.022,2.109,7.021,80.74-27.941,83.486c-2.344-0.933-4.982-2.211-6.229-3.117c-5.912-4.296-9.002-14.188-10.231-20.958
    c-1.391-7.649-2.192-14.948-2.274-22.771c-0.254-24.672,0.1-49.505,1.26-74.167c0.595-12.642,0.94-25.312,1.279-37.956
    c0.287-10.783,1.228-22.506,0.137-33.219c-0.675-6.656-1.846-12.846-3.927-18.439c0.243-8.667,0.456-17.334,0.461-26.028
    c0.011-19.019,1.914-37.777,2.363-56.779c0.438-18.602,0.324-37.206,0.806-55.809c0.409-15.767,2.564-32.641-1.498-48.037
    c-3.381-12.813-13.33-23.886-27.331-23.609c-15.711,0.307-26.564,10.563-30.465,25.672c-5.375,20.827,2.959,48.541-10.431,66.837
    c-3.293,4.498-9.816,7.062-15.252,7.116c-5.434,0.057-9.096-4.072-11.628-9.8c-0.981-2.225-1.827-4.795-2.499-7.486
    c0.002-6.295,0.035-12.584,0.151-18.875c0.05-2.655,0.094-5.313,0.144-7.973c0.106-1.228,0.14-2.461,0.064-3.695
    c0.526-30.701,0.833-61.44-0.388-92.115c-0.901-22.616-2.391-45.345-8.923-67.109c-4.944-16.484-14.666-38.23-35.276-36.646
    c-21.062,1.619-32.998,26.174-36.883,44.12c-4.535,20.949-5.343,42.152-5.487,63.527c-0.235,34.462-1.438,68.893-3.254,103.312
    c-3.644,69.087-1.866,138.264-3.82,207.399c-0.384,13.646,3.909,62.209-23.039,45.087c-18.887-12-20.681-40.105-21.535-60.468
    c-1.274-30.389,1.311-60.544,4.353-90.75c1.629-16.205,4.827-32.182,6.093-48.462c1.256-16.156,1.977-32.344,3.475-48.48
    c3.217-34.677,5.581-71.561-3.012-105.584c-3.943-15.617-12.243-33.345-28.811-38.16c-24.395-7.093-44.438,16.051-52.837,35.938
    c-0.899,2.13-1.69,4.275-2.433,6.427c-0.656,0.725-1.273,1.538-1.832,2.464c-4.32,7.125-5.39,15.504-5.737,23.704
    c-0.325,7.602-1.253,14.729-2.138,22.288c-2.155,18.447-4.078,37.379-4.379,55.961c-0.271,16.983-1.353,33.968-1.272,50.955
    c0.082,17.283,1.489,34.643-0.47,51.861c-2.041,17.953-3.416,35.912-4.117,53.967c-0.646,16.562,0.779,33.653-1.47,50.084
    c-1.413,10.314-6.527,26.873-18.916,27.912c-11.642,0.979-15.661-12.879-18.084-22.016c-3.398-12.808-5.411-25.832-8.193-38.758
    c0.64-41.469,4.833-82.925,7.53-124.23c1.89-28.912,2.827-57.955,3.857-86.898c0.859-24.098-5.055-52.207-27.844-64.731
    c-21.631-11.888-48.639-15.316-71.87-5.802c-11.782,4.825-19.505,17.016-24.713,27.926c-5.405,11.326-6.54,23.938-7.929,36.245
    c-3.148,27.895-2.569,56.153-2.241,84.2c0.394,33.622-1.338,67.117-3.337,100.667c-1.7,28.497-1.612,56.452,0.545,84.681
    c-0.984,16.688-1.438,33.396-1.613,50.112c-18.634,0.727-37.314,1.194-55.938,0.817c-8.579-0.172-92.691,0.307-181.602,1.496
    c-0.388-12.842-0.914-25.68-1.316-38.52c-0.632-20.198-0.583-40.344-1.895-60.52c-1.221-18.793-1.86-37.496-4.138-56.22
    c-2.016-16.575-5.165-33.315-15.538-46.831c-16.654-21.691-45.498-29.953-71.771-25.597c-30.132,4.996-51.509,31.077-59.358,59.339
    c-7.925,28.534-2.861,58.709-1.728,87.743c0.958,24.492,1.583,58.38-24.953,69.946c-9.958,4.34-21.708,4.484-31.271-0.99
    c-12.011-6.877-21.021-21.345-26.332-33.729c-6.106-14.237-8.516-29.964-10.598-45.211c-2.603-19.055-5.359-38.094-7.793-57.171
    c-0.804-6.296-1.562-12.6-2.299-18.905c1.061-10.337,1.179-20.862,1.142-31.416c-0.043-12.271-1.248-24.457-1.915-36.722
    c-0.717-13.165-1.153-26.379-2.274-39.515c-3.513-41.094-1.735-87.812-33.368-118.396c-3.384-3.271-6.89-6.343-10.521-9.174
    c-7.514-7.056-16.317-11.999-25.744-14.578c-3.235-1.183-6.562-2.174-9.988-2.943c-8.955-2.011-17.976-0.438-26.128,3.244
    c-2.189,0.99-4.239,2.314-6.159,3.868c-8.82,4.205-16.624,10.359-22.056,18.629c-3.466,5.28-6.731,11.538-8.28,17.653
    c-1.803,7.126-1.759,14.579-2.401,21.857c-0.65,7.361-3.039,14.498-4.848,21.633c-2.146,8.469-3.062,16.837-3.575,25.529
    c-1.054,17.819,0.285,35.647,0.781,53.459c0.81,29.072-0.396,61.316-12.947,88.149c-5.494,11.745-13.649,23.838-25.318,30.159
    c-11.858,6.425-26.319,4.869-38.164-0.777c-54.667-26.052-42.652-99.622-42.551-148.745c0.004-2.062-0.57-3.754-1.506-5.088
    c0.214-6.603,0.442-13.207,0.688-19.81c0.735-19.708,1.765-39.716-0.125-59.382c-1.824-19.007-5.592-37.706-11.485-55.877
    c-10.177-31.378-25.498-70.681-62.106-77.034c-16.618-2.885-33.853-9.667-50.77-4.837c-12.934,3.691-23.112,12.519-30.489,23.572
    c-15.873,23.789-17.442,53.216-17.925,80.84c-0.37,21.099-1.822,42.184-2.63,63.269c-0.794,20.749,0.715,41.155,2.219,61.819
    c0.701,9.633,1.088,19.29,1.849,28.921c0.662,8.388,2.015,16.718,2.545,25.111c0.443,6.989,0.665,14.364-1.213,21.177
    c-1.962,7.127-6.202,11.188-11.741,15.773c-5.476,4.527-10.802,5.914-17.85,5.408c-3.762-0.27-7.401-1.248-11.056-2.18
    c-3.604-0.918-7.398-1.44-10.871-2.867c-15.13-6.219-13.828-23.476-13.757-37.365c0.19-36.498,7.749-72.575,0.698-108.907
    c-6.215-32.021-24.363-59.307-52.79-75.723c-13.088-7.559-27.935-12.472-43.136-12.009c-16.165,0.491-30.183,7.649-41.268,19.266
    c-24.395,25.562-23.417,60.366-21.184,93.262c2.63,38.722,3.757,79.275-3.508,117.577c-1.455,7.672-3.091,15.557-6.966,22.426
    c-3.191,5.658-8.148,11.933-14.524,14.123c-8.01,2.754-17.683,2.869-26.714,1.127c0.105,7.563,0.121,15.135-0.021,22.728
    c-0.893,48.19-3.159,96.226-2.638,144.444c0.5,46.162,3.189,182.223,3.189,182.223l5072.285,0.186V883.18z"/>

    <path class="parallax-item hills3" data-offset="1" opacity="0.6" fill="#557C3E" d="M4836.037,566.308c-22.872-18.983-51.324-13.702-68.421-5.009
    c-17.675,8.986-27.302,27.608-32.931,46.034c-5.603,18.334-9.76,40.15-3.164,102.492c6.595,62.342-57.422,41.854-58.387-5.997
    c-0.965-47.851-55.213-63.012-89.398-58.415c-14.935,2.009-29.196,6.646-41.428,15.379c-2.807,1.767-5.524,3.689-8.111,5.816
    c-18.476,15.178-26.826,37.806-27.812,61.179c-0.943,22.405,3.878,44.788,1.631,67.188c-2.201,21.95-14.235,39.489-35.396,47.216
    c-19.447,7.1-41.961,7.568-60.92-1.415c-22.893-10.845-31.958-32.626-36.729-56.279c-2.964-14.698-4.083-29.734-4.423-44.709
    c-0.398-17.573-1.479-34.587-4.716-51.914c-3.126-16.727-7.955-32.825-11.97-49.322c-4.044-16.617-8.762-32.682-15.559-48.404
    c-10.927-25.278-31.517-45.163-55.045-58.935c-23.104-13.519-50.751-17.891-77.035-13.782
    c-25.604,4.001-51.854,18.534-63.333,42.588c-5.808,12.174-7.075,26.019-6.602,39.351c0.478,13.412,1.44,26.771,1.762,40.191
    c0.399,16.693,2.072,33.383,4.156,49.943c1.875,14.9,5.481,29.112,2.917,44.216c-0.57,3.349-1.742,6.624-2.938,9.79
    c-0.553,1.465-1.01,3.305-1.599,5.003c-0.117,0.233-0.224,0.47-0.343,0.702c-0.38,0.752-0.771,1.49-1.16,2.229
    c-0.443,0.31-1.559,1.379-1.773,1.56c-0.661,0.752-1.5,1.925-2.024,2.679c-2.06,2.96-3.726,6.141-5.226,9.416
    c-0.5,1.089-0.971,2.169-1.431,3.243c-6.05,8.352-13,15.9-21.159,23.059c-1.863,1.633-3.8,3.191-5.789,4.688
    c-0.117,0.033-0.232,0.075-0.35,0.106l0.008,0.148c-11.625,8.681-25.189,15.062-38.898,19.398
    c-15.603,4.938-32.957,7.61-49.121,4.216c-14.221-2.988-28.762-10.389-37.498-22.151c-8.616-11.603-13.014-25.542-15.862-39.63
    c-3.017-14.926-4.476-30.463-8.535-45.122c-2.604-9.404-7.728-18.882-12.872-27.147c-5.444-8.752-11.874-16.967-19.726-23.644
    c-8.442-7.175-15.473-15.086-25.581-20.022c-7.541-3.684-15.956-6.129-24.377-6.096c-14.069-5.703-29.771-7.149-45.033-7.896
    c-20.396-0.998-43.08,5.188-59.791,17.218c-13.218,9.512-21.716,22.026-26.472,36.521c-1.671,4.319-2.688,9.028-3.368,13.901
    c-0.223,1.373-0.418,2.757-0.587,4.153c-1.909,15.8-3.588,32.283-2.769,48.34c-0.166,2.604-0.351,5.213-0.573,7.817
    c-1.251,14.581-5.802,29.071-17.867,38.326c-10.417,7.993-23.739,9.937-36.521,8.972c-10.43-0.788-20.444-4.195-26.77-12.912
    c-5.974-8.229-8.324-19.062-9.322-29.003c-2.517-25.104,1.689-50.249-1.671-75.316c-1.095-8.17-3.076-15.919-5.676-23.429
    c0.17-14.826-1.08-29.472-4.508-44.227c-7.874-33.871-19.589-72.734-51.58-91.465c-17.692-10.358-37.513-12.42-57.597-9.497
    c-12.731,1.853-26.328,6.343-37.905,13.342c-9.148,2.986-17.642,7.527-25.27,14.292c-15.766,13.98-21.175,33.716-23.45,54.104
    c-1.17,10.499-0.371,20.972-2.614,31.341c-2.052,9.485-5.595,18.872-10.396,27.317c-13.645,24.006-47.07,27.84-69.063,13.314
    c-29.117-19.227-34.663-57.812-37.052-89.729c-1.127-15.023-1.789-28.875-3.308-44.549c-0.378-3.905-0.817-7.986-1.485-12.053
    c-0.069-0.713-0.16-1.433-0.261-2.156c-0.403-26.484-0.876-52.969-1.358-79.451c-0.573-31.58-1.951-63.11-2.791-94.683
    c-0.326-12.328-6.779-42.259-10.504-44.317c-8.146-4.503-18.166-6.5-27.301-4.858c-9.889,1.776-17.127,7.126-23.062,15.104
    c-10.489,14.098-13.806,32.129-15.168,49.337c-1.384,17.453-1.789,34.871-3.774,52.286c-5.31,46.532,3.437,93.281,3.978,139.852
    c0.269,22.875-1.263,46.285,1.63,69.032c3.054,24.004,5.207,48.114,6.169,72.296c0.631,15.831,0.313,31.573,1.477,47.332
    c0.871,11.802,1.808,23.778,0.695,35.592c-0.474,5.027-1.356,10.107-3.245,14.791c-1.393,3.457-3.508,6.921-6.624,8
    c-8.223,2.846-15.554-2.386-18.613-10.721c-4.289-11.688-4.309-24.643-4.772-36.953c-0.277-7.323-1.369-14.558-2.005-21.854
    c-1.054-12.117-1.548-24.271-1.708-36.429c-0.305-22.848,0.426-45.717,0.574-68.562c0.121-18.921,2.043-37.78,0.487-56.685
    c-1.498-18.221-6.717-39.794-20.36-52.779c-14.492-13.793-35.623-13.702-52.721-5.008c-17.675,8.986-27.301,27.607-32.931,46.035
    c-6.098,19.955-4.554,41.083-5.837,61.708c-0.311,4.964-0.743,9.669-0.294,14.647c0.536,5.935,1.532,11.829,1.905,17.779
    c0.663,10.595-0.621,21.306,0.195,31.88c0.736,9.521,2.26,19.021,3.088,28.56c0.975,11.187,1.575,22.635,0.27,33.812
    c-0.374,3.212-0.952,6.492-1.854,9.53c-1.317,0.42-2.607,1.231-3.785,2.538c-3.551,3.938-7.941,8.007-12.734,10.498
    c-5.384-0.351-11.285-2.276-15.633-4.313c-11.729-5.492-15.378-17.777-16.951-29.833c-1.834-14.069-0.919-28.429-1.848-42.562
    c-1.177-17.889-5.796-34.949-13.812-50.924c-15.384-30.644-49.475-49.839-83.659-45.241c-14.936,2.007-29.195,6.646-41.427,15.379
    c-2.808,1.766-5.525,3.689-8.112,5.814c-18.475,15.179-26.826,37.808-27.812,61.181c-0.941,22.404,3.879,44.787,1.632,67.188
    c-2.201,21.951-14.236,39.491-35.396,47.216c-19.445,7.102-41.96,7.568-60.92-1.415c-22.891-10.845-31.958-32.626-36.729-56.278
    c-2.963-14.699-4.084-29.735-4.423-44.709c-0.398-17.574-1.479-34.586-4.717-51.914c-3.126-16.728-7.956-32.826-11.971-49.324
    c-4.043-16.616-8.761-32.68-15.558-48.404c-10.927-25.276-31.518-45.163-55.045-58.933c-23.104-13.52-50.752-17.891-77.035-13.783
    c-25.604,4.001-51.855,18.535-63.332,42.588c-5.809,12.174-7.076,26.02-6.603,39.353c0.479,13.411,1.441,26.77,1.763,40.189
    c0.398,16.694,2.07,33.382,4.156,49.943c1.874,14.899,5.48,29.112,2.916,44.216c-0.57,3.35-1.74,6.624-2.937,9.79
    c-0.554,1.465-1.009,3.305-1.599,5.003c-0.116,0.234-0.225,0.47-0.343,0.703c-0.38,0.752-0.771,1.49-1.159,2.229
    c-0.443,0.312-1.56,1.379-1.773,1.562c-0.662,0.752-1.5,1.924-2.025,2.679c-2.061,2.958-3.726,6.141-5.225,9.415
    c-0.5,1.09-0.971,2.169-1.431,3.243c-6.05,8.352-13,15.9-21.159,23.06c-1.863,1.634-3.8,3.189-5.789,4.688
    c-0.115,0.032-0.232,0.074-0.35,0.104l0.01,0.148c-11.626,8.681-25.191,15.063-38.899,19.399
    c-15.603,4.938-32.957,7.609-49.12,4.216c-14.221-2.988-28.762-10.39-37.499-22.152c-8.614-11.602-13.014-25.542-15.862-39.63
    c-3.018-14.925-4.475-30.462-8.534-45.122c-2.604-9.405-7.729-18.881-12.872-27.147c-5.445-8.752-11.872-16.967-19.728-23.644
    c-8.439-7.175-15.472-15.086-25.58-20.021c-7.541-3.684-15.956-6.13-24.378-6.097c-14.068-5.703-29.771-7.148-45.031-7.896
    c-20.396-0.999-43.08,5.188-59.793,17.217c-13.217,9.511-21.716,22.027-26.472,36.521c-1.669,4.319-2.687,9.028-3.368,13.901
    c-0.223,1.373-0.418,2.757-0.586,4.154c-1.909,15.799-3.588,32.283-2.769,48.34c-0.167,2.604-0.351,5.212-0.574,7.817
    c-1.251,14.58-5.803,29.07-17.866,38.326c-10.418,7.992-23.74,9.936-36.521,8.972c-10.431-0.788-20.444-4.196-26.771-12.912
    c-5.975-8.23-8.324-19.062-9.322-29.003c-2.516-25.104,1.688-50.249-1.672-75.317c-1.094-8.17-3.075-15.918-5.674-23.429
    c0.17-14.825-1.08-29.47-4.508-44.227c-7.873-33.869-19.588-72.734-51.578-91.464c-17.693-10.357-37.514-12.42-57.598-9.496
    c-12.73,1.854-26.328,6.343-37.905,13.343c-9.147,2.984-17.641,7.526-25.269,14.292c-15.767,13.979-21.176,33.716-23.449,54.103
    c-1.171,10.499-0.371,20.973-2.615,31.342c-2.052,9.484,4.181,93.864-49.986,89.699c-54.168-4.164-27.192-88.032-50.064-107.015
    c-22.872-18.983-51.324-13.702-68.421-5.009c-17.675,8.986-27.302,27.608-32.931,46.034c-5.603,18.334-9.76,40.15-3.164,102.492
    c6.595,62.342-57.422,41.854-58.387-5.997c-0.965-47.851-55.213-63.012-89.398-58.415c-14.935,2.009-29.196,6.646-41.428,15.379
    c-2.807,1.767-5.524,3.689-8.111,5.816c-18.476,15.178-26.826,37.806-27.812,61.179c-0.943,22.405,3.878,44.788,1.631,67.188
    c-2.201,21.95-14.235,39.489-35.396,47.216c-19.447,7.1-41.961,7.568-60.92-1.415c-22.893-10.845-31.958-32.626-36.729-56.279
    c-2.964-14.698-4.083-29.734-4.423-44.709c-0.398-17.573-1.479-34.587-4.716-51.914c-3.126-16.727-7.955-32.825-11.97-49.322
    c-4.044-16.617-8.762-32.682-15.559-48.404c-10.927-25.278-31.517-45.163-55.045-58.935c-23.104-13.519-50.751-17.891-77.035-13.782
    c-25.604,4.001-51.854,18.534-63.333,42.588c-5.808,12.174-7.075,26.019-6.602,39.351c0.478,13.412,1.44,26.771,1.762,40.191
    c0.399,16.693,2.072,33.383,4.156,49.943c1.875,14.9,5.481,29.112,2.917,44.216c-0.57,3.349-1.742,6.624-2.938,9.79
    c-0.553,1.465-1.01,3.305-1.599,5.003c-0.117,0.233-0.224,0.47-0.343,0.702c-0.38,0.752-0.771,1.49-1.16,2.229
    c-0.443,0.31-1.559,1.379-1.773,1.56c-0.661,0.752-1.5,1.925-2.024,2.679c-2.06,2.96-3.726,6.141-5.226,9.416
    c-0.5,1.089-0.971,2.169-1.431,3.243c-6.05,8.352-13,15.9-21.159,23.059c-1.863,1.633-3.8,3.191-5.789,4.688
    c-0.117,0.033-0.232,0.075-0.35,0.106l0.008,0.148c-11.625,8.681-25.189,15.062-38.898,19.398
    c-15.603,4.938-32.957,7.61-49.121,4.216c-14.221-2.988-28.762-10.389-37.498-22.151c-8.616-11.603-13.014-25.542-15.862-39.63
    c-3.017-14.926-4.476-30.463-8.535-45.122c-2.604-9.404-7.728-18.882-12.872-27.147c-5.444-8.752-11.874-16.967-19.726-23.644
    c-8.442-7.175-15.473-15.086-25.581-20.022c-7.541-3.684-15.956-6.129-24.377-6.096c-14.069-5.703-29.771-7.149-45.033-7.896
    c-20.396-0.998-43.08,5.188-59.791,17.218c-13.218,9.512-21.716,22.026-26.472,36.521c-1.671,4.319-2.688,9.028-3.368,13.901
    c-0.223,1.373-0.418,2.757-0.587,4.153c-1.909,15.8-3.588,32.283-2.769,48.34c-0.166,2.604-0.351,5.213-0.573,7.817
    c-1.251,14.581-5.802,29.071-17.867,38.326c-10.417,7.993-23.739,9.937-36.521,8.972c-10.43-0.788-20.444-4.195-26.77-12.912
    c-5.974-8.229-8.324-19.062-9.322-29.003c-2.517-25.104,1.689-50.249-1.671-75.316c-1.095-8.17-3.076-15.919-5.676-23.429
    c0.17-14.826-1.08-29.472-4.508-44.227c-7.874-33.871-19.589-72.734-51.58-91.465c-17.692-10.358-37.513-12.42-57.597-9.497
    c-12.731,1.853-26.328,6.343-37.905,13.342c-9.148,2.986-17.642,7.527-25.27,14.292c-15.766,13.98-21.175,33.716-23.45,54.104
    c-1.171,10.499-0.371,20.972-2.615,31.341c-2.052,9.485-5.595,18.872-10.395,27.317c-13.645,24.006-47.07,27.84-69.064,13.314
    c-29.117-19.227-34.663-57.812-37.052-89.729c-1.127-15.023-1.788-28.875-3.307-44.549c-0.378-3.905-0.817-7.986-1.485-12.053
    c-3.5-36.042-14.946-71.312-48.133-86.296c-29.991-13.541-68.335-8.04-95.911,8.721c-6.538,3.976-12.569,8.738-17.996,14.112
    c-0.177,10.337-0.363,20.674-0.558,31.013c-0.473,25.102-0.644,50.229,0.564,75.312c1.174,24.389,2.192,48.614,1.74,73.046
    c-0.899,48.495-3.18,96.833-2.654,145.357c0.503,46.455,3.209,152.679,3.209,152.679l4842.268-3.897V588.24
    C4843.974,578.636,4841.352,570.719,4836.037,566.308z"/>
    

<path class="trees5"  fill="#557C3E" d="M1944.641,518.418c-12.74-16.901-34.203-25.713-54.849-18.686c-21.763,7.409-33.49,29.228-32.171,51.614
    c0.744,12.631,4.816,25.778,13.851,34.957c6.763,6.867,15.751,11.144,25.091,13.287c0.352,1.785,0.737,3.565,1.053,5.382
    c0.795,4.604,0.901,9.525,1.242,14.186c0.699,9.543,2.166,18.979,2.258,28.582c0.099,10.667,16.572,10.793,16.572,0.119v-2.209
    c0-0.438-0.037-0.853-0.09-1.255c-0.345-8.414-1.552-16.724-2.166-25.118c-0.354-4.824-0.63-9.687-1.057-14.498
    c-0.252-2.835-1.112-5.559-1.688-8.333c14.883-0.262,29.043-6.875,37.42-20.212C1961.418,558.224,1956.905,534.686,1944.641,518.418
    z"/>
<path class="trees5"  fill="#557C3E" d="M1045.754,564.389c-2.331-5.021-6.771-8.849-10.83-12.643c4.373-5.446,8.104-11.665,6.415-18.998
    c-1.196-5.194-5.597-10.128-10.703-12.423c3.809-5.78,5.959-12.311,4.543-19.53c-1.625-8.278-8.569-12.748-16.147-15.056
    c-8.42-2.566-19.616-2.58-27.315,2.061c-2.15,1.296-4.049,2.884-5.649,4.686c-3.511,3.322-5.86,8.132-6.76,12.898
    c-0.826,4.388-0.102,8.852,2.698,12.418c1.575,2.007,3.601,3.188,5.748,4.192c-5.045,3.988-7.974,11.174-8.626,17.208
    c-0.453,4.207,0.194,9.237,3.287,12.383c1.355,1.379,3.102,2.31,5.003,2.943c-3.596,3.95-5.774,9.715-6.849,14.565
    c-2.056,9.273,2.016,17.043,10.208,21.673c4.499,2.541,9.999,4.365,15.782,5.264c-0.291,8.852-0.818,17.696-0.741,26.562
    c0.047,5.392-1.059,18.122,5.286,20.722c3.469,1.42,7.109-0.502,8.313-3.905c1.188-3.366,0.375-6.93,0.179-10.368
    c-0.621-10.945,0.907-21.843,0.829-32.735c9.916-1.209,19.007-5.646,23.664-14.421
    C1047.062,576.285,1048.515,570.337,1045.754,564.389z"/>
<path class="trees5"  fill="#557C3E" d="M363.475,604.68c-0.131-16.285,0.771-33.215-2.312-49.283c-2.136-11.12-6.432-21.053-18.697-22.729
    c-1.438-0.197-2.891-0.239-4.336-0.172c-9.244-2.374-22.451-2.477-27.357,6.896c-2.037,3.889-2.396,8-2.461,12.245
    c-0.597,0.52-1.047,1.24-1.189,2.196c-2.128,14.299,0.41,27.866,0.585,42.124c0.007,0.533,0.015,1.064,0.021,1.595
    c-0.018,0.42-0.035,0.837-0.053,1.257c-0.146,3.488-0.007,6.99,0.221,10.491c0.15,10.413,0.256,20.822-0.031,31.237
    c-0.323,11.762-1.877,24.095,4.807,34.562c3.705,5.801,9.287,10.236,15.694,12.297c-0.337,8.729-0.77,17.453-0.692,26.197
    c0.055,6.26-1.229,21.038,6.137,24.056c4.028,1.649,8.254-0.581,9.652-4.534c1.38-3.906,0.437-8.042,0.208-12.036
    c-0.646-11.399,0.714-22.756,0.938-34.103c0.455-0.209,0.908-0.422,1.339-0.664c3.868-1.125,7.677-2.813,10.438-5.188
    c8.254-7.092,9.495-21.307,9.599-31.398C366.136,634.688,363.599,619.74,363.475,604.68z"/>
<path class="trees5"  fill="#557C3E" d="M2514.796,574.597c13.09-17.366,35.142-26.42,56.354-19.198c22.361,7.611,34.409,30.03,33.057,53.031
    c-0.766,12.979-4.95,26.487-14.23,35.918c-6.949,7.056-16.186,11.449-25.781,13.652c-0.36,1.834-0.758,3.663-1.082,5.529
    c-0.815,4.73-0.926,9.787-1.276,14.574c-0.718,9.807-2.226,19.502-2.318,29.368c-0.103,10.959-17.028,11.089-17.028,0.121v-2.27
    c0-0.451,0.038-0.875,0.094-1.289c0.354-8.646,1.595-17.185,2.227-25.81c0.362-4.956,0.646-9.951,1.086-14.896
    c0.259-2.914,1.143-5.711,1.732-8.562c-15.291-0.269-29.841-7.062-38.448-20.767
    C2497.557,615.497,2502.193,591.312,2514.796,574.597z"/>
<path class="trees5"  fill="#557C3E" d="M3493.309,695.061c2.743-5.909,7.97-10.414,12.746-14.88c-5.146-6.409-9.537-13.729-7.549-22.358
    c1.407-6.113,6.586-11.92,12.596-14.621c-4.481-6.803-7.014-14.487-5.348-22.985c1.912-9.743,10.086-15.003,19.006-17.72
    c9.909-3.021,23.086-3.037,32.146,2.426c2.531,1.525,4.766,3.395,6.65,5.514c4.131,3.911,6.896,9.57,7.955,15.182
    c0.973,5.163,0.118,10.417-3.178,14.615c-1.854,2.36-4.234,3.75-6.765,4.934c5.938,4.693,9.385,13.15,10.151,20.251
    c0.533,4.951-0.229,10.871-3.868,14.574c-1.595,1.623-3.65,2.717-5.89,3.464c4.232,4.65,6.798,11.434,8.062,17.143
    c2.418,10.914-2.373,20.059-12.017,25.508c-5.293,2.989-11.767,5.137-18.571,6.193c0.34,10.418,0.962,20.828,0.871,31.262
    c-0.056,6.345,1.246,21.328-6.222,24.387c-4.082,1.673-8.367-0.59-9.784-4.598c-1.4-3.961-0.441-8.152-0.211-12.201
    c0.731-12.881-1.066-25.707-0.977-38.525c-11.669-1.423-22.368-6.646-27.851-16.973
    C3491.77,709.061,3490.059,702.061,3493.309,695.061z"/>
<path class="trees5"  fill="#557C3E" d="M4261.492,514.055c0.131-16.199-0.768-33.04,2.301-49.021c2.125-11.062,6.398-20.942,18.598-22.607
    c1.434-0.196,2.877-0.238,4.314-0.171c9.195-2.362,22.331-2.463,27.213,6.859c2.025,3.868,2.383,7.958,2.447,12.18
    c0.592,0.517,1.041,1.234,1.184,2.185c2.117,14.224-0.408,27.718-0.583,41.9c-0.007,0.53-0.015,1.059-0.021,1.586
    c0.017,0.417,0.035,0.833,0.053,1.25c0.145,3.469,0.007,6.953-0.221,10.438c-0.149,10.356-0.254,20.711,0.033,31.07
    c0.319,11.7,1.867,23.967-4.783,34.379c-3.687,5.771-9.237,10.185-15.609,12.233c0.334,8.681,0.762,17.361,0.688,26.058
    c-0.055,6.227,1.224,20.928-6.104,23.93c-4.006,1.641-8.211-0.578-9.603-4.512c-1.371-3.887-0.435-8-0.207-11.973
    c0.646-11.338-0.711-22.635-0.933-33.921c-0.453-0.208-0.905-0.418-1.332-0.661c-3.847-1.118-7.635-2.798-10.383-5.159
    c-8.211-7.054-9.444-21.193-9.548-31.231C4258.844,543.904,4261.369,529.035,4261.492,514.055z"/>


<path class="hills4" id="ground_1_" fill="#9FBC2E" d="M5095.549,804.879c-1.906-0.503-3.815-0.993-5.725-1.469c-1.351-0.336-2.705-0.658-4.06-0.986
    c1.41-5.492,2.005-11.13,3.556-16.568c1.588-5.572,4.992-10.427,6.209-16.149c0.009-0.041,0.012-0.079,0.02-0.12v-3.055
    c-1.443-6.581-12.199-8.422-13.876-0.538c-1.212,5.694-4.62,10.569-6.211,16.146c-1.595,5.604-2.179,11.415-3.681,17.062
    c-32.822-7.18-66.519-11.812-99.965-12.887c-15.603-0.503-31.242-0.2-46.808,1.037c-24.015-29.169-52.338-54.338-82.742-76.625
    c-0.916-0.672-1.849-1.324-2.771-1.987c4.049-6.39,9.379-12.182,13.808-18.226c2.636-3.598,5.661-7.401,8.938-10.4
    c1.523-1.396,4.932-5.543,6.338-5.78c9.104-1.526,5.254-15.357-3.785-13.841c-4.56,0.766-7.463,4.727-10.635,7.678
    c-3.609,3.361-6.799,6.932-9.891,10.812c-3.396,4.263-6.391,8.764-9.861,12.969c-2.322,2.814-4.641,5.643-6.683,8.658
    c-17.702-11.742-36.521-22.172-55.84-31.301c0.134-0.278,0.269-0.558,0.401-0.826c2.361-4.731,4.51-9.589,6.349-14.549
    c3.655-9.865,8.167-19.149,12.53-28.68c6.224-2.624,5.192-13.8-2.965-13.8h-1.914c-2.289,0-5.146,1.347-6.135,3.543
    c-4.528,10.051-10.209,19.744-13.674,30.233c-1.699,5.143-3.668,10.093-6.057,14.955c-0.523,1.063-1.062,2.123-1.605,3.179
    c-7.303-3.199-14.652-6.228-22.021-9.066c-22.387-8.63-45.039-16.341-68.049-22.894c0.059-0.131,0.12-0.262,0.172-0.396
    c7.501-18.986,12.354-38.82,18.174-58.348c2.646-8.87-11.225-12.547-13.857-3.714c-5.822,19.527-10.672,39.36-18.174,58.348
    c-0.043,0.111-0.069,0.226-0.105,0.336c-10.923-2.866-21.927-5.471-33.027-7.768c-1.955-0.404-3.914-0.794-5.873-1.186
    c2.219-11.443,4.602-22.998,9.082-33.72c1.506-3.604,1.146-7.628-2.558-9.821c-3.013-1.784-8.33-1.011-9.819,2.557
    c-5.168,12.364-8.088,25.271-10.729,38.316c-8.863-1.608-17.749-3.075-26.654-4.397c0.023-0.225,0.045-0.45,0.051-0.687
    c0.211-8.842,2.775-17.983,4.742-26.568c1.965-8.582,1.535-19.29,5.748-27.14c4.371-8.141-8.01-15.396-12.377-7.265
    c-5.027,9.361-4.898,20.508-7.229,30.688c-2.152,9.401-4.736,19.274-5.182,28.98c-23.127-3.035-46.371-5.128-69.695-6.294
    c-43.945-2.199-88.877-0.237-132.213,7.47c-21.948,3.904-43.54,8.371-64.843,14.953c-4.558,1.408-9.121,2.899-13.677,4.45
    c-3.535-5.599-6.174-11.646-9.373-17.464c-2.832-5.155-6.078-10.219-7.9-15.811c0.502-2.059,0.057-4.341-1.903-6.301
    c-0.317-0.32-0.638-0.638-0.957-0.957c-5.409-5.409-13.215,0.182-12.021,6.942c1.388,7.852,5.646,15.084,9.58,21.915
    c3.142,5.451,5.646,11.201,8.791,16.617c-11.514,4.334-22.867,9.141-33.783,14.496c-2.858,1.404-5.719,2.815-8.574,4.233
    c-2.854-1.418-5.713-2.829-8.572-4.233c-8.821-4.328-17.932-8.291-27.174-11.945c1.789-3.508,3.515-7.053,5.489-10.481
    c3.937-6.83,8.192-14.062,9.58-21.915c1.194-6.761-6.61-12.351-12.021-6.941c-0.318,0.318-0.639,0.637-0.957,0.958
    c-1.959,1.959-2.404,4.241-1.901,6.299c-1.823,5.593-5.069,10.655-7.901,15.811c-2.03,3.694-3.838,7.481-5.787,11.188
    c-6.836-2.447-13.707-4.742-20.569-6.861c-21.302-6.582-42.896-11.049-64.843-14.953c-43.336-7.707-88.268-9.669-132.213-7.47
    c-22.53,1.126-44.987,3.115-67.332,5.983c-1.053-6.746-2.748-13.479-4.236-19.983c-2.331-10.18-2.204-21.327-7.23-30.688
    c-4.366-8.132-16.748-0.875-12.377,7.266c4.215,7.848,3.783,18.556,5.748,27.138c1.353,5.897,2.983,12.058,3.943,18.201
    c-9.252,1.346-18.481,2.853-27.689,4.508c-2.215-9.99-4.86-19.844-8.844-29.374c-1.489-3.566-6.809-4.34-9.818-2.556
    c-3.704,2.192-4.063,6.217-2.557,9.821c3.308,7.916,5.47,16.286,7.269,24.731c-2.458,0.485-4.914,0.979-7.368,1.486
    c-11.074,2.291-22.052,4.889-32.949,7.748c-5.81-16.404-10.077-33.303-15.051-49.979c-2.634-8.833-16.503-5.156-13.858,3.713
    c4.979,16.7,9.254,33.622,15.077,50.047c-23.021,6.556-45.688,14.271-68.088,22.904c-7.593,2.927-15.166,6.055-22.688,9.363
    c-1.362-3.188-2.588-6.425-3.686-9.742c-3.466-10.491-9.146-20.185-13.675-30.235c-0.989-2.194-3.847-3.543-6.135-3.543h-1.914
    c-8.16,0-9.188,11.176-2.965,13.801c4.362,9.529,8.873,18.814,12.528,28.68c0.873,2.354,1.819,4.683,2.82,6.986
    c-19.9,9.437-39.271,20.239-57.418,32.454c-0.391-0.476-0.781-0.95-1.174-1.425c-3.473-4.205-6.467-8.705-9.863-12.967
    c-3.092-3.882-6.279-7.452-9.891-10.814c-3.17-2.95-6.074-6.91-10.633-7.678c-9.041-1.517-12.892,12.314-3.787,13.841
    c1.406,0.237,4.812,4.388,6.339,5.78c3.276,2.999,6.301,6.805,8.938,10.402c2.688,3.67,5.709,7.246,8.576,10.919
    c-0.28,0.204-0.565,0.401-0.845,0.605c-30.405,22.287-58.729,47.456-82.743,76.625c-15.563-1.237-31.204-1.54-46.807-1.038
    c-32.968,1.061-66.177,5.573-98.552,12.577c-0.506-2.709-1.032-5.411-1.789-8.063c-1.589-5.579-4.998-10.454-6.209-16.148
    c-1.923-9.037-15.775-5.298-13.858,3.713c1.216,5.725,4.622,10.578,6.21,16.149c0.707,2.479,1.213,5.003,1.688,7.534
    c-1.834,0.438-3.67,0.88-5.498,1.336c-15.422,3.844-30.779,8.551-45.629,14.463c-3-2.292-5.97-4.623-8.875-7.035
    c-16.418-13.623-33.801-25.878-51.914-36.938c0.457-0.795,0.924-1.594,1.422-2.389c2.81-4.479,6.222-8.62,9.576-12.695
    c3.36-4.078,6.312-8.474,9.681-12.541c3.188-3.852,7.008-6.62,9.438-11.11c4.393-8.117-8.021-15.314-12.427-7.174
    c-2.013,3.72-5.628,6.18-8.267,9.498c-3.312,4.163-6.39,8.481-9.752,12.605c-3.211,3.94-6.341,7.96-9.239,12.136
    c-0.984,1.418-1.806,2.943-2.654,4.438c-5.155-2.943-10.364-5.799-15.623-8.562c2.027-3.314,4.304-6.516,6.036-9.955
    c3.044-6.052,6.136-12.088,9.838-17.771c5.051-7.754-7.396-14.893-12.426-7.173c-4.045,6.207-7.242,12.847-10.657,19.403
    c-1.652,3.173-3.554,6.118-5.355,9.12c-5.998-2.95-12.049-5.803-18.155-8.541c2.608-5.444,5.246-10.875,7.789-16.35
    c2.963-6.376,12.803-21.892,3.657-27.303c-5.538-3.277-10.688,1.742-10.634,6.686c-0.117,0.444-0.196,0.993-0.273,1.242
    c-0.407,1.291-1.354,3.629-1.593,4.203c-1.97,4.715-4.186,9.332-6.382,13.942c-1.869,3.93-3.922,7.85-5.857,11.817
    c-4.8-2.021-9.617-3.996-14.457-5.911c2.477-4.184,4.324-8.722,6.15-13.318c3.148-7.935,6.625-15.761,10.801-23.21
    c4.521-8.061-7.898-15.245-12.425-7.174c-4.13,7.364-7.556,15.111-10.752,22.922c-2.156,5.266-3.993,10.951-7.403,15.562
    c-9.354-3.447-18.803-6.641-28.348-9.543c0.591-1.48,1.206-2.946,1.898-4.366c2.184-4.467,3.979-9.171,6.402-13.508
    c3.174-5.683,9.844-15.07,5.646-21.636c-4.526-7.078-15.266-1.684-13.293,5.256c-0.076,0.165-0.164,0.359-0.281,0.607
    c-0.661,1.403-1.332,2.795-2.056,4.168c-1.113,2.112-2.403,4.144-3.468,6.277c-2.271,4.55-4.199,9.287-6.455,13.854
    c-0.854,1.728-1.558,3.543-2.243,5.365c-9.597-2.578-19.275-4.84-29.013-6.83c1.558-5.58,2.763-11.247,4.443-16.858
    c2.606-8.7,6.188-17.125,6.481-26.328c0.297-9.249-14.056-9.323-14.352-0.103c-0.249,7.807-3.778,15.234-5.972,22.642
    c-1.746,5.894-2.734,12.078-4.49,17.992c-7.697-1.376-15.422-2.604-23.158-3.707c-4.198-0.599-8.408-1.146-12.623-1.668
    c0.023-0.267,0.05-0.53,0.077-0.793c0.751-6.822,2.434-13.524,3.455-20.309c0.937-6.197,1.341-12.398,2.015-18.622
    c0.6-5.517,2.158-10.94,2.438-16.478c0.466-9.241-13.888-9.303-14.35-0.104c-0.263,5.182-1.762,10.459-2.352,15.648
    c-0.667,5.854-0.928,11.708-1.866,17.532c-1.006,6.219-2.262,12.387-3.198,18.619c-0.143,0.938-0.229,1.905-0.297,2.887
    c-12.037-1.26-24.123-2.229-36.229-2.951c0.161-1.623,0.321-3.246,0.518-4.862c0.721-5.933,1.229-12.091,1.341-18.074
    c0.17-9.247-14.184-9.331-14.353-0.103c-0.101,5.521-0.555,11.186-1.16,16.661c-0.207,1.876-0.375,3.761-0.572,5.641
    c-20.148-0.883-40.329-1.109-60.426-0.849c0.608-19.259,3.715-38.401,3.814-57.697c0.048-9.245-14.304-9.341-14.354-0.103
    c-0.102,19.42-3.242,38.685-3.824,58.07c-5.031,0.127-10.061,0.319-15.085,0.557c0.679-3.795,1.315-7.598,1.555-11.44
    c0.598-9.6,1.908-19.301,2.056-28.911c0.142-9.248-14.212-9.334-14.353-0.103c-0.146,9.61-1.456,19.312-2.054,28.911
    c-0.261,4.168-0.983,8.267-1.725,12.359c-3.939,0.265-7.878,0.553-11.812,0.88c-8.477,0.702-23.743,1.918-33.713,3.024
    c-9.971-1.106-25.239-2.322-33.716-3.024c-2.344-0.194-4.689-0.36-7.036-0.533c-0.901-7.145-2.743-14.164-3.194-21.394
    c-0.597-9.599-1.908-19.301-2.054-28.91c-0.143-9.231-14.492-9.146-14.353,0.103c0.147,9.61,1.458,19.312,2.055,28.91
    c0.427,6.852,2.114,13.576,3.058,20.35c-5.504-0.296-11.013-0.508-16.522-0.674c0.373-22.362-3.772-44.508-3.89-66.861
    c-0.049-9.237-14.399-9.143-14.353,0.103c0.116,22.209,4.212,44.213,3.899,66.425c-19.668-0.31-39.424-0.149-59.157,0.617
    c-1.135-4.624-1.401-9.408-1.925-14.138c-0.606-5.476-1.062-11.141-1.162-16.66c-0.17-9.229-14.521-9.146-14.353,0.102
    c0.11,5.985,0.621,12.145,1.341,18.075c0.539,4.431,0.807,8.908,1.594,13.296c-12.227,0.668-24.432,1.592-36.594,2.801
    c-0.689-3.627-0.473-7.601-1.009-11.169c-0.938-6.231-2.194-12.399-3.196-18.619c-0.941-5.823-1.199-11.679-1.866-17.532
    c-0.591-5.188-2.093-10.469-2.353-15.647c-0.461-9.2-14.814-9.139-14.352,0.104c0.279,5.535,1.84,10.961,2.438,16.476
    c0.676,6.225,1.08,12.426,2.016,18.624c1.022,6.782,2.705,13.484,3.455,20.308c0.325,2.957,0.271,6.023,0.625,9.009
    c-5.504,0.652-10.998,1.357-16.477,2.14c-5.758,0.821-11.509,1.715-17.247,2.684c-0.135-0.704-0.349-1.407-0.639-2.094
    c-3.173-7.5-4.154-15.786-6.458-23.562c-2.193-7.407-5.721-14.836-5.971-22.644c-0.295-9.22-14.646-9.146-14.353,0.104
    c0.295,9.203,3.876,17.628,6.481,26.328c2.445,8.162,3.889,16.441,6.869,24.409c-9.559,1.85-19.068,3.94-28.504,6.333
    c-2.025-3.949-3.199-8.418-5.177-12.42c-2.257-4.563-4.187-9.303-6.457-13.852c-1.063-2.137-2.354-4.166-3.466-6.277
    c-0.725-1.373-1.395-2.765-2.055-4.168c-0.119-0.249-0.208-0.443-0.283-0.607c1.972-6.938-8.768-12.334-13.292-5.258
    c-4.198,6.565,2.473,15.953,5.646,21.638c2.423,4.337,4.222,9.041,6.402,13.508c1.768,3.619,3.049,7.521,4.647,11.239
    c-9.22,2.664-18.336,5.633-27.374,8.826c-0.156-1.369-0.76-2.753-1.945-4.016c-4.609-4.907-6.677-11.592-9.18-17.707
    c-3.198-7.809-6.623-15.557-10.751-22.921c-4.526-8.072-16.946-0.886-12.427,7.174c4.177,7.448,7.652,15.276,10.803,23.21
    c2.71,6.827,5.476,13.523,10.267,19.12c-5.274,2.011-10.521,4.097-15.745,6.242c-2.623-6.097-5.861-12.012-8.687-17.95
    c-2.195-4.611-4.412-9.228-6.384-13.941c-0.236-0.575-1.184-2.911-1.592-4.203c-0.076-0.249-0.156-0.799-0.273-1.243
    c0.055-4.942-5.096-9.963-10.633-6.685c-9.146,5.41,0.694,20.927,3.657,27.303c2.573,5.541,5.244,11.035,7.886,16.548
    c0.922,1.924,1.843,3.85,2.74,5.785c-6.021,2.616-11.995,5.335-17.916,8.153c-2.495-5.096-5.777-9.621-8.433-14.717
    c-3.414-6.557-6.612-13.197-10.657-19.405c-5.029-7.72-17.477-0.579-12.426,7.175c3.703,5.683,6.795,11.72,9.84,17.771
    c2.658,5.282,6.602,9.999,8.952,15.434c-5.075,2.582-10.105,5.241-15.091,7.986c-2.599-2.672-3.966-6.259-6.105-9.342
    c-2.898-4.176-6.028-8.195-9.239-12.136c-3.362-4.124-6.441-8.445-9.751-12.607c-2.639-3.317-6.255-5.778-8.268-9.496
    c-4.404-8.141-16.818-0.944-12.426,7.173c2.43,4.489,6.25,7.261,9.438,11.111c3.366,4.067,6.32,8.462,9.68,12.542
    c3.355,4.074,6.769,8.214,9.576,12.695c1.553,2.476,2.804,4.989,4.428,7.278c-20.396,12.029-39.907,25.535-58.224,40.732
    c-2.907,2.412-5.877,4.743-8.877,7.035c-14.85-5.912-30.207-10.619-45.63-14.463c-1.349-0.336-2.705-0.658-4.058-0.986
    c1.409-5.492,2.004-11.13,3.556-16.568c1.586-5.572,4.991-10.427,6.208-16.149c1.919-9.012-11.937-12.75-13.857-3.713
    c-1.211,5.694-4.621,10.569-6.211,16.146c-1.595,5.603-2.178,11.414-3.682,17.062c-32.821-7.18-66.516-11.812-99.964-12.887
    c-15.602-0.503-31.241-0.2-46.808,1.037c-24.013-29.169-52.336-54.338-82.74-76.625c-0.916-0.672-1.85-1.326-2.771-1.987
    c4.049-6.39,9.381-12.182,13.807-18.226c2.638-3.598,5.66-7.401,8.939-10.4c1.524-1.396,4.93-5.543,6.338-5.78
    c9.104-1.526,5.252-15.357-3.788-13.841c-4.557,0.766-7.462,4.727-10.632,7.678c-3.611,3.361-6.799,6.932-9.891,10.812
    c-3.396,4.263-6.391,8.764-9.862,12.969c-2.324,2.814-4.64,5.643-6.681,8.658c-17.703-11.743-36.521-22.174-55.84-31.302
    c0.134-0.278,0.268-0.557,0.4-0.825c2.361-4.731,4.512-9.589,6.348-14.549c3.657-9.865,8.166-19.149,12.53-28.68
    c6.224-2.624,5.194-13.8-2.965-13.8h-1.913c-2.291,0-5.146,1.347-6.137,3.543c-4.529,10.051-10.208,19.744-13.674,30.233
    c-1.698,5.143-3.667,10.093-6.055,14.955c-0.524,1.063-1.062,2.122-1.605,3.178c-7.302-3.199-14.65-6.227-22.02-9.065
    c-22.387-8.63-45.041-16.341-68.051-22.894c0.059-0.131,0.12-0.262,0.172-0.396c7.502-18.986,12.353-38.82,18.174-58.348
    c2.646-8.87-11.225-12.547-13.857-3.714c-5.823,19.527-10.672,39.36-18.173,58.348c-0.044,0.111-0.07,0.226-0.106,0.336
    c-10.924-2.866-21.928-5.471-33.029-7.768c-1.957-0.404-3.916-0.794-5.873-1.186c2.22-11.443,4.603-22.998,9.082-33.72
    c1.506-3.604,1.146-7.628-2.558-9.821c-3.013-1.784-8.331-1.011-9.821,2.557c-5.167,12.364-8.085,25.271-10.727,38.316
    c-8.863-1.608-17.748-3.075-26.653-4.397c0.023-0.225,0.044-0.45,0.05-0.687c0.209-8.842,2.776-17.983,4.742-26.568
    c1.964-8.582,1.534-19.29,5.748-27.14c4.372-8.141-8.009-15.396-12.378-7.265c-5.026,9.361-4.897,20.508-7.229,30.688
    c-2.154,9.402-4.736,19.274-5.183,28.98c-23.125-3.035-46.37-5.128-69.694-6.294c-43.948-2.199-88.877-0.237-132.214,7.47
    c-21.948,3.904-43.539,8.371-64.842,14.953c-4.559,1.408-9.122,2.899-13.676,4.45c-3.535-5.599-6.175-11.646-9.374-17.464
    c-2.833-5.155-6.079-10.219-7.902-15.811c0.502-2.059,0.059-4.341-1.902-6.301c-0.318-0.32-0.638-0.638-0.957-0.957
    c-5.411-5.409-13.218,0.182-12.022,6.942c1.389,7.852,5.646,15.084,9.582,21.915c3.141,5.451,5.646,11.201,8.791,16.617
    c-11.514,4.334-22.865,9.141-33.783,14.496c-2.859,1.404-5.718,2.815-8.572,4.233c-2.855-1.418-5.713-2.829-8.574-4.233
    c-8.821-4.328-17.931-8.292-27.175-11.946c1.79-3.507,3.515-7.053,5.489-10.48c3.935-6.83,8.193-14.062,9.58-21.915
    c1.196-6.761-6.609-12.351-12.02-6.941c-0.32,0.318-0.638,0.637-0.958,0.957c-1.959,1.959-2.404,4.242-1.902,6.3
    c-1.823,5.593-5.069,10.655-7.9,15.811c-2.031,3.694-3.838,7.48-5.788,11.188c-6.835-2.446-13.707-4.741-20.568-6.86
    c-21.302-6.582-42.894-11.049-64.843-14.953c-43.336-7.707-88.266-9.669-132.213-7.47c-22.531,1.126-44.988,3.115-67.333,5.982
    c-1.053-6.745-2.748-13.478-4.237-19.982c-2.33-10.18-2.203-21.327-7.229-30.688c-4.368-8.133-16.749-0.877-12.376,7.265
    c4.213,7.848,3.781,18.556,5.748,27.138c1.35,5.897,2.982,12.057,3.941,18.201c-9.252,1.346-18.48,2.854-27.688,4.508
    c-2.214-9.99-4.859-19.843-8.843-29.374c-1.49-3.565-6.808-4.34-9.819-2.556c-3.703,2.192-4.063,6.217-2.556,9.82
    c3.307,7.916,5.469,16.288,7.269,24.732c-2.458,0.485-4.914,0.979-7.368,1.486c-11.075,2.291-22.052,4.89-32.95,7.748
    c-5.81-16.404-10.079-33.303-15.051-49.979c-2.634-8.833-16.503-5.156-13.856,3.713c4.979,16.7,9.252,33.622,15.075,50.047
    c-23.021,6.556-45.688,14.271-68.087,22.904c-7.593,2.927-15.166,6.054-22.688,9.362c-1.362-3.188-2.588-6.423-3.687-9.741
    c-3.465-10.491-9.144-20.186-13.673-30.235c-0.991-2.194-3.848-3.543-6.137-3.543h-1.913c-8.16,0-9.188,11.177-2.965,13.8
    c4.364,9.53,8.874,18.815,12.527,28.681c0.872,2.354,1.819,4.683,2.821,6.985c-19.9,9.438-39.271,20.24-57.419,32.455
    c-0.39-0.476-0.782-0.949-1.173-1.425c-3.472-4.205-6.466-8.705-9.863-12.967c-3.091-3.882-6.277-7.452-9.89-10.813
    c-3.17-2.951-6.075-6.912-10.631-7.679c-9.041-1.517-12.893,12.314-3.789,13.841c1.409,0.237,4.814,4.388,6.339,5.78
    c3.278,2.999,6.301,6.804,8.938,10.402c2.688,3.67,5.709,7.246,8.576,10.918c-0.28,0.205-0.565,0.401-0.846,0.606
    c-30.405,22.287-58.729,47.456-82.742,76.625c-15.564-1.237-31.206-1.539-46.807-1.037c-32.969,1.06-66.176,5.572-98.552,12.577
    c-0.506-2.71-1.032-5.411-1.79-8.064c-1.589-5.579-4.997-10.454-6.21-16.148c-1.923-9.037-15.775-5.298-13.858,3.713
    c1.217,5.725,4.624,10.578,6.21,16.149c0.707,2.479,1.214,5.003,1.689,7.534c-1.835,0.438-3.67,0.88-5.497,1.336
    c-15.424,3.844-30.78,8.551-45.63,14.463c-3.001-2.292-5.97-4.623-8.876-7.035c-16.417-13.623-33.8-25.879-51.915-36.938
    c0.458-0.795,0.924-1.593,1.421-2.388c2.811-4.479,6.222-8.62,9.577-12.694c3.361-4.079,6.314-8.475,9.682-12.541
    c3.188-3.853,7.009-6.621,9.438-11.111c4.394-8.117-8.02-15.314-12.426-7.174c-2.014,3.72-5.629,6.18-8.267,9.498
    c-3.312,4.162-6.39,8.481-9.753,12.605c-3.212,3.94-6.341,7.96-9.24,12.136c-0.984,1.419-1.806,2.942-2.654,4.438
    c-5.154-2.943-10.361-5.798-15.62-8.562c2.028-3.312,4.304-6.514,6.035-9.952c3.044-6.053,6.136-12.09,9.838-17.771
    c5.05-7.754-7.396-14.893-12.427-7.173c-4.045,6.207-7.241,12.847-10.657,19.403c-1.653,3.172-3.554,6.119-5.354,9.121
    c-5.998-2.951-12.049-5.805-18.155-8.541c2.61-5.445,5.247-10.877,7.79-16.351c2.961-6.376,12.801-21.892,3.656-27.303
    c-5.538-3.277-10.688,1.742-10.633,6.686c-0.116,0.444-0.196,0.993-0.274,1.242c-0.407,1.291-1.353,3.629-1.592,4.203
    c-1.971,4.715-4.187,9.332-6.382,13.942c-1.868,3.93-3.921,7.85-5.857,11.816c-4.799-2.021-9.618-3.995-14.458-5.91
    c2.477-4.184,4.326-8.722,6.151-13.318c3.148-7.935,6.625-15.762,10.802-23.21c4.519-8.061-7.9-15.245-12.427-7.175
    c-4.129,7.365-7.555,15.112-10.75,22.923c-2.156,5.265-3.993,10.95-7.404,15.562c-9.355-3.447-18.803-6.641-28.348-9.543
    c0.591-1.479,1.205-2.946,1.898-4.366c2.182-4.467,3.981-9.171,6.402-13.508c3.174-5.683,9.844-15.07,5.646-21.636
    c-4.525-7.078-15.264-1.683-13.293,5.256c-0.076,0.165-0.164,0.358-0.283,0.608c-0.659,1.402-1.332,2.795-2.055,4.168
    c-1.113,2.111-2.402,4.143-3.467,6.276c-2.271,4.55-4.199,9.287-6.456,13.854c-0.854,1.728-1.557,3.543-2.243,5.366
    c-9.596-2.579-19.274-4.842-29.01-6.83c1.557-5.581,2.762-11.248,4.444-16.859c2.606-8.7,6.187-17.125,6.481-26.328
    c0.296-9.249-14.056-9.323-14.351-0.104c-0.249,7.808-3.778,15.235-5.971,22.643c-1.746,5.893-2.735,12.078-4.491,17.992
    c-7.698-1.376-15.422-2.604-23.158-3.707c-4.199-0.6-8.408-1.146-12.622-1.668c0.024-0.266,0.048-0.53,0.078-0.793
    c0.752-6.822,2.433-13.524,3.456-20.309c0.936-6.197,1.339-12.398,2.015-18.623c0.597-5.516,2.158-10.939,2.437-16.477
    c0.462-9.241-13.892-9.303-14.353-0.104c-0.26,5.181-1.76,10.459-2.351,15.647c-0.667,5.854-0.926,11.708-1.866,17.532
    c-1.004,6.219-2.26,12.387-3.198,18.619c-0.141,0.938-0.229,1.906-0.295,2.887c-12.038-1.26-24.124-2.23-36.231-2.951
    c0.162-1.623,0.322-3.246,0.519-4.861c0.719-5.934,1.229-12.092,1.341-18.075c0.167-9.247-14.185-9.331-14.354-0.103
    c-0.101,5.521-0.555,11.186-1.161,16.661c-0.208,1.876-0.375,3.761-0.572,5.642c-20.149-0.884-40.33-1.11-60.427-0.85
    c0.609-19.259,3.714-38.4,3.815-57.697c0.049-9.244-14.303-9.341-14.351-0.103c-0.102,19.42-3.244,38.685-3.825,58.069
    c-5.033,0.128-10.062,0.32-15.087,0.558c0.679-3.795,1.316-7.599,1.556-11.44c0.597-9.6,1.909-19.301,2.055-28.91
    c0.142-9.25-14.21-9.334-14.352-0.104c-0.146,9.61-1.458,19.312-2.054,28.911c-0.259,4.168-0.983,8.267-1.723,12.36
    c-3.939,0.264-7.877,0.553-11.812,0.879c-9.555,0.792-27.749,2.235-37.245,3.441c4.209,24.323,0.573,50.376-0.345,74.53
    c-1.167,30.672,1.74,300.424-0.001,330.995c1.223,0.072,2.446,0.135,3.67,0.204c2.848-0.082,5.693-0.162,8.54-0.237
    c24.326-0.643,59.151-0.984,83.48-0.668c49.901,0.645,99.79,2.138,149.696,2.489c100.56,0.707,201.152-0.618,301.709-1.354
    c101.153-0.74,202.312-1.41,303.469-0.99c98.454,0.406,196.846-1.03,295.281,0.478c88.32,1.353,176.828,6.646,264.984,1.133
    c88.155,5.513,176.664,0.22,264.983-1.133c98.438-1.508,196.827-0.07,295.281-0.478c101.158-0.42,202.314,0.25,303.468,0.99
    c100.559,0.735,201.149,2.062,301.71,1.354c49.905-0.353,99.794-1.845,149.695-2.489c24.33-0.316,59.155,0.025,83.48,0.668
    c2.572,0.067,5.146,0.141,7.721,0.214c0.136,0.008,0.271,0.017,0.408,0.023c0.068-0.002,0.138-0.005,0.205-0.007
    c0.068,0.003,0.138,0.005,0.205,0.007c0.138-0.009,0.272-0.017,0.409-0.023c2.573-0.073,5.147-0.146,7.722-0.214
    c24.323-0.643,59.148-0.984,83.479-0.668c49.9,0.645,99.791,2.138,149.696,2.489c100.559,0.707,201.151-0.618,301.71-1.354
    c101.152-0.74,202.311-1.41,303.467-0.99c98.455,0.406,196.848-1.03,295.283,0.478c88.318,1.353,176.826,6.646,264.982,1.133
    c88.158,5.513,176.664,0.22,264.983-1.133c98.437-1.508,196.828-0.07,295.282-0.478c101.157-0.42,202.312,0.25,303.467,0.99
    c2.421,0.018,4.843,0.039,7.264,0.058V804.879z"/>

	<path class="hills5" opacity="0.25" fill="#7D9126" d="M5095.549,826.096c-19.971-1.175-39.992,0.327-59.827,5.151
    c-14.409,3.504-28.776,9.804-40.615,18.806c-5.782,4.397-11.308,8.996-16.79,13.631c-7.438-4.951-15.129-9.523-22.908-13.906
    c-19.963-11.247-41.053-20.281-62.288-28.812c-37.504-15.064-76.747-22.668-116.831-26.896
    c-77.494-8.179-159.288,9.946-226.064,50.056c-21.77,13.077-42.219,29.039-60.86,46.236c-5.312,4.898-10.369,10.048-15.301,15.316
    c-5.244-2.297-10.492-4.589-15.783-6.811c-11.334-4.757-23.427-5.486-35.562-7.061c-21.438-2.777-44.523,1.016-65.539,4.285
    c-21.709,3.379-41.385,11.417-61.506,19.94c-0.928-0.865-1.854-1.728-2.797-2.579c-17.688-16.007-37.059-30.718-57.529-43.012
    c-20.32-12.203-42.417-21.65-64.582-29.886c-17.516-6.508-35.629-11.325-53.956-14.918c-39.82-7.808-80.569-10.96-121.101-11.75
    c-27.893-0.545-55.846,0.208-83.649,2.605c-35.008-17.458-72.799-30.201-111.226-36.962c-24.941-4.389-50.326-7.367-75.668-7.778
    c-25.295-0.408-50.396,2.619-75.348,6.542c-45.004,7.071-85.705,26.292-125.229,48.203c-17.271,9.575-34.004,20.046-49.646,32.122
    c-5.797,4.475-11.751,8.917-17.552,13.549c-4.62-3.524-9.235-7.022-13.975-10.213c-11.815-7.946-25.224-12.838-38.463-17.91
    c-12.075-4.625-24.42-8.514-36.998-11.503c-33.993-8.082-68.635-9.589-102.728-1.298c-14.409,3.504-28.777,9.804-40.615,18.806
    c-5.782,4.397-11.306,8.996-16.789,13.631c-7.438-4.951-15.131-9.523-22.909-13.906c-19.963-11.247-41.053-20.28-62.289-28.812
    c-37.504-15.064-76.744-22.668-116.83-26.896c-77.496-8.179-159.289,9.946-226.064,50.056c-21.77,13.077-42.22,29.039-60.861,46.236
    c-5.312,4.898-10.369,10.048-15.301,15.317c-5.243-2.298-10.491-4.59-15.783-6.812c-11.333-4.756-23.426-5.486-35.561-7.061
    c-21.44-2.777-44.524,1.016-65.54,4.285c-21.709,3.379-41.384,11.418-61.505,19.94c-0.928-0.865-1.854-1.728-2.796-2.579
    c-17.69-16.007-37.062-30.718-57.532-43.012c-20.32-12.203-42.415-21.65-64.581-29.886c-17.517-6.508-35.63-11.325-53.956-14.918
    c-39.821-7.808-80.571-10.96-121.1-11.75c-35.293-0.688-70.679,0.688-105.74,4.862c-40.208,4.789-80.373,11.18-118.539,25.16
    c-25.161,9.217-49.633,20.486-71.801,35.271c-9.529-8.481-19.668-16.316-29.867-24.089c-15.626-11.908-32.172-22.506-49.436-31.881
    c-38.544-20.931-80.955-36.079-124.163-43.681c-24.941-4.39-50.327-7.367-75.67-7.778c-25.293-0.408-50.394,2.619-75.346,6.542
    c-45.005,7.071-85.706,26.292-125.229,48.203c-17.271,9.575-34.003,20.046-49.645,32.122c-5.795,4.475-11.75,8.917-17.551,13.549
    c-4.62-3.525-9.235-7.021-13.976-10.212c-11.812-7.947-25.221-12.839-38.46-17.91c-12.076-4.626-24.42-8.515-37-11.504
    c-33.992-8.082-68.634-9.589-102.727-1.298c-14.409,3.504-28.776,9.804-40.615,18.806c-5.783,4.397-11.306,8.996-16.79,13.631
    c-7.437-4.95-15.13-9.523-22.91-13.907c-19.962-11.246-41.051-20.279-62.288-28.812c-37.503-15.065-76.744-22.669-116.83-26.896
    c-77.494-8.179-159.289,9.946-226.065,50.056c-21.771,13.077-42.218,29.039-60.862,46.235c-5.311,4.899-10.368,10.049-15.3,15.318
    c-5.244-2.298-10.491-4.59-15.783-6.812c-11.333-4.757-23.427-5.486-35.561-7.061c-21.44-2.778-44.525,1.016-65.54,4.285
    c-21.708,3.379-41.384,11.418-61.505,19.94c-0.929-0.865-1.854-1.728-2.798-2.579c-17.689-16.007-37.06-30.718-57.531-43.013
    c-20.32-12.203-42.415-21.649-64.581-29.885c-17.516-6.508-35.629-11.325-53.956-14.918c-39.822-7.808-80.571-10.96-121.101-11.75
    c-35.292-0.689-70.678,0.688-105.739,4.862c-14.964,1.782-29.922,3.788-44.772,6.321v281.688h5096.003V826.096H5095.549z"/>

</svg>
