<?xml version="1.0" encoding="utf-8"?>
<!-- Generator: Adobe Illustrator 16.0.0, SVG Export Plug-In . SVG Version: 6.00 Build 0)  -->
<!DOCTYPE svg PUBLIC "-//W3C//DTD SVG 1.1//EN" "http://www.w3.org/Graphics/SVG/1.1/DTD/svg11.dtd">
<svg version="1.1" id="Layer_1" xmlns="http://www.w3.org/2000/svg" xmlns:xlink="http://www.w3.org/1999/xlink" x="0px" y="0px"
	 width="499px" height="405px" viewBox="-126.286 -174.42 499 405" enable-background="new -126.286 -174.42 499 405"
	 xml:space="preserve">
<g id="armR">
	<g>
		<path fill="#9BB526" d="M318.362,126.866c-1.217,0-2.405-0.241-3.534-0.716c-1.873-0.791-3.38-2.142-4.354-3.834
			c-1.548,1.021-3.382,1.588-5.277,1.588c-1.273,0-2.521-0.252-3.701-0.75c-1.559-0.657-2.885-1.695-3.881-2.991
			c-1.688,1.877-4.113,3.003-6.73,3.003c-1.17,0-2.312-0.23-3.393-0.686c-3.735-1.576-5.909-5.197-5.454-9.049
			c0.005-0.101,0.019-0.199,0.038-0.298l0.037-0.187c0.101-0.676,0.32-1.651,0.65-2.438c0.057-0.135,0.123-0.275,0.194-0.418
			c7.938-27.068-5.668-55.713-31.706-66.684c-0.98-0.414-2.038-0.814-3.324-1.264c-0.759-0.265-1.287-0.957-1.338-1.761
			c-0.051-0.802,0.383-1.558,1.102-1.916c8.269-4.137,17.498-6.321,26.691-6.321c7.93,0,15.686,1.574,23.051,4.678
			c14.416,6.074,24.979,17.119,30.547,31.936c5.146,13.699,5.598,29.947,1.268,45.75c-0.725,2.637-1.971,5.984-2.839,7.623
			c-0.076,0.145-0.169,0.274-0.273,0.393C324.481,125.215,321.542,126.866,318.362,126.866z"/>
		<path fill="#829620" d="M274.382,34.15c7.436,0,14.991,1.451,22.273,4.521c29.264,12.331,39.053,44.687,30.662,75.313
			c-0.674,2.453-1.873,5.695-2.68,7.214l-0.043-0.005c-1.273,2.308-3.695,3.673-6.232,3.673c-0.92,0-1.856-0.181-2.758-0.56
			c-2.383-1.005-3.924-3.147-4.273-5.529c-1.436,1.979-3.736,3.127-6.135,3.127c-0.978,0-1.969-0.189-2.926-0.594
			c-2.4-1.013-4.012-3.104-4.486-5.478l-0.074,0.021c-0.08,0.299-0.184,0.662-0.312,0.957c-1.129,2.685-3.763,4.355-6.515,4.355
			c-0.875,0-1.763-0.169-2.616-0.527c-2.957-1.248-4.642-4.104-4.228-7.104h-0.006c0,0,0.051-0.248,0.051-0.254
			c0.084-0.59,0.278-1.417,0.521-1.991c0.063-0.156,0.144-0.308,0.219-0.458c8.224-27.719-5.53-57.773-32.797-69.266
			c-1.141-0.479-2.291-0.906-3.442-1.309C256.533,36.285,265.368,34.15,274.382,34.15 M274.382,30.15
			c-9.504,0-19.043,2.259-27.587,6.533c-1.438,0.719-2.306,2.229-2.202,3.834c0.104,1.604,1.158,2.991,2.676,3.521
			c1.246,0.435,2.266,0.821,3.207,1.218c25.047,10.555,38.159,38.073,30.61,64.117c-0.062,0.13-0.122,0.262-0.177,0.395
			c-0.465,1.104-0.689,2.338-0.766,2.834l-0.027,0.135c-0.036,0.175-0.061,0.351-0.071,0.525c-0.53,4.723,2.121,9.145,6.667,11.062
			c1.331,0.561,2.734,0.844,4.172,0.844c2.44,0,4.744-0.8,6.615-2.203c0.939,0.838,2.023,1.528,3.217,2.032
			c1.434,0.603,2.939,0.907,4.48,0.907c1.625,0,3.213-0.344,4.666-0.984c1.109,1.316,2.533,2.375,4.188,3.073
			c1.377,0.58,2.828,0.874,4.312,0.874c3.832,0,7.377-1.967,9.402-5.176c0.153-0.19,0.291-0.397,0.408-0.618
			c1.072-2.022,2.348-5.646,3-8.027c4.441-16.209,3.973-32.896-1.322-46.985c-5.766-15.344-16.707-26.781-31.644-33.074
			C290.597,31.777,282.58,30.15,274.382,30.15L274.382,30.15z"/>
	</g>
</g>
<g id="armL">
	<g>
		<path fill="#9BB526" d="M-61.64,139.535c-2.044,0-4.024-0.684-5.622-1.936c-0.138-0.072-0.267-0.16-0.386-0.267
			c-1.394-1.242-3.729-3.946-5.316-6.157c-9.564-13.303-14.805-28.688-14.754-43.322c0.055-15.83,6.108-29.861,17.505-40.578
			c11.068-10.409,25.535-16.142,40.736-16.142c2.149,0,4.323,0.117,6.459,0.349c0.799,0.086,1.468,0.644,1.7,1.412
			c0.232,0.77-0.02,1.604-0.638,2.116c-1.049,0.869-1.899,1.615-2.677,2.347c-20.58,19.353-23.354,50.94-6.486,73.552
			c0.126,0.118,0.235,0.223,0.338,0.334c0.388,0.413,0.965,1.122,1.387,1.833c0.016,0.018,0.026,0.027,0.026,0.027
			c0.151,0.162,0.271,0.346,0.359,0.541c1.783,3.444,0.991,7.619-1.996,10.429c-1.638,1.54-3.797,2.387-6.081,2.387
			c-1.49,0-2.949-0.366-4.247-1.043c-0.48,1.574-1.368,3.022-2.608,4.188c-1.777,1.67-4.101,2.59-6.543,2.592
			c-0.735,0-1.461-0.083-2.167-0.246c-0.323,1.925-1.266,3.716-2.747,5.107C-57.092,138.656-59.31,139.535-61.64,139.535z"/>
		<path fill="#829620" d="M-29.477,33.135c2.086,0,4.169,0.111,6.244,0.336c-0.939,0.779-1.868,1.582-2.771,2.432
			c-21.555,20.269-23.972,53.23-6.607,76.353c0.123,0.113,0.249,0.228,0.365,0.353c0.426,0.453,0.757,1.136,1.04,1.66
			c0.004,0.004-0.005,0.195-0.005,0.195v0.002c2,2.731,0.988,5.953-1.351,8.153c-1.318,1.237-2.919,1.844-4.617,1.844
			c-1.904,0-3.767-0.76-5.157-2.237c-0.223-0.235-0.434-0.526-0.618-0.783l-0.07,0.012c0.381,2.393-0.394,4.914-2.293,6.699
			c-1.458,1.371-3.314,2.048-5.17,2.048c-1.47,0-2.937-0.425-4.202-1.267c0.502,2.354-0.198,4.902-2.079,6.672
			c-1.373,1.293-3.125,1.933-4.874,1.933c-1.659,0-3.313-0.575-4.64-1.716l-0.037,0.021c-1.282-1.143-3.539-3.765-5.022-5.829
			c-18.538-25.785-20.637-59.523,2.497-81.277C-57.746,38.297-43.596,33.135-29.477,33.135 M-29.21,29.135v4v-3.598h-0.267
			c-15.713,0-30.667,5.725-42.106,16.482C-83.39,57.123-89.662,71.555-89.718,87.945c-0.052,15.054,5.321,30.807,15.131,44.449
			c1.686,2.349,4.098,5.109,5.609,6.457c0.196,0.176,0.406,0.314,0.626,0.444c1.923,1.456,4.281,2.244,6.712,2.244
			c2.841,0,5.545-1.075,7.615-3.021c1.31-1.232,2.275-2.723,2.856-4.342c0.228,0.014,0.457,0.021,0.686,0.021
			c2.954,0,5.764-1.114,7.914-3.135c0.954-0.897,1.736-1.936,2.328-3.062c1.017,0.302,2.08,0.457,3.157,0.457
			c2.794,0,5.44-1.04,7.45-2.929c3.607-3.395,4.58-8.438,2.477-12.66c-0.154-0.354-0.363-0.689-0.625-0.995
			c-0.488-0.785-1.096-1.531-1.55-2.015c-0.088-0.096-0.185-0.19-0.285-0.287C-45.763,87.79-43.058,57.43-23.262,38.812
			c0.747-0.701,1.568-1.422,2.584-2.264c1.237-1.027,1.74-2.693,1.277-4.23c-0.463-1.539-1.67-2.651-3.267-2.824
			C-24.877,29.256-27.21,29.135-29.21,29.135L-29.21,29.135z"/>
	</g>
</g>
<g id="circle3">
	<path fill="#9BB526" stroke="#829620" stroke-width="8" stroke-miterlimit="10" d="M298.228,7.086
		c-0.684,22.451-18.938,28.412-18.938,28.412s13.994,10.964,8.125,33.169s-27.546,20.187-27.546,20.187s10.151,15.197-3.753,33.941
		s-32.783,9.564-32.783,9.564s4.109,20.1-15.09,30.639s-34.074-2.205-34.074-2.205s-3.754,18.439-24.689,23.592
		c-20.935,5.153-31.254-13.773-31.254-13.773s-9.832,17.123-31.257,13.773c-21.424-3.348-24.688-23.592-24.688-23.592
		s-17.422,12.662-34.079,2.203c-16.657-10.459-15.088-30.637-15.088-30.637s-20.571,7.359-32.784-9.566s-3.752-33.941-3.752-33.941
		s-20.062-0.392-27.547-20.186c-7.485-19.794,8.127-33.168,8.127-33.168S-60.104,28.635-61.78,7.086
		c-1.676-21.549,18.938-28.412,18.938-28.412s-14.639-12.202-8.127-33.17c6.514-20.967,27.549-20.186,27.549-20.186
		s-8.461-18.601,3.752-33.941s32.785-9.564,32.785-9.564s-0.752-21,15.088-30.638c15.84-9.638,34.077,2.204,34.077,2.204
		s6.112-20.341,24.687-23.592c18.576-3.25,31.257,13.775,31.257,13.775s12.69-15.524,31.254-13.775
		c18.563,1.75,24.688,23.592,24.688,23.592s18.274-12.065,34.075-2.203c15.8,9.861,15.089,30.637,15.089,30.637
		s19.854-4.594,32.78,9.565c12.931,14.159,3.757,33.942,3.757,33.942s20.916-0.348,27.545,20.185
		c6.629,20.533-8.125,33.168-8.125,33.168S298.911-15.365,298.228,7.086z"/>
</g>
<g id="circle2">
	<g>
		<path fill="#A2BD28" d="M101.427,150.402c-1.744,0-3.539-0.209-5.338-0.623c-13.335-3.062-18.686-13.028-20.416-17.35
			c-2.589,1.682-7.898,4.463-14.704,4.463c-4.182,0-8.298-1.062-12.233-3.16c-12.244-6.517-13.463-18.487-13.414-23.392
			c-1.326,0.272-3.21,0.543-5.465,0.543c-5.222,0-12.953-1.471-20.13-8.474C-0.44,92.489,2.935,80.582,4.91,75.83
			c-4.749-0.578-15.513-3.33-21.275-16.271c-5.886-13.222,1.336-23.069,4.723-26.701c-4.201-2.457-13.88-9.504-14.5-22.495
			c-0.639-13.339,9.58-20.868,13.72-23.358c-2.965-3.75-9.893-14.212-6.133-26.188c3.8-12.108,16.136-16.086,20.856-17.186
			c-1.595-4.509-4.783-16.799,3.268-26.806c6.113-7.599,14.939-9.194,21.267-9.194c1.745,0,3.221,0.125,4.28,0.253
			c0.23-4.566,1.828-16.664,12.026-24.037c3.542-2.561,7.659-3.859,12.237-3.859c6.444,0,12.151,2.561,14.863,4.009
			c1.698-4.601,7.21-16.35,19.774-18.403c1.283-0.21,2.59-0.316,3.883-0.316c10.559,0,18.404,6.88,21.32,9.875
			c2.809-3.236,10.588-10.792,21.956-10.792c0.938,0,1.892,0.053,2.835,0.158c12.825,1.426,18.649,12.636,20.543,17.322
			c2.58-1.806,7.868-4.792,14.621-4.792c4.266,0,8.446,1.205,12.426,3.581c11.854,7.081,13.303,18.326,13.334,23.178
			c1.653-0.476,4.125-0.994,7.045-0.994c5.049,0,12.39,1.6,18.674,9.221c9.133,11.075,6.455,21.937,4.697,26.423
			c4.598,0.52,14.758,3.185,21.258,16.25c6.638,13.339-0.686,22.924-4.418,26.637c4.316,2.09,13.033,8.067,14.222,22.567
			c1.118,13.646-7.147,20.873-13.229,23.556c3.553,3.693,10.396,12.979,5.625,26.104c-4.844,13.314-15.902,16.503-20.646,17.263
			c1.756,4.34,4.637,15.077-3.397,26.584c-5.771,8.269-13.604,10.003-19.16,10.003c-2.525,0-4.694-0.354-6.201-0.693
			c0.25,4.879-0.568,16.336-12.346,23.803c-4.238,2.686-8.728,4.048-13.344,4.048c-6.236,0-11.171-2.472-13.68-4.044
			c-1.613,4.771-6.768,16.107-19.785,18.199c-1.387,0.224-2.785,0.336-4.161,0.336c-10.663,0-18.034-6.568-20.938-9.695
			C118.644,142.9,112.058,150.402,101.427,150.402z"/>
		<path fill="#8EA622" d="M137.177-134.139c0.869,0,1.758,0.048,2.668,0.149c15.119,1.681,19.996,18.279,19.996,18.279
			s6.329-5.74,15.334-5.74c3.545,0,7.506,0.889,11.656,3.369c14.695,8.777,12.508,24.033,12.508,24.033s3.616-1.637,8.641-1.637
			c5.15,0,11.779,1.718,17.519,8.676c11.338,13.75,3.571,26.854,3.571,26.854s0.107-0.006,0.312-0.006
			c2.11,0,14.479,0.652,21.888,15.539c8.116,16.314-5.869,26.451-5.869,26.451s14.009,3.752,15.521,22.207
			c1.513,18.455-14.551,22.857-14.551,22.857s12.967,9.838,7.03,26.168c-5.938,16.328-21.479,16.512-21.479,16.512
			s7.41,12.961-2.385,26.988c-5.32,7.621-12.492,9.36-17.933,9.36c-4.567,0-7.914-1.228-7.914-1.228s3.095,15.355-11.437,24.566
			c-4.47,2.834-8.753,3.815-12.539,3.815c-8.521,0-14.53-4.97-14.53-4.97s-3.765,16.666-19.172,19.145
			c-1.354,0.217-2.662,0.316-3.923,0.316c-13.103,0-21.104-10.695-21.104-10.695S114.3,148.9,101.426,148.9
			c-1.575,0-3.243-0.182-5.002-0.584c-16.141-3.705-19.994-18.279-19.994-18.279s-6.352,5.354-15.462,5.354
			c-3.503,0-7.414-0.791-11.528-2.981c-14.822-7.89-12.508-24.033-12.508-24.033s-2.835,1.009-7.076,1.009
			c-5.144,0-12.356-1.457-19.083-8.021C-1.5,89.386,7.203,74.536,7.203,74.536s-0.032,0-0.093,0c-1.274,0-15.345-0.375-22.106-15.56
			c-7.084-15.914,5.869-26.466,5.869-26.466s-14.777-6.674-15.518-22.213c-0.744-15.54,14.549-22.863,14.549-22.863
			s-11.436-12.135-7.029-26.17c4.404-14.033,21.477-16.512,21.477-16.512s-6.994-15.331,2.385-26.988
			c5.846-7.267,14.449-8.635,20.099-8.635c3.414,0,5.749,0.499,5.749,0.499s-0.553-15.898,11.436-24.566
			c3.67-2.654,7.63-3.575,11.358-3.575c8.449,0,15.708,4.729,15.708,4.729s4.588-16.759,19.172-19.143
			c1.245-0.204,2.461-0.297,3.643-0.297c12.649,0,21.387,10.677,21.387,10.677S123.624-134.139,137.177-134.139 M137.177-137.139
			c-10.725,0-18.404,6.366-22.016,10.14c-3.7-3.47-11.332-9.222-21.26-9.222c-1.375,0-2.762,0.113-4.127,0.336
			c-12.059,1.971-17.974,12.277-20.318,17.812c-3.179-1.512-8.349-3.437-14.077-3.437c-4.901,0-9.314,1.394-13.116,4.144
			c-9.679,6.999-11.99,18.014-12.526,23.611c-0.851-0.066-1.829-0.111-2.9-0.111c-6.656,0-15.951,1.692-22.437,9.754
			c-7.703,9.574-5.708,21.07-4.015,26.695c-5.73,1.615-16.722,6.159-20.371,17.786c-3.585,11.421,1.989,21.495,5.398,26.247
			c-4.916,3.312-13.664,11.042-13.052,23.821c0.583,12.226,8.749,19.458,13.651,22.719c-4.555,5.482-8.933,15.365-3.747,27.016
			c5.369,12.059,14.902,15.725,20.52,16.836c-2.406,6.883-3.083,17.719,5.896,26.479c7.538,7.355,15.677,8.9,21.178,8.9
			c1.472,0,2.8-0.111,3.935-0.266c0.313,6.996,3.481,17.213,14.239,22.938c4.154,2.213,8.507,3.336,12.938,3.336
			c6.033,0,10.965-2.078,14.02-3.804c2.408,5.082,8.247,13.778,20.765,16.651c1.907,0.438,3.816,0.66,5.674,0.66
			c10.006,0,16.631-6.225,19.868-10.246c3.662,3.529,10.875,8.914,20.792,8.914c1.454,0,2.934-0.119,4.398-0.354
			c12.406-1.995,18.072-11.858,20.332-17.498c2.914,1.568,7.438,3.361,12.895,3.361c4.905,0,9.664-1.44,14.146-4.282
			c11.207-7.104,13.065-17.406,13.113-23.244c1.332,0.211,2.903,0.369,4.631,0.369c5.912,0,14.25-1.847,20.391-10.646
			c7.505-10.746,5.936-20.903,4.186-26.266c5.635-1.238,15.412-5.207,20.037-17.926c4.174-11.482-0.064-20.85-4.541-26.191
			c6.182-3.441,13.307-10.992,12.232-24.104c-1.107-13.523-8.301-19.979-13.186-22.836c4.789-5.476,9.072-15.17,3.229-26.913
			c-6.033-12.127-15.144-15.727-20.547-16.779c1.758-5.468,3.088-15.652-5.595-26.18c-6.656-8.073-14.459-9.767-19.83-9.767
			c-2.121,0-4.024,0.261-5.584,0.59c-0.377-5.771-2.771-15.839-14.027-22.562c-4.215-2.517-8.653-3.793-13.194-3.793
			c-5.993,0-10.905,2.224-13.956,4.076c-2.58-5.534-8.798-15.235-21.044-16.597C139.179-137.083,138.17-137.139,137.177-137.139
			L137.177-137.139z"/>
	</g>
	<path fill="none" stroke="#8CA322" stroke-width="2" stroke-linecap="round" stroke-miterlimit="10" d="M232.937-8.926
		c0,0,11.771,2.73,11.293,15.379c-0.476,12.648-9.847,16.342-9.847,16.342s8.017,7.915,5.38,18.311
		c-2.634,10.396-14.859,11.971-14.859,11.971"/>
	<path fill="none" stroke="#8CA322" stroke-width="2" stroke-linecap="round" stroke-miterlimit="10" d="M128.674-106.359
		c0,0,4.364-8.762,14.56-7.227c10.197,1.534,12.25,10.68,12.25,10.68s7.711-5.09,16.154-1.787
		c8.444,3.303,7.838,14.238,7.838,14.238"/>
	<path fill="none" stroke="#8CA322" stroke-width="2" stroke-linecap="round" stroke-miterlimit="10" d="M12.693,61.156
		c0,0-11.771,0.509-14.903-9.91c-3.134-10.418,3.463-17.557,3.463-17.557S-7.812,30.854-9.34,19.268
		C-10.868,7.682-0.105,3.94-0.105,3.94"/>
</g>
<g id="circle1">
	<path fill="#A8C429" stroke="#94AB23" stroke-width="3" stroke-miterlimit="10" d="M226.781,7.181
		c-0.413,13.542-11.423,17.137-11.423,17.137s8.438,6.613,4.898,20.007s-16.613,12.176-16.613,12.176s6.123,9.166-2.266,20.474
		c-8.386,11.307-19.771,5.771-19.771,5.771s2.479,12.123-9.104,18.479c-11.581,6.355-20.553-1.33-20.553-1.33
		s-2.266,11.123-14.893,14.229c-12.629,3.107-18.854-8.311-18.854-8.311s-5.932,10.328-18.854,8.311
		c-12.922-2.02-14.892-14.229-14.892-14.229s-10.508,7.639-20.555,1.33c-10.047-6.311-9.102-18.479-9.102-18.479
		s-12.407,4.438-19.773-5.771C27.666,66.764,32.768,56.5,32.768,56.5s-12.101-0.236-16.615-12.175
		c-4.515-11.938,4.901-20.007,4.901-20.007S10.642,20.177,9.631,7.181C8.62-5.817,21.055-9.957,21.055-9.957
		s-8.83-7.359-4.902-20.007c3.929-12.646,16.616-12.175,16.616-12.175s-5.104-11.22,2.262-20.473
		c7.367-9.253,19.776-5.77,19.776-5.77s-0.454-12.666,9.101-18.479c9.553-5.813,20.553,1.329,20.553,1.329
		s3.688-12.269,14.894-14.229c11.203-1.961,18.852,8.309,18.852,8.309s7.656-9.365,18.854-8.309
		c11.196,1.055,14.893,14.229,14.893,14.229s11.021-7.277,20.554-1.328c9.528,5.947,9.103,18.479,9.103,18.479
		s11.976-2.771,19.771,5.77s2.266,20.473,2.266,20.473s12.617-0.209,16.613,12.176c3.999,12.384-4.898,20.006-4.898,20.006
		S227.192-6.361,226.781,7.181z"/>
</g>
</svg>
