<?xml version="1.0" encoding="utf-8"?>
<!-- Generator: Adobe Illustrator 16.0.0, SVG Export Plug-In . SVG Version: 6.00 Build 0)  -->
<!DOCTYPE svg PUBLIC "-//W3C//DTD SVG 1.1//EN" "http://www.w3.org/Graphics/SVG/1.1/DTD/svg11.dtd">
<svg version="1.1" id="Layer_1" xmlns="http://www.w3.org/2000/svg" xmlns:xlink="http://www.w3.org/1999/xlink" x="0px" y="0px"
	 width="379px" height="281px" viewBox="0 0 379 281" enable-background="new 0 0 379 281" xml:space="preserve" class="shader-face">
<path fill="#D0A61D" d="M270.616,132.851c-0.326-0.161-0.654-0.327-0.976-0.501c-6.375-3.418-12.37-7.538-18.751-10.962
	c-5.93-3.181-12.066-6.105-18.525-8.044c-6.328-1.909-12.877-2.868-19.431-3.562c-6.542-0.688-13.103-1.504-19.689-1.483
	c-6.514,0.024-13.056,0.41-19.546,0.938c-14.014,1.137-27.733,4.221-41.484,7.017c-7.043,1.435-14.098,2.853-21.197,3.444
	c3.148-1.092,6.29-2.217,9.406-3.387c16.06-6.007,31.885-13.391,48.809-16.707c16.586-3.244,34.294-0.925,50.373,3.889
	c7.735,2.318,14.932,5.429,21.821,9.639c0.629,0.385,1.259,0.771,1.896,1.155c6.496,3.946,13.088,7.871,19.199,12.383
	C265.258,128.681,267.937,130.762,270.616,132.851z"/>
<path fill="#FDC93B" d="M200.838,63.866c-0.129-0.491-0.586-0.886-1.195-0.647c-3.553,1.384-7.065,3.74-9.566,6.724
	c-0.311-0.666-0.639-1.322-0.96-1.969c-0.224-0.713-0.46-1.427-0.722-2.145c-1.18-4.672-2.247-9.384-4.191-13.783
	c0.01-0.049,0.01-0.104,0.021-0.149c0.231-0.9-1.111-1.618-1.672-0.824c-2.043,2.885-1.557,7.548-2.438,10.868
	c-1.035,3.889-2.009,7.823-2.63,11.809c-0.533-0.854-1.123-1.674-1.801-2.441c-1.78-2.025-4.033-3.393-6.279-4.797
	c-0.146-0.557-0.678-0.793-1.142-0.723c-0.45-0.289-0.896-0.582-1.335-0.889c-0.74-0.521-1.873,0.065-1.542,1.038
	c2.268,6.665,2.947,13.841,3.061,20.86c0.006,0.273,0.104,0.477,0.253,0.622c0.088,0.29,0.3,0.552,0.656,0.672
	c1.306,0.437,2.611,0.358,3.976,0.332c2.405-0.046,4.793,0.125,7.195,0.104c4.609-0.039,9.198,0.714,13.805,0.443
	c0.486-0.028,0.984-0.501,0.906-1.019c-0.59-3.943,1.025-8.908,2.172-12.648c1.068-3.481,3.27-6.875,3.896-10.441
	C201.391,64.386,201.17,64.039,200.838,63.866z"/>
<path fill="#D0A61D" d="M136.077,108.256c-0.111-0.084-0.235-0.162-0.383-0.227c-6.393-2.795-15.563-5.757-21.759-0.979
	c-2.385,1.84-4.532,4.896-4.959,7.916c-0.422,3,1.729,5.604,4.236,6.967c3.031,1.65,6.36,1.154,9.634,0.58
	c2.34-0.414,4.516-1.205,6.494-2.389c1.421-0.318,2.767-0.945,3.884-1.92c0.806-0.701,1.343-1.539,1.816-2.453
	c1.251-1.461,2.384-3.107,2.605-4.834C137.792,109.787,137.073,108.729,136.077,108.256z"/>
<path fill="#D0A61D" d="M276.865,118.965c-3.314-11.945-13.348-22.147-24.652-26.899c-7.154-3.007-14.301-1.262-21.49,0.893
	c-3.699,1.109-7.393,2.321-10.852,4.052c-1.803,0.903-6.074,3.989-8.23,3.303c-1.273-0.405-2.309-0.033-3,0.693
	c-2.209,0.182-4.414,0.372-6.615,0.616c-1.295-0.167-2.602,0.011-3.998,0.728c-3.52,1.807-0.836,6.347,2.475,5.873
	c0.484-0.07,0.973-0.131,1.461-0.188c1.008,0.398,2.697,1.432,3.012,1.58c1.342,0.635,2.658,1.309,3.898,2.127
	c2.947,1.943,5.629,4.645,8.09,7.16c4.73,4.838,9.08,9.912,14.521,13.99c5.93,4.443,12.385,8.42,19.188,11.395
	c6.283,2.75,13.738,4.477,20.346,1.807C280.572,142.234,279.037,126.783,276.865,118.965z"/>
<path fill="#D0A61D" d="M214.756,152.818c-0.984-3.561-5.568-4.742-8.736-5.244c-12.758-2.023-25.308,3.051-38.116,1.127
	c-2.656-0.398-15.865-4.01-15.914,1.188c-0.455,1.359-0.088,3.113,1.095,3.898c1.671,1.109,4.15,1.049,6.047,1.504
	c3.596,0.863,7.129,1.949,10.68,2.969c6.525,1.871,13.164,3.078,19.915,3.785c6.03,0.633,12.881,1.477,18.659-0.824
	C211.488,159.984,215.809,156.621,214.756,152.818z"/>
<path class="shader-mouth" fill="#594C2D" d="M201.414,151.328c-1.387-1.006-3.656-1.059-5.311-1.24c-2.712-0.299-5.448-0.232-8.167-0.035
	c-5.096,0.369-10.072,1.135-15.201,0.92c-1.645-0.07-3.286-0.176-4.93-0.289c-0.011-0.002-0.022-0.004-0.033-0.004
	c-3.869-0.637-7.7-1.41-11.612-1.527c-0.511-0.244-1.071-0.262-1.667-0.078c-0.152,0.027-0.317,0.061-0.513,0.105
	c-0.391,0.086-0.733,0.525-0.708,0.93c0.181,2.881,5.148,3.148,7.296,3.908c4.527,1.602,8.611,3.439,13.396,4.252
	c4.974,0.848,10.084,1.16,15.119,0.898c3.62-0.188,9.226-0.16,12.113-2.74C202.766,155.021,203.297,152.693,201.414,151.328z"/>
<path fill="#D0B467" d="M130.094,112.453c-0.423-1.711-0.873-3.57-2.4-4.646c-1.308-0.923-2.84-0.867-4.324-0.555
	c-0.333-0.027-0.667-0.039-1.002-0.025c-0.852,0.035-1.679,0.211-2.455,0.504c-0.088,0.033-0.178,0.07-0.267,0.107
	c-1.563,0.658-2.889,1.807-3.735,3.301c-0.428,0.699-0.712,1.438-0.822,2.199c-0.623,3.188,1.45,5.34,4.193,6.348
	c1.534,0.682,3.276,0.908,4.92,0.594c0.488-0.057,0.961-0.146,1.411-0.271C129.034,119.043,130.957,115.945,130.094,112.453z"/>
<g >
	<defs>
		<path id="EYE_PATH_L" d="M128.289,112.121c-0.319-1.297-0.662-2.705-1.818-3.521c-0.992-0.699-2.151-0.658-3.277-0.42
			c-0.253-0.021-0.507-0.031-0.759-0.021c-0.646,0.027-1.272,0.162-1.861,0.383c-0.066,0.027-0.135,0.053-0.202,0.082
			c-1.185,0.498-2.189,1.369-2.83,2.502c-0.324,0.527-0.54,1.09-0.623,1.666c-0.473,2.416,1.099,4.047,3.177,4.811
			c1.163,0.516,2.484,0.689,3.729,0.449c0.37-0.041,0.729-0.109,1.069-0.207C127.484,117.115,128.942,114.768,128.289,112.121z"/>
	</defs>
	<clipPath id="EYE_MASK_L" class="shader-eye">
		<use xlink:href="#EYE_PATH_L"  overflow="visible"/>
	</clipPath>
	<g clip-path="url(#EYE_MASK_L)">
		<path fill="#FFFFFF" d="M128.289,112.121c-0.319-1.297-0.662-2.705-1.818-3.521c-0.992-0.699-2.151-0.658-3.277-0.42
			c-0.253-0.021-0.507-0.031-0.759-0.021c-0.646,0.027-1.272,0.162-1.861,0.383c-0.066,0.027-0.135,0.053-0.202,0.082
			c-1.185,0.498-2.189,1.369-2.83,2.502c-0.324,0.527-0.54,1.09-0.623,1.666c-0.473,2.416,1.099,4.047,3.177,4.811
			c1.163,0.516,2.484,0.689,3.729,0.449c0.37-0.041,0.729-0.109,1.069-0.207C127.484,117.115,128.942,114.768,128.289,112.121z"/>
		<path fill="#594C2D" d="M125.126,112.713c0.002-0.74-0.585-1.443-1.13-1.668c-0.124-0.051-0.553-0.48-0.816-0.48l0,0
			c-0.854,0-1.975,0.541-2.447,1.426c-0.495,0.93-0.211,2.32,0.717,2.857c1.428,0.824,3.885-0.305,3.652-2.029
			C125.108,112.758,125.126,112.771,125.126,112.713z"/>
	</g>
</g>
<path fill="#D0B467" d="M266.459,117.152c-0.094-1.197-0.43-2.279-0.895-3.311c-1-4.66-3.562-9.031-7.326-12.032
	c-3.789-3.02-8.271-3.702-12.682-2.752c-1.182,0.058-2.303,0.204-3.258,0.423c-3.404,0.783-5.828,3.38-7.195,6.486
	c-0.684,1.111-1.225,2.316-1.633,3.595c-0.166,0.395-0.322,0.791-0.465,1.186c-1.807,5.051,0.094,11.197,2.521,15.725
	c2.416,4.506,6.697,7.949,11.832,8.584c2.949,0.369,6.295-0.123,9.232-1.383c4.154-1.203,7.814-3.742,8.898-8.021
	C266.178,122.934,266.676,119.965,266.459,117.152z"/>
<g >
	<defs>
		<path id="EYE_PATH_R" d="M261.984,115.164c-0.066-0.885-0.316-1.682-0.66-2.443c-0.738-3.438-2.627-6.662-5.404-8.875
			c-2.795-2.229-6.102-2.733-9.355-2.031c-0.873,0.042-1.699,0.15-2.402,0.312c-2.514,0.577-4.301,2.494-5.309,4.785
			c-0.504,0.819-0.902,1.709-1.205,2.651c-0.121,0.291-0.238,0.584-0.344,0.877c-1.33,3.727,0.07,8.26,1.861,11.598
			c1.781,3.326,4.939,5.865,8.729,6.336c2.178,0.27,4.645-0.092,6.811-1.021c3.064-0.889,5.766-2.76,6.564-5.916
			C261.777,119.428,262.145,117.238,261.984,115.164z"/>
	</defs>
	<clipPath id="EYE_MASK_R" class="shader-eye">
		<use xlink:href="#EYE_PATH_R"  overflow="visible"/>
	</clipPath>
	<g clip-path="url(#EYE_MASK_R)">
		<path fill="#FFFFFF" d="M261.984,115.164c-0.066-0.885-0.316-1.682-0.66-2.443c-0.738-3.438-2.627-6.662-5.404-8.875
			c-2.795-2.229-6.102-2.733-9.355-2.031c-0.873,0.042-1.699,0.15-2.402,0.312c-2.514,0.577-4.301,2.494-5.309,4.785
			c-0.504,0.819-0.902,1.709-1.205,2.651c-0.121,0.291-0.238,0.584-0.344,0.877c-1.33,3.727,0.07,8.26,1.861,11.598
			c1.781,3.326,4.939,5.865,8.729,6.336c2.178,0.27,4.645-0.092,6.811-1.021c3.064-0.889,5.766-2.76,6.564-5.916
			C261.777,119.428,262.145,117.238,261.984,115.164z"/>
		<path fill="#594C2D" d="M253.553,113.852c-0.084-0.24-0.195-0.479-0.334-0.715c-0.938-1.566-2.928-2.527-4.701-1.904
			c-0.979,0.344-1.646,1.059-2.004,1.908c-0.953,1.549-0.57,3.191,0.441,4.299c1.705,2.654,6.371,2.631,7.023-1.1
			C254.137,115.449,253.953,114.594,253.553,113.852z"/>
	</g>
</g>
</svg>
