<?xml version="1.0" encoding="utf-8"?>
<!-- Generator: Adobe Illustrator 16.0.0, SVG Export Plug-In . SVG Version: 6.00 Build 0)  -->
<!DOCTYPE svg PUBLIC "-//W3C//DTD SVG 1.1//EN" "http://www.w3.org/Graphics/SVG/1.1/DTD/svg11.dtd">
<svg version="1.1" xmlns="http://www.w3.org/2000/svg" xmlns:xlink="http://www.w3.org/1999/xlink" x="0px" y="0px" width="1062px"
	 height="982px" viewBox="0 0 1062 982" enable-background="new 0 0 1062 982" xml:space="preserve">
<g class="svg-legs">
	<g>
		<path class="svg-leg-one svg-leg" fill="#04998B" d="M340.669,521.996c-0.115-0.158-0.322-0.404-0.647-0.763c-0.169-0.22-0.352-0.413-0.544-0.58
			c-0.95-1.233-2.571-1.832-4.244-0.675c-19.183,13.26-37.331-15.273-48.536-27.222c-9.327-9.947-20.688-18.619-32.055-26.096
			c-12.145-7.988-25.912-15.272-40.078-18.88c-11.356-2.892-28.258-2.946-34.137,9.543c-2.166,4.602-1.519,10.116,2.167,13.762
			c4.365,4.316,10.337,4.039,15.969,2.901c7.618-1.539,14.868-3.686,22.674-1.838c7.672,1.815,14.666,5.45,21.257,9.691
			c6.365,4.095,12.892,8.437,18.459,13.577c5.488,5.066,10.241,10.836,15.363,16.256c11.207,11.857,25.837,22.076,42.077,25.381
			c9.272,1.886,23.305-0.459,24.104-12.053C342.593,523.648,341.735,522.628,340.669,521.996z"/>
		<path class="svg-leg-two svg-leg" fill="#04998B" d="M652.617,699.398c1.043-8.141-0.391-16.295-1.117-24.398c-0.327-3.65-5.092-4.33-6.574-1.979
			c-1.388-0.85-3.015-1.395-4.926-1.521c-4.497-0.3-4.479,6.701,0,7c6.881,0.459,6.139,17.307,5.242,21.865
			c-0.301,1.529-0.726,2.978-1.236,4.368c-0.911,2.344-2.101,4.575-3.529,6.745c-4.918,7.047-12.6,12.059-20.312,16.291
			c-13.697,7.513-28.223,5.986-43.054,3.721c-13.335-2.037-27.203-2.711-40.38,0.695c-6.555,1.694-12.941,4.482-18.427,8.473
			c-4.131,3.006-8.524,6.532-9.632,11.768c-2.199,10.39,10.474,21.361,20.004,15.324c5.028-3.184,7.224-8.988,11.144-13.225
			c5.47-5.912,13.857-7.852,21.599-7.908c15.075-0.11,30.164,2.508,45.058-1.217c14.891-3.723,27.854-14.281,37.057-26.253
			c0.118-0.154,0.232-0.309,0.35-0.463c2.404-2.854,4.366-6.019,5.829-9.396C651.138,706.221,652.16,702.971,652.617,699.398z"/>
		<path class="svg-leg-three svg-leg" fill="#04998B" d="M721.131,345.264c-4.826-7.534-10.148-15.123-12.955-23.705c-3.062-9.362-2.797-19.192-0.777-28.702
			c2.314-10.901,14.745-26.798,6.365-37.643c-3.672-4.752-11.123-6.269-16.787-5.177c-6.455,1.244-11.41,6.491-14.371,12.034
			c-7.988,14.948-4.564,31.808-0.357,47.409c4.439,16.47,14.008,30.028,22.251,44.745c4.782,8.538,8.329,17.615,11.204,26.966
			c2.892,9.409,4.939,19.648,3.438,29.473c-1.162,7.601-4.502,13.986-10.328,19.044c-5.31,4.61-12.599,9.575-19.882,6.916
			c-3.696-1.35-5.556,3.62-3.183,5.932c-3.397-0.87-6.004,4.317-2.515,6.465c6.424,3.955,13.818,0.8,19.715-2.824
			c7.003-4.303,13.587-9.132,19.519-14.795c10.498-10.023,16.5-24.863,16.31-39.33C738.559,375.579,729.85,358.874,721.131,345.264z
			"/>
	</g>
</g>
<g class="svg-body">
	<g>
		<path id="svg-body-distort" class="svg-body-back svg-body-distort" fill="#05C9BA" d="M704.268,499.421c0,0,1.732-19.421-7.268-54.421s-18.649-42.775-18.649-42.775s14.333-14.627,1.991-27.926
		s-25.473-4.047-25.473-4.047S666,348,638,329s-51.1-4.756-51.1-4.756S568.801,293,524.9,295s-67.111,35.339-67.111,35.339
		s-28.262-12.424-50.025,7.618s-12.178,42.477-12.178,42.477S381,387,370.549,418.81c-12.312,37.476-13.367,50.324-13.367,50.324
		s-30.152,28.88-30.152,50.793c0,26.94,18.418,49.579,43.349,56.013c0.278,0.65-9.384,19.291,3.619,39.676
		s34.815,17.795,34.815,17.795S415,643,449,665s71.786,19.586,71.786,19.586s5.64,12.759,12.739,13.731
		c4.785,0.655,9.338-1.071,12.495-4.258c4.423,5.497,11.202,9.019,18.807,9.019c13.326,0,24.13-10.804,24.13-24.13
		c0-0.06-0.004-0.119-0.005-0.179c20.488,15.605,49.772,15.33,70.058-2.158c20.295-17.497,12.435-69.008,12.435-69.008
		s21.377-15.155,27.832-50.416C707,515,704.268,499.421,704.268,499.421z"/>
		<path class="svg-eye-r" opacity="0.75" fill="#04998B" d="M460.106,351.091c-4.066-9.316-13.206-11.418-22.379-10.676
				c-6.773-0.578-14.05,0.538-19.242,3.587c-9.408,5.525-10.496,17.765-7.112,27.224c3.542,9.902,11.61,18.353,22.263,20.213
				c9.621,1.68,18.688-2.824,23.696-11.135C462.371,371.941,464.083,360.202,460.106,351.091z M440.091,348.247
				c0.886,0.196,2.209,0.251,3.319,0.43c0.97,1.204,2.623,1.836,4.356,0.845c0.08-0.046,0.146-0.101,0.223-0.149
				c1.079,5.186,3.296,10.12,1.531,15.497c-1.741,5.302-5.999,9.515-10.047,13.304c-3.328,0.86-7.432,0.947-10.317-0.593
				c-5.717-3.052-8.548-11.313-8.057-17.463c0.647-8.105,6.629-11.356,13.919-12.403c0.253-0.037,0.514-0.07,0.772-0.105
				C437.228,347.725,438.658,347.929,440.091,348.247z"/>
		<path class="svg-eye-l" opacity="0.76" fill="#04998B" d="M595.68,352.5c-5.076-12.608-15.333-22.252-27.885-25.161
			c-7.607-1.634-15.41-1.654-15.501-1.62c-1.275,0.058-2.541,0.212-3.786,0.499c-1.616,0.372-3.169,0.914-4.671,1.574
			c-1.047,0.28-2.081,0.622-3.088,1.094c-3.778,1.773-7.689,3.719-10.928,6.376c-6.383,5.237-9.481,13.355-10.148,21.399
			c-1.375,16.581,8.285,33.633,20.989,43.673c6.582,5.202,14.799,8.827,23.283,7.11c8.372-1.694,15.439-6.899,21.615-12.537
			C597.88,383.66,601.981,368.153,595.68,352.5z M531.215,360.045c-0.946-4.057-1.146-7.935-0.022-11.377
			c0.112-0.128,0.228-0.25,0.329-0.401c1.714-2.575,3.667-5.1,5.879-7.359c5.273-3.589,12.177-5.91,18.474-6.045
			c2.861-0.061,5.689,0.175,8.436,0.679c1.559,0.703,3.082,1.483,4.553,2.287c11.771,6.426,20.529,17.67,15.529,31.495
			c-4.727,13.071-17.837,22.003-31.884,20.513C539.104,388.414,533.797,371.112,531.215,360.045z"/>
		<g class='svg-dots'>
			<path class="svg-dot" opacity="0.72" fill="#29ABE2" d="M511.942,639.085c-1.443-1.31-3.232-2.085-5.221-2.085h-2
				c-1.954,0-4.009,0.748-5.387,2.141c-0.722,0.682-1.232,1.443-1.532,2.368c-0.453,0.871-0.665,1.787-0.637,2.79
				c0.074,1.969,0.724,4.096,2.226,5.459c1.443,1.31,3.232,2.242,5.221,2.242h2c1.954,0,4.009-0.915,5.387-2.309
				c0.722-0.682,1.232-1.526,1.532-2.451c0.453-0.871,0.665-1.787,0.637-2.79C514.094,642.481,513.444,640.448,511.942,639.085z"/>
			<path class="svg-dot" opacity="0.72" fill="#C7EAFB" d="M499.191,460.797c-0.303-0.952-0.83-1.773-1.581-2.463
				c-0.682-0.722-1.485-1.232-2.411-1.532c-0.871-0.453-1.808-0.665-2.811-0.637c-1.969,0.074-4.023,0.724-5.387,2.226
				c-0.158,0.207-0.316,0.415-0.474,0.622c-0.294,0.223-0.585,0.454-0.86,0.711c-0.722,0.682-1.233,1.485-1.533,2.411
				c-0.452,0.871-0.664,1.808-0.637,2.811c-0.043,1.044,0.171,2.018,0.645,2.923c0.302,0.953,0.829,1.773,1.582,2.463
				c1.412,1.281,3.261,2.242,5.222,2.169c1.831-0.068,3.459-0.649,4.866-1.777c0.557-0.36,1.105-0.706,1.617-1.252
				c0.477-0.509,1.006-1.164,1.346-1.773c0.702-1.261,0.961-2.554,1.061-3.978C499.879,462.676,499.664,461.702,499.191,460.797z"/>
			<path class="svg-dot" opacity="0.72" fill="#AEE0E8" d="M439.857,463.463c-0.302-0.952-0.829-1.773-1.581-2.463
				c-1.442-1.307-3.234-2.172-5.222-2.169c-0.487,0-0.906,0.076-1.414,0.141c-1.238,0.16-1.845,0.187-3.071,0.958
				c-0.585,0.368-1.132,0.808-1.655,1.272c-0.204,0.164-0.398,0.336-0.581,0.521c-0.549,0.518-0.974,1.108-1.279,1.767
				c-0.205,0.393-0.458,0.806-0.595,1.228c-0.269,0.697-0.46,1.433-0.46,2.209c0,0.006,0,0.012,0,0.018
				c0,0.818,0.179,1.592,0.462,2.324c0.327,1.097,0.924,2.117,1.753,2.923c0.046,0.045,0.106,0.345,0.155,0.39
				c1.407,1.276,3.269,2.418,5.223,2.418c0.006,0,0.013,0,0.019,0c1.707-1,3.366-0.54,4.863-1.404
				c1.143-0.66,2.284-1.848,2.918-3.024c0.734-1.361,1-2.567,1.108-4.123C440.545,465.405,440.331,464.368,439.857,463.463z"/>
			<path class="svg-dot" fill="#04998B" d="M679.373,565.056c0-0.688-0.172-1.329-0.516-1.926c-0.303-0.952-0.83-1.772-1.582-2.463
				c-0.699-0.655-1.473-1.278-2.325-1.728c-0.147-0.078-0.296-0.154-0.44-0.232c-1.287-0.944-2.85-1.531-4.455-1.543
				c-1.044-0.043-2.018,0.172-2.924,0.645c-0.952,0.303-1.773,0.829-2.463,1.582c-1.281,1.411-2.242,3.26-2.169,5.221
				c0.042,1.143,0.288,2.288,0.765,3.324c0.104,0.554,0.279,1.089,0.545,1.6c0.303,0.952,0.83,1.773,1.582,2.463
				c1.412,1.281,3.261,2.242,5.222,2.169c1.536-0.058,2.929-0.476,4.167-1.272c0.34-0.143,0.68-0.283,1.019-0.426
				c0.512-0.397,1.022-0.796,1.534-1.193c0.723-0.682,1.233-1.485,1.533-2.41c0.328-0.572,0.496-1.189,0.504-1.849
				C679.545,566.363,679.546,565.711,679.373,565.056z"/>
            <path class="svg-dot" opacity="0.72" fill="#74CCE5" d="M516.483,535.428c-8.828-23.814-30.762-40.849-56.795-36.848c-6.289,0.967-13.389,2.889-19.68,6.074
                c-5.622,2.574-10.615,6.344-13.855,10.707c-4.292,5.781-6.589,12.822-3.976,19.86c1.218,3.28,3.394,5.395,6.038,6.948
                c-4.865,5.096-6.567,14.055-6.14,20.545c0.777,11.803,7.77,23.045,17.077,30.1c16.47,12.485,40.484,12.584,58.049,2.268
                C518.277,582.704,524.752,557.734,516.483,535.428z"/>
			<path class="svg-dot" opacity="0.72" fill="#74CCE5" d="M459.921,626.294c-0.009-0.046-0.021-0.091-0.029-0.136
				c0.319-8.031-3.686-15.443-13.468-15.266c-0.591,0.01-1.173,0.062-1.749,0.134c-2.161-0.278-4.444-0.133-6.78,0.518
				c-5.233,1.458-9.477,5.708-11.77,10.538c-2.832,5.965-0.644,10.93,3.763,15.376c0.337,0.341,0.686,0.626,1.039,0.882
				c3.626,5.598,10.131,9.051,17,6.629c0.93-0.328,1.812-0.755,2.646-1.264c0.597-0.209,1.188-0.441,1.763-0.719
				C458.745,639.898,461.218,633.021,459.921,626.294z"/>
			<path class="svg-dot" opacity="0.72" fill="#C7EAFB" d="M440.683,532.367c-7.843-9.182-21.242-13.914-32.985-10.49
				c-12.387,3.611-22.422,16.664-22.498,29.715c-0.002,0.377,0.01,0.746,0.027,1.113c-2.064,13.227,8.603,22.469,21.284,24.198
				c11.483,1.565,24.288-2.077,32.743-10.127C449.29,557.221,449.551,542.748,440.683,532.367z"/>
			<path class="svg-dot" opacity="0.72" fill="#00BBD6" d="M551.016,589.703c-3.596-12.236-13.431-19.076-25.653-21.101
				c-13.436-2.226-26.875,0.5-35.657,11.159c-0.698,0.701-1.374,1.441-2.02,2.233c-8.541,10.469-10.347,24.43-3.215,36.161
				c13.354,21.969,47.241,26.965,61.788,3.745C552.064,612.633,554.115,600.248,551.016,589.703z"/>
			<path class="svg-dot" opacity="0.72" fill="#92D7E7" d="M587.488,584.791c-6.102-1.586-13.1-1.451-19.766-0.08
				c-7.172,0.132-14.328,3.291-19.721,8.32c-8.576,8-11.681,19.841-7.533,30.913c8.807,23.509,40.008,35.671,58.868,15.81
				C613.883,624.438,610.147,590.683,587.488,584.791z"/>
			<path class="svg-dot" opacity="0.72" fill="#00A9A3" d="M493.445,610.051c-2.605-9.039-12.128-15.314-21.362-15.432
				c-4.014-0.052-7.775,1.174-10.941,3.281c-16.813,0.899-18.517,27.207-5.431,36.772
				C471.066,645.897,499.02,629.393,493.445,610.051z"/>
			<path class="svg-dot" opacity="0.72" fill="#00A9A3" d="M557.625,531.682c-9.012-4.8-19.218-6.914-29.079-5.72
				c-11.764-2.786-26.403,4.986-32.072,15.138c-7.664,13.724-6.287,31.148,3.17,43.647c9.532,12.597,29.292,18.685,44.508,15.025
				c14.463-3.479,26.006-16.679,30.033-30.654C578.696,553.466,571.662,539.158,557.625,531.682z M552.807,571.297
				c0.961-1.638,1.795-3.342,2.483-5.08c-0.559,1.939-1.421,3.819-2.608,5.545C552.727,571.607,552.766,571.452,552.807,571.297z"/>
			<path class="svg-dot" opacity="0.72" fill="#00AEEF" d="M504.072,495.862c-6.831-15.03-26.619-15.62-38.03-5.711
				c-2.059,1.788-3.794,3.936-5.165,6.292c-3.013,4.641-4.61,10.16-3.865,14.91c0.256,1.633,0.72,3.197,1.354,4.684
				c1.388,4.193,4.191,7.903,8.669,10.385c0.341,0.189,0.687,0.367,1.035,0.538c5.989,3.724,13.454,5.255,20.071,3.534
				C502.439,526.773,510.069,509.059,504.072,495.862z"/>
			<path class="svg-dot" opacity="0.72" fill="#92D7E7" d="M547.088,454.714c-7.923-5.22-19.079-4.645-26.304,1.527
				c-1.399,1.195-2.587,2.553-3.573,4.017c-2.567,2.782-4.35,6.38-5.088,9.983c-2.337,11.412,4.795,22.668,16.696,23.504
				c9.226,0.648,19.167-4.708,24.02-12.516C558.355,472.351,555.843,460.48,547.088,454.714z"/>
			<path class="svg-dot" opacity="0.72" fill="#00BBD6" d="M615.149,473.269c-2.654-13.561-17.108-17.111-28.312-10.902
				c-1.53,0.848-2.977,1.85-4.314,2.967c-6.513,3.8-11.374,11.755-10.859,18.61c0.985,13.107,14.55,21.073,26.749,17.81
				C610.786,498.445,617.546,485.512,615.149,473.269z"/>
			<path class="svg-dot" opacity="0.72" fill="#E2EDC1" d="M619.107,500.4c-4.352-7.283-12.82-10.433-21.006-10.145
				c-6.047,0.213-12.262,2.159-17.374,5.312c-4.851,2.545-8.954,6.793-11.55,11.68c-4.867,9.166-1.758,19.712,5.029,26.916
				c6.766,7.182,17.428,11.854,27.307,9.819c8.395-1.728,14.674-8.171,17.961-15.835C623.169,519.537,624.072,508.708,619.107,500.4
				z"/>
			<path class="svg-dot" opacity="0.72" fill="#04998B" d="M455.387,550.5c-1.007-0.595-2.226-0.966-3.666-1.002
				c-12.513-0.314-26.087,10.711-26.83,23.598c-0.773,13.434,11.228,22.543,23.559,23.533c13.511,1.087,25.483-9.266,26.378-22.771
				C475.649,561.469,466.739,551.406,455.387,550.5z"/>
			<path class="svg-dot" opacity="0.72" fill="#04998B" d="M620.535,555.414c-3.02-10.57-10.774-19.082-19.957-24.814
				c-7.793-4.863-16.918-7.646-25.955-7.917c-6.951-2.179-15.338-0.287-22.115,2.659c-10.785,4.69-19.835,13.711-23.77,24.878
				c-7.836,22.237,8.011,45.919,28.145,54.749c10.426,4.573,22.527,6.723,33.561,3.032c10.438-3.491,18.722-11.206,24.266-20.578
				C620.395,577.811,623.686,566.446,620.535,555.414z M564.917,562.707c0.056,0.905,0.136,1.805,0.268,2.692
				c-0.132,0.13-0.264,0.261-0.396,0.388C564.758,564.766,564.805,563.735,564.917,562.707z"/>
			<path class="svg-dot" opacity="0.72" fill="#04998B" d="M654.244,450.021c-2.57-16.002-16.673-24.48-31.717-26.109
				c-0.471-0.2-0.982-0.364-1.547-0.48c-13.704-2.841-30.1,0.556-39.199,11.924c-11.84,14.792-4.996,34.609,6.624,47.311
				c12.601,13.772,33.505,18.373,50.14,9.008C653.631,483.182,656.777,465.792,654.244,450.021z"/>
		</g>
		<path class="svg-body-front" opacity="0.3" fill="#04998B" d="M675.223,511.595c-0.758-8.056-2.194-16.067-4.15-23.963
			c-4.434-23.619-12.947-45.74-24.45-67.065c-6.428-11.916-13.325-23.475-20.712-34.821c-7.002-10.754-14.307-21.559-23.136-30.923
			c-14.219-15.079-36.185-35.038-58.769-31.352c-1.266,0.207-2.494,0.488-3.685,0.836c-6.396,1.405-13.019,6.161-17.402,9.309
			c-9.917,7.122-13.583,17.245-16.08,28.668c-1.066,4.878-3.661,9.584-7.661,12.73c-0.408,0.235-0.83,0.458-1.282,0.655
			c-6.168,2.692-12.662,0.793-18.095-2.616c-5.836-3.663-10.317-9.415-14.869-14.888c-2.618-3.407-5.218-6.829-8.085-9.984
			c-3.776-4.154-8.085-6.721-12.81-8.217c-2.61-1.285-5.376-2.214-8.327-2.598c-3.52-0.458-6.902-0.04-10.001,1.075
			c-7.842,0.823-16.511,3.787-19.56,11.254c-3.582,8.772-1.416,19.508,0.01,28.535c2.358,14.93,3.889,30.17,4.453,45.283
			c0.442,11.851,0.196,23.833-1.263,35.637c-2.211,0.556-4.374,1.27-6.384,1.916c-7.224,2.322-13.953,6.397-19.732,11.266
			c-11.576,9.752-17.029,24.411-15.841,39.364c1.144,14.403,5.136,29.028,14.652,40.237c4.716,5.556,11.032,9.989,17.853,12.559
			c3.54,1.334,7.334,2.01,11.092,2.404c2.083,5.49,4.817,10.66,8.316,15.297c0.028,0.037,0.056,0.071,0.084,0.107
			c4.766,7.879,10.63,15.012,17.27,21.387c-12.098,21.099,5.354,50.244,24.149,61.312c12.781,7.527,26.869,11.912,40.761,4.327
			c10.371-5.663,15.959-16.939,25.893-23.022c2.459,1.881,5.468,2.867,8.23,4.389c4.542,2.502,8.937,5.08,13.767,7.021
			c9.619,3.866,20.998,6.539,31.424,5.662c16.226-1.365,28.273-13.168,35.031-27.195c7.214,1.858,15.273,2.521,22.455,0.988
			c7.112-1.52,12.756-6.899,16.407-12.967c4.491-7.467,5.532-15.82,6.38-24.319c1.076-10.794,3.025-21.521,5.371-32.116
			C670.652,549.144,677.046,530.96,675.223,511.595z"/>
		<g class="svg-mouth">
			<path class="svg-mouth-one" fill="#04998B" d="M521.171,398.557c-0.551-0.281-1.124-0.507-1.706-0.71c-0.011-0.001-0.021-0.002-0.032-0.003
				c-7.005-3.732-17.449-3.817-24.448-4.182c-8.288-0.431-16.45-0.527-24.685-1.734c-3.668-0.538-7.556-1.163-10.916-0.026
				c-7.228,1.236-8.968,9.514-8.169,17.246c1.023,9.9,5.699,17.033,15.448,20.257c10.605,3.506,24.474,3.62,35.364,2.1
				c11.42-1.593,24.922-5.678,25.757-18.987C528.142,406.833,526.578,401.315,521.171,398.557z"/>
			<path class="svg-mouth-two" fill="#0A3542" d="M516.659,408.95c-1.583-2.005-4.31-3.129-7.502-3.739c-2.249-0.698-4.621-0.97-7.324-1.211
				c-6.089-0.543-12.161-1.284-18.245-1.885c-4.64-0.458-12.421-3.309-17.525-1.482c-1.443,0.036-2.751,0.578-3.812,2.094
				c-1.23,1.759-1.37,4.58-1.237,6.643c0.62,9.627,14.346,11.848,21.795,13.624c10.016,2.388,23.165,3.258,31.272-4.064
				c1.394-1.484,2.641-3.83,3.344-6.37C517.474,411.299,517.236,410.044,516.659,408.95z"/>
		</g>
		<path class="svg-eye-r" fill="#9EC8CC" d="M450.715,349.486c-5.638-9.58-17.665-10.723-27.338-7.619c-1.292,0.414-2.508,1.054-3.606,1.854
			c-2.604,1.368-4.898,3.316-6.586,5.9c-2.996,4.589-3.507,10.172-2.332,15.427c2.129,9.514,11.703,17.316,21.549,17.364
			C448.742,382.49,458.785,363.198,450.715,349.486z"/>
		<g class="svg-eye-r">
			<defs>
				<path id="SVGID_1_" d="M446.123,353.746c-0.219-4.947-3.366-9.347-8.437-10.835c-5.88-1.723-12.467,0.497-16.88,4.505
					c-5.943,5.398-6.249,14.682-0.477,20.374c5.092,5.022,13.502,6.3,19.519,2.101c4.125-2.877,6.54-6.818,6.868-11.876
					C446.813,356.541,446.561,355.117,446.123,353.746z"/>
			</defs>
			<clipPath id="SVGID_2_" class="svg-eye">
				<use xlink:href="#SVGID_1_"  overflow="visible"/>
			</clipPath>
            <g clip-path="url(#SVGID_2_)">
                <path fill="#FFFFFF" d="M446.123,353.746c-0.219-4.947-3.366-9.347-8.437-10.835c-5.88-1.723-12.467,0.497-16.88,4.505
                    c-5.943,5.398-6.249,14.682-0.477,20.374c5.092,5.022,13.502,6.3,19.519,2.101c4.125-2.877,6.54-6.818,6.868-11.876
                    C446.813,356.541,446.561,355.117,446.123,353.746z"/>

                <path fill="#0A3542" d="M436.197,356.984c-0.431-1.022-1.76-3.796-4.268-3.36
                    c-1.922,0.334-3.722,0.573-4.306,2.444c-0.651,2.085-0.216,4.729,1.859,5.869c2.085,1.145,4.365,0.432,5.991-1.129
                    C436.488,359.833,436.729,358.246,436.197,356.984z"/>
            </g>
		</g>
		<path class="svg-eye-l" fill="#9EC8CC" d="M587.445,351.321c-9.119-27.531-44.402-28.595-60.489-6.69c-9.685,13.188-4.849,30.575,6.553,41.027
			c5.85,5.363,11.98,7.896,18.084,8.247c10.27,1.598,20.652-0.983,28.215-8.739C588.293,376.465,591.248,362.8,587.445,351.321z"/>
		<g class="svg-eye-l">
			<defs>
				<path id="SVGID_3_" d="M566.145,337.059c-12.295-8.473-28.226,0.441-32.521,14.18c-4.371,13.979,6.245,29.496,21.023,29.689
					c12.27,0.161,24.258-9.298,25.34-21.854C580.758,350.125,574.413,340.734,566.145,337.059z"/>
			</defs>
			<clipPath id="SVGID_4_" class="svg-eye">
				<use xlink:href="#SVGID_3_"  overflow="visible"/>
			</clipPath>
			<g clip-path="url(#SVGID_4_)">
				<path fill="#FFFFFF" d="M566.145,337.059c-12.295-8.473-28.226,0.441-32.521,14.18c-4.371,13.979,6.245,29.496,21.023,29.689
					c12.27,0.161,24.258-9.298,25.34-21.854C580.758,350.125,574.413,340.734,566.145,337.059z"/>
				<path fill="#0A3542" d="M554.78,348.994c-1.685,0.222-2.741,1.786-3.378,3.295c-1.195,2.833-0.958,6.159,1.113,8.516
					c1.896,2.156,5.047,3.101,7.566,1.533c2.066-1.287,3.317-3.713,3.359-6.165C563.488,353.429,561.375,348.125,554.78,348.994z"/>
			</g>
		</g>
	</g>
</g>
</svg>
