<?xml version="1.0" encoding="utf-8"?>
<!-- Generator: Adobe Illustrator 16.0.0, SVG Export Plug-In . SVG Version: 6.00 Build 0)  -->
<!DOCTYPE svg PUBLIC "-//W3C//DTD SVG 1.1//EN" "http://www.w3.org/Graphics/SVG/1.1/DTD/svg11.dtd">
<svg version="1.1" xmlns="http://www.w3.org/2000/svg" xmlns:xlink="http://www.w3.org/1999/xlink" x="0px" y="0px" width="503px"
	 height="373px" viewBox="0 0 503 373" enable-background="new 0 0 503 373" xml:space="preserve">
<g id="armR">
	<g>
		<path fill="#9BB526" d="M446.573,304.329c-1.217,0-2.406-0.241-3.535-0.716c-1.873-0.79-3.38-2.14-4.354-3.833
			c-1.548,1.02-3.382,1.587-5.278,1.587c-1.274,0-2.52-0.252-3.702-0.75c-1.557-0.657-2.885-1.695-3.881-2.991
			c-1.686,1.877-4.113,3.003-6.73,3.003c-1.17,0-2.312-0.23-3.393-0.686c-3.735-1.576-5.909-5.197-5.454-9.048
			c0.005-0.1,0.018-0.199,0.038-0.298l0.038-0.186c0.1-0.674,0.321-1.651,0.651-2.436c0.056-0.135,0.123-0.276,0.194-0.419
			c7.938-27.068-5.668-55.712-31.706-66.683c-0.981-0.414-2.038-0.815-3.324-1.263c-0.759-0.264-1.287-0.958-1.338-1.76
			c-0.051-0.802,0.382-1.558,1.101-1.917c8.268-4.136,17.498-6.322,26.692-6.322c7.929,0,15.685,1.574,23.05,4.678
			c14.417,6.075,24.98,17.119,30.547,31.936c5.146,13.699,5.597,29.947,1.267,45.75c-0.724,2.637-1.971,5.984-2.839,7.622
			c-0.076,0.144-0.168,0.275-0.273,0.393C452.691,302.678,449.752,304.329,446.573,304.329z"/>
		<path fill="#829620" d="M402.592,211.613c7.435,0,14.991,1.452,22.273,4.521c29.264,12.331,39.053,44.687,30.662,75.314
			c-0.674,2.453-1.873,5.695-2.678,7.213l-0.043-0.004c-1.274,2.307-3.696,3.672-6.234,3.672c-0.92,0-1.856-0.18-2.758-0.56
			c-2.381-1.004-3.922-3.147-4.273-5.528c-1.435,1.978-3.736,3.126-6.134,3.126c-0.977,0-1.97-0.19-2.927-0.593
			c-2.4-1.013-4.01-3.104-4.486-5.477l-0.074,0.019c-0.08,0.3-0.184,0.662-0.312,0.957c-1.129,2.685-3.762,4.357-6.514,4.357
			c-0.875,0-1.763-0.169-2.617-0.529c-2.957-1.248-4.641-4.102-4.227-7.102h-0.006c0,0,0.051-0.248,0.051-0.254
			c0.084-0.59,0.279-1.417,0.521-1.991c0.064-0.156,0.143-0.307,0.219-0.458c8.223-27.719-5.531-57.775-32.797-69.265
			c-1.141-0.48-2.291-0.907-3.443-1.309C384.743,213.748,393.578,211.613,402.592,211.613 M402.592,207.613
			c-9.504,0-19.043,2.259-27.587,6.534c-1.438,0.719-2.306,2.23-2.202,3.834s1.158,2.991,2.676,3.52
			c1.246,0.434,2.264,0.821,3.207,1.218c25.046,10.554,38.159,38.073,30.61,64.117c-0.062,0.13-0.122,0.261-0.177,0.394
			c-0.465,1.104-0.689,2.338-0.766,2.835l-0.027,0.133c-0.036,0.175-0.06,0.351-0.071,0.526c-0.531,4.723,2.121,9.144,6.667,11.063
			c1.331,0.561,2.734,0.844,4.172,0.844c2.44,0,4.744-0.8,6.615-2.203c0.94,0.838,2.023,1.528,3.217,2.032
			c1.433,0.603,2.939,0.908,4.481,0.908c1.625,0,3.212-0.345,4.666-0.985c1.109,1.316,2.532,2.375,4.188,3.073
			c1.377,0.58,2.828,0.874,4.312,0.874c3.832,0,7.376-1.967,9.403-5.176c0.153-0.19,0.291-0.397,0.408-0.618
			c1.072-2.023,2.347-5.646,3-8.027c4.441-16.209,3.971-32.895-1.323-46.985c-5.765-15.344-16.707-26.782-31.643-33.075
			C418.806,209.24,410.79,207.613,402.592,207.613L402.592,207.613z"/>
	</g>
</g>
<g id="armL">
	<g>
		<path fill="#9BB526" d="M66.57,316.998c-2.044,0-4.024-0.684-5.622-1.935c-0.138-0.072-0.267-0.161-0.386-0.266
			c-1.394-1.242-3.729-3.946-5.316-6.157c-9.564-13.303-14.805-28.689-14.754-43.324c0.055-15.829,6.108-29.861,17.505-40.578
			c11.068-10.409,25.535-16.141,40.736-16.141c2.149,0,4.323,0.118,6.459,0.349c0.799,0.086,1.468,0.643,1.7,1.412
			s-0.02,1.603-0.638,2.116c-1.049,0.87-1.899,1.616-2.677,2.347c-20.58,19.352-23.354,50.941-6.486,73.551
			c0.126,0.118,0.235,0.223,0.338,0.334c0.388,0.413,0.965,1.122,1.387,1.833c0.016,0.017,0.026,0.028,0.026,0.028
			c0.151,0.162,0.271,0.345,0.359,0.54c1.783,3.446,0.991,7.62-1.996,10.429c-1.638,1.54-3.797,2.387-6.081,2.387
			c-1.49,0-2.949-0.366-4.247-1.043c-0.48,1.574-1.368,3.023-2.608,4.189c-1.777,1.67-4.101,2.59-6.543,2.591
			c-0.735,0-1.461-0.083-2.167-0.246c-0.323,1.925-1.266,3.716-2.747,5.108C71.118,316.119,68.9,316.998,66.57,316.998z"/>
		<path fill="#829620" d="M98.733,210.597c2.086,0,4.169,0.112,6.244,0.337c-0.939,0.779-1.868,1.581-2.771,2.43
			c-21.555,20.269-23.972,53.232-6.607,76.353c0.123,0.113,0.249,0.227,0.365,0.352c0.426,0.452,0.757,1.135,1.04,1.66
			c0.004,0.004-0.005,0.196-0.005,0.196v0.002c2,2.731,0.988,5.953-1.351,8.153c-1.318,1.239-2.919,1.844-4.617,1.844
			c-1.904,0-3.767-0.76-5.157-2.238c-0.223-0.236-0.434-0.527-0.618-0.784l-0.07,0.012c0.381,2.393-0.394,4.914-2.293,6.699
			c-1.458,1.371-3.314,2.048-5.17,2.048c-1.47,0-2.937-0.425-4.202-1.266c0.502,2.354-0.198,4.903-2.079,6.672
			c-1.373,1.292-3.125,1.932-4.874,1.932c-1.659,0-3.313-0.575-4.64-1.716l-0.037,0.021c-1.282-1.143-3.539-3.765-5.022-5.83
			c-18.538-25.784-20.637-59.524,2.497-81.278C70.464,215.76,84.614,210.598,98.733,210.597 M99,206.597v4V207h-0.267
			c-15.713,0-30.667,5.725-42.106,16.482c-11.807,11.104-18.079,25.536-18.135,41.927c-0.052,15.053,5.321,30.806,15.131,44.449
			c1.686,2.348,4.098,5.11,5.609,6.457c0.196,0.175,0.406,0.315,0.626,0.445c1.923,1.456,4.281,2.244,6.712,2.244
			c2.841,0,5.545-1.075,7.615-3.022c1.31-1.232,2.275-2.721,2.856-4.34c0.228,0.013,0.457,0.02,0.686,0.02
			c2.954,0,5.764-1.114,7.914-3.135c0.954-0.897,1.736-1.934,2.328-3.06c1.017,0.3,2.08,0.457,3.157,0.457
			c2.794,0,5.44-1.04,7.45-2.929c3.607-3.393,4.58-8.439,2.477-12.66c-0.154-0.355-0.363-0.691-0.625-0.995
			c-0.488-0.786-1.096-1.531-1.55-2.014c-0.088-0.095-0.185-0.191-0.285-0.288c-16.146-21.784-13.441-52.144,6.355-70.76
			c0.747-0.703,1.568-1.422,2.584-2.265c1.237-1.026,1.74-2.692,1.277-4.231c-0.463-1.539-1.67-2.651-3.267-2.824
			C103.333,206.719,101,206.597,99,206.597L99,206.597z"/>
	</g>
</g>
<g id="circle3">
	<path fill="#9BB526" stroke="#829620" stroke-width="8" stroke-miterlimit="10" d="M426.438,184.549
		C425.754,207,407.5,212.961,407.5,212.961s13.994,10.964,8.125,33.169s-27.546,20.186-27.546,20.186s10.151,15.198-3.753,33.942
		s-32.783,9.565-32.783,9.565s4.109,20.099-15.09,30.638s-34.074-2.205-34.074-2.205s-3.754,18.439-24.689,23.592
		s-31.256-13.775-31.256-13.775s-9.832,17.123-31.256,13.775s-24.688-23.592-24.688-23.592s-17.422,12.662-34.079,2.203
		s-15.088-30.637-15.088-30.637s-20.571,7.361-32.784-9.566s-3.752-33.941-3.752-33.941s-20.062-0.392-27.547-20.186
		s8.127-33.168,8.127-33.168s-17.262-6.863-18.938-28.412s18.938-28.412,18.938-28.412s-14.639-12.202-8.127-33.17
		c6.514-20.967,27.549-20.186,27.549-20.186s-8.461-18.601,3.752-33.941c12.213-15.34,32.785-9.564,32.785-9.564
		s-0.752-21,15.088-30.638s34.077,2.204,34.077,2.204s6.112-20.341,24.687-23.592c18.576-3.25,31.256,13.775,31.256,13.775
		S259.125,5.501,277.689,7.25c18.564,1.75,24.689,23.592,24.689,23.592s18.275-12.065,34.075-2.203
		c15.8,9.861,15.089,30.637,15.089,30.637s19.854-4.594,32.781,9.565c12.93,14.159,3.756,33.942,3.756,33.942
		s20.916-0.348,27.545,20.185s-8.125,33.168-8.125,33.168S427.121,162.098,426.438,184.549z"/>
</g>
<g id="circle2">
	<g>
		<path fill="#A2BD28" d="M229.637,327.865c-1.744,0-3.54-0.209-5.338-0.622c-13.335-3.061-18.686-13.029-20.416-17.35
			c-2.589,1.682-7.898,4.462-14.704,4.462c-4.182,0-8.298-1.062-12.233-3.159c-12.244-6.516-13.463-18.488-13.414-23.391
			c-1.326,0.272-3.21,0.542-5.465,0.542c-5.222,0-12.953-1.47-20.13-8.473c-10.167-9.921-6.792-21.828-4.817-26.58
			c-4.749-0.578-15.513-3.33-21.275-16.271c-5.886-13.221,1.336-23.07,4.723-26.701c-4.201-2.458-13.88-9.504-14.5-22.495
			c-0.639-13.339,9.58-20.868,13.72-23.358c-2.965-3.75-9.893-14.212-6.133-26.189c3.8-12.108,16.136-16.086,20.856-17.185
			c-1.595-4.509-4.783-16.799,3.268-26.806c6.113-7.599,14.939-9.194,21.267-9.194c1.745,0,3.221,0.125,4.28,0.253
			c0.23-4.566,1.828-16.664,12.026-24.037c3.542-2.561,7.659-3.859,12.237-3.859c6.444,0,12.151,2.561,14.863,4.009
			c1.698-4.601,7.21-16.35,19.774-18.403c1.284-0.21,2.591-0.316,3.884-0.316c10.558,0,18.404,6.88,21.319,9.875
			c2.81-3.236,10.588-10.792,21.957-10.792c0.938,0,1.891,0.053,2.834,0.158c12.826,1.426,18.65,12.636,20.543,17.322
			c2.581-1.806,7.869-4.792,14.622-4.792c4.266,0,8.446,1.205,12.425,3.581c11.855,7.081,13.304,18.326,13.335,23.178
			c1.653-0.476,4.124-0.994,7.044-0.994c5.05,0,12.389,1.6,18.674,9.221c9.132,11.075,6.456,21.937,4.697,26.423
			c4.597,0.52,14.758,3.185,21.258,16.25c6.637,13.339-0.685,22.924-4.417,26.637c4.316,2.09,13.032,8.067,14.22,22.567
			c1.118,13.647-7.149,20.873-13.23,23.555c3.552,3.694,10.396,12.98,5.625,26.105c-4.843,13.315-15.903,16.503-20.645,17.263
			c1.756,4.34,4.637,15.077-3.398,26.584c-5.771,8.268-13.604,10.003-19.161,10.003c-2.525,0-4.694-0.353-6.2-0.694
			c0.249,4.879-0.569,16.335-12.347,23.802c-4.237,2.686-8.726,4.048-13.342,4.048c-6.238,0-11.171-2.471-13.68-4.044
			c-1.613,4.771-6.767,16.107-19.785,18.2c-1.385,0.223-2.785,0.335-4.161,0.335c-10.663,0.001-18.034-6.568-20.939-9.695
			C246.853,320.363,240.268,327.865,229.637,327.865z"/>
		<path fill="#8EA622" d="M265.387,43.324c0.869,0,1.757,0.048,2.668,0.149c15.119,1.681,19.996,18.279,19.996,18.279
			s6.329-5.74,15.334-5.74c3.545,0,7.505,0.889,11.656,3.369c14.695,8.777,12.508,24.033,12.508,24.033s3.616-1.637,8.641-1.637
			c5.15,0,11.779,1.718,17.517,8.676c11.338,13.75,3.572,26.854,3.572,26.854s0.108-0.006,0.311-0.006
			c2.11,0,14.48,0.652,21.887,15.539c8.117,16.314-5.869,26.451-5.869,26.451s14.008,3.752,15.52,22.207
			s-14.551,22.857-14.551,22.857s12.967,9.838,7.031,26.168c-5.939,16.328-21.479,16.512-21.479,16.512s7.41,12.961-2.385,26.988
			c-5.32,7.622-12.492,9.362-17.931,9.362c-4.569,0-7.915-1.228-7.915-1.228s3.094,15.357-11.436,24.568
			c-4.47,2.834-8.753,3.815-12.539,3.815c-8.521,0-14.531-4.969-14.531-4.969s-3.764,16.666-19.172,19.144
			c-1.353,0.217-2.662,0.316-3.922,0.316c-13.102,0-21.105-10.695-21.105-10.695s-6.683,12.027-19.557,12.027
			c-1.575,0-3.243-0.18-5.002-0.584c-16.141-3.705-19.994-18.279-19.994-18.279s-6.352,5.354-15.462,5.354
			c-3.503,0-7.414-0.791-11.528-2.982c-14.822-7.889-12.508-24.033-12.508-24.033s-2.835,1.008-7.076,1.008
			c-5.144,0-12.356-1.456-19.083-8.02c-12.273-11.977-3.57-26.828-3.57-26.828s-0.032,0-0.093,0c-1.274,0-15.345-0.375-22.106-15.56
			c-7.084-15.913,5.869-26.464,5.869-26.464s-14.777-6.674-15.518-22.213c-0.744-15.54,14.549-22.863,14.549-22.863
			s-11.436-12.135-7.029-26.17c4.404-14.033,21.477-16.512,21.477-16.512s-6.994-15.331,2.385-26.988
			c5.846-7.267,14.449-8.635,20.099-8.635c3.414,0,5.749,0.499,5.749,0.499s-0.553-15.899,11.436-24.567
			c3.67-2.654,7.63-3.575,11.358-3.575c8.449,0,15.708,4.729,15.708,4.729s4.588-16.759,19.172-19.143
			c1.245-0.204,2.461-0.297,3.642-0.297c12.65,0,21.387,10.677,21.387,10.677S251.834,43.324,265.387,43.324 M265.387,40.324
			c-10.725,0-18.405,6.366-22.016,10.14c-3.7-3.47-11.332-9.222-21.26-9.222c-1.374,0-2.762,0.113-4.126,0.336
			c-12.059,1.971-17.974,12.277-20.319,17.812c-3.179-1.512-8.349-3.437-14.077-3.437c-4.901,0-9.314,1.394-13.116,4.144
			c-9.679,6.999-11.99,18.014-12.526,23.611c-0.851-0.066-1.829-0.111-2.9-0.111c-6.656,0-15.951,1.692-22.437,9.754
			c-7.703,9.574-5.708,21.07-4.015,26.695c-5.73,1.615-16.722,6.159-20.371,17.786c-3.585,11.421,1.989,21.495,5.398,26.247
			c-4.916,3.312-13.664,11.042-13.052,23.822c0.583,12.225,8.749,19.456,13.651,22.718c-4.555,5.483-8.933,15.366-3.747,27.016
			c5.369,12.059,14.902,15.725,20.52,16.835c-2.406,6.884-3.083,17.719,5.896,26.479c7.538,7.356,15.677,8.9,21.178,8.9
			c1.472,0,2.8-0.111,3.935-0.265c0.313,6.996,3.481,17.213,14.239,22.938c4.154,2.212,8.507,3.334,12.938,3.334
			c6.033,0,10.965-2.078,14.02-3.802c2.408,5.082,8.247,13.778,20.765,16.651c1.907,0.438,3.816,0.66,5.673,0.66
			c10.006,0,16.631-6.223,19.869-10.246c3.662,3.529,10.875,8.914,20.792,8.914c1.454,0,2.934-0.119,4.398-0.354
			c12.407-1.995,18.073-11.859,20.333-17.498c2.914,1.568,7.438,3.361,12.894,3.361c4.905,0,9.664-1.44,14.146-4.282
			c11.207-7.104,13.066-17.407,13.114-23.244c1.331,0.211,2.904,0.369,4.63,0.369c5.913,0,14.25-1.847,20.391-10.646
			c7.505-10.748,5.936-20.905,4.185-26.267c5.636-1.238,15.412-5.207,20.038-17.925c4.174-11.483-0.065-20.849-4.542-26.191
			c6.183-3.443,13.307-10.992,12.233-24.105c-1.108-13.523-8.301-19.979-13.185-22.836c4.789-5.476,9.073-15.17,3.23-26.913
			c-6.033-12.127-15.142-15.727-20.547-16.779c1.758-5.468,3.088-15.652-5.594-26.18c-6.657-8.073-14.458-9.767-19.83-9.767
			c-2.121,0-4.025,0.261-5.583,0.59c-0.378-5.771-2.773-15.839-14.029-22.562c-4.215-2.517-8.654-3.793-13.195-3.793
			c-5.993,0-10.905,2.224-13.956,4.076c-2.581-5.534-8.797-15.235-21.043-16.597C267.389,40.38,266.38,40.324,265.387,40.324
			L265.387,40.324z"/>
	</g>
	<path fill="none" stroke="#8CA322" stroke-width="2" stroke-linecap="round" stroke-miterlimit="10" d="M361.146,168.537
		c0,0,11.77,2.73,11.293,15.379c-0.475,12.648-9.846,16.342-9.846,16.342s8.016,7.915,5.38,18.31
		c-2.634,10.395-14.86,11.97-14.86,11.97"/>
	<path fill="none" stroke="#8CA322" stroke-width="2" stroke-linecap="round" stroke-miterlimit="10" d="M256.884,71.104
		c0,0,4.364-8.762,14.56-7.227c10.197,1.534,12.25,10.68,12.25,10.68s7.71-5.09,16.154-1.787s7.837,14.238,7.837,14.238"/>
	<path fill="none" stroke="#8CA322" stroke-width="2" stroke-linecap="round" stroke-miterlimit="10" d="M140.903,238.619
		c0,0-11.771,0.509-14.903-9.91c-3.134-10.418,3.463-17.557,3.463-17.557s-9.065-2.836-10.593-14.422
		c-1.528-11.585,9.235-15.326,9.235-15.326"/>
</g>
<g id="circle1">
	<path fill="#A8C429" stroke="#94AB23" stroke-width="3" stroke-miterlimit="10" d="M354.991,184.644
		c-0.413,13.542-11.423,17.138-11.423,17.138s8.44,6.612,4.9,20.006s-16.614,12.176-16.614,12.176s6.123,9.166-2.265,20.473
		c-8.386,11.306-19.773,5.77-19.773,5.77s2.479,12.123-9.102,18.479s-20.553-1.33-20.553-1.33s-2.264,11.122-14.892,14.229
		c-12.628,3.108-18.853-8.309-18.853-8.309s-5.931,10.328-18.853,8.309c-12.923-2.019-14.892-14.229-14.892-14.229
		s-10.508,7.638-20.555,1.329s-9.102-18.479-9.102-18.479s-12.407,4.439-19.773-5.771c-7.365-10.209-2.263-20.472-2.263-20.472
		s-12.101-0.236-16.615-12.175c-4.515-11.939,4.901-20.006,4.901-20.006s-10.412-4.141-11.423-17.138
		c-1.011-12.998,11.424-17.138,11.424-17.138s-8.83-7.359-4.902-20.007c3.929-12.646,16.616-12.175,16.616-12.175
		s-5.104-11.22,2.262-20.473c7.367-9.253,19.776-5.77,19.776-5.77s-0.454-12.666,9.101-18.479
		c9.553-5.813,20.553,1.329,20.553,1.329s3.688-12.269,14.893-14.229c11.203-1.961,18.852,8.309,18.852,8.309
		s7.656-9.365,18.853-8.309c11.197,1.055,14.892,14.229,14.892,14.229s11.023-7.277,20.554-1.328
		c9.528,5.947,9.101,18.479,9.101,18.479s11.976-2.771,19.773,5.77c7.797,8.541,2.265,20.473,2.265,20.473
		s12.616-0.209,16.614,12.176c3.999,12.384-4.9,20.006-4.9,20.006S355.403,171.102,354.991,184.644z"/>
</g>
<g id="eyes">
	<g>
		<path fill="#92AB25" d="M297.6,166.692c0,7.64,6.192,13.833,13.832,13.833c7.643,0,13.833-6.193,13.833-13.833
			c0-7.641-6.19-13.833-13.833-13.833C303.792,152.859,297.6,159.052,297.6,166.692z"/>
		<circle fill="#FFFFFF" cx="309.672" cy="163.171" r="13.832"/>
		<circle cx="305.194" cy="168.66" r="3.513"/>
	</g>
	<g>
		<circle fill="#92AB25" cx="178.79" cy="167.043" r="16.595"/>
		<circle fill="#FFFFFF" cx="176.677" cy="162.819" r="16.594"/>
		<circle cx="171.307" cy="169.404" r="4.214"/>
	</g>
</g>
<g id="mouth">
	<path fill="#607018" d="M219,181h60.46c0,0-3.085,50.484-30.229,36.77C219.999,203,218,215,219,181z"/>
</g>
</svg>
