<?xml version="1.0" encoding="utf-8"?>
<!-- Generator: Adobe Illustrator 16.0.0, SVG Export Plug-In . SVG Version: 6.00 Build 0)  -->
<!DOCTYPE svg PUBLIC "-//W3C//DTD SVG 1.1//EN" "http://www.w3.org/Graphics/SVG/1.1/DTD/svg11.dtd">
<svg version="1.1" xmlns="http://www.w3.org/2000/svg" xmlns:xlink="http://www.w3.org/1999/xlink" x="0px" y="0px"
	 width="408.332px" height="358.334px" viewBox="0 0 408.332 358.334" enable-background="new 0 0 408.332 358.334"
	 xml:space="preserve">
<g class="3d-body">
	<g>
		<path fill="#84A5A5" d="M307.755,164.453c3.309-5.111,4.089-13.14-1.455-17.034c-1.737-1.224-3.723-1.813-5.726-1.878
			c-2.157-0.586-4.447-0.384-6.608,0.375c-0.473-4.37-1.041-8.732-1.756-13.064c-0.022-2.658-0.074-5.312-0.343-7.945
			c-1.039-10.176-3.722-20.299-6.163-30.193c-2.435-9.866-6.039-19.699-10.135-28.991c-3.738-8.481-8.743-16.133-14.732-23.165
			c-2.904-3.408-5.679-7.002-9.179-9.816c-3.389-2.725-7.562-4.862-11.451-6.805c-9.188-4.588-19.215-7.551-29.318-9.068
			c-10.3-1.546-20.878,2.012-30.646,4.989c-9.619,2.934-19.271,5.712-28.429,9.916c-10.056,4.615-19.452,11.254-27.683,18.632
			c-1.491,1.341-2.91,2.752-4.292,4.201c-0.167,0.144-0.33,0.291-0.496,0.437c-0.214-0.033-0.427-0.058-0.641-0.086
			c-13.033,12.85-23.642,27.771-30.739,44.709c-2.686,6.409-4.984,12.976-7.642,19.397c-0.368,0.89-0.743,1.912-1.147,2.984
			c-5.171,16.861-8.384,34.269-8.663,51.96c-0.314,20.011,2.482,40.141,9.042,59.076c6.523,18.824,16.84,35.396,29.204,50.904
			c23.27,29.187,58.67,59.004,98.4,55.38c19.563-1.784,38.441-10.133,54.217-21.654c14.162-10.346,24.139-25.027,30.058-41.41
			c3.761,1.337,8.531-0.1,11.494-2.753c2.194-1.966,3.43-4.747,3.411-7.678c-0.028-4.327-3.62-7.694-7.91-7.772
			c-0.722-0.014-1.446,0.072-2.158,0.241c2.232-11.935,2.819-24.214,2.608-36.295c-0.158-9.051-1.014-18.038-1.669-27.058
			c-0.594-8.18-0.956-16.37-1.396-24.556C300.36,171,304.912,168.844,307.755,164.453z"/>
		<path fill="#84A5A5" d="M123.844,63c-1.662,0.562-3.003,0.04-4.672-0.054c-1.547-0.086-2.963,0.198-4.483,0.496
			c-2.73,0.532-5.423,0.99-7.991,2.087c-5.339,2.276-10.162,6.196-13.574,10.876c-3.418,4.687-4.617,9.947-4.81,15.668
			c-0.103,3.021,0.111,6.068,0.679,9.038c0.324,1.706,0.689,3.338,0.931,5.057c0.119,0.843,0.676,2.103,0.479,2.947
			c-1.021,4.41,5.767,6.292,6.79,1.872c1-4.32-1.136-9.058-1.649-13.324c-0.633-5.277-0.406-11.176,2.391-15.829
			c2.639-4.386,7.171-8.117,11.914-10.014c2.286-0.914,5.468-1.642,7.955-1.825c2.805-0.209,5.109,0.744,7.913-0.206
			C129.984,68.343,128.153,61.539,123.844,63z"/>
		<path fill="#84A5A5" d="M283.827,45.975c-6.474-8.544-15.877-16.589-26.213-19.852c-2.081-0.657-4.178-1.099-6.279-1.369
			c-10.456-2.909-20.883-2.959-31.56,1.327c-1.402,0.562-2.789,1.138-4.152,1.739c-2.591,0.062-5.107,0.186-7.635,1.028
			c-2.171,0.725-2.766,2.833-2.262,4.546c-1.676,1.255-3.259,2.66-4.713,4.286c-4.928,5.507-8.907,11.846-10.976,18.977
			c-0.952,3.286,3.499,6.074,5.885,3.426c2.023-2.247,3.341-4.986,5.343-7.236c2.19-2.458,4.917-4.578,7.558-6.521
			c5.556-4.083,11.422-7.666,17.786-10.344c1.463-0.616,2.936-1.176,4.416-1.676c3.85-0.052,7.69-0.014,11.497,0.625
			c3.412,0.573,6.791,1.318,10.092,2.29c-0.138,0.978,0.131,2,0.999,2.794c2.18,1.996,4.663,3.556,6.747,5.668
			c2.422,2.453,4.492,5.078,6.39,7.958c1.413,2.147,2.827,4.322,4.068,6.573c0.386,0.834,0.763,1.673,1.143,2.509
			c0.82,3.787,1.705,7.427,3.281,11.081c0.062,0.143,0.14,0.264,0.216,0.388c-0.438,2.99-1.167,5.951-2.045,8.815
			c-2.593,8.468-7.317,15.761-14.167,21.386c-1.053,0.863-1.334,1.914-1.124,2.887c-2.356,2.425-4.812,4.749-7.326,6.972
			c-3.402,3.007,1.593,7.971,4.979,4.979c5.067-4.477,10.104-9.474,14.547-14.92c1.022,0.595,2.288,0.722,3.401-0.021
			c1.754-1.169,2.925-2.712,4.158-4.421c1.719-2.384,3.631-4.606,5.121-7.155c3.004-5.136,5.695-10.688,7.17-16.474
			C292.825,65.827,290.306,54.522,283.827,45.975z"/>
		<path fill="#84A5A5" d="M139.344,303.438c-0.085-2.679-3.625-3.92-5.724-2.395c0.779-2.043-0.268-4.926-3.144-5.038
			c-2.245-0.088-4.51-0.827-6.568-1.987c-0.037-0.082-0.076-0.165-0.113-0.244c-2.16-4.591-5.911-9.604-10.979-11.08
			c-0.581-2.254-1.165-4.512-1.948-6.691c2.509-1.656,5.38-2.926,7.655-4.065c2.526-1.265,2.175-6.017-0.841-6.436
			c-7.071-0.979-14.342,3.23-18.199,9.102c-3.824,5.82-3.239,11.64-1.193,17.397c0.7,4.927,2.415,9.781,5.146,13.387
			c7.211,9.511,24.824,14.235,32.836,4.593c0.781-0.328,1.557-0.685,2.318-1.076C140.743,307.792,140.631,305.033,139.344,303.438z
			 M132.477,302.521c-0.041,0.096-0.08,0.191-0.113,0.293c-0.068,0.206-0.153,0.398-0.237,0.593
			c-0.998,0.136-2.033,0.199-3.083,0.188c0.17-0.196,0.322-0.403,0.45-0.622c0.326,0.028,0.654,0.061,0.983,0.073
			C131.289,303.077,131.955,302.875,132.477,302.521z"/>
		<path fill="#84A5A5" d="M140.143,40.324c-1.277-2.465-3.19-4.673-4.222-7.256c-0.705-1.765-2.353-3.003-4.331-2.459
			c-1.678,0.461-3.168,2.555-2.459,4.33c1.281,3.21,3.354,5.891,4.932,8.939C136.146,47.903,142.225,44.347,140.143,40.324z"/>
		<path fill="#84A5A5" d="M154.929,37.509c-2.062-3.604-3.879-7.329-5.632-11.093c-1.037-2.23-1.748-5.481-4.08-6.719
			c-3.883-2.058-7.349,3.599-3.893,5.879c0.008,0.044,0.018,0.077,0.024,0.131c0.064,0.484,0.418,1.054,0.608,1.497
			c0.645,1.51,1.361,2.991,2.061,4.475c1.502,3.186,3.082,6.326,4.832,9.383C151.102,44.994,157.188,41.451,154.929,37.509z"/>
	</g>
</g>
<g class="transform-dots">
		<path opacity="0.53" fill="#81D0D3" d="M258.314,256.34c-0.045-1.58-0.177-3.14-0.418-4.656
			c-1.291-8.118-6.056-15.404-12.489-20.43c-8.31-6.49-19.146-5.878-28.424-1.55c-2.373,0.822-4.634,1.932-6.707,3.339
			c-0.653,0.444-1.281,0.915-1.893,1.405c-5.408,2.91-9.885,7.76-12.776,13.052c-5.818,10.651-5.991,24.222-0.692,35.176
			c5.54,11.449,17.234,17.085,29.439,15.75c15.11,0.792,26.4-11.113,31.108-24.537c0.477-1.112,0.904-2.24,1.275-3.381
			C258.213,265.965,258.74,261.099,258.314,256.34z M217.73,281.123c-1.073-0.574-1.951-1.232-2.727-1.997
			c2.553,1.472,5.381,2.426,8.296,2.777C221.306,282.239,219.444,282.041,217.73,281.123z M246.937,274.277
			c0.1,0.025,0.197,0.054,0.3,0.072c-0.164,0.29-0.33,0.581-0.504,0.868C246.808,274.906,246.871,274.592,246.937,274.277z"/>
		<path opacity="0.53" fill="#00BBD6" d="M255.686,136.582c0.272-3.938-0.54-7.985-3.646-10.698
			c-3.431-2.998-7.785-3.114-11.758-1.697c-1.527-0.984-3.596-0.963-5.757,0.54c-3.8,2.641-7.089,6.716-8.768,11.008
			c-2.897,7.404,0.836,17.209,8.036,20.844c5.991,3.025,11.495,0.049,15.473-4.704c3.183,0.104,5.781-2.028,6.079-5.252
			c0.028-0.311,0.039-0.618,0.039-0.922C257.118,142.854,256.982,139.521,255.686,136.582z"/>
		<path opacity="0.53" fill="#C0E5E7" d="M255.686,75.275c-0.312-2.528-1.022-4.996-2.168-7.266
			c-3.078-6.093-9.885-9.783-16.368-11.192c-0.497-0.108-0.991-0.203-1.483-0.289c-1.102-0.43-2.309-0.646-3.412-0.696
			c-3.376-0.154-6.744,0.547-9.838,2.036c-0.191,0.091-0.383,0.183-0.574,0.281c-0.059,0.03-0.118,0.057-0.177,0.086
			c-6.307,3.352-12.749,10.637-13.804,18.11c-1.695,3.619-2.297,7.649-1.062,11.635c3.982,12.846,21.389,20.318,33.225,14.384
			c5.095-0.639,9.732-2.869,12.799-7.398C256.435,89.634,257.467,81.773,255.686,75.275z"/>
		<path opacity="0.53" fill="#00BBD6" d="M274.263,266.886c-0.973-0.405-1.988-0.689-3.021-0.872
			c-0.233-0.108-0.479-0.205-0.75-0.28c-1.097-0.304-2.24-0.213-3.34,0.101c-0.61,0.053-1.214,0.141-1.812,0.261
			c-0.877,0.012-1.764,0.173-2.633,0.513c-0.783,0.307-1.457,0.723-2.037,1.218c-3.946,2.253-6.678,6.258-6.168,11.51
			c0.462,4.755,3.816,8.791,8.589,9.638c2.992,0.529,6.171-0.19,8.586-1.976c0.477-0.04,0.95-0.1,1.416-0.19
			c4.617-0.908,8.159-4.727,8.432-9.471C281.795,272.622,278.434,268.621,274.263,266.886z M266.982,277.358
			c0.26-0.406,0.562-0.81,0.907-1.209c0.187,0.542,0.335,1.093,0.438,1.59c-0.297,0.089-0.589,0.152-0.862,0.182
			c0,0-0.179-0.008-0.388-0.016C267.036,277.739,267.006,277.555,266.982,277.358z"/>
		<path opacity="0.53" fill="#92D7E7" d="M249.73,89.841c-0.408-3.317-1.341-6.558-2.845-9.534
			c-4.04-8.001-12.975-12.842-21.484-14.693c-0.652-0.142-1.302-0.267-1.947-0.379c-1.447-0.564-3.03-0.851-4.479-0.917
			c-4.432-0.2-8.852,0.72-12.914,2.676c-0.252,0.118-0.503,0.239-0.753,0.368c-0.077,0.04-0.155,0.074-0.233,0.114
			c-8.279,4.397-16.732,13.962-18.117,23.771c-2.227,4.752-3.018,10.041-1.396,15.271c5.229,16.864,28.076,26.672,43.61,18.881
			c6.689-0.837,12.777-3.765,16.803-9.71C250.715,108.688,252.069,98.371,249.73,89.841z"/>
		<path opacity="0.53" fill="#81D0D3" d="M225.499,136.857c-0.616-5.72-1.177-12.024-4.164-17.077
			c-3.489-5.902-10.569-8.913-16.771-11.089c-5.366-1.882-11.177-2.8-16.865-2.548c-4.176,0.186-8.294,0.984-12.203,2.349
			c-7.776,0.409-15.036,3.172-20.865,8.905c-4.14,4.071-6.715,8.854-7.995,13.945c-2.016,4.092-2.942,8.659-3.123,13.228
			c-0.474,11.904,6.229,23.183,15.729,29.964c4.37,3.116,9.541,5.177,14.949,6.223c9.59,3.576,20.698,4.035,30.239,0.429
			c11.567-4.373,18.573-14.285,20.625-26.317C226.072,148.909,226.145,142.86,225.499,136.857z"/>
		<path opacity="0.53" fill="#00BBD6" d="M161.06,111.575c-2.229-5.131-6.511-9.128-12.403-8.784
			c-1.668,0.099-3.237,0.531-4.689,1.211c-1.951-0.192-3.907-0.078-5.777,0.396c-11.331,2.879-14.716,18.144-7.559,26.624
			c0.159,0.188,0.326,0.368,0.492,0.546c4.477,7.221,14.997,10.553,22.793,6.995C163.908,134.004,164.971,120.579,161.06,111.575z"
			/>
		<path opacity="0.53" fill="#00BBD6" d="M220.741,173.375c-0.019-1.91-0.237-3.745-0.68-5.453
			c-2.532-9.735-12.036-13.562-21.032-12.035c-4.551-0.091-9.08,1.188-12.848,3.831c-4.534,2.696-7.771,8.012-9.293,13.54
			c-0.494,1.799-0.82,3.644-0.982,5.497c-0.487,2.702-0.426,5.459,0.358,8.158c0.038,0.126,0.081,0.249,0.121,0.375
			c1.192,5.764,4.188,11.078,9.143,14.788c13.985,10.477,27.704-2.038,32.965-16.517c1.49-2.893,2.368-6.1,2.47-9.295
			C220.994,175.262,220.914,174.299,220.741,173.375z M193.37,198.17c2.484,0.048,5.046-0.229,7.547-0.795
			c-0.986,0.477-2.026,0.828-3.122,1.019C196.208,198.672,194.732,198.564,193.37,198.17z"/>
		<path opacity="0.53" fill="#81D0D3" d="M138.368,132.442c-0.977-2.451-2.341-4.75-4.031-6.769
			c-3.227-3.856-7.953-6.029-12.701-7.376c-4.987-1.413-10.142-2.214-15.117-0.393c-2.081,0.763-3.987,1.863-5.677,3.226
			c-3.59,2.255-5.947,5.885-7.471,9.889c-3.534,9.285-0.121,20.062,8.398,25.338c0.116,0.072,0.24,0.137,0.357,0.207
			c0.721,0.59,1.472,1.144,2.262,1.65c5.141,3.302,11.362,3.653,17.14,2.11c1.702-0.222,3.361-0.584,4.934-1.099
			c8.073-2.654,13.391-9.403,13.615-17.652C140.479,138.497,139.999,135.359,138.368,132.442z"/>
		<path opacity="0.53" fill="#81D0D3" d="M261.547,127.783c-1.733-0.108-3.527,0.315-5.102,1.135
			c-0.787,0.16-1.593,0.475-2.395,0.975c-3.251,2.029-5.458,6.097-5.173,9.916c0.226,3.059,2.261,5.513,4.902,6.888
			c1.337,3.035,4.144,5.593,7.251,5.999c7.587,0.99,11.105-6.916,11.61-13.273C273.123,133.354,268.151,124.889,261.547,127.783z"/>
		<path opacity="0.53" fill="#ACDEE0" d="M202.693,200.451c-0.461-3.97-1.725-7.725-3.881-10.681
			c-4.058-5.565-10.635-8.276-17.334-8.487c-2.261-0.803-4.734-0.914-7.15-0.144c-3.068,0.337-6.098,1.25-8.925,2.815
			c-6.388,3.534-9.317,10.229-9.421,17.189c-0.741,3.25-0.824,6.631-0.087,9.952c1.352,6.095,5.308,11.238,10.423,14.699
			c9.022,6.105,24.563,8.414,32.642-0.496C204.869,218.777,205.424,208.897,202.693,200.451z M189.899,218.478
			c-0.062,0.042-0.126,0.076-0.188,0.118c0.504-0.543,0.983-1.111,1.429-1.698c0.859-0.834,1.625-1.774,2.292-2.792
			C192.62,215.829,191.492,217.373,189.899,218.478z"/>
		<path opacity="0.53" fill="#00BBD6" d="M213.881,315.085c0.076-0.231,0.146-0.465,0.212-0.7c1.451-4.402,1.077-9.378-1.765-13.209
			c-0.516-0.698-1.079-1.323-1.674-1.883c-1.33-1.615-2.93-3.001-4.713-4.037c-3.878-2.971-8.766-4.021-12.939-0.525
			c-5.817,1.271-11.095,5.123-12.91,11.243c-2.046,6.887,2.051,14.739,8.275,17.921c1.527,3.035,3.997,5.406,7.77,5.951
			c1.318,0.191,2.612-0.114,3.494-0.959c2.542,0.084,5.094-0.743,7.427-2.895c0.943-0.872,1.793-1.879,2.538-2.983
			c0.267-0.23,0.531-0.462,0.783-0.716C212.381,320.263,213.471,317.756,213.881,315.085z"/>
		<path opacity="0.53" fill="#ACDEE0" d="M205.728,81.482c-0.616-5.719-1.177-12.022-4.163-17.075
			c-3.49-5.902-10.568-8.913-16.771-11.088c-5.367-1.883-11.177-2.801-16.865-2.549c-4.177,0.185-8.295,0.985-12.204,2.349
			c-7.777,0.41-15.036,3.172-20.865,8.904c-4.14,4.073-6.714,8.855-7.994,13.946c-2.016,4.092-2.942,8.659-3.125,13.227
			c-0.472,11.905,6.229,23.184,15.729,29.963c4.37,3.118,9.542,5.178,14.951,6.226c9.588,3.574,20.698,4.034,30.239,0.427
			c11.566-4.373,18.572-14.286,20.626-26.315C206.301,93.536,206.374,87.487,205.728,81.482z"/>
		<path opacity="0.53" fill="#00BBD6" d="M212.043,46.187c-0.828-0.479-1.705-0.85-2.609-1.142
			c-1.405-8.547-12.764-4.605-16.949,0.047c-5.728,6.366-5.971,14.756-1.124,21.691c3.59,5.139,9.553,7.596,15.71,6.405
			c5.342-1.034,10.199-5.047,11.713-10.345C220.529,56.744,217.539,49.362,212.043,46.187z"/>
		<path opacity="0.53" fill="#00BBD6" d="M147.514,165.472c-0.71-7.018-5.178-12.522-11.518-15.419
			c-0.998-0.456-2.037-0.865-3.104-1.237c-4.046-5.16-10.613-8.549-17.184-7.582c-2.831,0.417-5.482,1.568-7.801,3.224
			c-3.804,1.152-7.257,2.841-9.437,4.535c-13.004,10.118-11.828,29.104-0.132,39.758c11.754,10.707,29.957,8.693,40.942-2.174
			C144.774,181.141,148.303,173.291,147.514,165.472z M103.368,172.648c-0.01,1.095,0.095,2.188,0.307,3.255
			c-0.891-1.702-1.51-3.529-1.782-5.397C102.34,171.242,102.833,171.956,103.368,172.648z"/>
		<path opacity="0.53" fill="#92D7E7" d="M271.703,197.546c-0.313-2.528-1.023-4.997-2.169-7.265
			c-3.077-6.096-9.885-9.784-16.368-11.194c-0.497-0.107-0.991-0.201-1.483-0.288c-1.101-0.43-2.308-0.647-3.412-0.697
			c-3.376-0.154-6.744,0.548-9.838,2.037c-0.192,0.091-0.383,0.183-0.574,0.28c-0.058,0.03-0.118,0.056-0.178,0.087
			c-6.307,3.351-12.748,10.637-13.802,18.109c-1.696,3.62-2.299,7.648-1.062,11.635c3.982,12.847,21.389,20.319,33.224,14.383
			c5.096-0.638,9.733-2.868,12.8-7.396C272.451,211.903,273.484,204.043,271.703,197.546z"/>
		<path opacity="0.53" fill="#92D7E7" d="M140.796,201.547c1.254-3.091,1.66-6.51,0.948-9.604c-0.414-3.606-2.337-6.784-6.452-8.319
			c-4.92-1.832-11.534-0.68-16.383,2.447c-1.871,0.761-3.547,2.075-4.741,3.807c-1.074,1.561-1.609,3.32-1.685,5.102
			c-1.205,6.655,4.011,12.593,10.337,14.801c1.9,0.979,3.991,1.526,6.07,1.418c3.902-0.205,7.274-2.455,9.636-5.617
			C139.467,204.376,140.232,203.015,140.796,201.547z"/>
		<path opacity="0.53" fill="#92D7E7" d="M190.446,268.533c-6.648-4.862-15.928-6.682-23.995-5.544
			c-8.31,1.172-15.013,6.417-18.092,14.218c-1.668,4.23-2.156,8.887-1.599,13.377c-0.062,3.648,0.475,7.238,1.637,10.286
			c6.254,16.372,30.594,22.306,43.476,10.341C203.744,300.187,203.814,278.312,190.446,268.533z"/>
</g>
<g>
	<path opacity="0.12" fill="#4D5B5A" d="M293.938,263.494c-1.012-2.42-3.851-3.336-4.875-5.438
		c-1.214-2.488-0.145-6.012,0.073-8.604c0.295-3.518,0.308-7.043,0.104-10.568c-0.42-7.279-0.968-14.58-1.482-21.859
		c-0.528-7.471-1.331-14.936-2.111-22.385c-0.378-3.6-0.741-7.201-1.114-10.801c-0.365-3.523-1.121-7.062,0.063-10.479
		c0.987-2.85,2.208-5.392,2.501-8.441c0.337-3.504,0.276-7.044-0.137-10.545c-0.827-6.998-3.23-13.755-3.854-20.742
		c-0.646-7.232-0.015-14.476-0.958-21.715c-0.929-7.112-2.538-14.06-4.872-20.844c-2.382-6.928-5.24-13.714-8.396-20.324
		c-2.858-5.986-5.736-11.915-9.731-17.248c-2.236-2.984-5.048-5.291-7.603-7.973c-2.456-2.577-5.083-5.031-8.22-6.762
		c-6.853-3.779-13.96-6.658-21.631-8.291c-1.752-0.373-3.538-0.688-5.34-0.916c-7.469-2.498-15.281-4.074-22.764-3.764
		c-12.025,0.499-23.248,6.501-34.25,12.657c-10.583,5.921-19.803,13.187-27.511,24.887c-1.853,2.813-3.56,5.726-5.14,8.722
		c-8.949-2.53-18.942,3.514-24.069,10.731c-5.524,7.772-5.991,19.604,1.274,26.528c2.599,2.476,5.868,3.938,9.152,4.311
		c-1.582,8.691-9.875,17.964-10.511,27.039c-0.435,6.21-0.579,12.426-0.643,18.65c-0.745,13.035,6.724,25.948,8.086,38.747
		c0.275,2.582,0.643,5.1,1.085,7.568c1.454,9.574,3.648,18.936,6.559,27.887c1.585,4.881,3.383,9.584,5.371,14.105
		c-0.032,0.082-0.063,0.164-0.106,0.254c-0.086,0.186-1.147,1.887-1.639,2.57c-1.533,2.135-3.366,4.062-5.129,6.006
		c-3.767,4.148-8.273,8.451-10.277,13.801c-2.042,5.455,0.582,11.094,6.327,12.699c7.416,2.074,15.412-2.932,21.389-6.725
		c1.433-0.912,2.895-1.846,4.331-2.824c6.649,8.918,14.26,16.549,22.624,22.674c9.2,6.738,18.941,11.98,28.741,16.838
		c5.158,2.555,10.179,4.941,15.635,6.012c4.841,0.953,9.7,1.24,14.576,1.025c1.86,1.141,3.62,2.469,5.246,4.041
		c3.94,3.809,7.072,9.094,12.527,10.891c6.509,2.145,11.585-1.838,13.543-7.852c1.353-4.154,1.691-8.99,5.409-11.307
		c0.902-0.408,1.821-0.779,2.769-1.092c2.546-0.836,3.463-2.988,3.172-4.971c2.924-2.221,5.762-4.551,8.088-7.314
		c4.462-5.295,7.755-11.607,11.013-17.686c1.587-2.965,3.099-5.816,5.256-8.432c0.887-1.074,1.809-2.434,2.857-3.359
		c0.959-0.846,2.259-1.281,3.152-2.246C294.196,268.801,294.914,265.828,293.938,263.494z"/>
</g>
<g>
	<path fill="#688E8D" d="M214,139.997c-2.271-2.243-6.594-1.665-9.729-1.872c-5.988,0.375-20.927-0.709-26.944-1.514
		c-4.206-0.563-8.996-2.481-12.968-0.177c-7.019,4.072-4.778,15.164-0.915,20.658c5.138,7.308,14.803,10.27,23.271,11.366
		c8.638,1.119,19.771,0.45,25.874-6.686C216.937,156.692,219.152,145.081,214,139.997z"/>
</g>
<g class="transform-mouth">
	<path fill="#364C49" d="M207.199,143.917c-3.074-2.417-19.917-2.841-19.917-2.841s-9.471,0.201-13.377,1.375
		s-6.583,2.43-7.454,6.179c-0.861,3.711,1.812,6.368,4.956,7.713c4.012,1.717,8.625,2.452,12.876,3.324
		c5.107,1.048,10.4,1.594,15.468,0.053c3.613-1.1,7.42-2.878,9.336-6.322C210.848,150.241,210.273,146.334,207.199,143.917z"/>
</g>
<g>
	<path fill="#688E8D" d="M275.578,42.814c-9.176-11.476-29.65-19.132-42.193-9.643c-1.922,0.954-3.739,2.119-5.39,3.349
		c-2.657,1.98-5.081,4.404-7.2,7.118c-2.294,2.278-4.269,4.95-5.803,8.072c-1.265,2.572-2.09,5.242-2.523,7.936
		c-1.003,4.215-1.188,8.604-0.324,12.954c0.715,3.596,2.193,6.942,4.215,9.937c2.384,4.044,5.711,7.553,9.83,10.188
		c6.662,4.26,15.014,5.705,22.962,5.239c0.019,0.162,0.038,0.325,0.06,0.488c0.162,1.275,0.656,2.714,0.328,3.975
		c-1.146,4.388,5.644,6.259,6.789,1.871c0.664-2.54-0.137-4.759-0.212-7.251c7.139-1.573,14.097-5.681,18.395-11.672
		c5.355-4.264,7.862-10.969,8.717-17.706C284.43,58.188,281.508,50.23,275.578,42.814z"/>
</g>
<g>
	<path fill="#688E8D" d="M131.479,80.618c-1.665-2.52-3.851-4.003-6.278-4.71c-0.528-0.867-1.568-1.562-2.79-1.757
		c-2.541-0.405-5.318-0.381-7.859-0.024c-6.734,0.944-12.28,6.996-12.343,13.91c-0.07,7.973,6.537,14.751,14.035,16.622
		c0.089,0.232,0.202,0.457,0.343,0.668c0.032,0.284,0.072,0.571,0.116,0.864c0.224,1.466,0.555,2.874,1.165,4.229
		c0.781,1.733,3.3,2.151,4.816,1.263c1.784-1.042,2.049-3.076,1.264-4.817c0.597,1.325,0.13,0.214,0.024-0.186
		c-0.137-0.519-0.25-1.044-0.347-1.571c-0.008-0.036-0.028-0.163-0.051-0.294c1.873-0.423,3.684-1.225,5.342-2.476
		C135.879,97.094,135.98,87.424,131.479,80.618z"/>
</g>
<g id="RIGHT-EYE-3D">
	<g>
		<g>
			<path fill="#F5FAF8" d="M268.436,48.434c-3.858-9.009-13.19-12.997-22.621-11.48c-2.935,0.473-5.729,1.56-8.287,3.099
				c-4.869,1.739-8.781,5.61-11.123,10.194c-1.775,3.474-2.636,7.203-2.615,10.865c-0.247,4.066,0.934,7.906,3.091,11.168
				c1.6,2.67,3.809,5.041,6.617,6.908c8.419,5.596,22.275,5.604,30.121-1.075C272.088,70.905,272.557,58.057,268.436,48.434z"/>
			<g>
				<path fill="#222D2C" d="M257.999,55.677c-0.792-3.254-3.529-5.262-6.8-5.528c-0.153-0.012-11.98-1.336-9.576,10.118
					c0.991,4.721,8.558,4.803,12.592,3.095C257.135,62.125,258.756,58.779,257.999,55.677z"/>
				<path fill="#222D2C" d="M249.942,57.122C249.942,57.122,249.942,57.122,249.942,57.122c0.001-0.004,0-0.007,0.001-0.011
					c-0.008-0.001-0.02-0.002-0.027-0.003c0,0.007-0.001,0.011-0.002,0.017C249.924,57.124,249.933,57.124,249.942,57.122z"/>
			</g>
		</g>
	</g>
</g>
<g id="LEFT-EYE-3D">
	<g>
		<g>
			<path fill="#F5FAF8" d="M113.877,75.767c-3.839,0.91-6.388,4.243-7.371,8.006c-1.121,4.29-0.124,9.208,3.711,11.787
				c3.196,2.147,7.54,2.191,11.077,0.934c3.944-1.404,7.141-4.331,8.274-8.445C130.736,83.803,126.25,72.833,113.877,75.767z"/>
			<path fill="#222D2C" d="M119.523,82.916c-0.117-0.116-0.234-0.234-0.351-0.352c-0.64-0.638-1.587-1.031-2.49-1.031
				c-0.863,0-1.895,0.383-2.489,1.031c-0.617,0.671-1.073,1.552-1.031,2.489c0.042,0.935,0.357,1.816,1.03,2.49
				c0.118,0.117,0.235,0.233,0.353,0.353c0.639,0.638,1.587,1.03,2.489,1.03c0.864,0.001,1.895-0.384,2.488-1.03
				c0.618-0.672,1.075-1.552,1.032-2.49C120.513,84.474,120.197,83.59,119.523,82.916z"/>
		</g>
	</g>
</g>
</svg>
