<?xml version="1.0" encoding="utf-8"?>
<!-- Generator: Adobe Illustrator 16.0.0, SVG Export Plug-In . SVG Version: 6.00 Build 0)  -->
<!DOCTYPE svg PUBLIC "-//W3C//DTD SVG 1.1//EN" "http://www.w3.org/Graphics/SVG/1.1/DTD/svg11.dtd">
<svg version="1.1" xmlns="http://www.w3.org/2000/svg" xmlns:xlink="http://www.w3.org/1999/xlink" x="0px" y="0px"
	 width="415.953px" height="500px" viewBox="0 0 415.953 500" enable-background="new 0 0 415.953 500" xml:space="preserve">
<g id="BLEND-BODY">
	<g>
		<path id="BLEND-BLUE" class="blend-bg" fill="#29ABE2" d="M347.521,337.509c-6.251-3.385-13.463-2.243-20.091-0.108c5.25-6.001,9.763-13.878,6.615-21.729
			c-4.078-10.169-16.551-11.042-28.381-9.823c6.775-5.825,12.261-12.67,11.823-22.262c-0.089-1.932-1.392-4.17-3.466-4.553
			c-7.632-1.411-15.188-0.743-22.681,0.669c0.785-0.963,1.536-1.934,2.21-2.912c4.084-5.924,3.373-14.003-5.371-14.002
			c-6.16,0.002-12.135,3.081-17.458,5.829c-7.794,4.025-15.237,8.43-23.254,12.014c-0.774,0.347-1.552,0.657-2.327,0.99
			c-1.203-1.935-2.125-4.223-3.127-6.258c-2.394-4.86-4.655-9.853-6.366-15.003c-5.68-17.096-6.901-35.276-8.394-53.1
			c-2.104-25.112-5.07-50.475-16.655-73.261c-10.328-20.314-27.839-35.652-50.14-41.229c-5.036-1.26-10.234-2.104-15.49-2.646
			c2.616-4.472,3.334-9.714-0.587-13.139c-3.943-3.443-10.623-0.999-14.239,1.69c-1.717,1.275-3.099,2.829-4.244,4.532
			c-0.101-3.884-0.348-7.759-0.939-11.642c-0.89-5.82-1.939-13.029-6.807-16.969c-0.914-0.74-1.94-0.76-2.86,0
			c-4.443,3.66-3.262,11.304-2.812,16.277c0.566,6.254,0.889,12.734,2.246,18.922c-6.159,0.436-12.358,1.327-18.311,2.918
			c-5.475,1.464-15.136,3.556-17.574,9.126c-2.55,5.822-2.766,12.995-3.13,19.249c-0.474,8.188-0.809,16.369-1.354,24.555
			c-1.178,17.634-2.479,35.265-2.34,52.952c0.142,17.786,0.959,35.714,3.082,53.46c-1.254,0.395-2.426,1.131-3.442,1.891
			c-3.157,2.359-5.811,5.593-6.139,9.647c-0.461,5.682,3.735,8.259,8.562,9.4c0.569,0.209,1.144,0.327,1.709,0.339
			c0.112,0.019,0.224,0.034,0.336,0.052c0.756,0.134,1.521,0.231,2.285,0.302c1.714,9.08,3.838,18.078,6.494,26.941
			c7.87,26.269,18.966,52.435,37.014,73.392c18.232,21.171,43.558,35.157,70.789,40.894c57.003,12.01,142.257-5.951,156.982-72.075
			C350.136,340.844,349.411,338.532,347.521,337.509z"/>
		<g id="BLEND-SPOTS">
			<g>
				<path fill="#FFFFFF" d="M286.622,392.827c-0.285-1.555-1.288-2.711-2.606-3.521c-2.323-1.428-5.664-1.054-7.067,1.498
					c-0.235,0.426-0.349,0.895-0.402,1.368c-0.515,1.099-0.63,2.434-0.173,3.695c1.23,3.403,5.776,3.078,8.242,1.271
					C286.038,396.094,286.954,394.633,286.622,392.827z"/>
			</g>
			<path fill="#FFFFFF" d="M322.202,367.878c-0.059-3.892-4.219-7.299-8.157-6.066c-0.134,0.015-0.268,0.021-0.403,0.041
				c-2.002,0.299-3.564,1.482-4.49,3.036c-0.912,0.841-1.648,1.868-2.035,2.898c-1.855,4.959,3.438,9.079,8.107,8.85
				c4.028-0.197,7.002-3.958,7.029-7.859C322.254,368.469,322.235,368.17,322.202,367.878z"/>
			<path fill="#FFFFFF" d="M310.808,350.886c-0.225-0.226-0.449-0.449-0.675-0.674c-0.771-0.773-2.089-0.773-2.86,0
				c-0.776,0.774-0.776,2.086,0,2.86c0.224,0.226,0.449,0.449,0.674,0.675c0.771,0.772,2.09,0.772,2.861,0
				C311.583,352.973,311.583,351.66,310.808,350.886z"/>
			<path fill="#FFFFFF" d="M292.702,373.473c-0.267-0.971-0.973-2.147-1.86-2.67c-0.702-0.413-1.656-0.552-2.45-0.454
				c-0.589,0.072-1.104,0.313-1.552,0.643c-0.267,0.064-0.528,0.165-0.778,0.316c-1.019,0.616-1.458,1.744-1.549,2.882
				c-0.152,1.907,0.733,4.164,2.574,4.938C290.257,380.461,293.521,376.447,292.702,373.473z"/>
			<path fill="#FFFFFF" d="M299,379.292c-2,0-2,4.047,0,4.047C302,383.339,302,379.292,299,379.292z"/>
			<path fill="#FFFFFF" d="M273,381.083c-2,0-2,4.046,0,4.046C276,385.129,276,381.083,273,381.083z"/>
		</g>
		<path fill="#3793CC" d="M96.35,101.707c-8.135-1.322-14.496,5.273-12.49,13.379c0.613,2.484,2.072,5.08,4.166,6.721
			c5.111,4.829,14.209,1.916,16.502-4.689C106.646,111.009,103.129,102.811,96.35,101.707z"/>
		<path fill="#3793CC" d="M184.322,110.531c-2.39-3.196-4.89-6.455-8.609-8.109c-0.591-0.264-1.196-0.484-1.809-0.687
			c-2.213-0.928-16.092-2.673-22.56,1.314c-5.02,3.095-9.399,7.231-11.948,12.581c-5.137,10.784-2.811,23.311,4.834,32.179
			c8.036,9.317,20.059,14.65,31.346,7.662c4.243-2.628,7.655-5.888,10.108-9.628c2.63-2.812,4.669-6.05,5.45-9.8
			C193.025,126.993,189.725,117.762,184.322,110.531z"/>
	</g>
</g>
<g id="BLEND-MOUTH-BACK">
	<path fill="#3793CC" d="M125.282,131.867c-0.067,0.008-0.136,0.018-0.202,0.024c-0.081-0.016-0.16-0.034-0.24-0.048
		c-2.307-0.391-4.551,0.056-6.853,0.222c-3.68,0.265-7.247-0.595-10.906-0.487c-3.392,0.099-7.824,1.034-7.758,5.186
		c0.06,3.793,3.741,7.179,6.972,8.53c6.986,2.921,24.04,1.858,25.322-8.104C132.143,133.107,128.864,131.481,125.282,131.867z"/>
</g>
<g id="BLEND-MOUTH" class="blend-mouth">
	<path fill="#1B1464" d="M126.046,134.95c-0.981-1.112-2.532-0.927-3.832-0.729c-2.554,0.386-4.505,0.313-7.074,0.016
		c-2.999-0.35-6.211-0.563-8.833,0.78c-0.517,0.192-1.018,0.414-1.491,0.672c-0.627,0.339-1.017,0.931-1.066,1.586
		c-0.301,0.759,0.084,1.5,0.738,1.932c1.741,2.474,5.104,3.028,8.042,3.024c0.767-0.004,1.583-0.012,2.414-0.053
		c3.06,0.344,6.083-0.031,8.825-1.785C125.43,139.329,127.834,136.969,126.046,134.95z"/>
</g>
<g id="BLEND_x5F_EYE_x5F_LEFT">
	<g>
		<g>
			<path fill="#FFFFFF" d="M90.152,116.899c0.413,0.146,6.473,2.476,9.994-1.982c3.015-3.816-0.072-9.31-3.578-10.895
				s-9.475,0.245-11.087,4.031C83.801,111.993,86.454,115.589,90.152,116.899z"/>
			<path fill="#1B1464" d="M92.271,106.427c-0.94,0.12-1.694,0.834-2.122,1.667c-0.927,1.809-0.439,4.055,1.679,4.688
				c1.628,0.486,3.882-0.179,4.709-1.735C97.135,109.921,96.597,105.875,92.271,106.427z"/>
		</g>
	</g>
</g>
<g id="BLEND_x5F_EYE_x5F_RIGHT">
	<g>
		<g>
			<path fill="#FFFFFF" d="M184.854,123.06c-0.052-11.722-10.793-17.478-19.448-18.456s-18.708,2.864-22.797,11.529
				c-4.824,10.223-1.511,20.277,6.664,25.477c2.959,2.282,6.833,3.589,11.075,3.821c7.194,0.394,13.797-1.615,17.88-6.751
				C182.286,134.782,184.885,129.374,184.854,123.06z"/>
			<path fill="#1B1464" d="M170.662,121.508c-1.577-3.586-6.373-5.76-9.143-6.165s-6.529,1.09-8.026,4.312
				c-0.996,2.147-0.926,4.319-0.11,6.244c0.326,1.192,0.926,2.319,1.894,3.274c1.165,1.15,2.655,1.9,4.243,2.29
				c3.039,1.11,6.564,0.963,9.101-1.22C171.202,128.024,172.037,124.625,170.662,121.508z"/>
		</g>
	</g>
</g>
</svg>
