<?xml version="1.0" encoding="utf-8"?>
<!-- Generator: Adobe Illustrator 16.0.0, SVG Export Plug-In . SVG Version: 6.00 Build 0)  -->
<!DOCTYPE svg PUBLIC "-//W3C//DTD SVG 1.1//EN" "http://www.w3.org/Graphics/SVG/1.1/DTD/svg11.dtd">
<svg version="1.1" id="ground" xmlns="http://www.w3.org/2000/svg" xmlns:xlink="http://www.w3.org/1999/xlink" x="0px" y="0px"
	 width="4435px" height="768px" viewBox="0 0 4435 768" enable-background="new 0 0 4435 768" xml:space="preserve">
<g class="ground">
	<defs>
		<path id="SVGID_1_" d="M4435,615c-22.445-0.416-46.928,0-73.896,0c-294.693,0-294.693,0-589.387,0c-294.695,0-294.695,0-589.389,0
			c-294.695,0-294.695,0-589.391,0s-294.695,0-589.394,0c-294.697,0-294.697,0-589.394,0s-294.697,0-589.394,0
			c-294.698,0-294.698,0-589.396,0C128.849,615,60,615,0,615v153h4435V615z"/>
	</defs>
	<use xlink:href="#SVGID_1_"  overflow="visible" fill="#808080"/>
	<clipPath id="SVGID_2_">
		<use xlink:href="#SVGID_1_"  overflow="visible"/>
	</clipPath>
	<rect y="449.326" clip-path="url(#SVGID_2_)" fill="#808080" width="4435" height="318.674"/>
	<path clip-path="url(#SVGID_2_)" fill="#6E6E6E" d="M439.14,611.343c0-9.972-8.891-20.37-19.5-19.5
		c-36.901,3.025-74.055,3.81-110.194,12.697c-5.778,1.421-10.217,5.628-12.524,10.814c-11.88-5.022-24.596-6.741-37.577-7.613
		c-6.701-0.45-13.419-0.624-20.125-0.993c-3.402-0.188-6.796-0.459-10.187-0.794c-0.303-0.03-1.637-0.213-2.55-0.336
		c-1.903-0.31-3.794-0.677-5.68-1.078c-10.387-2.211-21.046,2.928-23.987,13.62c-2.691,9.784,3.221,21.773,13.62,23.987
		c14.481,3.082,29.217,3.609,43.95,4.316c3.284,0.158,6.565,0.371,9.842,0.643c0.407,0.034,0.814,0.077,1.221,0.116
		c1.318,7.181,6.509,13.772,13.994,15.927c35.438,10.197,71.447-2.092,107.194-2.304c10.629-0.063,19.5-8.822,19.5-19.5
		c0-0.359-0.036-0.711-0.055-1.066c0.901-0.92,1.791-1.861,2.672-2.825c1.008-1.103,2.055-2.162,3.137-3.191
		c0.148-0.142,0.339-0.311,0.538-0.483c0.314-0.203,0.628-0.405,0.944-0.604c0.57-0.344,1.152-0.663,1.743-0.969
		c1.2-0.421,2.436-0.733,3.667-1.043c0.877-0.22,5.708-0.928,0.857-0.321C430.184,629.523,439.14,622.971,439.14,611.343z"/>
	<path clip-path="url(#SVGID_2_)" fill="#6E6E6E" d="M1538.752,606.844c-41.044-0.043-82.095-2.98-123.124-0.701
		c-13.365,0.742-26.665,2.114-39.796,4.256c-3.168-2.233-6.998-3.562-11.098-3.555c-6.117,0.013-12.405,0.134-18.756,0.459
		c-20.403,0.885-40.784,2.932-61.16,4.866c0.265-1.253,0.405-2.534,0.405-3.827c0-11.266-8.908-18.66-19.5-19.5
		c-21.257-1.687-42.293-5.215-63.527-7.008c-4.877-0.905-9.74-1.888-14.593-2.917c-25.377-5.383-50.327-12.568-75.264-19.668
		c-28.456-8.101-56.483-16.202-86.007-19.323c-14.621-1.546-29.321-2.207-43.966-3.479c-3.595-0.312-7.185-0.687-10.77-1.097
		c-0.287-0.032-2.301-0.304-3.179-0.418c-1.335-0.2-2.669-0.413-4.001-0.633c-6.945-1.143-13.803-2.741-20.542-4.767
		c-5.404-1.624-11.041-0.502-15.564,2.397c-7.99-1.877-16.019-3.591-24.098-5.098c-0.08-0.035-0.158-0.071-0.238-0.105
		c0.872-7.488-2.587-15.212-9.447-19.23c-8.53-4.996-19.802-2.572-25.559,5.282c-2.885,2.028-4.889,4.233-7.087,7.233
		c-0.109,0.148-0.206,0.308-0.31,0.46c-85.745-18.532-174.816-12.677-261.915-12.638c-10.63,0.005-19.5,8.866-19.5,19.5
		c0,10.626,8.87,19.505,19.5,19.5c44.774-0.021,89.544-1.411,134.317-0.418c22.886,0.508,45.763,1.701,68.539,4.029
		c5.154,0.526,10.298,1.141,15.437,1.802c0.163,0.022,0.318,0.044,0.514,0.071c1.744,0.242,3.486,0.502,5.227,0.763
		c2.89,0.431,5.774,0.902,8.656,1.384c10.8,1.806,21.525,4.043,32.153,6.675c3.218,0.797,6.484,0.786,9.542,0.077
		c6.505,0.892,12.973,1.945,19.413,3.127c3.088,1.293,6.186,2.564,9.289,3.817c24.366,9.842,49.409,17.896,74.096,26.871
		c2.862,1.041,5.718,2.102,8.57,3.171c1.136,0.427,2.272,0.857,3.406,1.29c-3.868-1.471,1.434,0.632,1.834,0.813
		c5.726,2.601,11.302,5.523,16.802,8.568c10.707,5.926,20.985,12.598,31.253,19.243c21.028,13.608,42.16,26.442,65.819,35.031
		c2.736,0.993,5.572,1.14,8.304,0.638c11.271,5.92,23.988,9.972,35.989,13.376c16.543,4.691,34.387,6.134,51.472,7.46
		c35.451,2.753,71.451,1.849,106.623-3.472c6.485-0.981,11.982-7.666,13.619-13.62c0.057-0.206,0.102-0.412,0.151-0.619
		c0.248-0.12,0.491-0.249,0.739-0.368c2.123-1.019,4.274-1.977,6.429-2.925c0.099-0.041,0.181-0.074,0.291-0.12
		c1.627-0.67,3.27-1.302,4.912-1.933c9.191-3.532,18.645-6.353,28.196-8.723c8.962-2.224,18.058-3.883,27.193-5.217
		c-0.607,0.105,4.215-0.528,4.873-0.605c2.849-0.33,5.705-0.606,8.561-0.87c5.15-0.477,10.312-0.817,15.477-1.104
		c40.441-2.247,80.945,0.755,121.401,0.797c10.63,0.011,19.5-8.879,19.5-19.5C1558.252,615.706,1549.382,606.854,1538.752,606.844z
		 M870.45,511.797c-0.176,0.109-0.334,0.221-0.504,0.33C872.335,509.759,872.025,510.819,870.45,511.797z"/>
	<path clip-path="url(#SVGID_2_)" fill="#6E6E6E" d="M2735.871,594.843c-108.999-2.894-218.418,2.96-327.032-9.001
		c-5.186-0.571-10.622,2.354-14.266,6.258c-18.572-11.209-39.003-16.981-60.742-18.259c-10.621-0.624-19.5,9.343-19.5,19.5
		c0,11.102,8.893,18.877,19.5,19.5c1.639,0.097,3.272,0.212,4.907,0.349c0.513,0.043,2.527,0.282,3.101,0.335
		c2.161,0.353,4.308,0.783,6.445,1.251c2.626,0.575,5.215,1.307,7.784,2.093c1.224,0.375,2.432,0.798,3.639,1.222
		c0.585,0.205,2.222,0.86,3.049,1.182c7.949,3.611,15.327,8.354,22.518,13.277c17.473,11.965,34.897,22.928,55.984,27.328
		c17.847,3.724,36.5,4.985,54.662,6.141c20.551,1.307,41.239,1.805,61.806,0.56c15.984-0.967,36.246-1.913,49.974-11.394
		c8.097-5.592,10.792-14.571,8.545-22.306c39.893,0.018,79.787-0.093,119.627,0.965c10.63,0.282,19.5-9.084,19.5-19.5
		C2755.371,603.5,2746.494,595.125,2735.871,594.843z"/>
	<path clip-path="url(#SVGID_2_)" fill="#6E6E6E" d="M4206.82,546.153c-2.918-10.609-13.625-15.943-23.987-13.62
		c-58.22,13.053-113.348,36.646-171.106,51.354c-14.443,3.678-29.053,6.688-43.793,8.891c-0.543,0.081-0.949,0.143-1.25,0.189
		c-0.205,0.025-0.429,0.055-0.694,0.089c-1.788,0.23-3.58,0.434-5.372,0.637c-3.598,0.407-7.204,0.727-10.813,1.016
		c-7.31,0.585-14.623,1.114-21.933,1.705c-29.289,2.366-58.562,4.945-87.908,6.523c-24.888,1.338-49.834,1.891-74.745,0.903
		c-12.073-0.479-24.127-1.409-36.128-2.81c-1.123-0.134-2.245-0.272-3.366-0.415c-0.041-0.005-0.073-0.009-0.112-0.014
		c-0.283-0.043-0.726-0.108-1.392-0.204c-2.762-0.396-5.517-0.844-8.269-1.306c-5.969-1.002-11.9-2.208-17.801-3.553
		c-10.354-2.358-21.076,3.037-23.987,13.62c-2.722,9.896,3.256,21.626,13.62,23.987c28.826,6.566,58.221,9.399,87.732,10.089
		c-0.023,0.369-0.038,0.739-0.038,1.11c0,11.065,8.89,18.925,19.5,19.5c32.309,1.752,64.686,1.423,96.944-1.11
		c31.577-2.479,63.762-6.276,94.342-14.775c28.164-7.828,55.008-19.871,81.623-31.789c6.121-2.741,12.24-5.487,18.376-8.196
		c3.071-1.356,6.15-2.695,9.233-4.024c0.274-0.118,1.815-0.772,2.628-1.119c1.704-0.712,3.411-1.42,5.12-2.119
		c13.094-5.361,26.405-10.181,39.982-14.17c1.65-0.485,3.31-0.943,4.969-1.4c3.625-1,6.728-3.026,9.119-5.664
		c11.861-3.45,23.804-6.628,35.886-9.337C4203.573,567.815,4209.535,556.021,4206.82,546.153z"/>
	<path clip-path="url(#SVGID_2_)" fill="#6E6E6E" d="M3590.957,585.842c-19.184-1.923-38.354-3.978-57.519-6.078
		c-8.64-2.346-17.538-2.918-26.489-2.923c-5.474-0.003-10.469,2.361-14.038,6.095c-16.682-15.119-33.286-32.904-55.786-38.401
		c-10.317-2.521-21.109,3.156-23.987,13.62c-2.755,10.018,3.297,21.465,13.62,23.987c1.238,0.303,2.454,0.648,3.667,1.041
		c0.275,0.089,0.66,0.235,1.061,0.396c2.046,0.987,4.021,2.121,5.954,3.307c1.791,1.098,3.521,2.293,5.222,3.528
		c0.659,0.505,1.686,1.29,2.128,1.65c1.437,1.169,2.843,2.376,4.244,3.588c8.982,7.769,17.282,16.32,26.61,23.688
		c10.342,8.168,22.071,15.885,35.871,15.395c11.99-0.425,21.64-6.611,29.013-15.197c16.804,1.829,33.611,3.619,50.43,5.305
		c10.596,1.062,19.5-9.674,19.5-19.5C3610.457,593.91,3601.529,586.901,3590.957,585.842z"/>
	<path clip-path="url(#SVGID_2_)" fill="#6E6E6E" d="M1856.783,534.837c-23.227,0.106-46.273,3.884-69.033,8.229
		c-10.619,2.027-21.212,4.187-31.855,6.082c-4.766,0.85-9.547,1.605-14.338,2.296c0.042-0.032-4.436,0.538-5.034,0.604
		c-2.912,0.324-5.831,0.57-8.752,0.79c-7.107,0.536-13.438,4.083-16.847,9.743c-8.124,0.514-16.227,1.397-24.341,2.954
		c-10.446,2.004-16.267,14.361-13.619,23.987c2.983,10.846,13.558,15.621,23.987,13.62c1.502-0.289,3.009-0.544,4.516-0.796
		c0.171,0.007,3.616-0.479,3.799-0.498c4.367-0.462,8.759-0.673,13.146-0.83c7.893-0.284,15.797-0.156,23.692-0.196
		c16.042-0.081,32.062-1.542,47.581-5.769c11.228-3.059,21.812-7.987,32.598-12.269c5.604-2.225,11.305-4.17,17.121-5.764
		c2.965-0.812,5.971-1.461,8.986-2.052c1.336-0.263,2.681-0.479,4.026-0.69c-2.899,0.476,3.587-0.373,4.367-0.443
		c10.583-0.95,19.5-8.151,19.5-19.5C1876.283,543.744,1867.414,534.788,1856.783,534.837z"/>
</g>
</svg>
