<?xml version="1.0" encoding="utf-8"?>
<!-- Generator: Adobe Illustrator 16.0.0, SVG Export Plug-In . SVG Version: 6.00 Build 0)  -->
<!DOCTYPE svg PUBLIC "-//W3C//DTD SVG 1.1//EN" "http://www.w3.org/Graphics/SVG/1.1/DTD/svg11.dtd">
<svg version="1.1" id="Layer_1" xmlns="http://www.w3.org/2000/svg" xmlns:xlink="http://www.w3.org/1999/xlink" x="0px" y="0px"
	 width="4435px" height="768px" viewBox="0 0 4435 768" enable-background="new 0 0 4435 768" xml:space="preserve">
<symbol  id="New_Symbol_2" viewBox="-36 -36 72 72">
	<polygon fill="#FFAD3F" points="-36,36 36,36 36,-36 -36,-36 	"/>
	<path fill="#FFAD3F" d="M36-31.023C36-33.783,33.399-36,30.638-36h-62.134C-34.257-36-36-33.783-36-31.023v62.136
		C-36,33.873-34.257,36-31.496,36h62.134C33.399,36,36,33.873,36,31.112V-31.023z"/>
	<g>
		<defs>
			<path id="SVGID_1_" d="M36-31.023C36-33.783,33.399-36,30.638-36h-62.134C-34.257-36-36-33.783-36-31.023v62.136
				C-36,33.873-34.257,36-31.496,36h62.134C33.399,36,36,33.873,36,31.112V-31.023z"/>
		</defs>
		<clipPath id="SVGID_2_">
			<use xlink:href="#SVGID_1_"  overflow="visible"/>
		</clipPath>
	</g>
	<path fill="#B87C2E" d="M36,22.11v9.002C36,33.873,33.399,36,30.638,36h-62.134C-34.257,36-36,33.873-36,31.112V20.109
		c1.423,1.183,2.342,2.868,4.953,2.868c4.02,0,4.02-4,8.039-4s4.02,4,8.039,4s4.02-4,8.039-4s4.02,4,8.039,4
		c4.018,0,4.018-4,8.035-4c4.02,0,4.02,4,8.039,4c4.018,0,4.018-4,8.035-4s4.018,4,8.036,4C34.46,22.978,35.301,22.614,36,22.11z"/>
	<polygon fill="#B87C2E" points="36,36 -36,36 -36,27 36,27 	"/>
	<polygon display="none" fill="none" points="-36,36 36,36 36,-36 -36,-36 	"/>
</symbol>
<g>
	<polygon fill="#A9A9A9" points="877.499,572.382 876.329,600.875 880.354,600.826 	"/>
	<polygon fill="#A9A9A9" points="889.96,562.972 888.409,600.728 892.438,600.678 	"/>
	<polygon fill="#A9A9A9" points="873.438,573.273 872.301,600.924 876.329,600.875 	"/>
	<polygon fill="#A9A9A9" points="885.933,563.021 884.383,600.776 888.409,600.728 	"/>
	<polygon fill="#A9A9A9" points="882.281,568.786 880.354,600.826 884.383,600.776 	"/>
	<polygon fill="#A9A9A9" points="869.194,568.363 868.275,600.974 872.301,600.924 	"/>
	<polygon fill="#A9A9A9" points="842.591,569.194 848.152,601.221 852.178,601.17 	"/>
	<polygon fill="#A9A9A9" points="849.149,571.093 851.737,601.267 855.761,601.218 	"/>
	<polygon fill="#A9A9A9" points="853.757,567.58 856.2,601.121 860.223,601.072 	"/>
	<polygon fill="#A9A9A9" points="861.394,572.578 860.223,601.072 864.251,601.023 	"/>
	<polygon fill="#A9A9A9" points="865.802,563.268 864.251,601.023 868.275,600.974 	"/>
	<polygon fill="#A9A9A9" points="905.871,580.274 904.518,600.53 908.544,600.481 	"/>
	<polygon fill="#A9A9A9" points="930.455,565.648 928.905,603.404 932.724,600.184 	"/>
	<polygon fill="#A9A9A9" points="926.217,562.527 924.662,600.283 928.697,600.234 	"/>
	<polygon fill="#A9A9A9" points="895.735,567.562 892.438,600.678 896.466,600.629 	"/>
	<polygon fill="#A9A9A9" points="933.643,567.505 932.724,600.184 936.761,600.135 	"/>
	<polygon fill="#A9A9A9" points="939.072,573.822 936.761,600.135 940.803,600.085 	"/>
	<polygon fill="#A9A9A9" points="922.246,570.84 920.63,600.332 924.662,600.283 	"/>
	<polygon fill="#A9A9A9" points="898.75,570.226 896.466,600.629 900.495,600.578 	"/>
	<polygon fill="#A9A9A9" points="902.042,562.823 900.495,600.578 904.518,600.53 	"/>
	<polygon fill="#A9A9A9" points="917.531,577.715 916.6,600.382 920.63,600.332 	"/>
	<polygon fill="#A9A9A9" points="913.589,575.66 912.57,600.431 916.6,600.382 	"/>
	<polygon fill="#A9A9A9" points="910.419,567.665 908.544,600.481 912.57,600.431 	"/>
</g>
<path fill="#B3B3B3" d="M780.264,558.63c-7.633,5.514-16.112,7.224-24.542,8.571c0.052-1.958,0.119-3.915,0.195-5.873
	c7.101-1.348,14.096-4.554,20.682-8.355c3.013-1.739,1.695-8.704-1.363-6.938c-6.016,3.474-12.485,6.647-18.995,8.02
	c0.091-1.855,0.188-3.713,0.289-5.568c5.33-0.973,10.326-4.083,15.453-6.307c3.15-1.365,1.807-8.312-1.362-6.938
	c-4.511,1.954-8.999,4.854-13.693,5.929c0.124-2.273,0.245-4.547,0.36-6.821c2.581-0.18,5.096-0.933,7.518-2.244
	c1.303-0.704,2.189-2.392,1.791-4.425c-0.344-1.749-1.85-3.22-3.154-2.513c-1.907,1.031-3.818,1.717-5.824,1.943
	c0.076-1.894,0.156-3.787,0.211-5.681c0.052,0.003,0.172,0.01,0.172,0.01c3,0,3-7.195,0-7.195l-0.033,0.002
	c0.007-0.721,0.008-1.44,0.011-2.16c0.011-4.641-5.12-4.641-5.132,0c-0.002,1.229-0.018,2.461-0.034,3.691
	c-0.966-0.48-1.958-0.783-3.046-0.813c-1.397-0.039-2.563,1.666-2.563,3.598c0,1.99,1.166,3.56,2.563,3.599
	c0.031,0,0.467,0.047,0.516,0.034c0.23,0.062,0.462,0.146,0.687,0.239c0.126,0.057,0.252,0.118,0.376,0.185
	c0.242,0.153,0.479,0.322,0.717,0.489c0.183,0.129,0.373,0.221,0.564,0.295c-0.051,1.501-0.106,3.003-0.169,4.506
	c-2.724-0.656-5.438-1.378-8.163-2.022c-3.233-0.765-4.619,6.169-1.363,6.938c2.91,0.689,5.808,1.471,8.718,2.159
	c0.164,0.038,0.322,0.053,0.477,0.054c-0.083,1.633-0.169,3.264-0.257,4.896c-4.508-1.018-8.835-3.277-13.383-4.102
	c-3.274-0.593-3.232,6.61,0,7.196c4.407,0.798,8.615,2.958,12.996,4.016c-0.09,1.634-0.178,3.268-0.262,4.9
	c-5.296-2.491-10.041-6.535-15.812-6.758c-3.31-0.126-3.3,7.069,0,7.196c5.542,0.213,10.276,4.741,15.464,6.952
	c-0.066,1.594-0.13,3.188-0.183,4.781c-5.372-3.889-11.254-6.648-17.163-8.007c-3.234-0.744-4.621,6.19-1.363,6.938
	c6.41,1.474,12.696,4.576,18.336,9.127c-0.102,8.036,0.084,16.07,0.806,24.103c0.407,4.54,5.54,4.596,5.128,0
	c-0.654-7.285-0.867-14.573-0.826-21.861c9.396-1.502,18.722-3.414,27.246-9.572C785.792,562.719,783.197,556.51,780.264,558.63z"/>
<path fill="#B3B3B3" d="M132.975,576.037c-1.943-4.816-5.041-8.356-10.682-9.364c-3.667-0.656-7.408,0.875-10.599,3.074
	c-1.427-1.894-3.296-3.432-5.806-4.542c-1.25-0.552-2.59-0.855-3.965-0.957c-4.92-2.666-10.119,0.291-14.104,4.496
	c-0.727-1.333-2.426-2.288-3.854-2.378c-0.083-0.006-0.167-0.008-0.252-0.012c-1.937-4.766-6.815-4.943-11.983-3.272
	c-6.039,1.953-8.286,7.591-8.114,13.235c-1.697,0.244-3.389,0.558-5.073,0.97c-4.188,1.024-5.6,6.287-2.017,8.992
	c4.075,3.079,8.221,3.356,12.446,2.737c0.276,0.075,0.562,0.138,0.869,0.164c3.938,0.338,7.884,0.55,11.833,0.626
	c1.29,0.132,2.582,0.268,3.872,0.402c7.37,0.772,14.739,1.562,22.146,1.899c9.668,0.439,26.446,1.354,29.146-10.891
	C137.436,578.506,135.348,576.579,132.975,576.037z"/>
<g>
	<polygon fill="#A9A9A9" points="416.499,572.382 415.329,600.875 419.354,600.826 	"/>
	<polygon fill="#A9A9A9" points="428.96,562.972 427.409,600.728 431.438,600.678 	"/>
	<polygon fill="#A9A9A9" points="412.438,573.273 411.301,600.924 415.329,600.875 	"/>
	<polygon fill="#A9A9A9" points="424.933,563.021 423.383,600.776 427.409,600.728 	"/>
	<polygon fill="#A9A9A9" points="421.281,568.786 419.354,600.826 423.383,600.776 	"/>
	<polygon fill="#A9A9A9" points="408.194,568.363 407.275,600.974 411.301,600.924 	"/>
	<polygon fill="#A9A9A9" points="381.591,569.194 387.152,601.221 391.178,601.17 	"/>
	<polygon fill="#A9A9A9" points="388.149,571.093 390.737,601.267 394.761,601.218 	"/>
	<polygon fill="#A9A9A9" points="392.757,567.58 395.2,601.121 399.223,601.072 	"/>
	<polygon fill="#A9A9A9" points="400.394,572.578 399.223,601.072 403.251,601.023 	"/>
	<polygon fill="#A9A9A9" points="404.802,563.268 403.251,601.023 407.275,600.974 	"/>
	<polygon fill="#A9A9A9" points="444.871,580.274 443.518,600.53 447.544,600.481 	"/>
	<polygon fill="#A9A9A9" points="469.455,565.648 467.905,603.404 471.724,600.184 	"/>
	<polygon fill="#A9A9A9" points="465.217,562.527 463.662,600.283 467.697,600.234 	"/>
	<polygon fill="#A9A9A9" points="434.735,567.562 431.438,600.678 435.466,600.629 	"/>
	<polygon fill="#A9A9A9" points="472.643,567.505 471.724,600.184 475.761,600.135 	"/>
	<polygon fill="#A9A9A9" points="478.072,573.822 475.761,600.135 479.803,600.085 	"/>
	<polygon fill="#A9A9A9" points="461.246,570.84 459.63,600.332 463.662,600.283 	"/>
	<polygon fill="#A9A9A9" points="437.75,570.226 435.466,600.629 439.495,600.578 	"/>
	<polygon fill="#A9A9A9" points="441.042,562.823 439.495,600.578 443.518,600.53 	"/>
	<polygon fill="#A9A9A9" points="456.531,577.715 455.6,600.382 459.63,600.332 	"/>
	<polygon fill="#A9A9A9" points="452.589,575.66 451.57,600.431 455.6,600.382 	"/>
	<polygon fill="#A9A9A9" points="449.419,567.665 447.544,600.481 451.57,600.431 	"/>
</g>
<rect y="583" fill="#808080" width="4435" height="185"/>
<g>
	<defs>
		<rect id="SVGID_3_" y="583" width="4435" height="185"/>
	</defs>
	<clipPath id="SVGID_4_">
		<use xlink:href="#SVGID_3_"  overflow="visible"/>
	</clipPath>
	<path clip-path="url(#SVGID_4_)" fill="#6E6E6E" d="M332.1,550.625c-21.182-1.846-42.523-0.897-63.717,0.272
		c-18.888,1.042-38.47,4.127-57.301,1.747c-8.275-1.045-16.943-1.777-25.045,0.783c-6.023,1.904-10.451,5.385-14.195,10.386
		c3.287-4.391-2.606,3.368-3.295,4.608c-1.354,2.436-2.129,4.752-2.58,7.27c-0.274-0.027-0.549-0.053-0.822-0.08
		c0.892,0.07-2.516-0.367-2.782-0.416c-8.569-1.574-17.22,2.227-19.682,11.175c-2.159,7.848,2.59,18.104,11.175,19.682
		c6.494,1.192,13.07,1.712,19.633,2.358c0.108,0.011,0.203,0.02,0.297,0.029c0.164,0.031,0.368,0.069,0.617,0.114
		c0.168,0.03,0.307,0.052,0.43,0.067c0.639,0.586,1.228,1.23,1.813,1.867c2.904,3.152,5.763,6.193,9.589,8.307
		c7.159,3.953,14.846,3.619,22.625,2.256c10.734-1.88,16.661-13.442,23.922-20.237c0.422-0.243,1.133-0.568,1.581-0.778
		c0.35-0.103,0.698-0.208,0.952-0.299c5.888,1.272,11.502,2.325,17.559,2.296c16.028-0.076,31.767,4.019,47.859,3.126
		c9.656-0.536,19.382-2.559,27.735-7.633c9.763-5.932,16.155-15.746,19.061-26.647C350.384,560.163,342.388,551.521,332.1,550.625z"
		/>
	<path clip-path="url(#SVGID_4_)" fill="#6E6E6E" d="M749,559c-4.398-0.335-8.734-0.104-13.125,0.23
		c-2.5,0.19-4.994,0.361-7.5,0.454c-1.25,0.034-2.5,0.024-3.75-0.027c-0.721-0.056-1.215-0.092-1.526-0.112
		c-11.486-1.623-20.75,5.32-21.784,15.914c-0.265,0.055-0.528,0.109-0.793,0.161c-0.061,0.012-0.109,0.022-0.166,0.033
		c-0.197,0.015-0.426,0.034-0.704,0.059c-3.349,0.3-6.722,0.314-10.08,0.271c-6.102-0.078-12.183-0.603-18.274-0.894
		c-3.701-0.178-7.364,0.106-11.062-0.159c-0.218-0.036-0.467-0.076-0.777-0.126c-1.544-0.265-3.08-0.58-4.618-0.875
		c-4.157-0.799-8.36-1.38-12.573-1.793c-12.022-1.178-21.351,5.07-32.467,7.561c-0.232,0.013-0.509,0.031-0.882,0.059
		c-1.421,0.069-2.845-0.059-4.258-0.185c4.959,0.44-1.922-0.736-3.178-1.118c-4.737-1.44-9.261-3.542-13.923-5.198
		c-11.418-4.059-23.247-3.365-35.082-2.201c-6.056,0.595-12.095,1.206-18.182,1.334c-2.772,0.059-5.536-0.099-8.294-0.355
		c2.166,0.164-2.741-0.651-2.963-0.704c-1.793-0.424-3.526-1.054-5.253-1.685c-9.225-3.369-19.701,3.696-22.143,12.572
		c-2.763,10.045,3.365,18.778,12.572,22.143c13.681,4.997,28.205,4.297,42.432,2.878c6.592-0.657,13.204-1.35,19.838-1.202
		c0.313,0.026,0.561,0.045,0.773,0.061c0.941,0.194,1.878,0.417,2.808,0.654c2.641,0.674,5.204,1.659,7.745,2.634
		c4.632,1.776,9.175,3.678,14.008,4.856c7.688,1.874,14.67,1.564,22.396,0.429c5.736-0.844,10.999-3.666,16.395-5.622
		c1.222-0.443,2.473-0.768,3.734-1.061c-2.782,0.668,1.475,0.033,2.306,0.051c0.411,0.009,2.71,0.303,3.149,0.335
		c1.002,0.183,2.004,0.375,3.003,0.567c9.853,1.893,19.402,1.816,29.308,2.421c7.513,0.458,15.034,0.901,22.558,0.429
		c8.562-0.538,18.321-1.953,25.527-7.041c3.813-2.692,6.718-5.823,8.813-9.294c5.349-0.333,10.62-0.861,15.992-0.452
		c9.796,0.746,18-8.753,18-18C767,566.624,758.779,559.745,749,559z"/>
</g>
<g>
	<g>
		<path fill="#FFAD90" d="M2047,561.959c0,14.935-12.106,27.041-27.041,27.041h-24.918c-14.935,0-27.041-12.106-27.041-27.041
			v-24.918c0-14.935,12.106-27.041,27.041-27.041h24.918c14.935,0,27.041,12.106,27.041,27.041V561.959z"/>
		<path fill="#D68989" d="M2019.769,513c13.553,0,24.231,10.679,24.231,24.231v24.542c0,13.553-10.679,24.227-24.231,24.227h-24.542
			c-13.553,0-24.227-10.674-24.227-24.227v-24.542c0-13.553,10.674-24.231,24.227-24.231H2020 M2019.769,508h-24.542
			c-16.289,0-29.227,12.942-29.227,29.231v24.542c0,16.289,12.938,29.227,29.227,29.227h24.542
			c16.288,0,29.231-12.938,29.231-29.227v-24.542C2049,520.942,2036.057,508,2019.769,508L2019.769,508z"/>
	</g>
	<g>
		<circle fill="#FFBBBD" cx="2023.634" cy="564.726" r="6.601"/>
		<circle fill="#FFBBBD" cx="1981.755" cy="564.726" r="6.601"/>
		<circle fill="#FFFFFF" cx="2017.612" cy="542.27" r="8.679"/>
		<path fill="#592121" d="M2025.161,537.998c-1.491-2.629-4.311-4.407-7.55-4.407s-6.059,1.778-7.551,4.407
			c0,0,1.912-1.191,7.053-1.191C2022.256,536.807,2025.161,537.998,2025.161,537.998z"/>
		<circle fill="#FFFFFF" cx="1988.957" cy="542.27" r="8.679"/>
		<circle cx="2015.479" cy="543.302" r="3.826"/>
		<circle cx="1986.58" cy="543.302" r="3.825"/>
		<path fill="#592121" d="M1989.213,529.013c2.173,0,4.217,0.387,6.007,1.067c-1.798-1.418-4.396-2.307-7.285-2.307
			c-4.743,0-8.697,2.396-9.626,5.583C1980.566,530.75,1984.604,529.013,1989.213,529.013z"/>
		<path fill="#592121" d="M2016.11,528.734c-1.807,0.211-3.394,0.731-4.688,1.473c1.089-1.354,2.991-2.348,5.392-2.628
			c3.939-0.462,7.912,1.145,9.597,3.702C2023.788,529.338,2019.937,528.284,2016.11,528.734z"/>
		<path fill="#823030" d="M2003.032,563.27c5.739-1.106,9.395-7.165,10.416-1.886c1.02,5.287-2.809,10.468-8.549,11.574
			c-5.74,1.108-11.222-2.278-12.24-7.564C1991.64,560.112,1997.291,564.38,2003.032,563.27z"/>
		<path fill="#592121" d="M1996.508,537.998c-1.491-2.629-4.312-4.407-7.551-4.407s-6.06,1.778-7.551,4.407
			c0,0,2.66-1.099,7.429-1.099C1993.602,536.899,1996.508,537.998,1996.508,537.998z"/>
		<g>
			<g>
				<path fill="#5E1B00" d="M1984.111,536.655c-1.504,0-2.728-1.417-2.728-3.161c0-0.416,0.069-0.821,0.206-1.211
					c0.055-0.16,0.23-0.244,0.391-0.188c0.161,0.055,0.246,0.231,0.188,0.392c-0.112,0.322-0.169,0.662-0.169,1.008
					c0,1.403,0.947,2.546,2.111,2.546c0.169,0,0.308,0.138,0.308,0.309C1984.419,536.518,1984.28,536.655,1984.111,536.655z"/>
			</g>
			<g>
				<path fill="#5E1B00" d="M1986.101,536.655c-1.505,0-2.728-1.417-2.728-3.161c0-0.416,0.07-0.823,0.205-1.211
					c0.058-0.16,0.23-0.245,0.391-0.188c0.162,0.055,0.246,0.231,0.188,0.392c-0.111,0.322-0.169,0.659-0.169,1.008
					c0,1.403,0.947,2.546,2.112,2.546c0.169,0,0.307,0.138,0.307,0.309C1986.407,536.518,1986.27,536.655,1986.101,536.655z"/>
			</g>
			<g>
				<path fill="#5E1B00" d="M1988.089,536.655c-1.505,0-2.728-1.417-2.728-3.161c0-0.419,0.07-0.826,0.206-1.213
					c0.058-0.16,0.231-0.242,0.394-0.187c0.159,0.056,0.243,0.232,0.187,0.392c-0.114,0.321-0.171,0.659-0.171,1.008
					c0,1.403,0.947,2.546,2.112,2.546c0.168,0,0.306,0.138,0.306,0.309C1988.395,536.518,1988.257,536.655,1988.089,536.655z"/>
			</g>
			<g>
				<path fill="#5E1B00" d="M1990.076,536.655c-1.504,0-2.728-1.417-2.728-3.161c0-0.42,0.07-0.828,0.21-1.213
					c0.057-0.16,0.232-0.242,0.392-0.187c0.16,0.058,0.242,0.233,0.186,0.392c-0.112,0.32-0.171,0.658-0.171,1.008
					c0,1.403,0.947,2.546,2.111,2.546c0.169,0,0.307,0.138,0.307,0.309C1990.383,536.518,1990.245,536.655,1990.076,536.655z"/>
			</g>
			<g>
				<path fill="#5E1B00" d="M1992.064,536.655c-1.502,0-2.728-1.417-2.728-3.161c0-0.421,0.07-0.83,0.209-1.213
					c0.057-0.16,0.233-0.242,0.395-0.187c0.158,0.058,0.242,0.233,0.185,0.394c-0.114,0.316-0.172,0.656-0.172,1.006
					c0,1.403,0.947,2.546,2.111,2.546c0.169,0,0.308,0.138,0.308,0.309C1992.372,536.518,1992.233,536.655,1992.064,536.655z"/>
			</g>
		</g>
		<g>
			<g>
				<path fill="#5E1B00" d="M2013.373,535.552c-1.392,0-2.523-1.315-2.523-2.933c0-0.392,0.063-0.769,0.19-1.125
					c0.056-0.159,0.233-0.243,0.392-0.186c0.161,0.057,0.244,0.232,0.188,0.394c-0.104,0.289-0.155,0.597-0.155,0.917
					c0,1.279,0.856,2.319,1.909,2.319c0.169,0,0.307,0.138,0.307,0.308C2013.68,535.415,2013.542,535.552,2013.373,535.552z"/>
			</g>
			<g>
				<path fill="#5E1B00" d="M2015.191,535.552c-1.392,0-2.522-1.315-2.522-2.933c0-0.389,0.063-0.768,0.189-1.124
					c0.059-0.159,0.232-0.241,0.394-0.187c0.16,0.056,0.243,0.232,0.188,0.393c-0.103,0.29-0.156,0.599-0.156,0.918
					c0,1.279,0.857,2.319,1.908,2.319c0.17,0,0.309,0.138,0.309,0.308C2015.5,535.415,2015.361,535.552,2015.191,535.552z"/>
			</g>
			<g>
				<path fill="#5E1B00" d="M2017.012,535.552c-1.392,0-2.522-1.315-2.522-2.933c0-0.389,0.062-0.768,0.188-1.124
					c0.059-0.159,0.234-0.241,0.394-0.187c0.161,0.056,0.243,0.232,0.188,0.393c-0.103,0.29-0.156,0.599-0.156,0.918
					c0,1.279,0.857,2.319,1.909,2.319c0.169,0,0.308,0.138,0.308,0.308C2017.319,535.415,2017.181,535.552,2017.012,535.552z"/>
			</g>
			<g>
				<path fill="#5E1B00" d="M2018.83,535.552c-1.39,0-2.521-1.315-2.521-2.933c0-0.389,0.063-0.768,0.189-1.124
					c0.059-0.159,0.233-0.241,0.395-0.187c0.159,0.056,0.242,0.232,0.186,0.393c-0.102,0.29-0.154,0.599-0.154,0.918
					c0,1.279,0.855,2.319,1.906,2.319c0.17,0,0.309,0.138,0.309,0.308C2019.139,535.415,2019,535.552,2018.83,535.552z"/>
			</g>
			<g>
				<path fill="#5E1B00" d="M2020.65,535.552c-1.391,0-2.521-1.315-2.521-2.933c0-0.387,0.062-0.766,0.19-1.123
					c0.056-0.16,0.232-0.244,0.391-0.188c0.161,0.056,0.245,0.231,0.188,0.393c-0.103,0.291-0.156,0.602-0.156,0.918
					c0,1.279,0.856,2.319,1.908,2.319c0.17,0,0.308,0.138,0.308,0.308C2020.958,535.415,2020.82,535.552,2020.65,535.552z"/>
			</g>
		</g>
	</g>
	<g>
		<defs>
			<path id="SVGID_5_" d="M2044,562.459c0,13.554-10.987,24.541-24.541,24.541h-24.918c-13.554,0-24.541-10.987-24.541-24.541
				v-24.918c0-13.554,10.987-24.541,24.541-24.541h24.918c13.554,0,24.541,10.987,24.541,24.541V562.459z"/>
		</defs>
		<clipPath id="SVGID_6_">
			<use xlink:href="#SVGID_5_"  overflow="visible"/>
		</clipPath>
		<ellipse clip-path="url(#SVGID_6_)" fill="#DB8686" cx="2009.545" cy="513.484" rx="34.591" ry="12.51"/>
		<ellipse clip-path="url(#SVGID_6_)" fill="#DB8686" cx="2049.433" cy="540.106" rx="17.396" ry="30.32"/>
	</g>
	<g>
		<g>
			<polygon fill="#BA5555" points="2034.218,520.104 2020.955,517.736 2031.771,504.576 2037.063,517.143 			"/>
			<polygon fill="#BA5555" points="2039.117,518.759 2051.064,521.645 2042.931,531.292 2036.954,521.145 			"/>
		</g>
		<circle fill="#BA5555" cx="2037.965" cy="519.845" r="4.002"/>
	</g>
</g>
<g>
	<g>
		<path fill="#9BB526" d="M3450.573,561.329c-1.217,0-2.406-0.241-3.535-0.717c-1.873-0.789-3.38-2.14-4.354-3.832
			c-1.548,1.021-3.382,1.588-5.277,1.588c-1.274,0-2.521-0.253-3.702-0.75c-1.558-0.657-2.885-1.696-3.882-2.991
			c-1.686,1.878-4.112,3.004-6.729,3.004c-1.171,0-2.312-0.231-3.393-0.686c-3.735-1.577-5.909-5.197-5.454-9.049
			c0.005-0.1,0.018-0.199,0.038-0.298l0.037-0.186c0.1-0.674,0.32-1.651,0.651-2.436c0.056-0.135,0.123-0.276,0.194-0.419
			c7.938-27.068-5.669-55.712-31.706-66.684c-0.982-0.413-2.039-0.814-3.325-1.263c-0.759-0.265-1.286-0.958-1.338-1.76
			c-0.052-0.803,0.382-1.558,1.102-1.918c8.268-4.136,17.497-6.321,26.691-6.321c7.93,0,15.685,1.573,23.05,4.678
			c14.417,6.075,24.98,17.118,30.547,31.936c5.147,13.699,5.598,29.946,1.268,45.75c-0.724,2.637-1.972,5.984-2.84,7.621
			c-0.076,0.144-0.168,0.275-0.272,0.394C3456.691,559.678,3453.753,561.329,3450.573,561.329z"/>
		<path fill="#829620" d="M3406.592,468.613c7.435,0,14.992,1.451,22.273,4.521c29.264,12.331,39.053,44.687,30.662,75.314
			c-0.674,2.453-1.873,5.695-2.678,7.213l-0.043-0.004c-1.274,2.307-3.696,3.672-6.233,3.672c-0.921,0-1.857-0.18-2.759-0.56
			c-2.381-1.004-3.922-3.147-4.273-5.528c-1.436,1.978-3.736,3.127-6.134,3.127c-0.977,0-1.97-0.191-2.927-0.594
			c-2.4-1.013-4.01-3.104-4.486-5.477l-0.074,0.019c-0.08,0.3-0.184,0.662-0.312,0.957c-1.129,2.685-3.762,4.357-6.514,4.357
			c-0.875,0-1.763-0.17-2.617-0.529c-2.957-1.248-4.641-4.102-4.227-7.102h-0.006c0,0,0.051-0.248,0.051-0.254
			c0.084-0.59,0.279-1.417,0.521-1.991c0.064-0.156,0.143-0.307,0.219-0.458c8.223-27.719-5.531-57.775-32.797-69.265
			c-1.141-0.48-2.291-0.907-3.443-1.309C3388.742,470.748,3397.577,468.613,3406.592,468.613 M3406.592,464.613
			c-9.503,0-19.043,2.259-27.586,6.533c-1.438,0.719-2.307,2.229-2.203,3.834c0.104,1.605,1.158,2.992,2.677,3.521
			c1.245,0.434,2.264,0.82,3.206,1.218c25.046,10.554,38.159,38.073,30.609,64.117c-0.062,0.13-0.121,0.261-0.176,0.394
			c-0.466,1.104-0.689,2.338-0.767,2.835l-0.027,0.133c-0.036,0.175-0.06,0.351-0.071,0.526c-0.531,4.723,2.121,9.145,6.667,11.063
			c1.332,0.56,2.734,0.844,4.173,0.844c2.439,0,4.744-0.801,6.615-2.203c0.939,0.838,2.022,1.528,3.217,2.032
			c1.433,0.603,2.939,0.908,4.481,0.908c1.625,0,3.212-0.345,4.665-0.985c1.109,1.315,2.531,2.374,4.188,3.072
			c1.377,0.58,2.828,0.874,4.313,0.874c3.831,0,7.376-1.968,9.402-5.176c0.154-0.191,0.291-0.397,0.408-0.618
			c1.072-2.023,2.347-5.646,3.001-8.027c4.44-16.209,3.97-32.895-1.324-46.985c-5.764-15.344-16.706-26.781-31.643-33.075
			C3422.807,466.239,3414.79,464.613,3406.592,464.613L3406.592,464.613z"/>
	</g>
	<g>
		<path fill="#9BB526" d="M3070.57,573.998c-2.044,0-4.024-0.685-5.623-1.936c-0.137-0.071-0.267-0.16-0.385-0.266
			c-1.393-1.24-3.729-3.944-5.317-6.156c-9.564-13.304-14.804-28.69-14.753-43.324c0.055-15.829,6.107-29.861,17.505-40.578
			c11.068-10.409,25.535-16.141,40.736-16.141c2.149,0,4.323,0.117,6.46,0.349c0.799,0.087,1.468,0.643,1.699,1.412
			s-0.02,1.603-0.638,2.115c-1.049,0.87-1.9,1.616-2.678,2.348c-20.581,19.353-23.355,50.94-6.487,73.549
			c0.12,0.112,0.232,0.221,0.34,0.336c0.387,0.41,0.964,1.119,1.386,1.831l0.021,0.022c0.149,0.161,0.271,0.343,0.359,0.539
			c1.79,3.448,0.999,7.627-1.99,10.438c-1.639,1.539-3.798,2.387-6.081,2.387c-1.49,0-2.949-0.366-4.247-1.043
			c-0.48,1.574-1.368,3.023-2.607,4.188c-1.777,1.671-4.101,2.591-6.543,2.591c-0.735,0-1.462-0.083-2.167-0.245
			c-0.323,1.925-1.267,3.716-2.747,5.108C3075.117,573.119,3072.9,573.998,3070.57,573.998z"/>
		<path fill="#829620" d="M3102.733,467.598c2.086-0.001,4.169,0.112,6.244,0.337c-0.939,0.779-1.868,1.581-2.771,2.43
			c-21.555,20.269-23.973,53.232-6.607,76.353c0.124,0.113,0.249,0.227,0.365,0.352c0.427,0.452,0.944,1.135,1.228,1.66
			c0.003,0.004,0.183,0.196,0.183,0.196l-0.003,0.002c1.473,2.731,0.803,5.953-1.536,8.153c-1.318,1.239-3.013,1.844-4.711,1.844
			c-1.904,0-3.813-0.761-5.205-2.238c-0.221-0.236-0.456-0.527-0.639-0.784l-0.082,0.012c0.382,2.393-0.399,4.914-2.299,6.699
			c-1.458,1.371-3.317,2.048-5.173,2.048c-1.471,0-2.938-0.424-4.203-1.266c0.501,2.354-0.2,4.903-2.081,6.672
			c-1.373,1.292-3.125,1.932-4.873,1.932c-1.659,0-3.314-0.575-4.641-1.716l-0.037,0.021c-1.282-1.143-3.539-3.765-5.023-5.83
			c-18.535-25.784-20.636-59.524,2.498-81.278C3074.464,472.76,3088.614,467.598,3102.733,467.598 M3103,463.598v4V464h-0.134
			c-15.713,0-30.733,5.724-42.173,16.482c-11.807,11.103-18.111,25.535-18.168,41.928c-0.052,15.052,5.305,30.805,15.112,44.449
			c1.689,2.35,4.093,5.111,5.603,6.456c0.195,0.175,0.401,0.314,0.621,0.445c1.924,1.455,4.279,2.243,6.711,2.243
			c2.841,0,5.544-1.075,7.613-3.021c1.31-1.231,2.273-2.72,2.855-4.34c0.229,0.014,0.457,0.019,0.687,0.019
			c2.953,0,5.764-1.113,7.913-3.135c0.954-0.897,1.736-1.934,2.328-3.06c1.018,0.3,2.08,0.457,3.156,0.457
			c2.794,0,5.439-1.04,7.45-2.929c3.646-3.429,4.6-8.546,2.409-12.793c-0.146-0.307-0.332-0.596-0.555-0.859
			c-0.49-0.789-1.1-1.536-1.556-2.021c-0.087-0.094-0.183-0.189-0.283-0.285c-16.147-21.783-13.441-52.143,6.356-70.759
			c0.747-0.702,1.568-1.422,2.584-2.265c1.236-1.026,1.74-2.692,1.276-4.231c-0.463-1.539-1.669-2.651-3.267-2.824
			C3107.332,463.719,3105,463.598,3103,463.598L3103,463.598z"/>
	</g>
	<path fill="#9BB526" stroke="#829620" stroke-width="8" stroke-miterlimit="10" d="M3430.438,441.549
		c-0.684,22.451-18.938,28.412-18.938,28.412s13.994,10.964,8.125,33.169s-27.546,20.186-27.546,20.186s10.151,15.198-3.753,33.942
		s-32.783,9.565-32.783,9.565s4.109,20.099-15.09,30.638s-34.075-2.205-34.075-2.205s-3.753,18.439-24.688,23.592
		s-31.256-13.775-31.256-13.775s-9.832,17.123-31.256,13.775s-24.688-23.592-24.688-23.592s-17.421,12.662-34.078,2.203
		s-15.088-30.637-15.088-30.637s-20.571,7.361-32.784-9.566s-3.752-33.941-3.752-33.941s-20.062-0.392-27.547-20.186
		s8.127-33.168,8.127-33.168s-17.262-6.863-18.938-28.412s18.938-28.412,18.938-28.412s-14.639-12.202-8.126-33.17
		c6.513-20.967,27.548-20.186,27.548-20.186s-8.461-18.601,3.752-33.941c12.213-15.34,32.785-9.564,32.785-9.564
		s-0.752-21,15.088-30.638s34.077,2.204,34.077,2.204s6.112-20.341,24.688-23.592c18.575-3.25,31.255,13.775,31.255,13.775
		s12.691-15.524,31.256-13.775c18.564,1.75,24.688,23.592,24.688,23.592s18.276-12.065,34.075-2.203
		c15.801,9.861,15.09,30.637,15.09,30.637s19.854-4.594,32.782,9.565s3.755,33.942,3.755,33.942s20.916-0.348,27.545,20.185
		s-8.125,33.168-8.125,33.168S3431.121,419.098,3430.438,441.549z"/>
	<g>
		<path fill="#A2BD28" d="M3233.637,584.865c-1.744,0-3.54-0.209-5.338-0.622c-13.335-3.062-18.686-13.029-20.416-17.351
			c-2.589,1.683-7.898,4.463-14.704,4.463c-4.182,0-8.298-1.062-12.233-3.158c-12.244-6.517-13.464-18.489-13.414-23.392
			c-1.325,0.272-3.21,0.542-5.465,0.542c-5.222,0-12.953-1.47-20.13-8.474c-10.166-9.92-6.791-21.827-4.817-26.579
			c-4.748-0.578-15.512-3.33-21.274-16.271c-5.886-13.221,1.336-23.07,4.723-26.701c-4.201-2.458-13.881-9.504-14.499-22.495
			c-0.639-13.339,9.579-20.868,13.72-23.358c-2.965-3.751-9.894-14.212-6.133-26.189c3.8-12.108,16.136-16.086,20.855-17.185
			c-1.595-4.509-4.783-16.799,3.268-26.806c6.113-7.599,14.94-9.194,21.268-9.194c1.745,0,3.221,0.125,4.28,0.253
			c0.229-4.566,1.827-16.664,12.025-24.037c3.541-2.561,7.658-3.859,12.237-3.859c6.443,0,12.151,2.561,14.863,4.009
			c1.698-4.601,7.21-16.35,19.774-18.403c1.284-0.21,2.591-0.316,3.885-0.316c10.558,0,18.403,6.88,21.318,9.875
			c2.81-3.236,10.588-10.792,21.957-10.792c0.938,0,1.892,0.053,2.834,0.158c12.825,1.426,18.65,12.636,20.543,17.322
			c2.581-1.806,7.868-4.792,14.621-4.792c4.267,0,8.446,1.205,12.426,3.581c11.854,7.081,13.304,18.326,13.335,23.178
			c1.653-0.476,4.124-0.994,7.045-0.994c5.05,0,12.389,1.6,18.674,9.221c9.132,11.075,6.456,21.937,4.697,26.423
			c4.598,0.52,14.758,3.185,21.258,16.25c6.637,13.339-0.685,22.925-4.417,26.637c4.315,2.09,13.032,8.066,14.22,22.567
			c1.118,13.646-7.149,20.872-13.23,23.555c3.552,3.693,10.396,12.979,5.626,26.105c-4.844,13.314-15.903,16.502-20.646,17.263
			c1.756,4.339,4.637,15.076-3.398,26.583c-5.771,8.269-13.604,10.004-19.16,10.004c-2.525,0-4.694-0.353-6.2-0.694
			c0.248,4.88-0.569,16.336-12.348,23.802c-4.236,2.687-8.726,4.049-13.342,4.049c-6.238,0.001-11.171-2.471-13.68-4.045
			c-1.613,4.771-6.768,16.107-19.785,18.201c-1.386,0.222-2.785,0.335-4.16,0.335c-10.663,0.001-18.035-6.568-20.939-9.694
			C3250.853,577.363,3244.269,584.865,3233.637,584.865z"/>
		<path fill="#8EA622" d="M3269.387,300.324c0.869,0,1.757,0.047,2.668,0.149c15.119,1.681,19.996,18.279,19.996,18.279
			s6.329-5.74,15.334-5.74c3.545,0,7.505,0.889,11.656,3.369c14.695,8.777,12.508,24.033,12.508,24.033s3.616-1.637,8.642-1.637
			c5.149,0,11.778,1.718,17.517,8.676c11.338,13.75,3.572,26.854,3.572,26.854s0.108-0.006,0.311-0.006
			c2.11,0,14.48,0.652,21.887,15.539c8.117,16.314-5.869,26.451-5.869,26.451s14.008,3.752,15.52,22.207
			s-14.551,22.857-14.551,22.857s12.967,9.838,7.031,26.168c-5.939,16.328-21.479,16.512-21.479,16.512s7.41,12.961-2.385,26.988
			c-5.32,7.622-12.492,9.362-17.931,9.362c-4.569,0-7.915-1.228-7.915-1.228s3.094,15.357-11.436,24.568
			c-4.47,2.834-8.753,3.815-12.539,3.815c-8.521,0-14.531-4.969-14.531-4.969s-3.764,16.666-19.172,19.144
			c-1.353,0.217-2.662,0.316-3.922,0.316c-13.103,0-21.105-10.695-21.105-10.695s-6.683,12.027-19.557,12.027
			c-1.575,0-3.242-0.18-5.002-0.584c-16.141-3.705-19.994-18.279-19.994-18.279s-6.352,5.354-15.462,5.354
			c-3.503,0-7.413-0.791-11.528-2.982c-14.822-7.889-12.508-24.033-12.508-24.033s-2.836,1.008-7.076,1.008
			c-5.144,0-12.355-1.455-19.082-8.02c-12.273-11.977-3.57-26.828-3.57-26.828s-0.031,0-0.093,0
			c-1.274,0-15.345-0.375-22.106-15.561c-7.084-15.912,5.869-26.464,5.869-26.464s-14.777-6.674-15.518-22.213
			c-0.744-15.54,14.549-22.863,14.549-22.863s-11.436-12.134-7.029-26.169c4.404-14.034,21.477-16.513,21.477-16.513
			s-6.994-15.331,2.385-26.988c5.846-7.267,14.448-8.635,20.099-8.635c3.413,0,5.749,0.499,5.749,0.499s-0.553-15.899,11.436-24.567
			c3.67-2.654,7.63-3.575,11.358-3.575c8.449,0,15.708,4.729,15.708,4.729s4.588-16.759,19.172-19.143
			c1.245-0.204,2.461-0.297,3.643-0.297c12.65,0,21.387,10.677,21.387,10.677S3255.835,300.324,3269.387,300.324 M3269.387,297.324
			c-10.725,0-18.405,6.366-22.016,10.14c-3.7-3.469-11.332-9.222-21.26-9.222c-1.374,0-2.763,0.113-4.127,0.336
			c-12.059,1.971-17.974,12.277-20.319,17.812c-3.179-1.512-8.349-3.437-14.076-3.437c-4.901,0-9.313,1.394-13.116,4.144
			c-9.68,6.999-11.99,18.014-12.525,23.611c-0.852-0.066-1.83-0.111-2.901-0.111c-6.655,0-15.95,1.692-22.437,9.754
			c-7.702,9.574-5.707,21.07-4.015,26.695c-5.73,1.615-16.722,6.159-20.371,17.786c-3.585,11.421,1.989,21.495,5.397,26.247
			c-4.916,3.312-13.663,11.042-13.051,23.822c0.582,12.226,8.748,19.456,13.65,22.718c-4.555,5.483-8.933,15.366-3.746,27.016
			c5.369,12.059,14.901,15.726,20.519,16.835c-2.405,6.884-3.082,17.72,5.896,26.48c7.539,7.355,15.678,8.899,21.178,8.899
			c1.472,0,2.8-0.111,3.936-0.265c0.312,6.996,3.48,17.213,14.239,22.938c4.153,2.212,8.507,3.334,12.938,3.334
			c6.032,0,10.966-2.078,14.02-3.802c2.408,5.082,8.247,13.778,20.766,16.651c1.907,0.438,3.815,0.66,5.673,0.66
			c10.006,0,16.632-6.223,19.869-10.246c3.662,3.529,10.875,8.914,20.793,8.914c1.453,0,2.934-0.119,4.397-0.354
			c12.407-1.995,18.073-11.859,20.334-17.497c2.913,1.568,7.438,3.36,12.894,3.36c4.904,0,9.664-1.44,14.146-4.282
			c11.206-7.104,13.065-17.406,13.114-23.243c1.33,0.211,2.904,0.369,4.63,0.369c5.913,0,14.25-1.847,20.391-10.646
			c7.505-10.748,5.936-20.904,4.185-26.267c5.637-1.238,15.412-5.207,20.038-17.925c4.174-11.482-0.065-20.849-4.543-26.191
			c6.184-3.442,13.308-10.991,12.233-24.104c-1.107-13.523-8.301-19.979-13.185-22.836c4.788-5.477,9.072-15.17,3.229-26.913
			c-6.033-12.127-15.142-15.728-20.547-16.779c1.758-5.468,3.088-15.651-5.594-26.18c-6.657-8.073-14.459-9.767-19.83-9.767
			c-2.12,0-4.024,0.261-5.583,0.59c-0.378-5.771-2.773-15.839-14.029-22.562c-4.214-2.517-8.653-3.793-13.194-3.793
			c-5.993,0-10.905,2.224-13.955,4.076c-2.582-5.534-8.797-15.235-21.043-16.597C3271.389,297.38,3270.38,297.324,3269.387,297.324
			L3269.387,297.324z"/>
	</g>
	<path fill="#A8C429" stroke="#94AB23" stroke-width="3" stroke-miterlimit="10" d="M3358.991,441.644
		c-0.413,13.542-11.423,17.138-11.423,17.138s8.44,6.612,4.9,20.006s-16.615,12.176-16.615,12.176s6.124,9.166-2.263,20.473
		c-8.388,11.306-19.774,5.77-19.774,5.77s2.479,12.123-9.102,18.479s-20.553-1.33-20.553-1.33s-2.264,11.122-14.893,14.229
		c-12.627,3.108-18.852-8.309-18.852-8.309s-5.932,10.328-18.853,8.309c-12.922-2.019-14.892-14.229-14.892-14.229
		s-10.508,7.638-20.555,1.329s-9.102-18.479-9.102-18.479s-12.407,4.439-19.773-5.771c-7.366-10.209-2.263-20.472-2.263-20.472
		s-12.102-0.236-16.615-12.175c-4.515-11.939,4.901-20.006,4.901-20.006s-10.411-4.141-11.423-17.138
		c-1.011-12.998,11.424-17.138,11.424-17.138s-8.83-7.359-4.902-20.007c3.929-12.646,16.616-12.175,16.616-12.175
		s-5.104-11.22,2.263-20.473c7.367-9.253,19.774-5.77,19.774-5.77s-0.453-12.666,9.102-18.479
		c9.554-5.813,20.554,1.329,20.554,1.329s3.688-12.269,14.892-14.229c11.203-1.961,18.852,8.309,18.852,8.309
		s7.655-9.365,18.852-8.309c11.198,1.055,14.893,14.229,14.893,14.229s11.023-7.277,20.554-1.328
		c9.529,5.947,9.101,18.479,9.101,18.479s11.977-2.771,19.773,5.77c7.797,8.541,2.264,20.473,2.264,20.473
		s12.617-0.209,16.615,12.176c3.999,12.384-4.9,20.006-4.9,20.006S3359.402,428.102,3358.991,441.644z"/>
	<path fill="none" stroke="#8CA322" stroke-width="2" stroke-linecap="round" stroke-miterlimit="10" d="M3365.147,425.537
		c0,0,11.769,2.73,11.293,15.379s-9.847,16.342-9.847,16.342s8.016,7.915,5.38,18.31c-2.635,10.395-14.86,11.97-14.86,11.97"/>
	<path fill="none" stroke="#8CA322" stroke-width="2" stroke-linecap="round" stroke-miterlimit="10" d="M3260.884,328.104
		c0,0,4.364-8.762,14.561-7.227c10.195,1.534,12.249,10.68,12.249,10.68s7.709-5.09,16.154-1.787s7.837,14.238,7.837,14.238"/>
	<path fill="none" stroke="#8CA322" stroke-width="2" stroke-linecap="round" stroke-miterlimit="10" d="M3144.902,495.619
		c0,0-11.77,0.509-14.902-9.91c-3.134-10.418,3.462-17.557,3.462-17.557s-9.064-2.836-10.593-14.422
		c-1.526-11.585,9.236-15.326,9.236-15.326"/>
	<g>
		<circle fill="#92AB25" cx="3182.79" cy="424.043" r="16.595"/>
		<circle fill="#FFFFFF" cx="3180.678" cy="419.819" r="16.594"/>
		<circle cx="3175.307" cy="426.404" r="4.214"/>
	</g>
	<g>
		<circle fill="#92AB25" cx="3315.432" cy="423.692" r="13.833"/>
		<path fill="#FFFFFF" d="M3299.839,420.171c0,7.64,6.192,13.833,13.831,13.833c7.643,0,13.834-6.193,13.834-13.833
			c0-7.641-6.191-13.833-13.834-13.833C3306.031,406.338,3299.839,412.53,3299.839,420.171z"/>
		<circle cx="3309.194" cy="425.66" r="3.513"/>
	</g>
	<path fill="#607018" d="M3220,442h60.46c0,0-3.085,50.484-30.229,36.77C3221,464,3219.002,476,3220,442z"/>
</g>
<g>
	
		<use xlink:href="#New_Symbol_2"  width="72" height="72" x="-36" y="-36" transform="matrix(1 0 0 -1 435 552)" overflow="visible"/>
	<circle fill="#FFBB62" cx="456.242" cy="568.25" r="5.989"/>
	<circle fill="#FFBB62" cx="413.242" cy="568.25" r="5.989"/>
	<circle fill="#6E4B1B" cx="453.326" cy="567.5" r="0.748"/>
	<circle fill="#6E4B1B" cx="456.326" cy="564.5" r="0.748"/>
	<circle fill="#6E4B1B" cx="413.326" cy="564.5" r="0.748"/>
	<circle fill="#6E4B1B" cx="416.326" cy="567.5" r="0.748"/>
	<circle fill="#6E4B1B" cx="417.326" cy="563.5" r="0.748"/>
	<circle fill="#6E4B1B" cx="452.326" cy="563.5" r="0.748"/>
	<circle fill="#FFFFFF" cx="448.777" cy="547.875" r="7.83"/>
	<circle fill="#FFFFFF" cx="423.777" cy="547.875" r="7.83"/>
	<circle cx="446.326" cy="551" r="2"/>
	<circle cx="420.326" cy="551" r="2"/>
	<polygon fill="#FFAD3F" points="407.253,550 434.992,550 462.231,550.361 459.443,534.867 412.578,535.334 	"/>
	<g>
		<path fill="#422E11" d="M435.137,564.415c3.943,0,5.155,1.356,5.155,1.356c1.832,2.051,2.156,1.81,0.72-0.535
			c0,0-1.229-2.007-5.513-2.007c-3.388,0-4.008,0.627-4.008,0.627c-1.934,1.956-1.68,2.255,0.564,0.665
			C432.056,564.521,432.206,564.415,435.137,564.415z"/>
	</g>
	<g>
		<path fill="#422E11" d="M425.568,537.968c2.428,0.663,2.428,0.663,2.428,0.663c2.054,1.769,2.515,1.324,1.024-0.986
			c0,0-1.009-1.564-4.24-2.445c-5.298-1.443-10.292,4.074-10.292,4.074c-1.846,2.039-1.504,2.428,0.758,0.865
			C415.247,540.139,420.418,536.566,425.568,537.968z"/>
	</g>
	<g>
		<path fill="#422E11" d="M446.518,537.997c-2.258,0.624-2.258,0.624-2.258,0.624c-1.902,1.652-2.249,1.107-0.77-1.211
			c0,0,0.742-1.163,3.743-1.992c4.926-1.363,9.377,3.503,9.377,3.503c1.856,2.029,1.518,2.42-0.753,0.868
			C455.856,539.789,451.302,536.675,446.518,537.997z"/>
	</g>
</g>
</svg>
