<svg xmlns="http://www.w3.org/2000/svg"
    xmlns:xlink="http://www.w3.org/1999/xlink">
    
    <defs>
        <clipPath id="clip">
            <path class="initial i" fill="#35C3CC" d="M1024,473H0V338c35,0,72.269,0,135.266,0c62.996,0,206.482,0,286.986,0s89.986,0,158.988,0
	s144.383,0,211.884,0c67.503,0,130.876,0,230.876,0V473z">
                <animate id="fish" class="animation" attributeType="XML" attributeName="d" 
                from="M1024,473H0V338c35,0,72.269,0,135.266,0c62.996,0,206.482,0,286.986,0s89.986,0,158.988,0
	s144.383,0,211.884,0c67.503,0,130.876,0,230.876,0V473z" 
                to="M1024,473H0V338c35,0,72.269-42,135.266-42c62.996,0,206.482,50,286.986,50s89.986,0,158.988,0
	s144.383-50,211.884-50C860.627,296,924,338,1024,338V473z" dur="1.0s" begin="0.0s" fill="freeze" />
            </path>
        </clipPath>

        </defs>

        <g class="ground" clip-path="url(#clip)">
            <rect fill="#808080" width="1024" height="490"/>
            <path fill="#6E6E6E" d="M641.992,341.637c-10.676-6.65-31.307-9.473-47.027-10.344c-13.48-0.748-27.271-0.324-40.75,0.178
                c-35.289,1.312-71.311,4.154-105.091,9.844c-13.438,2.264-29.111,5.246-40.366,10.43c-4.057-0.282-8.288,0.094-11.689,1.15
                c-8.931,2.775-10.645,8.328-6.426,12.998c5.781,6.401,15.014,10.802,25.912,14.724c3.631,1.306,6.432,2.146,8.244,3.472
                c1.576,1.153,2.25,2.211,2.99,3.545c0.182,0.331,0.318,0.525,0.414,0.635c-0.142,0.007-0.358,0.144-0.629,0.664
                c0.727-1.398-1.629,1.493-2.151,1.932c-0.343,0.285-4.175,3.025-2.581,1.936c-3.449,2.359-7.011,4.665-9.543,7.346
                c-6.691,7.086-4.959,14.62,2.797,21.246c7.298,6.233,23.555,6.024,30.936,0c6.203-5.065,10.889-10.58,16.504-15.822
                c0.173,0.178,0.346,0.354,0.519,0.527c3.12,3.111,1.606,4.864-0.28,8.178c-2.684,4.717-2.727,9-0.83,13.793
                c1.699,4.29,6.285,7.575,11.189,10.754c2.459,4.553,9.125,8.721,15.471,11.491c16.111,7.034,36.52-1.546,28.135-11.513
                c-1.221-1.45-2.732-2.803-4.402-4.099c5.682-2.622,11.721-5.33,17.791-7.661c17.939-6.889,36.852-12.826,51.689-21.726
                c9.141-5.483,5.301-13.548-7.906-15.878c-4.708-0.831-8.803-1.783-12.988-3.206c-0.422-0.144-0.777-0.359-1.061-0.571
                c0.059-0.143,0.121-0.312,0.188-0.481c0.289-0.182,1.324-1.353,1.518-1.521c0.473-0.352,0.77-0.578,0.905-0.689
                c0.618-0.387,1.239-0.773,1.894-1.145c5.521-3.237,9.885-4.797,16.668-7.031c1.67-0.551,3.391-1.056,5.109-1.561
                c0.566-0.166,0.955-0.286,1.247-0.381c2.28-0.415,4.606-0.766,6.919-1.124c13.016-2.021,26.641-3.961,38.395-7.654
                C649.906,358.979,654.554,349.459,641.992,341.637z"/>
            <path fill="#6E6E6E" d="M234.621,294.117c-21.096-7.062-43.84-5.889-65.744-5.27c-10.629,0.301-21.266,0.418-31.863-0.556
                c-3.447-0.317-7.703-1.067-12.852-2.384c-2.467-0.629-4.881-1.437-7.273-2.297c-0.424-0.152-0.747-0.266-0.992-0.35
                c-0.246-0.121-0.625-0.301-1.188-0.56c-1.403-0.645-2.762-1.384-4.117-2.122c-4.75-2.587-10.375-2.457-14.761,0.111
                c-4.591-1.152-9.419-0.236-13.312,3.656c-5.129,5.129-6.174,15.553,0,20.506c0.821,0.611,1.596,1.277,2.325,1.994
                c0.049,0.045,0.081,0.073,0.126,0.114c-4.199,6.467-5.748,14.439-5.197,22.137c0.465,6.5,4.089,12.179,10.646,13.982
                c5.927,1.63,13.528-0.892,16.374-6.664c2.332-4.731,4.397-9.812,5.793-14.976c0.154-0.036,0.309-0.066,0.463-0.1
                c0.391-0.025,2.709-0.357,3.455-0.393c1.89-0.092,3.784-0.034,5.673,0.055c1.62,0.074,3.235,0.236,4.85,0.41
                c0.03,0.006,0.054,0.009,0.085,0.014c0.98,0.146,1.955,0.32,2.932,0.492c3.477,0.615,6.92,1.416,10.34,2.289
                c2.912,0.743,5.799,1.58,8.672,2.467c7.812,15.295,23.713,20.813,40.668,20.523c15.139-0.259,32.592-4.604,43.797-15.348
                c1.09-1.045,1.961-2.24,2.623-3.525c4.004-4.38,7.007-9.86,8.605-16.372C246.713,303.958,242.27,296.679,234.621,294.117z"/>
        </g>
</svg>

