<?xml version="1.0" encoding="utf-8"?>
<!-- Generator: Adobe Illustrator 16.0.0, SVG Export Plug-In . SVG Version: 6.00 Build 0)  -->
<!DOCTYPE svg PUBLIC "-//W3C//DTD SVG 1.1//EN" "http://www.w3.org/Graphics/SVG/1.1/DTD/svg11.dtd">
<svg class="hill" version="1.1" id="Layer_1" xmlns="http://www.w3.org/2000/svg" xmlns:xlink="http://www.w3.org/1999/xlink" x="0px" y="0px"
	 width="4435px" height="768px" viewBox="0 0 4435 768" enable-background="new 0 0 4435 768" xml:space="preserve">
<path fill="#CDCDCD" d="M340.285,543.961c-3.992-0.567-6.838-3.248-9.988-5.534c-0.162-0.118-0.316-0.179-0.479-0.25
	c-0.013-0.372-0.108-0.743-0.268-1.095c-0.002-0.985-0.039-1.976-0.08-2.962c1.174,0.786,2.414,1.479,3.713,2.054
	c1.453,0.643,3.117,0.438,3.984-1.046c0.735-1.253,0.41-3.346-1.043-3.985c-3.104-1.375-5.906-3.271-7.685-6.224
	c-0.204-1.066-0.419-2.136-0.69-3.206c-0.923-3.643-6.543-2.097-5.62,1.547c0.133,0.525,0.227,1.045,0.343,1.564
	c-0.436,0.239-0.807,0.579-1.02,1.05c-1.34,2.946-3.877,4.737-6.344,6.694c-1.246,0.99-1.025,3.095,0,4.12
	c1.218,1.22,2.879,0.988,4.121,0c1.535-1.219,3.069-2.43,4.404-3.814c0.081,1.159,0.134,2.318,0.155,3.477
	c-4.142,2.14-8.233,4.357-12.736,5.669c-3.601,1.047-2.067,6.671,1.548,5.618c3.861-1.124,7.456-2.844,11.011-4.66
	c-0.116,1.774-0.269,3.551-0.468,5.325c-0.718-0.188-1.486-0.128-2.102,0.322c-1.155,0.848-2.549,1.906-4.07,1.65
	c-1.566-0.262-3.13,0.386-3.585,2.034c-0.388,1.412,0.468,3.323,2.038,3.585c2.535,0.422,4.779-0.035,6.893-1.187
	c-0.533,3.714-1.127,7.441-1.644,11.202c-0.509,3.673,5.108,5.259,5.618,1.548c0.543-3.943,1.16-7.855,1.709-11.752
	c1.312,0.579,2.848,0.763,4.225,0.78c3.762,0.046,3.758-5.781,0-5.83c-0.211,0-0.422-0.006-0.633-0.015
	c-0.111-0.006-0.188-0.008-0.242-0.008c-0.044-0.008-0.078-0.016-0.152-0.026c-0.268-0.048-0.529-0.125-0.789-0.206
	c-0.029-0.01-0.037-0.01-0.059-0.018c-0.035-0.022-0.088-0.058-0.189-0.114c-0.08-0.053-0.09-0.057-0.125-0.079
	c-0.164-0.146-0.315-0.3-0.459-0.461c0.382,0.432-0.143-0.299-0.168-0.344c-0.051-0.092-0.088-0.148-0.111-0.189
	c-0.012-0.05-0.033-0.125-0.091-0.284c-0.075-0.21-0.169-0.407-0.275-0.593c0.122-1.153,0.228-2.304,0.321-3.457
	c2.885,2.144,5.777,4.191,9.483,4.718c1.57,0.225,3.121-0.356,3.585-2.034C342.703,546.164,341.862,544.186,340.285,543.961z"/>
<path fill="#CDCDCD" d="M1210.285,523.961c-3.992-0.567-6.838-3.248-9.988-5.534c-0.162-0.118-0.316-0.179-0.479-0.25
	c-0.013-0.372-0.108-0.743-0.268-1.095c-0.002-0.985-0.039-1.976-0.08-2.962c1.174,0.786,2.414,1.479,3.713,2.054
	c1.453,0.643,3.117,0.438,3.984-1.046c0.735-1.253,0.41-3.346-1.043-3.985c-3.104-1.375-5.906-3.271-7.685-6.224
	c-0.204-1.066-0.419-2.136-0.69-3.206c-0.923-3.643-6.543-2.097-5.62,1.547c0.133,0.525,0.227,1.045,0.343,1.564
	c-0.436,0.239-0.807,0.579-1.02,1.05c-1.34,2.946-3.877,4.737-6.344,6.694c-1.246,0.99-1.025,3.095,0,4.12
	c1.218,1.22,2.879,0.988,4.121,0c1.535-1.219,3.069-2.43,4.404-3.814c0.081,1.159,0.134,2.318,0.155,3.477
	c-4.142,2.14-8.233,4.357-12.736,5.669c-3.601,1.047-2.067,6.671,1.548,5.618c3.861-1.124,7.456-2.844,11.011-4.66
	c-0.116,1.774-0.269,3.551-0.468,5.325c-0.718-0.188-1.486-0.128-2.102,0.322c-1.155,0.848-2.549,1.906-4.07,1.65
	c-1.566-0.262-3.13,0.386-3.585,2.034c-0.388,1.412,0.468,3.323,2.038,3.585c2.535,0.422,4.779-0.035,6.893-1.187
	c-0.533,3.714-1.127,7.441-1.644,11.202c-0.509,3.673,5.108,5.259,5.618,1.548c0.543-3.943,1.16-7.855,1.709-11.752
	c1.312,0.579,2.848,0.763,4.225,0.78c3.762,0.046,3.758-5.781,0-5.83c-0.211,0-0.422-0.006-0.633-0.015
	c-0.111-0.006-0.188-0.008-0.242-0.008c-0.044-0.008-0.078-0.016-0.152-0.026c-0.268-0.048-0.529-0.125-0.789-0.206
	c-0.029-0.01-0.037-0.01-0.059-0.018c-0.035-0.022-0.088-0.058-0.189-0.114c-0.08-0.053-0.09-0.057-0.125-0.079
	c-0.164-0.146-0.315-0.3-0.459-0.461c0.382,0.432-0.143-0.299-0.168-0.344c-0.051-0.092-0.088-0.148-0.111-0.189
	c-0.012-0.05-0.033-0.125-0.091-0.284c-0.075-0.21-0.169-0.407-0.275-0.593c0.122-1.153,0.228-2.304,0.321-3.457
	c2.885,2.144,5.777,4.191,9.483,4.718c1.57,0.225,3.121-0.356,3.585-2.034C1212.703,526.164,1211.862,524.186,1210.285,523.961z"/>
<path fill="#CDCDCD" d="M2137.285,518.961c-3.992-0.567-6.838-3.248-9.988-5.534c-0.162-0.118-0.316-0.179-0.479-0.25
	c-0.013-0.372-0.108-0.743-0.268-1.095c-0.002-0.985-0.039-1.976-0.08-2.962c1.174,0.786,2.414,1.479,3.713,2.054
	c1.453,0.643,3.117,0.438,3.984-1.046c0.735-1.253,0.41-3.346-1.043-3.985c-3.104-1.375-5.906-3.271-7.685-6.224
	c-0.204-1.066-0.419-2.136-0.69-3.206c-0.923-3.643-6.543-2.097-5.62,1.547c0.133,0.525,0.227,1.045,0.343,1.564
	c-0.436,0.239-0.807,0.579-1.02,1.05c-1.34,2.946-3.877,4.737-6.344,6.694c-1.246,0.99-1.025,3.095,0,4.12
	c1.218,1.22,2.879,0.988,4.121,0c1.535-1.219,3.069-2.43,4.404-3.814c0.081,1.159,0.134,2.318,0.155,3.477
	c-4.142,2.14-8.233,4.357-12.736,5.669c-3.601,1.047-2.067,6.671,1.548,5.618c3.861-1.124,7.456-2.844,11.011-4.66
	c-0.116,1.774-0.269,3.551-0.468,5.325c-0.718-0.188-1.486-0.128-2.102,0.322c-1.155,0.848-2.549,1.906-4.07,1.65
	c-1.566-0.262-3.13,0.386-3.585,2.034c-0.388,1.412,0.468,3.323,2.038,3.585c2.535,0.422,4.779-0.035,6.893-1.187
	c-0.533,3.714-1.127,7.441-1.644,11.202c-0.509,3.673,5.108,5.259,5.618,1.548c0.543-3.943,1.16-7.855,1.709-11.752
	c1.312,0.579,2.848,0.763,4.225,0.78c3.762,0.046,3.758-5.781,0-5.83c-0.211,0-0.422-0.006-0.633-0.015
	c-0.111-0.006-0.188-0.008-0.242-0.008c-0.044-0.008-0.078-0.016-0.152-0.026c-0.268-0.048-0.529-0.125-0.789-0.206
	c-0.029-0.01-0.037-0.01-0.059-0.018c-0.035-0.022-0.088-0.058-0.189-0.114c-0.08-0.053-0.09-0.057-0.125-0.079
	c-0.164-0.146-0.315-0.3-0.459-0.461c0.382,0.432-0.143-0.299-0.168-0.344c-0.051-0.092-0.088-0.148-0.111-0.189
	c-0.012-0.05-0.033-0.125-0.091-0.284c-0.075-0.21-0.169-0.407-0.275-0.593c0.122-1.153,0.228-2.304,0.321-3.457
	c2.885,2.144,5.777,4.191,9.483,4.718c1.57,0.225,3.121-0.356,3.585-2.034C2139.703,521.164,2138.862,519.186,2137.285,518.961z"/>
<path fill="#CDCDCD" d="M3169.285,473.961c-3.992-0.567-6.838-3.248-9.988-5.534c-0.162-0.118-0.316-0.179-0.479-0.25
	c-0.013-0.372-0.108-0.743-0.268-1.095c-0.002-0.985-0.039-1.976-0.08-2.962c1.174,0.786,2.414,1.479,3.713,2.054
	c1.453,0.643,3.117,0.438,3.984-1.046c0.735-1.253,0.41-3.346-1.043-3.985c-3.104-1.375-5.906-3.271-7.685-6.224
	c-0.204-1.066-0.419-2.136-0.69-3.206c-0.923-3.643-6.543-2.097-5.62,1.547c0.133,0.525,0.227,1.045,0.343,1.564
	c-0.436,0.239-0.807,0.579-1.02,1.05c-1.34,2.946-3.877,4.737-6.344,6.694c-1.246,0.99-1.025,3.095,0,4.12
	c1.218,1.22,2.879,0.988,4.121,0c1.535-1.219,3.069-2.43,4.404-3.814c0.081,1.159,0.134,2.318,0.155,3.477
	c-4.142,2.14-8.233,4.357-12.736,5.669c-3.601,1.047-2.067,6.671,1.548,5.618c3.861-1.124,7.456-2.844,11.011-4.66
	c-0.116,1.774-0.269,3.551-0.468,5.325c-0.718-0.188-1.486-0.128-2.102,0.322c-1.155,0.848-2.549,1.906-4.07,1.65
	c-1.566-0.262-3.13,0.386-3.585,2.034c-0.388,1.412,0.468,3.323,2.038,3.585c2.535,0.422,4.779-0.035,6.893-1.187
	c-0.533,3.714-1.127,7.441-1.644,11.202c-0.509,3.673,5.108,5.259,5.618,1.548c0.543-3.943,1.16-7.855,1.709-11.752
	c1.312,0.579,2.848,0.763,4.225,0.78c3.762,0.046,3.758-5.781,0-5.83c-0.211,0-0.422-0.006-0.633-0.015
	c-0.111-0.006-0.188-0.008-0.242-0.008c-0.044-0.008-0.078-0.016-0.152-0.026c-0.268-0.048-0.529-0.125-0.789-0.206
	c-0.029-0.01-0.037-0.01-0.059-0.018c-0.035-0.022-0.088-0.058-0.189-0.114c-0.08-0.053-0.09-0.057-0.125-0.079
	c-0.164-0.146-0.315-0.3-0.459-0.461c0.382,0.432-0.143-0.299-0.168-0.344c-0.051-0.092-0.088-0.148-0.111-0.189
	c-0.012-0.05-0.033-0.125-0.091-0.284c-0.075-0.21-0.169-0.407-0.275-0.593c0.122-1.153,0.228-2.304,0.321-3.457
	c2.885,2.144,5.777,4.191,9.483,4.718c1.57,0.225,3.121-0.356,3.585-2.034C3171.703,476.164,3170.862,474.186,3169.285,473.961z"/>
<path fill="#CDCDCD" d="M4156.285,517.961c-3.992-0.567-6.838-3.248-9.988-5.534c-0.162-0.118-0.316-0.179-0.479-0.25
	c-0.013-0.372-0.108-0.743-0.268-1.095c-0.002-0.985-0.039-1.976-0.08-2.962c1.174,0.786,2.414,1.479,3.713,2.054
	c1.453,0.643,3.117,0.438,3.984-1.046c0.735-1.253,0.41-3.346-1.043-3.985c-3.104-1.375-5.906-3.271-7.685-6.224
	c-0.204-1.066-0.419-2.136-0.69-3.206c-0.923-3.643-6.543-2.097-5.62,1.547c0.133,0.525,0.227,1.045,0.343,1.564
	c-0.436,0.239-0.807,0.579-1.02,1.05c-1.34,2.946-3.877,4.737-6.344,6.694c-1.246,0.99-1.025,3.095,0,4.12
	c1.218,1.22,2.879,0.988,4.121,0c1.535-1.219,3.069-2.43,4.404-3.814c0.081,1.159,0.134,2.318,0.155,3.477
	c-4.142,2.14-8.233,4.357-12.736,5.669c-3.601,1.047-2.067,6.671,1.548,5.618c3.861-1.124,7.456-2.844,11.011-4.66
	c-0.116,1.774-0.269,3.551-0.468,5.325c-0.718-0.188-1.486-0.128-2.102,0.322c-1.155,0.848-2.549,1.906-4.07,1.65
	c-1.566-0.262-3.13,0.386-3.585,2.034c-0.388,1.412,0.468,3.323,2.038,3.585c2.535,0.422,4.779-0.035,6.893-1.187
	c-0.533,3.714-1.127,7.441-1.644,11.202c-0.509,3.673,5.108,5.259,5.618,1.548c0.543-3.943,1.16-7.855,1.709-11.752
	c1.312,0.579,2.848,0.763,4.225,0.78c3.762,0.046,3.758-5.781,0-5.83c-0.211,0-0.422-0.006-0.633-0.015
	c-0.111-0.006-0.188-0.008-0.242-0.008c-0.044-0.008-0.078-0.016-0.152-0.026c-0.268-0.048-0.529-0.125-0.789-0.206
	c-0.029-0.01-0.037-0.01-0.059-0.018c-0.035-0.022-0.088-0.058-0.189-0.114c-0.08-0.053-0.09-0.057-0.125-0.079
	c-0.164-0.146-0.315-0.3-0.459-0.461c0.382,0.432-0.143-0.299-0.168-0.344c-0.051-0.092-0.088-0.148-0.111-0.189
	c-0.012-0.05-0.033-0.125-0.091-0.284c-0.075-0.21-0.169-0.407-0.275-0.593c0.122-1.153,0.228-2.304,0.321-3.457
	c2.885,2.144,5.777,4.191,9.483,4.718c1.57,0.225,3.121-0.356,3.585-2.034C4158.703,520.164,4157.862,518.186,4156.285,517.961z"/>
<path fill="#CDCDCD" d="M4437.5,768v-23.455V531.664c-5.797,4.259-12.766,7.141-22.19,7.141c-36.226,0-36.226-1.164-72.451-1.164
	c-36.228,0-36.228-75.227-72.454-75.227s-36.227,58.66-72.452,58.66c-36.225,0-36.225,17.828-72.449,17.828
	c-36.224,0-36.224-41.573-72.447-41.573s-36.224,63.387-72.446,63.387c-36.226,0-36.226-22.549-72.451-22.549
	s-36.226-50.593-72.451-50.593c-36.227,0-36.227,64.79-72.453,64.79c-36.225,0-36.225-15.476-72.449-15.476
	c-36.226,0-36.226,21.003-72.451,21.003s-36.226-51.958-72.451-51.958c-36.225,0-36.225-28.154-72.449-28.154
	s-36.225,61.208-72.45,61.208s-36.226-28.855-72.451-28.855c-36.224,0-36.224,14.457-72.448,14.457
	c-36.226,0-36.226-56.692-72.451-56.692c-36.225,0-36.225,76.073-72.449,76.073c-36.224,0-36.224-35.474-72.447-35.474
	c-36.225,0-36.225,33.451-72.448,33.451c-36.226,0-36.226-59.554-72.45-59.554c-36.226,0-36.226,68.312-72.451,68.312
	c-36.225,0-36.225-101.008-72.45-101.008s-36.226,105.456-72.45,105.456c-36.224,0-36.224-71.711-72.447-71.711
	c-33.936,0-36.079,67.972-65.999,76.558h-25.988c-18.458-1.898-24.715-6.178-52.904-6.178c-36.224,0-36.224-51.916-72.446-51.916
	c-36.226,0-36.226,56.114-72.451,56.114c-36.223,0-36.223-86.871-72.445-86.871s-36.223,70.069-72.444,70.069
	c-36.225,0-36.225-0.327-72.449-0.327c-36.222,0-36.222-25.188-72.444-25.188s-36.223,33.359-72.444,33.359
	c-36.224,0-36.224-87.687-72.448-87.687c-36.221,0-36.221,88.12-72.442,88.12c-36.225,0-36.225-86.808-72.448-86.808
	c-36.225,0-36.225,84.146-72.449,84.146s-36.225,12.863-72.449,12.863s-36.225-53.295-72.449-53.295
	c-36.224,0-36.224,46.221-72.448,46.221s-36.225-67.538-72.45-67.538c-36.225,0-36.225,72.631-72.449,72.631
	c-36.224,0-36.224-0.189-72.448-0.189c-36.224,0-36.224-52.513-72.448-52.513c-36.223,0-36.223,45.317-72.447,45.317
	c-36.224,0-36.224-18.216-72.447-18.216c-36.225,0-36.225,41.267-72.449,41.267c-36.224,0-36.224-61.845-72.448-61.845
	c-36.224,0-36.224,27.69-72.447,27.69s-36.224-70.554-72.447-70.554c-36.225,0-36.225,97.119-72.45,97.119
	c-36.223,0-36.223-44.567-72.447-44.567s-36.224,31.201-72.447,31.201c-36.225,0-36.225-16.198-72.449-16.198
	c-36.224,0-36.224,46.09-72.447,46.09c-36.224,0-36.224-37.428-72.448-37.428s-36.224-53.36-72.447-53.36
	c-36.223,0-36.223,95.263-72.446,95.263c-36.225,0-36.225-40.343-72.449-40.343c-35.689,0-36.241-6.678-70.895-6.874V694.84
	c1.75,0.084,3.415,0.306,5,0.655V768H4437.5z"/>
</svg>
