<svg version="1.1" id="sky" class="sky" xmlns="http://www.w3.org/2000/svg" xmlns:xlink="http://www.w3.org/1999/xlink" x="0px" y="0px"
	 width="1024px" height="768px" viewBox="0 0 1024 768" enable-background="new 0 0 1024 768" xml:space="preserve">
	<path fill="#f7f7f7" d="M1259.938,514.554c-47.848-2.663-95.91,1.074-143.463,6.416c-53.069,5.962-105.975,13.292-159.038,19.365
		c-56.346,6.449-112.588,13.809-168.809,21.263c-113.762,15.083-227.562,30.445-341.984,39.659
		c-115.122,9.27-230.464,11.435-345.898,12.807c-58.018,0.689-116.042,1.438-174.03,3.518c-55.005,1.972-109.958,7.062-165.008,7.49
		c-0.443,25.657-1.075,51.312-1.921,76.958c107.363-5.291,214.936-2.91,322.339-7.103c112.207-4.38,223.414-19.183,334.092-37.619
		c111.264-18.534,222.003-40.229,333.617-56.641c112.544-16.548,225.066-25.633,338.872-22.888
		c57.61,1.39,115.096,5.018,172.491,9.88C1260.748,563.291,1260.32,538.923,1259.938,514.554z"/>
	<path fill="#f7f7f7" d="M1258.483,375.314c-37.482-4.612-76.063,3.309-112.309,12.324c-22.273,5.541-44.301,12.006-66.505,17.809
		c-22.88,5.979-46.058,10.766-69.206,15.571c-106.5,22.112-213.991,39.64-322.128,51.45
		c-107.297,11.72-215.107,17.857-323.05,17.528C254.953,489.66,144.5,486.259,34.84,473.369
		c-25.835-3.037-51.551-6.762-77.452-9.242c-24.291-2.327-48.624-4.186-72.904-6.624c-25.094-2.521-50.128-5.583-74.904-10.357
		c-15.674-3.021-31.889-6.452-47.418-11.394c0.215,23.359,0.371,46.719,0.41,70.08c0.01,5.987,0.01,11.976,0.006,17.964
		c42.264,4.177,84.225,11.119,126.177,17.724c53.702,8.453,107.369,14.544,161.629,18.029c54.231,3.484,108.566,5.127,162.89,6.311
		c53.915,1.176,107.764,2.322,161.663-0.117c107.529-4.867,214.286-19.729,320.537-36.349
		c106.347-16.635,212.454-35.245,319.451-47.342c53.335-6.03,106.54-13.915,160.19-16.665c28.024-1.436,56.067-1.434,84.107-1.512
		C1258.857,434.356,1258.597,404.836,1258.483,375.314z"/>
	<path fill="#f7f7f7" d="M1259.261,236.487c0.247-14.788,0.543-29.572,0.927-44.353c-3.116-0.186-6.344,1.67-7.732,4.466
		c-105.361,38.974-207.248,86.994-314.284,121.45c-106.51,34.287-218.653,53.769-329.908,64.01
		c-111.353,10.251-223.203,11.358-334.799,4.616c-95.285-5.757-191.72-18.435-284.164-42.587
		c-80.032-20.909-158.828-48.778-229.787-91.454c0.533,31.309,1.07,62.618,1.544,93.928c45.825,17.38,93.256,30.551,141,41.423
		c110.149,25.081,223.396,39.637,335.979,48.115c126.973,9.562,254.672,8.532,381.477-3.056
		c125.785-11.496,249.464-33.744,371.874-64.642c88.824-22.42,177.32-47.335,267.145-65.588
		C1258.662,280.706,1258.892,258.596,1259.261,236.487z"/>
	<path fill="#f7f7f7" d="M1264.508,94.25c1.747-30.804,3.109-61.627,3.317-92.482c-28.833-0.018-57.665-0.16-86.495-0.393
		c-11.071,10.797-22.381,21.37-33.931,31.717c-42.941,38.471-90.538,70.834-140.31,99.595
		c-53.362,30.834-111.276,50.674-169.2,70.932c-61.692,21.575-125.71,35.394-189.653,48.04
		c-62.833,12.426-127.224,16.421-191.078,18.508c-64.895,2.121-130.474-3.693-194.671-12.765
		c-53.253-7.524-105.97-21.07-154.378-44.645c-43.985-21.42-86.687-47.985-124.573-79.214
		c-38.434-31.68-76.208-64.066-112.79-98.021c-12.506-11.607-25.12-23.151-37.87-34.56c-25.43,1.485-50.83,3.381-76.147,6.247
		c0.028,36.648,0.306,73.295,0.732,109.941c68.38,56.86,144.845,103.971,226.823,138.729
		c119.231,50.554,246.241,76.44,375.212,84.056c76.95,4.544,153.975,0.139,230.566-7.323c73.183-7.13,145.087-22.529,217.001-37.274
		c67.245-13.788,135.389-30.206,199.62-54.539c63.503-24.058,125.878-52.055,180.538-92.874
		c24.468-18.272,50.846-33.961,75.312-52.167C1263.203,95.262,1263.859,94.759,1264.508,94.25z"/>
	<path fill="#f7f7f7" d="M937.795-2.43C903.6-3.159,869.406-3.942,835.212-4.739c-20.137,14.566-40.563,28.726-61.142,42.589
		c-27.578,18.58-56.413,35.26-85.926,50.569c-28.207,14.632-57.779,27.096-88.374,35.782c-29.893,8.486-61.071,13.44-92.206,12.464
		c-30.856-0.967-60.386-7.358-89.685-16.817c-53.463-17.26-104.763-43.189-151.193-74.756C241.242,27.794,216.5,8.65,194.035-12.761
		C142.709-12.143,91.389-11.06,40.087-9.366c-0.473,0.016-0.943,0.037-1.416,0.053C60.66,9.28,81.045,29.812,103.396,47.988
		c30.091,24.471,62.187,47.267,95.368,67.334c33.386,20.192,67.327,39.567,103.434,54.433
		c34.88,14.361,71.669,23.439,108.892,29.044c74.722,11.252,151.004,3.986,224.51-11.954c32.879-7.13,65.616-16.09,97.475-26.951
		c32.677-11.14,65.401-22.749,96.789-37.246c62.208-28.732,122.351-61.558,174.907-105.934c6.096-5.146,12.032-10.489,17.865-15.932
		c0.492-0.459,0.884-0.973,1.198-1.517C995.153-1.249,966.474-1.818,937.795-2.43z"/>
</svg>
