<?xml version="1.0" encoding="utf-8"?>
<!-- Generator: Adobe Illustrator 16.0.0, SVG Export Plug-In . SVG Version: 6.00 Build 0)  -->
<!DOCTYPE svg PUBLIC "-//W3C//DTD SVG 1.1//EN" "http://www.w3.org/Graphics/SVG/1.1/DTD/svg11.dtd">
<svg version="1.1" id="Layer_1" xmlns="http://www.w3.org/2000/svg" xmlns:xlink="http://www.w3.org/1999/xlink" x="0px" y="0px"
	 width="4435px" height="1200px" viewBox="0 0 4435 1200" enable-background="new 0 0 4435 1200" xml:space="preserve" class="scene-svg">
<path class="hills1" fill="#7FA4A5" d="M2291.203,671.319c-0.329-64.355,0.164-128.776-0.907-193.122c-1.043-62.627-7.626-124.98-11.512-187.458
	c-1.162-18.659-9.589-63.284-14.219-65.18c-18.518-7.584-40.048-4.85-57.289,4.625c-18.166,9.983-22.879,32.392-22.196,51.599
	c0.822,23.075,1.571,46.226,3.075,69.271c2.151,32.925,5.492,65.974,6.005,99.027c-2.219,10.306-3.823,20.686-6.533,30.896
	c-1.933,7.285-5.136,18.331-14.415,17.552c-9.875-0.831-13.952-14.031-15.079-22.253c-1.794-13.096-0.658-26.719-1.171-39.922
	c-0.561-14.39-1.657-28.708-3.285-43.018c-1.561-13.729-0.438-27.565-0.373-41.343c0.064-13.541-0.799-27.081-1.016-40.618
	c-0.238-14.814-1.771-29.903-3.489-44.611c-0.704-6.024-1.445-11.705-1.703-17.766c-0.278-6.536-1.131-13.215-4.573-18.896
	c-0.448-0.737-0.94-1.386-1.462-1.963c-0.591-1.714-1.221-3.425-1.939-5.124c-6.696-15.853-22.675-34.302-42.118-28.648
	c-13.204,3.839-19.823,17.971-22.967,30.419c-6.848,27.123-4.964,56.522-2.399,84.165c1.194,12.863,1.767,25.769,2.77,38.648
	c1.008,12.977,3.557,25.711,4.855,38.628c2.425,24.08,4.485,48.116,3.47,72.341c-0.682,16.23-2.112,38.634-17.167,48.199
	c-21.48,13.649-18.059-25.062-18.367-35.939c-1.558-55.109-0.141-110.253-3.044-165.326c-1.447-27.437-2.405-54.883-2.593-82.354
	c-0.116-17.039-0.76-33.941-4.375-50.639c-3.097-14.307-12.612-33.879-29.399-35.171c-16.43-1.263-24.178,16.073-28.12,29.211
	c-5.208,17.349-6.396,35.467-7.113,53.496c-0.972,24.452-0.729,48.957-0.309,73.43c-0.06,0.984-0.035,1.967,0.052,2.947
	c0.038,2.119,0.074,4.236,0.113,6.353c0.093,5.015,0.12,10.03,0.122,15.047c-0.536,2.146-1.209,4.195-1.992,5.966
	c-2.019,4.567-4.94,7.859-9.271,7.814c-4.33-0.043-9.529-2.087-12.154-5.673c-10.678-14.583-4.031-36.676-8.316-53.278
	c-3.109-12.043-11.762-20.22-24.285-20.464c-11.162-0.22-19.092,8.606-21.788,18.819c-3.237,12.273-1.52,25.726-1.194,38.293
	c0.386,14.828,0.292,29.659,0.643,44.486c0.357,15.148,1.874,30.1,1.883,45.262c0.005,6.93,0.174,13.837,0.369,20.748
	c-1.658,4.458-2.592,9.391-3.131,14.698c-0.869,8.541-0.119,17.885,0.111,26.479c0.27,10.081,0.545,20.183,1.019,30.257
	c0.923,19.658,1.207,39.455,1.003,59.122c-0.066,6.233-0.703,12.052-1.812,18.151c-0.98,5.396-3.443,13.281-8.158,16.706
	c-1.54,1.118-5.75,2.955-7.611,3.368c-1.898,0.42-4.006-0.272-5.979,0.096c-1.672,0.314-2.465,0.968-4.161,0.761
	c-6.74-0.83-11.969-3.545-14.733-9.712c-3.57-7.959-2.958-17.519-3.813-26.236c-1.046-10.647-1.558-21.531-1.786-32.235
	c-0.428-20.233-0.393-40.473-0.74-60.707c-0.359-20.947-1.07-41.822-1.924-62.746c-0.832-20.384-3.618-40.824-5.428-61.146
	c-1.731-19.465-0.904-38.723-4.664-57.969c-2.372-12.141-9.943-24.994-18.719-33.706c-8.449-8.385-19.33-14.396-31.16-13.347
	c-13.977,1.238-23.808,12.363-28.859,25.147c-6.001,15.181-6.625,33.446-5.541,49.541c1.221,18.13,2.949,36.202,3.753,54.374
	c1.705,38.48-3.061,76.728-0.933,115.199c2.083,37.641,9.302,75.867,7.274,113.577c-0.398,7.414-0.177,14.566-5.218,20.354
	c-3.607,4.145-8.994,6.159-14.417,3.243c-5.584-3.003-8.305-10.204-9.062-16.11c-1.058-8.25-0.3-16.883-0.675-25.19
	c-1.81-40.224-3.595-80.524-3.98-120.821c-0.197-20.623,0.131-41.162,0.452-61.778c0.146-9.381,0.219-18.713,0.041-28.094
	c-0.197-10.357-1.837-20.558-2.391-30.883c-0.89-16.609-0.414-32.979-3.198-49.4c-2.197-12.957-5.517-25.239-17.114-32.775
	c-24.993-16.242-57.195,2.114-66.762,27.412c-2.704,7.15-3.877,16.166-4.799,23.75c-1.072,8.818-2.052,17.785-2.167,26.672
	c-0.236,18.357-1.875,36.613-2.516,54.958c-0.675,19.227-0.186,38.654,0.011,57.894c0.201,19.681,2.26,39.376,2.108,59.025
	c-0.053,6.955-0.857,12.921-7.271,16.473c-1.95,1.079-0.838,1.786-3.142,1.87c-0.898,0.033-4.793-1.627-5.667-2.046
	c-3.214-1.534-5.706-6.155-7.392-9.41c-7.921-15.283-9.466-35.912-10.676-52.745c-1.429-19.889-1.625-39.835-1.25-59.78
	c0.28-14.833,1.993-31.035-3.453-45.191c-7.693-19.997-26.564-46.633-50.918-34.704c-5.193,2.545-10.726,8.297-13.787,13.139
	c-4.643,7.344-6.825,13.745-8.471,22.25c-3.379,17.465-4.187,35.009-4.473,52.823c-0.152,9.418-0.532,19.523-2.857,28.693
	c-1.405,5.535-3.738,11.193-8.691,13.839c-3.662,1.954-5.251,2.463-9.159,1.99c-5.015-0.608-4.864,0.89-8.178-3.066
	c-2.422-2.892-2.852-4.078-4.045-7.932c-1.121-3.62-1.929-7.21-2.733-10.968c-1.908-8.921-2.859-17.426-2.313-26.579
	c0.48-8.044,0.293-16.335-0.579-24.345c-1.434-13.163-4.293-27.961-11.633-39.07c-7.513-11.369-22.118-12.252-34.027-6.985
	c-12.24,5.416-22.983,15.234-32.028,24.896c-23.49,25.093-27.606,61.526-30.378,94.49c-0.094,1.118-0.17,2.238-0.256,3.359
	c-0.163,0.249-0.333,0.494-0.491,0.749c-8.311,13.435-7.075,29.416-5.854,44.731c1.286,16.137,3.49,36.557-7.425,50.072
	c-3.262,4.039-8.47,7.428-13.417,8.243c-6.352,1.052-10.565,0.006-16.269-2.84c-13.138-6.554-16.457-21.834-18.946-35.425
	c-3.311-18.085-5.377-36.341-8.98-54.383c-0.086-4.561-0.189-9.122-0.302-13.68c-0.825-33.12,4.31-69.3-5.081-101.696
	c-0.11-1.091-0.43-2.087-0.912-2.974c-0.39-1.217-0.795-2.429-1.229-3.633c-6.913-19.179-25.207-50.094-49.987-39.339
	c-13.839,6.005-18.198,17.841-18.253,32.081c-0.075,19.221-2.654,38.191-1.994,57.455c0.726,21.139,2.866,42.196,3.852,63.32
	c0.684,14.657,0.99,28.918,2.729,43.488c1.53,12.817,3.54,26.688,0.273,39.374c-1.983,7.701-8.175,16.338-16.85,16.971
	c-12.083,0.883-16.451-19.356-18.573-28.055c-4.569-18.724-5.931-38.199-6.571-57.411c-0.595-17.842-0.757-35.559-1.644-53.398
	c-1.015-20.409-1.434-40.845-2.399-61.256c-0.958-20.257-4.302-40.28-6.556-60.422c-2.212-19.766-3.708-39.637-3.594-59.535
	c0.111-19.426-2.813-38.384-3.525-57.712c-0.89-24.168-5.789-72.694-41.559-66.592c-35.025,5.974-33.841,54.323-33.07,80.804
	c0.566,19.479,3.161,38.821,3.862,58.291c0.719,19.952-0.187,39.931,0.782,59.881c0.849,17.462,7.494,37.516,0.327,54.474
	c-1.638,3.877-5.833,11.676-10.075,13.092c-0.329,0.109-0.568,0.209-0.746,0.3c0.099-0.223,0.146-0.559,0.026-1.039
	c-1.05-4.226-1.796-8.674-2.709-12.977c-4.014-18.884-3.836-38.45-4.382-57.675c-0.372-13.076-1.403-26.164-2.802-39.169
	c-2.222-20.632-6.281-49.117-28.663-57.461c-22.49-8.383-35.817,10.584-39.65,30.37c-4.042,20.856-2.786,42.05-2.732,63.157
	c0.049,19.486,0.915,39.017,2.51,58.438c0.347,4.219,0.818,8.467,1.335,12.729c-1.27,1.624-1.895,3.791-1.303,6.36
	c4.396,19.053,1.39,38.286,2.191,57.579c0.528,12.718,4.534,30.597-5.23,40.797c-7.299,7.624-18.954,11.348-29.072,12.017
	c-3.238,0.215-5.257,0.377-8.466,0.131c-1.402-0.107-2.958,0.671-4.236,0.513c-1.308-0.165-2.26-1.119-3.57-1.325
	c-1.216-0.195-2.32,0.416-3.499,0.104c-1.407-0.375-2.872-1.555-4.268-2.097c-0.973-0.381-1.676,0.156-2.644-0.258
	c-0.789-0.338-4.252-2.269-4.83-2.745c-4.402-3.631-7.35-11.222-8.86-16.763c-2.064-7.57-3.413-15.583-4.314-23.366
	c-1.102-9.53-1.812-18.456-1.665-28.085c0.113-7.351,1.006-14.758,1.792-22.003c1.908-17.6,1.602-37.458-5.132-53.963
	c-0.896-2.195-1.968-4.378-3.233-6.437c-0.215-3.352-0.432-6.704-0.64-10.057c-2.491-40.034-2.892-79.968-7.686-119.82
	c-1.615-13.423-2.678-28.15-10.479-39.655c-7.377-10.88-23.282-20.457-34.238-8.522c-4.242,4.62-6.125,11.227-7.545,17.189
	c-2.136,8.958-4.273,17.959-6.48,26.919c-5.004,20.304-7.333,40.936-7.633,61.823c-0.55,38.312,1.83,76.384,4.153,114.574
	c0.137,10.175-0.389,20.361-2.771,29.949c-1.112,4.48-2.913,9.098-6.05,12.433c-4.43,0.33-8.716,1.846-11.808,4.717
	c-6.461-0.267-13.031-4.036-16.44-9.229c-5.189-7.899-4.33-15.987-3.817-24.964c0.545-9.541-0.986-19.06-1.707-28.599
	c0.312-9.497,0.514-18.992,0.552-28.483c0.072-18.253-0.594-36.738-2.776-54.874c-1.988-16.518-4.202-32.9-9.767-48.653
	c-2.809-7.948-6.011-15.184-11.02-21.976c-4.656-6.312-11.034-10.504-18.067-13.767c-12.498-5.797-28.111-3.463-36.625,7.805
	c-7.118,9.418-11.479,22.643-12.904,34.296c-2.227,18.203-1.143,36.147,0.74,54.335c1.033,9.973,2.689,19.873,3.712,29.846
	c1.015,9.888,1.004,19.728,1.277,29.648c0.533,19.335,2.646,38.577,4.357,57.832c0.742,8.331,1.361,16.667,1.923,25.008
	c-0.172,13.62,0.169,27.305,0.286,40.859c0.164,18.873-0.271,37.752,1.35,56.581c0.144,1.672,0.265,3.344,0.378,5.014
	c-0.938,3.497-2.164,6.877-3.813,10.047c-1.382,2.652-3.872,6.476-6.925,9.412c-1.464,0.175-2.928,0.349-4.389,0.521
	c-2.608,0.31-6.504,0.863-10.194,0.975c-3.44-3.495-5.372-9.476-6.612-13.489c-2.169-7.018-3.593-14.293-4.367-21.6
	c-1.458-13.781-1.565-27.779-2.053-41.621c-0.512-14.549-1.807-28.861-3.108-43.341c-1.189-13.227-2.534-26.967-5.292-39.97
	c-2.053-9.673-9.622-20.636-20.441-21.423c-4.455-0.322-7.838,0.92-10.447,3.151c-1.37,0.282-2.685,0.766-3.763,1.624
	c-4.072,3.251-4.818,7.211-5.328,11.943c-0.804,7.463-2.351,14.87-2.797,22.31c-0.291,4.831-0.417,9.667-0.445,14.507
	c-1.55,11.96-1.062,24.438-1.664,36.155c-0.007,0.123-0.01,0.246-0.018,0.372c-2.138,2.403-3.122,5.96-1.464,9.697
	c0.309,0.695,0.602,1.396,0.883,2.1c0.027,0.09,0.05,0.183,0.077,0.273c-0.467,13.542-0.59,27.11-0.505,40.662
	c-1.454,10.354-1.549,22.391-8.049,30.896c-4.878,6.383-12.759,5.591-18.95,1.819c-2.639-3.209-3.822-7.264-5.68-11.114
	c-5.528-11.457-3.397-25.619-3.967-37.938c-0.651-14.1-2.954-28.124-3.279-42.22c-0.34-14.676-0.177-29.351-0.062-44.025
	c0.223-28.992,0.052-58.039-4.651-86.717c-2.603-15.872-7.03-36.466-21.229-46.21c-6.449-4.426-14.528-5.181-21.725-1.978
	c-4.741,2.111-7.614,6.372-9.515,11.103c-8.043,10.345-8.947,25.192-8.876,38.367c0.103,18.977-0.422,37.992-0.913,56.999
	c-0.294,3.939-0.629,7.876-1.044,11.81c-1.482,14.071-3.1,29.836-9.608,42.632c-0.39,0.767-0.834,1.594-1.332,2.421
	c-1.981,0.636-3.983,1.208-5.97,1.756c-3.093,0.851-6.263,1.627-9.466,1.954c-3.418-2.864-5.908-7.453-7.091-11.027
	c-5.557-16.803-1.736-36.083-2.981-53.437c-1.245-17.335-9.667-38.326-30.803-36.721c-1.749,0.133-3.273,0.551-4.613,1.177
	c-2.026-0.388-4.144-0.544-6.363-0.405c-23.443,1.468-24.406,34.759-24.131,51.884c0.104,6.417,0.646,12.698,0.282,19.141
	c-0.373,6.596-1.079,13.168-1.501,19.757c-0.888,13.857-0.487,27.857-0.437,41.741c0.057,15.721,0.035,31.441,0.004,47.162
	c-2.984,8.984-7.583,17.237-15.196,22.056c-3.891,2.463-8.244,3.695-12.639,3.893c-0.252-0.024-0.504-0.045-0.757-0.069
	c-2.35-0.201-4.738-0.401-7.115-0.671c-5.472-1.294-10.61-4.148-14.552-8.262c-6.604-6.89-10.192-16.3-12.543-25.644
	c-0.058-1.507-0.112-3.014-0.177-4.521c-0.483-11.121-1.062-22.235-1.658-33.348c-0.015-26.664,0.336-53.343,0.783-79.977
	c0.66-39.374,2.814-78.786-0.106-118.121c-1.815-24.444-0.691-61.558-27.436-73.303c-11.333-4.977-25.249-2.459-34.865,4.654
	c-8.217,6.078-12.404,16.497-13.999,26.347c-0.827,5.112-1.293,10.248-1.549,15.397c-0.718,2.947-1.264,5.613-1.635,7.796
	c-1.683,9.87-1.692,19.822-1.632,29.801c0.063,10.268-0.836,20.214-1.665,30.422c-1.604,19.774-0.017,39.125,1.134,58.849
	c0.674,11.53,1.223,23.062,1.451,34.6c-6.959,30.42,2.572,63.404-4.67,93.824c-0.613,2.574-1.365,5.229-2.321,7.821
	c-2.715,1.858-5.854,2.463-9.787,1.438c-6.359-1.655-9.29-7.704-11.059-14.252c-0.529-21.21-1.918-42.388-2.71-63.586
	c-0.705-18.888,1.198-38.585-3.834-56.975c-0.386-3.325-0.863-6.646-1.479-9.962c-2.05-11.052-5.938-20.715-14.8-28.081
	c-7.288-6.056-16.911-9.076-25.98-5.183c-22.007,9.45-20.823,37.858-21.643,57.609c-0.254,6.143-1.343,12.205-1.36,18.369
	c-0.02,7.115,0.807,14.21,1.799,21.238c0.271,4.522,0.825,9.086,1.946,13.425c1.397,9.697,2.682,19.386,3.265,29.209
	c1.116,18.783,3.075,52.816-19.758,60.054c-7.7,2.438-16.594-0.09-20.18-7.726c-2.381-5.073-2.239-10.851-2.723-16.347
	c-0.473-5.355-0.861-10.719-1.219-16.086c0.573-22.134,1.273-44.262,0.896-66.41c-0.537-31.557-2.467-63.055-4.712-94.528
	c0.179-8.008,0.516-16.031,0.97-24.082c0.776-13.765-0.988-29.222-6.388-41.971c-2.493-5.887-6.146-11.886-12.312-14.396
	c-6.202-2.528-12.908-0.805-17.709,3.718c-12.596,11.859-11.875,33.9-13.519,49.769c-0.685,6.622,0.146,13.451,0.607,20.072
	c0.542,7.781,0.578,15.557,0.976,23.338c0.745,14.555,3.881,28.846,5.116,43.344c1.104,12.968,0.087,25.894-9.812,35.393
	c-1.107,1.064-2.366,2.112-3.727,3.077c-2.693,0.957-5.621,1.499-8.739,1.564c-3.76,0.078-8.502,0.458-11.71-0.65
	c-0.899-0.312-1.918-0.971-2.968-1.795c-1.561-1.933-2.732-4.199-3.4-6.509c-1.606-5.562-1.562-11.978-1.998-17.731
	c-0.604-7.989-0.939-16.001-1.803-23.969c-0.881-8.126-1.895-16.275-4.331-24.108c-1.013-3.258-2.288-6.433-3.828-9.387
	c-4.419-11.993-13.648-22.836-26.958-22.466c-9.919,0.274-16.503,6.869-21.03,15.138c0.018,17.442,0.323,34.881,1.163,52.306
	c1.496,31.066,2.792,61.923,2.216,93.044c-1.145,61.771-4.05,123.343-3.381,185.153c0.318,29.302,0.89,58.599,1.6,87.893
	c0.486,3.983,1,7.956,1.558,11.912c1.779,12.596,4.298,24.336,10.439,35.631c3.226,5.934,7.309,11.102,12.535,14.39
	c0.578,9.005,0.997,18.004,1.301,26.998c2.964-0.082,5.931-0.167,8.895-0.245c39.02-1.032,78.04-0.771,117.065-0.265
	c80.044,1.035,160.068,3.431,240.119,3.994c161.302,1.136,322.657-0.99,483.954-2.171c162.254-1.188,324.515-2.261,486.775-1.59
	c157.925,0.654,315.747,4.703,473.644,7.12c150.344,2.302,301.028,2.105,451.018-9.624c0.617-19.921,1.492-39.838,2.386-59.75
	C2291.515,749.633,2291.403,710.476,2291.203,671.319z M63.972,565.968c-0.055-1.492-0.113-2.984-0.168-4.477
	c0.761-0.132,1.51-0.381,2.226-0.764C65.231,562.432,64.553,564.207,63.972,565.968z M101.585,312.226
	c0.057-3.2,0.189-6.395,0.404-9.582C101.962,305.834,101.762,309.033,101.585,312.226z M117.618,281.068
	c0.009-1.133,0.057-2.274,0.213-3.333c0.012-0.075,0.056-0.223,0.111-0.394c0.629,1.019,1.226,2.32,1.679,3.344
	c0.074,0.169,0.134,0.348,0.205,0.519C119.096,281.058,118.353,281.005,117.618,281.068z M340.12,666.801
	c3.385-2.481,6.308-5.403,8.858-8.637c0.069,0.072,0.145,0.135,0.216,0.203C347.318,662.557,344.339,665.479,340.12,666.801z
	 M485,368.089c-0.034-0.81-0.071-1.627-0.118-2.448c0.521,1.756,0.926,3.564,1.228,5.398
	C485.77,370.056,485.395,369.072,485,368.089z M678.756,402.469c-0.953-5.362-2.411-10.664-4.691-15.581
	c-0.666-1.438-1.514-3.024-2.502-4.583c5.366,5.336,6.375,12.873,7.294,20.125c0.1,0.791,0.189,1.583,0.286,2.37
	C679.01,404.023,678.893,403.242,678.756,402.469z M686.43,507.119c0-1.717,0.002-3.434-0.001-5.154
	c0.1,1.906,0.222,3.809,0.358,5.708C686.668,507.491,686.551,507.305,686.43,507.119z M852.767,416.91
	c-0.524-0.204-1.05-0.402-1.6-0.566c0.683-1.105,1.317-2.241,1.879-3.414C852.931,414.258,852.858,415.582,852.767,416.91z
	 M854.847,580.994c-0.466-2.401-0.967-4.792-1.542-7.168c0.516,0.53,1.096,0.979,1.711,1.372
	C854.95,577.13,854.904,579.06,854.847,580.994z M903.334,821.76c-0.597,3.443-1.636,8.114-3.234,11.201
	c-0.434,0.836-2.669,3.252-1.854,3.061c-0.44,0.102-0.915,0.014-1.41-0.217c3.038-5.001,4.709-11.333,5.914-16.418
	c0.787-3.327,1.474-6.672,2.114-10.028C904.519,813.494,904.051,817.618,903.334,821.76z M2017.505,527.515
	c-0.144-1.459-0.275-2.919-0.38-4.381c0.273,1.097,0.545,2.196,0.831,3.297C2017.79,526.777,2017.64,527.14,2017.505,527.515z"/>
<path class="hills1" fill="#7FA4A5" d="M4610.436,671.319c-0.329-64.355,0.164-128.776-0.907-193.122c-1.043-62.627-7.626-124.98-11.512-187.458
	c-1.162-18.659-9.589-63.284-14.219-65.18c-18.518-7.584-40.048-4.85-57.289,4.625c-18.166,9.983-22.879,32.392-22.196,51.599
	c0.822,23.075,1.57,46.226,3.075,69.271c2.151,32.925,5.492,65.974,6.005,99.027c-2.219,10.306-3.823,20.686-6.533,30.896
	c-1.933,7.285-5.136,18.331-14.415,17.552c-9.875-0.831-13.952-14.031-15.079-22.253c-1.794-13.096-0.657-26.719-1.171-39.922
	c-0.561-14.39-1.657-28.708-3.284-43.018c-1.562-13.729-0.439-27.565-0.373-41.343c0.064-13.541-0.799-27.081-1.016-40.618
	c-0.238-14.814-1.771-29.903-3.49-44.611c-0.703-6.024-1.444-11.705-1.702-17.766c-0.278-6.536-1.131-13.215-4.573-18.896
	c-0.447-0.737-0.939-1.386-1.461-1.963c-0.592-1.714-1.222-3.425-1.939-5.124c-6.696-15.853-22.675-34.302-42.118-28.648
	c-13.204,3.839-19.823,17.971-22.967,30.419c-6.848,27.123-4.964,56.522-2.399,84.165c1.194,12.863,1.767,25.769,2.77,38.648
	c1.008,12.977,3.557,25.711,4.855,38.628c2.425,24.08,4.484,48.116,3.471,72.341c-0.682,16.23-2.112,38.634-17.168,48.199
	c-21.48,13.649-18.059-25.062-18.367-35.939c-1.557-55.109-0.141-110.253-3.044-165.326c-1.446-27.437-2.405-54.883-2.593-82.354
	c-0.116-17.039-0.76-33.941-4.375-50.639c-3.098-14.307-12.613-33.879-29.4-35.171c-16.43-1.263-24.178,16.073-28.119,29.211
	c-5.207,17.349-6.396,35.467-7.113,53.496c-0.973,24.452-0.729,48.957-0.309,73.43c-0.061,0.984-0.035,1.967,0.053,2.947
	c0.037,2.119,0.073,4.236,0.112,6.353c0.093,5.015,0.12,10.03,0.122,15.047c-0.536,2.146-1.21,4.195-1.992,5.966
	c-2.02,4.567-4.94,7.859-9.271,7.814c-4.33-0.043-9.529-2.087-12.154-5.673c-10.678-14.583-4.031-36.676-8.316-53.278
	c-3.108-12.043-11.762-20.22-24.285-20.464c-11.161-0.22-19.092,8.606-21.787,18.819c-3.237,12.273-1.52,25.726-1.194,38.293
	c0.386,14.828,0.292,29.659,0.644,44.486c0.357,15.148,1.873,30.1,1.883,45.262c0.004,6.93,0.174,13.837,0.368,20.748
	c-1.658,4.458-2.592,9.391-3.132,14.698c-0.869,8.541-0.119,17.885,0.111,26.479c0.27,10.081,0.545,20.183,1.02,30.257
	c0.923,19.658,1.207,39.455,1.003,59.122c-0.065,6.233-0.703,12.052-1.812,18.151c-0.979,5.396-3.443,13.281-8.157,16.706
	c-1.54,1.118-5.751,2.955-7.611,3.368c-1.898,0.42-4.007-0.272-5.98,0.096c-1.672,0.314-2.465,0.968-4.16,0.761
	c-6.74-0.83-11.969-3.545-14.734-9.712c-3.569-7.959-2.957-17.519-3.812-26.236c-1.046-10.647-1.559-21.531-1.786-32.235
	c-0.429-20.233-0.393-40.473-0.739-60.707c-0.359-20.947-1.07-41.822-1.924-62.746c-0.832-20.384-3.618-40.824-5.428-61.146
	c-1.732-19.465-0.904-38.723-4.664-57.969c-2.372-12.141-9.943-24.994-18.719-33.706c-8.449-8.385-19.33-14.396-31.16-13.347
	c-13.977,1.238-23.809,12.363-28.859,25.147c-6.001,15.181-6.625,33.446-5.541,49.541c1.222,18.13,2.949,36.202,3.754,54.374
	c1.705,38.48-3.061,76.728-0.933,115.199c2.083,37.641,9.302,75.867,7.274,113.577c-0.398,7.414-0.177,14.566-5.219,20.354
	c-3.607,4.145-8.994,6.159-14.417,3.243c-5.584-3.003-8.306-10.204-9.062-16.11c-1.058-8.25-0.301-16.883-0.676-25.19
	c-1.81-40.224-3.594-80.524-3.98-120.821c-0.197-20.623,0.131-41.162,0.452-61.778c0.146-9.381,0.219-18.713,0.04-28.094
	c-0.196-10.357-1.837-20.558-2.391-30.883c-0.889-16.609-0.413-32.979-3.197-49.4c-2.197-12.957-5.517-25.239-17.113-32.775
	c-24.994-16.242-57.195,2.114-66.762,27.412c-2.704,7.15-3.877,16.166-4.8,23.75c-1.072,8.818-2.052,17.785-2.167,26.672
	c-0.236,18.357-1.875,36.613-2.516,54.958c-0.676,19.227-0.186,38.654,0.01,57.894c0.201,19.681,2.261,39.376,2.108,59.025
	c-0.054,6.955-0.857,12.921-7.271,16.473c-1.95,1.079-0.838,1.786-3.142,1.87c-0.898,0.033-4.794-1.627-5.668-2.046
	c-3.213-1.534-5.705-6.155-7.392-9.41c-7.921-15.283-9.466-35.912-10.676-52.745c-1.429-19.889-1.625-39.835-1.25-59.78
	c0.28-14.833,1.993-31.035-3.453-45.191c-7.692-19.997-26.563-46.633-50.918-34.704c-5.192,2.545-10.726,8.297-13.786,13.139
	c-4.643,7.344-6.826,13.745-8.472,22.25c-3.379,17.465-4.187,35.009-4.474,52.823c-0.152,9.418-0.531,19.523-2.856,28.693
	c-1.405,5.535-3.737,11.193-8.691,13.839c-3.661,1.954-5.251,2.463-9.159,1.99c-5.016-0.608-4.864,0.89-8.178-3.066
	c-2.422-2.892-2.852-4.078-4.045-7.932c-1.121-3.62-1.93-7.21-2.733-10.968c-1.908-8.921-2.858-17.426-2.313-26.579
	c0.48-8.044,0.293-16.335-0.578-24.345c-1.434-13.163-4.293-27.961-11.633-39.07c-7.513-11.369-22.118-12.252-34.027-6.985
	c-12.24,5.416-22.982,15.234-32.028,24.896c-23.49,25.093-27.606,61.526-30.378,94.49c-0.095,1.118-0.17,2.238-0.256,3.359
	c-0.164,0.249-0.334,0.494-0.492,0.749c-8.311,13.435-7.074,29.416-5.854,44.731c1.285,16.137,3.49,36.557-7.426,50.072
	c-3.262,4.039-8.469,7.428-13.416,8.243c-6.352,1.052-10.565,0.006-16.269-2.84c-13.138-6.554-16.456-21.834-18.946-35.425
	c-3.311-18.085-5.377-36.341-8.98-54.383c-0.086-4.561-0.188-9.122-0.301-13.68c-0.825-33.12,4.309-69.3-5.082-101.696
	c-0.109-1.091-0.43-2.087-0.911-2.974c-0.39-1.217-0.795-2.429-1.229-3.633c-6.913-19.179-25.207-50.094-49.986-39.339
	c-13.84,6.005-18.198,17.841-18.254,32.081c-0.074,19.221-2.654,38.191-1.994,57.455c0.726,21.139,2.866,42.196,3.852,63.32
	c0.685,14.657,0.99,28.918,2.729,43.488c1.53,12.817,3.54,26.688,0.273,39.374c-1.982,7.701-8.174,16.338-16.85,16.971
	c-12.083,0.883-16.45-19.356-18.572-28.055c-4.57-18.724-5.932-38.199-6.572-57.411c-0.595-17.842-0.756-35.559-1.643-53.398
	c-1.016-20.409-1.435-40.845-2.399-61.256c-0.958-20.257-4.302-40.28-6.556-60.422c-2.213-19.766-3.709-39.637-3.595-59.535
	c0.11-19.426-2.813-38.384-3.525-57.712c-0.89-24.168-5.789-72.694-41.559-66.592c-35.024,5.974-33.841,54.323-33.07,80.804
	c0.565,19.479,3.161,38.821,3.862,58.291c0.719,19.952-0.187,39.931,0.782,59.881c0.849,17.462,7.494,37.516,0.327,54.474
	c-1.639,3.877-5.834,11.676-10.075,13.092c-0.329,0.109-0.567,0.209-0.745,0.3c0.099-0.223,0.146-0.559,0.025-1.039
	c-1.049-4.226-1.795-8.674-2.709-12.977c-4.014-18.884-3.836-38.45-4.383-57.675c-0.371-13.076-1.402-26.164-2.802-39.169
	c-2.222-20.632-6.281-49.117-28.663-57.461c-22.49-8.383-35.816,10.584-39.649,30.37c-4.042,20.856-2.786,42.05-2.732,63.157
	c0.049,19.486,0.915,39.017,2.511,58.438c0.347,4.219,0.818,8.467,1.334,12.729c-1.27,1.624-1.895,3.791-1.303,6.36
	c4.396,19.053,1.391,38.286,2.191,57.579c0.529,12.718,4.534,30.597-5.23,40.797c-7.299,7.624-18.953,11.348-29.071,12.017
	c-3.237,0.215-5.257,0.377-8.466,0.131c-1.402-0.107-2.958,0.671-4.236,0.513c-1.309-0.165-2.261-1.119-3.57-1.325
	c-1.217-0.195-2.32,0.416-3.499,0.104c-1.407-0.375-2.872-1.555-4.269-2.097c-0.973-0.381-1.676,0.156-2.643-0.258
	c-0.789-0.338-4.253-2.269-4.83-2.745c-4.402-3.631-7.35-11.222-8.859-16.763c-2.064-7.57-3.414-15.583-4.314-23.366
	c-1.102-9.53-1.812-18.456-1.665-28.085c0.113-7.351,1.006-14.758,1.792-22.003c1.907-17.6,1.602-37.458-5.133-53.963
	c-0.896-2.195-1.969-4.378-3.232-6.437c-0.216-3.352-0.432-6.704-0.641-10.057c-2.49-40.034-2.892-79.968-7.686-119.82
	c-1.615-13.423-2.679-28.15-10.479-39.655c-7.377-10.88-23.282-20.457-34.237-8.522c-4.242,4.62-6.125,11.227-7.546,17.189
	c-2.136,8.958-4.272,17.959-6.48,26.919c-5.004,20.304-7.333,40.936-7.634,61.823c-0.549,38.312,1.83,76.384,4.154,114.574
	c0.137,10.175-0.39,20.361-2.771,29.949c-1.111,4.48-2.912,9.098-6.049,12.433c-4.43,0.33-8.717,1.846-11.809,4.717
	c-6.461-0.267-13.031-4.036-16.44-9.229c-5.188-7.899-4.329-15.987-3.817-24.964c0.545-9.541-0.985-19.06-1.706-28.599
	c0.312-9.497,0.515-18.992,0.552-28.483c0.072-18.253-0.594-36.738-2.775-54.874c-1.988-16.518-4.201-32.9-9.768-48.653
	c-2.809-7.948-6.01-15.184-11.02-21.976c-4.655-6.312-11.033-10.504-18.066-13.767c-12.498-5.797-28.111-3.463-36.626,7.805
	c-7.118,9.418-11.479,22.643-12.903,34.296c-2.228,18.203-1.144,36.147,0.739,54.335c1.033,9.973,2.689,19.873,3.712,29.846
	c1.015,9.888,1.004,19.728,1.277,29.648c0.533,19.335,2.646,38.577,4.357,57.832c0.741,8.331,1.36,16.667,1.923,25.008
	c-0.173,13.62,0.169,27.305,0.286,40.859c0.164,18.873-0.271,37.752,1.35,56.581c0.144,1.672,0.266,3.344,0.378,5.014
	c-0.938,3.497-2.164,6.877-3.813,10.047c-1.381,2.652-3.871,6.476-6.924,9.412c-1.465,0.175-2.929,0.349-4.389,0.521
	c-2.609,0.31-6.504,0.863-10.195,0.975c-3.439-3.495-5.371-9.476-6.611-13.489c-2.17-7.018-3.593-14.293-4.367-21.6
	c-1.458-13.781-1.565-27.779-2.053-41.621c-0.512-14.549-1.807-28.861-3.107-43.341c-1.189-13.227-2.535-26.967-5.293-39.97
	c-2.053-9.673-9.621-20.636-20.44-21.423c-4.454-0.322-7.839,0.92-10.447,3.151c-1.37,0.282-2.685,0.766-3.763,1.624
	c-4.072,3.251-4.818,7.211-5.328,11.943c-0.803,7.463-2.35,14.87-2.797,22.31c-0.291,4.831-0.417,9.667-0.445,14.507
	c-1.55,11.96-1.062,24.438-1.664,36.155c-0.007,0.123-0.01,0.246-0.018,0.372c-2.138,2.403-3.122,5.96-1.465,9.697
	c0.309,0.695,0.603,1.396,0.884,2.1c0.027,0.09,0.05,0.183,0.077,0.273c-0.467,13.542-0.591,27.11-0.506,40.662
	c-1.454,10.354-1.549,22.391-8.049,30.896c-4.878,6.383-12.76,5.591-18.95,1.819c-2.64-3.209-3.821-7.264-5.68-11.114
	c-5.528-11.457-3.397-25.619-3.967-37.938c-0.651-14.1-2.954-28.124-3.279-42.22c-0.34-14.676-0.177-29.351-0.062-44.025
	c0.223-28.992,0.052-58.039-4.651-86.717c-2.603-15.872-7.029-36.466-21.229-46.21c-6.449-4.426-14.529-5.181-21.725-1.978
	c-4.741,2.111-7.614,6.372-9.516,11.103c-8.043,10.345-8.946,25.192-8.875,38.367c0.103,18.977-0.422,37.992-0.913,56.999
	c-0.294,3.939-0.63,7.876-1.044,11.81c-1.482,14.071-3.1,29.836-9.607,42.632c-0.391,0.767-0.834,1.594-1.332,2.421
	c-1.981,0.636-3.983,1.208-5.97,1.756c-3.093,0.851-6.263,1.627-9.466,1.954c-3.418-2.864-5.908-7.453-7.091-11.027
	c-5.557-16.803-1.735-36.083-2.981-53.437c-1.244-17.335-9.666-38.326-30.803-36.721c-1.749,0.133-3.273,0.551-4.613,1.177
	c-2.025-0.388-4.144-0.544-6.363-0.405c-23.443,1.468-24.406,34.759-24.131,51.884c0.104,6.417,0.646,12.698,0.281,19.141
	c-0.373,6.596-1.078,13.168-1.501,19.757c-0.888,13.857-0.487,27.857-0.437,41.741c0.057,15.721,0.034,31.441,0.004,47.162
	c-2.984,8.984-7.584,17.237-15.197,22.056c-3.891,2.463-8.243,3.695-12.639,3.893c-0.252-0.024-0.504-0.045-0.758-0.069
	c-2.35-0.201-4.737-0.401-7.115-0.671c-5.471-1.294-10.609-4.148-14.552-8.262c-6.604-6.89-10.192-16.3-12.543-25.644
	c-0.058-1.507-0.112-3.014-0.177-4.521c-0.483-11.121-1.062-22.235-1.658-33.348c-0.016-26.664,0.336-53.343,0.783-79.977
	c0.659-39.374,2.813-78.786-0.107-118.121c-1.814-24.444-0.69-61.558-27.436-73.303c-11.332-4.977-25.248-2.459-34.864,4.654
	c-8.218,6.078-12.404,16.497-13.999,26.347c-0.827,5.112-1.293,10.248-1.549,15.397c-0.718,2.947-1.264,5.613-1.635,7.796
	c-1.684,9.87-1.693,19.822-1.633,29.801c0.063,10.268-0.836,20.214-1.664,30.422c-1.604,19.774-0.017,39.125,1.135,58.849
	c0.674,11.53,1.223,23.062,1.45,34.6c-6.959,30.42,2.571,63.404-4.671,93.824c-0.612,2.574-1.365,5.229-2.32,7.821
	c-2.715,1.858-5.854,2.463-9.787,1.438c-6.359-1.655-9.29-7.704-11.059-14.252c-0.529-21.21-1.918-42.388-2.71-63.586
	c-0.705-18.888,1.198-38.585-3.835-56.975c-0.386-3.325-0.862-6.646-1.479-9.962c-2.05-11.052-5.938-20.715-14.8-28.081
	c-7.288-6.056-16.911-9.076-25.98-5.183c-22.007,9.45-20.823,37.858-21.643,57.609c-0.255,6.143-1.343,12.205-1.36,18.369
	c-0.02,7.115,0.807,14.21,1.8,21.238c0.271,4.522,0.825,9.086,1.946,13.425c1.397,9.697,2.682,19.386,3.265,29.209
	c1.116,18.783,3.075,52.816-19.758,60.054c-7.7,2.438-16.594-0.09-20.181-7.726c-2.381-5.073-2.238-10.851-2.723-16.347
	c-0.473-5.355-0.861-10.719-1.219-16.086c0.572-22.134,1.273-44.262,0.896-66.41c-0.537-31.557-2.467-63.055-4.712-94.528
	c0.179-8.008,0.517-16.031,0.97-24.082c0.776-13.765-0.988-29.222-6.388-41.971c-2.493-5.887-6.146-11.886-12.312-14.396
	c-6.202-2.528-12.908-0.805-17.709,3.718c-12.596,11.859-11.875,33.9-13.52,49.769c-0.685,6.622,0.146,13.451,0.607,20.072
	c0.541,7.781,0.578,15.557,0.976,23.338c0.745,14.555,3.882,28.846,5.116,43.344c1.104,12.968,0.087,25.894-9.812,35.393
	c-1.107,1.064-2.366,2.112-3.728,3.077c-2.693,0.957-5.621,1.499-8.738,1.564c-3.76,0.078-8.502,0.458-11.71-0.65
	c-0.899-0.312-1.918-0.971-2.968-1.795c-1.562-1.933-2.732-4.199-3.4-6.509c-1.606-5.562-1.562-11.978-1.998-17.731
	c-0.604-7.989-0.939-16.001-1.803-23.969c-0.882-8.126-1.896-16.275-4.331-24.108c-1.013-3.258-2.288-6.433-3.828-9.387
	c-4.419-11.993-13.647-22.836-26.958-22.466c-9.918,0.274-16.502,6.869-21.029,15.138c0.018,17.442,0.323,34.881,1.162,52.306
	c1.496,31.066,2.793,61.923,2.217,93.044c-1.145,61.771-4.051,123.343-3.381,185.153c0.317,29.302,0.89,58.599,1.6,87.893
	c0.486,3.983,1,7.956,1.559,11.912c1.778,12.596,4.298,24.336,10.438,35.631c3.226,5.934,7.31,11.102,12.535,14.39
	c0.578,9.005,0.997,18.004,1.301,26.998c2.964-0.082,5.931-0.167,8.895-0.245c39.02-1.032,78.04-0.771,117.065-0.265
	c80.044,1.035,160.068,3.431,240.118,3.994c161.302,1.136,322.657-0.99,483.954-2.171c162.254-1.188,324.515-2.261,486.774-1.59
	c157.925,0.654,315.747,4.703,473.644,7.12c150.345,2.302,301.028,2.105,451.019-9.624c0.617-19.921,1.492-39.838,2.386-59.75
	C4610.747,749.633,4610.636,710.476,4610.436,671.319z M2383.205,565.968c-0.055-1.492-0.113-2.984-0.168-4.477
	c0.761-0.132,1.51-0.381,2.226-0.764C2384.463,562.432,2383.785,564.207,2383.205,565.968z M2420.818,312.226
	c0.057-3.2,0.189-6.395,0.404-9.582C2421.194,305.834,2420.994,309.033,2420.818,312.226z M2436.851,281.068
	c0.009-1.133,0.057-2.274,0.214-3.333c0.012-0.075,0.056-0.223,0.111-0.394c0.629,1.019,1.226,2.32,1.679,3.344
	c0.074,0.169,0.134,0.348,0.205,0.519C2438.328,281.058,2437.586,281.005,2436.851,281.068z M2659.353,666.801
	c3.385-2.481,6.308-5.403,8.858-8.637c0.068,0.072,0.145,0.135,0.215,0.203C2666.551,662.557,2663.571,665.479,2659.353,666.801z
	 M2804.232,368.089c-0.033-0.81-0.071-1.627-0.117-2.448c0.521,1.756,0.926,3.564,1.228,5.398
	C2805.002,370.056,2804.627,369.072,2804.232,368.089z M2997.988,402.469c-0.953-5.362-2.411-10.664-4.691-15.581
	c-0.666-1.438-1.514-3.024-2.502-4.583c5.366,5.336,6.375,12.873,7.294,20.125c0.101,0.791,0.189,1.583,0.286,2.37
	C2998.242,404.023,2998.125,403.242,2997.988,402.469z M3005.662,507.119c0.001-1.717,0.002-3.434-0.001-5.154
	c0.1,1.906,0.222,3.809,0.358,5.708C3005.9,507.491,3005.783,507.305,3005.662,507.119z M3172,416.91
	c-0.524-0.204-1.051-0.402-1.6-0.566c0.683-1.105,1.316-2.241,1.879-3.414C3172.163,414.258,3172.091,415.582,3172,416.91z
	 M3174.079,580.994c-0.466-2.401-0.967-4.792-1.542-7.168c0.516,0.53,1.096,0.979,1.711,1.372
	C3174.183,577.13,3174.137,579.06,3174.079,580.994z M3222.566,821.76c-0.597,3.443-1.635,8.114-3.233,11.201
	c-0.434,0.836-2.669,3.252-1.854,3.061c-0.44,0.102-0.915,0.014-1.41-0.217c3.038-5.001,4.71-11.333,5.913-16.418
	c0.787-3.327,1.475-6.672,2.115-10.028C3223.751,813.494,3223.283,817.618,3222.566,821.76z M4336.738,527.515
	c-0.145-1.459-0.275-2.919-0.381-4.381c0.273,1.097,0.545,2.196,0.831,3.297C4337.022,526.777,4336.872,527.14,4336.738,527.515z"/>
<g>
	<path class="hills2" opacity="0.73" fill="#82A53C" d="M1257.594,772.495c0.443-5.229,1.031-10.447,1.3-15.688
		c1.207-23.511,0.271-47.433,0.062-70.971c-0.236-26.668-1.49-53.316-2.325-79.969c-0.811-25.891-0.748-51.714-2.428-77.575
		c-1.564-24.089-2.386-48.065-5.304-72.063c-2.584-21.248-6.62-42.708-19.917-60.031c-21.347-27.806-58.321-38.395-91.998-32.811
		c-38.623,6.404-66.025,39.835-76.088,76.063c-10.158,36.576-3.669,75.255-2.214,112.472c1.227,31.395,2.029,74.834-31.986,89.66
		c-12.764,5.563-27.825,5.75-40.085-1.269c-15.395-8.815-26.945-27.361-33.753-43.233c-7.828-18.251-10.916-38.409-13.585-57.954
		c-3.336-24.425-6.869-48.83-9.99-73.283c-1.03-8.07-2.003-16.151-2.946-24.234c1.359-13.25,1.511-26.743,1.463-40.27
		c-0.055-15.731-1.6-31.349-2.455-47.071c-0.918-16.875-1.478-33.814-2.916-50.651c-4.501-52.675-2.223-112.559-42.772-151.764
		c-4.338-4.194-8.83-8.131-13.486-11.76c-9.632-9.044-20.917-15.381-32.999-18.687c-4.149-1.516-8.413-2.787-12.805-3.772
		c-11.478-2.578-23.041-0.562-33.491,4.158c-2.807,1.269-5.435,2.967-7.895,4.958c-11.305,5.39-21.309,13.278-28.271,23.88
		c-4.443,6.767-8.63,14.789-10.614,22.628c-2.311,9.135-2.254,18.687-3.078,28.017c-0.834,9.438-3.896,18.585-6.214,27.731
		c-2.751,10.855-3.924,21.583-4.583,32.725c-1.351,22.841,0.365,45.694,1.001,68.527c1.038,37.265-0.508,78.597-16.597,112.993
		c-7.042,15.055-17.496,30.556-32.454,38.659c-15.201,8.235-33.738,6.24-48.92-0.997c-70.074-33.394-54.674-127.698-54.543-190.666
		c0.005-2.645-0.731-4.812-1.931-6.522c0.275-8.464,0.567-16.929,0.883-25.393c0.942-25.262,2.262-50.909-0.159-76.118
		c-2.339-24.364-7.168-48.333-14.724-71.625c-13.046-40.222-32.683-90.601-79.61-98.745c-21.302-3.698-43.394-12.392-65.079-6.2
		c-16.577,4.733-29.626,16.047-39.081,30.215c-20.347,30.494-22.358,68.215-22.977,103.624c-0.474,27.045-2.336,54.073-3.371,81.1
		c-1.019,26.596,0.917,52.754,2.844,79.242c0.898,12.349,1.394,24.726,2.37,37.072c0.849,10.752,2.583,21.43,3.263,32.189
		c0.567,8.96,0.851,18.414-1.555,27.144c-2.516,9.136-7.95,14.344-15.051,20.22c-7.018,5.804-13.847,7.582-22.881,6.933
		c-4.822-0.346-9.487-1.6-14.171-2.794c-4.62-1.176-9.483-1.846-13.935-3.675c-19.394-7.972-17.725-30.092-17.634-47.896
		c0.244-46.784,9.933-93.029,0.895-139.602c-7.966-41.046-31.229-76.021-67.668-97.063c-16.777-9.689-35.808-15.987-55.294-15.394
		c-20.72,0.629-38.689,9.806-52.898,24.696C65.674,174.422,66.928,219.034,69.79,261.2c3.371,49.635,4.816,101.619-4.496,150.716
		c-1.865,9.832-3.962,19.94-8.929,28.744c-4.09,7.253-10.445,15.296-18.618,18.105c-10.268,3.529-22.666,3.677-34.243,1.443
		c0.135,9.696,0.155,19.401-0.026,29.134c-1.145,61.771-4.05,123.343-3.381,185.153c0.641,59.173,2.306,118.327,4.088,177.476
		c10.748-0.292,21.495-0.613,32.24-0.897c39.02-1.032,78.04-0.771,117.065-0.265c80.044,1.035,160.068,3.431,240.119,3.994
		c161.302,1.136,322.657-0.99,483.954-2.171c127.984-0.938,255.972-1.789,383.96-1.783c-0.615-10.941-1.653-21.798-2.49-32.805
		c-0.164-2.154-0.435-4.549-0.692-7.054c4.404-4.339,5.602-12.379,0.319-16.547c-0.186-0.146-0.354-0.32-0.506-0.518
		c0.425-2.569,1.167-4.962,2.378-7.028C1263.909,781.13,1261.709,775.631,1257.594,772.495z"/>
	<path class="hills2" opacity="0.73" fill="#82A53C" d="M2284.025,635.762c-0.364,17.213-1.191,34.716-2.868,51.834
		c-1.375,14.021-0.393,29.391-6.135,42.191c-4.447,9.916-12.855,14.282-23.688,15.615c-2.728,0.335-4.004-0.718-6.691-1.222
		c-3.177-0.593-6.563,0.519-9.616-0.155c-2.995-0.664-9.767-3.617-12.242-5.418c-7.578-5.506-11.54-18.186-13.116-26.865
		c-1.783-9.806-2.811-19.161-2.916-29.187c-0.326-31.625,0.129-63.457,1.615-95.07c0.761-16.204,1.205-32.445,1.64-48.654
		c0.368-13.822,1.573-28.848,0.176-42.581c-0.866-8.531-2.367-16.465-5.035-23.637c0.312-11.109,0.585-22.218,0.591-33.363
		c0.015-24.378,2.454-48.425,3.029-72.782c0.563-23.844,0.415-47.692,1.034-71.537c0.524-20.21,3.287-41.84-1.92-61.575
		c-4.334-16.425-17.087-30.618-35.034-30.264c-20.139,0.393-34.052,13.542-39.05,32.907c-6.89,26.696,3.793,62.222-13.371,85.674
		c-4.222,5.766-12.583,9.053-19.551,9.122c-6.964,0.072-11.66-5.22-14.906-12.562c-1.258-2.85-2.342-6.146-3.203-9.596
		c0.003-8.07,0.045-16.131,0.194-24.195c0.063-3.404,0.12-6.811,0.184-10.218c0.137-1.574,0.18-3.155,0.083-4.738
		c0.674-39.354,1.067-78.757-0.497-118.077c-1.154-28.99-3.065-58.125-11.438-86.023c-6.338-21.13-18.798-49.005-45.217-46.975
		c-26.998,2.075-42.298,33.551-47.279,56.555c-5.813,26.853-6.848,54.033-7.033,81.432c-0.303,44.174-1.843,88.308-4.172,132.428
		c-4.669,88.558-2.391,177.232-4.896,265.852c-0.492,17.492,5.01,79.741-29.533,57.794c-24.209-15.382-26.508-51.409-27.605-77.509
		c-1.633-38.953,1.681-77.607,5.58-116.327c2.088-20.773,6.188-41.251,7.81-62.12c1.609-20.71,2.532-41.459,4.453-62.145
		c4.124-44.45,7.154-91.727-3.859-135.341c-5.056-20.018-15.696-42.742-36.931-48.915c-31.269-9.092-56.961,20.575-67.729,46.068
		c-1.153,2.729-2.167,5.48-3.117,8.237c-0.842,0.929-1.633,1.972-2.349,3.159c-5.538,9.134-6.908,19.874-7.354,30.384
		c-0.417,9.745-1.606,18.882-2.739,28.57c-2.764,23.648-5.229,47.913-5.613,71.733c-0.347,21.771-1.735,43.542-1.633,65.316
		c0.105,22.154,1.909,44.406-0.603,66.479c-2.616,23.012-4.378,46.034-5.277,69.176c-0.827,21.229,0.998,43.138-1.885,64.198
		c-1.81,13.222-8.366,34.449-24.247,35.781c-14.922,1.252-20.074-16.509-23.181-28.222c-4.356-16.417-6.936-33.112-10.503-49.681
		c0.821-53.155,6.196-106.295,9.653-159.242c2.422-37.06,3.623-74.288,4.945-111.39c1.101-30.889-6.479-66.92-35.691-82.974
		c-27.728-15.238-62.347-19.634-92.125-7.438c-15.103,6.185-25.002,21.81-31.679,35.796c-6.928,14.519-8.383,30.686-10.163,46.46
		c-4.035,35.755-3.293,71.979-2.872,107.93c0.503,43.098-1.716,86.033-4.278,129.039c-2.179,36.528-2.067,72.362,0.699,108.546
		c-1.262,21.391-1.843,42.807-2.068,64.236c-23.885,0.932-47.832,1.531-71.703,1.048c-23.504-0.473-47.834-3.64-70.571,4.251
		c-36.693,12.74-42.574,50.034-43.633,84.608c-1.1,35.951,3.213,71.807,4.718,107.683c0.018,0.431,0.031,0.859,0.049,1.289
		c152.143,0.863,304.197,4.677,456.319,7.005c150.346,2.302,301.033,2.105,451.025-9.625c0.834-26.922,2.135-53.831,3.316-80.739
		c1.742-39.711,2.473-79.388,3.054-119.128C2296.525,570.239,2284.717,603.226,2284.025,635.762z M2010.448,645.828
		c-0.215-0.604-0.458-1.187-0.725-1.747c0.461-1.766,0.896-3.533,1.34-5.301C2010.888,641.133,2010.679,643.481,2010.448,645.828z"
		/>
</g>
<g>
	<path class="hills2" opacity="0.73" fill="#82A53C" d="M3488.158,832.495c0.443-5.229,1.031-10.447,1.301-15.688
		c1.206-23.511,0.27-47.433,0.062-70.971c-0.236-26.668-1.489-53.316-2.325-79.969c-0.811-25.891-0.748-51.715-2.428-77.575
		c-1.564-24.089-2.386-48.065-5.305-72.063c-2.584-21.248-6.619-42.708-19.917-60.031c-21.347-27.806-58.321-38.395-91.998-32.811
		c-38.622,6.404-66.024,39.835-76.088,76.063c-10.158,36.576-3.669,75.255-2.214,112.472c1.227,31.395,2.029,74.834-31.986,89.66
		c-12.764,5.563-27.824,5.75-40.085-1.269c-15.396-8.815-26.944-27.361-33.753-43.233c-7.828-18.251-10.916-38.409-13.586-57.954
		c-3.336-24.425-6.869-48.83-9.989-73.283c-1.03-8.07-2.003-16.151-2.946-24.234c1.359-13.25,1.512-26.743,1.464-40.27
		c-0.055-15.731-1.601-31.349-2.455-47.071c-0.919-16.875-1.478-33.814-2.916-50.651c-4.501-52.675-2.224-112.559-42.772-151.764
		c-4.338-4.194-8.83-8.131-13.486-11.76c-9.632-9.044-20.916-15.381-32.998-18.687c-4.15-1.516-8.414-2.787-12.805-3.772
		c-11.479-2.578-23.041-0.562-33.492,4.158c-2.807,1.269-5.435,2.967-7.895,4.958c-11.305,5.39-21.309,13.278-28.271,23.88
		c-4.442,6.767-8.63,14.789-10.614,22.628c-2.311,9.135-2.254,18.687-3.078,28.017c-0.834,9.438-3.895,18.585-6.214,27.731
		c-2.751,10.855-3.924,21.583-4.583,32.725c-1.351,22.841,0.365,45.694,1.001,68.527c1.038,37.265-0.508,78.597-16.597,112.993
		c-7.042,15.055-17.496,30.556-32.455,38.659c-15.2,8.235-33.737,6.24-48.92-0.997c-70.074-33.394-54.674-127.698-54.543-190.666
		c0.005-2.645-0.731-4.812-1.931-6.522c0.274-8.464,0.567-16.929,0.884-25.393c0.941-25.262,2.262-50.909-0.16-76.118
		c-2.339-24.364-7.168-48.333-14.723-71.625c-13.047-40.222-32.684-90.601-79.611-98.745c-21.302-3.698-43.393-12.392-65.078-6.2
		c-16.576,4.733-29.626,16.047-39.08,30.215c-20.348,30.494-22.359,68.215-22.978,103.624c-0.474,27.045-2.336,54.073-3.37,81.1
		c-1.02,26.596,0.916,52.754,2.844,79.242c0.898,12.349,1.394,24.726,2.369,37.072c0.85,10.752,2.583,21.43,3.264,32.189
		c0.566,8.96,0.851,18.414-1.555,27.144c-2.517,9.136-7.95,14.344-15.052,20.22c-7.018,5.804-13.847,7.582-22.881,6.933
		c-4.821-0.346-9.487-1.6-14.171-2.794c-4.62-1.176-9.484-1.846-13.936-3.675c-19.395-7.972-17.725-30.092-17.634-47.896
		c0.243-46.784,9.933-93.029,0.895-139.602c-7.966-41.046-31.229-76.021-67.668-97.063c-16.777-9.689-35.808-15.987-55.294-15.394
		c-20.721,0.629-38.689,9.806-52.898,24.696c-31.27,32.766-30.016,77.377-27.153,119.544c3.371,49.635,4.815,101.619-4.496,150.716
		c-1.865,9.832-3.962,19.94-8.929,28.744c-4.091,7.253-10.445,15.296-18.618,18.105c-10.269,3.529-22.665,3.677-34.243,1.443
		c0.135,9.696,0.154,19.401-0.025,29.134c-1.145,61.771-4.051,123.343-3.381,185.153c0.641,59.173,2.305,118.327,4.088,177.476
		c10.747-0.292,21.494-0.613,32.239-0.897c39.02-1.032,78.04-0.771,117.065-0.265c80.044,1.035,160.068,3.431,240.118,3.994
		c161.302,1.136,322.657-0.99,483.954-2.171c127.983-0.938,255.971-1.789,383.96-1.783c-0.615-10.941-1.653-21.798-2.49-32.805
		c-0.164-2.154-0.435-4.549-0.692-7.054c4.404-4.339,5.602-12.379,0.319-16.547c-0.187-0.146-0.354-0.32-0.507-0.518
		c0.426-2.569,1.168-4.962,2.379-7.028C3494.473,841.13,3492.273,835.631,3488.158,832.495z"/>
	<path class="hills2" opacity="0.73" fill="#82A53C" d="M4343.572,695.762c-0.364,17.213-1.191,34.716-2.868,51.834
		c-1.375,14.021-0.393,29.391-6.135,42.191c-4.447,9.916-12.855,14.282-23.688,15.615c-2.728,0.335-4.004-0.718-6.691-1.222
		c-3.177-0.593-6.563,0.519-9.616-0.155c-2.995-0.664-9.767-3.617-12.242-5.418c-7.578-5.506-11.54-18.186-13.116-26.865
		c-1.783-9.806-2.811-19.161-2.916-29.187c-0.326-31.625,0.129-63.457,1.615-95.069c0.762-16.204,1.205-32.445,1.64-48.655
		c0.368-13.822,1.573-28.848,0.177-42.581c-0.866-8.531-2.367-16.465-5.035-23.637c0.312-11.109,0.585-22.218,0.591-33.363
		c0.015-24.378,2.454-48.425,3.029-72.782c0.563-23.844,0.415-47.692,1.034-71.537c0.523-20.21,3.287-41.84-1.92-61.575
		c-4.334-16.425-17.088-30.618-35.035-30.264c-20.139,0.393-34.052,13.542-39.05,32.907c-6.89,26.696,3.793,62.222-13.371,85.674
		c-4.222,5.766-12.583,9.053-19.551,9.122c-6.964,0.072-11.659-5.22-14.906-12.562c-1.258-2.85-2.343-6.146-3.202-9.596
		c0.003-8.07,0.045-16.131,0.193-24.195c0.063-3.404,0.121-6.811,0.184-10.218c0.138-1.574,0.181-3.155,0.084-4.738
		c0.674-39.354,1.067-78.757-0.497-118.077c-1.154-28.99-3.065-58.125-11.438-86.023c-6.338-21.13-18.799-49.005-45.217-46.975
		c-26.998,2.075-42.299,33.551-47.279,56.555c-5.813,26.853-6.848,54.033-7.033,81.432c-0.303,44.174-1.843,88.308-4.172,132.428
		c-4.669,88.558-2.391,177.232-4.896,265.852c-0.491,17.492,5.01,79.741-29.533,57.794c-24.21-15.382-26.509-51.409-27.605-77.509
		c-1.633-38.953,1.681-77.607,5.58-116.327c2.089-20.773,6.188-41.251,7.81-62.12c1.609-20.71,2.532-41.459,4.453-62.145
		c4.123-44.45,7.153-91.727-3.859-135.341c-5.057-20.018-15.697-42.742-36.932-48.915c-31.268-9.092-56.961,20.575-67.729,46.068
		c-1.153,2.729-2.166,5.48-3.117,8.237c-0.842,0.929-1.633,1.972-2.348,3.159c-5.538,9.134-6.908,19.874-7.354,30.384
		c-0.417,9.745-1.606,18.882-2.739,28.57c-2.764,23.648-5.229,47.913-5.613,71.733c-0.347,21.771-1.734,43.542-1.633,65.316
		c0.105,22.154,1.909,44.406-0.603,66.479c-2.616,23.012-4.378,46.034-5.276,69.176c-0.828,21.229,0.998,43.138-1.885,64.198
		c-1.811,13.221-8.367,34.448-24.247,35.78c-14.923,1.253-20.074-16.509-23.181-28.222c-4.356-16.417-6.937-33.112-10.504-49.681
		c0.82-53.155,6.195-106.295,9.653-159.242c2.422-37.06,3.623-74.288,4.944-111.39c1.102-30.889-6.479-66.92-35.69-82.974
		c-27.728-15.238-62.347-19.634-92.125-7.438c-15.103,6.185-25.002,21.81-31.679,35.796c-6.928,14.519-8.383,30.686-10.163,46.46
		c-4.034,35.755-3.294,71.979-2.872,107.93c0.504,43.098-1.716,86.033-4.278,129.039c-2.179,36.528-2.067,72.362,0.698,108.546
		c-1.262,21.391-1.842,42.807-2.067,64.236c-23.886,0.932-47.831,1.531-71.703,1.048c-23.505-0.473-47.835-3.64-70.571,4.251
		c-36.692,12.74-42.573,50.034-43.633,84.608c-1.1,35.951,3.213,71.807,4.719,107.683c0.018,0.431,0.031,0.859,0.049,1.289
		c152.143,0.863,304.197,4.677,456.318,7.005c150.346,2.302,301.033,2.105,451.025-9.625c0.834-26.922,2.135-53.831,3.316-80.739
		C4353.611,788.088,4344.264,663.226,4343.572,695.762z M4069.994,705.828c-0.215-0.604-0.458-1.187-0.725-1.747
		c0.461-1.766,0.896-3.533,1.34-5.301C4070.436,701.133,4070.227,703.481,4069.994,705.828z"/>
</g>
<path class="hills3" opacity="0.6" fill="#557C3E" d="M2194.776,529.265c3.888,30.575,6.632,61.287,7.859,92.088
	c0.803,20.164,0.4,40.217,1.881,60.289c1.11,15.033,2.3,30.289,0.885,45.337c-0.603,6.404-1.729,12.875-4.133,18.84
	c-1.774,4.402-4.469,8.815-8.44,10.189c-10.472,3.625-19.812-3.037-23.708-13.655c-5.463-14.886-5.488-31.389-6.081-47.071
	c-0.352-9.327-1.744-18.542-2.552-27.838c-1.343-15.433-1.971-30.913-2.176-46.401c-0.388-29.102,0.542-58.23,0.731-87.33
	c0.156-24.102,2.603-48.124,0.623-72.203c-1.909-23.208-8.555-50.689-25.935-67.229c-18.461-17.569-45.375-17.453-67.154-6.379
	c-22.513,11.448-34.776,35.167-41.946,58.638c-7.767,25.418-5.8,52.329-7.435,78.602c-0.394,6.322-0.947,12.315-0.375,18.658
	c0.684,7.557,1.954,15.067,2.428,22.647c0.844,13.494-0.792,27.138,0.25,40.607c0.937,12.126,2.876,24.227,3.933,36.378
	c1.24,14.249,2.006,28.831,0.343,43.068c-0.478,4.092-1.213,8.269-2.362,12.14c-1.677,0.535-3.322,1.57-4.822,3.233
	c-4.523,5.015-10.115,10.198-16.221,13.372c-6.856-0.445-14.375-2.899-19.912-5.494c-14.94-6.996-19.589-22.646-21.591-38.001
	c-2.337-17.921-1.17-36.212-2.354-54.213c-1.5-22.785-7.383-44.517-17.595-64.865c-19.594-39.032-63.016-63.483-106.562-57.627
	c-19.023,2.557-37.189,8.467-52.768,19.589c-3.575,2.249-7.038,4.7-10.333,7.408c-23.532,19.333-34.17,48.156-35.426,77.929
	c-1.202,28.538,4.941,57.048,2.079,85.581c-2.805,27.961-18.134,50.301-45.086,60.141c-24.771,9.044-53.449,9.641-77.599-1.801
	c-29.158-13.815-40.707-41.559-46.782-71.688c-3.775-18.724-5.201-37.876-5.634-56.948c-0.508-22.386-1.885-44.056-6.007-66.127
	c-3.981-21.306-10.133-41.813-15.247-62.827c-5.151-21.165-11.16-41.627-19.817-61.656c-13.918-32.198-40.146-57.527-70.116-75.067
	c-29.428-17.22-64.645-22.789-98.124-17.556c-32.614,5.096-66.052,23.609-80.671,54.247c-7.398,15.507-9.013,33.142-8.409,50.125
	c0.608,17.083,1.835,34.098,2.245,51.194c0.508,21.264,2.638,42.521,5.293,63.616c2.388,18.98,6.983,37.083,3.715,56.32
	c-0.726,4.266-2.218,8.438-3.741,12.471c-0.704,1.865-1.286,4.209-2.036,6.372c-0.148,0.299-0.285,0.599-0.436,0.897
	c-0.485,0.957-0.981,1.897-1.478,2.838c-0.564,0.395-1.985,1.757-2.258,1.987c-0.843,0.958-1.912,2.451-2.58,3.412
	c-2.624,3.769-4.746,7.821-6.655,11.993c-0.637,1.388-1.236,2.763-1.822,4.131c-7.706,10.638-16.559,20.255-26.952,29.372
	c-2.374,2.08-4.841,4.064-7.374,5.971c-0.149,0.042-0.297,0.095-0.446,0.135l0.011,0.189
	c-14.809,11.057-32.087,19.187-49.549,24.711c-19.873,6.289-41.979,9.693-62.568,5.369c-18.114-3.807-36.635-13.232-47.764-28.217
	c-10.974-14.777-16.577-32.534-20.205-50.479c-3.843-19.011-5.701-38.802-10.872-57.475c-3.318-11.98-9.843-24.051-16.396-34.58
	c-6.936-11.148-15.124-21.611-25.127-30.116c-10.752-9.139-19.708-19.216-32.584-25.504c-9.605-4.691-20.324-7.807-31.05-7.765
	c-17.921-7.264-37.922-9.106-57.362-10.058c-25.98-1.272-54.874,6.609-76.16,21.93c-16.836,12.116-27.661,28.058-33.719,46.52
	c-2.127,5.502-3.422,11.501-4.29,17.708c-0.283,1.748-0.532,3.511-0.747,5.291c-2.432,20.124-4.571,41.121-3.526,61.573
	c-0.211,3.319-0.447,6.64-0.731,9.958c-1.594,18.573-7.39,37.03-22.758,48.819c-13.27,10.181-30.239,12.656-46.518,11.428
	c-13.285-1.004-26.042-5.345-34.098-16.447c-7.61-10.483-10.603-24.281-11.874-36.943c-3.206-31.978,2.151-64.006-2.129-95.937
	c-1.395-10.406-3.918-20.276-7.23-29.842c0.217-18.885-1.375-37.539-5.742-56.334c-10.029-43.143-24.952-92.648-65.7-116.505
	c-22.536-13.194-47.782-15.821-73.365-12.096c-16.216,2.36-33.536,8.079-48.283,16.995c-11.652,3.803-22.469,9.588-32.186,18.205
	c-20.082,17.807-26.972,42.946-29.869,68.914c-1.492,13.373-0.473,26.714-3.331,39.922c-2.614,12.081-7.126,24.038-13.241,34.795
	c-17.38,30.579-59.956,35.462-87.971,16.962c-37.088-24.489-44.152-73.64-47.196-114.295c-1.435-19.137-2.277-36.78-4.212-56.744
	c-0.482-4.975-1.041-10.174-1.892-15.353c-4.458-45.909-19.038-90.835-61.31-109.921c-38.202-17.248-87.044-10.241-122.168,11.108
	c-8.328,5.063-16.01,11.13-22.923,17.975c-0.226,13.167-0.463,26.334-0.711,39.504c-0.602,31.973-0.82,63.978,0.719,95.93
	c1.496,31.066,2.792,61.923,2.216,93.044c-1.145,61.771-4.05,123.343-3.381,185.153c0.641,59.173,2.306,118.327,4.088,177.476
	c10.748-0.292,21.495-0.613,32.24-0.897c39.02-1.032,78.04-0.771,117.065-0.265c80.044,1.035,160.068,3.431,240.119,3.994
	c161.302,1.136,322.657-0.99,483.954-2.171c162.254-1.188,324.515-2.261,486.775-1.59c157.925,0.654,315.747,4.703,473.644,7.12
	c150.346,2.302,301.033,2.105,451.025-9.625c0.834-26.922,2.135-53.831,3.316-80.739c1.742-39.711,2.473-79.388,3.054-119.128
	C2296.525,570.239,2191.092,500.289,2194.776,529.265z M990.125,557.284c4.596,7.324,8.458,15.141,11.979,23
	c2.016,4.501,3.313,9.308,4.336,14.203C1001.944,581.678,996.485,569.203,990.125,557.284z"/>
<path class="hills3" opacity="0.6" fill="#557C3E" d="M4213.811,353.362c-0.552-38.538-1.26-77.074-1.961-115.608
	c-0.732-40.226-2.487-80.388-3.556-120.604c-0.416-15.703-8.636-53.829-13.379-56.45c-10.377-5.735-23.139-8.28-34.774-6.188
	c-12.597,2.262-21.816,9.077-29.376,19.239c-13.361,17.957-17.584,40.925-19.321,62.844c-1.763,22.231-2.278,44.418-4.808,66.6
	c-6.762,59.271,4.377,118.819,5.066,178.137c0.342,29.14-1.607,58.958,2.076,87.933c3.889,30.575,6.633,61.287,7.859,92.088
	c0.803,20.164,0.4,40.217,1.881,60.289c1.109,15.033,2.3,30.289,0.885,45.337c-0.603,6.404-1.729,12.875-4.133,18.84
	c-1.773,4.402-4.469,8.815-8.439,10.189c-10.473,3.625-19.812-3.037-23.708-13.655c-5.464-14.886-5.488-31.389-6.081-47.071
	c-0.352-9.327-1.744-18.542-2.553-27.838c-1.343-15.433-1.971-30.913-2.176-46.401c-0.388-29.102,0.543-58.23,0.731-87.33
	c0.155-24.102,2.603-48.124,0.623-72.203c-1.909-23.208-8.556-50.689-25.935-67.229c-18.461-17.569-45.376-17.453-67.154-6.379
	c-22.513,11.448-34.775,35.167-41.946,58.638c-7.767,25.418-5.8,52.329-7.435,78.602c-0.395,6.322-0.947,12.315-0.375,18.658
	c0.684,7.557,1.953,15.067,2.428,22.647c0.844,13.494-0.791,27.138,0.25,40.607c0.938,12.126,2.877,24.227,3.934,36.378
	c1.239,14.249,2.006,28.831,0.342,43.068c-0.477,4.092-1.213,8.269-2.361,12.14c-1.678,0.535-3.322,1.57-4.822,3.233
	c-4.523,5.015-10.115,10.198-16.221,13.372c-6.857-0.445-14.375-2.899-19.912-5.494c-14.939-6.996-19.589-22.646-21.592-38.001
	c-2.336-17.921-1.17-36.212-2.354-54.213c-1.499-22.785-7.383-44.517-17.595-64.865c-19.594-39.032-63.017-63.483-106.562-57.627
	c-19.023,2.557-37.189,8.467-52.768,19.589c-3.575,2.249-7.038,4.7-10.334,7.408c-23.531,19.333-34.17,48.156-35.426,77.929
	c-1.201,28.538,4.941,57.048,2.078,85.581c-2.805,27.961-18.134,50.301-45.086,60.141c-24.77,9.044-53.448,9.641-77.598-1.801
	c-29.158-13.815-40.707-41.559-46.783-71.688c-3.774-18.724-5.201-37.876-5.634-56.948c-0.508-22.386-1.886-44.056-6.007-66.127
	c-3.982-21.306-10.134-41.813-15.248-62.827c-5.15-21.165-11.159-41.627-19.816-61.656c-13.918-32.198-40.146-57.527-70.116-75.067
	c-29.428-17.22-64.645-22.789-98.124-17.556c-32.614,5.096-66.052,23.609-80.671,54.247c-7.398,15.507-9.013,33.142-8.409,50.125
	c0.608,17.083,1.836,34.098,2.245,51.194c0.508,21.264,2.638,42.521,5.294,63.616c2.388,18.98,6.982,37.083,3.715,56.32
	c-0.727,4.266-2.219,8.438-3.741,12.471c-0.704,1.865-1.286,4.209-2.036,6.372c-0.148,0.299-0.285,0.599-0.436,0.897
	c-0.484,0.957-0.981,1.897-1.478,2.838c-0.564,0.395-1.985,1.757-2.258,1.987c-0.843,0.958-1.911,2.451-2.58,3.412
	c-2.624,3.769-4.745,7.821-6.655,11.993c-0.637,1.388-1.236,2.763-1.822,4.131c-7.706,10.638-16.559,20.255-26.952,29.372
	c-2.374,2.08-4.841,4.064-7.374,5.971c-0.148,0.042-0.297,0.095-0.445,0.135l0.012,0.189
	c-14.809,11.057-32.088,19.187-49.549,24.711c-19.873,6.289-41.98,9.693-62.568,5.369c-18.114-3.807-36.635-13.232-47.764-28.217
	c-10.974-14.777-16.577-32.534-20.205-50.479c-3.844-19.011-5.701-38.802-10.872-57.475c-3.317-11.98-9.843-24.051-16.396-34.58
	c-6.936-11.148-15.123-21.611-25.127-30.116c-10.752-9.139-19.708-19.216-32.584-25.504c-9.605-4.691-20.324-7.807-31.051-7.765
	c-17.92-7.264-37.922-9.106-57.361-10.058c-25.98-1.272-54.874,6.609-76.16,21.93c-16.836,12.116-27.661,28.058-33.719,46.52
	c-2.127,5.502-3.423,11.501-4.291,17.708c-0.282,1.748-0.531,3.511-0.746,5.291c-2.432,20.124-4.57,41.121-3.526,61.573
	c-0.212,3.319-0.446,6.64-0.731,9.958c-1.594,18.573-7.391,37.03-22.758,48.819c-13.27,10.181-30.24,12.656-46.518,11.428
	c-13.285-1.004-26.042-5.345-34.099-16.447c-7.61-10.483-10.603-24.281-11.874-36.943c-3.206-31.978,2.151-64.006-2.129-95.937
	c-1.395-10.406-3.918-20.276-7.23-29.842c0.218-18.885-1.374-37.539-5.741-56.334c-10.028-43.143-24.952-92.648-65.7-116.505
	c-22.536-13.194-47.782-15.821-73.365-12.096c-16.216,2.36-33.535,8.079-48.282,16.995c-11.652,3.803-22.47,9.588-32.187,18.205
	c-20.081,17.807-26.972,42.946-29.869,68.914c-1.491,13.373-0.473,26.714-3.33,39.922c-2.614,12.081-7.127,24.038-13.241,34.795
	c-17.38,30.579-59.956,35.462-87.972,16.962c-37.088-24.489-261.529,84.591-260.859,146.402
	c0.641,59.173,2.305,118.327,4.088,177.476c10.747-0.292,21.494-0.613,32.239-0.897c39.02-1.032,78.04-0.771,117.065-0.265
	c80.044,1.035,160.068,3.431,240.118,3.994c161.302,1.136,322.657-0.99,483.954-2.171c162.254-1.188,324.515-2.261,486.774-1.59
	c157.925,0.654,315.747,4.703,473.644,7.12c150.346,2.302,301.033,2.105,451.025-9.625c0.834-26.922,2.135-53.831,3.316-80.739
	c1.742-39.711,2.473-79.388,3.054-119.128C4215.528,510.239,4214.933,431.79,4213.811,353.362z M2909.128,497.284
	c4.596,7.324,8.458,15.141,11.979,23c2.016,4.501,3.313,9.308,4.336,14.203C2920.947,521.678,2915.488,509.203,2909.128,497.284z"/>
<path class="trees5" fill="#557C3E" d="M1944.64,408.418c-12.74-16.901-34.202-25.713-54.848-18.686c-21.763,7.409-33.49,29.228-32.171,51.614
	c0.744,12.63,4.817,25.778,13.851,34.957c6.762,6.867,15.751,11.143,25.09,13.287c0.352,1.785,0.738,3.565,1.053,5.382
	c0.795,4.604,0.902,9.525,1.243,14.185c0.699,9.543,2.166,18.979,2.257,28.582c0.099,10.667,16.573,10.793,16.573,0.119v-2.209
	c0-0.438-0.037-0.852-0.09-1.254c-0.345-8.414-1.552-16.724-2.166-25.119c-0.354-4.824-0.63-9.686-1.057-14.498
	c-0.252-2.835-1.112-5.558-1.687-8.333c14.882-0.262,29.043-6.875,37.42-20.212C1961.418,448.224,1956.905,424.686,1944.64,408.418z
	"/>
<path class="trees5" fill="#557C3E" d="M1045.754,524.389c-2.331-5.021-6.771-8.849-10.83-12.643c4.373-5.446,8.104-11.665,6.415-18.998
	c-1.196-5.194-5.597-10.128-10.703-12.423c3.808-5.78,5.959-12.31,4.543-19.53c-1.625-8.278-8.57-12.748-16.148-15.056
	c-8.42-2.566-19.616-2.58-27.315,2.061c-2.151,1.296-4.049,2.884-5.65,4.685c-3.51,3.323-5.86,8.132-6.759,12.899
	c-0.827,4.387-0.102,8.851,2.698,12.418c1.575,2.007,3.6,3.187,5.748,4.192c-5.045,3.989-7.974,11.174-8.626,17.208
	c-0.453,4.207,0.194,9.237,3.287,12.383c1.355,1.379,3.102,2.309,5.003,2.943c-3.596,3.951-5.775,9.715-6.849,14.566
	c-2.055,9.273,2.016,17.043,10.208,21.673c4.499,2.541,9.999,4.365,15.782,5.263c-0.29,8.852-0.818,17.697-0.741,26.563
	c0.047,5.391-1.058,18.122,5.286,20.721c3.469,1.421,7.11-0.501,8.314-3.905c1.188-3.366,0.375-6.929,0.179-10.368
	c-0.622-10.945,0.907-21.843,0.829-32.735c9.916-1.209,19.007-5.647,23.664-14.421
	C1047.062,536.285,1048.515,530.337,1045.754,524.389z"/>
<path class="trees5" fill="#557C3E" d="M363.475,524.68c-0.131-16.285,0.771-33.215-2.313-49.283c-2.136-11.121-6.432-21.053-18.697-22.729
	c-1.438-0.197-2.891-0.239-4.336-0.172c-9.244-2.374-22.451-2.476-27.358,6.896c-2.037,3.888-2.396,8-2.46,12.245
	c-0.597,0.519-1.047,1.24-1.19,2.196c-2.128,14.299,0.41,27.866,0.585,42.124c0.007,0.533,0.015,1.064,0.021,1.595
	c-0.018,0.42-0.036,0.837-0.053,1.257c-0.146,3.488-0.007,6.99,0.221,10.491c0.15,10.413,0.255,20.822-0.032,31.237
	c-0.323,11.762-1.877,24.095,4.807,34.562c3.705,5.801,9.287,10.237,15.694,12.298c-0.337,8.728-0.769,17.453-0.692,26.197
	c0.055,6.259-1.229,21.038,6.137,24.055c4.028,1.65,8.254-0.581,9.652-4.534c1.38-3.906,0.436-8.042,0.208-12.036
	c-0.647-11.399,0.714-22.756,0.938-34.103c0.456-0.209,0.909-0.421,1.339-0.664c3.868-1.124,7.677-2.813,10.439-5.187
	c8.254-7.092,9.495-21.307,9.598-31.398C366.136,554.688,363.599,539.74,363.475,524.68z"/>
<path class="trees5" fill="#557C3E" d="M2514.796,614.597c13.09-17.366,35.142-26.42,56.354-19.199c22.362,7.612,34.41,30.031,33.057,53.032
	c-0.765,12.979-4.95,26.487-14.23,35.918c-6.949,7.055-16.186,11.449-25.781,13.652c-0.361,1.834-0.758,3.663-1.082,5.529
	c-0.816,4.731-0.926,9.787-1.277,14.575c-0.718,9.806-2.225,19.501-2.318,29.368c-0.102,10.959-17.028,11.089-17.028,0.121v-2.27
	c0-0.451,0.038-0.875,0.093-1.289c0.355-8.645,1.595-17.184,2.227-25.809c0.362-4.956,0.646-9.952,1.086-14.896
	c0.259-2.914,1.142-5.711,1.732-8.562c-15.29-0.269-29.84-7.063-38.448-20.767C2497.557,655.497,2502.193,631.312,2514.796,614.597z
	"/>
<path class="trees5" fill="#557C3E" d="M3493.309,555.061c2.743-5.91,7.969-10.415,12.746-14.88c-5.146-6.41-9.538-13.729-7.549-22.359
	c1.407-6.113,6.586-11.92,12.596-14.621c-4.482-6.803-7.014-14.487-5.348-22.985c1.912-9.743,10.086-15.003,19.006-17.72
	c9.909-3.021,23.085-3.037,32.146,2.426c2.531,1.525,4.766,3.394,6.65,5.514c4.131,3.911,6.896,9.57,7.955,15.181
	c0.973,5.163,0.119,10.417-3.177,14.615c-1.854,2.361-4.235,3.75-6.765,4.934c5.938,4.694,9.385,13.15,10.151,20.251
	c0.534,4.951-0.229,10.871-3.868,14.574c-1.595,1.623-3.65,2.717-5.889,3.464c4.232,4.65,6.797,11.434,8.061,17.143
	c2.418,10.914-2.373,20.058-12.016,25.507c-5.294,2.99-11.767,5.137-18.572,6.194c0.34,10.418,0.962,20.828,0.871,31.262
	c-0.055,6.344,1.246,21.328-6.221,24.386c-4.082,1.673-8.368-0.589-9.785-4.597c-1.4-3.961-0.441-8.153-0.211-12.201
	c0.732-12.881-1.066-25.707-0.976-38.526c-11.669-1.423-22.369-6.646-27.851-16.972
	C3491.769,569.061,3490.059,562.061,3493.309,555.061z"/>
<path class="trees5" fill="#557C3E" d="M4261.492,464.055c0.131-16.199-0.767-33.04,2.301-49.022c2.125-11.061,6.398-20.942,18.598-22.607
	c1.433-0.196,2.877-0.238,4.314-0.171c9.195-2.362,22.331-2.463,27.213,6.859c2.025,3.868,2.383,7.958,2.447,12.18
	c0.593,0.516,1.042,1.234,1.184,2.185c2.117,14.223-0.408,27.717-0.583,41.9c-0.007,0.53-0.014,1.059-0.021,1.586
	c0.017,0.417,0.035,0.833,0.053,1.25c0.145,3.469,0.007,6.953-0.221,10.437c-0.149,10.357-0.253,20.711,0.033,31.071
	c0.32,11.7,1.867,23.967-4.782,34.379c-3.687,5.771-9.238,10.184-15.61,12.233c0.334,8.681,0.762,17.361,0.687,26.058
	c-0.054,6.226,1.224,20.927-6.104,23.929c-4.006,1.641-8.211-0.578-9.602-4.512c-1.372-3.886-0.435-7.999-0.208-11.972
	c0.646-11.338-0.71-22.635-0.932-33.921c-0.453-0.208-0.905-0.418-1.332-0.661c-3.847-1.118-7.635-2.798-10.383-5.159
	c-8.211-7.054-9.444-21.194-9.548-31.232C4258.844,493.904,4261.369,479.035,4261.492,464.055z"/>
<g>
	<path class="hills4" id="ground_1_" fill="#9FBC2E" d="M-0.128,1102.715c1.409,0.083,2.819,0.155,4.229,0.234c3.281-0.094,6.56-0.186,9.84-0.272
		c28.029-0.741,68.155-1.135,96.188-0.771c57.498,0.743,114.981,2.464,172.484,2.869c115.867,0.815,231.773-0.712,347.637-1.56
		c116.551-0.853,233.108-1.624,349.664-1.142c113.442,0.47,226.81-1.186,340.231,0.55c107.998,1.654,216.239,8.427,323.982,0
		c0.599-19.338,1.536-315.935,2.384-335.264c1.251-28.525,1.776-57.026,2.193-85.572c0.413-28.218,0.512-56.439,0.406-84.66
		c-0.079-0.043-0.156-0.09-0.237-0.134c-10.942-5.931-22.115-11.459-33.286-16.94c-22.513-11.048-46.613-20.129-70.565-27.527
		c-24.545-7.584-49.424-12.73-74.714-17.229c-49.933-8.881-101.702-11.141-152.339-8.607
		c-50.549,2.527-100.779,8.794-150.357,19.051c-45.305,9.372-89.256,23.062-132.356,39.676
		c-42.585,16.414-84.694,38.018-121.525,65.019c-35.033,25.68-67.668,54.68-95.337,88.289c-17.934-1.426-35.956-1.775-53.932-1.196
		c-45.638,1.467-91.68,8.663-135.971,19.7c-17.771,4.428-35.466,9.851-52.575,16.664c-3.458-2.641-6.879-5.328-10.228-8.107
		c-41.441-34.386-88.167-61.289-137.583-82.461c-25.163-10.781-50.778-20.444-77.085-28.045
		c-27.842-8.041-56.368-13.592-85.037-17.683c-57.165-8.157-115.644-10.086-173.333-8.755c-16.517,0.381-33.003,1.284-49.465,2.65
		c-11.009,0.912-31.973,2.576-42.914,3.966c4.85,28.025,0.66,58.045-0.397,85.876C-1.47,756.675,1.879,1067.489-0.128,1102.715z"/>
	<path class="hills4" id="ground_2_" fill="#9FBC2E" d="M3251.059,1102.715c-1.409,0.083-2.819,0.155-4.229,0.234
		c-3.28-0.094-6.56-0.186-9.84-0.272c-28.028-0.741-68.154-1.135-96.188-0.771c-57.498,0.743-114.981,2.464-172.483,2.869
		c-115.868,0.815-231.773-0.712-347.638-1.56c-116.552-0.853-233.107-1.624-349.663-1.142c-113.442,0.47-226.81-1.186-340.231,0.55
		c-107.998,1.654-216.239,8.427-323.982,0c-0.599-19.338-1.536-315.935-2.384-335.264c-1.251-28.525-1.776-57.026-2.194-85.572
		c-0.413-28.218-0.512-56.439-0.406-84.66c0.079-0.043,0.156-0.09,0.237-0.134c10.943-5.931,22.115-11.459,33.286-16.94
		c22.513-11.048,46.614-20.129,70.566-27.527c24.545-7.584,49.423-12.73,74.713-17.229c49.933-8.881,101.702-11.141,152.339-8.607
		c50.549,2.527,100.779,8.794,150.357,19.051c45.305,9.372,89.256,23.062,132.356,39.676
		c42.586,16.414,84.695,38.018,121.526,65.019c35.033,25.68,67.668,54.68,95.337,88.289c17.934-1.426,35.956-1.775,53.932-1.196
		c45.638,1.467,91.68,8.663,135.972,19.7c17.77,4.428,35.466,9.851,52.575,16.664c3.457-2.641,6.879-5.328,10.228-8.107
		c41.441-34.386,88.167-61.289,137.583-82.461c25.163-10.781,50.778-20.444,77.085-28.045c27.842-8.041,56.367-13.592,85.037-17.683
		c57.165-8.157,115.644-10.086,173.333-8.755c16.518,0.381,33.003,1.284,49.465,2.65c11.01,0.912,31.974,2.576,42.915,3.966
		c-4.85,28.025-0.66,58.045,0.396,85.876C3252.4,756.675,3249.051,1067.489,3251.059,1102.715z"/>
	<g>
		<path class="hills4" fill="#9FBC2E" d="M451.581,637.545c-6.381-3.776-12.314,2.008-12.251,7.703c-0.135,0.513-0.227,1.145-0.317,1.432
			c-0.469,1.488-1.558,4.181-1.834,4.844c-2.27,5.431-4.824,10.751-7.353,16.064c-4.18,8.788-9.167,17.528-12.395,26.733
			c-3.528,10.066,12.446,14.357,15.949,4.365c0.073-0.208,0.129-0.368,0.171-0.49c0.39-0.887,0.789-1.771,1.194-2.65
			c1.152-2.505,2.346-4.989,3.538-7.473c3.043-6.351,6.12-12.684,9.086-19.069C450.781,661.657,462.118,643.78,451.581,637.545z"/>
		<path class="hills4" fill="#9FBC2E" d="M477.762,664.817c-4.661,7.152-8.344,14.802-12.28,22.358c-3.82,7.332-8.792,13.619-11.68,21.474
			c-3.679,10.006,12.301,14.284,15.949,4.365c2.567-6.984,7.66-12.834,10.993-19.456c3.508-6.973,7.07-13.929,11.336-20.476
			C497.899,664.149,483.558,655.922,477.762,664.817z"/>
		<path class="hills4" fill="#9FBC2E" d="M526.256,670.328c-2.32,4.285-6.486,7.12-9.526,10.943c-3.814,4.797-7.361,9.774-11.236,14.526
			c-3.701,4.54-7.306,9.172-10.647,13.983c-2.743,3.951-4.367,8.632-8.089,11.769c-8.129,6.849,3.658,18.449,11.754,11.628
			c4.199-3.537,6.159-8.177,8.997-12.702c3.237-5.163,7.167-9.933,11.034-14.628c3.872-4.7,7.275-9.764,11.154-14.45
			c3.673-4.439,8.076-7.63,10.876-12.804C545.635,669.24,531.332,660.948,526.256,670.328z"/>
		<path class="hills4" fill="#9FBC2E" d="M411.634,624.038c-4.758,8.486-8.705,17.413-12.388,26.411c-2.885,7.045-5.267,14.747-10.577,20.402
			c-7.269,7.739,4.443,19.413,11.754,11.628c6.307-6.716,9.729-14.988,13.082-23.432c3.629-9.141,7.633-18.16,12.446-26.743
			C431.158,623.018,416.849,614.738,411.634,624.038z"/>
		<path class="hills4" fill="#9FBC2E" d="M374.123,611.862c-5.215-8.155-17.588-1.938-15.316,6.056c-0.088,0.19-0.189,0.414-0.326,0.701
			c-0.761,1.617-1.535,3.221-2.369,4.803c-1.282,2.434-2.767,4.772-3.994,7.232c-2.617,5.243-4.839,10.702-7.439,15.962
			c-2.564,5.188-3.949,11.063-6.887,15.997c-5.454,9.157,8.866,17.415,14.317,8.266c3.43-5.758,5.185-12.487,8.131-18.523
			c2.514-5.147,4.587-10.567,7.377-15.564C371.274,630.244,378.96,619.427,374.123,611.862z"/>
		<path class="hills4" fill="#9FBC2E" d="M304.72,595.049c-0.287,8.995-4.353,17.554-6.88,26.089c-2.654,8.959-3.787,18.506-7.44,27.147
			c-1.751,4.142-1.151,8.819,3.025,11.292c3.477,2.06,9.556,1.079,11.292-3.026c4.257-10.067,5.952-20.639,9.071-31.048
			c3.003-10.024,7.129-19.731,7.468-30.336C321.597,584.511,305.06,584.425,304.72,595.049z"/>
		<path class="hills4" fill="#9FBC2E" d="M244.103,570.801c-0.3,5.968-2.028,12.051-2.709,18.03c-0.768,6.745-1.067,13.49-2.15,20.201
			c-1.157,7.166-2.604,14.273-3.685,21.453c-0.801,5.327-0.135,11.437-2.184,16.443c-1.703,4.163,1.868,9.037,5.791,10.156
			c4.728,1.35,8.477-1.68,10.158-5.79c2.135-5.219,1.599-11.039,2.205-16.532c0.867-7.862,2.803-15.583,3.982-23.4
			c1.078-7.141,1.543-14.286,2.322-21.458c0.688-6.354,2.486-12.605,2.807-18.984C261.173,560.271,244.634,560.201,244.103,570.801z
			"/>
		<path class="hills4" fill="#9FBC2E" d="M179.077,603.865c-0.116,6.36-0.639,12.887-1.338,19.197c-0.681,6.156-0.98,12.397-2.776,18.356
			c-3.078,10.215,12.881,14.542,15.949,4.365c2.054-6.816,2.305-13.949,3.158-20.974c0.829-6.835,1.417-13.931,1.545-20.827
			C195.808,593.327,179.271,593.23,179.077,603.865z"/>
		<path class="hills4" fill="#9FBC2E" d="M111.851,562.103c0.056-10.652-16.48-10.762-16.536-0.118c-0.14,26.895-5.358,53.529-4.409,80.456
			c0.376,10.618,16.912,10.764,16.537,0.118C106.491,615.632,111.71,588.998,111.851,562.103z"/>
		<path class="hills4" fill="#9FBC2E" d="M61.148,582.925c-0.168,11.073-1.679,22.253-2.367,33.312c-0.666,10.697-3.988,21.001-4.246,31.714
			c-0.255,10.657,16.281,10.749,16.536,0.118c0.255-10.637,3.581-21.042,4.245-31.714c0.688-11.061,2.199-22.239,2.368-33.312
			C77.847,572.387,61.311,572.288,61.148,582.925z"/>
		<path class="hills4" fill="#9FBC2E" d="M653.816,764.9c-2.31-7.282-2.891-14.882-4.968-22.172c-1.831-6.427-5.759-12.044-7.156-18.606
			c-2.215-10.413-18.177-6.105-15.968,4.278c1.402,6.595,5.327,12.188,7.155,18.608c2.077,7.289,2.658,14.889,4.968,22.171
			C641.055,779.288,657.041,775.066,653.816,764.9z"/>
		<path class="hills4" fill="#9FBC2E" d="M937.313,653.743c-2.895-5.44-6.806-10.196-10.716-14.932c-4.001-4.846-7.451-10.032-11.364-14.942
			c-3.562-4.473-7.234-8.586-11.396-12.46c-3.653-3.4-7-7.964-12.25-8.846c-10.417-1.748-14.855,14.188-4.365,15.947
			c1.623,0.273,5.547,5.054,7.303,6.66c3.778,3.456,7.261,7.84,10.299,11.986c6,8.192,13.449,15.975,18.229,24.958
			C928.048,671.504,942.312,663.141,937.313,653.743z"/>
		<path class="hills4" fill="#9FBC2E" d="M1015.63,609.548c-0.076-0.134-0.159-0.29-0.252-0.493c-0.377-0.827-0.888-1.632-1.307-2.437
			c-0.761-1.459-1.5-2.931-2.225-4.407c-2.752-5.603-5.02-11.308-6.978-17.231c-3.993-12.087-10.536-23.256-15.755-34.837
			c-1.141-2.53-4.433-4.082-7.071-4.082h-2.204c-9.402,0-10.587,12.877-3.416,15.9c5.029,10.98,10.225,21.679,14.436,33.046
			c2.118,5.715,4.594,11.311,7.315,16.763c1.522,3.05,2.973,6.761,5.471,9.172c3.999,3.861,10.047,2.707,12.973-1.744
			c0.026-0.04,0.052-0.078,0.078-0.118C1019.114,615.397,1018.082,611.838,1015.63,609.548z"/>
		<path class="hills4" fill="#9FBC2E" d="M1133.244,564.312c-8.642-21.876-14.23-44.729-20.94-67.229c-3.034-10.178-19.015-5.94-15.967,4.278
			c6.708,22.501,12.297,45.354,20.94,67.23c1.639,4.151,5.456,7.095,10.122,5.845
			C1131.333,573.383,1134.896,568.492,1133.244,564.312z"/>
		<path class="hills4" fill="#9FBC2E" d="M1235.504,510.559c-2.685-11.73-2.538-24.574-8.331-35.36c-5.032-9.37-19.298-1.009-14.26,8.371
			c4.855,9.042,4.359,21.381,6.623,31.269c2.265,9.893,5.221,20.426,5.464,30.614c0.254,10.632,16.791,10.768,16.537,0.119
			C1241.257,533.868,1238.104,521.915,1235.504,510.559z"/>
		<path class="hills4" fill="#9FBC2E" d="M1196.066,559.904c-3.575-17.946-6.993-35.787-14.079-52.745c-1.718-4.109-7.844-5-11.315-2.944
			c-4.267,2.527-4.682,7.163-2.946,11.316c6.445,15.426,9.125,32.35,12.372,48.652
			C1182.177,574.622,1198.137,570.302,1196.066,559.904z"/>
		<path class="hills4" fill="#9FBC2E" d="M1587.789,520.961c-0.368,0.367-0.734,0.734-1.103,1.103c-2.258,2.258-2.771,4.888-2.192,7.259
			c-2.101,6.444-5.842,12.278-9.104,18.217c-4.358,7.926-7.798,16.23-13.129,23.598c-2.638,3.645-0.536,9.182,3.024,11.291
			c4.168,2.468,8.69,0.571,11.292-3.025c5.687-7.86,9.207-16.832,14.023-25.193c4.534-7.87,9.441-16.203,11.039-25.251
			C1603.017,521.169,1594.022,514.729,1587.789,520.961z"/>
	</g>
	<g>
		<path class="hills4" fill="#9FBC2E" d="M2803.16,627.536c6.381-3.776,12.314,2.008,12.251,7.703c0.135,0.513,0.227,1.145,0.316,1.432
			c0.47,1.488,1.56,4.181,1.835,4.844c2.27,5.431,4.824,10.751,7.353,16.064c4.181,8.788,9.168,17.528,12.395,26.733
			c3.528,10.066-12.446,14.357-15.948,4.365c-0.073-0.208-0.129-0.368-0.171-0.49c-0.39-0.887-0.789-1.771-1.194-2.65
			c-1.151-2.505-2.346-4.989-3.537-7.474c-3.043-6.351-6.12-12.683-9.086-19.068C2803.96,651.648,2792.623,633.771,2803.16,627.536z
			"/>
		<path class="hills4" fill="#9FBC2E" d="M2776.979,654.808c4.661,7.153,8.345,14.803,12.28,22.359c3.82,7.332,8.793,13.619,11.681,21.473
			c3.679,10.007-12.301,14.285-15.949,4.366c-2.567-6.984-7.659-12.834-10.992-19.456c-3.509-6.973-7.07-13.929-11.337-20.476
			C2756.842,654.141,2771.184,645.913,2776.979,654.808z"/>
		<path class="hills4" fill="#9FBC2E" d="M2728.484,660.319c2.32,4.285,6.486,7.12,9.526,10.943c3.813,4.796,7.361,9.774,11.235,14.526
			c3.701,4.54,7.306,9.172,10.647,13.983c2.743,3.951,4.366,8.632,8.089,11.768c8.129,6.85-3.658,18.45-11.754,11.628
			c-4.199-3.536-6.159-8.176-8.997-12.701c-3.236-5.163-7.167-9.933-11.034-14.628c-3.871-4.7-7.274-9.764-11.153-14.45
			c-3.674-4.439-8.076-7.63-10.876-12.804C2709.106,659.231,2723.409,650.939,2728.484,660.319z"/>
		<path class="hills4" fill="#9FBC2E" d="M2843.107,614.029c4.757,8.486,8.704,17.413,12.388,26.411c2.885,7.045,5.267,14.747,10.577,20.402
			c7.27,7.739-4.443,19.413-11.754,11.628c-6.307-6.716-9.729-14.988-13.082-23.432c-3.629-9.141-7.633-18.16-12.446-26.743
			C2823.582,613.009,2837.893,604.729,2843.107,614.029z"/>
		<path class="hills4" fill="#9FBC2E" d="M2880.618,601.854c5.215-8.155,17.588-1.938,15.316,6.056c0.087,0.19,0.189,0.414,0.326,0.701
			c0.761,1.617,1.534,3.221,2.368,4.803c1.281,2.433,2.767,4.772,3.994,7.232c2.616,5.243,4.839,10.702,7.439,15.962
			c2.563,5.188,3.948,11.063,6.887,15.996c5.454,9.158-8.865,17.416-14.316,8.267c-3.43-5.758-5.185-12.487-8.132-18.523
			c-2.513-5.147-4.586-10.567-7.377-15.564C2883.467,620.235,2875.781,609.418,2880.618,601.854z"/>
		<path class="hills4" fill="#9FBC2E" d="M2950.021,585.039c0.287,8.996,4.352,17.555,6.88,26.09c2.654,8.959,3.786,18.506,7.44,27.147
			c1.751,4.142,1.151,8.818-3.025,11.292c-3.477,2.06-9.556,1.079-11.292-3.026c-4.257-10.067-5.952-20.64-9.071-31.048
			c-3.003-10.024-7.129-19.731-7.469-30.336C2933.145,574.502,2949.681,574.416,2950.021,585.039z"/>
		<path class="hills4" fill="#9FBC2E" d="M3010.639,560.792c0.299,5.968,2.028,12.051,2.709,18.03c0.768,6.745,1.066,13.49,2.15,20.201
			c1.156,7.166,2.604,14.273,3.685,21.453c0.8,5.327,0.135,11.437,2.184,16.443c1.702,4.163-1.869,9.037-5.79,10.156
			c-4.729,1.35-8.478-1.68-10.158-5.79c-2.135-5.219-1.6-11.039-2.205-16.532c-0.865-7.862-2.803-15.584-3.981-23.4
			c-1.078-7.141-1.544-14.286-2.322-21.458c-0.688-6.354-2.486-12.605-2.808-18.984
			C2993.568,550.262,3010.107,550.191,3010.639,560.792z"/>
		<path class="hills4" fill="#9FBC2E" d="M3075.664,593.856c0.116,6.36,0.64,12.887,1.339,19.197c0.681,6.156,0.979,12.396,2.776,18.356
			c3.078,10.215-12.882,14.542-15.949,4.365c-2.054-6.816-2.305-13.949-3.157-20.975c-0.829-6.834-1.418-13.93-1.545-20.826
			C3058.934,583.318,3075.469,583.222,3075.664,593.856z"/>
		<path class="hills4" fill="#9FBC2E" d="M3142.891,552.094c-0.056-10.652,16.479-10.762,16.536-0.118c0.14,26.895,5.358,53.528,4.408,80.456
			c-0.376,10.618-16.912,10.764-16.536,0.118C3148.25,605.623,3143.031,578.989,3142.891,552.094z"/>
		<path class="hills4" fill="#9FBC2E" d="M3193.593,572.916c0.168,11.073,1.678,22.253,2.366,33.312c0.667,10.697,3.989,21.001,4.246,31.714
			c0.255,10.657-16.281,10.749-16.535,0.118c-0.256-10.637-3.582-21.042-4.246-31.714c-0.688-11.061-2.198-22.239-2.367-33.312
			C3176.895,562.378,3193.43,562.279,3193.593,572.916z"/>
		<path class="hills4" fill="#9FBC2E" d="M2600.925,754.892c2.31-7.282,2.891-14.882,4.968-22.172c1.831-6.427,5.76-12.044,7.156-18.606
			c2.215-10.413,18.177-6.105,15.967,4.278c-1.402,6.595-5.326,12.188-7.154,18.608c-2.078,7.289-2.658,14.889-4.969,22.171
			C2613.687,769.279,2597.7,765.058,2600.925,754.892z"/>
		<path class="hills4" fill="#9FBC2E" d="M2317.428,643.734c2.896-5.44,6.807-10.196,10.717-14.932c4-4.846,7.45-10.032,11.363-14.943
			c3.562-4.472,7.235-8.585,11.396-12.459c3.653-3.4,7-7.965,12.251-8.846c10.416-1.748,14.854,14.188,4.364,15.947
			c-1.622,0.273-5.547,5.053-7.303,6.66c-3.778,3.456-7.262,7.84-10.3,11.986c-6,8.191-13.448,15.975-18.229,24.957
			C2326.692,661.495,2312.429,653.132,2317.428,643.734z"/>
		<path class="hills4" fill="#9FBC2E" d="M2239.111,599.539c0.076-0.134,0.159-0.29,0.252-0.494c0.377-0.826,0.888-1.631,1.307-2.436
			c0.762-1.459,1.5-2.931,2.226-4.407c2.752-5.603,5.02-11.308,6.977-17.231c3.993-12.087,10.537-23.256,15.756-34.837
			c1.141-2.53,4.432-4.082,7.071-4.082h2.204c9.401,0,10.587,12.877,3.416,15.9c-5.029,10.98-10.225,21.679-14.437,33.046
			c-2.118,5.715-4.594,11.311-7.315,16.763c-1.522,3.05-2.973,6.761-5.47,9.172c-4,3.861-10.047,2.707-12.974-1.744
			c-0.026-0.04-0.052-0.078-0.077-0.118C2235.627,605.389,2236.659,601.829,2239.111,599.539z"/>
		<path class="hills4" fill="#9FBC2E" d="M2121.498,554.304c8.642-21.876,14.23-44.729,20.94-67.23c3.034-10.178,19.015-5.94,15.967,4.279
			c-6.708,22.501-12.297,45.354-20.94,67.23c-1.64,4.151-5.456,7.095-10.122,5.845
			C2123.408,563.373,2119.845,558.483,2121.498,554.304z"/>
		<path class="hills4" fill="#9FBC2E" d="M2019.237,500.55c2.685-11.731,2.537-24.574,8.33-35.36c5.032-9.37,19.298-1.009,14.261,8.371
			c-4.856,9.042-4.359,21.381-6.623,31.269c-2.265,9.893-5.222,20.426-5.464,30.614c-0.254,10.632-16.791,10.768-16.537,0.119
			C2013.484,523.859,2016.636,511.906,2019.237,500.55z"/>
		<path class="hills4" fill="#9FBC2E" d="M2058.675,549.896c3.575-17.946,6.993-35.787,14.079-52.745c1.717-4.109,7.844-5,11.315-2.944
			c4.267,2.527,4.682,7.163,2.946,11.316c-6.445,15.426-9.125,32.349-12.372,48.652
			C2072.565,564.613,2056.604,560.293,2058.675,549.896z"/>
		<path class="hills4" fill="#9FBC2E" d="M1666.952,510.952c0.368,0.367,0.735,0.734,1.103,1.103c2.258,2.258,2.771,4.887,2.192,7.259
			c2.101,6.444,5.841,12.278,9.104,18.217c4.358,7.926,7.798,16.229,13.129,23.597c2.637,3.646,0.536,9.183-3.025,11.292
			c-4.168,2.468-8.689,0.571-11.292-3.025c-5.687-7.86-9.207-16.832-14.023-25.193c-4.535-7.87-9.441-16.204-11.04-25.251
			C1651.724,511.16,1660.718,504.72,1666.952,510.952z"/>
	</g>
</g>
<g>
	<path class="hills4" id="ground_4_" fill="#9FBC2E" d="M3242.128,1102.715c1.409,0.083,2.819,0.155,4.229,0.234c3.28-0.094,6.56-0.186,9.84-0.272
		c28.028-0.741,68.155-1.135,96.188-0.771c57.498,0.743,114.981,2.464,172.483,2.869c115.867,0.815,231.773-0.712,347.638-1.56
		c116.552-0.853,233.108-1.624,349.663-1.142c113.443,0.47,226.811-1.186,340.232,0.55c107.997,1.654,216.238,8.427,323.982,0
		c0.599-19.338,1.535-315.935,2.383-335.264c1.252-28.525,1.776-57.026,2.193-85.572c0.414-28.218,0.513-56.439,0.406-84.66
		c-0.078-0.043-0.155-0.09-0.236-0.134c-10.943-5.931-22.115-11.459-33.286-16.94c-22.513-11.048-46.613-20.129-70.565-27.527
		c-24.545-7.584-49.424-12.73-74.714-17.229c-49.933-8.881-101.702-11.141-152.339-8.607
		c-50.549,2.527-100.779,8.794-150.357,19.051c-45.305,9.372-89.256,23.062-132.355,39.676
		c-42.586,16.414-84.695,38.018-121.525,65.019c-35.033,25.68-67.668,54.68-95.338,88.289c-17.934-1.426-35.955-1.775-53.932-1.196
		c-45.637,1.467-91.68,8.663-135.971,19.7c-17.771,4.428-35.467,9.851-52.575,16.664c-3.458-2.641-6.879-5.328-10.228-8.107
		c-41.441-34.386-88.168-61.289-137.584-82.461c-25.162-10.781-50.777-20.444-77.084-28.045
		c-27.843-8.041-56.368-13.592-85.037-17.683c-57.166-8.157-115.645-10.086-173.334-8.755c-16.518,0.381-33.003,1.284-49.465,2.65
		c-11.01,0.912-31.973,2.576-42.914,3.966c4.85,28.025,0.66,58.045-0.397,85.876
		C3240.787,756.675,3244.135,1067.489,3242.128,1102.715z"/>
	<path class="hills4" id="ground_3_" fill="#9FBC2E" d="M6493.314,1102.715c-1.408,0.083-2.818,0.155-4.229,0.234
		c-3.279-0.094-6.559-0.186-9.84-0.272c-28.027-0.741-68.154-1.135-96.188-0.771c-57.498,0.743-114.98,2.464-172.482,2.869
		c-115.869,0.815-231.773-0.712-347.639-1.56c-116.551-0.853-233.107-1.624-349.662-1.142c-113.442,0.47-226.811-1.186-340.232,0.55
		c-107.997,1.654-216.238,8.427-323.982,0c-0.599-19.338-1.535-315.935-2.383-335.264c-1.252-28.525-1.777-57.026-2.194-85.572
		c-0.413-28.218-0.512-56.439-0.405-84.66c0.078-0.043,0.155-0.09,0.236-0.134c10.943-5.931,22.115-11.459,33.285-16.94
		c22.514-11.048,46.614-20.129,70.566-27.527c24.545-7.584,49.424-12.73,74.713-17.229c49.934-8.881,101.703-11.141,152.34-8.607
		c50.549,2.527,100.778,8.794,150.357,19.051c45.305,9.372,89.256,23.062,132.355,39.676
		c42.586,16.414,84.695,38.018,121.525,65.019c35.033,25.68,67.668,54.68,95.338,88.289c17.934-1.426,35.955-1.775,53.932-1.196
		c45.637,1.467,91.68,8.663,135.971,19.7c17.77,4.428,35.467,9.851,52.576,16.664c3.457-2.641,6.879-5.328,10.227-8.107
		c41.441-34.386,88.168-61.289,137.584-82.461c25.162-10.781,50.777-20.444,77.084-28.045c27.842-8.041,56.367-13.592,85.037-17.683
		c57.166-8.157,115.645-10.086,173.334-8.755c16.518,0.381,33.002,1.284,49.465,2.65c11.01,0.912,31.973,2.576,42.914,3.966
		c-4.85,28.025-0.66,58.045,0.396,85.876C6494.656,756.675,6491.307,1067.489,6493.314,1102.715z"/>
	<g>
		<path class="hills4" fill="#9FBC2E" d="M3693.838,637.545c-6.381-3.776-12.314,2.008-12.252,7.703c-0.135,0.513-0.227,1.145-0.316,1.432
			c-0.469,1.488-1.559,4.181-1.834,4.844c-2.27,5.431-4.824,10.751-7.354,16.064c-4.18,8.788-9.168,17.528-12.395,26.733
			c-3.527,10.066,12.446,14.357,15.949,4.365c0.072-0.208,0.129-0.368,0.17-0.49c0.391-0.887,0.789-1.771,1.194-2.65
			c1.151-2.505,2.347-4.989,3.538-7.473c3.043-6.351,6.119-12.684,9.086-19.069C3693.037,661.657,3704.375,643.78,3693.838,637.545z
			"/>
		<path class="hills4" fill="#9FBC2E" d="M3720.019,664.817c-4.661,7.152-8.345,14.802-12.28,22.358c-3.82,7.332-8.793,13.619-11.68,21.474
			c-3.68,10.006,12.301,14.284,15.948,4.365c2.567-6.984,7.659-12.834,10.993-19.456c3.508-6.973,7.07-13.929,11.336-20.476
			C3740.156,664.149,3725.814,655.922,3720.019,664.817z"/>
		<path class="hills4" fill="#9FBC2E" d="M3768.513,670.328c-2.319,4.285-6.486,7.12-9.526,10.943c-3.814,4.797-7.361,9.774-11.235,14.526
			c-3.7,4.54-7.306,9.172-10.647,13.983c-2.742,3.951-4.366,8.632-8.089,11.769c-8.13,6.849,3.657,18.449,11.755,11.628
			c4.198-3.537,6.158-8.177,8.996-12.702c3.237-5.163,7.168-9.933,11.034-14.628c3.872-4.7,7.274-9.764,11.153-14.45
			c3.674-4.439,8.076-7.63,10.877-12.804C3787.891,669.24,3773.588,660.948,3768.513,670.328z"/>
		<path class="hills4" fill="#9FBC2E" d="M3653.891,624.038c-4.758,8.486-8.705,17.413-12.389,26.411c-2.885,7.045-5.267,14.747-10.576,20.402
			c-7.27,7.739,4.443,19.413,11.754,11.628c6.307-6.716,9.729-14.988,13.082-23.432c3.629-9.141,7.633-18.16,12.445-26.743
			C3673.414,623.018,3659.105,614.738,3653.891,624.038z"/>
		<path class="hills4" fill="#9FBC2E" d="M3616.379,611.862c-5.215-8.155-17.588-1.938-15.316,6.056c-0.088,0.19-0.189,0.414-0.325,0.701
			c-0.761,1.617-1.534,3.221-2.368,4.803c-1.282,2.434-2.768,4.772-3.994,7.232c-2.617,5.243-4.84,10.702-7.439,15.962
			c-2.564,5.188-3.949,11.063-6.888,15.997c-5.454,9.157,8.866,17.415,14.317,8.266c3.43-5.758,5.184-12.487,8.131-18.523
			c2.514-5.147,4.586-10.567,7.377-15.564C3613.53,630.244,3621.217,619.427,3616.379,611.862z"/>
		<path class="hills4" fill="#9FBC2E" d="M3546.977,595.049c-0.287,8.995-4.354,17.554-6.881,26.089c-2.654,8.959-3.786,18.506-7.439,27.147
			c-1.752,4.142-1.152,8.819,3.025,11.292c3.477,2.06,9.555,1.079,11.291-3.026c4.258-10.067,5.952-20.639,9.071-31.048
			c3.003-10.024,7.13-19.731,7.468-30.336C3563.854,584.511,3547.316,584.425,3546.977,595.049z"/>
		<path class="hills4" fill="#9FBC2E" d="M3486.359,570.801c-0.301,5.968-2.029,12.051-2.709,18.03c-0.768,6.745-1.068,13.49-2.15,20.201
			c-1.158,7.166-2.605,14.273-3.686,21.453c-0.801,5.327-0.135,11.437-2.184,16.443c-1.702,4.163,1.869,9.037,5.791,10.156
			c4.729,1.35,8.477-1.68,10.158-5.79c2.135-5.219,1.598-11.039,2.204-16.532c0.866-7.862,2.803-15.583,3.982-23.4
			c1.077-7.141,1.544-14.286,2.321-21.458c0.689-6.354,2.486-12.605,2.807-18.984
			C3503.43,560.271,3486.891,560.201,3486.359,570.801z"/>
		<path class="hills4" fill="#9FBC2E" d="M3421.333,603.865c-0.116,6.36-0.64,12.887-1.339,19.197c-0.68,6.156-0.979,12.397-2.775,18.356
			c-3.078,10.215,12.881,14.542,15.948,4.365c2.054-6.816,2.306-13.949,3.157-20.974c0.83-6.835,1.418-13.931,1.545-20.827
			C3438.064,593.327,3421.527,593.23,3421.333,603.865z"/>
		<path class="hills4" fill="#9FBC2E" d="M3354.107,562.103c0.055-10.652-16.48-10.762-16.537-0.118c-0.14,26.895-5.357,53.529-4.408,80.456
			c0.377,10.618,16.912,10.764,16.537,0.118C3348.748,615.632,3353.967,588.998,3354.107,562.103z"/>
		<path class="hills4" fill="#9FBC2E" d="M3303.404,582.925c-0.168,11.073-1.678,22.253-2.367,33.312c-0.666,10.697-3.988,21.001-4.245,31.714
			c-0.255,10.657,16.281,10.749,16.536,0.118c0.256-10.637,3.581-21.042,4.245-31.714c0.688-11.061,2.198-22.239,2.368-33.312
			C3320.104,572.387,3303.567,572.288,3303.404,582.925z"/>
		<path class="hills4" fill="#9FBC2E" d="M3896.072,764.9c-2.309-7.282-2.891-14.882-4.968-22.172c-1.831-6.427-5.759-12.044-7.155-18.606
			c-2.215-10.413-18.178-6.105-15.969,4.278c1.402,6.595,5.327,12.188,7.156,18.608c2.076,7.289,2.657,14.889,4.968,22.171
			C3883.311,779.288,3899.297,775.066,3896.072,764.9z"/>
		<path class="hills4" fill="#9FBC2E" d="M4179.569,653.743c-2.896-5.44-6.806-10.196-10.716-14.932c-4.002-4.846-7.451-10.032-11.365-14.942
			c-3.562-4.473-7.234-8.586-11.395-12.46c-3.653-3.4-7-7.964-12.251-8.846c-10.417-1.748-14.854,14.188-4.365,15.947
			c1.622,0.273,5.547,5.054,7.304,6.66c3.777,3.456,7.26,7.84,10.299,11.986c6,8.192,13.449,15.975,18.229,24.958
			C4170.305,671.504,4184.568,663.141,4179.569,653.743z"/>
		<path class="hills4" fill="#9FBC2E" d="M4257.887,609.548c-0.076-0.134-0.16-0.29-0.253-0.493c-0.377-0.827-0.888-1.632-1.308-2.437
			c-0.76-1.459-1.499-2.931-2.225-4.407c-2.752-5.603-5.02-11.308-6.977-17.231c-3.993-12.087-10.537-23.256-15.756-34.837
			c-1.141-2.53-4.432-4.082-7.07-4.082h-2.205c-9.401,0-10.586,12.877-3.416,15.9c5.029,10.98,10.225,21.679,14.437,33.046
			c2.118,5.715,4.594,11.311,7.315,16.763c1.521,3.05,2.973,6.761,5.471,9.172c3.999,3.861,10.047,2.707,12.973-1.744
			c0.026-0.04,0.053-0.078,0.078-0.118C4261.371,615.397,4260.338,611.838,4257.887,609.548z"/>
		<path class="hills4" fill="#9FBC2E" d="M4375.5,564.312c-8.643-21.876-14.23-44.729-20.94-67.229c-3.034-10.178-19.015-5.94-15.968,4.278
			c6.709,22.501,12.298,45.354,20.941,67.23c1.639,4.151,5.455,7.095,10.121,5.845C4373.59,573.383,4377.152,568.492,4375.5,564.312
			z"/>
		<path class="hills4" fill="#9FBC2E" d="M4477.761,510.559c-2.685-11.73-2.538-24.574-8.331-35.36c-5.031-9.37-19.298-1.009-14.26,8.371
			c4.855,9.042,4.359,21.381,6.623,31.269c2.265,9.893,5.221,20.426,5.465,30.614c0.254,10.632,16.79,10.768,16.536,0.119
			C4483.514,533.868,4480.361,521.915,4477.761,510.559z"/>
		<path class="hills4" fill="#9FBC2E" d="M4438.322,559.904c-3.574-17.946-6.993-35.787-14.079-52.745c-1.718-4.109-7.845-5-11.315-2.944
			c-4.268,2.527-4.682,7.163-2.945,11.316c6.445,15.426,9.125,32.35,12.371,48.652
			C4424.434,574.622,4440.393,570.302,4438.322,559.904z"/>
		<path class="hills4" fill="#9FBC2E" d="M4830.045,520.961c-0.367,0.367-0.734,0.734-1.102,1.103c-2.258,2.258-2.771,4.888-2.192,7.259
			c-2.101,6.444-5.842,12.278-9.104,18.217c-4.358,7.926-7.798,16.23-13.129,23.598c-2.639,3.645-0.536,9.182,3.024,11.291
			c4.169,2.468,8.69,0.571,11.292-3.025c5.688-7.86,9.207-16.832,14.023-25.193c4.535-7.87,9.441-16.203,11.039-25.251
			C4845.273,521.169,4836.279,514.729,4830.045,520.961z"/>
	</g>
	<g>
		<path class="hills4" fill="#9FBC2E" d="M6045.416,627.536c6.381-3.776,12.314,2.008,12.252,7.703c0.135,0.513,0.227,1.145,0.316,1.432
			c0.469,1.488,1.559,4.181,1.834,4.844c2.27,5.431,4.824,10.751,7.354,16.064c4.18,8.788,9.168,17.528,12.395,26.733
			c3.527,10.066-12.447,14.357-15.949,4.365c-0.072-0.208-0.129-0.368-0.17-0.49c-0.391-0.887-0.789-1.771-1.195-2.65
			c-1.15-2.505-2.346-4.989-3.537-7.474c-3.043-6.351-6.119-12.683-9.086-19.068
			C6046.217,651.648,6034.879,633.771,6045.416,627.536z"/>
		<path class="hills4" fill="#9FBC2E" d="M6019.234,654.808c4.662,7.153,8.346,14.803,12.281,22.359c3.82,7.332,8.793,13.619,11.68,21.473
			c3.68,10.007-12.301,14.285-15.949,4.366c-2.566-6.984-7.658-12.834-10.992-19.456c-3.508-6.973-7.07-13.929-11.336-20.476
			C5999.098,654.141,6013.439,645.913,6019.234,654.808z"/>
		<path class="hills4" fill="#9FBC2E" d="M5970.74,660.319c2.32,4.285,6.486,7.12,9.527,10.943c3.812,4.796,7.361,9.774,11.234,14.526
			c3.701,4.54,7.307,9.172,10.648,13.983c2.742,3.951,4.365,8.632,8.088,11.768c8.129,6.85-3.658,18.45-11.754,11.628
			c-4.199-3.536-6.158-8.176-8.996-12.701c-3.236-5.163-7.168-9.933-11.035-14.628c-3.871-4.7-7.273-9.764-11.152-14.45
			c-3.674-4.439-8.076-7.63-10.877-12.804C5951.363,659.231,5965.666,650.939,5970.74,660.319z"/>
		<path class="hills4" fill="#9FBC2E" d="M6085.363,614.029c4.758,8.486,8.705,17.413,12.389,26.411c2.885,7.045,5.266,14.747,10.576,20.402
			c7.27,7.739-4.443,19.413-11.754,11.628c-6.307-6.716-9.729-14.988-13.082-23.432c-3.629-9.141-7.633-18.16-12.445-26.743
			C6065.838,613.009,6080.148,604.729,6085.363,614.029z"/>
		<path class="hills4" fill="#9FBC2E" d="M6122.875,601.854c5.215-8.155,17.588-1.938,15.316,6.056c0.086,0.19,0.189,0.414,0.326,0.701
			c0.76,1.617,1.533,3.221,2.367,4.803c1.281,2.433,2.768,4.772,3.994,7.232c2.617,5.243,4.84,10.702,7.439,15.962
			c2.564,5.188,3.949,11.063,6.887,15.996c5.455,9.158-8.865,17.416-14.316,8.267c-3.43-5.758-5.184-12.487-8.131-18.523
			c-2.514-5.147-4.586-10.567-7.377-15.564C6125.723,620.235,6118.037,609.418,6122.875,601.854z"/>
		<path class="hills4" fill="#9FBC2E" d="M6192.277,585.039c0.287,8.996,4.352,17.555,6.881,26.09c2.654,8.959,3.785,18.506,7.439,27.147
			c1.752,4.142,1.152,8.818-3.025,11.292c-3.477,2.06-9.555,1.079-11.291-3.026c-4.258-10.067-5.953-20.64-9.072-31.048
			c-3.002-10.024-7.129-19.731-7.469-30.336C6175.4,574.502,6191.938,574.416,6192.277,585.039z"/>
		<path class="hills4" fill="#9FBC2E" d="M6252.895,560.792c0.299,5.968,2.029,12.051,2.709,18.03c0.768,6.745,1.066,13.49,2.15,20.201
			c1.156,7.166,2.605,14.273,3.686,21.453c0.799,5.327,0.135,11.437,2.184,16.443c1.701,4.163-1.869,9.037-5.791,10.156
			c-4.729,1.35-8.477-1.68-10.158-5.79c-2.135-5.219-1.6-11.039-2.205-16.532c-0.865-7.862-2.803-15.584-3.98-23.4
			c-1.078-7.141-1.545-14.286-2.322-21.458c-0.689-6.354-2.486-12.605-2.809-18.984
			C6235.824,550.262,6252.363,550.191,6252.895,560.792z"/>
		<path class="hills4" fill="#9FBC2E" d="M6317.92,593.856c0.117,6.36,0.641,12.887,1.34,19.197c0.68,6.156,0.979,12.396,2.775,18.356
			c3.078,10.215-12.881,14.542-15.949,4.365c-2.053-6.816-2.305-13.949-3.156-20.975c-0.83-6.834-1.418-13.93-1.545-20.826
			C6301.189,583.318,6317.725,583.222,6317.92,593.856z"/>
		<path class="hills4" fill="#9FBC2E" d="M6385.146,552.094c-0.055-10.652,16.48-10.762,16.537-0.118c0.139,26.895,5.357,53.528,4.408,80.456
			c-0.377,10.618-16.912,10.764-16.537,0.118C6390.506,605.623,6385.287,578.989,6385.146,552.094z"/>
		<path class="hills4" fill="#9FBC2E" d="M6435.85,572.916c0.168,11.073,1.678,22.253,2.365,33.312c0.668,10.697,3.99,21.001,4.246,31.714
			c0.256,10.657-16.281,10.749-16.535,0.118c-0.256-10.637-3.582-21.042-4.246-31.714c-0.688-11.061-2.197-22.239-2.367-33.312
			C6419.15,562.378,6435.686,562.279,6435.85,572.916z"/>
		<path class="hills4" fill="#9FBC2E" d="M5843.182,754.892c2.309-7.282,2.891-14.882,4.967-22.172c1.832-6.427,5.76-12.044,7.156-18.606
			c2.215-10.413,18.178-6.105,15.967,4.278c-1.402,6.595-5.326,12.188-7.154,18.608c-2.078,7.289-2.658,14.889-4.969,22.171
			C5855.943,769.279,5839.957,765.058,5843.182,754.892z"/>
		<path class="hills4" fill="#9FBC2E" d="M5559.684,643.734c2.896-5.44,6.807-10.196,10.717-14.932c4-4.846,7.451-10.032,11.363-14.943
			c3.562-4.472,7.236-8.585,11.396-12.459c3.654-3.4,7-7.965,12.252-8.846c10.416-1.748,14.854,14.188,4.363,15.947
			c-1.621,0.273-5.547,5.053-7.303,6.66c-3.777,3.456-7.262,7.84-10.299,11.986c-6,8.191-13.449,15.975-18.229,24.957
			C5568.949,661.495,5554.686,653.132,5559.684,643.734z"/>
		<path class="hills4" fill="#9FBC2E" d="M5481.367,599.539c0.076-0.134,0.16-0.29,0.252-0.494c0.377-0.826,0.889-1.631,1.307-2.436
			c0.762-1.459,1.5-2.931,2.227-4.407c2.752-5.603,5.02-11.308,6.977-17.231c3.992-12.087,10.537-23.256,15.756-34.837
			c1.141-2.53,4.432-4.082,7.07-4.082h2.205c9.4,0,10.586,12.877,3.416,15.9c-5.029,10.98-10.225,21.679-14.438,33.046
			c-2.117,5.715-4.594,11.311-7.314,16.763c-1.523,3.05-2.973,6.761-5.471,9.172c-4,3.861-10.047,2.707-12.973-1.744
			c-0.027-0.04-0.053-0.078-0.078-0.118C5477.883,605.389,5478.916,601.829,5481.367,599.539z"/>
		<path class="hills4" fill="#9FBC2E" d="M5363.754,554.304c8.642-21.876,14.23-44.729,20.939-67.23c3.035-10.178,19.016-5.94,15.968,4.279
			c-6.708,22.501-12.297,45.354-20.94,67.23c-1.639,4.151-5.455,7.095-10.121,5.845
			C5365.664,563.373,5362.102,558.483,5363.754,554.304z"/>
		<path class="hills4" fill="#9FBC2E" d="M5261.493,500.55c2.685-11.731,2.537-24.574,8.33-35.36c5.032-9.37,19.298-1.009,14.261,8.371
			c-4.855,9.042-4.359,21.381-6.623,31.269c-2.266,9.893-5.222,20.426-5.465,30.614c-0.254,10.632-16.791,10.768-16.537,0.119
			C5255.74,523.859,5258.893,511.906,5261.493,500.55z"/>
		<path class="hills4" fill="#9FBC2E" d="M5300.932,549.896c3.574-17.946,6.992-35.787,14.079-52.745c1.718-4.109,7.844-5,11.315-2.944
			c4.267,2.527,4.682,7.163,2.945,11.316c-6.445,15.426-9.125,32.349-12.371,48.652
			C5314.821,564.613,5298.861,560.293,5300.932,549.896z"/>
		<path class="hills4" fill="#9FBC2E" d="M4909.208,510.952c0.368,0.367,0.735,0.734,1.103,1.103c2.258,2.258,2.771,4.887,2.192,7.259
			c2.101,6.444,5.841,12.278,9.104,18.217c4.357,7.926,7.797,16.229,13.129,23.597c2.637,3.646,0.535,9.183-3.025,11.292
			c-4.168,2.468-8.689,0.571-11.291-3.025c-5.688-7.86-9.207-16.832-14.023-25.193c-4.535-7.87-9.441-16.204-11.04-25.251
			C4893.98,511.16,4902.975,504.72,4909.208,510.952z"/>
	</g>
	<path class="hills5" opacity="0.25" fill="#7D9126" d="M-245.178,1054.773c-4.177,10.086-6.46,21.057-6.46,32.589c0,6.4,0.835,12.937,2.393,19.401
	h7721.611c3.845-9.716,5.967-20.296,5.967-31.402c0-38.419-26.622-72.854-62.364-83.573c0.006-14.589-3.525-28.733-11.34-39.73
	c6.929-12.701,10.697-27.063,10.697-41.713c-1.036-7.709-2.072-15.419-3.107-23.128c-4.134-14.738-11.592-27.535-22.374-38.391
	c-19.321-24.719-43.872-43.878-68.674-62.777c-19.914-15.175-40.999-28.68-62.998-40.626
	c-49.119-26.673-103.165-45.979-158.227-55.665c-31.785-5.592-64.134-9.389-96.429-9.912c-32.233-0.521-64.22,3.337-96.017,8.335
	c-57.352,9.013-109.219,33.506-159.586,61.429c-22.009,12.201-43.332,25.546-63.264,40.935
	c-7.386,5.702-14.974,11.363-22.367,17.265c-5.887-4.492-11.768-8.949-17.809-13.014c-15.055-10.126-32.141-16.361-49.012-22.823
	c-15.389-5.895-31.119-10.85-47.15-14.661c-43.32-10.298-87.464-12.219-130.91-1.653c-18.363,4.465-36.672,12.493-51.758,23.965
	c-7.369,5.604-14.408,11.464-21.396,17.371c-9.477-6.31-19.281-12.139-29.195-17.724c-25.439-14.332-52.314-25.844-79.377-36.716
	c-47.793-19.199-97.8-28.887-148.883-34.276c-98.755-10.42-202.99,12.677-288.086,63.79c-27.742,16.664-53.802,37.005-77.559,58.921
	c-6.768,6.243-13.213,12.805-19.498,19.521c-6.682-2.929-13.37-5.849-20.113-8.679c-14.443-6.062-29.854-6.993-45.317-8.997
	c-27.322-3.541-56.74,1.293-83.521,5.46c-27.664,4.306-52.738,14.55-78.379,25.411c-1.181-1.102-2.363-2.2-3.564-3.287
	c-22.543-20.399-47.227-39.145-73.315-54.812c-25.895-15.551-54.052-27.589-82.299-38.083
	c-22.321-8.293-45.405-14.433-68.759-19.011c-50.746-9.949-102.675-13.966-154.324-14.974c-35.546-0.694-71.167,0.266-106.599,3.321
	c-44.612-22.248-92.77-38.487-141.74-47.102c-31.785-5.592-64.134-9.389-96.429-9.912c-32.233-0.521-64.22,3.337-96.017,8.335
	c-57.352,9.013-109.219,33.506-159.586,61.429c-22.009,12.201-43.332,25.546-63.264,40.935
	c-7.386,5.702-14.974,11.363-22.367,17.265c-5.887-4.492-11.768-8.949-17.809-13.014c-15.055-10.126-32.141-16.361-49.012-22.823
	c-15.389-5.895-31.119-10.85-47.15-14.661c-43.32-10.298-87.464-12.219-130.91-1.653c-18.363,4.465-36.672,12.493-51.758,23.965
	c-7.369,5.604-14.408,11.464-21.396,17.371c-9.477-6.31-19.281-12.139-29.195-17.724c-25.439-14.332-52.314-25.844-79.377-36.716
	c-47.793-19.199-97.8-28.887-148.883-34.276c-98.755-10.42-202.99,12.677-288.086,63.79c-27.742,16.664-53.802,37.005-77.559,58.921
	c-6.768,6.243-13.213,12.805-19.498,19.521c-6.682-2.929-13.37-5.849-20.113-8.679c-14.443-6.062-29.854-6.993-45.317-8.997
	c-27.322-3.541-56.74,1.293-83.521,5.46c-27.664,4.306-52.738,14.55-78.379,25.411c-1.181-1.102-2.363-2.2-3.564-3.287
	c-22.543-20.399-47.227-39.145-73.315-54.812c-25.895-15.551-54.052-27.589-82.299-38.083
	c-22.321-8.293-45.405-14.433-68.759-19.011c-50.746-9.949-102.675-13.966-154.324-14.974c-44.975-0.878-90.068,0.877-134.749,6.197
	c-51.239,6.102-102.423,14.247-151.06,32.063c-32.064,11.745-63.248,26.108-91.499,44.948
	c-12.143-10.81-25.063-20.794-38.061-30.698c-19.914-15.175-40.999-28.68-62.998-40.626
	c-49.119-26.673-103.165-45.979-158.227-55.665c-31.785-5.592-64.134-9.389-96.429-9.912c-32.233-0.521-64.22,3.337-96.017,8.335
	c-57.352,9.013-109.219,33.506-159.586,61.429c-22.009,12.201-43.332,25.546-63.264,40.935
	c-7.386,5.702-14.974,11.363-22.367,17.265c-5.887-4.492-11.768-8.949-17.809-13.014c-15.055-10.126-32.141-16.361-49.012-22.823
	c-15.389-5.895-31.119-10.85-47.15-14.661c-43.32-10.298-87.464-12.219-130.91-1.653c-18.363,4.465-36.672,12.493-51.758,23.965
	c-7.369,5.604-14.408,11.464-21.396,17.371c-9.477-6.31-19.281-12.139-29.195-17.724c-25.439-14.332-52.314-25.844-79.377-36.716
	c-47.793-19.199-97.8-28.887-148.883-34.276c-98.755-10.42-202.99,12.677-288.086,63.79c-27.742,16.664-53.802,37.005-77.559,58.921
	c-6.768,6.243-13.213,12.805-19.498,19.521c-6.682-2.929-13.37-5.849-20.113-8.679c-14.443-6.062-29.854-6.993-45.317-8.997
	c-27.322-3.541-56.74,1.293-83.521,5.46c-27.664,4.306-52.738,14.55-78.379,25.411c-1.181-1.102-2.363-2.2-3.564-3.287
	c-22.543-20.399-47.227-39.145-73.315-54.812c-25.895-15.551-54.051-27.589-82.299-38.083
	c-22.321-8.293-45.405-14.433-68.759-19.011c-50.746-9.949-102.675-13.966-154.325-14.974c-44.975-0.878-90.068,0.877-134.749,6.197
	c-51.24,6.102-102.422,14.247-151.06,32.063c-50.842,18.623-99.478,43.818-137.702,83.027c-2.008,2.06-3.892,4.201-5.661,6.408
	c-20.585,6.926-39.97,17.409-57.346,32.596c-28.585,24.983-33.176,74.008-13.604,105.429
	C-292.42,1025.504-270.442,1043.297-245.178,1054.773z"/>
</g>
</svg>
