<?xml version="1.0" encoding="utf-8"?>
<!-- Generator: Adobe Illustrator 16.0.0, SVG Export Plug-In . SVG Version: 6.00 Build 0)  -->
<!DOCTYPE svg PUBLIC "-//W3C//DTD SVG 1.1//EN" "http://www.w3.org/Graphics/SVG/1.1/DTD/svg11.dtd">
<svg class="scene-svg" version="1.1" xmlns="http://www.w3.org/2000/svg" xmlns:xlink="http://www.w3.org/1999/xlink" x="0px" y="0px" width="4435px"
	 height="1200px" viewBox="0 0 4435 1200" enable-background="new 0 0 4435 1200" xml:space="preserve">
<g id="hills4">
	<g>
		<defs>
			<path id="SVGID_1_" d="M4435,768V359.192c-4.152,0.44-8.736,0.688-13.879,0.688c-47.658,0-47.658-7.216-95.316-7.216
				s-47.658-15.816-95.315-15.816s-47.657,21.401-95.315,21.401s-47.658-17.703-95.316-17.703s-47.658,18.16-95.316,18.16
				s-47.658,2.097-95.316,2.097s-47.658-10.104-95.317-10.104c-47.658,0-47.658-15.372-95.316-15.372
				c-47.657,0-47.657,1.202-95.315,1.202s-47.658,16.684-95.315,16.684c-47.658,0-47.658,5.121-95.316,5.121
				s-47.658-0.747-95.316-0.747s-47.658-3.859-95.316-3.859c-47.659,0-47.659-10.189-95.317-10.189s-47.658,8.807-95.316,8.807
				c-47.655,0-47.655-0.307-95.311-0.307c-47.656,0-47.656-24.248-95.312-24.248c-47.657,0-47.657,11.411-95.313,11.411
				c-47.658,0-47.658-3.672-95.315-3.672c-47.659,0-47.659,7.667-95.317,7.667s-47.658-9.428-95.317-9.428
				c-47.658,0-47.658,17.937-95.316,17.937c-47.657,0-47.657-9.5-95.314-9.5s-47.657,23.309-95.314,23.309
				s-47.657-14.221-95.314-14.221c-47.659,0-47.659-12.411-95.319-12.411c-47.657,0-47.657-2.271-95.314-2.271
				c-47.659,0-47.659,13.285-95.318,13.285c-47.658,0-47.658-15.417-95.315-15.417c-47.658,0-47.658,32.384-95.316,32.384
				c-47.659,0-47.659-18.805-95.317-18.805s-47.659,11.379-95.317,11.379c-47.658,0-47.658-1.325-95.317-1.325
				c-47.66,0-47.66,5.394-95.32,5.394c-47.659,0-47.659-34.92-95.318-34.92c-47.659,0-47.659,29.183-95.318,29.183
				c-47.66,0-47.66-21.984-95.32-21.984s-47.66,25.9-95.32,25.9s-47.66-12.704-95.32-12.704c-47.659,0-47.659-9.984-95.318-9.984
				c-47.66,0-47.66-6.714-95.319-6.714c-47.658,0-47.658,33.977-95.317,33.977c-47.661,0-47.661-24.904-95.321-24.904
				c-47.66,0-47.66,18.162-95.319,18.162c-47.66,0-47.66-28.072-95.321-28.072c-47.66,0-47.66,15.142-95.319,15.142
				c-16.642,0-27.47,1.757-36.548,4.043V768H4435z"/>
		</defs>
		<clipPath id="SVGID_2_">
			<use xlink:href="#SVGID_1_"  overflow="visible"/>
		</clipPath>
		<rect class="hills0" y="276.5" clip-path="url(#SVGID_2_)" fill="#E6E6E6" width="4435" height="491.5"/>
	</g>
</g>
<g id="hills3_1_">
	<g>
		<defs>
			<path id="SVGID_3_" d="M4402.739,409.892c-23.917,0-23.917-16.267-47.835-16.267c-23.917,0-23.917,25.312-47.834,25.312
				c-23.918,0-23.918-54.833-47.835-54.833s-23.917,48.942-47.835,48.942c-23.917,0-23.917-91.232-47.834-91.232
				c-23.918,0-23.918,112.102-47.837,112.102c-23.917,0-23.917-98.037-47.835-98.037c-23.917,0-23.917,24.844-47.834,24.844
				c-23.918,0-23.918,34.378-47.837,34.378c-23.917,0-23.917-90.226-47.835-90.226c-23.917,0-23.917,44.382-47.834,44.382
				c-23.918,0-23.918,84.521-47.836,84.521c-23.917,0-23.917-33.216-47.834-33.216c-23.918,0-23.918-85.547-47.836-85.547
				s-23.918,96.386-47.835,96.386s-23.917-47.061-47.835-47.061s-23.918,65.458-47.836,65.458s-23.918-37.603-47.835-37.603
				c-23.919,0-23.919-18.963-47.837-18.963s-23.918,60.041-47.835,60.041c-23.919,0-23.919,15.533-47.837,15.533
				s-23.918-31.13-47.835-31.13c-23.919,0-23.919-103.016-47.837-103.016s-23.918,99.299-47.835,99.299
				c-23.918,0-23.918-16.29-47.836-16.29c-23.917,0-23.917-72.287-47.835-72.287s-23.918,104.572-47.836,104.572
				s-23.918,0.727-47.836,0.727s-23.918-112.816-47.837-112.816c-23.917,0-23.917,93.445-47.835,93.445
				s-23.918-63.646-47.837-63.646c-23.917,0-23.917,76.929-47.835,76.929s-23.918-47.853-47.837-47.853
				c-23.918,0-23.918,59.188-47.836,59.188c-23.917,0-23.917-34.322-47.833-34.322c-23.915,0-23.915,22.663-47.83,22.663
				c-23.917,0-23.917-2.019-47.834-2.019c-23.916,0-23.916-77.129-47.833-77.129c-23.915,0-23.915,57.779-47.831,57.779
				c-23.918,0-23.918,21.823-47.835,21.823s-23.917-65.511-47.833-65.511s-23.916,89.524-47.832,89.524
				c-23.919,0-23.919-31.635-47.838-31.635c-23.916,0-23.916,22.956-47.832,22.956c-23.917,0-23.917-86.899-47.834-86.899
				c-23.918,0-23.918,41.763-47.835,41.763c-23.916,0-23.916-74.859-47.833-74.859c-23.919,0-23.919,122.481-47.838,122.481
				c-23.917,0-23.917-43.182-47.833-43.182c-23.918,0-23.918-53.135-47.837-53.135c-23.917,0-23.917,87.116-47.834,87.116
				c-23.918,0-23.918-41.411-47.837-41.411c-23.917,0-23.917,25.549-47.834,25.549c-23.919,0-23.919-95.072-47.838-95.072
				c-23.917,0-23.917,107.309-47.834,107.309c-23.918,0-23.918-89.945-47.837-89.945c-23.918,0-23.917,105.822-47.835,105.822
				c-23.917,0-23.917-30.711-47.835-30.711c-23.919,0-23.919-80.547-47.838-80.547c-23.918,0-23.918,62.859-47.835,62.859
				c-23.918,0-23.918-91.01-47.836-91.01c-23.92,0-23.919,106.433-47.839,106.433c-23.918,0-23.918-28.378-47.837-28.378
				c-23.918,0-23.918,40.077-47.836,40.077s-23.918-103.779-47.836-103.779s-23.918,105.795-47.837,105.795
				c-23.919,0-23.919-18.489-47.839-18.489c-23.92,0-23.92,9.5-47.839,9.5s-23.919-57.052-47.839-57.052
				c-23.919,0-23.919,44.183-47.839,44.183c-23.919,0-23.919-72.319-47.838-72.319s-23.919,92.194-47.838,92.194
				s-23.919-111.578-47.837-111.578c-23.92,0-23.92,108.041-47.84,108.041c-23.919,0-23.919-42.549-47.838-42.549
				c-23.92,0-23.92,2.34-47.839,2.34s-23.919-68.62-47.838-68.62c-23.919,0-23.919,93.136-47.839,93.136
				c-23.92,0-23.92-51.614-47.84-51.614c-23.917,0-23.917,69.081-47.834,69.081c-23.918,0-23.918,6.511-47.836,6.511
				c-23.92,0-23.92-61.143-47.841-61.143c-23.918,0-23.918,44.471-47.837,44.471c-23.919,0-23.919-94.331-47.839-94.331
				c-23.918,0-23.918,91.588-47.837,91.588c-23.919,0-23.919,6.229-47.839,6.229s-23.919-82.778-47.839-82.778
				c-23.921,0-23.921,63.681-47.842,63.681s-23.921,1.675-47.842,1.675c-23.92,0-23.92-71.316-47.841-71.316
				c-23.921,0-23.921,71.247-47.843,71.247c-23.92,0-23.92-30.831-47.84-30.831c-0.616,0-1.212,0.048-1.797,0.124V768h4435V321.666
				C4424.764,353.439,4419.927,409.892,4402.739,409.892z"/>
		</defs>
		<clipPath id="SVGID_4_">
			<use xlink:href="#SVGID_3_"  overflow="visible"/>
		</clipPath>
		<rect class="hills1" x="1.797" y="304.875" clip-path="url(#SVGID_4_)" fill="#D5D5D5" width="4433.203" height="463.125"/>
		<g clip-path="url(#SVGID_4_)">
			<path fill="#FFFFFF" d="M394,356.5c0,2-1.567,0-3.5,0s-3.5,2-3.5,0s1.567-4.334,3.5-4.334S394,354.5,394,356.5z"/>
			<path fill="#FFFFFF" d="M350,345c0,0-1.44,9.62,12,8.5c6-0.5,3.188-7.088,7.927-7.088s4.416,6.143,8.136,6.143
				c6.938,0,3.592-11.975,8.265-11.265s4.655,4.831,8.673,4.21c8.035-1.242,12.93-17.5,4.965-35.5S349,291,350,345z"/>
		</g>
		<g clip-path="url(#SVGID_4_)">
			<path fill="#FFFFFF" d="M1455.571,338.683c0,0-3.498,9.077,9.864,10.906c5.965,0.816,4.653-6.226,9.279-5.195
				c4.626,1.031,3.627,4.027,7.257,4.837c6.771,1.508,5.458-7.979,9.864-6.271s4.146,2.8,8.202,3.067
				c8.113,0.534,15.773-11.342,11.913-30.644C1508.09,296.083,1466.336,285.757,1455.571,338.683z"/>
		</g>
		<g clip-path="url(#SVGID_4_)">
			<path fill="#FFFFFF" d="M2167,357.5c0,2-1.567,0-3.5,0s-3.5,2-3.5,0s1.567-4.334,3.5-4.334S2167,355.5,2167,357.5z"/>
			<path fill="#FFFFFF" d="M2123,346c0,0-1.44,9.62,12,8.5c6-0.5,3.188-7.088,7.927-7.088s4.416,6.143,8.136,6.143
				c6.938,0,3.592-11.975,8.265-11.265s4.655,4.831,8.673,4.21c8.035-1.242,12.93-17.5,4.965-35.5S2122,292,2123,346z"/>
		</g>
		<g clip-path="url(#SVGID_4_)">
			<path fill="#FFFFFF" d="M3030,362.5c0,2-1.567,0-3.5,0s-3.5,2-3.5,0s1.567-4.334,3.5-4.334S3030,360.5,3030,362.5z"/>
			<path fill="#FFFFFF" d="M2986,351c0,0-1.44,9.62,12,8.5c6-0.5,3.188-7.088,7.927-7.088s4.416,6.143,8.136,6.143
				c6.938,0,3.592-11.975,8.265-11.265s4.655,4.831,8.673,4.21c8.035-1.242,12.93-17.5,4.965-35.5S2985,297,2986,351z"/>
		</g>
		<g clip-path="url(#SVGID_4_)">
			<path fill="#FFFFFF" d="M926,356.5c0,2-1.567,0-3.5,0s-3.5,2-3.5,0s1.567-4.334,3.5-4.334S926,354.5,926,356.5z"/>
			<path fill="#FFFFFF" d="M882,345c0,0-1.44,9.62,12,8.5c6-0.5,3.188-7.088,7.927-7.088s4.416,6.143,8.136,6.143
				c6.938,0,3.592-11.975,8.265-11.265s4.655,4.831,8.673,4.21c8.035-1.242,12.93-17.5,4.965-35.5S881,291,882,345z"/>
		</g>
		<g clip-path="url(#SVGID_4_)">
			<path fill="#FFFFFF" d="M1308,362.5c0,2-1.567,0-3.5,0s-3.5,2-3.5,0s1.567-4.334,3.5-4.334S1308,360.5,1308,362.5z"/>
			<path fill="#FFFFFF" d="M1264,351c0,0-1.44,9.62,12,8.5c6-0.5,3.188-7.088,7.927-7.088s4.416,6.143,8.136,6.143
				c6.938,0,3.592-11.975,8.265-11.265s4.655,4.831,8.673,4.21c8.035-1.242,12.93-17.5,4.965-35.5S1263,297,1264,351z"/>
		</g>
	</g>
</g>
<g id="hills2">
	<g>
		<defs>
			<path id="SVGID_5_" d="M4338.957,439.62c-88.047,0-88.047,44-176.093,44c-88.048,0-88.048-44-176.095-44
				c-88.046,0-88.046,44-176.092,44c-88.047,0-88.047-44-176.094-44s-88.047,44-176.095,44c-88.044,0-88.044-44-176.088-44
				c-88.046,0-88.046,44-176.091,44s-88.045-44-176.091-44c-88.045,0-88.045,44-176.09,44c-88.048,0-88.048-44-176.096-44
				c-88.046,0-88.046,44-176.092,44s-88.046-44-176.092-44c-88.048,0-88.048,44-176.096,44c-88.047,0-88.047-44-176.095-44
				c-88.047,0-88.047,44-176.094,44s-88.047-44-176.095-44s-88.048,44-176.096,44s-88.048-44-176.097-44
				c-88.047,0-88.047,44-176.095,44c-88.046,0-88.046-44-176.093-44c-88.048,0-88.048,44-176.095,44c-88.049,0-88.049-44-176.098-44
				c-88.048,0-88.048,44-176.096,44c-88.052,0-88.052-44-176.104-44c-60.409,0-78.762,17.837-112.696,30.99V768h4435V463.415
				C4410.029,451.773,4388.822,439.62,4338.957,439.62z"/>
		</defs>
		<clipPath id="SVGID_6_">
			<use xlink:href="#SVGID_5_"  overflow="visible"/>
		</clipPath>
		<rect class="hills2" y="410.322" clip-path="url(#SVGID_6_)" fill="#C2C2C2" width="4435" height="357.678"/> </g>
</g>
<g id="hills">
	<g>
		<defs>
			<path id="SVGID_7_" d="M4415.31,508.805c-36.226,0-36.226-1.164-72.451-1.164c-36.228,0-36.228-75.227-72.454-75.227
				s-36.227,58.66-72.452,58.66c-36.225,0-36.225,17.828-72.449,17.828c-36.224,0-36.224-41.573-72.447-41.573
				s-36.224,63.387-72.446,63.387c-36.226,0-36.226-22.549-72.451-22.549s-36.226-50.593-72.451-50.593
				c-36.227,0-36.227,64.79-72.453,64.79c-36.225,0-36.225-15.476-72.449-15.476c-36.226,0-36.226,21.003-72.451,21.003
				s-36.226-51.958-72.451-51.958c-36.225,0-36.225-28.154-72.449-28.154s-36.225,61.208-72.45,61.208s-36.226-28.855-72.451-28.855
				c-36.224,0-36.224,14.457-72.448,14.457c-36.226,0-36.226-56.692-72.451-56.692c-36.225,0-36.225,76.073-72.449,76.073
				c-36.224,0-36.224-35.474-72.447-35.474c-36.225,0-36.225,33.451-72.448,33.451c-36.226,0-36.226-59.554-72.45-59.554
				c-36.226,0-36.226,68.312-72.451,68.312c-36.225,0-36.225-101.008-72.45-101.008s-36.226,105.456-72.45,105.456
				c-36.224,0-36.224-71.711-72.447-71.711c-33.936,0-36.079,67.972-65.999,76.558h-25.988c-18.458-1.898-24.715-6.178-52.904-6.178
				c-36.224,0-36.224-51.916-72.446-51.916c-36.226,0-36.226,56.114-72.451,56.114c-36.223,0-36.223-86.871-72.445-86.871
				s-36.223,70.069-72.444,70.069c-36.225,0-36.225-0.327-72.449-0.327c-36.222,0-36.222-25.188-72.444-25.188
				s-36.223,33.359-72.444,33.359c-36.224,0-36.224-87.687-72.448-87.687c-36.221,0-36.221,88.12-72.442,88.12
				c-36.225,0-36.225-86.808-72.448-86.808c-36.225,0-36.225,84.146-72.449,84.146s-36.225,12.863-72.449,12.863
				s-36.225-53.295-72.449-53.295c-36.224,0-36.224,46.221-72.448,46.221s-36.225-67.538-72.45-67.538
				c-36.225,0-36.225,72.631-72.449,72.631c-36.224,0-36.224-0.189-72.448-0.189c-36.224,0-36.224-52.513-72.448-52.513
				c-36.223,0-36.223,45.317-72.447,45.317c-36.224,0-36.224-18.216-72.447-18.216c-36.225,0-36.225,41.267-72.449,41.267
				c-36.224,0-36.224-61.845-72.448-61.845c-36.224,0-36.224,27.69-72.447,27.69s-36.224-70.554-72.447-70.554
				c-36.225,0-36.225,97.119-72.45,97.119c-36.223,0-36.223-44.567-72.447-44.567s-36.224,31.201-72.447,31.201
				c-36.225,0-36.225-16.198-72.449-16.198c-36.224,0-36.224,46.09-72.447,46.09c-36.224,0-36.224-37.428-72.448-37.428
				s-36.224-53.36-72.447-53.36c-36.223,0-36.223,95.263-72.446,95.263c-36.225,0-36.225-40.343-72.449-40.343
				c-34.805,0-36.208-6.348-68.395-6.845v155.456c0.854,0.11,1.688,0.254,2.5,0.433V768H4435V503.358
				C4429.709,506.667,4423.42,508.805,4415.31,508.805z"/>
		</defs>
		<clipPath id="SVGID_8_">
			<use xlink:href="#SVGID_7_"  overflow="visible"/>
		</clipPath>
		<rect class="hills3" x="-2.246" y="407.752" clip-path="url(#SVGID_8_)" fill="#CDCDCD" width="4437.246" height="360.498"/>
	</g>
</g>
<g id="trees2" display="none">
	<path display="inline" fill="#CDCDCD" d="M340.285,513.961c-3.992-0.567-6.838-3.248-9.988-5.534
		c-0.162-0.118-0.316-0.179-0.479-0.25c-0.013-0.372-0.108-0.743-0.268-1.095c-0.002-0.985-0.039-1.976-0.08-2.962
		c1.174,0.786,2.414,1.479,3.713,2.054c1.453,0.643,3.117,0.438,3.984-1.046c0.735-1.253,0.41-3.346-1.043-3.985
		c-3.104-1.375-5.906-3.271-7.685-6.224c-0.204-1.066-0.419-2.136-0.69-3.206c-0.923-3.643-6.543-2.097-5.62,1.547
		c0.133,0.525,0.227,1.045,0.343,1.564c-0.436,0.239-0.807,0.579-1.02,1.05c-1.34,2.946-3.877,4.737-6.344,6.694
		c-1.246,0.99-1.025,3.095,0,4.12c1.218,1.22,2.879,0.988,4.121,0c1.535-1.219,3.069-2.43,4.404-3.814
		c0.081,1.159,0.134,2.318,0.155,3.477c-4.142,2.14-8.233,4.357-12.736,5.669c-3.601,1.047-2.067,6.671,1.548,5.618
		c3.861-1.124,7.456-2.844,11.011-4.66c-0.116,1.774-0.269,3.551-0.468,5.325c-0.718-0.188-1.486-0.128-2.102,0.322
		c-1.155,0.848-2.549,1.906-4.07,1.65c-1.566-0.262-3.13,0.386-3.585,2.034c-0.388,1.412,0.468,3.323,2.038,3.585
		c2.535,0.422,4.779-0.035,6.893-1.187c-0.533,3.714-1.127,7.441-1.644,11.202c-0.509,3.673,5.108,5.259,5.618,1.548
		c0.543-3.943,1.16-7.855,1.709-11.752c1.312,0.579,2.848,0.763,4.225,0.78c3.762,0.046,3.758-5.781,0-5.83
		c-0.211,0-0.422-0.006-0.633-0.015c-0.111-0.006-0.188-0.008-0.242-0.008c-0.044-0.008-0.078-0.016-0.152-0.026
		c-0.268-0.048-0.529-0.125-0.789-0.206c-0.029-0.01-0.037-0.01-0.059-0.018c-0.035-0.022-0.088-0.058-0.189-0.114
		c-0.08-0.053-0.09-0.057-0.125-0.079c-0.164-0.146-0.315-0.3-0.459-0.461c0.382,0.432-0.143-0.299-0.168-0.344
		c-0.051-0.092-0.088-0.148-0.111-0.189c-0.012-0.05-0.033-0.125-0.091-0.284c-0.075-0.21-0.169-0.407-0.275-0.593
		c0.122-1.153,0.228-2.304,0.321-3.457c2.885,2.144,5.777,4.191,9.483,4.718c1.57,0.225,3.121-0.356,3.585-2.034
		C342.703,516.164,341.862,514.186,340.285,513.961z"/>
	<path display="inline" fill="#CDCDCD" d="M1210.285,493.961c-3.992-0.567-6.838-3.248-9.988-5.534
		c-0.162-0.118-0.316-0.179-0.479-0.25c-0.013-0.372-0.108-0.743-0.268-1.095c-0.002-0.985-0.039-1.976-0.08-2.962
		c1.174,0.786,2.414,1.479,3.713,2.054c1.453,0.643,3.117,0.438,3.984-1.046c0.735-1.253,0.41-3.346-1.043-3.985
		c-3.104-1.375-5.906-3.271-7.685-6.224c-0.204-1.066-0.419-2.136-0.69-3.206c-0.923-3.643-6.543-2.097-5.62,1.547
		c0.133,0.525,0.227,1.045,0.343,1.564c-0.436,0.239-0.807,0.579-1.02,1.05c-1.34,2.946-3.877,4.737-6.344,6.694
		c-1.246,0.99-1.025,3.095,0,4.12c1.218,1.22,2.879,0.988,4.121,0c1.535-1.219,3.069-2.43,4.404-3.814
		c0.081,1.159,0.134,2.318,0.155,3.477c-4.142,2.14-8.233,4.357-12.736,5.669c-3.601,1.047-2.067,6.671,1.548,5.618
		c3.861-1.124,7.456-2.844,11.011-4.66c-0.116,1.774-0.269,3.551-0.468,5.325c-0.718-0.188-1.486-0.128-2.102,0.322
		c-1.155,0.848-2.549,1.906-4.07,1.65c-1.566-0.262-3.13,0.386-3.585,2.034c-0.388,1.412,0.468,3.323,2.038,3.585
		c2.535,0.422,4.779-0.035,6.893-1.187c-0.533,3.714-1.127,7.441-1.644,11.202c-0.509,3.673,5.108,5.259,5.618,1.548
		c0.543-3.943,1.16-7.855,1.709-11.752c1.312,0.579,2.848,0.763,4.225,0.78c3.762,0.046,3.758-5.781,0-5.83
		c-0.211,0-0.422-0.006-0.633-0.015c-0.111-0.006-0.188-0.008-0.242-0.008c-0.044-0.008-0.078-0.016-0.152-0.026
		c-0.268-0.048-0.529-0.125-0.789-0.206c-0.029-0.01-0.037-0.01-0.059-0.018c-0.035-0.022-0.088-0.058-0.189-0.114
		c-0.08-0.053-0.09-0.057-0.125-0.079c-0.164-0.146-0.315-0.3-0.459-0.461c0.382,0.432-0.143-0.299-0.168-0.344
		c-0.051-0.092-0.088-0.148-0.111-0.189c-0.012-0.05-0.033-0.125-0.091-0.284c-0.075-0.21-0.169-0.407-0.275-0.593
		c0.122-1.153,0.228-2.304,0.321-3.457c2.885,2.144,5.777,4.191,9.483,4.718c1.57,0.225,3.121-0.356,3.585-2.034
		C1212.703,496.164,1211.862,494.186,1210.285,493.961z"/>
	<path display="inline" fill="#CDCDCD" d="M2137.285,488.961c-3.992-0.567-6.838-3.248-9.988-5.534
		c-0.162-0.118-0.316-0.179-0.479-0.25c-0.013-0.372-0.108-0.743-0.268-1.095c-0.002-0.985-0.039-1.976-0.08-2.962
		c1.174,0.786,2.414,1.479,3.713,2.054c1.453,0.643,3.117,0.438,3.984-1.046c0.735-1.253,0.41-3.346-1.043-3.985
		c-3.104-1.375-5.906-3.271-7.685-6.224c-0.204-1.066-0.419-2.136-0.69-3.206c-0.923-3.643-6.543-2.097-5.62,1.547
		c0.133,0.525,0.227,1.045,0.343,1.564c-0.436,0.239-0.807,0.579-1.02,1.05c-1.34,2.946-3.877,4.737-6.344,6.694
		c-1.246,0.99-1.025,3.095,0,4.12c1.218,1.22,2.879,0.988,4.121,0c1.535-1.219,3.069-2.43,4.404-3.814
		c0.081,1.159,0.134,2.318,0.155,3.477c-4.142,2.14-8.233,4.357-12.736,5.669c-3.601,1.047-2.067,6.671,1.548,5.618
		c3.861-1.124,7.456-2.844,11.011-4.66c-0.116,1.774-0.269,3.551-0.468,5.325c-0.718-0.188-1.486-0.128-2.102,0.322
		c-1.155,0.848-2.549,1.906-4.07,1.65c-1.566-0.262-3.13,0.386-3.585,2.034c-0.388,1.412,0.468,3.323,2.038,3.585
		c2.535,0.422,4.779-0.035,6.893-1.187c-0.533,3.714-1.127,7.441-1.644,11.202c-0.509,3.673,5.108,5.259,5.618,1.548
		c0.543-3.943,1.16-7.855,1.709-11.752c1.312,0.579,2.848,0.763,4.225,0.78c3.762,0.046,3.758-5.781,0-5.83
		c-0.211,0-0.422-0.006-0.633-0.015c-0.111-0.006-0.188-0.008-0.242-0.008c-0.044-0.008-0.078-0.016-0.152-0.026
		c-0.268-0.048-0.529-0.125-0.789-0.206c-0.029-0.01-0.037-0.01-0.059-0.018c-0.035-0.022-0.088-0.058-0.189-0.114
		c-0.08-0.053-0.09-0.057-0.125-0.079c-0.164-0.146-0.315-0.3-0.459-0.461c0.382,0.432-0.143-0.299-0.168-0.344
		c-0.051-0.092-0.088-0.148-0.111-0.189c-0.012-0.05-0.033-0.125-0.091-0.284c-0.075-0.21-0.169-0.407-0.275-0.593
		c0.122-1.153,0.228-2.304,0.321-3.457c2.885,2.144,5.777,4.191,9.483,4.718c1.57,0.225,3.121-0.356,3.585-2.034
		C2139.703,491.164,2138.862,489.186,2137.285,488.961z"/>
	<path display="inline" fill="#CDCDCD" d="M3169.285,443.961c-3.992-0.567-6.838-3.248-9.988-5.534
		c-0.162-0.118-0.316-0.179-0.479-0.25c-0.013-0.372-0.108-0.743-0.268-1.095c-0.002-0.985-0.039-1.976-0.08-2.962
		c1.174,0.786,2.414,1.479,3.713,2.054c1.453,0.643,3.117,0.438,3.984-1.046c0.735-1.253,0.41-3.346-1.043-3.985
		c-3.104-1.375-5.906-3.271-7.685-6.224c-0.204-1.066-0.419-2.136-0.69-3.206c-0.923-3.643-6.543-2.097-5.62,1.547
		c0.133,0.525,0.227,1.045,0.343,1.564c-0.436,0.239-0.807,0.579-1.02,1.05c-1.34,2.946-3.877,4.737-6.344,6.694
		c-1.246,0.99-1.025,3.095,0,4.12c1.218,1.22,2.879,0.988,4.121,0c1.535-1.219,3.069-2.43,4.404-3.814
		c0.081,1.159,0.134,2.318,0.155,3.477c-4.142,2.14-8.233,4.357-12.736,5.669c-3.601,1.047-2.067,6.671,1.548,5.618
		c3.861-1.124,7.456-2.844,11.011-4.66c-0.116,1.774-0.269,3.551-0.468,5.325c-0.718-0.188-1.486-0.128-2.102,0.322
		c-1.155,0.848-2.549,1.906-4.07,1.65c-1.566-0.262-3.13,0.386-3.585,2.034c-0.388,1.412,0.468,3.323,2.038,3.585
		c2.535,0.422,4.779-0.035,6.893-1.187c-0.533,3.714-1.127,7.441-1.644,11.202c-0.509,3.673,5.108,5.259,5.618,1.548
		c0.543-3.943,1.16-7.855,1.709-11.752c1.312,0.579,2.848,0.763,4.225,0.78c3.762,0.046,3.758-5.781,0-5.83
		c-0.211,0-0.422-0.006-0.633-0.015c-0.111-0.006-0.188-0.008-0.242-0.008c-0.044-0.008-0.078-0.016-0.152-0.026
		c-0.268-0.048-0.529-0.125-0.789-0.206c-0.029-0.01-0.037-0.01-0.059-0.018c-0.035-0.022-0.088-0.058-0.189-0.114
		c-0.08-0.053-0.09-0.057-0.125-0.079c-0.164-0.146-0.315-0.3-0.459-0.461c0.382,0.432-0.143-0.299-0.168-0.344
		c-0.051-0.092-0.088-0.148-0.111-0.189c-0.012-0.05-0.033-0.125-0.091-0.284c-0.075-0.21-0.169-0.407-0.275-0.593
		c0.122-1.153,0.228-2.304,0.321-3.457c2.885,2.144,5.777,4.191,9.483,4.718c1.57,0.225,3.121-0.356,3.585-2.034
		C3171.703,446.164,3170.862,444.186,3169.285,443.961z"/>
	<path display="inline" fill="#CDCDCD" d="M4156.285,487.961c-3.992-0.567-6.838-3.248-9.988-5.534
		c-0.162-0.118-0.316-0.179-0.479-0.25c-0.013-0.372-0.108-0.743-0.268-1.095c-0.002-0.985-0.039-1.976-0.08-2.962
		c1.174,0.786,2.414,1.479,3.713,2.054c1.453,0.643,3.117,0.438,3.984-1.046c0.735-1.253,0.41-3.346-1.043-3.985
		c-3.104-1.375-5.906-3.271-7.685-6.224c-0.204-1.066-0.419-2.136-0.69-3.206c-0.923-3.643-6.543-2.097-5.62,1.547
		c0.133,0.525,0.227,1.045,0.343,1.564c-0.436,0.239-0.807,0.579-1.02,1.05c-1.34,2.946-3.877,4.737-6.344,6.694
		c-1.246,0.99-1.025,3.095,0,4.12c1.218,1.22,2.879,0.988,4.121,0c1.535-1.219,3.069-2.43,4.404-3.814
		c0.081,1.159,0.134,2.318,0.155,3.477c-4.142,2.14-8.233,4.357-12.736,5.669c-3.601,1.047-2.067,6.671,1.548,5.618
		c3.861-1.124,7.456-2.844,11.011-4.66c-0.116,1.774-0.269,3.551-0.468,5.325c-0.718-0.188-1.486-0.128-2.102,0.322
		c-1.155,0.848-2.549,1.906-4.07,1.65c-1.566-0.262-3.13,0.386-3.585,2.034c-0.388,1.412,0.468,3.323,2.038,3.585
		c2.535,0.422,4.779-0.035,6.893-1.187c-0.533,3.714-1.127,7.441-1.644,11.202c-0.509,3.673,5.108,5.259,5.618,1.548
		c0.543-3.943,1.16-7.855,1.709-11.752c1.312,0.579,2.848,0.763,4.225,0.78c3.762,0.046,3.758-5.781,0-5.83
		c-0.211,0-0.422-0.006-0.633-0.015c-0.111-0.006-0.188-0.008-0.242-0.008c-0.044-0.008-0.078-0.016-0.152-0.026
		c-0.268-0.048-0.529-0.125-0.789-0.206c-0.029-0.01-0.037-0.01-0.059-0.018c-0.035-0.022-0.088-0.058-0.189-0.114
		c-0.08-0.053-0.09-0.057-0.125-0.079c-0.164-0.146-0.315-0.3-0.459-0.461c0.382,0.432-0.143-0.299-0.168-0.344
		c-0.051-0.092-0.088-0.148-0.111-0.189c-0.012-0.05-0.033-0.125-0.091-0.284c-0.075-0.21-0.169-0.407-0.275-0.593
		c0.122-1.153,0.228-2.304,0.321-3.457c2.885,2.144,5.777,4.191,9.483,4.718c1.57,0.225,3.121-0.356,3.585-2.034
		C4158.703,490.164,4157.862,488.186,4156.285,487.961z"/>
</g>
<g id="ground">
	<g>
		<defs>
			<path id="SVGID_9_" d="M4435,538.081c-22.445-0.416-46.928-0.622-73.896-0.622c-294.693,0-294.693,80-589.387,80
				c-294.695,0-294.695-80-589.389-80c-294.695,0-294.695,80-589.391,80s-294.695-80-589.394-80c-294.697,0-294.697,80-589.394,80
				s-294.697-80-589.394-80c-294.698,0-294.698,80-589.396,80c-106.511,0-176.163-17.506-235.36-37.28V1200h4435V538.081z"/>
		</defs>
		<use xlink:href="#SVGID_9_"  overflow="visible" fill="#808080"/>
		<clipPath id="SVGID_10_">
			<use xlink:href="#SVGID_9_"  overflow="visible"/>
		</clipPath>
		<rect class="hills4" y="449.326" clip-path="url(#SVGID_10_)" fill="#808080" width="4435" height="800"/>
		<path class="hills5" clip-path="url(#SVGID_10_)" fill="#6E6E6E" d="M439.14,611.343c0-9.972-8.891-20.37-19.5-19.5
			c-36.901,3.025-192.244,13.898-193.157,13.775c-1.903-0.31-26.726,1.85-29.667,12.542c-2.691,9.784,3.221,21.773,13.62,23.987
			c14.481,3.082,29.217,3.609,43.95,4.316c3.284,0.158,6.565,0.371,9.842,0.643c0.407,0.034,0.814,0.077,1.221,0.116
			c1.318,7.181,6.509,13.772,13.994,15.927c35.438,10.197,71.447-2.092,107.194-2.304c10.629-0.063,19.5-8.822,19.5-19.5
			c0-0.359-0.036-0.711-0.055-1.066c0.901-0.92,1.791-1.861,2.672-2.825c1.008-1.103,2.055-2.162,3.137-3.191
			c0.148-0.142,0.339-0.311,0.538-0.483c0.314-0.203,0.628-0.405,0.944-0.604c0.57-0.344,1.152-0.663,1.743-0.969
			c1.2-0.421,2.436-0.733,3.667-1.043c0.877-0.22,5.708-0.928,0.857-0.321C430.184,629.523,439.14,622.971,439.14,611.343z"/>
		<path class="hills5" clip-path="url(#SVGID_10_)" fill="#6E6E6E" d="M1538.752,606.844c-19.921-0.021-196.88-60.336-408.752-84.344
			c-224.646-25.455-485.519-14.686-530.342-14.666c-10.63,0.005-19.5,8.866-19.5,19.5c0,10.626,8.87,19.505,19.5,19.5
			c44.774-0.021,89.544-1.411,134.317-0.418c22.886,0.508,45.763,1.701,68.539,4.029c5.154,0.526,10.298,1.141,15.437,1.802
			c0.163,0.022,0.318,0.044,0.514,0.071c1.744,0.242,3.486,0.502,5.227,0.763c2.89,0.431,5.774,0.902,8.656,1.384
			c10.8,1.806,21.525,4.043,32.153,6.675c3.218,0.797,6.484,0.786,9.542,0.077c6.505,0.892,12.973,1.945,19.413,3.127
			c3.088,1.293,6.186,2.564,9.289,3.817c24.366,9.842,49.409,17.896,74.096,26.871c2.862,1.041,5.718,2.102,8.57,3.171
			c1.136,0.427,2.272,0.857,3.406,1.29c-3.868-1.471,1.434,0.632,1.834,0.813c5.726,2.601,11.302,5.523,16.802,8.568
			c10.707,5.926,20.985,12.598,31.253,19.243c21.028,13.608,42.16,26.442,65.819,35.031c2.736,0.993,5.572,1.14,8.304,0.638
			c11.271,5.92,23.988,9.972,35.989,13.376c16.543,4.691,34.387,6.134,51.472,7.46c35.451,2.753,71.451,1.849,106.623-3.472
			c6.485-0.981,11.982-7.666,13.619-13.62c0.057-0.206,0.102-0.412,0.151-0.619c0.248-0.12,0.491-0.249,0.739-0.368
			c2.123-1.019,4.274-1.977,6.429-2.925c0.099-0.041,0.181-0.074,0.291-0.12c1.627-0.67,3.27-1.302,4.912-1.933
			c9.191-3.532,18.645-6.353,28.196-8.723c8.962-2.224,18.058-3.883,27.193-5.217c-0.607,0.105,4.215-0.528,4.873-0.605
			c2.849-0.33,5.705-0.606,8.561-0.87c5.15-0.477,10.312-0.817,15.477-1.104c40.441-2.247,80.945,0.755,121.401,0.797
			c10.63,0.011,19.5-8.879,19.5-19.5C1558.252,615.706,1549.382,606.854,1538.752,606.844z"/>
		<path class="hills5" clip-path="url(#SVGID_10_)" fill="#6E6E6E" d="M2735.871,594.843c-49.337-1.31-131.926-5.475-209.573-9.761
			c-93.897-5.183-180.567-10.542-192.467-11.241c-10.621-0.624-19.5,9.343-19.5,19.5c0,11.102,8.893,18.877,19.5,19.5
			c1.639,0.097,3.272,0.212,4.907,0.349c0.513,0.043,2.527,0.282,3.101,0.335c2.161,0.353,4.308,0.783,6.445,1.251
			c2.626,0.575,5.215,1.307,7.784,2.093c1.224,0.375,2.432,0.798,3.639,1.222c0.585,0.205,2.222,0.86,3.049,1.182
			c7.949,3.611,15.327,8.354,22.518,13.277c17.473,11.965,34.897,22.928,55.984,27.328c17.847,3.724,36.5,4.985,54.662,6.141
			c20.551,1.307,41.239,1.805,61.806,0.56c15.984-0.967,36.246-1.913,49.974-11.394c8.097-5.592,10.792-14.571,8.545-22.306
			c39.893,0.018,79.787-0.093,119.627,0.965c10.63,0.282,19.5-9.084,19.5-19.5C2755.371,603.5,2746.494,595.125,2735.871,594.843z"
			/>
		<path class="hills5" clip-path="url(#SVGID_10_)" fill="#6E6E6E" d="M4206.82,546.153c-2.918-10.609-13.625-15.943-23.987-13.62
			c-58.22,13.053-478.782,64.351-484.683,63.006c-10.354-2.358-21.076,3.037-23.987,13.62c-2.722,9.896,3.256,21.626,13.62,23.987
			c28.826,6.566,58.221,9.399,87.732,10.089c-0.023,0.369-0.038,0.739-0.038,1.11c0,11.065,8.89,18.925,19.5,19.5
			c32.309,1.752,64.686,1.423,96.944-1.11c31.577-2.479,63.762-6.276,94.342-14.775c28.164-7.828,55.008-19.871,81.623-31.789
			c6.121-2.741,12.24-5.487,18.376-8.196c3.071-1.356,6.15-2.695,9.233-4.024c0.274-0.118,1.815-0.772,2.628-1.119
			c1.704-0.712,3.411-1.42,5.12-2.119c13.094-5.361,26.405-10.181,39.982-14.17c1.65-0.485,3.31-0.943,4.969-1.4
			c3.625-1,6.728-3.026,9.119-5.664c11.861-3.45,23.804-6.628,35.886-9.337C4203.573,567.815,4209.535,556.021,4206.82,546.153z"/>
		<path class="hills5" clip-path="url(#SVGID_10_)" fill="#6E6E6E" d="M3590.957,585.842c-10.141-1.017-46.254-16.964-81.373-26.928
			c-31.321-8.888-61.852-11.789-72.459-14.38c-10.317-2.521-21.109,3.156-23.987,13.62c-2.755,10.018,3.297,21.465,13.62,23.987
			c1.238,0.303,2.454,0.648,3.667,1.041c0.275,0.089,0.66,0.235,1.061,0.396c2.046,0.987,4.021,2.121,5.954,3.307
			c1.791,1.098,3.521,2.293,5.222,3.528c0.659,0.505,1.686,1.29,2.128,1.65c1.437,1.169,2.843,2.376,4.244,3.588
			c8.982,7.769,17.282,16.32,26.61,23.688c10.342,8.168,22.071,15.885,35.871,15.395c11.99-0.425,21.64-6.611,29.013-15.197
			c16.804,1.829,33.611,3.619,50.43,5.305c10.596,1.062,19.5-9.674,19.5-19.5C3610.457,593.91,3601.529,586.901,3590.957,585.842z"
			/>
		<path class="hills5" clip-path="url(#SVGID_10_)" fill="#6E6E6E" d="M1856.783,534.837c-12.212,0.056-56.449-6.252-96.783,1.601
			c-36.378,7.082-69.569,28.36-73.417,29.099c-10.446,2.004-16.267,14.361-13.619,23.987c2.983,10.846,13.558,15.621,23.987,13.62
			c1.502-0.289,3.009-0.544,4.516-0.796c0.171,0.007,3.616-0.479,3.799-0.498c4.367-0.462,8.759-0.673,13.146-0.83
			c7.893-0.284,15.797-0.156,23.692-0.196c16.042-0.081,32.062-1.542,47.581-5.769c11.228-3.059,21.812-7.987,32.598-12.269
			c5.604-2.225,11.305-4.17,17.121-5.764c2.965-0.812,5.971-1.461,8.986-2.052c1.336-0.263,2.681-0.479,4.026-0.69
			c-2.899,0.476,3.587-0.373,4.367-0.443c10.583-0.95,19.5-8.151,19.5-19.5C1876.283,543.744,1867.414,534.788,1856.783,534.837z"/>
	</g>
</g>
</svg>
