<?xml version="1.0" encoding="utf-8"?>
<!-- Generator: Adobe Illustrator 16.0.0, SVG Export Plug-In . SVG Version: 6.00 Build 0)  -->
<!DOCTYPE svg PUBLIC "-//W3C//DTD SVG 1.1//EN" "http://www.w3.org/Graphics/SVG/1.1/DTD/svg11.dtd">
<svg version="1.1" id="Layer_1" xmlns="http://www.w3.org/2000/svg" xmlns:xlink="http://www.w3.org/1999/xlink" x="0px" y="0px"
	 width="4435px" height="1200px" viewBox="0 0 4435 1200" enable-background="new 0 0 4435 1200" xml:space="preserve">
<g id="hills4">
	<g>
		<g>
			<defs>
				<path id="SVGID_1_" d="M4434.991,768V350.632c-9.078-2.286-19.906-4.043-36.548-4.043c-47.659,0-47.659-15.142-95.319-15.142
					c-47.661,0-47.661,28.071-95.321,28.071c-47.658,0-47.658-18.162-95.318-18.162s-47.66,24.904-95.321,24.904
					c-47.659,0-47.659-33.977-95.317-33.977s-47.658,6.714-95.318,6.714c-47.659,0-47.659,9.983-95.318,9.983
					c-47.66,0-47.66,12.704-95.32,12.704c-47.659,0-47.659-25.899-95.319-25.899s-47.66,21.983-95.32,21.983
					c-47.659,0-47.659-29.183-95.317-29.183c-47.659,0-47.659,34.92-95.318,34.92c-47.66,0-47.66-5.394-95.32-5.394
					c-47.659,0-47.659,1.324-95.316,1.324c-47.658,0-47.659-11.379-95.317-11.379s-47.658,18.806-95.317,18.806
					c-47.658,0-47.658-32.385-95.315-32.385s-47.657,15.417-95.315,15.417s-47.658-13.284-95.317-13.284
					c-47.657,0-47.657,2.271-95.314,2.271c-47.659,0-47.659,12.411-95.319,12.411c-47.656,0-47.656,14.221-95.313,14.221
					s-47.657-23.309-95.313-23.309c-47.657,0-47.657,9.5-95.314,9.5c-47.658,0-47.658-17.938-95.316-17.938
					s-47.658,9.429-95.316,9.429s-47.658-7.667-95.316-7.667c-47.657,0-47.657,3.672-95.315,3.672
					c-47.656,0-47.656-11.411-95.313-11.411c-47.655,0-47.655,24.248-95.312,24.248s-47.656,0.307-95.312,0.307
					c-47.657,0-47.657-8.807-95.315-8.807s-47.658,10.188-95.317,10.188c-47.657,0-47.657,3.859-95.315,3.859
					s-47.658,0.747-95.315,0.747c-47.658,0-47.658-5.121-95.316-5.121c-47.657,0-47.657-16.684-95.314-16.684
					c-47.658,0-47.658-1.202-95.315-1.202c-47.658,0-47.658,15.372-95.315,15.372c-47.659,0-47.659,10.104-95.317,10.104
					s-47.658-2.097-95.315-2.097c-47.658,0-47.658-18.16-95.316-18.16s-47.658,17.703-95.316,17.703
					c-47.657,0-47.658-21.401-95.314-21.401s-47.657,15.816-95.314,15.816c-47.658,0-47.658,7.216-95.316,7.216
					c-5.143,0-9.727-0.248-13.879-0.688V768H4434.991z"/>
			</defs>
			<use xlink:href="#SVGID_1_"  overflow="visible" fill="#70C1C9"/>
			<clipPath id="SVGID_2_">
				<use xlink:href="#SVGID_1_"  overflow="visible"/>
			</clipPath>
			<rect x="0.002" y="276.5" clip-path="url(#SVGID_2_)" fill="#70C1C9" width="4435" height="491.5"/>
		</g>
	</g>
</g>
<g id="hills3_1_">
	<g>
		<g>
			<defs>
				<path id="SVGID_3_" d="M-0.002,321.666V768h4435V367.714c-0.585-0.076-1.181-0.124-1.797-0.124
					c-23.92,0-23.92,30.831-47.84,30.831c-23.922,0-23.922-71.247-47.844-71.247c-23.92,0-23.92,71.316-47.84,71.316
					c-23.922,0-23.922-1.676-47.842-1.676c-23.922,0-23.922-63.681-47.843-63.681c-23.92,0-23.919,82.778-47.839,82.778
					s-23.92-6.229-47.839-6.229s-23.919-91.588-47.837-91.588c-23.92,0-23.92,94.331-47.839,94.331s-23.919-44.471-47.837-44.471
					c-23.922,0-23.922,61.143-47.842,61.143c-23.918,0-23.918-6.511-47.836-6.511c-23.917,0-23.917-69.081-47.834-69.081
					c-23.92,0-23.92,51.614-47.84,51.614s-23.92-93.136-47.839-93.136s-23.919,68.619-47.838,68.619s-23.919-2.34-47.839-2.34
					c-23.919,0-23.919,42.549-47.838,42.549c-23.92,0-23.92-108.041-47.84-108.041c-23.918,0-23.918,111.578-47.838,111.578
					c-23.919,0-23.919-92.193-47.838-92.193s-23.919,72.318-47.838,72.318c-23.92,0-23.92-44.183-47.839-44.183
					c-23.92,0-23.92,57.052-47.839,57.052s-23.919-9.5-47.839-9.5s-23.92,18.489-47.839,18.489
					c-23.92,0-23.92-105.795-47.838-105.795s-23.918,103.779-47.836,103.779s-23.918-40.077-47.836-40.077
					c-23.919,0-23.919,28.378-47.837,28.378c-23.92,0-23.919-106.434-47.839-106.434c-23.918,0-23.918,91.011-47.836,91.011
					c-23.917,0-23.917-62.859-47.835-62.859c-23.919,0-23.919,80.547-47.838,80.547c-23.918,0-23.918,30.711-47.835,30.711
					c-23.918,0-23.917-105.822-47.835-105.822c-23.919,0-23.919,89.945-47.837,89.945c-23.917,0-23.917-107.309-47.834-107.309
					c-23.919,0-23.919,95.071-47.838,95.071c-23.917,0-23.917-25.549-47.834-25.549c-23.92,0-23.92,41.411-47.838,41.411
					c-23.916,0-23.916-87.116-47.834-87.116s-23.918,53.136-47.836,53.136c-23.916,0-23.916,43.182-47.834,43.182
					s-23.918-122.481-47.838-122.481c-23.916,0-23.916,74.859-47.832,74.859c-23.918,0-23.918-41.763-47.836-41.763
					c-23.916,0-23.916,86.898-47.834,86.898c-23.916,0-23.916-22.956-47.832-22.956c-23.918,0-23.918,31.636-47.838,31.636
					c-23.916,0-23.916-89.524-47.832-89.524s-23.916,65.511-47.832,65.511c-23.918,0-23.918-21.822-47.836-21.822
					c-23.916,0-23.916-57.779-47.83-57.779c-23.918,0-23.918,77.129-47.834,77.129s-23.916,2.019-47.834,2.019
					c-23.914,0-23.914-22.662-47.83-22.662s-23.916,34.321-47.832,34.321c-23.918,0-23.918-59.188-47.836-59.188
					c-23.92,0-23.92,47.853-47.838,47.853s-23.918-76.929-47.834-76.929c-23.92,0-23.92,63.646-47.838,63.646
					s-23.918-93.444-47.834-93.444c-23.92,0-23.92,112.815-47.838,112.815s-23.918-0.727-47.836-0.727
					s-23.918-104.572-47.836-104.572s-23.918,72.287-47.834,72.287c-23.918,0-23.918,16.29-47.836,16.29
					s-23.918-99.299-47.836-99.299s-23.918,103.016-47.836,103.016s-23.918,31.13-47.836,31.13s-23.918-15.532-47.836-15.532
					s-23.918-60.041-47.836-60.041s-23.918,18.963-47.836,18.963s-23.918,37.603-47.836,37.603s-23.918-65.458-47.836-65.458
					s-23.918,47.062-47.834,47.062c-23.918,0-23.918-96.387-47.836-96.387s-23.918,85.547-47.836,85.547
					c-23.916,0-23.916,33.217-47.834,33.217s-23.918-84.521-47.836-84.521c-23.916,0-23.916-44.382-47.834-44.382
					s-23.918,90.226-47.834,90.226c-23.92,0-23.92-34.378-47.838-34.378c-23.916,0-23.916-24.844-47.834-24.844
					s-23.918,98.037-47.834,98.037c-23.92,0-23.92-112.102-47.838-112.102c-23.916,0-23.916,91.231-47.834,91.231
					s-23.918-48.942-47.834-48.942c-23.918,0-23.918,54.834-47.836,54.834c-23.916,0-23.916-25.312-47.834-25.312
					s-23.918,16.267-47.834,16.267C15.075,409.892,10.238,353.439-0.002,321.666z"/>
			</defs>
			<use xlink:href="#SVGID_3_"  overflow="visible" fill="#49B6B8"/>
			<clipPath id="SVGID_4_">
				<use xlink:href="#SVGID_3_"  overflow="visible"/>
			</clipPath>
			<rect x="0.002" y="304.875" clip-path="url(#SVGID_4_)" fill="#49B6B8" width="4433.203" height="463.125"/>
		</g>
		<g>
			<defs>
				<path id="SVGID_5_" d="M-0.002,321.666V768h4435V367.714c-0.585-0.076-1.181-0.124-1.797-0.124
					c-23.92,0-23.92,30.831-47.84,30.831c-23.922,0-23.922-71.247-47.844-71.247c-23.92,0-23.92,71.316-47.84,71.316
					c-23.922,0-23.922-1.676-47.842-1.676c-23.922,0-23.922-63.681-47.843-63.681c-23.92,0-23.919,82.778-47.839,82.778
					s-23.92-6.229-47.839-6.229s-23.919-91.588-47.837-91.588c-23.92,0-23.92,94.331-47.839,94.331s-23.919-44.471-47.837-44.471
					c-23.922,0-23.922,61.143-47.842,61.143c-23.918,0-23.918-6.511-47.836-6.511c-23.917,0-23.917-69.081-47.834-69.081
					c-23.92,0-23.92,51.614-47.84,51.614s-23.92-93.136-47.839-93.136s-23.919,68.619-47.838,68.619s-23.919-2.34-47.839-2.34
					c-23.919,0-23.919,42.549-47.838,42.549c-23.92,0-23.92-108.041-47.84-108.041c-23.918,0-23.918,111.578-47.838,111.578
					c-23.919,0-23.919-92.193-47.838-92.193s-23.919,72.318-47.838,72.318c-23.92,0-23.92-44.183-47.839-44.183
					c-23.92,0-23.92,57.052-47.839,57.052s-23.919-9.5-47.839-9.5s-23.92,18.489-47.839,18.489
					c-23.92,0-23.92-105.795-47.838-105.795s-23.918,103.779-47.836,103.779s-23.918-40.077-47.836-40.077
					c-23.919,0-23.919,28.378-47.837,28.378c-23.92,0-23.919-106.434-47.839-106.434c-23.918,0-23.918,91.011-47.836,91.011
					c-23.917,0-23.917-62.859-47.835-62.859c-23.919,0-23.919,80.547-47.838,80.547c-23.918,0-23.918,30.711-47.835,30.711
					c-23.918,0-23.917-105.822-47.835-105.822c-23.919,0-23.919,89.945-47.837,89.945c-23.917,0-23.917-107.309-47.834-107.309
					c-23.919,0-23.919,95.071-47.838,95.071c-23.917,0-23.917-25.549-47.834-25.549c-23.92,0-23.92,41.411-47.838,41.411
					c-23.916,0-23.916-87.116-47.834-87.116s-23.918,53.136-47.836,53.136c-23.916,0-23.916,43.182-47.834,43.182
					s-23.918-122.481-47.838-122.481c-23.916,0-23.916,74.859-47.832,74.859c-23.918,0-23.918-41.763-47.836-41.763
					c-23.916,0-23.916,86.898-47.834,86.898c-23.916,0-23.916-22.956-47.832-22.956c-23.918,0-23.918,31.636-47.838,31.636
					c-23.916,0-23.916-89.524-47.832-89.524s-23.916,65.511-47.832,65.511c-23.918,0-23.918-21.822-47.836-21.822
					c-23.916,0-23.916-57.779-47.83-57.779c-23.918,0-23.918,77.129-47.834,77.129s-23.916,2.019-47.834,2.019
					c-23.914,0-23.914-22.662-47.83-22.662s-23.916,34.321-47.832,34.321c-23.918,0-23.918-59.188-47.836-59.188
					c-23.92,0-23.92,47.853-47.838,47.853s-23.918-76.929-47.834-76.929c-23.92,0-23.92,63.646-47.838,63.646
					s-23.918-93.444-47.834-93.444c-23.92,0-23.92,112.815-47.838,112.815s-23.918-0.727-47.836-0.727
					s-23.918-104.572-47.836-104.572s-23.918,72.287-47.834,72.287c-23.918,0-23.918,16.29-47.836,16.29
					s-23.918-99.299-47.836-99.299s-23.918,103.016-47.836,103.016s-23.918,31.13-47.836,31.13s-23.918-15.532-47.836-15.532
					s-23.918-60.041-47.836-60.041s-23.918,18.963-47.836,18.963s-23.918,37.603-47.836,37.603s-23.918-65.458-47.836-65.458
					s-23.918,47.062-47.834,47.062c-23.918,0-23.918-96.387-47.836-96.387s-23.918,85.547-47.836,85.547
					c-23.916,0-23.916,33.217-47.834,33.217s-23.918-84.521-47.836-84.521c-23.916,0-23.916-44.382-47.834-44.382
					s-23.918,90.226-47.834,90.226c-23.92,0-23.92-34.378-47.838-34.378c-23.916,0-23.916-24.844-47.834-24.844
					s-23.918,98.037-47.834,98.037c-23.92,0-23.92-112.102-47.838-112.102c-23.916,0-23.916,91.231-47.834,91.231
					s-23.918-48.942-47.834-48.942c-23.918,0-23.918,54.834-47.836,54.834c-23.916,0-23.916-25.312-47.834-25.312
					s-23.918,16.267-47.834,16.267C15.075,409.892,10.238,353.439-0.002,321.666z"/>
			</defs>
			<clipPath id="SVGID_6_">
				<use xlink:href="#SVGID_5_"  overflow="visible"/>
			</clipPath>
			<g clip-path="url(#SVGID_6_)">
				<path fill="#FFFFFF" d="M4044.502,352.166c1.934,0,3.5,2.334,3.5,4.334s-1.566,0-3.5,0s-3.5,2-3.5,0
					S4042.568,352.166,4044.502,352.166z"/>
				<path fill="#FFFFFF" d="M4035.036,310c-7.965,18-3.07,34.258,4.965,35.5c4.019,0.621,4-3.5,8.673-4.21
					c4.674-0.71,1.327,11.265,8.266,11.265c3.72,0,3.396-6.143,8.136-6.143s1.927,6.588,7.927,7.088c13.439,1.12,12-8.5,12-8.5
					C4086.002,291,4043.001,292,4035.036,310z"/>
			</g>
		</g>
		<g>
			<defs>
				<path id="SVGID_7_" d="M-0.002,321.666V768h4435V367.714c-0.585-0.076-1.181-0.124-1.797-0.124
					c-23.92,0-23.92,30.831-47.84,30.831c-23.922,0-23.922-71.247-47.844-71.247c-23.92,0-23.92,71.316-47.84,71.316
					c-23.922,0-23.922-1.676-47.842-1.676c-23.922,0-23.922-63.681-47.843-63.681c-23.92,0-23.919,82.778-47.839,82.778
					s-23.92-6.229-47.839-6.229s-23.919-91.588-47.837-91.588c-23.92,0-23.92,94.331-47.839,94.331s-23.919-44.471-47.837-44.471
					c-23.922,0-23.922,61.143-47.842,61.143c-23.918,0-23.918-6.511-47.836-6.511c-23.917,0-23.917-69.081-47.834-69.081
					c-23.92,0-23.92,51.614-47.84,51.614s-23.92-93.136-47.839-93.136s-23.919,68.619-47.838,68.619s-23.919-2.34-47.839-2.34
					c-23.919,0-23.919,42.549-47.838,42.549c-23.92,0-23.92-108.041-47.84-108.041c-23.918,0-23.918,111.578-47.838,111.578
					c-23.919,0-23.919-92.193-47.838-92.193s-23.919,72.318-47.838,72.318c-23.92,0-23.92-44.183-47.839-44.183
					c-23.92,0-23.92,57.052-47.839,57.052s-23.919-9.5-47.839-9.5s-23.92,18.489-47.839,18.489
					c-23.92,0-23.92-105.795-47.838-105.795s-23.918,103.779-47.836,103.779s-23.918-40.077-47.836-40.077
					c-23.919,0-23.919,28.378-47.837,28.378c-23.92,0-23.919-106.434-47.839-106.434c-23.918,0-23.918,91.011-47.836,91.011
					c-23.917,0-23.917-62.859-47.835-62.859c-23.919,0-23.919,80.547-47.838,80.547c-23.918,0-23.918,30.711-47.835,30.711
					c-23.918,0-23.917-105.822-47.835-105.822c-23.919,0-23.919,89.945-47.837,89.945c-23.917,0-23.917-107.309-47.834-107.309
					c-23.919,0-23.919,95.071-47.838,95.071c-23.917,0-23.917-25.549-47.834-25.549c-23.92,0-23.92,41.411-47.838,41.411
					c-23.916,0-23.916-87.116-47.834-87.116s-23.918,53.136-47.836,53.136c-23.916,0-23.916,43.182-47.834,43.182
					s-23.918-122.481-47.838-122.481c-23.916,0-23.916,74.859-47.832,74.859c-23.918,0-23.918-41.763-47.836-41.763
					c-23.916,0-23.916,86.898-47.834,86.898c-23.916,0-23.916-22.956-47.832-22.956c-23.918,0-23.918,31.636-47.838,31.636
					c-23.916,0-23.916-89.524-47.832-89.524s-23.916,65.511-47.832,65.511c-23.918,0-23.918-21.822-47.836-21.822
					c-23.916,0-23.916-57.779-47.83-57.779c-23.918,0-23.918,77.129-47.834,77.129s-23.916,2.019-47.834,2.019
					c-23.914,0-23.914-22.662-47.83-22.662s-23.916,34.321-47.832,34.321c-23.918,0-23.918-59.188-47.836-59.188
					c-23.92,0-23.92,47.853-47.838,47.853s-23.918-76.929-47.834-76.929c-23.92,0-23.92,63.646-47.838,63.646
					s-23.918-93.444-47.834-93.444c-23.92,0-23.92,112.815-47.838,112.815s-23.918-0.727-47.836-0.727
					s-23.918-104.572-47.836-104.572s-23.918,72.287-47.834,72.287c-23.918,0-23.918,16.29-47.836,16.29
					s-23.918-99.299-47.836-99.299s-23.918,103.016-47.836,103.016s-23.918,31.13-47.836,31.13s-23.918-15.532-47.836-15.532
					s-23.918-60.041-47.836-60.041s-23.918,18.963-47.836,18.963s-23.918,37.603-47.836,37.603s-23.918-65.458-47.836-65.458
					s-23.918,47.062-47.834,47.062c-23.918,0-23.918-96.387-47.836-96.387s-23.918,85.547-47.836,85.547
					c-23.916,0-23.916,33.217-47.834,33.217s-23.918-84.521-47.836-84.521c-23.916,0-23.916-44.382-47.834-44.382
					s-23.918,90.226-47.834,90.226c-23.92,0-23.92-34.378-47.838-34.378c-23.916,0-23.916-24.844-47.834-24.844
					s-23.918,98.037-47.834,98.037c-23.92,0-23.92-112.102-47.838-112.102c-23.916,0-23.916,91.231-47.834,91.231
					s-23.918-48.942-47.834-48.942c-23.918,0-23.918,54.834-47.836,54.834c-23.916,0-23.916-25.312-47.834-25.312
					s-23.918,16.267-47.834,16.267C15.075,409.892,10.238,353.439-0.002,321.666z"/>
			</defs>
			<clipPath id="SVGID_8_">
				<use xlink:href="#SVGID_7_"  overflow="visible"/>
			</clipPath>
			<g clip-path="url(#SVGID_8_)">
				<path fill="#FFFFFF" d="M2923.052,315.383c-3.86,19.302,3.8,31.178,11.913,30.645c4.056-0.268,3.796-1.359,8.202-3.067
					s3.093,7.779,9.864,6.271c3.63-0.811,2.631-3.807,7.257-4.838c4.626-1.03,3.313,6.012,9.278,5.195
					c13.362-1.829,9.864-10.906,9.864-10.906C2968.666,285.757,2926.912,296.083,2923.052,315.383z"/>
			</g>
		</g>
		<g>
			<defs>
				<path id="SVGID_10_" d="M-0.002,321.666V768h4435V367.714c-0.585-0.076-1.181-0.124-1.797-0.124
					c-23.92,0-23.92,30.831-47.84,30.831c-23.922,0-23.922-71.247-47.844-71.247c-23.92,0-23.92,71.316-47.84,71.316
					c-23.922,0-23.922-1.676-47.842-1.676c-23.922,0-23.922-63.681-47.843-63.681c-23.92,0-23.919,82.778-47.839,82.778
					s-23.92-6.229-47.839-6.229s-23.919-91.588-47.837-91.588c-23.92,0-23.92,94.331-47.839,94.331s-23.919-44.471-47.837-44.471
					c-23.922,0-23.922,61.143-47.842,61.143c-23.918,0-23.918-6.511-47.836-6.511c-23.917,0-23.917-69.081-47.834-69.081
					c-23.92,0-23.92,51.614-47.84,51.614s-23.92-93.136-47.839-93.136s-23.919,68.619-47.838,68.619s-23.919-2.34-47.839-2.34
					c-23.919,0-23.919,42.549-47.838,42.549c-23.92,0-23.92-108.041-47.84-108.041c-23.918,0-23.918,111.578-47.838,111.578
					c-23.919,0-23.919-92.193-47.838-92.193s-23.919,72.318-47.838,72.318c-23.92,0-23.92-44.183-47.839-44.183
					c-23.92,0-23.92,57.052-47.839,57.052s-23.919-9.5-47.839-9.5s-23.92,18.489-47.839,18.489
					c-23.92,0-23.92-105.795-47.838-105.795s-23.918,103.779-47.836,103.779s-23.918-40.077-47.836-40.077
					c-23.919,0-23.919,28.378-47.837,28.378c-23.92,0-23.919-106.434-47.839-106.434c-23.918,0-23.918,91.011-47.836,91.011
					c-23.917,0-23.917-62.859-47.835-62.859c-23.919,0-23.919,80.547-47.838,80.547c-23.918,0-23.918,30.711-47.835,30.711
					c-23.918,0-23.917-105.822-47.835-105.822c-23.919,0-23.919,89.945-47.837,89.945c-23.917,0-23.917-107.309-47.834-107.309
					c-23.919,0-23.919,95.071-47.838,95.071c-23.917,0-23.917-25.549-47.834-25.549c-23.92,0-23.92,41.411-47.838,41.411
					c-23.916,0-23.916-87.116-47.834-87.116s-23.918,53.136-47.836,53.136c-23.916,0-23.916,43.182-47.834,43.182
					s-23.918-122.481-47.838-122.481c-23.916,0-23.916,74.859-47.832,74.859c-23.918,0-23.918-41.763-47.836-41.763
					c-23.916,0-23.916,86.898-47.834,86.898c-23.916,0-23.916-22.956-47.832-22.956c-23.918,0-23.918,31.636-47.838,31.636
					c-23.916,0-23.916-89.524-47.832-89.524s-23.916,65.511-47.832,65.511c-23.918,0-23.918-21.822-47.836-21.822
					c-23.916,0-23.916-57.779-47.83-57.779c-23.918,0-23.918,77.129-47.834,77.129s-23.916,2.019-47.834,2.019
					c-23.914,0-23.914-22.662-47.83-22.662s-23.916,34.321-47.832,34.321c-23.918,0-23.918-59.188-47.836-59.188
					c-23.92,0-23.92,47.853-47.838,47.853s-23.918-76.929-47.834-76.929c-23.92,0-23.92,63.646-47.838,63.646
					s-23.918-93.444-47.834-93.444c-23.92,0-23.92,112.815-47.838,112.815s-23.918-0.727-47.836-0.727
					s-23.918-104.572-47.836-104.572s-23.918,72.287-47.834,72.287c-23.918,0-23.918,16.29-47.836,16.29
					s-23.918-99.299-47.836-99.299s-23.918,103.016-47.836,103.016s-23.918,31.13-47.836,31.13s-23.918-15.532-47.836-15.532
					s-23.918-60.041-47.836-60.041s-23.918,18.963-47.836,18.963s-23.918,37.603-47.836,37.603s-23.918-65.458-47.836-65.458
					s-23.918,47.062-47.834,47.062c-23.918,0-23.918-96.387-47.836-96.387s-23.918,85.547-47.836,85.547
					c-23.916,0-23.916,33.217-47.834,33.217s-23.918-84.521-47.836-84.521c-23.916,0-23.916-44.382-47.834-44.382
					s-23.918,90.226-47.834,90.226c-23.92,0-23.92-34.378-47.838-34.378c-23.916,0-23.916-24.844-47.834-24.844
					s-23.918,98.037-47.834,98.037c-23.92,0-23.92-112.102-47.838-112.102c-23.916,0-23.916,91.231-47.834,91.231
					s-23.918-48.942-47.834-48.942c-23.918,0-23.918,54.834-47.836,54.834c-23.916,0-23.916-25.312-47.834-25.312
					s-23.918,16.267-47.834,16.267C15.075,409.892,10.238,353.439-0.002,321.666z"/>
			</defs>
			<clipPath id="SVGID_11_">
				<use xlink:href="#SVGID_10_"  overflow="visible"/>
			</clipPath>
			<g clip-path="url(#SVGID_11_)">
				<path fill="#FFFFFF" d="M2271.502,353.166c1.934,0,3.5,2.334,3.5,4.334s-1.566,0-3.5,0s-3.5,2-3.5,0
					S2269.568,353.166,2271.502,353.166z"/>
				<path fill="#FFFFFF" d="M2262.036,311c-7.965,18-3.07,34.258,4.965,35.5c4.019,0.621,4-3.5,8.673-4.21
					s1.327,11.265,8.266,11.265c3.72,0,3.396-6.143,8.136-6.143s1.927,6.588,7.927,7.088c13.439,1.12,12-8.5,12-8.5
					C2313.002,292,2270.001,293,2262.036,311z"/>
			</g>
		</g>
		<g>
			<defs>
				<path id="SVGID_12_" d="M-0.002,321.666V768h4435V367.714c-0.585-0.076-1.181-0.124-1.797-0.124
					c-23.92,0-23.92,30.831-47.84,30.831c-23.922,0-23.922-71.247-47.844-71.247c-23.92,0-23.92,71.316-47.84,71.316
					c-23.922,0-23.922-1.676-47.842-1.676c-23.922,0-23.922-63.681-47.843-63.681c-23.92,0-23.919,82.778-47.839,82.778
					s-23.92-6.229-47.839-6.229s-23.919-91.588-47.837-91.588c-23.92,0-23.92,94.331-47.839,94.331s-23.919-44.471-47.837-44.471
					c-23.922,0-23.922,61.143-47.842,61.143c-23.918,0-23.918-6.511-47.836-6.511c-23.917,0-23.917-69.081-47.834-69.081
					c-23.92,0-23.92,51.614-47.84,51.614s-23.92-93.136-47.839-93.136s-23.919,68.619-47.838,68.619s-23.919-2.34-47.839-2.34
					c-23.919,0-23.919,42.549-47.838,42.549c-23.92,0-23.92-108.041-47.84-108.041c-23.918,0-23.918,111.578-47.838,111.578
					c-23.919,0-23.919-92.193-47.838-92.193s-23.919,72.318-47.838,72.318c-23.92,0-23.92-44.183-47.839-44.183
					c-23.92,0-23.92,57.052-47.839,57.052s-23.919-9.5-47.839-9.5s-23.92,18.489-47.839,18.489
					c-23.92,0-23.92-105.795-47.838-105.795s-23.918,103.779-47.836,103.779s-23.918-40.077-47.836-40.077
					c-23.919,0-23.919,28.378-47.837,28.378c-23.92,0-23.919-106.434-47.839-106.434c-23.918,0-23.918,91.011-47.836,91.011
					c-23.917,0-23.917-62.859-47.835-62.859c-23.919,0-23.919,80.547-47.838,80.547c-23.918,0-23.918,30.711-47.835,30.711
					c-23.918,0-23.917-105.822-47.835-105.822c-23.919,0-23.919,89.945-47.837,89.945c-23.917,0-23.917-107.309-47.834-107.309
					c-23.919,0-23.919,95.071-47.838,95.071c-23.917,0-23.917-25.549-47.834-25.549c-23.92,0-23.92,41.411-47.838,41.411
					c-23.916,0-23.916-87.116-47.834-87.116s-23.918,53.136-47.836,53.136c-23.916,0-23.916,43.182-47.834,43.182
					s-23.918-122.481-47.838-122.481c-23.916,0-23.916,74.859-47.832,74.859c-23.918,0-23.918-41.763-47.836-41.763
					c-23.916,0-23.916,86.898-47.834,86.898c-23.916,0-23.916-22.956-47.832-22.956c-23.918,0-23.918,31.636-47.838,31.636
					c-23.916,0-23.916-89.524-47.832-89.524s-23.916,65.511-47.832,65.511c-23.918,0-23.918-21.822-47.836-21.822
					c-23.916,0-23.916-57.779-47.83-57.779c-23.918,0-23.918,77.129-47.834,77.129s-23.916,2.019-47.834,2.019
					c-23.914,0-23.914-22.662-47.83-22.662s-23.916,34.321-47.832,34.321c-23.918,0-23.918-59.188-47.836-59.188
					c-23.92,0-23.92,47.853-47.838,47.853s-23.918-76.929-47.834-76.929c-23.92,0-23.92,63.646-47.838,63.646
					s-23.918-93.444-47.834-93.444c-23.92,0-23.92,112.815-47.838,112.815s-23.918-0.727-47.836-0.727
					s-23.918-104.572-47.836-104.572s-23.918,72.287-47.834,72.287c-23.918,0-23.918,16.29-47.836,16.29
					s-23.918-99.299-47.836-99.299s-23.918,103.016-47.836,103.016s-23.918,31.13-47.836,31.13s-23.918-15.532-47.836-15.532
					s-23.918-60.041-47.836-60.041s-23.918,18.963-47.836,18.963s-23.918,37.603-47.836,37.603s-23.918-65.458-47.836-65.458
					s-23.918,47.062-47.834,47.062c-23.918,0-23.918-96.387-47.836-96.387s-23.918,85.547-47.836,85.547
					c-23.916,0-23.916,33.217-47.834,33.217s-23.918-84.521-47.836-84.521c-23.916,0-23.916-44.382-47.834-44.382
					s-23.918,90.226-47.834,90.226c-23.92,0-23.92-34.378-47.838-34.378c-23.916,0-23.916-24.844-47.834-24.844
					s-23.918,98.037-47.834,98.037c-23.92,0-23.92-112.102-47.838-112.102c-23.916,0-23.916,91.231-47.834,91.231
					s-23.918-48.942-47.834-48.942c-23.918,0-23.918,54.834-47.836,54.834c-23.916,0-23.916-25.312-47.834-25.312
					s-23.918,16.267-47.834,16.267C15.075,409.892,10.238,353.439-0.002,321.666z"/>
			</defs>
			<clipPath id="SVGID_13_">
				<use xlink:href="#SVGID_12_"  overflow="visible"/>
			</clipPath>
			<g clip-path="url(#SVGID_13_)">
				<path fill="#FFFFFF" d="M1408.502,358.166c1.934,0,3.5,2.334,3.5,4.334s-1.566,0-3.5,0s-3.5,2-3.5,0
					S1406.568,358.166,1408.502,358.166z"/>
				<path fill="#FFFFFF" d="M1399.036,316c-7.965,18-3.07,34.258,4.965,35.5c4.019,0.621,4-3.5,8.673-4.21
					s1.327,11.265,8.266,11.265c3.72,0,3.396-6.143,8.136-6.143s1.927,6.588,7.927,7.088c13.439,1.12,12-8.5,12-8.5
					C1450.002,297,1407.001,298,1399.036,316z"/>
			</g>
		</g>
		<g>
			<defs>
				<path id="SVGID_14_" d="M-0.002,321.666V768h4435V367.714c-0.585-0.076-1.181-0.124-1.797-0.124
					c-23.92,0-23.92,30.831-47.84,30.831c-23.922,0-23.922-71.247-47.844-71.247c-23.92,0-23.92,71.316-47.84,71.316
					c-23.922,0-23.922-1.676-47.842-1.676c-23.922,0-23.922-63.681-47.843-63.681c-23.92,0-23.919,82.778-47.839,82.778
					s-23.92-6.229-47.839-6.229s-23.919-91.588-47.837-91.588c-23.92,0-23.92,94.331-47.839,94.331s-23.919-44.471-47.837-44.471
					c-23.922,0-23.922,61.143-47.842,61.143c-23.918,0-23.918-6.511-47.836-6.511c-23.917,0-23.917-69.081-47.834-69.081
					c-23.92,0-23.92,51.614-47.84,51.614s-23.92-93.136-47.839-93.136s-23.919,68.619-47.838,68.619s-23.919-2.34-47.839-2.34
					c-23.919,0-23.919,42.549-47.838,42.549c-23.92,0-23.92-108.041-47.84-108.041c-23.918,0-23.918,111.578-47.838,111.578
					c-23.919,0-23.919-92.193-47.838-92.193s-23.919,72.318-47.838,72.318c-23.92,0-23.92-44.183-47.839-44.183
					c-23.92,0-23.92,57.052-47.839,57.052s-23.919-9.5-47.839-9.5s-23.92,18.489-47.839,18.489
					c-23.92,0-23.92-105.795-47.838-105.795s-23.918,103.779-47.836,103.779s-23.918-40.077-47.836-40.077
					c-23.919,0-23.919,28.378-47.837,28.378c-23.92,0-23.919-106.434-47.839-106.434c-23.918,0-23.918,91.011-47.836,91.011
					c-23.917,0-23.917-62.859-47.835-62.859c-23.919,0-23.919,80.547-47.838,80.547c-23.918,0-23.918,30.711-47.835,30.711
					c-23.918,0-23.917-105.822-47.835-105.822c-23.919,0-23.919,89.945-47.837,89.945c-23.917,0-23.917-107.309-47.834-107.309
					c-23.919,0-23.919,95.071-47.838,95.071c-23.917,0-23.917-25.549-47.834-25.549c-23.92,0-23.92,41.411-47.838,41.411
					c-23.916,0-23.916-87.116-47.834-87.116s-23.918,53.136-47.836,53.136c-23.916,0-23.916,43.182-47.834,43.182
					s-23.918-122.481-47.838-122.481c-23.916,0-23.916,74.859-47.832,74.859c-23.918,0-23.918-41.763-47.836-41.763
					c-23.916,0-23.916,86.898-47.834,86.898c-23.916,0-23.916-22.956-47.832-22.956c-23.918,0-23.918,31.636-47.838,31.636
					c-23.916,0-23.916-89.524-47.832-89.524s-23.916,65.511-47.832,65.511c-23.918,0-23.918-21.822-47.836-21.822
					c-23.916,0-23.916-57.779-47.83-57.779c-23.918,0-23.918,77.129-47.834,77.129s-23.916,2.019-47.834,2.019
					c-23.914,0-23.914-22.662-47.83-22.662s-23.916,34.321-47.832,34.321c-23.918,0-23.918-59.188-47.836-59.188
					c-23.92,0-23.92,47.853-47.838,47.853s-23.918-76.929-47.834-76.929c-23.92,0-23.92,63.646-47.838,63.646
					s-23.918-93.444-47.834-93.444c-23.92,0-23.92,112.815-47.838,112.815s-23.918-0.727-47.836-0.727
					s-23.918-104.572-47.836-104.572s-23.918,72.287-47.834,72.287c-23.918,0-23.918,16.29-47.836,16.29
					s-23.918-99.299-47.836-99.299s-23.918,103.016-47.836,103.016s-23.918,31.13-47.836,31.13s-23.918-15.532-47.836-15.532
					s-23.918-60.041-47.836-60.041s-23.918,18.963-47.836,18.963s-23.918,37.603-47.836,37.603s-23.918-65.458-47.836-65.458
					s-23.918,47.062-47.834,47.062c-23.918,0-23.918-96.387-47.836-96.387s-23.918,85.547-47.836,85.547
					c-23.916,0-23.916,33.217-47.834,33.217s-23.918-84.521-47.836-84.521c-23.916,0-23.916-44.382-47.834-44.382
					s-23.918,90.226-47.834,90.226c-23.92,0-23.92-34.378-47.838-34.378c-23.916,0-23.916-24.844-47.834-24.844
					s-23.918,98.037-47.834,98.037c-23.92,0-23.92-112.102-47.838-112.102c-23.916,0-23.916,91.231-47.834,91.231
					s-23.918-48.942-47.834-48.942c-23.918,0-23.918,54.834-47.836,54.834c-23.916,0-23.916-25.312-47.834-25.312
					s-23.918,16.267-47.834,16.267C15.075,409.892,10.238,353.439-0.002,321.666z"/>
			</defs>
			<clipPath id="SVGID_15_">
				<use xlink:href="#SVGID_14_"  overflow="visible"/>
			</clipPath>
			<g clip-path="url(#SVGID_15_)">
				<path fill="#FFFFFF" d="M3512.502,352.166c1.933,0,3.5,2.334,3.5,4.334s-1.567,0-3.5,0s-3.5,2-3.5,0
					S3510.569,352.166,3512.502,352.166z"/>
				<path fill="#FFFFFF" d="M3503.036,310c-7.965,18-3.07,34.258,4.965,35.5c4.018,0.621,4-3.5,8.673-4.21
					s1.327,11.265,8.266,11.265c3.72,0,3.396-6.143,8.136-6.143s1.927,6.588,7.927,7.088c13.44,1.12,12-8.5,12-8.5
					C3554.002,291,3511.001,292,3503.036,310z"/>
			</g>
		</g>
		<g>
			<defs>
				<path id="SVGID_16_" d="M-0.002,321.666V768h4435V367.714c-0.585-0.076-1.181-0.124-1.797-0.124
					c-23.92,0-23.92,30.831-47.84,30.831c-23.922,0-23.922-71.247-47.844-71.247c-23.92,0-23.92,71.316-47.84,71.316
					c-23.922,0-23.922-1.676-47.842-1.676c-23.922,0-23.922-63.681-47.843-63.681c-23.92,0-23.919,82.778-47.839,82.778
					s-23.92-6.229-47.839-6.229s-23.919-91.588-47.837-91.588c-23.92,0-23.92,94.331-47.839,94.331s-23.919-44.471-47.837-44.471
					c-23.922,0-23.922,61.143-47.842,61.143c-23.918,0-23.918-6.511-47.836-6.511c-23.917,0-23.917-69.081-47.834-69.081
					c-23.92,0-23.92,51.614-47.84,51.614s-23.92-93.136-47.839-93.136s-23.919,68.619-47.838,68.619s-23.919-2.34-47.839-2.34
					c-23.919,0-23.919,42.549-47.838,42.549c-23.92,0-23.92-108.041-47.84-108.041c-23.918,0-23.918,111.578-47.838,111.578
					c-23.919,0-23.919-92.193-47.838-92.193s-23.919,72.318-47.838,72.318c-23.92,0-23.92-44.183-47.839-44.183
					c-23.92,0-23.92,57.052-47.839,57.052s-23.919-9.5-47.839-9.5s-23.92,18.489-47.839,18.489
					c-23.92,0-23.92-105.795-47.838-105.795s-23.918,103.779-47.836,103.779s-23.918-40.077-47.836-40.077
					c-23.919,0-23.919,28.378-47.837,28.378c-23.92,0-23.919-106.434-47.839-106.434c-23.918,0-23.918,91.011-47.836,91.011
					c-23.917,0-23.917-62.859-47.835-62.859c-23.919,0-23.919,80.547-47.838,80.547c-23.918,0-23.918,30.711-47.835,30.711
					c-23.918,0-23.917-105.822-47.835-105.822c-23.919,0-23.919,89.945-47.837,89.945c-23.917,0-23.917-107.309-47.834-107.309
					c-23.919,0-23.919,95.071-47.838,95.071c-23.917,0-23.917-25.549-47.834-25.549c-23.92,0-23.92,41.411-47.838,41.411
					c-23.916,0-23.916-87.116-47.834-87.116s-23.918,53.136-47.836,53.136c-23.916,0-23.916,43.182-47.834,43.182
					s-23.918-122.481-47.838-122.481c-23.916,0-23.916,74.859-47.832,74.859c-23.918,0-23.918-41.763-47.836-41.763
					c-23.916,0-23.916,86.898-47.834,86.898c-23.916,0-23.916-22.956-47.832-22.956c-23.918,0-23.918,31.636-47.838,31.636
					c-23.916,0-23.916-89.524-47.832-89.524s-23.916,65.511-47.832,65.511c-23.918,0-23.918-21.822-47.836-21.822
					c-23.916,0-23.916-57.779-47.83-57.779c-23.918,0-23.918,77.129-47.834,77.129s-23.916,2.019-47.834,2.019
					c-23.914,0-23.914-22.662-47.83-22.662s-23.916,34.321-47.832,34.321c-23.918,0-23.918-59.188-47.836-59.188
					c-23.92,0-23.92,47.853-47.838,47.853s-23.918-76.929-47.834-76.929c-23.92,0-23.92,63.646-47.838,63.646
					s-23.918-93.444-47.834-93.444c-23.92,0-23.92,112.815-47.838,112.815s-23.918-0.727-47.836-0.727
					s-23.918-104.572-47.836-104.572s-23.918,72.287-47.834,72.287c-23.918,0-23.918,16.29-47.836,16.29
					s-23.918-99.299-47.836-99.299s-23.918,103.016-47.836,103.016s-23.918,31.13-47.836,31.13s-23.918-15.532-47.836-15.532
					s-23.918-60.041-47.836-60.041s-23.918,18.963-47.836,18.963s-23.918,37.603-47.836,37.603s-23.918-65.458-47.836-65.458
					s-23.918,47.062-47.834,47.062c-23.918,0-23.918-96.387-47.836-96.387s-23.918,85.547-47.836,85.547
					c-23.916,0-23.916,33.217-47.834,33.217s-23.918-84.521-47.836-84.521c-23.916,0-23.916-44.382-47.834-44.382
					s-23.918,90.226-47.834,90.226c-23.92,0-23.92-34.378-47.838-34.378c-23.916,0-23.916-24.844-47.834-24.844
					s-23.918,98.037-47.834,98.037c-23.92,0-23.92-112.102-47.838-112.102c-23.916,0-23.916,91.231-47.834,91.231
					s-23.918-48.942-47.834-48.942c-23.918,0-23.918,54.834-47.836,54.834c-23.916,0-23.916-25.312-47.834-25.312
					s-23.918,16.267-47.834,16.267C15.075,409.892,10.238,353.439-0.002,321.666z"/>
			</defs>
			<clipPath id="SVGID_17_">
				<use xlink:href="#SVGID_16_"  overflow="visible"/>
			</clipPath>
			<g clip-path="url(#SVGID_17_)">
				<path fill="#FFFFFF" d="M3130.502,358.166c1.933,0,3.5,2.334,3.5,4.334s-1.567,0-3.5,0s-3.5,2-3.5,0
					S3128.569,358.166,3130.502,358.166z"/>
				<path fill="#FFFFFF" d="M3121.036,316c-7.965,18-3.07,34.258,4.965,35.5c4.018,0.621,4-3.5,8.673-4.21
					s1.327,11.265,8.266,11.265c3.72,0,3.396-6.143,8.136-6.143s1.927,6.588,7.927,7.088c13.439,1.12,12-8.5,12-8.5
					C3172.002,297,3129.001,298,3121.036,316z"/>
			</g>
		</g>
	</g>
</g>
<g id="hills2">
	<g>
		<g>
			<defs>
				<path id="SVGID_18_" d="M0.004,463.415V768h4435V470.61c-33.934-13.153-52.287-30.99-112.696-30.99
					c-88.052,0-88.052,44-176.104,44c-88.047,0-88.047-44-176.096-44s-88.049,44-176.098,44c-88.047,0-88.047-44-176.095-44
					s-88.048,44-176.094,44c-88.048,0-88.048-44-176.095-44c-88.049,0-88.049,44-176.097,44s-88.048-44-176.097-44
					c-88.048,0-88.048,44-176.095,44s-88.047-44-176.094-44c-88.048,0-88.048,44-176.095,44c-88.048,0-88.048-44-176.096-44
					c-88.047,0-88.047,44-176.093,44s-88.046-44-176.092-44c-88.048,0-88.048,44-176.096,44c-88.046,0-88.046-44-176.091-44
					c-88.046,0-88.045,44-176.091,44c-88.045,0-88.045-44-176.091-44c-88.044,0-88.044,44-176.088,44
					c-88.048,0-88.048-44-176.095-44c-88.048,0-88.048,44-176.095,44c-88.046,0-88.046-44-176.092-44
					c-88.047,0-88.047,44-176.095,44c-88.046,0-88.046-44-176.093-44C46.18,439.62,24.973,451.773,0.004,463.415z"/>
			</defs>
			<use xlink:href="#SVGID_18_"  overflow="visible" fill="#0096A5"/>
			<clipPath id="SVGID_19_">
				<use xlink:href="#SVGID_18_"  overflow="visible"/>
			</clipPath>
			<rect x="0.002" y="410.322" clip-path="url(#SVGID_19_)" fill="#0096A5" width="4435" height="357.678"/>
		</g>
	</g>
</g>
<g id="hills">
	<g>
		<g>
			<defs>
				<path id="SVGID_20_" d="M0.002,503.358V768H4432.49V665.493c0.812-0.179,1.646-0.323,2.5-0.433V509.604
					c-32.188,0.496-33.59,6.845-68.395,6.845c-36.225,0-36.225,40.343-72.449,40.343c-36.224,0-36.224-95.263-72.446-95.263
					c-36.224,0-36.224,53.359-72.447,53.359s-36.224,37.429-72.448,37.429c-36.223,0-36.223-46.091-72.446-46.091
					c-36.225,0-36.225,16.198-72.449,16.198c-36.223,0-36.223-31.201-72.447-31.201c-36.224,0-36.224,44.567-72.447,44.567
					c-36.225,0-36.225-97.119-72.449-97.119c-36.224,0-36.225,70.554-72.447,70.554c-36.224,0-36.224-27.689-72.447-27.689
					s-36.224,61.845-72.448,61.845c-36.224,0-36.224-41.267-72.448-41.267c-36.224,0-36.224,18.216-72.447,18.216
					s-36.224-45.317-72.447-45.317s-36.224,52.514-72.448,52.514c-36.224,0-36.224,0.188-72.447,0.188
					c-36.225,0-36.225-72.631-72.449-72.631s-36.227,67.538-72.45,67.538s-36.224-46.221-72.448-46.221
					c-36.224,0-36.225,53.295-72.448,53.295c-36.225,0-36.226-12.863-72.449-12.863s-36.224-84.146-72.449-84.146
					c-36.223,0-36.223,86.809-72.448,86.809c-36.221,0-36.221-88.12-72.441-88.12c-36.225,0-36.225,87.687-72.448,87.687
					c-36.221,0-36.222-33.358-72.444-33.358c-36.222,0-36.222,25.188-72.443,25.188c-36.225,0-36.225,0.327-72.449,0.327
					c-36.221,0-36.222-70.068-72.444-70.068c-36.222,0-36.222,86.87-72.444,86.87c-36.226,0-36.226-56.113-72.451-56.113
					c-36.223,0-36.223,51.916-72.446,51.916c-28.188,0-34.446,4.279-52.904,6.178h-25.987c-29.92-8.586-32.063-76.558-66-76.558
					c-36.223,0-36.223,71.711-72.446,71.711s-36.226-105.456-72.45-105.456s-36.225,101.008-72.45,101.008
					c-36.225,0-36.225-68.312-72.45-68.312c-36.225,0-36.225,59.555-72.45,59.555c-36.224,0-36.224-33.451-72.448-33.451
					c-36.223,0-36.223,35.474-72.447,35.474c-36.224,0-36.224-76.073-72.449-76.073c-36.225,0-36.225,56.692-72.45,56.692
					c-36.224,0-36.224-14.457-72.448-14.457s-36.227,28.855-72.451,28.855s-36.226-61.208-72.449-61.208
					c-36.225,0-36.225,28.153-72.449,28.153s-36.227,51.958-72.451,51.958s-36.225-21.003-72.451-21.003
					c-36.224,0-36.224,15.477-72.449,15.477s-36.226-64.79-72.453-64.79c-36.225,0-36.226,50.593-72.45,50.593
					c-36.226,0-36.226,22.549-72.451,22.549c-36.222,0-36.224-63.387-72.446-63.387s-36.223,41.573-72.447,41.573
					c-36.224,0-36.224-17.828-72.449-17.828c-36.225,0-36.226-58.66-72.451-58.66c-36.227,0-36.227,75.227-72.455,75.227
					c-36.225,0-36.225,1.164-72.451,1.164C11.582,508.805,5.293,506.667,0.002,503.358z"/>
			</defs>
			<clipPath id="SVGID_21_">
				<use xlink:href="#SVGID_20_"  overflow="visible"/>
			</clipPath>
			<rect x="0.002" y="407.752" clip-path="url(#SVGID_21_)" fill="#2EA8B0" width="4437.246" height="360.498"/>
		</g>
	</g>
</g>
<g id="trees2" display="none">
	<path display="inline" fill="#CDCDCD" d="M340.285,513.961c-3.992-0.567-6.838-3.248-9.988-5.534
		c-0.162-0.118-0.316-0.179-0.479-0.25c-0.013-0.372-0.108-0.743-0.268-1.095c-0.002-0.985-0.039-1.976-0.08-2.962
		c1.174,0.786,2.414,1.479,3.713,2.054c1.453,0.644,3.117,0.438,3.984-1.046c0.735-1.253,0.41-3.346-1.043-3.985
		c-3.104-1.375-5.906-3.271-7.685-6.224c-0.204-1.066-0.419-2.136-0.69-3.206c-0.923-3.643-6.543-2.097-5.62,1.547
		c0.133,0.525,0.227,1.045,0.343,1.564c-0.436,0.239-0.807,0.579-1.02,1.05c-1.34,2.946-3.877,4.737-6.344,6.694
		c-1.246,0.989-1.025,3.095,0,4.119c1.218,1.221,2.879,0.988,4.121,0c1.535-1.219,3.069-2.43,4.404-3.813
		c0.081,1.159,0.134,2.318,0.155,3.477c-4.142,2.141-8.233,4.357-12.736,5.669c-3.601,1.048-2.067,6.672,1.548,5.618
		c3.861-1.124,7.456-2.844,11.011-4.66c-0.116,1.774-0.269,3.552-0.468,5.325c-0.718-0.188-1.486-0.128-2.102,0.322
		c-1.155,0.848-2.549,1.906-4.07,1.65c-1.566-0.263-3.13,0.386-3.585,2.033c-0.388,1.412,0.468,3.323,2.038,3.586
		c2.535,0.422,4.779-0.035,6.893-1.188c-0.533,3.714-1.127,7.441-1.644,11.202c-0.509,3.673,5.108,5.259,5.618,1.548
		c0.543-3.943,1.16-7.855,1.709-11.752c1.312,0.579,2.848,0.763,4.225,0.78c3.762,0.046,3.758-5.781,0-5.83
		c-0.211,0-0.422-0.006-0.633-0.016c-0.111-0.006-0.188-0.008-0.242-0.008c-0.044-0.008-0.078-0.016-0.152-0.025
		c-0.268-0.049-0.529-0.125-0.789-0.206c-0.029-0.011-0.037-0.011-0.059-0.019c-0.035-0.021-0.088-0.058-0.189-0.114
		c-0.08-0.053-0.09-0.057-0.125-0.078c-0.164-0.146-0.315-0.301-0.459-0.461c0.382,0.432-0.143-0.3-0.168-0.345
		c-0.051-0.092-0.088-0.147-0.111-0.188c-0.012-0.051-0.033-0.125-0.091-0.284c-0.075-0.21-0.169-0.407-0.275-0.593
		c0.122-1.153,0.228-2.305,0.321-3.457c2.885,2.144,5.777,4.19,9.483,4.718c1.57,0.225,3.121-0.356,3.585-2.034
		C342.703,516.164,341.862,514.186,340.285,513.961z"/>
	<path display="inline" fill="#CDCDCD" d="M1210.285,493.961c-3.992-0.567-6.838-3.248-9.988-5.534
		c-0.162-0.118-0.316-0.179-0.479-0.25c-0.014-0.372-0.108-0.743-0.269-1.095c-0.002-0.985-0.039-1.976-0.08-2.962
		c1.175,0.786,2.414,1.479,3.714,2.054c1.452,0.644,3.116,0.438,3.983-1.046c0.735-1.253,0.41-3.346-1.043-3.985
		c-3.104-1.375-5.906-3.271-7.685-6.224c-0.204-1.066-0.419-2.136-0.69-3.206c-0.923-3.643-6.543-2.097-5.62,1.547
		c0.133,0.525,0.228,1.045,0.344,1.564c-0.437,0.239-0.808,0.579-1.021,1.05c-1.34,2.946-3.877,4.737-6.344,6.694
		c-1.246,0.989-1.025,3.095,0,4.119c1.218,1.221,2.879,0.988,4.121,0c1.534-1.219,3.068-2.43,4.403-3.813
		c0.081,1.159,0.135,2.318,0.155,3.477c-4.142,2.141-8.233,4.357-12.735,5.669c-3.602,1.048-2.067,6.672,1.548,5.618
		c3.86-1.124,7.456-2.844,11.011-4.66c-0.116,1.774-0.27,3.552-0.468,5.325c-0.719-0.188-1.486-0.128-2.103,0.322
		c-1.155,0.848-2.549,1.906-4.07,1.65c-1.565-0.263-3.13,0.386-3.584,2.033c-0.389,1.412,0.468,3.323,2.037,3.585
		c2.535,0.423,4.779-0.034,6.894-1.187c-0.533,3.714-1.127,7.441-1.645,11.202c-0.509,3.673,5.108,5.259,5.618,1.548
		c0.543-3.943,1.16-7.855,1.709-11.752c1.312,0.579,2.848,0.763,4.225,0.78c3.763,0.046,3.759-5.781,0-5.83
		c-0.211,0-0.422-0.006-0.633-0.016c-0.11-0.006-0.188-0.008-0.242-0.008c-0.043-0.008-0.077-0.016-0.151-0.026
		c-0.269-0.048-0.529-0.125-0.789-0.205c-0.029-0.011-0.037-0.011-0.059-0.019c-0.035-0.021-0.089-0.058-0.189-0.114
		c-0.08-0.053-0.09-0.057-0.125-0.079c-0.164-0.146-0.314-0.3-0.459-0.461c0.382,0.433-0.143-0.299-0.168-0.344
		c-0.051-0.092-0.088-0.147-0.11-0.188c-0.013-0.051-0.033-0.125-0.092-0.284c-0.074-0.21-0.169-0.407-0.274-0.593
		c0.122-1.153,0.228-2.305,0.321-3.457c2.885,2.144,5.776,4.19,9.482,4.718c1.57,0.225,3.121-0.356,3.585-2.034
		C1212.703,496.164,1211.862,494.186,1210.285,493.961z"/>
	<path display="inline" fill="#CDCDCD" d="M2137.285,488.961c-3.992-0.567-6.838-3.248-9.988-5.534
		c-0.162-0.118-0.316-0.179-0.479-0.25c-0.014-0.372-0.108-0.743-0.269-1.095c-0.002-0.985-0.039-1.976-0.08-2.962
		c1.174,0.786,2.414,1.479,3.713,2.054c1.453,0.644,3.117,0.438,3.983-1.046c0.735-1.253,0.41-3.346-1.043-3.985
		c-3.104-1.375-5.905-3.271-7.685-6.224c-0.204-1.066-0.419-2.136-0.69-3.206c-0.923-3.643-6.543-2.097-5.619,1.547
		c0.133,0.525,0.227,1.045,0.343,1.564c-0.437,0.239-0.808,0.579-1.021,1.05c-1.34,2.946-3.877,4.737-6.344,6.694
		c-1.246,0.989-1.025,3.095,0,4.119c1.218,1.221,2.879,0.988,4.121,0c1.535-1.219,3.069-2.43,4.404-3.813
		c0.081,1.159,0.134,2.318,0.154,3.477c-4.142,2.141-8.232,4.357-12.735,5.669c-3.602,1.048-2.067,6.672,1.548,5.618
		c3.861-1.124,7.456-2.844,11.011-4.66c-0.116,1.774-0.269,3.552-0.468,5.325c-0.718-0.188-1.486-0.128-2.102,0.322
		c-1.155,0.848-2.55,1.906-4.07,1.65c-1.566-0.263-3.13,0.386-3.585,2.033c-0.388,1.412,0.468,3.323,2.038,3.585
		c2.535,0.423,4.779-0.034,6.893-1.187c-0.533,3.714-1.127,7.441-1.644,11.202c-0.509,3.673,5.107,5.259,5.618,1.548
		c0.543-3.943,1.159-7.855,1.709-11.752c1.312,0.579,2.848,0.763,4.225,0.78c3.762,0.046,3.758-5.781,0-5.83
		c-0.211,0-0.422-0.006-0.633-0.016c-0.111-0.006-0.188-0.008-0.242-0.008c-0.044-0.008-0.078-0.016-0.152-0.026
		c-0.268-0.048-0.529-0.125-0.789-0.205c-0.029-0.011-0.037-0.011-0.059-0.019c-0.035-0.021-0.088-0.058-0.189-0.114
		c-0.08-0.053-0.09-0.057-0.125-0.079c-0.164-0.146-0.314-0.3-0.459-0.461c0.383,0.433-0.143-0.299-0.168-0.344
		c-0.051-0.092-0.088-0.147-0.111-0.188c-0.012-0.051-0.032-0.125-0.091-0.284c-0.075-0.21-0.169-0.407-0.274-0.593
		c0.122-1.153,0.228-2.305,0.32-3.457c2.886,2.144,5.777,4.19,9.483,4.718c1.57,0.225,3.121-0.356,3.585-2.034
		C2139.703,491.164,2138.862,489.186,2137.285,488.961z"/>
	<path display="inline" fill="#CDCDCD" d="M3169.285,443.961c-3.992-0.567-6.838-3.248-9.988-5.534
		c-0.162-0.118-0.316-0.179-0.479-0.25c-0.014-0.372-0.108-0.743-0.269-1.095c-0.002-0.985-0.039-1.976-0.08-2.962
		c1.174,0.786,2.414,1.479,3.713,2.054c1.453,0.644,3.117,0.438,3.983-1.046c0.735-1.253,0.41-3.346-1.043-3.985
		c-3.104-1.375-5.905-3.271-7.685-6.224c-0.204-1.066-0.419-2.136-0.69-3.206c-0.923-3.643-6.543-2.097-5.619,1.547
		c0.133,0.525,0.227,1.045,0.343,1.564c-0.437,0.239-0.808,0.579-1.021,1.05c-1.34,2.946-3.877,4.737-6.344,6.694
		c-1.246,0.989-1.025,3.095,0,4.119c1.218,1.221,2.879,0.988,4.121,0c1.535-1.219,3.069-2.43,4.404-3.813
		c0.081,1.159,0.134,2.318,0.154,3.477c-4.142,2.141-8.232,4.357-12.735,5.669c-3.602,1.048-2.067,6.672,1.548,5.618
		c3.861-1.124,7.456-2.844,11.011-4.66c-0.116,1.774-0.269,3.552-0.468,5.325c-0.718-0.188-1.486-0.128-2.102,0.322
		c-1.155,0.848-2.55,1.906-4.07,1.65c-1.566-0.263-3.13,0.386-3.585,2.033c-0.388,1.412,0.468,3.323,2.038,3.585
		c2.535,0.423,4.779-0.034,6.893-1.187c-0.533,3.714-1.127,7.441-1.644,11.202c-0.509,3.673,5.107,5.259,5.618,1.548
		c0.543-3.943,1.159-7.855,1.709-11.752c1.312,0.579,2.848,0.763,4.225,0.78c3.762,0.046,3.758-5.781,0-5.83
		c-0.211,0-0.422-0.006-0.633-0.016c-0.111-0.006-0.188-0.008-0.242-0.008c-0.044-0.008-0.078-0.016-0.152-0.026
		c-0.268-0.048-0.529-0.125-0.789-0.205c-0.029-0.011-0.037-0.011-0.059-0.019c-0.035-0.021-0.088-0.058-0.189-0.114
		c-0.08-0.053-0.09-0.057-0.125-0.079c-0.164-0.146-0.314-0.3-0.459-0.461c0.383,0.433-0.143-0.299-0.168-0.344
		c-0.051-0.092-0.088-0.147-0.111-0.188c-0.012-0.051-0.032-0.125-0.091-0.284c-0.075-0.21-0.169-0.407-0.274-0.593
		c0.122-1.153,0.228-2.305,0.32-3.457c2.886,2.144,5.777,4.19,9.483,4.718c1.57,0.225,3.121-0.356,3.585-2.034
		C3171.703,446.164,3170.862,444.186,3169.285,443.961z"/>
	<path display="inline" fill="#CDCDCD" d="M4156.285,487.961c-3.992-0.567-6.838-3.248-9.988-5.534
		c-0.162-0.118-0.315-0.179-0.479-0.25c-0.014-0.372-0.107-0.743-0.268-1.095c-0.002-0.985-0.039-1.976-0.08-2.962
		c1.174,0.786,2.414,1.479,3.713,2.054c1.453,0.644,3.117,0.438,3.983-1.046c0.735-1.253,0.41-3.346-1.043-3.985
		c-3.104-1.375-5.905-3.271-7.685-6.224c-0.205-1.066-0.42-2.136-0.69-3.206c-0.923-3.643-6.543-2.097-5.62,1.547
		c0.133,0.525,0.227,1.045,0.343,1.564c-0.437,0.239-0.808,0.579-1.021,1.05c-1.34,2.946-3.877,4.737-6.344,6.694
		c-1.246,0.989-1.025,3.095,0,4.119c1.218,1.221,2.879,0.988,4.121,0c1.535-1.219,3.068-2.43,4.404-3.813
		c0.08,1.159,0.133,2.318,0.154,3.477c-4.143,2.141-8.232,4.357-12.736,5.669c-3.601,1.048-2.066,6.672,1.549,5.618
		c3.86-1.124,7.455-2.844,11.011-4.66c-0.116,1.774-0.269,3.552-0.468,5.325c-0.718-0.188-1.486-0.128-2.102,0.322
		c-1.155,0.848-2.549,1.906-4.07,1.65c-1.566-0.263-3.13,0.386-3.585,2.033c-0.388,1.412,0.468,3.323,2.038,3.585
		c2.535,0.423,4.779-0.034,6.893-1.187c-0.533,3.714-1.127,7.441-1.644,11.202c-0.509,3.673,5.108,5.259,5.618,1.548
		c0.543-3.943,1.16-7.855,1.709-11.752c1.312,0.579,2.848,0.763,4.225,0.78c3.763,0.046,3.758-5.781,0-5.83
		c-0.211,0-0.422-0.006-0.633-0.016c-0.11-0.006-0.188-0.008-0.242-0.008c-0.043-0.008-0.078-0.016-0.151-0.026
		c-0.269-0.048-0.528-0.125-0.789-0.205c-0.028-0.011-0.037-0.011-0.06-0.019c-0.035-0.021-0.088-0.058-0.188-0.114
		c-0.08-0.053-0.09-0.057-0.125-0.079c-0.164-0.146-0.315-0.3-0.459-0.461c0.382,0.433-0.144-0.299-0.168-0.344
		c-0.051-0.092-0.088-0.147-0.11-0.188c-0.013-0.051-0.033-0.125-0.092-0.284c-0.074-0.21-0.168-0.407-0.274-0.593
		c0.122-1.153,0.228-2.305,0.321-3.457c2.885,2.144,5.776,4.19,9.482,4.718c1.57,0.225,3.121-0.356,3.585-2.034
		C4158.703,490.164,4157.861,488.186,4156.285,487.961z"/>
</g>
<g id="ground">
	<g>
		<g>
			<path id="SVGID_9_" fill="#636363" d="M0.003,538.081V1200h4435V580.179c-59.196,19.774-128.849,37.28-235.36,37.28
				c-294.697,0-294.697-80-589.396-80c-294.697,0-294.697,80-589.394,80c-294.697,0-294.697-80-589.395-80
				c-294.699,0-294.698,80-589.395,80c-294.695,0-294.695-80-589.391-80c-294.693,0-294.693,80-589.389,80
				c-294.694,0-294.694-80-589.387-80C46.93,537.459,22.447,537.665,0.003,538.081L0.003,538.081z"/>
		</g>
		<g>
			<defs>
				<path id="SVGID_22_" d="M0.003,538.081V1200h4435V580.179c-59.196,19.774-128.849,37.28-235.36,37.28
					c-294.697,0-294.697-80-589.396-80c-294.697,0-294.697,80-589.394,80c-294.697,0-294.697-80-589.395-80
					c-294.699,0-294.698,80-589.395,80c-294.695,0-294.695-80-589.391-80c-294.693,0-294.693,80-589.389,80
					c-294.694,0-294.694-80-589.387-80C46.93,537.459,22.447,537.665,0.003,538.081L0.003,538.081z"/>
			</defs>
			<clipPath id="SVGID_23_">
				<use xlink:href="#SVGID_22_"  overflow="visible"/>
			</clipPath>
			<rect x="0.002" y="449.326" clip-path="url(#SVGID_23_)" fill="#00632B" width="4435" height="800"/>
		</g>
		<g>
			<defs>
				<path id="SVGID_24_" d="M0.003,538.081V1200h4435V580.179c-59.196,19.774-128.849,37.28-235.36,37.28
					c-294.697,0-294.697-80-589.396-80c-294.697,0-294.697,80-589.394,80c-294.697,0-294.697-80-589.395-80
					c-294.699,0-294.698,80-589.395,80c-294.695,0-294.695-80-589.391-80c-294.693,0-294.693,80-589.389,80
					c-294.694,0-294.694-80-589.387-80C46.93,537.459,22.447,537.665,0.003,538.081L0.003,538.081z"/>
			</defs>
			<clipPath id="SVGID_25_">
				<use xlink:href="#SVGID_24_"  overflow="visible"/>
			</clipPath>
			<path clip-path="url(#SVGID_25_)" fill="#003C1B" d="M4015.362,630.843c-4.852-0.606-0.021,0.102,0.856,0.321
				c1.231,0.311,2.467,0.622,3.667,1.043c0.591,0.306,1.173,0.625,1.743,0.969c0.316,0.199,0.63,0.401,0.944,0.604
				c0.198,0.172,0.39,0.341,0.538,0.482c1.082,1.029,2.129,2.088,3.137,3.191c0.881,0.964,1.771,1.905,2.672,2.825
				c-0.019,0.354-0.055,0.707-0.055,1.065c0,10.679,8.871,19.438,19.5,19.5c35.746,0.212,71.756,12.501,107.193,2.305
				c7.485-2.155,12.676-8.746,13.994-15.928c0.407-0.039,0.814-0.082,1.221-0.115c3.277-0.272,6.559-0.485,9.843-0.644
				c14.733-0.707,29.469-1.234,43.95-4.315c10.398-2.215,16.311-14.203,13.619-23.987c-2.94-10.692-27.764-12.853-29.666-12.542
				c-0.914,0.123-156.257-10.75-193.157-13.775c-10.609-0.87-19.5,9.528-19.5,19.5
				C3995.862,622.971,4004.818,629.523,4015.362,630.843z"/>
		</g>
		<g>
			<defs>
				<path id="SVGID_26_" d="M0.003,538.081V1200h4435V580.179c-59.196,19.774-128.849,37.28-235.36,37.28
					c-294.697,0-294.697-80-589.396-80c-294.697,0-294.697,80-589.394,80c-294.697,0-294.697-80-589.395-80
					c-294.699,0-294.698,80-589.395,80c-294.695,0-294.695-80-589.391-80c-294.693,0-294.693,80-589.389,80
					c-294.694,0-294.694-80-589.387-80C46.93,537.459,22.447,537.665,0.003,538.081L0.003,538.081z"/>
			</defs>
			<clipPath id="SVGID_27_">
				<use xlink:href="#SVGID_26_"  overflow="visible"/>
			</clipPath>
			<path clip-path="url(#SVGID_27_)" fill="#003C1B" d="M2876.747,626.343c0,10.621,8.87,19.511,19.5,19.5
				c40.456-0.042,80.96-3.044,121.4-0.797c5.165,0.287,10.327,0.627,15.478,1.104c2.855,0.264,5.712,0.539,8.561,0.869
				c0.658,0.077,5.48,0.71,4.873,0.605c9.135,1.334,18.231,2.993,27.193,5.217c9.551,2.37,19.005,5.191,28.196,8.723
				c1.642,0.632,3.284,1.264,4.911,1.934c0.11,0.046,0.192,0.079,0.291,0.12c2.155,0.948,4.307,1.905,6.43,2.925
				c0.248,0.119,0.49,0.248,0.738,0.368c0.05,0.207,0.095,0.413,0.151,0.619c1.637,5.954,7.134,12.639,13.619,13.62
				c35.172,5.32,71.172,6.225,106.623,3.472c17.085-1.326,34.929-2.77,51.472-7.46c12.001-3.404,24.719-7.456,35.989-13.376
				c2.732,0.502,5.568,0.354,8.304-0.639c23.659-8.589,44.791-21.423,65.819-35.03c10.268-6.646,20.546-13.317,31.253-19.243
				c5.5-3.045,11.076-5.967,16.802-8.568c0.4-0.181,5.702-2.284,1.834-0.812c1.134-0.434,2.271-0.863,3.406-1.29
				c2.853-1.069,5.708-2.13,8.57-3.171c24.687-8.976,49.729-17.029,74.096-26.871c3.104-1.253,6.201-2.524,9.289-3.817
				c6.44-1.182,12.908-2.234,19.413-3.127c3.058,0.709,6.324,0.72,9.542-0.077c10.628-2.632,21.353-4.869,32.153-6.675
				c2.882-0.482,5.766-0.953,8.655-1.384c1.741-0.261,3.483-0.521,5.228-0.763c0.195-0.027,0.351-0.05,0.514-0.071
				c5.139-0.661,10.283-1.276,15.438-1.802c22.775-2.328,45.652-3.521,68.539-4.029c44.772-0.993,89.543,0.396,134.316,0.418
				c10.63,0.005,19.5-8.874,19.5-19.5c0-10.634-8.87-19.495-19.5-19.5c-44.822-0.02-305.695-10.789-530.342,14.666
				c-211.872,24.008-388.831,84.323-408.752,84.344C2885.62,606.854,2876.75,615.706,2876.747,626.343z"/>
		</g>
		<g>
			<defs>
				<path id="SVGID_28_" d="M0.003,538.081V1200h4435V580.179c-59.196,19.774-128.849,37.28-235.36,37.28
					c-294.697,0-294.697-80-589.396-80c-294.697,0-294.697,80-589.394,80c-294.697,0-294.697-80-589.395-80
					c-294.699,0-294.698,80-589.395,80c-294.695,0-294.695-80-589.391-80c-294.693,0-294.693,80-589.389,80
					c-294.694,0-294.694-80-589.387-80C46.93,537.459,22.447,537.665,0.003,538.081L0.003,538.081z"/>
			</defs>
			<clipPath id="SVGID_29_">
				<use xlink:href="#SVGID_28_"  overflow="visible"/>
			</clipPath>
			<path clip-path="url(#SVGID_29_)" fill="#003C1B" d="M1679.63,614.344c0,10.416,8.87,19.782,19.5,19.5
				c39.84-1.058,79.733-0.946,119.627-0.965c-2.247,7.735,0.448,16.714,8.545,22.306c13.728,9.481,33.99,10.428,49.974,11.395
				c20.567,1.245,41.256,0.747,61.807-0.561c18.162-1.155,36.814-2.417,54.662-6.141c21.087-4.4,38.511-15.363,55.983-27.328
				c7.191-4.923,14.569-9.666,22.519-13.276c0.827-0.322,2.464-0.978,3.049-1.183c1.207-0.424,2.415-0.847,3.639-1.222
				c2.569-0.786,5.158-1.519,7.784-2.093c2.137-0.469,4.284-0.898,6.445-1.251c0.573-0.054,2.588-0.292,3.101-0.335
				c1.635-0.138,3.269-0.253,4.907-0.35c10.606-0.623,19.5-8.397,19.5-19.5c0-10.157-8.879-20.124-19.5-19.5
				c-11.9,0.699-98.57,6.059-192.467,11.241c-77.647,4.286-160.236,8.451-209.573,9.761
				C1688.508,595.125,1679.631,603.5,1679.63,614.344z"/>
		</g>
		<g>
			<defs>
				<path id="SVGID_30_" d="M0.003,538.081V1200h4435V580.179c-59.196,19.774-128.849,37.28-235.36,37.28
					c-294.697,0-294.697-80-589.396-80c-294.697,0-294.697,80-589.394,80c-294.697,0-294.697-80-589.395-80
					c-294.699,0-294.698,80-589.395,80c-294.695,0-294.695-80-589.391-80c-294.693,0-294.693,80-589.389,80
					c-294.694,0-294.694-80-589.387-80C46.93,537.459,22.447,537.665,0.003,538.081L0.003,538.081z"/>
			</defs>
			<clipPath id="SVGID_31_">
				<use xlink:href="#SVGID_30_"  overflow="visible"/>
			</clipPath>
			<path clip-path="url(#SVGID_31_)" fill="#003C1B" d="M241.803,570.142c12.082,2.709,24.025,5.888,35.886,9.337
				c2.392,2.639,5.494,4.664,9.119,5.664c1.659,0.457,3.319,0.915,4.97,1.4c13.576,3.989,26.887,8.809,39.981,14.17
				c1.709,0.699,3.416,1.407,5.12,2.119c0.812,0.347,2.354,1.001,2.628,1.119c3.083,1.329,6.162,2.668,9.233,4.023
				c6.136,2.709,12.255,5.455,18.376,8.196c26.614,11.918,53.459,23.961,81.623,31.789c30.58,8.499,62.765,12.296,94.342,14.775
				c32.258,2.532,64.635,2.861,96.944,1.109c10.609-0.575,19.5-8.435,19.5-19.5c0-0.371-0.016-0.741-0.038-1.109
				c29.511-0.69,58.905-3.523,87.731-10.089c10.364-2.361,16.342-14.092,13.62-23.987c-2.911-10.583-13.633-15.979-23.987-13.62
				c-5.9,1.345-426.463-49.953-484.683-63.006c-10.362-2.323-21.069,3.011-23.987,13.62
				C225.467,556.021,231.429,567.815,241.803,570.142z"/>
		</g>
		<g>
			<defs>
				<path id="SVGID_32_" d="M0.003,538.081V1200h4435V580.179c-59.196,19.774-128.849,37.28-235.36,37.28
					c-294.697,0-294.697-80-589.396-80c-294.697,0-294.697,80-589.394,80c-294.697,0-294.697-80-589.395-80
					c-294.699,0-294.698,80-589.395,80c-294.695,0-294.695-80-589.391-80c-294.693,0-294.693,80-589.389,80
					c-294.694,0-294.694-80-589.387-80C46.93,537.459,22.447,537.665,0.003,538.081L0.003,538.081z"/>
			</defs>
			<clipPath id="SVGID_33_">
				<use xlink:href="#SVGID_32_"  overflow="visible"/>
			</clipPath>
			<path clip-path="url(#SVGID_33_)" fill="#003C1B" d="M824.544,605.342c0,9.826,8.904,20.562,19.5,19.5
				c16.819-1.686,33.626-3.476,50.43-5.305c7.373,8.586,17.023,14.771,29.013,15.197c13.801,0.489,25.529-7.228,35.871-15.396
				c9.328-7.368,17.629-15.919,26.61-23.688c1.401-1.212,2.808-2.419,4.244-3.588c0.442-0.36,1.469-1.146,2.128-1.65
				c1.701-1.235,3.431-2.43,5.222-3.528c1.934-1.186,3.908-2.319,5.954-3.307c0.401-0.161,0.786-0.307,1.062-0.396
				c1.213-0.393,2.429-0.737,3.667-1.041c10.322-2.521,16.375-13.969,13.62-23.986c-2.878-10.464-13.671-16.142-23.987-13.62
				c-10.607,2.591-41.138,5.492-72.459,14.38c-35.119,9.964-71.232,25.911-81.373,26.928
				C833.473,586.901,824.545,593.91,824.544,605.342z"/>
		</g>
		<g>
			<defs>
				<path id="SVGID_34_" d="M0.003,538.081V1200h4435V580.179c-59.196,19.774-128.849,37.28-235.36,37.28
					c-294.697,0-294.697-80-589.396-80c-294.697,0-294.697,80-589.394,80c-294.697,0-294.697-80-589.395-80
					c-294.699,0-294.698,80-589.395,80c-294.695,0-294.695-80-589.391-80c-294.693,0-294.693,80-589.389,80
					c-294.694,0-294.694-80-589.387-80C46.93,537.459,22.447,537.665,0.003,538.081L0.003,538.081z"/>
			</defs>
			<clipPath id="SVGID_35_">
				<use xlink:href="#SVGID_34_"  overflow="visible"/>
			</clipPath>
			<path clip-path="url(#SVGID_35_)" fill="#003C1B" d="M2558.719,554.337c0,11.349,8.917,18.55,19.5,19.5
				c0.78,0.07,7.267,0.919,4.367,0.443c1.345,0.211,2.69,0.427,4.026,0.689c3.015,0.591,6.021,1.24,8.985,2.053
				c5.816,1.594,11.518,3.538,17.121,5.764c10.786,4.282,21.37,9.21,32.599,12.269c15.519,4.228,31.539,5.688,47.581,5.77
				c7.895,0.04,15.799-0.088,23.691,0.195c4.387,0.157,8.779,0.368,13.146,0.83c0.183,0.02,3.628,0.506,3.799,0.498
				c1.507,0.252,3.014,0.508,4.516,0.796c10.43,2.001,21.004-2.773,23.987-13.619c2.647-9.626-3.173-21.983-13.619-23.987
				c-3.848-0.739-37.039-22.018-73.417-29.1c-40.334-7.853-84.571-1.545-96.783-1.601
				C2567.588,534.788,2558.719,543.744,2558.719,554.337z"/>
		</g>
	</g>
</g>
</svg>
