<?xml version="1.0" encoding="utf-8"?>
<!-- Generator: Adobe Illustrator 16.0.0, SVG Export Plug-In . SVG Version: 6.00 Build 0)  -->
<!DOCTYPE svg PUBLIC "-//W3C//DTD SVG 1.1//EN" "http://www.w3.org/Graphics/SVG/1.1/DTD/svg11.dtd">
<svg version="1.1" id="Layer_1" xmlns="http://www.w3.org/2000/svg" xmlns:xlink="http://www.w3.org/1999/xlink" x="0px" y="0px"
	 width="150.505px" height="52.085px" viewBox="0 0 150.505 52.085" enable-background="new 0 0 150.505 52.085"
	 xml:space="preserve">
<path fill="#FFFFFF" d="M138.191,12.306c-5.827-2.023-11.8,0.577-15.964,4.792c-3.804-0.074-7.566,0.493-11.262,1.477
	c-0.593-0.885-1.174-1.776-1.725-2.69c-1.402-2.331-1.125-2.01-1.752-4.297c-1.826-6.659-8.988-8.773-14.774-6.011
	c-1.362,0.65-2.655,1.282-3.901,1.966c-5.077-0.642-9.668,1.35-13.223,4.771c0.043-0.738,0.057-1.478,0.006-2.215
	C75.251,5.07,71.268-0.537,65.54,0.042C53.443,1.264,38.651,3.976,31.983,13.933c-2.494,0.109-4.928,0.688-7.199,1.677
	c-0.963-0.746-2.09-1.328-3.387-1.685c-2.541-0.699-5.503-0.296-7.871,1.048c-0.546,0.083-1.092,0.162-1.637,0.262
	c-0.043,0.008-3.405,0.553-1.488,0.412c-3.275,0.242-7.234,1.676-8.684,4.981c-2.541,5.797-2.9,12.583,3.385,16.265
	c1.195,0.699,2.426,1.109,3.668,1.297c2.009,2.383,5.135,3.628,8.229,3.578c1.396,0.811,3.02,1.275,4.847,1.275
	c0.688,0,1.359-0.08,2.014-0.216c1.542,3.706,5.339,6.563,9.43,6.458c5.821-0.15,11.241-1.879,16.456-4.075
	c1.924,3.176,5.18,5.663,8.834,6.424c4.795,0.999,10.295,0.378,14.532-2.269c1.663,1.258,3.708,2,5.953,2
	c1.749,0,3.597-0.54,5.216-1.482c4.514-0.779,8.846-2.364,13.081-4.194c4.521,0.351,9.068-0.155,13.507-1.964
	c2.779-1.133,5.547-3.381,6.838-6.195c0.347-0.077,0.696-0.15,1.046-0.221c-0.865,0.191,1.446-0.176,1.676-0.189
	c0.938-0.059,1.874-0.004,2.81,0.055c-2.199-0.137,0.674,0.223,1.01,0.309c2.526,0.652,5.508,0.285,7.883-1.041
	c1.785,2.707,4.789,4.521,8.314,4.521c5.36,0,10.218-4.576,10.057-10.058C150.255,22.494,146.436,15.168,138.191,12.306z
	 M10.326,18.044c-0.015,0.025-0.028,0.051-0.044,0.076c-0.549,0.116-1.094,0.278-1.635,0.472c0.191-0.084,0.396-0.175,0.625-0.275
	C7.709,18.948,7.841,17.871,10.326,18.044z"/>
</svg>
