<?xml version="1.0" encoding="utf-8"?>
<!-- Generator: Adobe Illustrator 16.0.0, SVG Export Plug-In . SVG Version: 6.00 Build 0)  -->
<!DOCTYPE svg PUBLIC "-//W3C//DTD SVG 1.1//EN" "http://www.w3.org/Graphics/SVG/1.1/DTD/svg11.dtd">
<svg version="1.1" id="Layer_1" xmlns="http://www.w3.org/2000/svg" xmlns:xlink="http://www.w3.org/1999/xlink" x="0px" y="0px"
	 width="1024px" height="135px" viewBox="0 0 1024 135" enable-background="new 0 0 1024 135" xml:space="preserve">
<g>
	<g>
		<defs>
			<rect id="SVGID_1_" x="0.5" y="-1" width="1024" height="185"/>
		</defs>
		<clipPath id="SVGID_2_">
			<use xlink:href="#SVGID_1_"  overflow="visible"/>
		</clipPath>
		<path clip-path="url(#SVGID_2_)" fill="#6E6E6E" d="M725.228-18.728c-6.744-7.125-18.663-6.792-25.455,0
			c-1.776,1.777-3.085,3.817-3.943,5.989c-0.675,0.086-1.447,0.183-1.87,0.228c-1.652,0.174-3.309,0.31-4.965,0.442
			c-4.975,0.396-9.963,0.585-14.94,0.938c-9.253,0.655-17.646,2.564-26.303,5.735c-3.205,1.174-6.418,2.237-9.733,3
			c0.334-0.176-3.273,0.257-4.154,0.242c-0.558-0.045-0.948-0.074-1.199-0.089c-1.427-0.244-2.849-0.505-4.285-0.705
			c-12.453-1.732-24.804-1.293-37.326-1.699c-9.217-0.299-18.38-2.622-29.198-5.479c-11.381-3.005-22.65-5.478-34.354-6.874
			c-9.766-1.165-18,9.069-18,18c0,10.691,8.26,16.838,18,18c-1.706-0.267-1.469-0.234,0.71,0.099
			c1.787,0.269,3.562,0.611,5.336,0.952c2.896,0.554,5.766,1.236,8.63,1.927c5.631,1.359,11.21,2.924,16.822,4.359
			c13.062,3.339,26.211,5.066,39.693,5.158c6.372,0.043,12.732-0.027,19.098,0.355c1.096,0.074,2.189,0.174,3.282,0.283
			c-1.505-0.11,3.187,0.533,3.306,0.556c3.591,0.717,7.305,1.119,10.97,1.183c11.132,0.195,20.84-4.651,31.229-7.685
			c0.947-0.266,1.901-0.507,2.862-0.724c0.408-0.098,2.56-0.395,2.975-0.478c0.747-0.056,1.495-0.106,2.238-0.159
			c2.568-0.182,5.141-0.302,7.711-0.452c7.769-0.452,15.477-1.212,23.173-2.393c7.674-1.177,14.481-3.821,20.517-8.779
			C736.292,4.79,733.229-10.275,725.228-18.728z"/>
		<path clip-path="url(#SVGID_2_)" fill="#6E6E6E" d="M906.585-33.542c-8.328-5.202-19.781-1.815-24.628,6.458
			c-0.947,1.617-1.604,3.309-1.993,5.025c-8.286-3.107-16.911-1.123-25.464-0.94c-9.808,0.21-18,8.029-18,18
			c0,9.653,8.188,18.21,18,18c4.563-0.098,9.085-0.774,13.646-0.859c1.053,1.061,2.049,2.19,3.071,3.252
			c8.458,8.788,22.577,14.075,34.504,9.329c11.974-4.764,19.11-14.807,19.491-27.769C925.591-15.916,916.993-27.041,906.585-33.542z
			"/>
	</g>
	<g>
		<defs>
			<rect id="SVGID_3_" x="0.5" y="-1" width="1024" height="185"/>
		</defs>
		<clipPath id="SVGID_4_">
			<use xlink:href="#SVGID_3_"  overflow="visible"/>
		</clipPath>
		<path clip-path="url(#SVGID_4_)" fill="#6E6E6E" d="M319.285-15.357c-16.14-4.831-33.873-7.505-50.059-1.375
			c-7.806,2.957-14.639,7.248-21.333,11.8c-3.248-3.1-7.624-5.033-12.393-5.067c-4.213-0.03-8.403-0.237-12.601-0.599
			c-1.607-0.139-3.21-0.328-4.812-0.52c2.467,0.282-3.729-0.591-4.337-0.691c-7.951-1.311-15.822-3.081-23.699-4.769
			c-17.59-3.77-34.87-5.874-52.824-6.548c-8.185-0.308-16.321-1.202-24.506-0.38c-6.566,0.66-11.639,2.378-17.448,4.988
			c-2.121-2.693-5.104-4.771-8.988-5.839c-8.729-2.401-20.502,2.887-22.142,12.572c-1.572,9.283-1.767,20.226,6.191,26.966
			c7.43,6.293,16.247,7.306,25.451,4.801c5.861-1.595,11.407-4.528,16.902-7.082c0.094-0.044,0.202-0.093,0.318-0.145
			c0.422-0.145,0.848-0.279,1.28-0.399c0.075-0.013,0.128-0.022,0.198-0.035c1.089-0.088,2.18-0.15,3.272-0.18
			c2.325-0.096,4.659-0.008,6.982,0.07c6.023,0.203,12.087,0.372,18.135,0.646C145.6,19.339,152.088,23.704,159.5,24
			c3.603,0.144,7.205,0.286,10.808,0.425c4.089,9.726,12.237,17.213,23.152,21.323c13.033,4.908,29.636,2.481,42.369-2.17
			c14.729-5.38,26.028-15.86,39.44-23.615c1.278-0.738,2.59-1.413,3.91-2.072c0.217-0.108,0.399-0.201,0.563-0.285
			c0.248-0.078,0.586-0.192,1.038-0.352c1.331-0.47,2.698-0.826,4.067-1.164c0.537-0.125,1.078-0.229,1.62-0.333
			c0.028-0.002,0.05-0.004,0.079-0.007c1.558-0.136,3.125-0.132,4.687-0.114c0.915,0.01,5.279,0.468,4.795,0.338
			c4.635,0.782,9.192,2.035,13.687,3.38c9.397,2.813,19.585-3.275,22.142-12.572C334.502-2.832,328.677-12.546,319.285-15.357z"/>
	</g>
</g>
</svg>
