<?xml version="1.0" encoding="utf-8"?>
<!-- Generator: Adobe Illustrator 16.0.0, SVG Export Plug-In . SVG Version: 6.00 Build 0)  -->
<!DOCTYPE svg PUBLIC "-//W3C//DTD SVG 1.1//EN" "http://www.w3.org/Graphics/SVG/1.1/DTD/svg11.dtd">
<svg version="1.1" id="Layer_1" xmlns="http://www.w3.org/2000/svg" xmlns:xlink="http://www.w3.org/1999/xlink" x="0px" y="0px"
	 width="77.444px" height="115.243px" viewBox="0 0 77.444 115.243" enable-background="new 0 0 77.444 115.243"
	 xml:space="preserve">
<path fill="#7C7C7C" d="M50.783,12.309C43.356,2.457,30.846-2.679,18.811,1.417C6.125,5.735-0.709,18.454,0.059,31.503
	c0.434,7.363,2.808,15.026,8.073,20.376c3.941,4.003,9.181,6.496,14.625,7.746c0.206,1.04,0.431,2.078,0.614,3.137
	c0.464,2.684,0.525,5.552,0.724,8.269c0.408,5.563,1.264,11.062,1.315,16.66c0.059,6.218,9.661,6.292,9.661,0.069v-1.288
	c0-0.255-0.022-0.496-0.053-0.73c-0.201-4.904-0.904-9.749-1.263-14.642c-0.206-2.812-0.367-5.646-0.616-8.451
	c-0.147-1.653-0.648-3.239-0.983-4.857c8.675-0.152,16.929-4.007,21.812-11.782C60.562,35.512,57.931,21.792,50.783,12.309z"/>
</svg>
