<?xml version="1.0" encoding="utf-8"?>
<!-- Generator: Adobe Illustrator 16.0.0, SVG Export Plug-In . SVG Version: 6.00 Build 0)  -->
<!DOCTYPE svg PUBLIC "-//W3C//DTD SVG 1.1//EN" "http://www.w3.org/Graphics/SVG/1.1/DTD/svg11.dtd">
<svg version="1.1" id="Layer_1" xmlns="http://www.w3.org/2000/svg" xmlns:xlink="http://www.w3.org/1999/xlink" x="0px" y="0px"
	 width="79.669px" height="186.539px" viewBox="0 0 79.669 186.539" enable-background="new 0 0 79.669 186.539"
	 xml:space="preserve">
<path fill="#7C7C7C" d="M77.952,93.842c-2.721-5.862-7.904-10.331-12.643-14.761c5.105-6.358,9.461-13.619,7.488-22.181
	c-1.396-6.064-6.533-11.825-12.495-14.504c4.446-6.749,6.958-14.372,5.304-22.802C63.709,9.93,55.6,4.712,46.752,2.017
	c-9.831-2.996-22.901-3.013-31.89,2.406c-2.512,1.514-4.728,3.367-6.597,5.47c-4.098,3.88-6.842,9.494-7.891,15.06
	c-0.966,5.121-0.119,10.334,3.15,14.498c1.839,2.343,4.202,3.721,6.711,4.895c-5.89,4.656-9.31,13.045-10.071,20.09
	c-0.53,4.911,0.226,10.784,3.837,14.458c1.582,1.609,3.621,2.695,5.842,3.436c-4.198,4.613-6.742,11.343-7.997,17.006
	c-2.399,10.827,2.354,19.898,11.919,25.304c5.252,2.967,11.673,5.097,18.425,6.145c-0.338,10.335-0.955,20.662-0.865,31.013
	c0.055,6.294-1.235,21.157,6.171,24.191c4.051,1.659,8.301-0.584,9.707-4.561c1.389-3.929,0.438-8.087,0.209-12.104
	c-0.726-12.778,1.059-25.502,0.969-38.219c11.576-1.412,22.19-6.593,27.628-16.837C79.481,107.731,81.176,100.787,77.952,93.842z"/>
</svg>
