<?xml version="1.0" encoding="utf-8"?>
<!-- Generator: Adobe Illustrator 16.0.0, SVG Export Plug-In . SVG Version: 6.00 Build 0)  -->
<!DOCTYPE svg PUBLIC "-//W3C//DTD SVG 1.1//EN" "http://www.w3.org/Graphics/SVG/1.1/DTD/svg11.dtd">
<svg version="1.1" id="Layer_1" xmlns="http://www.w3.org/2000/svg" xmlns:xlink="http://www.w3.org/1999/xlink" x="0px" y="0px"
	 width="49.22px" height="115.243px" viewBox="0 0 49.22 115.243" enable-background="new 0 0 49.22 115.243" xml:space="preserve">
<path fill="#919191" d="M36.365,43.778c-1.27-2.734-3.688-4.82-5.898-6.886c2.382-2.966,4.414-6.354,3.493-10.348
	c-0.651-2.829-3.048-5.516-5.829-6.766c2.075-3.148,3.247-6.705,2.475-10.637c-0.885-4.508-4.668-6.943-8.795-8.2
	C17.224-0.457,11.127-0.464,6.934,2.063C5.762,2.77,4.728,3.634,3.856,4.615c-1.912,1.81-3.192,4.429-3.681,7.025
	c-0.451,2.389-0.055,4.821,1.47,6.764c0.857,1.093,1.96,1.735,3.13,2.283c-2.748,2.172-4.343,6.086-4.698,9.372
	c-0.248,2.292,0.105,5.031,1.79,6.745c0.738,0.75,1.689,1.257,2.725,1.603c-1.958,2.152-3.145,5.292-3.73,7.934
	c-1.12,5.051,1.098,9.283,5.56,11.805c2.45,1.384,5.445,2.377,8.595,2.867c-0.158,4.821-0.446,9.639-0.403,14.467
	c0.025,2.936-0.576,9.87,2.878,11.286c1.89,0.774,3.873-0.273,4.529-2.128c0.648-1.832,0.204-3.772,0.098-5.646
	c-0.339-5.961,0.494-11.897,0.452-17.83c5.4-0.658,10.351-3.076,12.888-7.855C37.079,50.257,37.87,47.018,36.365,43.778z"/>
</svg>
