<?xml version="1.0" encoding="utf-8"?>
<!-- Generator: Adobe Illustrator 16.0.0, SVG Export Plug-In . SVG Version: 6.00 Build 0)  -->
<!DOCTYPE svg PUBLIC "-//W3C//DTD SVG 1.1//EN" "http://www.w3.org/Graphics/SVG/1.1/DTD/svg11.dtd">
<svg version="1.1" id="Layer_1" xmlns="http://www.w3.org/2000/svg" xmlns:xlink="http://www.w3.org/1999/xlink" x="0px" y="0px"
	 width="33.295px" height="53.987px" viewBox="0 0 33.295 53.987" enable-background="new 0 0 33.295 53.987" xml:space="preserve">
<path fill="#D0D0D0" d="M31.175,28.464c-3.978-0.565-6.813-3.237-9.953-5.516c-0.161-0.117-0.316-0.177-0.476-0.249
	c-0.015-0.37-0.109-0.74-0.269-1.091c-0.002-0.982-0.037-1.968-0.079-2.951c1.169,0.783,2.405,1.473,3.7,2.046
	c1.446,0.641,3.106,0.437,3.972-1.042c0.731-1.249,0.407-3.333-1.041-3.972c-3.094-1.369-5.886-3.26-7.657-6.201
	c-0.203-1.063-0.418-2.129-0.688-3.195c-0.919-3.63-6.521-2.09-5.6,1.542c0.132,0.522,0.225,1.04,0.34,1.559
	c-0.433,0.238-0.804,0.577-1.015,1.046c-1.335,2.936-3.864,4.721-6.322,6.671c-1.242,0.987-1.022,3.084,0,4.106
	c1.214,1.215,2.868,0.983,4.106,0c1.531-1.215,3.059-2.422,4.39-3.802c0.079,1.155,0.133,2.311,0.153,3.464
	c-4.127,2.134-8.204,4.342-12.691,5.649c-3.589,1.044-2.062,6.648,1.542,5.6c3.848-1.119,7.431-2.834,10.973-4.644
	c-0.114,1.768-0.268,3.537-0.466,5.307c-0.715-0.188-1.482-0.128-2.095,0.321c-1.151,0.844-2.54,1.897-4.056,1.644
	c-1.56-0.261-3.119,0.385-3.571,2.028c-0.388,1.405,0.465,3.311,2.029,3.571c2.526,0.422,4.764-0.035,6.87-1.182
	c-0.531,3.7-1.124,7.415-1.64,11.163c-0.505,3.659,5.092,5.24,5.601,1.542c0.54-3.929,1.154-7.828,1.702-11.712
	c1.309,0.578,2.838,0.76,4.209,0.777c3.747,0.047,3.744-5.761,0-5.809c-0.21,0-0.42-0.006-0.629-0.015
	c-0.113-0.006-0.189-0.008-0.242-0.008c-0.044-0.008-0.078-0.016-0.149-0.026c-0.269-0.048-0.53-0.125-0.789-0.206
	c-0.028-0.01-0.037-0.01-0.06-0.018c-0.033-0.022-0.086-0.057-0.188-0.112c-0.08-0.054-0.09-0.058-0.125-0.078
	c-0.163-0.146-0.313-0.301-0.457-0.462c0.381,0.432-0.142-0.297-0.167-0.342c-0.051-0.091-0.087-0.147-0.111-0.189
	c-0.012-0.049-0.034-0.124-0.091-0.283c-0.074-0.208-0.168-0.405-0.274-0.59c0.122-1.148,0.228-2.297,0.32-3.445
	c2.875,2.137,5.757,4.177,9.45,4.702c1.565,0.224,3.112-0.356,3.572-2.028C33.584,30.659,32.747,28.688,31.175,28.464z"/>
</svg>
