<?xml version="1.0" encoding="utf-8"?>
<!-- Generator: Adobe Illustrator 16.0.0, SVG Export Plug-In . SVG Version: 6.00 Build 0)  -->
<!DOCTYPE svg PUBLIC "-//W3C//DTD SVG 1.1//EN" "http://www.w3.org/Graphics/SVG/1.1/DTD/svg11.dtd">
<svg version="1.1" id="Layer_1" xmlns="http://www.w3.org/2000/svg" xmlns:xlink="http://www.w3.org/1999/xlink" x="0px" y="0px"
	 width="29.302px" height="101.599px" viewBox="0 0 29.302 101.599" enable-background="new 0 0 29.302 101.599"
	 xml:space="preserve">
<path fill="#A5A5A5" d="M14.034,18.041c-0.032-3.995,0.189-8.149-0.568-12.091c-0.524-2.728-1.578-5.166-4.587-5.576
	C8.525,0.325,8.169,0.315,7.815,0.331C5.547-0.251,2.307-0.276,1.103,2.023c-0.5,0.954-0.588,1.963-0.604,3.004
	C0.353,5.155,0.242,5.332,0.207,5.566c-0.522,3.508,0.101,6.837,0.144,10.335c0.001,0.131,0.003,0.261,0.005,0.391
	c-0.004,0.103-0.009,0.206-0.013,0.309c-0.036,0.856-0.001,1.715,0.054,2.574c0.037,2.555,0.062,5.108-0.008,7.664
	c-0.079,2.886-0.46,5.912,1.18,8.48c0.909,1.423,2.278,2.512,3.851,3.017c-0.083,2.142-0.188,4.282-0.17,6.428
	c0.013,1.535-0.301,5.161,1.505,5.901c0.988,0.405,2.025-0.142,2.368-1.112c0.339-0.958,0.107-1.973,0.051-2.953
	c-0.159-2.796,0.175-5.583,0.23-8.367c0.112-0.051,0.223-0.103,0.329-0.163c0.949-0.275,1.883-0.69,2.561-1.272
	c2.025-1.74,2.33-5.228,2.355-7.703C14.687,25.403,14.064,21.736,14.034,18.041z"/>
</svg>
