<?xml version="1.0" encoding="utf-8"?>
<!-- Generator: Adobe Illustrator 16.0.0, SVG Export Plug-In . SVG Version: 6.00 Build 0)  -->
<!DOCTYPE svg PUBLIC "-//W3C//DTD SVG 1.1//EN" "http://www.w3.org/Graphics/SVG/1.1/DTD/svg11.dtd">
<svg version="1.1" id="Layer_1" xmlns="http://www.w3.org/2000/svg" xmlns:xlink="http://www.w3.org/1999/xlink" x="0px" y="0px"
	 width="82.459px" height="30.198px" viewBox="0 0 82.459 30.198" enable-background="new 0 0 82.459 30.198" xml:space="preserve">
<path fill="#B6B6B6" d="M78.493,13.913c-1.943-4.816-5.041-8.356-10.682-9.364c-3.667-0.656-7.408,0.875-10.599,3.074
	c-1.427-1.894-3.296-3.432-5.806-4.542c-1.25-0.552-2.59-0.855-3.965-0.957c-4.92-2.666-10.119,0.291-14.104,4.496
	c-0.727-1.333-2.426-2.288-3.854-2.378c-0.083-0.006-0.167-0.008-0.252-0.012c-1.937-4.766-6.815-4.943-11.983-3.272
	c-6.039,1.953-8.286,7.591-8.114,13.235c-1.697,0.244-3.389,0.558-5.073,0.97c-4.188,1.024-5.6,6.287-2.017,8.992
	c4.075,3.079,8.221,3.356,12.446,2.737c0.276,0.075,0.562,0.138,0.869,0.164c3.938,0.338,7.884,0.55,11.833,0.626
	c1.29,0.132,2.582,0.268,3.872,0.402c7.37,0.772,14.739,1.562,22.146,1.899c9.668,0.439,26.446,1.354,29.146-10.891
	C82.954,16.382,80.866,14.455,78.493,13.913z"/>
</svg>
