<?xml version="1.0" encoding="utf-8"?>
<!-- Generator: Adobe Illustrator 16.0.0, SVG Export Plug-In . SVG Version: 6.00 Build 0)  -->
<!DOCTYPE svg PUBLIC "-//W3C//DTD SVG 1.1//EN" "http://www.w3.org/Graphics/SVG/1.1/DTD/svg11.dtd">
<svg version="1.1" id="Layer_1" xmlns="http://www.w3.org/2000/svg" xmlns:xlink="http://www.w3.org/1999/xlink" x="0px" y="0px"
	 width="203.243px" height="81.02px" viewBox="0 0 203.243 81.02" enable-background="new 0 0 203.243 81.02" xml:space="preserve">
<path fill="#FFFFFF" d="M191.818,23.833c-6.271-4.811-15.014-5.038-21.913-1.615c-2.261,1.122-4.148,2.703-5.692,4.57
	c-0.371-4.367-1.517-8.762-3.523-13.034c-3.166-6.738-10.79-8.347-17.107-6.176c-3.013-2.823-6.602-5.071-10.904-6.495
	c-10.592-3.506-20.843,1.921-27.085,10.234c-3.021,4.023-3.993,8.752-3.566,13.439C95.344,14.95,85.323,7.268,74.329,3.428
	c-8.738-3.051-18.85-2.046-26.822,2.566C42.94,8.636,39.362,12.5,36.632,16.945c-0.832-1.102-1.784-2.128-2.704-3.125
	c-4.082-4.428-12.506-5.93-17.571-2.268C8.787,17.025,3.914,23.444,0.693,32.218c-2.726,7.426,2.986,15.872,10.128,17.836
	c6.258,1.722,11.857-0.846,15.341-5.517c0.171,0.013,0.345,0.028,0.513,0.035c0.178,0.009,0.326,0.015,0.472,0.021
	c0.602,0.198,0.978,0.313,1.133,0.345c0.491,0.262,0.976,0.533,1.449,0.826c0.203,0.118,2.937,2.11,1.999,1.334
	c1.59,1.271,3.149,2.578,4.724,3.867c-2.484,8.617,5.563,17.826,14.223,17.605c13.212-0.338,23.474-6.607,30.52-17.682
	c0.161-0.252,0.292-0.516,0.433-0.775c0.021,0.104,0.043,0.207,0.063,0.312c1.113,5.762,8.021,11.317,13.982,10.646
	c0.45-0.051,0.887-0.123,1.331-0.182c3.867,3.88,8.404,6.66,13.309,8.332c1.041,5.046,4.271,9.295,10.004,10.83
	c16.854,4.516,31.424-7.477,38.874-21.662c0.328-0.626,0.596-1.251,0.836-1.876c2.005-0.046,4.013,0.056,6.01,0.22
	c0.046,0.004,0.083,0.007,0.125,0.01c0.947,0.156,1.883,0.373,2.814,0.604c2.601,3.925,7.129,6.412,12.192,6.725
	c-4.457-0.275,1.682,0.152,3.267,0.354c2.938,0.376,6.722-0.836,9.278-2.225c6.5-3.527,9.56-9.195,9.531-16.53
	C203.208,36.71,198.752,29.151,191.818,23.833z"/>
</svg>
