<?xml version="1.0" encoding="utf-8"?>
<!-- Generator: Adobe Illustrator 16.0.0, SVG Export Plug-In . SVG Version: 6.00 Build 0)  -->
<!DOCTYPE svg PUBLIC "-//W3C//DTD SVG 1.1//EN" "http://www.w3.org/Graphics/SVG/1.1/DTD/svg11.dtd">
<svg version="1.1" id="Layer_1" xmlns="http://www.w3.org/2000/svg" xmlns:xlink="http://www.w3.org/1999/xlink" x="0px" y="0px"
	 width="97.803px" height="21.526px" viewBox="0 0 97.803 21.526" enable-background="new 0 0 97.803 21.526" xml:space="preserve">
<g>
	<polygon fill="#ADADAD" points="34.499,9.382 33.329,37.875 37.354,37.826 	"/>
	<polygon fill="#ADADAD" points="46.96,-0.028 45.409,37.728 49.438,37.678 	"/>
	<polygon fill="#ADADAD" points="30.438,10.273 29.301,37.924 33.329,37.875 	"/>
	<polygon fill="#ADADAD" points="42.933,0.021 41.383,37.776 45.409,37.728 	"/>
	<polygon fill="#ADADAD" points="39.281,5.786 37.354,37.826 41.383,37.776 	"/>
	<polygon fill="#ADADAD" points="26.194,5.364 25.275,37.974 29.301,37.924 	"/>
	<polygon fill="#ADADAD" points="-0.409,6.194 5.152,38.221 9.178,38.17 	"/>
	<polygon fill="#ADADAD" points="6.149,8.093 8.737,38.267 12.761,38.218 	"/>
	<polygon fill="#ADADAD" points="10.757,4.58 13.2,38.121 17.223,38.072 	"/>
	<polygon fill="#ADADAD" points="18.394,9.578 17.223,38.072 21.251,38.023 	"/>
	<polygon fill="#ADADAD" points="22.802,0.268 21.251,38.023 25.275,37.974 	"/>
	<polygon fill="#ADADAD" points="62.871,17.274 61.518,37.53 65.544,37.481 	"/>
	<polygon fill="#ADADAD" points="87.455,2.649 85.905,40.404 89.724,37.184 	"/>
	<polygon fill="#ADADAD" points="83.217,-0.473 81.662,37.283 85.697,37.234 	"/>
	<polygon fill="#ADADAD" points="52.735,4.562 49.438,37.678 53.466,37.629 	"/>
	<polygon fill="#ADADAD" points="90.643,4.505 89.724,37.184 93.761,37.135 	"/>
	<polygon fill="#ADADAD" points="96.072,10.822 93.761,37.135 97.803,37.085 	"/>
	<polygon fill="#ADADAD" points="79.246,7.84 77.63,37.332 81.662,37.283 	"/>
	<polygon fill="#ADADAD" points="55.75,7.226 53.466,37.629 57.495,37.578 	"/>
	<polygon fill="#ADADAD" points="59.042,-0.177 57.495,37.578 61.518,37.53 	"/>
	<polygon fill="#ADADAD" points="74.531,14.715 73.6,37.382 77.63,37.332 	"/>
	<polygon fill="#ADADAD" points="70.589,12.66 69.57,37.431 73.6,37.382 	"/>
	<polygon fill="#ADADAD" points="67.419,4.665 65.544,37.481 69.57,37.431 	"/>
</g>
</svg>
