<?xml version="1.0" encoding="utf-8"?>
<!-- Generator: Adobe Illustrator 16.0.0, SVG Export Plug-In . SVG Version: 6.00 Build 0)  -->
<!DOCTYPE svg PUBLIC "-//W3C//DTD SVG 1.1//EN" "http://www.w3.org/Graphics/SVG/1.1/DTD/svg11.dtd">
<svg version="1.1" id="Layer_1" xmlns="http://www.w3.org/2000/svg" xmlns:xlink="http://www.w3.org/1999/xlink" x="0px" y="0px"
	 width="421.062px" height="359.797px" viewBox="0 0 421.062 359.797" enable-background="new 0 0 421.062 359.797"
	 xml:space="preserve">
<g>
	<g>
		<g>
			<polygon fill-rule="evenodd" clip-rule="evenodd" fill="#595959" points="279.702,52.71 279.873,52.247 279.705,52.667 			"/>
			<path fill-rule="evenodd" clip-rule="evenodd" fill="#595959" d="M133.211,77.879c-3.754,2.507-5.001,7.431-9.688,10.168
				c1.665-18.803,4.315-36.883,4.763-56.016c-5.421,1.21-9.508,1.992-12.895,5.457c-0.172,3.275-0.369,6.668-0.523,10.062
				c-0.766,16.756-1.589,33.509-2.238,50.269c-0.193,5.005-1.598,9.131-4.515,13.283c-10.12,14.407-20.268,28.738-24.319,46.357
				c0.402,1.066,0.804,2.134,1.205,3.201c4.22,2.691,7.75,1.459,11.437-1.509c4.521-3.641,7.741-8.132,10.429-13.133
				c4.712-8.77,8.628-17.954,10.5-27.69c2.816-14.645,7.398-28.279,17.409-39.661C134.928,77.107,134.393,76.85,133.211,77.879z
				 M87.102,159.495c2.646-17.564,13.53-29.358,21.919-43.808C108.921,135.888,99.377,155.658,87.102,159.495z"/>
			<path fill-rule="evenodd" clip-rule="evenodd" fill="#595959" d="M58.832,159.707c-5.883,1.717-10.576,5.445-14.779,9.774
				c-2.454,2.529-4.752,5.207-7.141,7.84c-3.014-3.118-4.502-6.874-9.02-7.705c-3.328,0.545-6.838,1.403-9.417,5.598
				c3.11,5.939,7.384,11.785,8.391,18.8c-2.639,6.474-5.482,12.698-7.741,19.128c-7.02,19.972-12.006,40.347-10.936,61.759
				c0.271,5.444,0.948,10.801,5.979,14.252c6.015,0.52,9.651-2.822,12.83-7.106c5.217-7.033,7.549-15.236,9.682-23.527
				c2.694-10.461,3.54-21.225,4.747-31.739c4.533-2.995,8.185-6.544,13.46-8.852c7.711,16.784,4.693,32.677-1.645,48.28
				c-6.404,15.77-17.442,27.059-34.055,32.688c8.383,0.036,15.774-2.688,22.285-7.24c17.766-12.42,26.375-30.081,28.014-51.343
				c0.811-10.507-0.522-20.518-9.32-28.046c3.675-5.707,7.093-10.296,9.744-15.29c4.806-9.056,6.88-18.645,3.884-28.841
				C71.574,160.582,66.355,157.511,58.832,159.707z M31.827,215.802c-0.346,3.615-6.838,6.927-0.978,11.116
				c0.052-0.028,0.102-0.058,0.153-0.086c0.174-2.026-0.311-4.202,1.353-5.895l-0.007,0.016c0.835,2.291,1.195,4.457-1.346,5.879
				c-0.006,0.062-0.007,0.127-0.014,0.189l-0.181-0.079c0.887,1.666,2.98,2.362,3.052,4.794c0.386,13.367,0.356,26.706-4.4,39.436
				c-2.407,6.438-5.876,12.26-13.672,13.621c-4.774-3.803-4.775-9.006-4.723-14.078c0.188-18.059,4.39-35.383,10.013-52.409
				c1.84-5.571,3.527-11.239,6.705-16.868C31.395,206.135,30.875,211.097,31.827,215.802z M42.26,222.243
				c-1.696-3.045-0.355-5.646-0.471-8.072c4.083-1.879,6.609-0.837,9.586,0.487C49.079,218.403,46.586,221.319,42.26,222.243z
				 M55.614,210.029c-4.235-0.85-8.696-0.578-14.061,0.826c-0.721-9.972-1.738-19.388-3.563-28.979
				c5.575-7.377,10.451-15.355,20.252-17.13C69.508,175.068,68.182,194.65,55.614,210.029z"/>
			<path fill-rule="evenodd" clip-rule="evenodd" fill="#595959" d="M166.049,180.571c-3.818-0.118-6.99,1.612-10.709,3.701
				c-2.332,8.444-4.663,17.222-7.189,25.941c-2.773,9.579-5.949,19.024-11.199,27.599c-1.726,2.819-3.271,6.033-8.677,6.231
				c-0.706-12.892,2.821-24.656,7.134-36.257c4.492-12.084,11.274-22.541,22.701-29.625c-4.975-0.039-8.669,1.937-12.163,4.42
				c-13.621,9.681-21.489,23.111-25.824,38.992c-3.439,12.599-9.833,23.512-19.61,32.33c-2.862,2.583-5.836,4.595-9.895,2.978
				c-3.968-6.181-4.107-6.849-2.984-14.24c14.191-10.088,21.759-19.882,24.77-32.362c1.058-4.383,2.254-8.921-1.597-12.316
				c-2.882-0.965-4.942,0.093-7.019,1.006c-16.027,7.054-31.453,40.428-26.415,57.135c2.045,6.785,6.917,9.391,13.845,7.392
				c5.978-1.726,10.378-5.696,14.485-10.117c4.636-4.986,7.672-11.14,11.638-16.53c1.472,0.865,1.63,2.015,1.873,3.121
				c0.889,4.053,2.291,7.892,6.945,8.734c4.748,0.86,8.32-1.716,10.898-5.301c2.614-3.636,4.696-7.653,7.003-11.51
				c-0.041-0.068-0.077-0.142-0.119-0.209l0.186,0.096c-0.022,0.037-0.044,0.075-0.066,0.113c2.252,3.778,2.306,9.716,9.729,9.07
				c3.59-2.252,7.029-5.422,9.11-9.927c-0.058-0.538-0.114-1.076-0.173-1.613c-0.476,0.26-0.949,0.521-1.424,0.78
				c-2.926,1.917-3.836,6.49-8.858,6.522c-1.569-4.822-0.583-9.491,0.474-14.097c2.681-11.691,6.98-22.837,11.562-33.892
				C165.496,186.286,167.832,183.958,166.049,180.571z M105.854,203.012c4.639,3.238,2.867,7.13,1.88,10.334
				c-3.165,10.275-8.764,18.829-19.035,23.613C91.301,223.975,94.096,211.268,105.854,203.012z"/>
			<path fill-rule="evenodd" clip-rule="evenodd" fill="#595959" d="M203.698,112.554c4.365-34.067,13.707-68.21,21.791-103.275
				c-5.323,1.139-9.231,2.609-13.103,5.289c-4.097,23.105-8.135,46.346-12.36,69.553c-2.576,14.146-9.82,25.956-19.5,36.269
				c-2.797,2.98-6.131,6.235-11.108,4.684c-4.356-5.564-4.475-5.999-3.789-14.232c2.117-1.514,4.478-3.066,6.688-4.807
				c9.493-7.475,15.714-17.12,18.556-28.844c0.995-4.107,1.852-8.44-2.343-11.557c-4.486-0.518-8.202,1.399-11.099,3.95
				c-14.89,13.12-22.635,29.862-22.49,49.641c0.087,11.944,7.992,16.006,18.63,10.51c8.42-4.352,13.505-11.939,18.518-19.579
				c1.823-2.783,2.483-6.411,5.785-8.145c-0.001-0.046-0.011-0.126-0.012-0.172l-0.01,0.104c-0.002,0-0.002,0.001-0.004,0.001
				c-0.115,5.386-1.471,11.714,2.915,16.695c3.648,0.495,6.087-0.906,7.651-3.991c0.029-0.502,0.062-0.996,0.092-1.497
				c-0.393,0.315-0.782,0.634-1.175,0.949C206.301,114.389,205.222,115.065,203.698,112.554z M184.68,70.263
				c4.472,11.954-4.791,28.997-18.974,35.501C169.339,92.052,172.52,79.553,184.68,70.263z"/>
			<path fill-rule="evenodd" clip-rule="evenodd" fill="#595959" d="M272.739,186.359c6.837-14.362,14.53-28.39,17.39-44.312
				c0.243-1.359,0.429-2.729,0.652-4.17c-3.577-0.955-5.999,2.191-9.111,1.622c2.051-3.436,2.051-3.436,10.344-7.388
				c2.329-8.344,4.709-17.084,7.221-25.786c1.896-6.574,4.224-13.01,7.594-18.985c2.829-5.018,6.229-9.533,12.795-10.978
				c4.89,7.024-0.01,16.596,5.985,22.592c-0.754,4.372-3.054,6.647-6.177,8.152c-5.381-1.339-5.063-5.567-5.553-9.509
				c-0.427-3.455,0.863-7.333-2.656-11.234c-7.345,13.577-8.595,27.861-11.158,41.896c4.779,0.821,7.993-3.256,13.03-1.544
				c-3.778,4.742-9.964,4.076-14.29,7.85c-5.443,31.073-9.812,62.858-16.159,94.229c-4.35,2.381-8.472,4.046-12.862,4.84
				c-1.871-2.537-0.229-4.584,0.387-6.646c4.723-15.819,8.49-31.873,11.917-48.011c0.459-2.166,1.539-4.364,0.345-6.642
				c0,0,0.159-0.259,0.16-0.258c0,0.001,0.263,0.15,0.262,0.151s-0.233,0.192-0.233,0.192c-2.956,4.811-4.338,10.502-8.245,14.782
				c-0.487,0.277-0.976,0.555-1.464,0.833C272.854,187.477,272.797,186.918,272.739,186.359z"/>
			<path fill-rule="evenodd" clip-rule="evenodd" fill="#595959" d="M170.089,2.68c-7.952,0.664-11.655,6.462-14.893,12.546
				c-5.811,10.917-8.824,22.822-10.786,34.888c-1.663,10.219-3.999,19.9-11.199,27.765c0.515,0.264,1.028,0.53,1.543,0.794
				c2.006-1.037,2.593-3.795,5.057-4.273c0.004-0.037,0.006-0.072,0.008-0.109l0.175,0.071c-0.063,0.009-0.12,0.026-0.183,0.038
				c-0.559,9.009-1.271,18.012-1.639,27.028c-0.714,17.639-0.453,35.228,4.723,52.33c1.603,5.295,3.441,10.604,9.09,13.745
				c2.712-3.38,5.023-6.491,6.565-10.122c-4.392-5.374-6.898-11.342-8.802-17.646c-5.265-17.435-4.864-35.366-4.365-53.223
				c0.328-11.744-0.276-24.005,8.741-33.608c-0.237-0.606-0.507-1.199-0.792-1.78c-0.166,0.356-2.824,3.257-4.189,4.503
				c-0.43-21.664,7.23-42.623,17.233-47.471c4.636,1.181,5.088,4.676,4.71,8.64c-0.523,5.504-2.733,10.419-5.447,15.115
				c-2.977,5.149-9.236,14.119-12.307,19.212c-0.061,0.047,0.792,1.78,0.792,1.78c4.938-5.194,12.05-16.432,15.561-22.577
				c2.958-5.178,5.604-10.589,6.091-16.699C176.154,8.864,175.727,4.429,170.089,2.68z"/>
			<path fill-rule="evenodd" clip-rule="evenodd" fill="#595959" d="M302.398,41.697c-3.625,7.214-6.431,15.147-15.85,18.122
				c0.583-4.725,1.445-8.883,1.525-13.056c0.099-5.039,0.721-10.842-4.473-13.84c-5.752-3.32-10.492,0.868-14.648,4.009
				c-9.909,7.49-16.025,18.027-18.767,29.762c-3.247,13.897-9.668,25.976-17.239,37.706c-0.073,0.551-0.146,1.101-0.218,1.651
				c0.433-0.349,0.864-0.696,1.297-1.044c6.136-4.049,7.485-11.771,12.682-16.94c1.339,2.855,2.519,5.373,3.557,7.587
				c7.429,3.418,12.172,2.434,18.503-3.664c7.986-7.69,12.39-17.478,16.037-27.833c10.637-3.463,16.913-10.841,19.141-21.748
				c-0.071-0.522-0.144-1.045-0.216-1.567C303.285,41.128,302.843,41.412,302.398,41.697z M279.702,52.71
				C279.703,52.711,279.701,52.711,279.702,52.71c-0.096,1.145-0.188,2.287-0.283,3.429c0.053,0.123,0.105,0.245,0.161,0.367
				l-0.185-0.086c0.007-0.094,0.015-0.188,0.023-0.281C278.916,54.978,278.576,53.821,279.702,52.71
				c0.001-0.013,0.003-0.029,0.003-0.043L279.702,52.71z M278.456,46.922c-1.986,3.495-4.06,6.799-3.995,11.961
				c1.237,1.794,2.49,3.613,3.637,5.278c-3.782,17.2-8.825,25.177-18.559,29.533c-6.287-12.076,3.756-47.021,16.589-57.17
				C281.499,38.915,280.657,43.051,278.456,46.922z"/>
			<path fill-rule="evenodd" clip-rule="evenodd" fill="#595959" d="M213.423,208.59c7.526-15.542,15.464-30.928,18.711-48.352
				c-3.883-1.355-6.546,2.344-10.595,1.318c2.336-4.83,7.768-4.249,12.265-8.216c2.353-9.984,5.073-21.521,7.815-33.148
				c3.689-2.263,7.492-3.895,12.865-5.476c-2.963,12.25-7.508,22.855-9.557,34.15c4.931,1.072,8.361-3.269,13.602-1.728
				c-4.241,5.071-10.841,4.616-15.797,8.422c-4.554,16.326-9.223,33.162-11.61,50.66c4.935,1.23,6.426-2.061,8.394-4.172
				c5.092-5.463,7.793-12.495,11.866-18.637c0.476-0.273,0.951-0.547,1.428-0.822c0.099,0.54,0.196,1.08,0.296,1.621
				c-4.605,10.734-10.291,20.641-19.677,27.018c-6.686-0.101-7.812-3.914-8.253-8.529c-0.398-4.189,1.637-8.359-0.011-12.527
				c0,0,0.195-0.244,0.195-0.243s0.265,0.164,0.265,0.164c-0.001,0.001-0.262,0.17-0.262,0.17
				c-3.713,6.245-5.464,13.55-10.342,19.165C213.831,210.4,213.299,210.121,213.423,208.59z"/>
			<path fill-rule="evenodd" clip-rule="evenodd" fill="#595959" d="M223.339,92.24c-2.964,5.143-5.863,10.324-8.917,15.414
				c-1.591,2.652-3.099,5.449-6.002,7.01c-0.361-0.188-0.723-0.376-1.087-0.561c1.933-3.124,3.945-6.203,5.784-9.382
				c6.867-11.872,11.985-24.214,13.996-38.067c3.012-20.768,7.285-41.351,11.008-61.927c3.934-2.413,7.734-4.131,13.023-4.954
				c-8.25,34.928-17.365,69.109-21.879,103.125c1.609,2.53,2.663,1.84,3.682,1.501c0.358,0.205,0.719,0.408,1.079,0.607
				c-1.56,3.104-3.998,4.521-7.629,4.02c-4.549-5.014-2.726-11.139-3.026-16.865L223.339,92.24z"/>
			<path fill-rule="evenodd" clip-rule="evenodd" fill="#595959" d="M371.842,155.714c-1.535,3.061-3.959,4.446-7.733,4.021
				c-5.066-6.338-2.323-13.726-2.568-20.693l-0.021,0.025c-3.934,6.138-5.533,13.551-10.463,19.143
				c-1.19,0.973-1.723,0.693-1.599-0.838c9.46-17.105,15.448-35.235,18-54.728c2.063-15.772,5.632-31.349,8.534-47.023
				c3.473-2.962,7.686-3.705,13.071-5.945c-8.238,35.725-17.57,69.867-21.954,103.906c1.531,2.534,2.613,1.862,3.645,1.572
				c0.392-0.315,0.783-0.631,1.175-0.947C371.899,154.71,371.871,155.211,371.842,155.714z"/>
			<path fill-rule="evenodd" clip-rule="evenodd" fill="#595959" d="M331.918,157.51c-2.468,3.249-3.261,7.525-6.366,10.384
				c-0.47,0.321-0.938,0.642-1.408,0.962c-0.027-0.568-0.054-1.136-0.081-1.704c9.563-16.175,12.201-34.528,16.145-52.368
				c3.324-2.178,6.543-3.713,10.361-3.718c2.218,3.443-0.172,6.173-1.091,8.918c-4.05,12.093-8.128,24.174-10.393,36.763
				c-0.575,3.195-1.687,6.557,0.619,9.884c5.255-1.372,6.519-6.369,9.754-9.259c0.533,0.279,1.065,0.559,1.599,0.838
				c-2.338,5.329-6.027,9.463-10.83,12.5c-7.374-2.071-7.503-2.282-8.289-13.214L331.918,157.51z"/>
			<path fill-rule="evenodd" clip-rule="evenodd" fill="#595959" d="M188.027,218.367c9.564-16.174,12.199-34.528,16.146-52.367
				c3.324-2.177,6.542-3.713,10.36-3.717c2.216,3.445-0.173,6.176-1.092,8.92c-4.051,12.094-8.161,24.167-10.368,36.766
				c-0.552,3.151-1.934,6.574,0.699,9.854c5.15-1.346,6.414-6.342,9.649-9.232c0.533,0.279,1.066,0.559,1.599,0.838
				c-2.338,5.329-6.027,9.464-10.83,12.5c-7.374-2.07-7.503-2.281-8.289-13.214l-0.02,0.014c-2.468,3.251-3.263,7.526-6.367,10.386
				c-0.469,0.317-0.938,0.634-1.408,0.949C188.082,219.497,188.055,218.933,188.027,218.367z"/>
			<path fill-rule="evenodd" clip-rule="evenodd" fill="#595959" d="M254.474,176.814c4.247-10.594,6.265-21.795,8.747-32.826
				c3.022-2.538,6.449-3.644,10.248-4.12c2.531,2.861,0.244,5.437-0.546,7.869c-3.776,11.625-7.451,23.277-9.852,35.272
				c-0.797,3.981-2.104,8.112-0.298,12.579c5.443-1.319,6.694-6.378,9.966-9.229c0.546,0.281,1.091,0.562,1.636,0.843
				c-2.631,5.511-6.345,9.991-11.719,12.721c-6.072-0.37-6.729-4.861-7.424-9.061c-0.502-3.038,0.756-6.229-0.535-9.261
				c0,0-0.66-0.361-0.663-0.356c0.084-0.489,0.265-0.946,0.535-1.363c-0.003,0.004,0.308-0.658,0.306-0.654
				c0.204-0.429,0.357-0.88,0.461-1.347C255.236,177.375,254.949,177.019,254.474,176.814z"/>
			<path fill-rule="evenodd" clip-rule="evenodd" fill="#595959" d="M166.812,220.677c3.127-7.6,6.807-15.03,9.225-22.85
				c2.328-7.524,3.354-15.452,4.883-22.87c3.436-2.709,6.951-3.511,12.072-4.887c-5.028,19.299-12.706,36.773-13.62,55.666
				c3.204,1.473,3.473-1.934,5.294-2.214c0.421-0.276,0.841-0.554,1.261-0.829c-0.008,0.502-0.016,1.005-0.024,1.509
				c-1.709,3.384-4.27,5.721-8.435,6.704c-6.97-3.345-2.421-10.501-4.69-15.387l0.191,0.078c-2.566,1.161-2.571,4.284-4.529,5.912
				c-0.477,0.262-0.952,0.522-1.428,0.784C166.945,221.755,166.879,221.215,166.812,220.677z"/>
			<path fill-rule="evenodd" clip-rule="evenodd" fill="#595959" d="M321.936,172.987c-1.694,3.538-4.496,5.668-7.925,6.685
				c-5.22-1.618-4.525-5.824-4.56-9.308c-0.082-8.253,1.374-16.37,2.983-24.443c1.491-7.49,3.028-14.972,4.472-22.091
				c3.476-2.66,6.805-3.979,11.919-4.231c-4.815,18.546-12.517,36.022-13.412,54.923c3.195,1.472,3.466-1.938,5.288-2.217
				c0.421-0.276,0.842-0.552,1.264-0.829C321.955,171.98,321.947,172.483,321.936,172.987z"/>
			<path fill-rule="evenodd" clip-rule="evenodd" fill="#595959" d="M268.021,130.642c-3.988-9.47-0.567-16.673,4.51-23.475
				c5.425-1.179,7.11,1.447,7.369,5.791C280.41,121.517,276.072,128.537,268.021,130.642z"/>
			<path fill-rule="evenodd" clip-rule="evenodd" fill="#595959" d="M370.754,155.154c9.404-13.847,16.049-29.071,21.768-44.76
				c0.972,9.893-11.526,36.522-20.68,45.319C371.48,155.525,371.118,155.338,370.754,155.154z"/>
			<path fill-rule="evenodd" clip-rule="evenodd" fill="#595959" d="M168.439,221.51c-1.343,3.47-2.838,6.848-5.54,9.526
				c-0.532-0.277-1.063-0.556-1.597-0.833c1.496-3.372,3.195-6.627,5.51-9.526C167.354,220.955,167.896,221.232,168.439,221.51z"/>
			<path fill-rule="evenodd" clip-rule="evenodd" fill="#595959" d="M184.666,223.522c0.488-2.131,1.869-3.681,3.361-5.155
				c0.496,0.25,0.992,0.498,1.488,0.747c-0.793,1.988-1.842,3.795-3.613,5.087C185.49,223.975,185.078,223.748,184.666,223.522z"/>
			<path fill-rule="evenodd" clip-rule="evenodd" fill="#595959" d="M325.552,167.894c-0.792,1.991-1.845,3.798-3.616,5.094
				c-0.41-0.229-0.821-0.456-1.234-0.683c0.488-2.13,1.868-3.679,3.361-5.153C324.558,167.4,325.055,167.646,325.552,167.894z"/>
			<path fill-rule="evenodd" clip-rule="evenodd" fill="#595959" d="M251.382,183.412c0.364-0.724,0.728-1.45,1.093-2.177
				c0.489-0.25,0.979-0.501,1.469-0.753c0.062,0.547,0.123,1.094,0.183,1.641c-0.34,0.696-0.681,1.392-1.021,2.088
				C252.531,183.945,251.957,183.68,251.382,183.412z"/>
			<path fill-rule="evenodd" clip-rule="evenodd" fill="#595959" d="M254.697,181.602l-0.571,0.521
				c-0.55-0.295-1.101-0.592-1.651-0.888c0.329-0.729,0.66-1.46,0.99-2.189c0.441,0.026,0.884,0.052,1.324,0.08
				c0.135,0.421,0.27,0.842,0.404,1.264C255.018,180.789,254.852,181.193,254.697,181.602z"/>
			<path fill-rule="evenodd" clip-rule="evenodd" fill="#595959" d="M253.465,179.046c0.337-0.744,0.674-1.488,1.009-2.232
				c0.557,0.274,1.114,0.547,1.672,0.822l0.073,0.267c-0.251,0.591-0.503,1.181-0.755,1.771l-0.297,0.138
				C254.6,179.557,254.032,179.301,253.465,179.046z"/>
			<path fill-rule="evenodd" clip-rule="evenodd" fill="#595959" d="M32.355,220.938c0.953-0.627,0.548,0.873,0.32-0.233
				c-0.084-0.409-0.481-0.267-0.327,0.249L32.355,220.938z"/>
			<path fill-rule="evenodd" clip-rule="evenodd" fill="#595959" d="M144.126,231.779c0.121-0.236,0.243-0.471,0.363-0.707
				c0.43,0.24,0.247,0.445-0.549,0.611L144.126,231.779z"/>
			<polygon fill-rule="evenodd" clip-rule="evenodd" fill="#595959" points="197.876,102.008 197.881,101.529 197.874,101.87 			"/>
			<path fill-rule="evenodd" clip-rule="evenodd" fill="#595959" d="M282.62,172.42c0.36-0.74,0.72-1.479,1.08-2.217l-0.005-0.019
				c-0.422,0.716-0.842,1.434-1.264,2.151L282.62,172.42z"/>
			<path fill-rule="evenodd" clip-rule="evenodd" fill="#595959" d="M283.7,170.203c0.894-0.708,0.579,0.825,0.308-0.271
				c-0.101-0.41-0.486-0.256-0.312,0.252L283.7,170.203z"/>
			<path fill-rule="evenodd" clip-rule="evenodd" fill="#595959" d="M279.396,56.421c0.062,0.028,0.122,0.057,0.185,0.086
				L279.396,56.421z"/>
			<path fill-rule="evenodd" clip-rule="evenodd" fill="#595959" d="M225.363,190.263c0.375-0.721,0.751-1.441,1.125-2.16
				l0.027-0.045c-0.063,0.952-0.281,1.805-1.351,2.114L225.363,190.263z"/>
			<path fill-rule="evenodd" clip-rule="evenodd" fill="#595959" d="M226.488,188.103c0.854-0.757,0.665,0.754,0.322-0.318
				c-0.142-0.446-0.542-0.26-0.295,0.273L226.488,188.103z"/>
			<path fill-rule="evenodd" clip-rule="evenodd" fill="#595959" d="M223.339,92.24c0.783-0.828,0.655,0.737,0.273-0.325
				c-0.144-0.404-0.507-0.221-0.241,0.248L223.339,92.24z"/>
			<path fill-rule="evenodd" clip-rule="evenodd" fill="#595959" d="M361.52,139.067c0.889-0.713,0.656,0.775,0.342-0.304
				c-0.134-0.461-0.548-0.279-0.321,0.278L361.52,139.067z"/>
			<path fill-rule="evenodd" clip-rule="evenodd" fill="#595959" d="M331.918,157.51c0.912-0.684,0.645,0.795,0.35-0.29
				c-0.127-0.464-0.547-0.287-0.33,0.276L331.918,157.51z"/>
			<path fill-rule="evenodd" clip-rule="evenodd" fill="#595959" d="M195.883,208.728c0.912-0.685,0.645,0.795,0.35-0.29
				c-0.127-0.464-0.547-0.287-0.33,0.276L195.883,208.728z"/>
			<polygon fill-rule="evenodd" clip-rule="evenodd" fill="#595959" points="255.167,179.812 255.464,179.674 255.193,180.39 			"/>
			<path fill-rule="evenodd" clip-rule="evenodd" fill="#595959" d="M256.219,177.902l-0.073-0.267L256.219,177.902z"/>
			<path fill-rule="evenodd" clip-rule="evenodd" fill="#595959" d="M172.969,215.598c-0.365-0.609-0.275-0.974,0.266-1.092
				c0.346,0.385,0.193,0.723-0.457,1.014L172.969,215.598z"/>
		</g>
	</g>
	<g>
		<path fill="#595959" d="M413.732,126.217c0,0,0.658,0.304,2.272,2.172c0.431,0.457,0.79,1.075,1.265,1.797
			c0.457,0.731,1.013,1.58,1.443,2.653c0.232,0.539,0.479,1.112,0.738,1.722c0.256,0.619,0.411,1.308,0.629,2.036
			c0.471,1.456,0.682,3.148,0.905,5.068c0.291,3.824-0.195,8.664-2.238,13.858c-2.017,5.192-5.442,10.704-10.252,16.108
			c-9.669,10.807-24.563,21.271-44.748,31.393c-11.757,5.874-23.613,10.801-36.053,15.424c-12.44,4.629-25.478,8.93-39.703,13.348
			c-28.448,8.843-61.709,17.961-104.782,30.471c-4.475,1.309-16.109,4.801-31.176,9.447c-7.533,2.328-15.922,4.949-24.689,7.768
			c-4.377,1.428-8.854,2.89-13.375,4.366c-4.491,1.543-9.038,3.061-13.533,4.674c-4.482,1.649-8.976,3.235-13.324,4.978
			c-2.179,0.863-4.359,1.67-6.479,2.557c-2.121,0.883-4.215,1.754-6.283,2.613c-8.211,3.545-15.869,7.032-22.385,10.486
			c-13.157,6.732-21.795,13.022-24.076,14.656c-3.63,2.703-7.523,6.074-10.994,9.793c-3.479,3.711-6.465,7.799-8.513,11.619
			c-0.974,1.926-1.797,3.756-2.336,5.436c-0.541,1.678-0.888,3.18-1.135,4.447c-0.479,2.545-0.582,4.097-1.676,4.597
			c-1.073,0.532-2.802-1.19-3.352-4.567c-0.277-1.672-0.261-3.709,0.12-5.92c0.416-2.191,1.193-4.533,2.285-6.872
			c2.225-4.653,5.716-9.171,9.619-13.129c3.912-3.966,8.216-7.438,12.177-10.38c0.476-0.383,1.408-1.002,2.694-1.912
			c0.646-0.451,1.383-0.968,2.208-1.545c0.83-0.566,1.77-1.15,2.781-1.809c4.024-2.669,9.529-5.848,16.046-9.34
			c6.534-3.449,14.152-7.041,22.364-10.641c2.067-0.865,4.165-1.741,6.29-2.629c2.119-0.906,4.282-1.768,6.47-2.61
			c2.186-0.854,4.392-1.714,6.608-2.579c2.23-0.82,4.473-1.645,6.72-2.469c8.998-3.279,18.138-6.342,26.872-9.182
			c8.741-2.85,17.111-5.498,24.635-7.859c15.045-4.688,26.69-8.316,31.241-9.734c40.848-12.834,74.109-24.098,102.789-34.957
			c14.34-5.422,27.543-10.711,39.957-16.01c12.413-5.301,24.051-10.598,35.162-16.156c19.318-9.673,33.32-18.578,42.412-26.787
			c4.527-4.107,7.785-8.015,10.025-11.596c2.249-3.585,3.393-6.866,4.021-9.733c0.231-1.434,0.52-2.768,0.547-3.986
			c0.031-0.609,0.128-1.198,0.118-1.75c-0.004-0.558-0.01-1.083-0.014-1.577c0.043-1.008-0.062-1.877-0.105-2.657
			c-0.061-0.774-0.035-1.47-0.123-2.031C413.558,127,413.732,126.217,413.732,126.217z"/>
	</g>
</g>
</svg>
