<?xml version="1.0" encoding="utf-8"?>
<!-- Generator: Adobe Illustrator 16.0.0, SVG Export Plug-In . SVG Version: 6.00 Build 0)  -->
<!DOCTYPE svg PUBLIC "-//W3C//DTD SVG 1.1//EN" "http://www.w3.org/Graphics/SVG/1.1/DTD/svg11.dtd">
<svg version="1.1" id="Layer_1" xmlns="http://www.w3.org/2000/svg" xmlns:xlink="http://www.w3.org/1999/xlink" x="0px" y="0px"
	 width="20.014px" height="20.699px" viewBox="0 0 20.014 20.699" enable-background="new 0 0 20.014 20.699" xml:space="preserve">
<path fill="#EAEAEA" d="M19.994,11.535c0.326-2.908-3.471-4.454-5.197-2.081c-1.441-0.342-3.08-0.134-4.488,0.312
	c-0.005-0.024-0.005-0.048-0.012-0.072c-0.015-0.056-0.031-0.121-0.046-0.179c0.323,0.041,0.669-0.033,0.981-0.275
	c1.523-1.18,3.221-2.398,4.13-4.147c0.346-0.663,0.438-1.267,0.357-1.812c0.312-0.081,0.623-0.194,0.93-0.356
	c0.896-0.472,0.733-1.667,0-2.176c-1.578-1.096-3.365-0.958-5.053-0.21c-1.062,0.47-0.645,2.012,0.301,2.304
	c1.495,0.46,1.581,0.859,0.586,1.996c-0.815,0.931-1.822,1.688-2.802,2.443C9.339,5.987,8.904,4.576,8.273,3.396
	c0.671-0.158,1.171-0.324,1.699-0.88c0.549-0.577,0.471-1.576-0.256-1.979C7.809-0.524,5.838-0.25,4.199,1.154
	C3.271,1.949,4.115,3.199,5.09,3.306c0.642,0.07,1.431,2.654,1.616,3.17C6.918,7.068,7.104,7.67,7.281,8.274
	c-0.965-0.376-1.965-0.705-2.816-1.14c0.142-0.945-0.301-1.787-1.75-1.861C0.369,5.154-0.297,7.801,0.851,9.404
	c0.44,0.616,1.404,0.914,1.979,0.255C2.938,9.536,3.054,9.43,3.169,9.321c1.497,0.839,3.172,1.238,4.688,2.081
	c2.303,1.281,0.323,5.955,0.385,8.079c0.047,1.621,2.567,1.626,2.521,0c-0.072-2.499,1.018-4.958,0.471-7.365
	c0.905-0.267,2.123-0.501,3.057-0.255c0.154,0.598,0.523,1.123,1.157,1.408c1.257,0.564,2.733,0.176,3.823-0.598
	c0.327-0.116,0.596-0.381,0.69-0.838c0.005-0.025,0.004-0.048,0.008-0.072C19.983,11.686,19.992,11.613,19.994,11.535z"/>
</svg>
