<?xml version="1.0" encoding="utf-8"?>
<!-- Generator: Adobe Illustrator 16.0.0, SVG Export Plug-In . SVG Version: 6.00 Build 0)  -->
<!DOCTYPE svg PUBLIC "-//W3C//DTD SVG 1.1//EN" "http://www.w3.org/Graphics/SVG/1.1/DTD/svg11.dtd">
<svg version="1.1" id="Layer_1" xmlns="http://www.w3.org/2000/svg" xmlns:xlink="http://www.w3.org/1999/xlink" x="0px" y="0px"
	 width="53.841px" height="91px" viewBox="0 0 53.841 91" enable-background="new 0 0 53.841 91" xml:space="preserve">
<path fill="#B6B6B6" d="M49.96,50.63c-7.633,5.514-16.112,7.224-24.542,8.571c0.052-1.958,0.119-3.915,0.195-5.873
	c7.101-1.348,14.096-4.554,20.682-8.355c3.013-1.739,1.695-8.704-1.363-6.938c-6.016,3.474-12.485,6.647-18.995,8.02
	c0.091-1.855,0.188-3.713,0.289-5.568c5.33-0.973,10.326-4.083,15.453-6.307c3.15-1.365,1.807-8.312-1.362-6.938
	c-4.511,1.954-8.999,4.854-13.693,5.929c0.124-2.273,0.245-4.547,0.36-6.821c2.581-0.18,5.096-0.933,7.518-2.244
	c1.303-0.704,2.189-2.392,1.791-4.425c-0.344-1.749-1.85-3.22-3.154-2.513c-1.907,1.031-3.818,1.717-5.824,1.943
	c0.076-1.894,0.156-3.787,0.211-5.681c0.052,0.003,0.172,0.01,0.172,0.01c3,0,3-7.195,0-7.195c0,0-0.026,0.002-0.033,0.002
	c0.007-0.721,0.008-1.44,0.011-2.16c0.011-4.641-5.12-4.641-5.132,0c-0.002,1.229-0.018,2.461-0.034,3.691
	c-0.966-0.48-1.958-0.783-3.046-0.813c-1.397-0.039-2.563,1.666-2.563,3.598c0,1.99,1.166,3.56,2.563,3.599
	c0.031,0,0.467,0.047,0.516,0.034c0.23,0.062,0.462,0.146,0.687,0.239c0.126,0.057,0.252,0.118,0.376,0.185
	c0.242,0.153,0.479,0.322,0.717,0.489c0.183,0.129,0.373,0.221,0.564,0.295c-0.051,1.501-0.106,3.003-0.169,4.506
	c-2.724-0.656-5.438-1.378-8.163-2.022c-3.233-0.765-4.619,6.169-1.363,6.938c2.91,0.689,5.808,1.471,8.718,2.159
	c0.164,0.038,0.322,0.053,0.477,0.054c-0.083,1.633-0.169,3.264-0.257,4.896c-4.508-1.018-8.835-3.277-13.383-4.102
	c-3.274-0.593-3.232,6.61,0,7.196c4.407,0.798,8.615,2.958,12.996,4.016c-0.09,1.634-0.178,3.268-0.262,4.9
	c-5.296-2.491-10.041-6.535-15.812-6.758c-3.31-0.126-3.3,7.069,0,7.196c5.542,0.213,10.276,4.741,15.464,6.952
	c-0.066,1.594-0.13,3.188-0.183,4.781c-5.372-3.889-11.254-6.648-17.163-8.007c-3.234-0.744-4.621,6.19-1.363,6.938
	c6.41,1.474,12.696,4.576,18.336,9.127C20.093,72.21,20.279,80.244,21,88.276c0.407,4.54,5.54,4.596,5.128,0
	c-0.654-7.285-0.867-14.573-0.826-21.861c9.396-1.502,18.722-3.414,27.246-9.572C55.489,54.719,52.894,48.51,49.96,50.63z"/>
</svg>
