<?xml version="1.0" encoding="utf-8"?>
<!-- Generator: Adobe Illustrator 16.0.0, SVG Export Plug-In . SVG Version: 6.00 Build 0)  -->
<!DOCTYPE svg PUBLIC "-//W3C//DTD SVG 1.1//EN" "http://www.w3.org/Graphics/SVG/1.1/DTD/svg11.dtd">
<svg version="1.1" id="Layer_1" xmlns="http://www.w3.org/2000/svg" xmlns:xlink="http://www.w3.org/1999/xlink" x="0px" y="0px"
	 width="908px" height="474px" viewBox="0 0 908 474" enable-background="new 0 0 908 474" xml:space="preserve">
<path fill="#FFFFFF" d="M240.881,70.931c-6.293-4.827-15.066-5.055-21.989-1.62c-2.27,1.125-4.163,2.712-5.712,4.586
	c-0.374-4.382-1.523-8.792-3.537-13.08c-3.176-6.761-10.828-8.376-17.166-6.198c-3.023-2.833-6.625-5.089-10.943-6.518
	c-10.628-3.519-20.914,1.928-27.179,10.27c-3.031,4.038-4.007,8.783-3.579,13.486c-6.705-9.84-16.762-17.55-27.795-21.402
	c-8.768-3.062-18.914-2.053-26.914,2.575c-4.582,2.651-8.174,6.528-10.913,10.989c-0.835-1.106-1.792-2.136-2.714-3.137
	c-4.096-4.443-12.551-5.95-17.633-2.275C57.211,64.1,52.32,70.541,49.089,79.346c-2.735,7.452,2.997,15.927,10.163,17.898
	c6.279,1.728,11.9-0.849,15.394-5.536c0.173,0.013,0.347,0.028,0.515,0.035c0.18,0.008,0.327,0.015,0.475,0.021
	c0.603,0.2,0.98,0.314,1.135,0.346c0.494,0.262,0.979,0.534,1.455,0.829c0.205,0.118,2.947,2.118,2.006,1.339
	c1.596,1.275,3.16,2.586,4.741,3.88c-2.493,8.648,5.582,17.889,14.272,17.667c13.258-0.339,23.556-6.63,30.625-17.743
	c0.162-0.253,0.294-0.518,0.435-0.778c0.021,0.104,0.043,0.208,0.063,0.312c1.117,5.783,8.048,11.357,14.031,10.683
	c0.451-0.051,0.89-0.123,1.336-0.183c3.881,3.894,8.434,6.683,13.355,8.362c1.045,5.063,4.287,9.327,10.039,10.868
	c16.912,4.53,31.534-7.503,39.009-21.739c0.33-0.627,0.599-1.255,0.84-1.882c2.011-0.046,4.026,0.055,6.029,0.22
	c0.048,0.003,0.083,0.006,0.126,0.01c0.951,0.157,1.891,0.375,2.825,0.606c2.608,3.938,7.153,6.433,12.234,6.748
	c-4.474-0.276,1.687,0.152,3.276,0.355c2.951,0.377,6.748-0.84,9.313-2.232c6.522-3.542,9.591-9.229,9.563-16.589
	C252.311,83.854,247.838,76.269,240.881,70.931z"/>
<path fill="#FFFFFF" d="M706.615,104.93c-8.432-2.927-17.07,0.835-23.096,6.933c-5.503-0.107-10.947,0.714-16.294,2.137
	c-0.856-1.281-1.698-2.571-2.495-3.892c-2.031-3.373-1.629-2.908-2.535-6.217c-2.641-9.634-13.003-12.692-21.375-8.697
	c-1.971,0.941-3.842,1.854-5.645,2.845c-7.346-0.93-13.988,1.953-19.131,6.903c0.064-1.068,0.084-2.137,0.01-3.204
	c-0.502-7.276-6.264-15.388-14.551-14.551c-17.5,1.77-38.902,5.691-48.549,20.098c-3.609,0.159-7.13,0.996-10.416,2.426
	c-1.394-1.08-3.023-1.921-4.9-2.438c-3.676-1.011-7.963-0.429-11.387,1.516c-0.791,0.119-1.582,0.234-2.369,0.378
	c-0.062,0.013-4.926,0.802-2.152,0.596c-4.74,0.352-10.467,2.425-12.564,7.207c-3.676,8.387-4.197,18.205,4.897,23.532
	c1.729,1.013,3.511,1.604,5.306,1.876c2.906,3.447,7.432,5.249,11.906,5.176c2.02,1.173,4.367,1.846,7.01,1.846
	c0.996,0,1.969-0.115,2.916-0.312c2.229,5.362,7.724,9.497,13.644,9.344c8.421-0.219,16.262-2.719,23.806-5.896
	c2.785,4.594,7.495,8.193,12.783,9.294c6.938,1.445,14.895,0.546,21.024-3.282c2.406,1.818,5.364,2.894,8.614,2.894
	c2.527,0,5.203-0.783,7.545-2.146c6.529-1.129,12.797-3.42,18.926-6.069c6.541,0.507,13.119-0.224,19.539-2.842
	c4.024-1.639,8.029-4.891,9.895-8.962c0.504-0.112,1.009-0.217,1.515-0.319c-1.253,0.277,2.093-0.255,2.424-0.275
	c1.357-0.083,2.712-0.005,4.065,0.079c-3.182-0.197,0.975,0.322,1.459,0.446c3.657,0.946,7.97,0.413,11.406-1.506
	c2.583,3.918,6.929,6.542,12.029,6.542c7.757,0,14.783-6.62,14.552-14.551C724.068,119.67,718.543,109.071,706.615,104.93z
	 M521.619,113.233c-0.021,0.036-0.04,0.074-0.062,0.11c-0.794,0.167-1.583,0.403-2.366,0.682c0.279-0.122,0.574-0.252,0.905-0.397
	C517.834,114.541,518.024,112.982,521.619,113.233z"/>
<path fill="#FFFFFF" d="M396.252,169.396c-1.524,0.103-3.04,0.3-4.532,0.593c-0.649-0.253-1.321-0.479-2.021-0.672
	c-6.7-1.843-14.789,0.438-19.725,5.544c-0.216-0.462-0.42-0.929-0.65-1.386c-4.473-8.849-13.646-14.064-22.625-17.158
	c-8.395-2.894-17.57,1.893-22.021,8.961c-2.176,3.455-3.62,7.19-4.376,11.006c-3.175-0.854-6.557-0.906-9.97,0.033
	c-7.137,1.963-10.991,7.099-13.62,13.619c-2.929,7.266-3.278,16.219,0.841,23.151c5.23,8.801,14.132,12.21,23.963,12.533
	c3.491,0.115,6.789-0.836,9.648-2.526c1.491-0.352,2.91-0.873,4.202-1.569c0.272,0.061,0.545,0.12,0.815,0.181
	c0.146,0.315,0.288,0.629,0.449,0.946c4.309,8.434,14.681,13.143,23.885,11.969c8.05-1.027,13.685-4.44,16.824-10.355
	c4.329,0.807,8.872,0.272,12.688-1.873c15.723,4.434,34.078-3.877,39.775-19.333C437.349,182.583,413.882,168.211,396.252,169.396z"
	/>
<path fill="#FFFFFF" d="M889.088,274.934c-4-5.464-8.393-9.697-15.057-11.583c-4.26-1.206-8.669-0.757-12.62,0.889
	c-2.813-0.942-5.774-1.604-8.835-1.954c-6.833-0.782-13.446,1.337-18.762,5.263c-2.244-3.49-5.584-6.321-9.396-8.19
	c-1.581-2.584-3.425-5.025-5.52-7.258c-5.321-5.671-14.402-5.122-19.799,0c-2.837,2.693-4.858,5.967-6.274,9.523
	c-0.075-0.042-0.145-0.091-0.219-0.132c-6.057-3.327-12.152-3.948-17.938-2.454c-3.592,0.223-7.172,1.324-10.736,2.875
	c-7.002,3.046-8.531,13.164-5.021,19.154c1.554,2.653,3.628,4.444,5.978,5.497c5.485,4.814,11.495,7.196,19.11,7.437
	c1.502,0.048,2.905-0.149,4.203-0.535c0.943,0.836,1.9,1.658,2.897,2.434c4.927,3.839,12.888,5.454,18.158,1.836
	c1.023,0.296,2.035,0.55,3.02,0.764c0.019,0.004,0.036,0.005,0.054,0.009c2,2.229,4.563,3.861,7.57,4.54
	c0.004,0.005,0.006,0.011,0.01,0.017c6.122,10.978,23.227,7.641,25.77-3.663c1.896-1.652,3.296-3.885,3.818-6.682
	c0.085-0.455,0.508-1.712,0.732-2.472c0.059-0.013,0.111-0.025,0.164-0.037c0.375-0.004,0.751,0.002,1.125,0.01
	c0.1,0.023,0.199,0.04,0.297,0.065c2.135,4.357,5.585,7.755,10.115,10.8c7.094,4.767,15.791,0.853,19.402-5.755
	c0.912-0.305,1.825-0.715,2.73-1.245C890.141,290.53,893.607,281.105,889.088,274.934z"/>
</svg>
