<?xml version="1.0" encoding="utf-8"?>
<!-- Generator: Adobe Illustrator 16.0.0, SVG Export Plug-In . SVG Version: 6.00 Build 0)  -->
<!DOCTYPE svg PUBLIC "-//W3C//DTD SVG 1.1//EN" "http://www.w3.org/Graphics/SVG/1.1/DTD/svg11.dtd">
<svg version="1.1" id="Layer_1" xmlns="http://www.w3.org/2000/svg" xmlns:xlink="http://www.w3.org/1999/xlink" x="0px" y="0px"
	 width="132.5px" height="132.5px" viewBox="0 0 132.5 132.5" enable-background="new 0 0 132.5 132.5" xml:space="preserve">
<rect fill="#868686" width="132" height="133"/>
<path fill="#616161" d="M26.232,39.594c0-6.168,5.003-11.171,11.172-11.171c1.88,0,3.649,0.47,5.203,1.291
	c-1.848-3.687-5.651-6.225-10.055-6.225c-6.214,0-11.254,5.041-11.254,11.254c0,4.403,2.538,8.207,6.225,10.056
	C26.702,43.243,26.232,41.474,26.232,39.594z"/>
<path fill="#616161" d="M84.586,112.974c0-3.165,2.567-5.735,5.734-5.735c1.086,0,2.098,0.308,2.963,0.833
	c-0.824-1.907-2.722-3.244-4.932-3.244c-2.968,0-5.373,2.408-5.373,5.374c0,1.558,0.667,2.957,1.727,3.938
	C84.628,113.764,84.586,113.374,84.586,112.974z"/>
<path fill="#616161" d="M98.995,94.03c0-4.75,3.845-8.597,8.594-8.597c2.219,0,4.234,0.847,5.759,2.227
	c-1.217-3.973-4.911-6.861-9.283-6.861c-5.362,0-9.705,4.345-9.705,9.709c0,4.368,2.887,8.062,6.86,9.279
	C99.841,98.262,98.995,96.248,98.995,94.03z"/>
</svg>
